<?xml version="1.0" encoding="UTF-8"?>
<svg xmlns="http://www.w3.org/2000/svg" version="1.1" viewBox="0 0 1280 1280">
  <!-- Generator: Adobe Illustrator 29.8.6, SVG Export Plug-In . SVG Version: 2.1.1 Build 1)  -->
  <defs>
    <style>
      .st0 {
        fill: #250326;
      }

      .st1 {
        fill: #2d2d2d;
      }

      .st2 {
        fill: #fff;
      }

      .st3 {
        fill: #262626;
      }

      .st4 {
        fill: #ddbd97;
      }

      .st5 {
        fill: #f1f1f1;
      }

      .st6 {
        fill: #f9988f;
      }

      .st7 {
        fill: #150431;
      }

      .st8 {
        fill: #ba5d5b;
      }

      .st9 {
        fill: #a7bbd1;
      }

      .st10 {
        fill: #ba7070;
        opacity: .5;
      }
    </style>
  </defs>
  <g id="Layer_1">
    <path class="st2" d="M1972.1,6.4"/>
    <path class="st2" d="M2090.5,2.2"/>
    <path class="st9" d="M1972.1,6.4"/>
    <path class="st9" d="M2090.5,2.2"/>
    <path class="st2" d="M1972.1,6.4"/>
    <path class="st2" d="M2090.5,2.2"/>
    <rect class="st4" width="1280" height="1286.4"/>
  </g>
  <g id="Layer_10">
    <g>
      <path class="st3" d="M1256.7,820c0,140.4-113.8,254.1-254.1,254.1s-43.5-2.8-63.9-8.1c-75,58.9-172.4,94.5-278.9,94.5s-240.6-50.3-319-130.4h0c-21.7,5.1-44.6,7.8-68.2,7.8-137.6,0-249.2-92.1-249.2-205.8s47.4-139,118.5-175.3c-3.4-13.8-5.2-28.2-5.2-43,0-101.5,83.9-183.8,187.4-183.8s59.9,7.3,85.6,20.2c70.4-46.4,156.8-73.8,250.2-73.8,156.1,0,292.7,76.4,367.6,190.6,128.7,12.4,229.3,120.9,229.3,252.9Z"/>
      <polygon class="st6" points="498.2 1101.7 498.2 1275.8 846.9 1275.8 846.9 1023 498.2 1023 498.2 1101.7"/>
      <path class="st8" d="M498.2,1023v251c34.2-26.4,84.1-59,149.3-83.5,80.8-30.3,152.1-35.8,199.4-35.5v-132h-348.7Z"/>
      <path class="st9" d="M277.1,1275.8l186.4-104.9,34.7-45.4c5,.3,24.1,42.9,34.9,65.2,15.2,31.5,31.1,59.9,46.8,85.2h-107.6l25.9-28.1c-31.8,13.2-77.8,27.8-134.6,31.4-33.1,2.1-62.4.1-86.5-3.3Z"/>
      <path class="st5" d="M1071.7,1275.8l-186.4-104.9-27.5-45.5c-3.6-4.7-10.8-4.3-13.7.8-8,13.8-20.7,48.6-28.4,64.4-15.2,31.5-31.1,59.9-46.8,85.2h107.6s-25.9-28.1-25.9-28.1c31.8,13.2,77.8,27.8,134.6,31.4,33.1,2.1,62.4.1,86.5-3.3Z"/>
      <polygon class="st9" points="885.3 1170.8 920.3 1235.1 836.4 1238.2 898.5 1224.3 885.3 1170.8"/>
      <path class="st6" d="M939.3,1035.6c-87.8,93.9-219.3,96.4-269.1,96.4s-4.7,0-7,0-.9,0-1.3,0c-59.9.2-204.5.4-293.8-109-35.8-43.8-51.7-91.1-59.1-126.6-2.3-11-3.8-20.8-4.8-29.1.4-12.9,1.9-28.8,6.2-46.6,5-20.6,12.1-37.5,18.5-50.2,1-1.4,2.7-3.5,5-6.3.9-1.1,1.8-2.2,2.9-3.4,7.1-8.4,18.2-20.8,33.2-35,3.4-3.2,7-6.5,10.8-9.9,18-16,40.3-33.6,66.8-50,54.8-34,127.4-63,215.6-63.3,100.3-.3,237.4,33.5,306,121.3,9.5,12.1,17.6,25.3,24.2,39.5,3.2,6.9,17,37.8,19.4,80.4,6,103.8-60.9,178.2-73.6,191.8Z"/>
      <path class="st1" d="M1025,630.1c4.6,83.8,6.8,100.8-7.6,118.2-15.4,18.6-43.2,29.8-56.6,21.2-9.1-5.9-9.2-25.8-8.9-65.4.2-32,2.5-40,1.4-64.8-.6-12.2-1.7-23-5.8-49.4-13.5-86.4-21.7-101.9-13.5-108.1,13-9.9,55.3,11.7,76.6,46.2,10.8,17.4,10.4,28.8,14.4,102.1Z"/>
      <path class="st1" d="M1025,630.1c4.6,83.8,6.8,100.8-7.6,118.2-15.4,18.6-43.2,29.8-56.6,21.2-9.1-5.9-9.2-25.8-8.9-65.4.2-32,2.5-40,1.4-64.8-.6-12.2-1.7-23-5.8-49.4-13.5-86.4-21.7-101.9-13.5-108.1,13-9.9,55.3,11.7,76.6,46.2,10.8,17.4,10.4,28.8,14.4,102.1Z"/>
      <path class="st1" d="M398.2,516.2c-.5,2.6-1,5.3-1.6,8.3-2.9,15.4-6.9,36.4-11.4,65.4-4.1,26.5-5.3,37.2-5.8,49.4-1.1,24.8,1.2,32.7,1.4,64.8,0,4.1,0,8,0,11.7,0,31.9-.8,48.5-9,53.7-.2.1-.4.2-.6.4-6,3.5-14.7,3.3-23.9.3-4.5-1.4-9-3.5-13.4-6.1-7-4.1-13.5-9.5-18.7-15.8-1.1-1.4-2.1-2.7-3.1-4.1-2.8-4.2-4.7-8.6-6-14.2-3.7-16.3-1.7-42.4,1.4-100,4-73.3,3.6-84.7,14.4-102.1,21.3-34.4,63.7-56.1,76.6-46.2,4.9,3.8,4,10.8-.5,34.4Z"/>
      <path class="st6" d="M963.4,804.6c-28,152.7-149.6,269.7-293.8,269.7s-119.1-21.4-166.9-57.8c-63.7-48.6-110.3-123.8-126.6-210.7-4.8-25.5-6.9-52-6.1-79,.2-8.7.4-15.5.5-19.3,0,0,1-42,.5-55.3,0-.2,0-1.3-.1-2.8,0-3,0-5.6,0-7.5,1.6-40.6,9.7-79.3,23.2-114.9,45.6-120.8,152.8-205.7,275.7-205.7s291.9,142.4,298.9,320.6c0,3.5-.1,6.9-.1,10.4.2,18.4.3,36.9.5,55.3.1,6.4.3,12.9.5,19.3.8,26.6-1.3,52.7-5.9,77.8Z"/>
      <path class="st6" d="M942.1,842.8c.7,4.5,5.3,31.7,28.1,46,32.6,20.5,77.5-1.2,100.2-22,6.1-5.6,28.9-27.1,32.1-62.3.6-6.5,4.5-48.8-21.9-67-33.1-22.9-84.2,12.6-90.9,17.4-11.7,8.4-54.5,42.3-47.6,87.9Z"/>
      <path class="st6" d="M377,842.8c-.7,4.5-5.3,31.7-28.1,46-12.2,7.7-26.1,9.4-40,7.5-23.1-3.1-46-16.5-60.3-29.6-6.1-5.5-28.9-27.1-32.1-62.2-.6-6.5-4.5-48.8,21.9-67,22.9-15.8,54.3-3.8,73.8,6.8,8.7,4.7,15.1,9.2,17.2,10.6,1.8,1.3,4.4,3.3,7.5,5.8,3.2,2.6,6.8,5.8,10.5,9.5,15.9,15.8,34.3,41.5,29.6,72.5Z"/>
      <path class="st10" d="M670.2,1131.9c-2.4,0-4.7,0-7,0s-.9,0-1.3,0c-59.9.2-204.5.4-293.8-109-35.8-43.8-51.7-91.1-59.1-126.6-23.1-3.1-46-16.5-60.3-29.6-6.1-5.5-28.9-27.1-32.1-62.2-.6-6.5-4.5-48.8,21.9-67,22.9-15.8,54.3-3.8,73.8,6.8-2.8-4.2-4.7-8.6-6-14.2.7-.7,1.1-1.8,1.1-3.3.2-8.7.4-15.5.6-19.3,0,0,1.2-42,.6-55.3,0-.2,0-1.3-.1-2.8,0-3,0-5.6,0-7.5,1.9-40.6,11.5-79.3,27.5-114.9,19.7-.8,39.4-1.5,59-2.3.6,0,1.2,0,1.8,0,38.3-1.5,76.6-3,114.9-4.5-21,36-45.7,85.6-63.9,145.8-13.6,45-23.6,95.8-25.7,151.4-1.3,35.1-2.5,78.2,9.1,123.1,6.1,23.8,15.9,48,31,71.9.9,1.5,1.9,2.9,2.8,4.3,20.9,31.5,44.2,51.4,55.4,60,59.2,45.2,123.5,49.1,149.9,55.5Z"/>
      <path class="st2" d="M1191,269.4c0,90.7-71.7,165.1-163.1,172.7v181.8c-77.2-30.9-208.9-72.2-376-70.2-60,.7-115.1,6.9-164.3,15.9-73.2,13.4-133.5,33.1-177.9,50.3v-141.9c-97.2-16.7-170.8-95.1-170.8-189.4s93.8-192.6,209.6-192.6,53.8,4.9,77.9,13.8c.3.1.7.2,1,.4,5.5-7.7,11.8-15.1,18.8-22.2,1.4-1.5,2.9-2.9,4.4-4.3,39.1-37.5,97.7-65.3,166.3-77.2,2.2-.4,4.5-.8,6.7-1.1,4.7-.8,9.5-1.4,14.4-2,1.6-.2,3.1-.4,4.7-.6,1.4-.2,2.7-.3,4.1-.4,1.9-.2,3.9-.4,5.8-.6,2.7-.2,5.3-.5,8-.7,3.1-.2,6.3-.4,9.5-.6h.1c2.7-.1,5.4-.2,8.1-.3,1.6,0,3.1,0,4.7-.1C685.7,0,688.5,0,691.4,0s5.4,0,8,0c2.2,0,4.4,0,6.6.2,3.7.1,7.4.3,11,.5,3.1.2,6.2.4,9.3.6,3,.2,6,.5,8.9.8,90,9.2,167.1,46,213,97.8,0,0,0,0,0,0,1.6,1.9,3.1,3.8,4.6,5.8,0,0,.2,0,.3,0,18.5-6.3,38.4-9.7,59.1-9.7,98.7,0,178.6,77.6,178.6,173.3Z"/>
      <path class="st9" d="M993.2,210.5c0,12.5-1.6,24.8-4.5,36.7-5.9,23.3-17.3,45.4-33.3,65.4-3.1-2.9-5.6-5.5-7.5-7.6l-94,76.2,6.7,3.7c-48.2,22.8-106.4,36.1-169.2,36.1s-117.5-12.6-164.9-34.2l-41.1,63.3v119.8c-73.2,13.4-131.4,32.7-175.8,49.9v-141.9c-97.2-16.7-170.8-95.1-170.8-189.4s93.8-192.6,209.6-192.6,53.8,4.9,77.9,13.8c.3.1.7.2,1,.4,1.2-1.7,2.5-3.5,3.9-5.2,3.1-4.1,6.5-8,10.1-11.9,1.6-1.7,3.2-3.4,4.9-5.1,1.4-1.5,2.9-2.9,4.4-4.3,14.6-13.5,31.5-25.7,50.2-36.3,33.5-19,72.9-33.2,116.1-40.8,2.2-.4,4.5-.8,6.7-1.1,4.7-.8,9.5-1.4,14.4-2,1.6-.2,3.1-.4,4.7-.6,1.4-.2,2.7-.3,4.1-.4,1.9-.2,3.9-.4,5.8-.6,2.7-.2,5.3-.5,8-.7,3.1-.2,6.3-.4,9.5-.6h.1c2.7-.1,5.4-.2,8.1-.3,1.6,0,3.1,0,4.7-.1C685.7,0,688.5,0,691.4,0s5.4,0,8,0c2.2,0,4.4,0,6.6.2,3.7.1,7.4.3,11,.5,3.1.2,6.2.4,9.3.6,3,.2,6,.5,8.9.8,90,9.2,167.1,46,213,97.8,0,0,0,0,0,0,1.7,1.9,3.3,3.8,4.9,5.7,25.4,30.9,40,66.6,40,104.8Z"/>
      <path class="st2" d="M993.2,210.5c0,12.5-1.6,24.8-4.5,36.7-48.9,62.9-132.8,104.3-228.2,104.3-150.9,0-273.3-103.9-273.3-232s4.8-49.6,13.6-72.3c33.5-19,72.9-33.2,116.1-40.8,2.2-.4,4.5-.8,6.7-1.1,4.7-.8,9.5-1.4,14.4-2,1.6-.2,3.1-.4,4.7-.6,1.4-.2,2.7-.3,4.1-.4,1.9-.2,3.9-.4,5.8-.6,2.7-.2,5.3-.5,8-.7,3.1-.2,6.3-.4,9.5-.6h.1c2.7-.1,5.4-.2,8.1-.3,1.6,0,3.1,0,4.7-.1C685.7,0,688.5,0,691.4,0s5.4,0,8,0c2.2,0,4.4,0,6.6.2,3.7.1,7.4.3,11,.5,3.1.2,6.2.4,9.3.6,3,.2,6,.5,8.9.8,90,9.2,167.1,46,213,97.8,0,0,0,0,0,0,1.7,1.9,3.3,3.8,4.9,5.7,25.4,30.9,40,66.6,40,104.8Z"/>
      <path class="st0" d="M632.8,890.6c8.6,2.8,57.1,1.7,67.9.1-9.4-20.5-77.5,15.2-69.4-23.6,3.3-15.8,31.6-58.8,23.8-66.5-6.5,10.4-50.2,80.9-22.3,90Z"/>
      <path class="st3" d="M458.9,801.5c-9,7.4-14.3,15.7-23.1,33.4,16.6-11.3,21.5-14.4,37.8-20,1.9-.7,4-1.4,6.2-2.1,0,0,0,0,0,0,61.4-11,73.4-4.7,126,17.9-32.6-46.7-65.8-64.2-122.6-44.8,0,0,0,0,0,0,0,0,0,0,0,0-11,6.4-18.5,10.8-24.3,15.6Z"/>
      <path class="st3" d="M898.5,827.1c-22.8-39.4-52.8-51.8-96.9-47.4-36.3,10.4-47.1,22.8-65.8,53.3,37.8-22.2,60.9-29.5,106.2-22.1,29.5,7.4,34.4,10.7,61.6,25.1l-5-8.8Z"/>
      <path class="st3" d="M933.6,743.7c6.6.4,1.9-6.3-.2-9.4-38.8-60.5-120.3-85.9-188.5-81.4l-3.3,3c-9.2,8.2-4.9,48.1-4.8,61.5,77.3,1,122.1,1.3,196.7,26.3Z"/>
      <path class="st3" d="M382.2,744.3c36.6-13.1,61.3-20.5,100.8-24.3,40.2-3.9,64.4-3.7,104.7-3.4,0-14.1,1.2-38.1.8-51-1-27.2-74.8-8.2-89.3-4.1,0,0,0,0,0,0,0,0,0,0,0,0-52,8-89.4,40.3-117,82.8Z"/>
      <path class="st7" d="M710.2,971c-54.6,10.8-106.6,1-155.5-24.8-4.7-2.5-16.5-11.3-11.4,2.3,56.7,31.6,114.3,43.7,178.5,27.7,8.8-2.2,78.2-24.8,64.1-38.5-27,16.6-43.6,26.8-75.7,33.2Z"/>
      <path d="M337.7,439.6c-13.3,7.5-26.4,15.3-39.3,23.5,0,6.2-3.2,33.9,4,33.3,13-8.6,25.9-17.5,38.5-26.7,0-6.5,2.9-27.9-3.2-30.2Z"/>
      <path class="st7" d="M309.6,478"/>
      <path class="st7" d="M478.3,438.2l-3.2-22.7-8.2-33c20.4-13.9,139,20.9,239.4,20.9s175.1-51.7,175.1-51.7l146.5,90.4.6,39.5c-77.2-25.5-195.4-56.8-275.8-60-86.8-3.5-174.1,6.1-259.9,28.7-6.8,1.8-13.3-3.5-14.5-12Z"/>
      <path class="st9" d="M1191,269.4c0,90.7-71.7,165.1-163.1,172.7v36.1l-167.3-93.2-6.7-3.7,94-76.2c1.9,2.1,4.5,4.7,7.5,7.6,17,16.5,50.7,43.4,100.3,52.8,88.8,16.8,125.5-88,135.3-96.1Z"/>
      <path class="st0" d="M255.9,760.5c-3.7-2.2-8.4-2.1-12.5-2.5l2.2,3.5c4.4,7.3,18.4,12.4,26,16.8-3.5,6.8-6.8,13.7-10,20.7-1.3,2.9-6.9,14.8-4.9,17.3,5.6,7,18.3-26.4,21.2-31.9,8.3,6.2,15.3,13.8,23.6,19.4,1.3,0,3.7-2.7,3-3.8-11.8-16.7-31.3-29.1-48.7-39.4Z"/>
      <path class="st0" d="M1055.7,760.5c3.7-2.2,8.4-2.1,12.5-2.5l-2.2,3.5c-4.4,7.3-18.4,12.4-26,16.8,3.5,6.8,6.8,13.7,10,20.7,1.3,2.9,6.9,14.8,4.9,17.3-5.6,7-18.3-26.4-21.2-31.9-8.3,6.2-15.3,13.8-23.6,19.4-1.3,0-3.7-2.7-3-3.8,11.8-16.7,31.3-29.1,48.7-39.4Z"/>
    </g>
  </g>
</svg>