<?xml version="1.0" encoding="UTF-8"?>
<svg id="Layer_1" xmlns="http://www.w3.org/2000/svg" version="1.1" viewBox="0 0 1080 1080">
  <!-- Generator: Adobe Illustrator 30.3.0, SVG Export Plug-In . SVG Version: 2.1.3 Build 182)  -->
  <defs>
    <style>
      .st0 {
        fill: #c58292;
      }

      .st1 {
        fill: #bd7c6d;
      }

      .st2 {
        fill: #c17d62;
      }

      .st3 {
        stroke: #4d4d4d;
        stroke-width: 10px;
      }

      .st3, .st4 {
        stroke-miterlimit: 10;
      }

      .st3, .st4, .st5 {
        stroke-linecap: round;
      }

      .st3, .st6 {
        fill: #4d4d4d;
      }

      .st7 {
        fill: #ddbc97;
      }

      .st8 {
        fill: #272626;
      }

      .st4 {
        fill: none;
        stroke: #c58292;
        stroke-width: 35px;
      }

      .st9 {
        fill: #fff;
      }

      .st10 {
        fill: #e7f5fd;
      }

      .st5 {
        stroke: #2d2e2d;
        stroke-linejoin: round;
        stroke-width: 14px;
      }

      .st5, .st11 {
        fill: #d7a08f;
      }

      .st12 {
        fill: #d39177;
      }

      .st13 {
        fill: #3e3d3e;
      }
    </style>
  </defs>
  <rect class="st7" width="1080" height="1080"/>
  <g>
    <path class="st10" d="M430.65,217.51c3.81,4.24,9.11,10.57,13.19,14.28,25.9,23.53,51.45,35.14,86.6,36.68,36.66,1.6,67.2-8.63,94.73-33.25,5.89-5.27,11.36-10.85,15.9-17.22,25.17,46.8,66.92,70.51,118.44,68.92,1.04-.03,1.97-.03,2.57.97l.64-.77c23.71-2.34,46.26-11.37,65.02-26.05,24.63-19.78,40.46-48.48,44.06-79.87,3.58-32.89-6.02-67.68-26.8-93.48-20.65-25.35-50.57-41.42-83.11-44.65-2.64-.27-5.24-.45-7.8-.56,44.32,9.86,76.28,37.77,76.28,70.67,0,41.13-49.97,74.48-111.6,74.48-36.01,0-68.03-11.38-88.43-29.05-20.43,17.35-52.16,28.49-87.79,28.49-33.02,0-62.69-9.57-83.12-24.78-20.43,15.21-50.1,24.78-83.12,24.78-61.64,0-111.6-33.34-111.6-74.48,0-32.03,30.29-59.33,72.8-69.85-1.89-.18-3.78-.33-5.67-.42-35.25-1.52-65.12,8.84-91.04,32.97-25.05,23.39-39.74,55.79-40.84,90.04-1.09,34.98,9.99,59.66,33.62,84.56,21.15,22.52,50.42,35.65,81.3,36.47,36.76-.11,65.5-10.04,92.37-36.28,7.48-7.3,19.02-22.79,23.4-32.58Z"/>
    <path class="st9" d="M542.55,38.13c36.01,0,68.03,11.38,88.43,29.05,5.04-4.28,10.76-8.17,17.06-11.62-35.84-46.56-91.7-66.18-151.94-49.34-27.95,7.82-48.08,22.02-64.96,41.51,10.64,4.01,20.19,9.15,28.29,15.18,20.43-15.21,50.1-24.78,83.12-24.78Z"/>
    <path class="st9" d="M264.71,112.61c0,41.13,49.97,74.48,111.6,74.48,33.02,0,62.69-9.57,83.12-24.78-17.71-13.18-28.48-30.6-28.48-49.69s10.77-36.51,28.48-49.69c-8.1-6.03-17.65-11.17-28.29-15.18-7.23,8.35-13.87,17.66-20.28,27.87-5.59-3.92-10.79-8.83-16.7-12.83-16.98-11.24-36.44-18.09-56.65-20.01-42.51,10.52-72.8,37.82-72.8,69.85Z"/>
    <path class="st9" d="M607.17,113.17c0-17.36,8.9-33.33,23.81-45.99-20.41-17.67-52.43-29.05-88.43-29.05-33.02,0-62.69,9.57-83.12,24.78,17.71,13.18,28.48,30.6,28.48,49.69s-10.77,36.51-28.48,49.69c20.43,15.21,50.1,24.78,83.12,24.78,35.63,0,67.36-11.14,87.79-28.49-14.52-12.57-23.17-28.33-23.17-45.43Z"/>
    <path class="st9" d="M487.91,112.61c0-19.1-10.77-36.51-28.48-49.69-17.71,13.18-28.48,30.6-28.48,49.69s10.77,36.51,28.48,49.69c17.71-13.18,28.48-30.6,28.48-49.69Z"/>
    <path class="st9" d="M654.15,112.61c0,17.36-8.9,33.33-23.81,45.99,20.41,17.67,52.43,29.05,88.43,29.05,61.64,0,111.6-33.34,111.6-74.48,0-32.89-31.96-60.8-76.28-70.67-35.83-1.48-63.71,13-91.38,35.69-4.41-8.12-9.32-15.67-14.67-22.63-6.3,3.45-12.02,7.35-17.06,11.62,14.52,12.57,23.17,28.33,23.17,45.43Z"/>
    <path class="st9" d="M654.15,112.61c0-17.1-8.64-32.86-23.17-45.43-14.92,12.66-23.81,28.63-23.81,45.99s8.64,32.86,23.17,45.43c14.92-12.66,23.81-28.63,23.81-45.99Z"/>
    <path class="st9" d="M642.37,423.35c24.3.23,48.6.31,72.9.25,14.71.01,32.22.47,46.75-.02-.33-3.32-.1-10.81-.08-14.45l.07-28.08.07-93.15c-.6-1-1.53-1-2.57-.97-51.53,1.59-93.27-22.12-118.44-68.92-4.54,6.38-10.01,11.96-15.9,17.22-27.53,24.62-58.07,34.85-94.73,33.25-35.15-1.54-60.7-13.15-86.6-36.68-4.08-3.71-9.38-10.04-13.19-14.28-4.38,9.79-15.93,25.28-23.4,32.58-26.87,26.24-55.61,36.17-92.37,36.28.05,45.2.34,92.08-.36,137.16,8.48.04,20.31-.36,28.38.09l84.16-.09c71.77.41,143.54.36,215.31-.18Z"/>
    <path class="st11" d="M807.85,616.83c-9.48,4.21-15.2,5.11-25.49,4.86-14.76,43.68-34.12,80.81-67.88,113.18-2.75,2.63-16.07,13.76-16.85,15.26-7.49,6.52-15.87,11.05-24.15,16.43-81.87,53.25-200.47,52.22-279.94-5.55-2.96-2.17-14.27-12.39-16.17-12.6-2.32-.58-12.34-10.19-14.83-12.51-20.03-18.73-38.36-43.19-51.36-67.28-7.25-13.43-14.57-33.56-18.89-48.14-9.42-.56-11.7-.15-20.4-3.98-2.31-1.31-4.58-2.7-6.79-4.17-40.06-26.76-30.7-115.36,22.96-125.51,13.45-2.75,27.17,1.77,41.05,1.56,10.36-.15,22.62-2.32,31.69-7.33,24.18-13.35,47-38.13,66.26-57.51,71.77.42,143.54.35,215.31-.18,29.15,45.47,73.75,82.54,130.88,63.11,2.32-.8,12.03-4.47,13.55-4.57,2.82,2.51,12.42,6.39,16.49,9.04,18.37,11.96,30.37,31.57,32.64,53.38,3.32,30.36-3.78,53.4-28.08,72.52Z"/>
    <path class="st1" d="M430.94,890.47c34.98,2.14,69.96,4.27,104.94,6.41,40.53-3.04,81.07-6.09,121.6-9.13.14-.89,3.07-17.32,18.07-23.3,10.53-4.2,20.06-.46,22.16.43.81-29.96,0-60.22.25-90.2.07-8.07.09-16.5-.33-24.55-7.49,6.52-15.87,11.05-24.14,16.43-81.87,53.25-200.47,52.22-279.94-5.56-2.97-2.16-14.27-12.38-16.18-12.6,1.2,38.41-.3,77.76.18,116.29,8.66,9.49,17.31,18.98,25.97,28.47,9.14-.9,18.27-1.79,27.41-2.69Z"/>
    <path class="st13" d="M715.27,423.6c-24.3.06-48.6-.02-72.9-.25,29.14,45.47,73.75,82.54,130.88,63.11,2.33-.79,12.03-4.47,13.55-4.57.08-.98-22.45-51.98-24.78-58.31-14.53.49-32.04.03-46.75.02Z"/>
    <path class="st13" d="M329.11,488.37c10.37-.15,22.62-2.33,31.7-7.34,24.17-13.35,47-38.13,66.25-57.5l-84.16.09c-8.98.6-19.4.45-28.45.34l-.29.62c-3.11,6.37-7.56,12.31-10.8,18.76-7.17,14.3-11.35,28.12-15.29,43.47,13.45-2.76,27.17,1.76,41.05,1.56Z"/>
    <path class="st12" d="M436.9,595.63c31.15-1.62,55.16-28.08,53.74-59.25-1.42-31.16-27.74-55.33-58.91-54.1-31.45,1.24-55.88,27.84-54.44,59.28,1.44,31.44,28.19,55.7,59.62,54.07Z"/>
    <path class="st12" d="M640.47,594.69c30.81-5.12,51.66-34.22,46.59-65.04-5.06-30.82-34.12-51.73-64.95-46.73-30.92,5.01-51.9,34.17-46.82,65.08,5.08,30.91,34.28,51.83,65.18,46.69Z"/>
    <path class="st0" d="M778.43,886.17c-16.21-10.61-38.66-16.92-57.63-19.99l-1.15.27c-1.05,2.51-.29,137.59-.37,149.09-21.26.74-45.2.24-66.63.22h-116.19s-125.85.1-125.85.1c-18.79.02-41.15.72-59.65.16l.15-101.2c0-12.73.75-35.29-.16-47.03-19.45,3.51-37.67,9.04-55,18.78.68,22.18.22,46.48.21,68.77l-.05,124.65h482.4c.49-64.61.46-129.22-.09-193.83Z"/>
    <path class="st9" d="M650.68,886.17l-110.54,33.01-109.21-28.72c-16.98,0-36.73-26.78-53.38-25.78-8.9.99-17.74,1.84-26.61,3.11.9,11.74.15,34.3.16,47.03l-.15,101.2c18.5.56,40.86-.15,59.65-.16l125.85-.09h116.19c21.44.01,45.38.51,66.63-.23.08-11.5-.68-146.58.37-149.09l1.15-.27c-7.1-1.34-15.78-1.19-23.1-1.31-12.14-.81-33.92,21.43-47.03,21.3Z"/>
    <path class="st9" d="M870.63,986.53c-24.26-40.73-48.98-77.1-92.2-100.36.56,64.61.59,129.22.09,193.83h149.42c-11.07-18.44-22.6-36.93-34.01-55.17-7.61-12.18-15.22-26.62-23.3-38.3Z"/>
    <path class="st9" d="M295.95,886.57c-33.4,20.07-56.19,42.79-75.2,76.81-3.79,6.78-9.2,13.49-12.9,20.31-20.04,32.43-40.58,64.53-61.62,96.31h149.9l.05-124.65c0-22.3.47-46.59-.21-68.77Z"/>
    <path class="st13" d="M782.36,621.68c-14.75,43.68-34.12,80.81-67.88,113.18-2.75,2.64-16.08,13.76-16.85,15.26.41,8.04.4,16.47.33,24.55-.26,29.98.55,60.24-.25,90.2,7.31.12,16-.03,23.1,1.31,18.97,3.07,41.42,9.38,57.63,19.99,43.22,23.26,67.95,59.63,92.2,100.36,17.65-26.47,21.8-64.47,6.77-92.18-19.61-36.16-40.45-70.11-53.31-109.88-9.3-28.83-14.78-58.76-16.29-89.02-.85-18.92,0-38.39-.45-57.36-.16-6.79-.13-14.53.5-21.26-9.48,4.21-15.2,5.1-25.48,4.85Z"/>
    <path class="st13" d="M295.95,886.57c17.33-9.74,35.55-15.27,55-18.78,8.87-1.27,17.71-2.12,26.61-3.11-.49-38.53,1.01-77.88-.18-116.29-2.33-.58-12.34-10.19-14.83-12.51-20.04-18.72-38.36-43.19-51.36-67.28-7.24-13.42-14.57-33.55-18.89-48.14-9.43-.57-11.71-.15-20.4-3.98-.46,18.86-.6,37.73-.41,56.6.07,26.6,1.23,48.47-5.94,74.67-2.13,7.76-3.66,16.43-6.21,24.2-6.99,21.32-15.93,41.34-25.3,61.75-18.95,41.26-52.35,78.5-37.65,126.97,1.85,6.1,7.4,18.23,11.47,23.02,3.7-6.81,9.11-13.53,12.9-20.31,19.02-34.01,41.8-56.73,75.2-76.81Z"/>
  </g>
  <rect class="st9" x="366.76" y="457.55" width="134.92" height="169.76" rx="60.98" ry="60.98"/>
  <rect class="st9" x="564.81" y="457.55" width="134.92" height="169.76" rx="60.98" ry="60.98"/>
  <circle class="st8" cx="422.26" cy="556.9" r="45.04"/>
  <circle class="st8" cx="619.58" cy="556.9" r="45.04"/>
  <path class="st5" d="M456.5,686.25c2.15,4.77,7.71,15.29,19.62,22.83,19.24,12.19,39.69,6.89,43.21,5.92"/>
  <path class="st4" d="M380.36,866.18c23.82,14.29,74.35,40.2,143.29,42.89,82.49,3.22,143.09-28.67,166.87-42.89"/>
  <rect class="st9" x="583.42" y="519.97" width="29.63" height="48.34" rx="13.39" ry="13.39"/>
  <rect class="st9" x="387.52" y="519.97" width="29.63" height="48.34" rx="13.39" ry="13.39"/>
  <path class="st6" d="M395.89,618.56c14.14,11.39,32.27,16.62,50.3,14.52,29.98-3.61,55.64-29.61,57.9-59.8,12.42.24,24.85.31,37.27.22,7.67-.05,16.99-.4,24.44,0,2.68,12.45,5.04,21.92,12.68,32.52,15.42,21.38,38.38,29.92,64.17,26.96,18.38-3.48,34.13-12.81,44.96-28.4,10.31-14.83,13.25-33.34,9.86-50.99-3.3-17.19-14.38-31.01-28.71-40.74-15.77-10.7-32.6-12.7-51.13-9.04-17.32,3.42-30.85,13.13-40.6,27.8-6.93,10.43-8.92,19.41-11.12,31.66-10.73-.32-22.4.01-33.18.08-8.81.05-19.49-.15-28.05.7-3.06-37.74-35.19-65.95-73.32-61.85-17.47,1.7-33.53,10.34-44.59,23.98-11.48,14.12-16.26,32.02-14.26,50.02,1.96,16.63,10.36,31.83,23.39,42.35ZM623.34,512.58c30.34-4.92,58.93,15.65,63.91,45.98,4.98,30.33-15.53,58.96-45.85,64-30.4,5.06-59.14-15.53-64.14-45.94-4.99-30.42,15.65-59.11,46.07-64.04ZM435.99,511.94c30.67-1.21,56.57,22.57,57.97,53.24,1.4,30.66-22.22,56.71-52.88,58.3-30.93,1.6-57.25-22.27-58.66-53.21-1.41-30.94,22.62-57.11,53.57-58.33Z"/>
  <line class="st3" x1="305.44" y1="474.8" x2="382.36" y2="592.87"/>
  <line class="st3" x1="778.43" y1="474.8" x2="694.17" y2="580.32"/>
  <path class="st2" d="M527.38,619.06c9.57-1.24,27.34.75,30.34,12.02.66,2.43.3,5.03-.99,7.2-3.26,5.58-10.46,7.72-16.23,9.4-31.46,5.63-46.71-24.15-13.12-28.61Z"/>
</svg>