<?xml version="1.0" encoding="UTF-8"?>
<svg id="Layer_1" xmlns="http://www.w3.org/2000/svg" version="1.1" viewBox="0 0 2048 2048">
  <!-- Generator: Adobe Illustrator 30.3.0, SVG Export Plug-In . SVG Version: 2.1.3 Build 182)  -->
  <defs>
    <style>
      .st0 {
        fill: #fad583;
      }

      .st1 {
        fill: #3d311d;
      }

      .st2 {
        fill: #bdac8b;
      }

      .st3 {
        fill: #2b2b26;
      }

      .st4 {
        fill: #e6e9e0;
      }

      .st5 {
        fill: #816832;
      }

      .st6 {
        fill: #7a7262;
      }

      .st7 {
        fill: #aa8a3e;
      }

      .st8 {
        fill: #fbf2e1;
      }

      .st9 {
        fill: #8f8a7d;
      }

      .st10 {
        fill: #564e44;
      }

      .st11 {
        fill: #b99b6e;
      }

      .st12 {
        fill: #fbf1dd;
      }

      .st13 {
        fill: #b6914b;
      }
    </style>
  </defs>
  <path class="st1" d="M109.2,798.77c-7.63-129.44-36.2-287.5,51.83-396.1,72.69-89.67,214.15-120.83,322.88-151.63,115.35-33.23,231.63-63.17,348.69-89.78,109.25-24.95,237.97-69.51,334,15.85,32.9,19.68,44.17,45.65,60.16,57.15,67.47,27.58,171.5,76.64,225.53,123.26,262.81,226.75,383.78,589.16,306.72,928.46l70.7-24.44c-10.02,42.02-22.71,105.67,36.64,101.65,6.15-.41,15.23,2.07,21.36,3.56l3.72,6.4c-8.53,29.57-25.57,70.88,23.8,87.68,7.83,2.67,22.62-2.65,31.12-5.34l2.97,4.59c-8.09,28.04-13.34,39.37-10.63,68.8-7.92,43.88-66.9,31.95-105.28,55.32-16.5,10.05-48.12,13.56-70.07,27.02-85.36,98.72-191.23,177.64-310.21,231.26-400.57,176.52-815.38,49.52-1048-327.46-144.86-234.75-183.44-466.89-72.92-731.68l11.11-26.77c-2.37-17.99,1.24-20.04-15.6-25.37-30.96-11.37-27.57-13.78-51.34,12.83l-9.77-.63,2.17-10.57c-4.44-3.77-8.97-8.03-13.32-11.95l-5.27,7.96c-5.24,6.18-19.5,28.08-27.8,29.16-11.01-.15-10.71-14.36-21.74-15.32-15.12-1.32-21.67,28.38-33.25,30.01-.11.02-24.12-13.17-33.16-15.54l-25.03,41.62Z"/>
  <path class="st12" d="M326.72,307.92c202.2-69.77,428.1-121.11,637.61-167.5,73.88-16.36,131.37-2.05,194.04,39.12,6.14,5.4,10.19,8.54,16.73,13.49,66.44,49.4,98.1,140.81,110.72,219.44,40.25,250.7-52.98,518.6,85.41,748.75,52.03,86.53,96.9,141.39,192.11,181.38-155.07,47.74-316.72,95.86-470.01,147.68-9.49,28.86-3.84,23.14-25.29,36.84-26.48,16.9-170.58,55.83-183.65,68.59l2.99,3.6c65.85-19.83,129.61-50.4,193.84-65.69-6.26,19.47-9.82,37.91-23.32,52.5l-15.13,5.3,1.7,5.77,5,4.33c-.19,1.43-.19,2.88-.55,4.27-4.08,15.46-22.31,32.18-35.43,40.65-37.7,24.35-64.3,26.35-107.24,16.28-86.14-20.19-146.87-75.81-194.31-148.05-235.64-358.86-31.39-823.69-209.18-1100.26-43.07-66.99-101.97-90.09-176.04-106.48Z"/>
  <path class="st10" d="M1044.49,1597.18c-13.1,7.8-24.04,11.29-38.92,15.47-19.59,5.35-39.04,11.8-59.19,14.74-1.42.21-22.09,5.36-23.08.45,5.12-5.73,36.27-11.56,44.4-13.49,23.07-5.69,45.86-12.47,68.28-20.34,2.27-.87,4.55-1.74,6.82-2.6l1.7,5.77Z"/>
  <path class="st10" d="M888.17,654.11c1.9.52,3.75.84,5.27,2.19,5.57,4.96,2.32,278.69,2.62,310.16-32.52,7.55-65.1,14.83-97.74,21.84-3.59.8-7.13,1.78-10.73,2.54-12.74,2.68-25.4,5.69-38.12,8.44-3.46.75-6.97,1.27-10.42,2.07-12.67,2.91-25.42,5.39-38.1,8.25l-18.88,4.23c-3.64.84-7.23,1.91-10.9,2.57-8.32,1.48-16.26,2.99-24.49,4.94-1-.2-5.84-.64-7.51-2.11-5.06-4.47-1.64-277.54-1.6-309.05,7.79-1.83,15.41-4.14,23.17-6.05l27.36-6.5c2.18-.53,4.34-1.16,6.53-1.69,6.3-1.54,12.68-3.13,19.02-4.54,3.88-.86,7.79-1.6,11.66-2.52,2.47-.59,4.91-1.27,7.39-1.82,6.3-1.41,12.72-2.88,19.05-4.19,6.4-1.32,12.68-2.79,19.05-4.18l38.1-8.39c9.78-2.22,19.59-4.12,29.4-6.17,3.61-.76,7.18-1.73,10.8-2.45,13.04-2.6,25.93-5.41,39.06-7.57Z"/>
  <path class="st12" d="M865.05,666.71c3.86-.77,7.69-1.84,11.55-2.52,2.4-.42,5.57-.44,7.49,1.33,6.32,5.8,3.74,265.53,3.52,294.64-25.59,6.27-51.29,12.14-77.07,17.6l-146.95,32.29c-1.97.42-3.93.91-5.93,1.19-2.92.4-7.11.73-9.42-1.62-6.02-6.12-2.17-266.74-2.2-294.48,2.98-.62,5.94-1.28,8.94-1.82,7.02-1.27,13.64-2.68,20.57-4.27,6.34-1.46,12.71-3.04,19.07-4.42,3.46-.75,6.96-1.32,10.4-2.14l16.94-3.99c3.59-.86,7.15-1.85,10.75-2.63l17.02-3.87,29.35-6.51c2.19-.5,4.35-1.11,6.53-1.62,7.04-1.63,14.13-3.41,21.2-4.9,3.45-.73,6.94-1.21,10.38-1.99l19.08-4.25c9.6-2.24,19.1-4.17,28.78-6.01Z"/>
  <path class="st10" d="M851.11,843.83c.61-.11,1.23-.2,1.84-.31,4.47-.83,8.25-2.57,12.29-.31.46,1.41,1.05,1.84-.02,3.05-2.19,2.47-9.19,3.95-12.03,4.63-2.75.66-5.54,1.17-8.29,1.85l-18.84,4.54-18.73,4.59c-2.36.59-4.7,1.31-7.07,1.85l-19.04,4.29c-2.74.62-5.52,1.1-8.26,1.73-3.61.82-7.15,1.89-10.77,2.7-2.71.61-5.45,1.08-8.16,1.7-8.6,1.97-17.14,4.29-25.72,6.33-18.54,4.4-36.94,9.2-55.63,12.91-4.25.65-9.22,2.14-13.16-.21-.6-1.77-.81-1.45.17-3.46,1.37-2.81,4.11-3.06,6.95-3.57,15.59-2.87,31.08-6.22,46.45-10.07,23.91-5.96,47.77-11.76,71.79-17.24l66.24-15Z"/>
  <path class="st10" d="M852.14,894.74c3.63-.5,6.88-1.44,10.28.28.54,1.35.39.66.46,2.09-1.82,3.07-6.16,4.33-9.42,5.13-2.04.5-4.1.92-6.13,1.46-2.3.61-4.57,1.38-6.88,1.99-2.73.71-5.49,1.27-8.21,1.97l-17.06,4.46c-8.45,2.24-16.97,4.17-25.48,6.19-6.31,1.5-12.71,3.13-19.06,4.47-12.75,2.69-25.38,5.88-38.12,8.61-9.75,2.08-19.49,4.09-29.16,6.52-8.99,2.26-17.85,4.39-26.93,6.27-4.45.88-9.32,2.48-13.8.79-1-.38-2.26-1.02-2.48-2.21-.11-.55.14-1.21.48-1.62,1.91-2.26,5.98-3.35,8.7-3.93,61.04-12.93,122.53-26.37,182.81-42.44Z"/>
  <path class="st10" d="M856.23,793.46c1.13.71,3.87,1.96,4.07,3.48.07.55-.09,1.03-.44,1.45-2.99,3.58-15.01,5.49-19.33,6.4-2.75.57-5.54.97-8.27,1.6-8.58,1.98-17.09,4.36-25.68,6.25-3.98.87-7.98,1.61-11.93,2.61-2.35.59-4.69,1.25-7.05,1.81l-35.99,8.32c-6.34,1.48-12.7,3.12-19.05,4.55-13.31,2.98-26.79,6.49-40.17,8.99-7.91,1.48-15.6,3.04-23.42,4.97-2.88-2.12-2.03-.99-3.15-2.82.11-1.1-.02-1.2.64-2.12,5.23-7.24,167.43-41.19,189.8-45.49Z"/>
  <path class="st10" d="M1236.37,577.39c2.68.03,6.59-.45,8.72,1.85,6.63,7.13,2.17,286.48,2.21,322.21-1.64.44-3.28.87-4.91,1.33-3.46.98-6.89,2.08-10.38,2.95l-16.92,4.17-35.92,8.74-27.26,6.21-36.08,8.52-44.63,10.59c-6.33,1.48-12.69,3.04-19.04,4.44-10.7,2.38-21.12,5.27-31.75,7.94-2.73-.12-6.35.01-8.43-2.17-5.36-5.65-1.82-298.82-1.86-328.66,4.87-1.02,9.76-1.99,14.61-3.11,4.27-.99,8.49-2.19,12.78-3.04,3.47-.69,6.98-1.13,10.43-1.88,3.59-.77,7.13-1.76,10.73-2.46,19.85-3.84,39.5-8.54,59.26-12.81l38.1-8.08,21.16-4.47c19.74-4,39.34-8.71,59.17-12.29Z"/>
  <path class="st12" d="M1231.72,585.9c1.48.48,2.96.76,4.11,1.91,7.03,7.04,2.82,280.14,2.44,307.33-8.33,2.26-16.62,4.73-25,6.79-61.86,15.17-124.13,28.75-185.84,44.5-1.66-.72-5.29-1.91-6.79-3.42-5.04-5.07-1.99-278.5-1.98-311.47,1.56-.3,3.13-.59,4.69-.92,4.01-.84,8-1.8,12.04-2.48,7.22-1.21,14.03-2.64,21.19-4.14l29.46-6.04c3.59-.77,7.13-1.75,10.73-2.48,6.37-1.3,12.7-2.79,19.07-4.08l40.21-8.45c6.41-1.3,12.68-2.65,19.06-4.08,4.16-.93,8.34-1.77,12.5-2.73,2.19-.51,4.36-1.1,6.56-1.56,4.1-.87,8.26-1.49,12.33-2.51,8.42-2.13,16.74-4.31,25.24-6.16Z"/>
  <path class="st10" d="M1190.94,856.92c1.05-.05,8.29-1.08,9.81.88.32.42.21,1.21.08,1.6-.84,2.7-6.36,4.4-8.64,4.97-2.06.52-4.15.9-6.22,1.41-2.99.73-5.93,1.67-8.93,2.35l-16.97,3.96c-4,.94-8.05,1.71-12.05,2.68-2.34.56-4.65,1.21-6.99,1.75-2.74.63-5.51,1.12-8.25,1.74-3.62.83-7.17,1.92-10.8,2.67-9.75,2-19.57,3.83-29.3,5.95-15.91,3.48-31.67,7.54-47.64,10.76-1.87-.05-5.91.36-7.21-1.57-.48-.71-.42-1.77.07-2.46,3.61-5.02,16.05-6.41,21.08-7.51,43.99-9.52,87.78-20.48,131.95-29.18Z"/>
  <path class="st10" d="M1451.95,1334.99c.77,2.17.06,4.61-.12,6.91-18.95,9.38-38.18,12.98-57.73,20.2-49.38,18.24-98.33,36.45-148.28,53.34l-419.66,139.84c-.55-4.28-.54-1.5,1.94-8.08,206.02-75.24,416.72-139.62,623.85-212.21Z"/>
  <path class="st10" d="M1312.62,1194.56l5.84,1.64-.78,4.79c-59.24,25.46-129.37,38.63-191.79,56.43-134.57,38.79-269.35,76.9-404.32,114.33l-7.08-1.38,1.87-4.67c58.95-19.77,120.11-34.73,179.97-51.58,138.85-39.09,278.68-76.42,416.3-119.56Z"/>
  <path class="st10" d="M1351.92,1250.38l3.02,3.47c-11.3,17.39-531.56,163.48-602.67,185.34l-3.12-4.91c18.2-14.61,535-162.27,602.76-183.9Z"/>
  <path class="st10" d="M1389.09,1300.11h5.48s3.47,3.7,3.47,3.7c-24.12,16.69-168.01,55.91-205.69,67.88-133.33,43.61-267.03,86.08-401.08,127.4l-7.08-1.7,1.18-4.38c201.62-63.12,402.86-127.42,603.73-192.89Z"/>
  <path class="st10" d="M1120.68,220.26c7.34,1.45,8.95,2.53,14.73,6.8-6.06,1.25-11.77,2.16-17.37,4.91-30.01,14.74-63.64,19.48-96.63,23.13-14.62,1.62-20.99,1.91-32.81,11.6-7.47,6.13-10.8,9.39-20.8,10.95-12.29-3.51-22.94-7.54-35.85-5.01-4.36,3.8-8.78,7.45-13.18,11.18-31.1,26.32-96.18,7.67-132,34.05-28.13,20.72-31.89,1.09-58.98,7.6-8.74,9-16.46,19.18-28.87,22.83l-6.55-1.84c-2.71-.74-5.45-1.35-8.15-2.15-1.94-.57-3.77-1.55-5.76-1.93-7.04-1.33-83.81,19.77-91.97,24.98-9.31,5.94-2.31,3.1-12.65,7.05-1.66.63-3.35,1.14-5.03,1.71-1.62-.24-8.49-1.15-9.84-1.75-6.92-3.09-6.54-3.1-14.63-3.05l-.91-1.66c41.03-2.03,101.91-39.98,132.36-37.34,10.79.94,17.73,10.53,29.41,4.47,13.83-7.16,18.85-19.26,35.64-23.52,7.41,2.21,15.44,5.01,23.12,5.98,10.13,1.28,14.89-3.8,22.26-9.71,7.72-6.19,12.67-9.93,22.47-12.62,6.9,1.65,14.1,3.61,21.15,4.34,9.9,1.03,14.16-3.37,21.54-9.08,7.91-6.11,13.13-9.7,23.03-12.35,12.22,2.63,22.73,5.61,35.24,2.85,10.14-8.12,19.19-17.17,32.34-19.6,12.2,3.83,21.23,7.09,34.24,4.82,40.97-35.84,103.84-15.99,144.43-47.69Z"/>
  <path class="st10" d="M1240.96,1000.02l9.81,1.39c-22.15,21.59-511.23,137.3-582.96,155.02l-6.9,1.47,1.82-5.19c52.02-22.37,115.29-31.61,170.59-45.99,136.16-34.49,272.04-70.06,407.64-106.71Z"/>
  <path class="st10" d="M1260.24,1068.26l6.03,2.93c-23.49,16.73-517.67,141.52-591.27,160.93-3.67-.55-1.38.11-6.16-3.65,29.91-18.26,130.76-37.48,169.05-47.7l422.35-112.51Z"/>
  <path class="st10" d="M1285.14,1131.8l1.97,3.35-3.29,5.78-592.47,158.72-3.49-2.67,2.26-4.52c198.46-50.83,398.03-104.27,595.02-160.67Z"/>
  <path class="st10" d="M1217.05,391.34l3.06,3.63c-12.37,12.54-513.98,133.29-592.01,153.87l-3.48-2.65c16.78-16.39,526.23-138.34,592.44-154.86Z"/>
  <path class="st10" d="M1222.86,454.35c6.36-1.17,2.81-1.22,10.56,1.49-27.11,20.86-515.56,132.21-591.04,150.55-4,.16-7.45-.87-11.33-1.73,12.27-10.01,536.39-136.28,591.8-150.31Z"/>
  <path class="st10" d="M1186.01,335.59c4.24.39,1.78-.29,6.66,3.77-22.68,15-513.92,130.59-582.81,147.3l-3.56-.51-.83-4.61c62.39-23.18,133.65-35.26,198.43-51.31l382.11-94.64Z"/>
  <path class="st0" d="M366.21,709.83l10.97,5.48c17.98-6.21,9.27-13.46,24.99-26.87,10.53,2.33,15.52,7.99,23.87,14.96l7.48-1.64c8.67-14.79,8.73-20.97,21.43-27.47,17.99,7.18,17.92,10.69,33.49,7.51l15.35-18.79c11.22,1.35,14.6,4.68,24.36,10.6,10.84-4.22,11.75-6.7,20.29-15.03,40.34,7.4,24.68,241.78,26.1,283.86-.86,25.64-1.1,45.64,2.81,70.95,2.57,189.88,27.75,371.18,142.7,528.42,1.41,2.83,1.54,2.91,3.64,5.27,49.2,61.87,73.83,80.34,146.58,113.99,5.95,2.75,3.7,1.17,7.77,4.97,51.62,35.54,131.29,56.77,193.26,57.87,41.49.74,81.37-13.2,120.4-12.09-22.09,35.16-30.45,42.71-57.54,73.85,25.08-6.77,56.22-18.47,78.74-24,5.79,1.02,11.15,2.04,16.81,3.6l2.61.69.23.28-.28.29c11.87,1.34,21.95-2.5,40.69-.14,128.89-35.69,256.53-75.77,382.69-120.17,10.4-3.37,20.71-7,30.91-10.9,21.87-8.51,47.29-18.58,70.04-23.9l6.73-.19c-85.36,98.72-191.23,177.64-310.21,231.26-400.57,176.52-815.38,49.52-1048-327.46-144.86-234.75-183.44-466.89-72.92-731.68l11.11-26.77c8.19-19.86,12.14-28.04,22.89-46.74Z"/>
  <path class="st13" d="M1134.17,1785.66c25.08-6.77,56.22-18.47,78.74-24,5.79,1.02,11.15,2.04,16.81,3.6l2.61.69.23.28-.28.29c11.87,1.34,21.95-2.5,40.69-.14-38.17,9.72-101.61,29.24-138.8,19.28Z"/>
  <path class="st0" d="M1226.76,234.26c67.47,27.58,171.5,76.64,225.53,123.26,262.81,226.75,383.78,589.16,306.72,928.46-31.49,5.19-139.73,40.72-182.02,51.15-92.72-32.99-125.59-74.36-180.87-152.24-203.71-287.01,12.01-661.69-169.36-950.63Z"/>
  <path class="st2" d="M243.97,341.98c68.61-34.02,125.12-30.13,190.48,12.85,7.01,3.34,6,2.78,11.28,8.75l4.93,2.89c9.47,12.58,12.59,15.37,25.11,25.16,30.76,37.07,46.48,79.25,62.77,123.89,7.8,21.37,37.38,125.87,29.01,143.54-5.36-1.71-17.34-12.56-21.68-8.98-14.92,12.31-12.99,16.11-30.53,5.39-21.68-13.25-24.86,36.06-51.6,13.24-17.83-15.21-27.61,28.9-39.79,22.68-7.1-4.09-18.47-13.24-26.29-18.25-4.8-12.09-4.59-16.57-7.03-28.88-18.51-93.6-91.03-155.62-176.67-189.37-25.66-10.11-39.66-16.63-66.52-16.29,20.98-37.27,54.72-70.71,91.04-93.08,2.73-2.4,2.21-2.18,5.49-3.53Z"/>
  <path class="st8" d="M147.44,438.59c26.85-.34,40.86,6.17,66.52,16.29,85.64,33.75,158.16,95.77,176.67,189.37,2.44,12.31,2.22,16.79,7.03,28.88-4.85,13.06-13.22,43.77-30.74,25.51-22.04-22.96-36.52,34.3-51.75,18.52-27.59-28.59-25.1,26.31-46.39,15.68-4.44-3.77-8.97-8.03-13.32-11.95l-5.27,7.96c-5.24,6.18-19.5,28.08-27.8,29.16-11.01-.15-10.71-14.36-21.74-15.32-15.12-1.32-21.67,28.38-33.25,30.01-.11.02-24.12-13.17-33.16-15.54l-2.58-2.69c-1.78,1.58-10.95,10.95-13.03,10.59-5.37-8.44-6.48-71.58-7.53-88.08.93-9.6,2.07-11.04-2.12-18.66-1.96-85.24-7.73-143.14,38.47-219.72Z"/>
  <path class="st3" d="M131.66,754.46c.76-1.55,1.53-3.09,2.29-4.64.78-1.49,2.2-2.54,3.86-2.86,7.58-1.52,19.16,12.19,25.47,13.9,17.44,4.74,19.64-41,44.16-22.58,30.32,22.78,20.17-16.93,48.02-17.39l-5.27,7.96c-5.24,6.18-19.5,28.08-27.8,29.16-11.01-.15-10.71-14.36-21.74-15.32-15.12-1.32-21.67,28.38-33.25,30.01-.11.02-24.12-13.17-33.16-15.54l-2.58-2.69Z"/>
  <path class="st13" d="M878.05,1666.03c58.22,13.85,42.88,11.3,110.73,8.81,59.17-2.17,177.78-88.58,213.34-32.59,7.16,11.27-4.01,57.76-10.41,69.56-39.03-1.11-78.91,12.82-120.4,12.09-61.96-1.1-141.64-22.33-193.26-57.87Z"/>
  <path class="st13" d="M1606.61,1636.1c22.23,2.66,67.65-22.61,49.06,10.11-126.16,44.4-253.8,84.48-382.69,120.17-18.74-2.36-28.82,1.49-40.69.14l.28-.29-.23-.28-2.61-.69c-5.66-1.56-11.02-2.58-16.81-3.6,27.97-12.49,116.72-39.37,151.39-49.83,76.41-23.05,166.96-57.31,242.31-75.73Z"/>
  <path class="st11" d="M1740.8,1591.64c59.14-14.37,139.92-42.34,197.89-62.76-7.92,43.88-66.9,31.95-105.28,55.32-16.5,10.05-48.12,13.56-70.07,27.02l-6.73.19-8.46-6.49c-2.24-4.22-4.75-9.25-7.35-13.28Z"/>
  <path class="st11" d="M1686.51,1609.87c15.66-4.53,39.67-12.06,54.28-18.23,2.6,4.03,5.11,9.06,7.35,13.28l8.46,6.49c-22.75,5.32-48.17,15.39-70.04,23.9-10.21,3.9-20.51,7.53-30.91,10.9,18.59-32.73-26.83-7.45-49.06-10.11,24.85-9.15,54.03-20.67,79.9-26.23Z"/>
  <path class="st7" d="M1686.51,1609.87c15.66-4.53,39.67-12.06,54.28-18.23,2.6,4.03,5.11,9.06,7.35,13.28-30.98,12.41-27.25,4.6-61.64,4.95Z"/>
  <path class="st4" d="M327.71,731.2c8.38-19.12,18.92-34.91,38.49-21.37-10.75,18.7-14.7,26.88-22.89,46.74-2.37-17.99,1.24-20.04-15.6-25.37Z"/>
  <path class="st5" d="M574.55,942.43c6.03,29.06,5.12,40.2,2.81,70.95-3.91-25.31-3.67-45.31-2.81-70.95Z"/>
  <path class="st6" d="M108.97,658.31c4.2,7.62,3.06,9.06,2.12,18.66-5.38-7.58-4.35-9.72-2.12-18.66Z"/>
  <path class="st6" d="M450.67,366.46c12.15,8.4,15.85,13.67,25.11,25.16-12.52-9.79-15.64-12.58-25.11-25.16Z"/>
  <path class="st9" d="M1166.61,177.11l8.5,15.91c-6.53-4.94-10.58-8.09-16.73-13.49l8.23-2.42Z"/>
  <path class="st0" d="M1804.1,1279.12c3.41.03,6.75,1.81,9.93,2.98,2.32,23.26-1.42,53.75,10.52,74.72,10.54,18.5,35.68,17.06,53.26,23.96-1.71,18.08-6.23,44.43.72,61.75,7.39,18.41,22.94,21.66,39.93,26.48l6.74,1.87c9.06,14.97,3.75,35.67,2.48,52.93-56.22,20.24-114.58,36.26-171.58,54.31-194.17,61.49-392.42,118-583.63,187.75l-2.44-.46-2.05-4.83c6.88-9.81,13.68-19.68,20.39-29.61,15.34-22.77,30.58-59.06,22.31-86.69-5.97-19.96-26.62-22.66-42.22-32.48l-.84-9c3.69-6.35,9.06-13.98,11.22-20.95,2.09-6.71,2.73-12.15-.31-18.48-16.73-34.82-52.17-31.47-83.54-41.44-.87-9.73,1.87-15.34,5.72-24.16,50.58-24.3,114.59-37.55,168.52-54.82,177.54-56.85,358.08-105.06,534.87-163.83Z"/>
  <path class="st2" d="M1088.58,1532.87c16.67.63,31.4.73,47.33,6.33,12.53,4.4,26.89,14.31,32.3,26.86,3.5,8.11,2.29,16.7-1.49,24.42-13.61,27.77-49.09,36.02-75.55,45.81-2.99,1.1-6,2.16-9.05,3.06-3.13.99-6.27,1.95-9.39,3.01-14.33,4.9-29.02,9.74-43.73,13.36-5.03,1.24-10.03,2.42-15.04,3.77,37.22-40.53,61.55-71.7,74.62-126.62Z"/>
  <path class="st9" d="M255.45,720.88c4.34,3.93,8.88,8.18,13.32,11.95l-2.17,10.57c-6.09-5.83-9.7-9.32-16.42-14.56l5.27-7.96Z"/>
</svg>