<?xml version="1.0" encoding="UTF-8"?>
<svg id="Layer_1" xmlns="http://www.w3.org/2000/svg" version="1.1" viewBox="0 0 2048 2048">
  <!-- Generator: Adobe Illustrator 30.3.0, SVG Export Plug-In . SVG Version: 2.1.3 Build 182)  -->
  <defs>
    <style>
      .st0 {
        fill: #04868a;
      }

      .st1 {
        fill: #038c92;
      }

      .st2 {
        fill: #027579;
      }

      .st3 {
        fill: #f9f7f2;
      }

      .st4 {
        fill: #d8cfb3;
      }

      .st5 {
        fill: #f1eedf;
      }

      .st6 {
        fill: #e7e0ca;
      }

      .st7 {
        fill: #06898b;
      }

      .st8 {
        fill: #8cb49e;
      }

      .st9 {
        fill: #e7ddc4;
      }

      .st10 {
        fill: #04797a;
      }

      .st11 {
        fill: #058386;
      }

      .st12 {
        fill: #c5d4c4;
      }

      .st13 {
        fill: #b0c7b3;
      }

      .st14 {
        fill: #090909;
      }

      .st15 {
        fill: #05949d;
      }
    </style>
  </defs>
  <circle class="st6" cx="987.83" cy="1053.49" r="937.8"/>
  <path class="st14" d="M924.79,253.92c140.12,70.54,303.32,93.73,458.9,86.94,74.69,36.1,64.25,146.04,63.46,217.76-47.87-13.21-145.5-29.15-198.39-39.49-37.73,71.46-56.11,132.92-74.27,210.21,67.07,14.7,241.09,42.35,287.97,88,17.45,17.13,29.59,38.94,34.98,62.79,7.36,31.23,5.06,84.82,5.07,118.72l.05,166.26c10.9-1.46,21.87-2.37,32.86-2.73,69.9-1.83,114.52,24.83,113.32,98.24,42.9-4.48,213.77,1,184.46,96.17-8.13,26.4-64.57,47.75-92.91,56.04-.27,12.41.45,12.86,12.49,19.06,22.84,13.24,10.59,9.74,28.17,26.29,2.79,7.53,23.07,5.18,12.93,33.63-2.08,5.84,9.09,10.17,8.12,16.68-2.49,8.62-6.16,2.65-7.33,13.8-.25,2.37-8.38,24.87-10.68,26.98-5.69,5.18-11.24-1.15-16.89-.77-7.23,4.84,5.68,10.71-18.12,27.1-2.04.21-5.86-.09-7.28,1.88l.23.32c-1.27,3.44-1.84,7.2-3.43,11.39-25.02,4.15-20.19,17.35-39.72,18.3-23,6.17-35.79,13.11-55.68,21.17-39.17,15.87-92.6,33.92-134.22,41.01-1.75.72-3.49,1.45-5.24,2.17-153.56,34.11-321.66,71.49-478.67,84.5-41.27,10.62-147.37-22.37-192.92-33.6l-247.89-61.22-156.43-38.64c-110.32-27.2-137.84-22.15-131.82-150.34,5.09-108.21-5.89-223.97,1.51-332.09,2.46-34.18,8.29-68.04,17.4-101.08,62.39-229.1,210.49-295.08,399.46-403,38.13-153.61,92.22-272.91,210.51-382.45Z"/>
  <path class="st4" d="M1502.09,1381.08c11.62.96,15.78.14,27.36-.36l17.39,12.08c17.24,7.4,27.02,12.27,45.75,15.74,46.88,12.23,100.05,11.97,147.68,4.28-.27,12.41.45,12.86,12.49,19.06,22.84,13.24,10.59,9.74,28.17,26.29,2.79,7.53,23.07,5.18,12.93,33.63-2.08,5.84,9.09,10.17,8.12,16.68-2.49,8.62-6.16,2.65-7.33,13.8-.25,2.37-8.38,24.87-10.68,26.98-5.69,5.18-11.24-1.15-16.89-.77-7.23,4.84,5.68,10.71-18.12,27.1-2.04.21-5.86-.09-7.28,1.88l.23.32c-1.27,3.44-1.84,7.2-3.43,11.39-25.02,4.15-20.19,17.35-39.72,18.3-23,6.17-35.79,13.11-55.68,21.17-39.17,15.87-92.6,33.92-134.22,41.01-1.75.72-3.49,1.45-5.24,2.17-153.56,34.11-321.66,71.49-478.67,84.5l290.69-146.66c19.3-9.68,41.15-20.39,60.32-29.9,121.43-60.24,126.96-43.71,126.39-178.93-.03-6.59-.12-13.17-.28-19.75Z"/>
  <path class="st3" d="M1508.87,1669.65c3.04-2.97,18.76-14.73,23.84-14.11,11.19,1.37,17.56-4.86,26.54-5.24,5.27,2.46,14.26-7.62,15.29-11.87,4.11-16.88,23.86-6.29,11.09,3.56-.42.33-.3.95-.25.78,12.84,10.38,15.49-12.54,15.63-12.83,3.49.76,1.15,2.09,5.5,2.98,2.65-3.1,1.35-8.04-.7-11.16-1.92-2.94-4.02-6.87-7.93-7.39-1.09-.31-7.5-.45-8.37-1.47-4.8-5.6,4.92-12.01,5.58-15.72,1.12-6.3-19.19-.99-20.37-.26-6.26,3.85-11.08,3.17-12.75-4.65,0-1.34.71-7.29-.61-8.84-4.2-4.95.92-17.07,3.17-22.07.89-1.98,6.79-3.25,8.19-1.83.65.66,5.77-.23,6.1-1.32,6.54-6.1,1.72-15.9,4.73-23.28,1.86-4.56,2.99-9.16,1.01-13.89-1.89-4.51-2.89-8.9.85-12.73,2.07,1.42,9.19,7.84,11.93,8.6,4.76,1.32-7.86,30.37,3.94,22,5.57-3.95,4.29-24.09,24.61-22.85,8.89.5,6.76-1.3,14.56,5.23,10.84,9.08,3.63,16.49,8.71,25.93.9,1.62,2.48,1.7,3.79,4.7-1.51,3.84-5.63,4.23-7.16,7.91,1.3,7.95,11.57-.11,14.47.93,6.75,2.44,12.59-5.91,17.47-.96,1.9,1.93,2.87,5.69,5.75,5.62,2.57-3.75-2.49-15.15,6.5-16.2,8.03-.93,12.87-9.38,19.76-3.29,1.86-.28,3.47-8.48,5.85-10.23,20.12,10.79,7.86-11.14,8.5-12.1,5.84-2.76,10.99,6.82,17.74,9.85l.19-.64c9.48,7.45-1.22,5.7-4.17,10.01.96,4.46,3.64,4.96,8.02,7.85-1.09,2.23-1.62,2.31-1.23,4.06.97,1.03.12.38,3.76,1.8,8.34,12.46-11.3.56.56,19.07-2.04.21-5.86-.09-7.28,1.88l.23.32c-1.27,3.44-1.84,7.2-3.43,11.39-25.02,4.15-20.19,17.35-39.72,18.3-23,6.17-35.79,13.11-55.68,21.17-39.17,15.87-92.6,33.92-134.22,41.01Z"/>
  <path class="st6" d="M1698.77,1607.47c-2.27-8.5-8.6-8.56-8.44-12.03,7.56-3.91,15.73-4.02,5.33-18.68,7.53-1.05,11-4.84,16.77.46-1.99,5.6-3.32,14.19,5.19,15.1,7.57-3.79-2.51-9.93,15.36-4.49l5.51,1.34c-25.02,4.15-20.19,17.35-39.72,18.3Z"/>
  <path class="st6" d="M1687.3,1591.45c-12.39,11.64-32.21-12.31-1.43-4.56l1.43,4.56Z"/>
  <path class="st4" d="M1685.87,1586.88c3.77-16.23,17.24-2.86,1.43,4.56l-1.43-4.56Z"/>
  <path class="st6" d="M1745.87,1550.66c6.12-1.5,7.8-2.15,10.65-7.75.8-1.18,1.59-2.35,2.39-3.53,1.2-5.58-9.77-20.93-15.01-23.1-13.6-4.82-11.29,8.9-23.44-9.26-4.28-1.77-10.37-14.7-13.74-16.1-4.75-.97-13.11,11.19-17.95,1.86-3.41-6.58,10.33-23.05,2.88-29.75-4.83-4.35-2.4-6.69.49-12.24,12.14,2.36,14.29,3.21,15.47,15.16l-2.58,2.27c-1.34,1.12-2.38,2.14-2.91,3.84.78,3.03,5.99,2.65,8.18,4.67-.94,9.48-21.72,10.77,12.12,13.76,9,.8,32.72,3.71,33.42-13.37-8.42-3.6-6.19-1.92-6.52-11.58,10.43,2.24,26.71,4.77,31.62-7.38,2.79,7.53,23.07,5.18,12.93,33.63-2.08,5.84,9.09,10.17,8.12,16.68-2.49,8.62-6.16,2.65-7.33,13.8-.25,2.37-8.38,24.87-10.68,26.98-5.69,5.18-11.24-1.15-16.89-.77-7.23,4.84,5.68,10.71-18.12,27.1-11.86-18.51,7.78-6.61-.56-19.07-3.64-1.42-2.79-.77-3.76-1.8-.39-1.75.15-1.83,1.23-4.06Z"/>
  <path class="st3" d="M1782.12,1490.8c.96.21,1.96.32,2.58,1.19.7.99,1.2,2.13,1.97,3.06,2.87,3.48,5.2,7.34,8.08,10.79.77.91,1.58,1.78,2.37,2.67-.6.54-1.48.57-2.27.55-1.71-.06-5.02-.65-7,.03-1.87.65-2.7,1.97-3.34,3.76-2.4,6.73.34,11.56,3.57,17.29-4.9-1.43-11.9-2.74-16.01-6.2-1.17-.99-1.28-3-1.33-4.41-.25-6.5-1.22-9.38-4.95-15.13-.02-.02-1.56-2-1.72-2.47-.33-1.01-.19-1.69.21-2.65.91-2.22,5.76-3.2,7.69-3.61,2.23-.47,4.51-.49,6.4-1.91,1.27-.95,2.48-1.99,3.73-2.96Z"/>
  <path class="st9" d="M1592.59,1408.54l1.55,16.04c2.91,1.28,4.61,4.33,4.18,7.47,20.58-.44-2.01,10.29,4.81,27.96,5.75,5.21,8.5,5.26,3.86,10.25-2.2,10.15-2.3,11.67-2.51,21.99-11.81,7.08-7.32-4.8-17.13,5.45-7.91-4.17-7.24-4.37-15.91-2.7-6.6,8.02-9.89.62-20.35-4.29-2.39-1.4-4.78-2.79-7.16-4.19-1.19-2.41-2.06-3.96-2.95-6.53,25.41-25.76-18.68-22.25,5.94-35.2,10.78-6.31,4.91-4.24,6.48-13.44.31-1.78,8.46-.46,9.83-1.5,1.23-.94,5.51-1.51,7.32-1.44,4.79.89,11.75,1.29,12.53-5.13.57-3.93,1.88-8.58,5.37-11.41l4.14-3.33Z"/>
  <path class="st6" d="M1598.32,1432.05c-.42,3.03-2.72,5.45-5.72,6.01-3,.57-6.03-.85-7.52-3.51-1.49-2.67-1.11-5.99.94-8.24,2.05-2.26,5.32-2.96,8.12-1.73,2.91,1.28,4.61,4.33,4.18,7.47Z"/>
  <path class="st3" d="M1551.1,1490.71l5.49-1.42c11.76-4.19,12.97-5.69,14.86,5.71-6.6,8.02-9.89.62-20.35-4.29Z"/>
  <path class="st6" d="M1603.13,1460c5.75,5.21,8.5,5.26,3.86,10.25-11.15,1.88-13.85-3.1-3.86-10.25Z"/>
  <path class="st3" d="M1546.92,1444.79c1.7,1.1,3.09,1.93,4.3,3.41-.33,1.64-.75,1.59-2.3,3.23-.59-.32-2.6-1.09-2.92-2.08-.37-1.15.34-2.57.65-3.6.1-.32.18-.64.27-.96Z"/>
  <path class="st3" d="M1752.76,1431.87c22.84,13.24,10.59,9.74,28.17,26.29-4.92,12.14-21.19,9.62-31.62,7.38-.99-1.35-1.33-2.17-2.7-2.9.24-5.6.87-9.6-2.48-14.19l-2.13-3.17c2.31-8.8,2.61-9.12,10.76-13.4Z"/>
  <path class="st3" d="M1502.09,1381.08c11.62.96,15.78.14,27.36-.36l17.39,12.08c-27.62,2.37-9.27,19.4-25.35,22.25-6.78-5.59,1.41-12.2.03-18.07l-.06.29-3.37-1.23c-6.94,3.3-7.96,3.61-15.73,4.79-.03-6.59-.12-13.17-.28-19.75Z"/>
  <path class="st3" d="M1701.58,1425.18c9.29,6.48,24.33.72,17.19,21.57-2.09,6.11-7.31,11.59-11.16,19.2-1.19-11.95-3.33-12.8-15.47-15.16,8.14-6.71,4.55-7.51.67-16.98,4.38-3.7,5.2-4.35,8.77-8.63Z"/>
  <path class="st3" d="M1587.36,1497.7c9.8-10.26,5.32,1.62,17.13-5.45,6.19,4.1,5.92,5.41,13.19,6.88,8.26,1.68,1.68,8.98-2.97,11.32-10.05,5.05-13.21-14.18-18.18-13.67-4.69.48-2.09,2.98-9.16.92Z"/>
  <path class="st6" d="M1543.93,1486.52c-3.79,4.14-7.19,9.96-12.74,11.84-1.97-.51-6.32-3.04-4.08-3.03.11,0-.19-27.85-1.04-23.82,1.26.16,11.91,7.02,14.91,8.49.89,2.57,1.75,4.12,2.95,6.53Z"/>
  <path class="st6" d="M1746.61,1462.64c-6.16-2.6-20.7-11.37-18.06-19.36,6.47-4.43,4.68,2.58,13.45,2l2.13,3.17c3.35,4.6,2.72,8.59,2.48,14.19Z"/>
  <path class="st3" d="M1503.63,1671.82c-2.48-4.09-5.08-9.05-8.61-12.4-8.98-8.52,13.28-7.73,12.54-1.54-1.04,8.85-3.58,4.39,1.31,11.77-1.75.72-3.49,1.45-5.24,2.17Z"/>
  <path class="st9" d="M1692.82,1433.81c-9.73-17.55-10.94-6.97-15.73-11.75l.31-.49c8.02-1.51,17.97-2.1,24.19,3.6-3.57,4.28-4.39,4.94-8.77,8.63Z"/>
  <path class="st3" d="M1664.71,1456.35c5.8,2.51,13.07,5.51,15.31,12.14.64,1.88.39,3.41-.58,5.1-.72,1.25-1.59,2.4-2.07,3.79-.18.53-.3,1.08-.51,1.6-.35.9-.82,1.75-1.21,2.63.18.97.47,1.92.04,2.87-.33.73-1.76,1.01-2.3,1.19-1.95.21-3.92.37-5.85.69-2.62.43-7.32,2.49-9.89.96-.39-.23-.63-.56-.7-1.01-.15-.87.11-2.05.57-2.79,3.94-6.3,4.72-12.45,5.95-19.73.42-2.48.79-4.97,1.25-7.44Z"/>
  <path class="st6" d="M1672.89,1522.6c1.68,1.16,3.38,2.29,5.03,3.49.41.3.75.69,1.15,1,2.44,1.91,5.85,3.57,7.19,6.49,1.71,3.76-2.05,9.11-3.54,12.18-.34,0-.68-.01-1.02,0-2.95.02-7.95.64-10.21-2.06-1.29-1.53-.95-3.53-.53-5.3,1.32-5.62,1.76-10,1.94-15.79Z"/>
  <path class="st6" d="M1522.99,1639.19c1.42,1.64.88,4.47.85,6.3-2.35.57-4.7,1.12-7.02,1.78-2.09.59-4.09,1.38-6.28,1.56-1.82.15-3.59-.08-4.92-1.46-1.98-2.05-2.08-5.62-1.86-8.27.04-.5.11-1,.16-1.5"/>
  <path class="st3" d="M1622.99,1466.12c3.52,1.24,7.39,2.38,10.69,4.15,2.42,1.3,4.78,3.31,5.26,6.2.13.76.16,1.54.26,2.31.2,1.47.44,2.93.66,4.39-3.11.88-4.7,1.81-7.54.19-5.99-3.41-7.59-11.16-9.33-17.24Z"/>
  <path class="st3" d="M1620.49,1445.81c.25-.08,2.39-.88,3.31-.89.54,0,.52.1.95.43.28.7.29.56.31,1.43,0,.3-.04.61-.04.91,0,.8.02,1.59.04,2.39-.27.12-2.47,1.29-3.5,1.43-.54.07-.52-.04-.93-.34-.29-.79-.3-.61-.28-1.62,0-.35.07-.7.09-1.04.03-.9.04-1.8.06-2.7Z"/>
  <path class="st3" d="M1542.17,1628.25c.73-.31,5.5-3.01,7.25-1.94.38.23.51.67.49,1.09-.09,1.95-2.66,4.83-3.51,6.01-1.07-.11-2.15-.14-3.21-.32-1.07-.19-1.9-.68-2.28-1.73-.38-1.04.84-2.46,1.26-3.12Z"/>
  <path class="st6" d="M1502.09,1381.08l-.14-21.6c-.04-29.9,23.37,16.23,27.51,21.24-11.59.5-15.74,1.32-27.36.36Z"/>
  <path class="st15" d="M309.73,1315.64c-.96-128.91-8.27-227.22,44.78-349.08,62.25-143.02,173.47-211.97,305.38-282.33,16.35-8.72,28.07-18.91,46.05-25.78l3.95,3.61c-3.51,13.87-4.61,18.36-5.78,32.46-.56.95-1.03,1.97-1.69,2.85-25.61,33.82-154.49,74.81-151.06,124.75.41,6.04,2.41,9.67,6.62,14.2,12.79,13.75,467.72,119.76,507.72,114.47,30.01-3.97,138.27-87.98,157.36-114.04,5.73-7.83,8.44-15.16,6.02-24.96-2.44-9.89-9.88-17.57-18.87-21.88-14.61-7.01-36.17-5.48-45.52-18.24,2.12-6.3,2.86-14.15,3.88-20.89l2.31-3.36c13.26-5.79,161.91,32.91,189.48,39.72-62.47,56.53-140.75,111.38-201.23,171.46-88.23,87.64-143.66,224.81-152.67,347.75-3.86,52.63-2.39,120.79-2.49,174.24-49.1-12.62-105.85-21.26-157.5-34.32-177.9-45.01-359.32-84.72-536.73-130.61Z"/>
  <path class="st5" d="M926.4,271.12c133.75,59.64,279.1,88.74,425.5,85.21-83.87,83.36-132.2,171.69-167.81,284.52-5.84,18.5-18.65,61.98-21.24,80.44-2.3,10-5.98,23.96-7.49,33.75-4.91,20.38-18.92,131.85-22.38,137.66-34.6,7.89-366.16-72.33-429.24-86.14,2.41-35.13,7.35-74.36,11.46-109.49l.08-2.35c9.34-35.64,15.2-72.09,25.27-107.55,34.08-120.03,94.49-230.3,185.85-316.05Z"/>
  <path class="st14" d="M847.25,508.31c25.16-2.13,166.84,32.02,201.58,39.23l43.45,9.36c13.55,2.82,12.99,2.31,16.02,15.44-18.29-.57-79.48-15.58-101.45-20.26l-13.99-3-57.37-12.48-13.98-3.07c-15.46-3.35-65.75-9.93-71.65-20.8l-2.61-4.42Z"/>
  <path class="st14" d="M790.12,753.19c21.6,1.54,66.03,13.07,89.6,17.89l71.37,15.27,13.97,3.04,13.95,3.03c5.09,1.09,10.45,2.32,15.51,3.36l15.5,3.23,13.97,2.84c15.38,3.09,18.6,1.57,20.21,16.1-25.99-1.26-129.15-25.85-163.01-33.15l-13.96-3.05-43.44-9.63c-12.12-2.62-32.81-1.91-33.45-15.31l-.23-3.62Z"/>
  <path class="st14" d="M884.86,433.83c39.46-5.25,157.67,36.12,205.84,39.38,17.39,1.18,41.76,2.22,44.5,20.34-31.26,1.19-166.87-32.33-204.37-40.71l-13.96-3.22c-12.62-2.84-22.44-1.28-29.18-11.64l-2.83-4.17Z"/>
  <path class="st14" d="M798.81,657.27c22.62-2.01,126.46,23.4,156.94,29.78l43.43,9.53c23.01,4.91,46.29,1.46,53.86,21.86-19.24.39-99.02-18.94-122.2-23.73l-86.87-18.75-27.92-5.98c-9.59-2.01-9.9-.64-14.7-8.66l-2.54-4.05Z"/>
  <path class="st14" d="M822.46,575.77c16.19,1.8,31.94,6.16,47.84,9.62,34.63,7.53,69.15,15.51,104.08,21.51,8.43,1.45,15.12.74,13.09,11.28l-.65,3.64c-34.15-4.13-83.5-16.04-118.04-23.38l-27.97-5.9c-11.12-2.37-16.25-1.5-17.72-12.65l-.62-4.12Z"/>
  <path class="st14" d="M939.49,365.17c14.91,2.06,26.58,5.48,41.07,8.54l29.49,6.26c15.28,3.19,78.88,11.04,80.27,24.69l.4,3.53c-43.06-3.21-92.31-18.77-135.06-27.11-9.7-1.89-15.83-1.69-16.02-12.29l-.15-3.62Z"/>
  <path class="st14" d="M1041.45,622.85c12.91.52,69.12,6.13,70.8,20.69l.5,3.74c-13.02-1.4-69.86-7.24-70.94-21.06l-.37-3.36Z"/>
  <path class="st14" d="M1140.92,408.79c15.64-.17,64.88,2.47,67.6,21.17-15.57.79-66.34-.96-67.6-21.17Z"/>
  <path class="st1" d="M1374.41,791.18c51.56,11.23,102.3,35.99,109.9,94.96,6.77,26.3,4.42,135.49,4.15,168.36l.23,190.34c-60.17,31.69-121.3,61.55-183.29,89.52-9.33,5.21-16.87,8.95-26.53,13.34-4.91,3.19-5.53,3.79-10.96,5.45-9.72,5.39-15.27,8.1-25.43,12.56-3.02,2.2-2.21,1.74-5.84,3.01-28.77,13.74-66.04,34.16-93.45,46.08-37.95,20.42-85.66,42.14-125.01,61.35-.52-57.53-2.33-120.33,2.69-177.18,10.09-114.15,59.13-236.16,137.59-320.46,27.11-29.13,72.83-65.33,104.41-91.24.73-.86,1.46-1.71,2.18-2.57,35.77-30.19,75.04-62.15,109.37-93.52Z"/>
  <path class="st0" d="M1194.31,1215.04c.98-.64,1.97-1.28,2.96-1.92-1.06-1.78-11.19-4.05-14.28-3.56-20.97,23.35-23.66-12.05-28.22-29.78-.29.5,32.09-11.77,30.28-20.1-1.55-7.11-8.98-26.77,6.98-20.8,7.37,2.67,22.47-9.51,3.16-12.11-2.84-.38-11.46-5.37-7.53-8.66,2.83-4.66,19.73-5.1,21.95-3.33.64,1.81-.29,4.39.9,5.62,15.85,3.18,10.05-26.29,30.88-9.81,9.32,7.37,6.44,11.74,12.26,16.69,2.37-.64,4.01-3.18,6.08-4.59,5.55.67,2.79,12.71,13.24,15.83,7.37,2.2,6.2-2.44,11.52-.65,4.36,4.94-10.3,8.96-4.13,15.16,8.87,8.91-19.15,28.18-6.48,36.41,3.34-.02,4.68-4.49,7.69-5.6,1.01.44,5.31,10.48,12.7,14.47,11.55,6.23,9.58-2.89,16.28-1.32,6.36,1.49,29.19,17.49,8.98,20.4l.69.16-.09.08,4.37.78-.46-.05c4.01.88,7.92,1.95,11.89,3.02-11.11,8.68-11.49,6.55-25.49,11.61-3.52,3.36-3.12,5.88-7.12,9.93-6.13,1.19-11.28,2.39-17.3,3.86-7.72,2.03-24.62,24.26-6.91,28.24,6.27,1.41,6.37,10.71,19.97,17.37,9.16,6.33,7.72,6.96,9.27,18.2-10.17,14.3-18.64,6.61-2.94,23.77-9.33,5.21-16.87,8.95-26.53,13.34-4.91,3.19-5.53,3.79-10.96,5.45-9.72,5.39-15.27,8.1-25.43,12.56-3.02,2.2-2.21,1.74-5.84,3.01-28.77,13.74-66.04,34.16-93.45,46.08-1.45-6.66-1.36-3.59-5.86-8.54,1.96-15.12,2-5.74-4.03-16.02-3.58-6.09,10.11-13.72-8.43-16.86-30.61-5.19-16.61,3.32-18.14,12.5-13.01,8.64-7.76-16.4-11.26-19.5-3.84-.04-21.42,17.4-25.89,15.48-23.71-10.2,19.66-19.14,12.11-31.42-3.62-1.25-6.18,12.49-11.4,6.07,6.96-17.72,4.83-2.99,5.02-18.51,4.03-4.09,9.13.24,11.3.35.17,0,7.74-3.43,7.73-3.42l.33.34-.08-.19c-8.82-3.88-10.23-28.61,20.11,3.66-.23,2.83-.73,2.89-1.75,5.51.25.73.49,1.46.73,2.2,14.82-1.33,10.58-4.93,23.35,3.44,2.63,1.73,5.26-4.53,8.77-2.27.18,4.38-.13,2.26,1.93,4.06,2.94-3.26.87-10.34-.63-13.84l-.32.12-.23.8c-2.62-7.17-4.34-32.08-1.72-39.47,12.11,4.76,8.86-2.86,17.44-2.61,2.7-1.9,6.93-10.15,11-10.16,7.56-.02,19.76,6.25,28.55.45.72-7.24-4.73-6.15-3.67-11,3.01-2.4,5.54,1.12,10.54.81l.7-.96c-.34-1.86-1.21-3.16-2.3-4.69l-2.26-3.46c2.21-2.47,1.73-2.58,4.09-3.3-.11.45-.23.9-.34,1.34,1.62-1.56,14.74-13.54,14.79-13.72-2.33-2.96-6.4-1.6-8.22-4.22.23-6.21,7.33-2.77,10.13-5.98-1.24-4.76-7.17-.29-16.15-.86-4.25-16.02-.59-19-14.81-25.9Z"/>
  <path class="st11" d="M1233.45,1332.49c14.49.11,11.05-3.79,22.72-5.42l2.95,2.81c6.84,13.66,11,8.9,13.56,13.32l-.16.3c2.8,2.66,2.15,1.95,6.34,4.2-4.91,3.19-5.53,3.79-10.96,5.45-9.72,5.39-15.27,8.1-25.43,12.56-3.02,2.2-2.21,1.74-5.84,3.01-21.27-24.77,2.84-10.45-9.77-35.63l6.59-.6Z"/>
  <path class="st7" d="M1242.47,1365.7c-6.31-14.24,5.67-7.36,1.21-21.59l.24-.29c4.77-1.45,19.75,6.45,23.98,9.32-9.72,5.39-15.27,8.1-25.43,12.56Z"/>
  <path class="st7" d="M1256.16,1327.06c-3.21-19.18,6.82-9.63,15.77-22.38.65-.93,1.99-1.59,3.06-1.99,3.09,2.06,3.1,14.07,7.79,12.82,2.19-.58,3.83-2.31,5.75-1.55l-1.02-.09v2.28c-5.08,5.79-1.59,13.72-3.3,15.37l-.54.02c-1.67-4.03.66-6.46-1.59-9.77-1.23-.62-.54-.45-2.09-.37-7.8,5.46-12.05,4.57-20.87,8.47l-2.95-2.81Z"/>
  <path class="st10" d="M1251.71,1300c3.33,16.71-4.15,16.44-17.82,30.66-4.05-6.66-4.3-6.64-10.16-12.34,5.14-3.36,8.86-6.68,13.71-10.26,4.73-2.73,9.49-5.41,14.26-8.06Z"/>
  <path class="st10" d="M1299.06,1292.38c9.16,6.33,7.72,6.96,9.27,18.2-20.05,13.4-17.47-11.91-9.27-18.2Z"/>
  <path class="st2" d="M1226.85,1333.08c-5.22-3.66-15.99-12.54-3.12-14.76,5.86,5.7,6.11,5.68,10.16,12.34l-.45,1.82-6.59.6Z"/>
  <path class="st1" d="M1237.45,1308.06c-12.76-9.13-1.63-18.66,14.26-8.06-4.78,2.65-9.53,5.34-14.26,8.06Z"/>
  <path class="st10" d="M1243.88,1142.92c2.81,6.83,2.99,16.35,9.23,18.4-.93-1.73,3.45,16.6,3.7,14.65-1.74,1.53-.7.82-3.24,1.95-6.97-2.43-6.55-9.83-8.05-10.29-12.67-3.88-5.2,10.7-4.11,13.38-2.98,10.89-19.52-9.84-21.96-13.91,9.7-17.21-20.62-27.46-4.71-30.38,3.75-.7,7.62.31,10.56,2.75,6.14,5.45,5.7,6.49,13.12,4.53l5.48-1.08Z"/>
  <path class="st10" d="M1192.95,1314.4c1.2.2,2.39.43,3.59.61,3.19.51,7.36.59,10,2.78,1.72,1.43,2.17,3.61,2.39,5.72.54,5.36,1.38,9.82,2.7,15.04-4.05-.8-9.89-1.16-13.37-3.79-4.51-3.4-4.39-15.31-5.3-20.36Z"/>
  <path class="st15" d="M1088.7,1345.13c3.99-.02,9.1-.87,12.92.56,3.01,1.13,4.14,3.67,5.13,6.56,1.19,3.47,2.39,6.84,3.75,10.25-4.49-1.28-9.67-2.13-13.91-4.05-3.05-1.38-4.98-3.43-5.99-6.64-.18-.58-.27-1.18-.44-1.76-.47-1.64-.98-3.28-1.47-4.92Z"/>
  <path class="st1" d="M1152.13,1379.73c3.56,1.32,7.86,2.4,11.06,4.46,2.97,1.92,4.22,4.75,5.04,8.09.15.59.25,1.2.39,1.79l1.32,5.13c-1.72-.76-3.45-1.49-5.15-2.28-.43-.2-.81-.48-1.23-.69-2.11-1.07-4.27-2.06-6.3-3.27-2.46-1.47-3.92-3.54-4.36-6.4-.09-.59-.09-1.19-.16-1.78l-.63-5.04Z"/>
  <path class="st7" d="M1200.24,1178.11c1.01-.65,1.99-1.32,3.02-1.94,1.11-.67,3.18-.94,4.33-.26.76.45.92.87,1.04,1.75.2,1.34-1.3,2.97-1.91,3.83-.34.72-.65,1.46-1.02,2.16-.33.62-1.28,1.22-1.97,1.26-1.65.09-2.45-.24-3.48-1.46-1.25-1.48-.27-3.84,0-5.35Z"/>
  <path class="st7" d="M1238.39,1144c.11-10.26,10.58-13.17,5.48-1.08l-5.48,1.08Z"/>
  <path class="st2" d="M1335.92,1221.38c-2.57-11.26.71-8.99.31-18.46,0-.12-9.94-7.97-7.54-12.28,15.23-27.37,21.69-.16,30.48,7.53,5.3,4.64.52,4.18,3.41,9.87,2.82,2.33,15.05,1.95,16.34,7.02,4.79,18.82-2.44,18.31-13.64,8.14-5.6-1.11-14.37-1.34-15.03,6.03-.8,8.97,4.02,9.84-4.99,16.51-6.92,5.32-10.14,2.07-14.36-3.91-6.35-8.97-15.36,5.23-20.48-8.84,14-5.06,14.38-2.93,25.49-11.61Z"/>
  <path class="st2" d="M1144.82,1299.28c14.42-24.25,5.74-11.2-4.05-37.96-1.73-4.74-13.73-21.84-.65-23.37,5.62,3.94,4.38,10.52,9.3,14.92,5.07,4.54,15.05-2.81,18.9,4.47-.62.93-1.23,1.86-1.85,2.79,12.19,2.45,7.1-6.26,17.34-8.7,3.27-.78,4.7,4.58,4.53,7.26-.35,5.73-5,5.03-7.07,9.32.63,13.83,20.1.68,23.56-.34l2.26,3.46c1.08,1.53,1.95,2.83,2.3,4.69l-.7.96c-5,.31-7.53-3.21-10.54-.81-1.06,4.85,4.39,3.77,3.67,11-8.79,5.8-20.98-.47-28.55-.45-4.07.01-8.3,8.26-11,10.16-8.59-.25-5.34,7.37-17.44,2.61Z"/>
  <path class="st11" d="M1484.31,886.13c6.77,26.3,4.42,135.49,4.15,168.36-5.05,3.83-6.97,7.57-10.35,9.5-36.27-8.43-1.42-21.57,5.23-33.31,5.5-9.71,2.8-50.05,1-63.04.09.65-8.54-17.22-8.4-19.43,1.66-.57,3.14-.06,4.8-.53,7.16-7.74-8.5-9.23-.74-18.82,1.77-2.19-18.32-10.75-10.01-16.3,6.58-.5,8.99,5.12,15.06,1.79,1-2.39-1.02-22.12-.75-28.24Z"/>
  <path class="st2" d="M1286.01,1246.77c6.03-1.47,11.18-2.67,17.3-3.86,17.71,12.04,23.14-5.16,22.58,10.87-.05,1.4-3.2,14.66-6.57,15.21-18.59-8.64.59-11.73-33.31-22.22Z"/>
  <path class="st10" d="M1194.31,1215.04c14.22,6.9,10.56,9.88,14.81,25.9-22.05-6.72-13.35-4.31-14.81-25.9Z"/>
  <path class="st2" d="M1265.04,884.69c1.86,1.87,5.75,5.93,7.53,6.63,10.19,4.02,7.56,20.25-1.63,13.48-3.18-6.33-3.46-10.41-8.08-17.55.73-.86,1.46-1.71,2.18-2.57Z"/>
  <path class="st11" d="M1441.49,1088.95c4.06-5.46,5.42-12.29,10.6-14.09,8.93-3.1,19.46,9.52,6.26,13.32-7.39,2.13,2.76,6.4-4.93,18.39-10.35,11.39-8.34-5.66-13.81-2.14-4.07,2.62-21.72,11.59-22.37,12.73l.16-.05,2.09,3.18c19.65,4.2,6.66-3.97,19.01,13.35,6.2,8.69,24.56-7.82,29.63,5.64,2.23,5.27,5.12,17.52,5.3,22.31.17,4.55-7.94,0-12.21,1.01-12.47,2.94.86-12.37-.88-20.03-.83-.79-1.99-1.96-4.96-1.39-14.38,2.76,1.27,14.04-15.95,17.45-1.76.35,2.87,10.18-4.2,9.44-1.4-.6-2.8-1.19-4.19-1.78-3.45-2.61-7.85.7-7.27,4.69-.04,1.66-.09,3.32-.14,4.97-7.56.67-10.18,4.32-16.89,8.31-.7-6.12-.3-4.55-2.35-10.22l-1.24-.22c-10.03,25.22-18.14.29-13.97-4.78,1.33-1.86,1.76-4.23,1.17-6.44-.86-3.17-7.59-1.67-6.6-7.78,1.54-9.41-2.22-5.18-4.24-7.87-9.21-12.31,11.73-7.14,11.13-14.51-.76-4.3-1.28-2.05-3.4-5.13-2.02-3.02-16.12-12.5-15.83-15.83,1.02-11.37,11.07-17.79,16.23-3.11,2.86,1.6,5.07.33,5.6.5,21.89,6.97,7.55-8.73,17.17-8.91,2.95,1.59,9.13,12.7,14.2,2.79,1.26-2.47-.41-10.66-2.2-13.67-.28.49-.55.98-.83,1.47-12.98-12.11,10.37-18.87,17.37-6.08l2.52,4.48Z"/>
  <path class="st10" d="M1441.49,1088.95c4.06-5.46,5.42-12.29,10.6-14.09,8.93-3.1,19.46,9.52,6.26,13.32-7.39,2.13,2.76,6.4-4.93,18.39-7.57-5.25-10.24-8.72-11.93-17.62Z"/>
  <path class="st11" d="M1435.81,986.17c-14.88-10.28,15.97-11.3-24.61-17.43,1.61-4,14.17-.43,18.45-2.33,2.07-3.26,1.5-18.3,10.3-22.37,1.75-.81,4.85-8.44,5.48-10.78,4.07-15,36.4-2.99,16.82,6.1-10.69,4.96,16.56,12.22,13.96,20.73-.37,4.88-10.26,30.29-11.66,31.15-2.23-2.08-3.56-3.17-6.09-5.73-.91,1.98-2.04,8.19-2.35,9.6,11.36,16.57,22.67-1.46,20.8,29.4h0s-.38-.17-.38-.17l.34.07c-12.6-12.18-16.36-1.49-20.93-8.84l-6.3-10.07c-4.45-7.14-9.13-12.43-13.83-19.33Z"/>
  <path class="st10" d="M1435.81,986.17c14.59-9.53,15.71-3.43,20.3,8.93,11.36,16.57,22.67-1.46,20.8,29.4h0s-.38-.17-.38-.17l.34.07c-12.6-12.18-16.36-1.49-20.93-8.84l-6.3-10.07c-4.45-7.14-9.13-12.43-13.83-19.33Z"/>
  <path class="st11" d="M1068.78,1193.56c-.62-4.04-3.7-14.34-2.05-17.74,4.32.07.24,1.34,4.78,2.64,14.12,4.04-4.43-9.8,4.12-11.99,5.66-1.46,13.73,8.05,19.66,6.56,2.59-.65.81-2.66,4.47-1.22,4.9,7.5-2.62,15.04-1.82,26.96,4.67,1.69,13.94,2.46,15.34,3.44,1.12,2.63-9.12,9.03-12.02,12.09-.72,3.85-.7,6.17-4.14,8.32-7.9-1.97-2.89-9.69-5.52-14.34-.31-.55-7.59-2.93-11.84-6.94,3.25-11.91-.55-10.15-10.98-7.78Z"/>
  <path class="st2" d="M1101.26,1214.3c-3.61-5.88-9.24-10.32-3.31-15.53,4.67,1.69,13.94,2.46,15.34,3.44,1.12,2.63-9.12,9.03-12.02,12.09Z"/>
  <path class="st0" d="M1131.88,1080.44c5.84.42,10.01,1.19,8.39,9.04-4.11,19.87,17.23-1.04,21.04,4.97,1.92,5.22-4.45,10.39,4.38,13.34-1.05-.35,36.58-15.52,17.02,1.47-6.35,5.52-15.05,5-24.57,8.1-5.32-5.82-6.46-4.92-6.62-12.06-27.36,7.99-6.08-8.41-25.41-5.21-3.47.57-2,11.65-10.23,14.83-6.88-2.75,3.21-11.3-2.18-16.31-11.65-10.84,4.39-14.69,12.49-16.6l5.69-1.57Z"/>
  <path class="st11" d="M1179.53,1002.3c4,1.6,8.61,3.39,10.04,7.44,2.67,10.35,13.08,1.27,15.36,3.78,9.98,11-.1,12.31-6.39,13.04l-5.2.69c-5.35-3.44-28.87,15.07-23.42-7.62-.25.53-.49,1.07-.73,1.6.25-6.58,6.84-13.74,10.36-18.92Z"/>
  <path class="st2" d="M1406.74,1184.26c6.7-3.98,9.33-7.63,16.89-8.31l.39,3.9c.64,5.34-1.76,9.86.11,13.31,6.23-.2,5.41-18.73,20.04,4.9-1.32,2.61-5.33,9.08-8.54,9.76-1.98-1.33-1.73-3.17-2.33-5.67-.33-1.36-1.26-2.49-2.53-3.06-2.8-1.24-6.12.11-8.76.94-2.35,4.92-4.27,12.14-9.78,13.43-9.75-8.2,5.13-8.17-4.6-20.29-1.81-4.09-2.79-4.92-.88-8.93Z"/>
  <path class="st11" d="M1407.62,1193.19c8.2-1.68,8.02.96,14.38,6.85-2.35,4.92-4.27,12.14-9.78,13.43-9.75-8.2,5.13-8.17-4.6-20.29Z"/>
  <path class="st11" d="M1359.64,972.27c8.36-9.65,26.63-14.56,23.19,3.78-3.09,8.58,1.45,2.91,4,10.65-7.47,15.18-30.6-5.28-27.19-14.43Z"/>
  <path class="st10" d="M1359.64,972.27c8.36-9.65,26.63-14.56,23.19,3.78-12.1.02-11.77-.1-23.19-3.78Z"/>
  <path class="st11" d="M1102.67,1230.1c1.86.18,3.72.39,5.59.53,3.33.26,7.17-.03,10.23,1.63,1.69.92,2.4,2.61,2.64,4.45,1.29,9.64-4.6,16.93-10.32,23.71-1.55-.58-5.14-1.5-6.48-3.12-.77-.94-.65-1.77-.5-2.9.07-.57.23-1.13.27-1.71.21-3.52-2.3-5.96-4.63-8.26-.5-.49-4.01-2.86-4.16-4.73-.11-1.41,2.05-3.64,2.97-4.54.33-.32.72-.57,1.02-.92,1.17-1.34,2.25-2.76,3.38-4.13Z"/>
  <path class="st11" d="M1124.73,1194.45c1.82.41,3.67.71,5.48,1.21,1.46.41,1.89,1.78,2.53,3.04.88,1.72,1.36,2.66,2.99,4.03,1.83,1.54,4.04,2.9,4.84,5.28.59,1.76.62,4.19-.41,5.79-.11.18-.72.78-1.12.78-1.27-.03-1.84-.74-3-1.46-.92.35-1.85.69-2.77,1.06-3.82,1.52-9.26,4.52-13.55,2.93-.98-.36-1.76-1.14-2.11-2.12-.45-1.26-.06-3.16.53-4.31,2.93-5.73,4.71-9.99,6.6-16.23Z"/>
  <path class="st2" d="M1321.7,936.26c16.98,2.55,24.41,6.77,22.18,25.92-16.41,5.94-17.01-10.72-22.18-25.92Z"/>
  <path class="st11" d="M1033.1,1354.52c.69.14,1.37.28,2.06.43,4,.88,7.5,1.83,11.6,1.45,5.09-.47,7.09-.98,11.89.78l.86,2.71,1.09.23c-.09.06-.17.16-.28.19-3.08.56-4.13.03-7.54-.65-1.68,2.25-3.44,4.46-4.94,6.83-.99,1.57-1.93,3.16-2.94,4.72-1.23,1.88-3.19,4.83-5.76,5-.9.06-1.79-.21-2.45-.84-1.16-1.1-1.44-3.03-1.49-4.54-.18-5.97-.75-10.43-2.1-16.29Z"/>
  <path class="st11" d="M1290.25,900.42c9.96,8.78,20.68,13.88,19.05,24.92-21.2.41-22.31-2.2-19.82-19.28l.77-5.64Z"/>
  <path class="st11" d="M1404.37,972.88c13.18,12.68,17.96,14.74,9.03,26.99-8.67-9.32-26.87-19.3-13.21-25.08l4.18-1.91Z"/>
  <path class="st2" d="M1348.61,1139.1c6.89,12.72,7.29,20.83-5.01,29.15-4.54-17.33-8.28-19.21,5.01-29.15Z"/>
  <path class="st0" d="M1058.75,1243.57c.84.98,1.55,1.97,2.71,2.6.32.17.68.27.99.47,1.04.66,1.51,2.28,1.74,3.41.23,1.12.26,2.09-.55,2.99-1.12,1.24-3.52,1.63-5.05,1.88-5.3.87-9.39,2.29-14.45,4.15-3.25-1.37-5.55-2.02-7.03-5.41.21-1.4.03-1.42.93-2.58,1.46-1.88,3.74-2.35,6-2.42,3.64-.11,8.52.37,11.55-2.25,1.07-.92,2.11-1.9,3.16-2.85Z"/>
  <path class="st10" d="M1262.28,987.96c16.68,7.82,15.27,6.55,19.03,23.83-14.33-4.6-20.72-7.41-19.03-23.83Z"/>
  <path class="st0" d="M1376.73,928.19c14.54,12.15,17.82-.96,22.38,4.01.11,1.18.11.34-.3,2.95-22.34,19.89-16.08,15.96-22.08-6.96Z"/>
  <path class="st2" d="M1189.49,990.62c12.45,3.4,17.03,2.99,21.58,15.33-12.58-1.33-22.72,3.67-21.78-10.77l.2-4.55Z"/>
  <path class="st2" d="M1291.48,1178.38l3.8-.54c5.68-.86,10.76-1.85,15.68,1.87,1.73,1.31,2.96,3.57,3.17,5.71.05.51.04,1.01.07,1.52l.23,4.41c-2.69-.58-5.39-1.09-8.06-1.75-7.77-1.91-10.88-4.57-14.89-11.23Z"/>
  <path class="st2" d="M1133.35,1059.41c10.84.69,20.16-1.46,22.87,11.36l1.18,4.79c-16.48-1.24-12.67-3.6-24.05-16.15Z"/>
  <path class="st11" d="M1167.82,1064.45c5.74,1.17,19.62,3.57,10.41,11.99l-3.07,2.9c-16.31.01-16.29-2.24-7.34-14.89Z"/>
  <path class="st0" d="M1112.77,1148.39c5.85,3.22,8.78,14.79-4.46,13.27-.28-3.85.02-8.02-.12-11.97,1.53-.43,3.05-.87,4.58-1.3Z"/>
  <path class="st11" d="M1134.87,1151.43c10.19-2.01,10.77,5.44,9.49,13.69-3.91-3.2-11.96-6.77-14.55-10.37-.26-.36-.33-.95-.1-1.34.93-1.54,4.15-1.72,5.17-1.98Z"/>
  <path class="st0" d="M1072.67,1131.88c2.84.21,21.85.6,23.41,1.43.57,1.93-.16,1.72-1.55,3.26-9.31,7.91-11.04,10.75-18.65-.26l-3.21-4.43Z"/>
  <path class="st2" d="M1380.92,1046.36c12.83-2.27,6.35.82,3.4,14.93-4.96-6.55-13.47-12.13-3.4-14.93Z"/>
  <path class="st7" d="M1288.91,1019.82c3.29-.74,6.63,1.01,7.91,4.13,1.27,3.12.1,6.71-2.78,8.48-2.33,1.43-5.29,1.36-7.54-.2-2.25-1.56-3.37-4.3-2.85-6.99.52-2.69,2.58-4.81,5.26-5.41Z"/>
  <path class="st11" d="M1055.44,1393.78c1.71-.37,4.89-1.64,7.01-.83.8.31,1.5,1.12,1.7,1.95.94,3.85-3.67,10.33-5.37,13.39-1.25-1.76-2.48-3.54-3.83-5.21-1.11-1.37-2.26-2.37-3.03-4.01-.42-.88-.71-2.04-.3-2.98.57-1.33,2.81-1.87,3.83-2.3Z"/>
  <path class="st2" d="M1151.64,1021.49c.27-.15.55-.31.82-.46,1.31-.25,2.52-2.2,4.12-1.92,4.82.81.48,17.39.47,17.44-1.69-1.9-11.69-10.66-11.25-12.49,1.84-1.25,3.64-1.79,5.84-2.56Z"/>
  <path class="st11" d="M1449.14,912.87c6.39-3.05,8.32-2.46,6.64,5.27l-.99,5.12c-10.94-6.51-18.97-6.94-5.65-10.39Z"/>
  <path class="st11" d="M1044.09,1323.51c.6-.4,1.2-.8,1.79-1.21,1.37-.97,2.18-1.92,3.8-2.21.54,1.34-.57,3.43-.88,4.44-.21.28-.42.56-.62.84-.89,1.23-1.81,3.2-3.35,3.86-1.05-1.41-.7-4.46-.75-5.71Z"/>
  <path class="st0" d="M1427.24,1253.03c.34-.13.68-.25,1.02-.39,1.36-.53,3.46-1.77,5.14-1.55-.02,1.68-2.41,4.23-2.97,5.02-.29.04-.58.08-.87.13-1.49.25-2.98.82-4.42.32,0-1.37,1.38-2.58,2.1-3.53Z"/>
  <path class="st0" d="M1036.41,1281.64c.81-.22,2.77-1.11,3.91-.71-.16,1.31-1.78,2.91-2.37,3.68-.56.19-3.68,1.62-5.08,1.41.27-1.51,3.02-3.82,3.54-4.38Z"/>
  <path class="st2" d="M1136.25,1169.89c1.64-.37,1-.46,1.94-.21.77.98.31.26.71,2.48-1.79.27-1.12.44-2.08.08-.6-1.03-.26-.3-.57-2.35Z"/>
  <path class="st10" d="M1068.78,1193.56c-.45,3.79-.49,4.45-3.61,6.31.94-4.27.46-3.88,3.61-6.31Z"/>
  <path class="st12" d="M309.66,1329.61c231.03,57.98,462.6,113.74,694.7,167.29-.16,55.51,8.99,203.3-6.04,247.97-6.7,1.03-10.8.91-17.6-.43-47.6-9.39-95.17-22.98-142.31-34.56l-275.99-67.92-147.77-36.46c-23.22-5.77-49.94-10.05-71.85-19.25-14.25-5.99-21.8-17.91-30.08-30.31-9.22-68.22-3.05-155.98-3.04-226.32Z"/>
  <path class="st12" d="M1484.44,1261.85l3.19,4.51c1.64,34.45,5.04,212.81-4.17,231.39-6.35,12.81-25.25,24.07-37.46,31.34-56.82,33.82-120.76,60.03-179.93,89.83-83.42,42.02-165.8,87.97-250.71,126.78-.57-3.07-.51-1.56-.12-5.05,8.37-75.29,2.74-171.42,2.95-248.95l287.44-141.04c59.72-29.1,120.48-57,178.81-88.81Z"/>
  <path class="st13" d="M1304.85,1469.09c1.23,1.1,2.5,2.15,3.7,3.28,2.48,2.33,5.35,6.29,9.05,6.77.87.11,1.75.09,2.62.18,2.62.27,4.73,1.43,6.24,3.57-.11,1.49.11,3.98-.96,5.28-1.35-.4-2.11-1.22-2.77-2.46-.91-1.7-.85-3.02-2.79-3.59-1.23-.37-2.48-.67-3.71-1.01-3.8,1.03-7.66,1.97-11.43,3.12-2.93.89-8.5,3.6-11.8,1.74-.8-.45-1.56-1.33-1.64-2.29-.17-2.07,1.71-3.97,3.16-5.18,3.8-3.15,6.88-5.93,10.34-9.41Z"/>
  <path class="st8" d="M1291.11,1376.73c.74.38,4.21,2.22,5.34,2.69,1.46.6,3.01,1,4.46,1.61,1.57.66,3.59,1.63,3.96,3.51.34,1.69-.59,3.25-1.56,4.52-.29.38-.62.73-.92,1.1l-2.51,3.18c-2.63-.97-5.23-2.05-7.92-2.85-2.19-.65-4.3-1.1-6.31-2.25-.88-.51-1.71-1.3-1.8-2.36-.14-1.56,1.1-3.42,2.15-4.45.57-.56,1.2-1.07,1.79-1.62l3.31-3.07Z"/>
  <path class="st13" d="M1423.71,1474.34c.34.12.69.24,1.03.37,1.75.69,3.42,1.65,5.27,1.97,2.74.47,5.67-1.47,7.82-2.83.99-.63,1.71-1.43,2.99-1.21,1.37.24,2.15,3.26,2.4,3.86-2.31,3.48-4.79,8.06-8.61,10.25-1.37.79-2.99,1.07-4.49.43-2.63-1.14-4.1-4.39-4.83-6.97-.14-.5-.24-1.01-.38-1.51l-1.21-4.38Z"/>
  <path class="st13" d="M1255.36,1490.9c.87.68,1.78,1.32,2.62,2.05,2.28,1.96,2.18,5.96,2.16,8.68,0,.95-.11,1.89-.13,2.84-.07,2.48-.23,4.95-.4,7.42-.95-.29-1.89-.61-2.84-.88-2.36-.69-4.05-.96-6.1-1.91-1.16-.54-2.8-1.52-3.07-2.92-.29-1.52.87-3.34,1.69-4.55,2.43-3.58,4.17-6.81,6.07-10.72Z"/>
  <path class="st13" d="M1226.79,1515.86c2.32.53,4.63,1.15,6.99,1.45,2.04.26,4.15.25,6.14.83,1.21.36,2.99,1.14,3.46,2.48.88,2.49-.8,4.56-1.9,6.71-1.04.76-2.1,1.49-3.13,2.27-1.37,1.04-2.07,1.84-3.5,2.58-.93.48-1.77.7-2.77.37-.78-.96-.94-1.7-1.16-2.98-.92-5.35-2-8.59-4.13-13.71Z"/>
  <path class="st8" d="M1258.36,1419.03c.61,2.08,1.12,4.19,1.86,6.23,1.48,4.12,2.67,6.95,2.55,11.51-.02.91-.21,1.82-.21,2.73,0,1.77.11,3.54.17,5.31-1.47-1.2-2.92-2.41-4.41-3.59-2.14-1.7-4.46-3.16-5.51-5.85-1.13-2.89.37-5.9,1.68-8.43.46-.9,1.01-1.75,1.45-2.66.85-1.73,1.62-3.5,2.43-5.25Z"/>
  <path class="st8" d="M1466.68,1356.41s3.27-2.71,4.49-2.99c-.29,1.31-3.07,4.51-3.2,4.67-.42.16-4.45,2.01-6.03,2.08.9-1.81,3.11-2.58,4.74-3.76Z"/>
  <path class="st8" d="M1431.33,1397.85c.3-.09.6-.18.89-.27.64-.21,1.27-.47,1.91-.65.94-.27.72-.31,1.24.02-.12,1.23.03.44-.84,2.27-.68.51-1.94,1.69-2.82,1.89l-.27-.17c-.37-1.45-.18-.44-.11-3.08Z"/>
  <path class="st13" d="M1307.69,1529.68c.32-.17,2.85-1.92,4.03-1.86-.29,1.7-2.4,4.09-3.1,5.11-.5.25-2.29,1.54-3.31,1.32.2-1.42,1.68-3.36,2.39-4.57Z"/>
  <path class="st13" d="M1063.53,1563.45c.85-.11,1.69-.28,2.55-.34.6-.04.61.02.94.28.17,1.33-.69,2.43-1.25,3.64-2.46-1.14-1.7-.42-2.7-1.55-.06-1.18-.12-.49.47-2.03Z"/>
  <path class="st13" d="M1423.19,1497.55c1.97.01,1.23-.21,2.3.22.54.87.25.25.38,2.02-1.98-.57-1.17-.24-2.49-.85-.49-.75-.36-.31-.2-1.39Z"/>
  <path class="st13" d="M1293.51,1539.83c.24-.08.48-.16.72-.25.62-.24,1.93-.96,2.74-.75.71.18.95.78,1.43,1.34-.87.66-1.67,1.4-2.59,1.99-.43.27-.6.11-1.05,0-.85-.96-.31-.26-1.25-2.32Z"/>
  <path class="st13" d="M1403.14,1483.05c1.38-.29.86-.41,1.6-.13.66,1.14.28.31.37,2.7-.98-.82-1.39-1.44-1.97-2.57Z"/>
  <path class="st5" d="M1646.52,1274.69c235.36-12.28,231.95,128.89,10.6,129.68-6.36-.69-12.53-1.65-18.82-2.33l-22.67-2.52c-26.11-5.91-75.59-15.79-87.26-46.22-2.35-6.13,14.11-6.62,16.82-6.78,11.66-3.12,23.08-5.62,34.77-8.92,37.3-15.57,47.91-29.13,66.56-62.91Z"/>
  <path class="st3" d="M1545.19,1346.53c11.66-3.12,23.08-5.62,34.77-8.92,43.45,49.28,39.9-11.94,58.69,22.63,6.27-2.45,13.01-5.94,17.74,4.19-2.56,15.48,3.7,6.44,11.46,14.63-5.51,9.29-15.58,1.26-10.73,25.32-6.36-.69-12.53-1.65-18.82-2.33l-22.67-2.52c-26.11-5.91-75.59-15.79-87.26-46.22-2.35-6.13,14.11-6.62,16.82-6.78Z"/>
  <path class="st4" d="M1615.63,1399.52c-26.11-5.91-75.59-15.79-87.26-46.22-2.35-6.13,14.11-6.62,16.82-6.78,22.28,17.54,50.95-6.91,57.23,19.6-2.6,5.59-7.42,2.26-12.38,5.44l-.55,1.6c10.06,19.08,14.48-23.57,26.14,26.36Z"/>
  <path class="st4" d="M1643.81,1365.37c.59-.08,3.48-.83,4.62-.21.32.17.53.42.51.8-.05,1.2-1.07,2.53-1.79,3.39-.74.87-1.54,1.69-2.3,2.55-5.48,6.21-6.92,6.78-15.19,8.8-.16.03-2.54.53-3.2.45-1.31-.17-2.46-1.98-2.95-3.01-.76-1.6-.72-3.07.21-4.59,2.39-3.9,10.45-4.91,14.16-6.09,1.99-.64,3.95-1.38,5.93-2.07Z"/>
  <path class="st3" d="M1670.54,1373.27l1.66.2c5.43.6,12.33,1.04,16.46,5.2,1.56,1.57,1.27,3.21,1.29,5.34-1.5.13-3.01.23-4.51.38-3.02.31-6.9,1.31-9.72-.44-3.38-2.1-4.21-7.33-5.18-10.67Z"/>
  <path class="st5" d="M1529.58,1176.17c21.13-.2,41.98,1.41,61.96,8.9,16.29,6.11,31.71,16.57,38.28,33.33,3.74,9.54,7.67,30.71,2.71,39.97-2.19,4.08-10.5,5.12-14.36,5.95l-12.48,2.79c-16.85,3.92-32.29,9.21-48.1,16.2-31.46,18.8-38.59,31.58-55.81,62.09-.18-18.55-2.75-156.64,2.16-162.14,3.29-3.68,10.42-4.88,14.94-5.54,1.53-.22,3.07-.39,4.6-.61l6.11-.94Z"/>
  <path class="st5" d="M1622.42,1277.97c.07.01,2.64.39,3.18.66.75.37.99.88,1.02,1.73.14,3.21-3.59,8.16-5.36,10.5-20.74,27.41-54.02,36.31-86.14,41.53-.54-.03-4.39.12-5.74-.71-.55-.33-.86-.8-.92-1.49-.21-2.4,2.12-5.75,3.39-7.54,19.73-27.76,58.95-38.27,90.56-44.68Z"/>
  <g>
    <path class="st6" d="M594.78,1042.78c-.97,2.01-2.78,2.54-5.43,1.59-1.11-.4-1.78-1.16-2-2.28-.23-1.12-.02-2.22.63-3.3l16.9-32c-2.97-3.41-5.85-6.72-8.64-9.94-2.79-3.21-6.4-5.62-10.83-7.19-2.56-.92-5.64-1.49-9.23-1.73-3.59-.23-6.72-.3-9.38-.21-7.28.54-13.76,2.15-19.45,4.82-5.68,2.68-10.82,6.2-15.4,10.58-4.59,4.38-8.54,9.37-11.85,14.98-3.31,5.62-6.13,11.67-8.44,18.16-5.13,14.38-8.01,28.31-8.64,41.8-.64,13.49-.06,26.7,1.74,39.63,1.79,12.92,4.21,25.55,7.27,37.87,3.05,12.33,5.66,24.43,7.83,36.31,2.16,11.88,3.28,23.58,3.36,35.11.07,11.52-1.92,22.96-5.97,34.33-2.23,6.26-4.99,11.8-8.29,16.64-3.29,4.83-7.23,8.72-11.8,11.67-4.58,2.94-9.71,4.7-15.41,5.28-5.69.58-11.91-.33-18.63-2.72-6.26-2.23-11.75-5.7-16.48-10.39-4.73-4.7-8.43-10.06-11.11-16.11-2.68-6.05-4.26-12.43-4.74-19.13-.49-6.71.39-13.19,2.62-19.45,1.16-3.25,2.74-6.41,4.75-9.48,2.01-3.08,4.32-5.71,6.94-7.91,2.61-2.21,5.62-3.68,9.03-4.42,3.4-.75,6.96-.46,10.67.86,5.1,1.82,8.83,4.92,11.19,9.28,2.36,4.37,3.41,9.12,3.15,14.25l-.37,1.04c-.91,2.55-2.64,3.37-5.19,2.46-1.39-.5-2.19-1.56-2.39-3.2s-.46-3.5-.76-5.56c-.31-2.07-.97-4.07-1.98-6-1.01-1.93-3.14-3.47-6.38-4.63-2.55-.91-4.94-.98-7.18-.21-2.23.77-4.25,2.01-6.03,3.73s-3.35,3.71-4.68,5.98c-1.34,2.27-2.37,4.45-3.11,6.53-1.82,5.1-2.49,10.48-2.01,16.14.48,5.66,1.84,11.04,4.09,16.16,2.24,5.11,5.34,9.68,9.29,13.7,3.95,4.02,8.49,6.95,13.62,8.78,9.78,3.49,18.2,3.29,25.23-.61,7.04-3.9,12.25-10.59,15.64-20.1,3.64-10.21,4.84-21.47,3.59-33.8-1.25-12.34-3.61-25.4-7.09-39.18-3.49-13.79-7.6-28-12.36-42.63-4.76-14.63-8.73-29.24-11.91-43.84-3.19-14.59-5.06-28.98-5.61-43.16-.57-14.18,1.43-27.65,5.98-40.4,3.89-10.9,9.44-20.8,16.68-29.72,7.23-8.92,16-16.11,26.32-21.58,7.8-4.28,16.34-7.17,25.64-8.69,9.29-1.52,18.35-.71,27.16,2.43,8.11,2.89,15.15,7.17,21.1,12.82,5.95,5.65,10.4,12.4,13.36,20.25l6.2-11.9c.64-1.08,1.45-1.7,2.43-1.88.97-.17,2.04-.06,3.2.36,1.16.41,1.86,1.19,2.11,2.32.24,1.13.09,2.13-.47,2.97l-28.46,54.53Z"/>
    <path class="st6" d="M651.41,1150c-.08.23-.52.73-1.32,1.49l-15.39,15.68c-1.43,1.06-2.83,1.34-4.22.85-.47-.17-1.08-.64-1.84-1.44-2.22-1.83-4.46-3.42-6.73-4.75-2.27-1.33-4.91-2.54-7.92-3.61-5.1-1.82-10.42-2.48-15.95-1.98-5.54.5-10.8,1.88-15.78,4.13-4.99,2.25-9.48,5.33-13.49,9.23-4.01,3.91-6.91,8.39-8.72,13.47-3.95,11.08-3.65,21.4.91,30.96,4.56,9.56,12.52,16.37,23.88,20.42,3.01,1.07,5.92,1.52,8.73,1.35,2.81-.17,5.38-.63,7.74-1.36,2.35-.73,4.35-1.39,6-1.98,1.64-.59,2.82-.76,3.51-.51,2.55.91,3.37,2.64,2.46,5.19-.33.93-.97,1.62-1.91,2.06-2.14,1.59-4.86,2.8-8.16,3.64-3.31.84-6.75,1.35-10.36,1.56-3.6.2-7.02.07-10.24-.4-3.23-.48-6.12-1.17-8.67-2.08-6.26-2.23-12.03-5.66-17.3-10.29-5.28-4.63-9.53-9.93-12.75-15.92-3.23-5.98-5.33-12.35-6.32-19.11-.99-6.75-.32-13.38,1.99-19.87,2.81-7.88,7.06-14.14,12.77-18.77,5.7-4.63,12.17-7.94,19.42-9.93,7.24-1.99,14.81-2.69,22.7-2.1,7.89.6,15.31,2.13,22.27,4.61,2.55.91,5.05,1.94,7.53,3.08,2.47,1.14,4.81,2.63,7.03,4.47l10.2-13.22c.96-1.23,2.1-1.67,3.42-1.33,1.31.34,2.55.71,3.71,1.13,1.16.41,2.02,1.11,2.58,2.1.56.99.64,2.06.23,3.22Z"/>
    <path class="st6" d="M728.67,1293.87c-.86,2.4-2.49,3.3-4.88,2.69l-28.71-6.32c-1.47-.27-2.41-.93-2.82-1.99-.41-1.06-.47-2.18-.18-3.34.29-1.18.7-2.35,1.26-3.52.55-1.18.94-2.1,1.18-2.76-4.42.67-9.82.62-16.21-.15-6.38-.78-11.55-1.87-15.49-3.28-3.71-1.32-8.09-3.15-13.14-5.47-5.05-2.33-9.65-5.2-13.78-8.64-4.13-3.43-7.27-7.3-9.39-11.58-2.13-4.29-2.24-9.09-.34-14.43,2.07-5.79,5.86-9.47,11.38-11.03,5.52-1.56,11.54-1.96,18.07-1.2,6.52.76,13.01,2.16,19.47,4.2,6.46,2.04,11.65,3.76,15.6,5.17,2.78.99,5.85,2.28,9.2,3.87,3.35,1.59,6.3,3.23,8.83,4.91l2.11-5.91c1.82-5.1,3.21-10.29,4.18-15.56.96-5.27,1.05-10.27.25-15-.8-4.73-2.73-9.01-5.8-12.85-3.08-3.84-7.63-6.84-13.65-8.99-2.32-.83-4.9-1.48-7.73-1.97-2.83-.48-5.62-.56-8.35-.23-2.73.33-5.21,1.22-7.41,2.65-2.21,1.43-3.85,3.66-4.93,6.67-1.41,3.94-1.43,6.94-.07,8.99,1.36,2.05,3.05,3.71,5.09,4.95,2.03,1.25,3.92,2.38,5.65,3.39,1.73,1.01,2.26,2.44,1.6,4.3-.42,1.16-1.15,1.94-2.21,2.35-1.06.41-2.06.44-2.98.11-2.78-.99-5.65-2.47-8.61-4.44-2.96-1.97-5.48-4.24-7.57-6.81-2.09-2.57-3.57-5.39-4.44-8.44-.87-3.06-.73-6.2.43-9.45,1.57-4.4,3.97-7.66,7.21-9.78,3.23-2.11,6.9-3.42,11-3.92,4.1-.5,8.24-.39,12.43.32,4.19.71,8.02,1.69,11.5,2.93,9.5,3.39,17.02,7.78,22.55,13.16,5.53,5.38,9.34,11.53,11.45,18.45,2.1,6.91,2.68,14.46,1.72,22.65-.96,8.18-3.02,16.7-6.17,25.54-1.91,5.35-4.09,10.74-6.55,16.16-2.46,5.42-4.87,10.73-7.24,15.91l13.49,2.85c.92.33,1.75.95,2.47,1.86.72.91.89,1.91.5,3ZM705.86,1249.03c-2.92-2.09-5.99-3.92-9.22-5.47-3.24-1.55-6.48-2.91-9.72-4.06-2.55-.91-5.79-1.73-9.7-2.47-3.92-.74-7.81-1-11.67-.79-3.87.21-7.41.99-10.64,2.35-3.23,1.36-5.47,3.8-6.72,7.31-1,2.81-1.07,5.37-.19,7.66.88,2.3,2.29,4.39,4.23,6.27,1.94,1.88,4.12,3.46,6.55,4.71,2.42,1.26,4.79,2.3,7.12,3.13,5.1,1.82,10.49,3.02,16.17,3.59,5.68.57,11.11-.2,16.31-2.31l7.5-19.92ZM753.92,1112.08l-16.11,33.06,8.45-35.79-27.09,11.11,26.57-14.04-16.84-9.93,19.32,2.97-11.69-27.69,13.82,26.1,16.23-33.41-8.58,36.14,27.22-11.46-26.57,14.04,16.84,9.93-19.32-2.97,11.68,27.69-13.94-25.75Z"/>
    <path class="st6" d="M852.3,1330.81c-.43,1.22-1.15,2.12-2.15,2.72-1,.6-2.08.69-3.24.28l-59.02-20.27c-2.55-.91-3.35-2.69-2.41-5.34.87-2.43,2.66-3.43,5.39-3.01l18.43,6.57c3.33-7.14,6.56-14.39,9.71-21.73,3.14-7.34,6.03-14.71,8.67-22.1,1.4-3.92,3.01-8.82,4.84-14.68,1.82-5.85,2.93-11.71,3.32-17.56.39-5.85-.32-11.18-2.13-15.99-1.81-4.81-5.5-8.21-11.06-10.2-4.17-1.49-8.57-1.62-13.19-.39-4.22.85-8.1,2.54-11.61,5.07-3.52,2.54-6.67,5.53-9.47,8.97-2.8,3.45-5.23,7.15-7.3,11.12-2.07,3.97-3.81,7.92-5.21,11.86l-10.3,28.86,15.9,4.89c1.16.41,2.04,1.06,2.65,1.92.6.87.7,1.88.29,3.04-.99,2.78-2.77,3.72-5.31,2.81l-62.42-19.52c-1.16-.41-2.04-1.05-2.65-1.92-.6-.87-.7-1.88-.29-3.04.99-2.78,2.77-3.72,5.31-2.81l33.53,10.39,14.15-79.24-25.88-7.66c-1.24-.18-2.14-.76-2.71-1.75-.56-.98-.64-2.05-.22-3.22.83-2.32,2.48-3.29,4.97-2.93l47.12,14.06c2.78.99,3.72,2.77,2.81,5.31l-5.73,17.17c5.16-4.95,11.1-8.59,17.8-10.9,6.71-2.31,13.54-2.23,20.49.25,8.58,3.06,15.24,6.74,19.98,11.03,4.74,4.3,8.01,9.24,9.8,14.83,1.79,5.59,2.28,11.75,1.44,18.49s-2.65,14.03-5.45,21.88c-6.18,17.33-14.29,33.84-24.33,49.54l22.73,7.71c1.16.41,2.01,1.13,2.57,2.14.55,1.01.61,2.12.18,3.33Z"/>
  </g>
</svg>