<?xml version="1.0" encoding="UTF-8"?>
<svg id="Layer_1" xmlns="http://www.w3.org/2000/svg" version="1.1" viewBox="0 0 2048 2048">
  <!-- Generator: Adobe Illustrator 30.3.0, SVG Export Plug-In . SVG Version: 2.1.3 Build 182)  -->
  <defs>
    <style>
      .st0 {
        fill: #fad583;
      }

      .st1 {
        fill: #3d311d;
      }

      .st2 {
        fill: #bdac8b;
      }

      .st3 {
        fill: #2b2b26;
      }

      .st4 {
        fill: #e6e9e0;
      }

      .st5 {
        fill: #816832;
      }

      .st6 {
        fill: #7a7262;
      }

      .st7 {
        fill: #aa8a3e;
      }

      .st8 {
        fill: #fbf2e1;
      }

      .st9 {
        fill: #8f8a7d;
      }

      .st10 {
        fill: #564e44;
      }

      .st11 {
        fill: #b99b6e;
      }

      .st12 {
        fill: #fbf1dd;
      }

      .st13 {
        fill: #b6914b;
      }
    </style>
  </defs>
  <path class="st1" d="M1913.77,757.15c-9.04,2.37-33.04,15.56-33.16,15.54-11.58-1.64-18.13-31.33-33.25-30.01-11.03.96-10.73,15.17-21.74,15.32-8.31-1.08-22.57-22.98-27.8-29.16l-5.27-7.96c-4.34,3.93-8.88,8.18-13.32,11.95l2.17,10.57-9.77.63c-23.77-26.61-20.38-24.2-51.34-12.83-16.84,5.34-13.23,7.39-15.6,25.37l11.11,26.77c110.51,264.78,71.94,496.93-72.92,731.68-232.62,376.98-647.43,503.98-1048,327.46-118.99-53.62-224.85-132.54-310.21-231.26-21.94-13.45-53.57-16.97-70.07-27.02-38.38-23.37-97.36-11.44-105.28-55.32,2.71-29.43-2.54-40.75-10.63-68.8l2.97-4.59c8.49,2.68,23.29,8.01,31.12,5.34,49.37-16.8,32.33-58.11,23.8-87.68l3.72-6.4c6.13-1.49,15.21-3.97,21.36-3.56,59.36,4.02,46.66-59.62,36.64-101.65l70.7,24.44c-77.06-339.3,43.9-701.71,306.72-928.46,54.03-46.62,158.06-95.68,225.53-123.26,15.99-11.5,27.26-37.47,60.16-57.15,96.03-85.37,224.75-40.81,334-15.85,117.06,26.61,233.33,56.54,348.69,89.78,108.73,30.8,250.19,61.96,322.88,151.63,88.03,108.6,59.47,266.67,51.83,396.1l-25.03-41.62Z"/>
  <path class="st12" d="M1545.23,414.41c-177.79,276.57,26.45,741.4-209.18,1100.26-47.44,72.24-108.17,127.86-194.31,148.05-42.94,10.07-69.54,8.07-107.24-16.28-13.12-8.47-31.35-25.19-35.43-40.65-.36-1.39-.37-2.84-.55-4.27l5-4.33,1.7-5.77-15.13-5.3c-13.5-14.59-17.06-33.03-23.32-52.5,64.23,15.3,127.99,45.86,193.84,65.69l2.99-3.6c-13.07-12.76-157.17-51.69-183.65-68.59-21.45-13.7-15.8-7.98-25.29-36.84-153.28-51.82-314.94-99.93-470.01-147.68,95.21-40,140.08-94.85,192.11-181.38,138.39-230.15,45.17-498.05,85.41-748.75,12.62-78.63,44.29-170.03,110.72-219.44,6.53-4.94,10.58-8.09,16.73-13.49,62.67-41.17,120.16-55.48,194.04-39.12,209.51,46.39,435.41,97.74,637.61,167.5-74.07,16.39-132.97,39.49-176.04,106.48Z"/>
  <path class="st10" d="M1005.21,1591.41c2.27.87,4.55,1.74,6.82,2.6,22.42,7.87,45.2,14.65,68.28,20.34,8.14,1.93,39.29,7.76,44.4,13.49-1,4.91-21.67-.24-23.08-.45-20.16-2.94-39.6-9.39-59.19-14.74-14.88-4.18-25.82-7.67-38.92-15.47l1.7-5.77Z"/>
  <path class="st10" d="M1198.89,661.67c3.62.72,7.18,1.69,10.8,2.45,9.81,2.05,19.62,3.95,29.4,6.17l38.1,8.39c6.38,1.39,12.65,2.86,19.05,4.18,6.32,1.3,12.75,2.78,19.05,4.19,2.48.55,4.92,1.23,7.39,1.82,3.87.92,7.78,1.66,11.66,2.52,6.34,1.41,12.71,3,19.02,4.54,2.18.53,4.34,1.16,6.53,1.69l27.36,6.5c7.76,1.91,15.38,4.22,23.17,6.05.04,31.51,3.46,304.58-1.6,309.05-1.67,1.47-6.5,1.9-7.51,2.11-8.23-1.96-16.17-3.47-24.49-4.94-3.67-.66-7.26-1.73-10.9-2.57l-18.88-4.23c-12.67-2.85-25.43-5.34-38.1-8.25-3.45-.79-6.96-1.32-10.42-2.07-12.72-2.75-25.37-5.76-38.12-8.44-3.59-.75-7.14-1.73-10.73-2.54-32.64-7.01-65.22-14.29-97.74-21.84.3-31.48-2.94-305.2,2.62-310.16,1.52-1.35,3.37-1.67,5.27-2.19,13.13,2.16,26.02,4.97,39.06,7.57Z"/>
  <path class="st12" d="M1211.73,672.72l19.08,4.25c3.44.77,6.93,1.26,10.38,1.99,7.07,1.49,14.16,3.27,21.2,4.9,2.18.51,4.34,1.12,6.53,1.62l29.35,6.51,17.02,3.87c3.6.78,7.16,1.77,10.75,2.63l16.94,3.99c3.44.83,6.94,1.39,10.4,2.14,6.36,1.38,12.73,2.97,19.07,4.42,6.93,1.59,13.55,3,20.57,4.27,2.99.54,5.96,1.2,8.94,1.82-.03,27.73,3.81,288.36-2.2,294.48-2.32,2.35-6.5,2.02-9.42,1.62-1.99-.28-3.95-.77-5.93-1.19l-146.95-32.29c-25.78-5.46-51.47-11.32-77.07-17.6-.22-29.1-2.8-288.83,3.52-294.64,1.92-1.77,5.09-1.75,7.49-1.33,3.86.68,7.7,1.75,11.55,2.52,9.68,1.83,19.19,3.77,28.78,6.01Z"/>
  <path class="st10" d="M1263.13,858.83c24.02,5.48,47.89,11.28,71.79,17.24,15.38,3.85,30.87,7.21,46.45,10.07,2.84.51,5.58.76,6.95,3.57.98,2.01.76,1.68.17,3.46-3.94,2.35-8.91.86-13.16.21-18.69-3.71-37.1-8.51-55.63-12.91-8.59-2.04-17.12-4.36-25.72-6.33-2.71-.62-5.45-1.1-8.16-1.7-3.61-.8-7.16-1.88-10.77-2.7-2.74-.63-5.52-1.11-8.26-1.73l-19.04-4.29c-2.37-.54-4.71-1.26-7.07-1.85l-18.73-4.59-18.84-4.54c-2.75-.68-5.54-1.19-8.29-1.85-2.84-.68-9.84-2.16-12.03-4.63-1.08-1.21-.48-1.64-.02-3.05,4.05-2.26,7.83-.52,12.29.31.61.11,1.22.21,1.84.31l66.24,15Z"/>
  <path class="st10" d="M1378.67,937.18c2.72.58,6.79,1.67,8.7,3.93.35.41.59,1.07.48,1.62-.22,1.19-1.48,1.83-2.48,2.21-4.47,1.69-9.35.09-13.8-.79-9.08-1.88-17.95-4.01-26.93-6.27-9.67-2.43-19.42-4.43-29.16-6.52-12.73-2.72-25.37-5.91-38.12-8.61-6.35-1.34-12.75-2.97-19.06-4.47-8.51-2.02-17.03-3.95-25.48-6.19l-17.06-4.46c-2.73-.7-5.49-1.26-8.21-1.97-2.31-.61-4.57-1.38-6.88-1.99-2.03-.53-4.09-.95-6.13-1.46-3.26-.8-7.6-2.06-9.42-5.13.07-1.43-.08-.73.46-2.09,3.4-1.72,6.65-.78,10.28-.28,60.27,16.07,121.77,29.52,182.81,42.44Z"/>
  <path class="st10" d="M1381.57,838.95c.66.92.53,1.02.64,2.12-1.12,1.82-.27.7-3.15,2.82-7.82-1.93-15.51-3.49-23.42-4.97-13.38-2.5-26.87-6.01-40.17-8.99-6.35-1.42-12.71-3.07-19.05-4.55l-35.99-8.32c-2.36-.55-4.7-1.21-7.05-1.81-3.95-.99-7.95-1.74-11.93-2.61-8.59-1.89-17.11-4.27-25.68-6.25-2.73-.63-5.52-1.02-8.27-1.6-4.33-.9-16.34-2.82-19.33-6.4-.35-.42-.51-.9-.44-1.45.19-1.53,2.93-2.77,4.07-3.48,22.37,4.29,184.57,38.25,189.8,45.49Z"/>
  <path class="st10" d="M870.8,589.68l21.16,4.47,38.1,8.08c19.76,4.27,39.41,8.97,59.26,12.81,3.6.7,7.15,1.68,10.73,2.46,3.45.75,6.96,1.19,10.43,1.88,4.3.85,8.52,2.05,12.78,3.04,4.85,1.12,9.74,2.08,14.61,3.11-.05,29.84,3.5,323.01-1.86,328.66-2.07,2.18-5.69,2.05-8.43,2.17-10.63-2.67-21.05-5.55-31.75-7.94-6.35-1.41-12.7-2.97-19.04-4.44l-44.63-10.59-36.08-8.52-27.26-6.21-35.92-8.74-16.92-4.17c-3.49-.88-6.92-1.98-10.38-2.95-1.63-.46-3.27-.88-4.91-1.33.04-35.73-4.43-315.08,2.21-322.21,2.13-2.29,6.04-1.82,8.72-1.85,19.82,3.58,39.43,8.29,59.17,12.29Z"/>
  <path class="st12" d="M841.52,592.05c4.06,1.02,8.23,1.64,12.33,2.51,2.2.47,4.37,1.05,6.56,1.56,4.16.97,8.34,1.8,12.5,2.73,6.38,1.43,12.65,2.78,19.06,4.08l40.21,8.45c6.36,1.29,12.7,2.78,19.07,4.08,3.6.73,7.14,1.72,10.73,2.48l29.46,6.04c7.16,1.5,13.97,2.93,21.19,4.14,4.04.68,8.03,1.64,12.04,2.48,1.56.33,3.13.61,4.69.92.01,32.98,3.06,306.41-1.98,311.47-1.5,1.51-5.13,2.7-6.79,3.42-61.71-15.75-123.99-29.33-185.84-44.5-8.39-2.06-16.67-4.53-25-6.79-.39-27.19-4.59-300.28,2.44-307.33,1.15-1.15,2.62-1.42,4.11-1.91,8.49,1.85,16.81,4.03,25.24,6.16Z"/>
  <path class="st10" d="M989.01,886.1c5.03,1.09,17.47,2.48,21.08,7.51.49.68.55,1.75.07,2.46-1.3,1.93-5.34,1.52-7.21,1.57-15.97-3.22-31.73-7.29-47.64-10.76-9.73-2.13-19.55-3.95-29.3-5.95-3.63-.75-7.18-1.84-10.8-2.67-2.74-.63-5.51-1.12-8.25-1.74-2.34-.54-4.65-1.19-6.99-1.75-4-.96-8.04-1.74-12.05-2.68l-16.97-3.96c-3-.68-5.94-1.62-8.93-2.35-2.07-.5-4.16-.89-6.22-1.41-2.27-.57-7.79-2.27-8.64-4.97-.12-.39-.24-1.18.08-1.6,1.52-1.97,8.76-.94,9.81-.88,44.16,8.7,87.95,19.66,131.95,29.18Z"/>
  <path class="st10" d="M1219.9,1547.19c2.48,6.57,2.49,3.8,1.94,8.08l-419.66-139.84c-49.95-16.88-98.9-35.09-148.28-53.34-19.55-7.22-38.78-10.82-57.73-20.2-.17-2.3-.89-4.74-.12-6.91,207.13,72.59,417.83,136.97,623.85,212.21Z"/>
  <path class="st10" d="M1151.68,1314.12c59.86,16.85,121.02,31.82,179.97,51.58l1.87,4.67-7.08,1.38c-134.97-37.42-269.75-75.53-404.32-114.33-62.43-17.8-132.56-30.97-191.79-56.43l-.78-4.79,5.84-1.64c137.61,43.14,277.45,80.47,416.3,119.56Z"/>
  <path class="st10" d="M1298.84,1434.28l-3.12,4.91c-71.11-21.86-591.37-167.95-602.67-185.34l3.02-3.47c67.76,21.62,584.56,169.29,602.76,183.9Z"/>
  <path class="st10" d="M1262.64,1493l1.18,4.38-7.08,1.7c-134.05-41.32-267.75-83.79-401.08-127.4-37.69-11.97-181.57-51.19-205.69-67.88l3.47-3.7h5.48c200.86,65.48,402.11,129.78,603.73,192.9Z"/>
  <path class="st10" d="M1071.75,267.96c13,2.26,22.04-.99,34.24-4.82,13.15,2.43,22.2,11.48,32.34,19.6,12.51,2.76,23.02-.22,35.24-2.85,9.9,2.65,15.12,6.24,23.03,12.35,7.38,5.7,11.64,10.11,21.54,9.08,7.05-.74,14.26-2.69,21.15-4.34,9.81,2.69,14.75,6.43,22.47,12.62,7.37,5.91,12.13,10.99,22.26,9.71,7.68-.97,15.71-3.77,23.12-5.98,16.79,4.26,21.81,16.35,35.64,23.52,11.68,6.05,18.63-3.54,29.41-4.47,30.45-2.64,91.32,35.31,132.36,37.34l-.91,1.66c-8.09-.05-7.71-.04-14.63,3.05-1.35.6-8.22,1.52-9.84,1.75-1.68-.57-3.38-1.08-5.03-1.71-10.34-3.95-3.34-1.12-12.65-7.05-8.16-5.2-84.92-26.31-91.97-24.98-1.99.38-3.81,1.36-5.76,1.93-2.7.79-5.44,1.41-8.15,2.15l-6.55,1.84c-12.41-3.65-20.13-13.83-28.87-22.83-27.09-6.51-30.85,13.11-58.98-7.6-35.82-26.38-100.89-7.74-132-34.05-4.41-3.73-8.82-7.39-13.18-11.18-12.91-2.54-23.57,1.5-35.85,5.01-10-1.57-13.33-4.83-20.8-10.95-11.82-9.69-18.19-9.98-32.81-11.6-32.99-3.65-66.62-8.4-96.63-23.13-5.6-2.75-11.31-3.67-17.37-4.91,5.79-4.27,7.39-5.35,14.73-6.8,40.59,31.71,103.47,11.85,144.43,47.69Z"/>
  <path class="st10" d="M1214.68,1106.73c55.3,14.37,118.57,23.62,170.59,45.99l1.82,5.19-6.9-1.47c-71.73-17.73-560.81-133.44-582.96-155.02l9.81-1.39c135.59,36.64,271.48,72.22,407.64,106.71Z"/>
  <path class="st10" d="M1210.11,1180.77c38.29,10.22,139.14,29.44,169.05,47.7-4.78,3.76-2.48,3.1-6.16,3.65-73.6-19.41-567.78-144.19-591.27-160.93l6.03-2.93,422.35,112.51Z"/>
  <path class="st10" d="M1357.88,1292.47l2.26,4.52-3.49,2.67-592.47-158.72-3.29-5.78,1.97-3.35c196.99,56.4,396.56,109.83,595.02,160.67Z"/>
  <path class="st10" d="M1423.39,546.2l-3.48,2.65c-78.03-20.58-579.64-141.34-592.01-153.87l3.06-3.63c66.21,16.52,575.66,138.47,592.44,154.86Z"/>
  <path class="st10" d="M1416.94,604.66c-3.88.86-7.33,1.89-11.33,1.73-75.48-18.34-563.93-129.69-591.04-150.55,7.76-2.72,4.2-2.67,10.56-1.49,55.41,14.04,579.54,140.31,591.8,150.31Z"/>
  <path class="st10" d="M1244.1,430.22c64.78,16.05,136.04,28.13,198.43,51.31l-.83,4.61-3.56.51c-68.89-16.72-560.13-132.31-582.81-147.3,4.88-4.06,2.42-3.37,6.66-3.77l382.11,94.64Z"/>
  <path class="st0" d="M1704.69,756.57l11.11,26.77c110.51,264.78,71.94,496.93-72.92,731.68-232.62,376.98-647.43,503.98-1048,327.46-118.99-53.62-224.85-132.54-310.21-231.26l6.73.19c22.75,5.32,48.17,15.39,70.04,23.9,10.21,3.9,20.51,7.53,30.91,10.9,126.16,44.4,253.8,84.48,382.69,120.17,18.74-2.36,28.82,1.49,40.69.14l-.28-.29.23-.28,2.61-.69c5.66-1.56,11.02-2.58,16.81-3.6,22.53,5.54,53.66,17.23,78.74,24-27.09-31.14-35.45-38.69-57.54-73.85,39.03-1.11,78.91,12.82,120.4,12.09,61.96-1.1,141.64-22.33,193.26-57.87,4.07-3.79,1.82-2.21,7.77-4.97,72.76-33.65,97.38-52.12,146.58-113.99,2.1-2.37,2.23-2.45,3.64-5.27,114.95-157.24,140.13-338.54,142.7-528.42,3.91-25.31,3.67-45.31,2.81-70.95,1.42-42.08-14.24-276.46,26.1-283.86,8.54,8.33,9.45,10.81,20.29,15.03,9.76-5.92,13.14-9.25,24.36-10.6l15.35,18.79c15.57,3.19,15.5-.33,33.49-7.51,12.7,6.5,12.76,12.68,21.43,27.47l7.48,1.64c8.35-6.96,13.34-12.62,23.87-14.96,15.73,13.42,7.01,20.67,24.99,26.87l10.97-5.48c10.75,18.7,14.7,26.88,22.89,46.74Z"/>
  <path class="st13" d="M775.03,1766.38c18.74-2.36,28.82,1.49,40.69.14l-.28-.29.23-.28,2.61-.69c5.66-1.56,11.02-2.58,16.81-3.6,22.53,5.54,53.66,17.23,78.74,24-37.19,9.96-100.63-9.56-138.8-19.28Z"/>
  <path class="st0" d="M651.88,1184.9c-55.28,77.87-88.14,119.25-180.87,152.24-42.29-10.43-150.53-45.95-182.02-51.15-77.06-339.3,43.9-701.71,306.72-928.46,54.03-46.62,158.06-95.68,225.53-123.26-181.37,288.94,34.35,663.63-169.36,950.63Z"/>
  <path class="st2" d="M1809.52,345.51c36.32,22.38,70.06,55.81,91.04,93.08-26.85-.34-40.86,6.17-66.52,16.29-85.64,33.75-158.16,95.77-176.67,189.37-2.44,12.31-2.22,16.79-7.03,28.88-7.83,5.02-19.19,14.17-26.29,18.25-12.18,6.22-21.96-37.89-39.79-22.68-26.75,22.82-29.92-26.49-51.6-13.24-17.54,10.72-15.61,6.92-30.53-5.39-4.35-3.59-16.33,7.27-21.68,8.98-8.37-17.67,21.21-122.17,29.01-143.54,16.29-44.65,32.01-86.83,62.77-123.89,12.52-9.79,15.64-12.58,25.11-25.16l4.93-2.89c5.28-5.96,4.28-5.41,11.28-8.75,65.36-42.97,121.87-46.87,190.48-12.85,3.28,1.35,2.76,1.13,5.49,3.53Z"/>
  <path class="st8" d="M1939.03,658.31c-4.2,7.62-3.06,9.06-2.12,18.66-1.05,16.5-2.16,79.64-7.53,88.08-2.08.36-11.25-9.01-13.03-10.59l-2.58,2.69c-9.04,2.37-33.04,15.56-33.16,15.54-11.58-1.64-18.13-31.33-33.25-30.01-11.03.96-10.73,15.17-21.74,15.32-8.31-1.08-22.57-22.98-27.8-29.16l-5.27-7.96c-4.34,3.93-8.88,8.18-13.32,11.95-21.29,10.63-18.8-44.27-46.39-15.68-15.23,15.78-29.71-41.47-51.75-18.52-17.53,18.25-25.9-12.46-30.74-25.51,4.8-12.09,4.59-16.57,7.03-28.88,18.51-93.6,91.03-155.62,176.67-189.37,25.66-10.11,39.66-16.63,66.52-16.29,46.2,76.58,40.43,134.48,38.47,219.72Z"/>
  <path class="st3" d="M1913.77,757.15c-9.04,2.37-33.04,15.56-33.16,15.54-11.58-1.64-18.13-31.33-33.25-30.01-11.03.96-10.73,15.17-21.74,15.32-8.31-1.08-22.57-22.98-27.8-29.16l-5.27-7.96c27.85.47,17.7,40.17,48.02,17.39,24.52-18.41,26.72,27.33,44.16,22.58,6.31-1.71,17.89-15.42,25.47-13.9,1.65.31,3.07,1.37,3.86,2.86.76,1.55,1.53,3.09,2.29,4.64l-2.58,2.69Z"/>
  <path class="st13" d="M976.69,1723.9c-41.49.74-81.37-13.2-120.4-12.09-6.4-11.79-17.57-58.29-10.41-69.56,35.56-55.99,154.17,30.42,213.34,32.59,67.86,2.49,52.51,5.04,110.73-8.81-51.62,35.54-131.29,56.77-193.26,57.87Z"/>
  <path class="st13" d="M683.7,1711.83c34.67,10.46,123.42,37.33,151.39,49.83-5.79,1.02-11.15,2.04-16.81,3.6l-2.61.69-.23.28.28.29c-11.87,1.34-21.95-2.5-40.69-.14-128.89-35.69-256.53-75.77-382.69-120.17-18.59-32.73,26.83-7.45,49.06-10.11,75.34,18.43,165.89,52.68,242.31,75.73Z"/>
  <path class="st11" d="M299.85,1604.92l-8.46,6.49-6.73-.19c-21.94-13.45-53.57-16.97-70.07-27.02-38.38-23.37-97.36-11.44-105.28-55.32,57.98,20.42,138.75,48.39,197.89,62.76-2.6,4.03-5.11,9.06-7.35,13.28Z"/>
  <path class="st11" d="M441.39,1636.1c-22.23,2.66-67.65-22.61-49.06,10.11-10.4-3.37-20.71-7-30.91-10.9-21.87-8.51-47.29-18.58-70.04-23.9l8.46-6.49c2.24-4.22,4.75-9.25,7.35-13.28,14.61,6.16,38.63,13.7,54.28,18.23,25.88,5.56,55.05,17.08,79.9,26.23Z"/>
  <path class="st7" d="M299.85,1604.92c2.24-4.22,4.75-9.25,7.35-13.28,14.61,6.16,38.63,13.7,54.28,18.23-34.38-.35-30.66,7.46-61.64-4.95Z"/>
  <path class="st4" d="M1704.69,756.57c-8.19-19.86-12.14-28.04-22.89-46.74,19.57-13.55,30.11,2.24,38.49,21.37-16.84,5.34-13.23,7.39-15.6,25.37Z"/>
  <path class="st5" d="M1470.64,1013.38c-2.31-30.76-3.22-41.89,2.81-70.95.86,25.64,1.1,45.64-2.81,70.95Z"/>
  <path class="st6" d="M1936.91,676.97c-.93-9.6-2.07-11.04,2.12-18.66,2.23,8.94,3.26,11.08-2.12,18.66Z"/>
  <path class="st6" d="M1572.22,391.62c9.26-11.49,12.97-16.76,25.11-25.16-9.47,12.58-12.59,15.37-25.11,25.16Z"/>
  <path class="st9" d="M889.62,179.54c-6.14,5.4-10.19,8.54-16.73,13.49l8.5-15.91,8.23,2.42Z"/>
  <path class="st0" d="M778.77,1442.95c53.93,17.27,117.94,30.51,168.52,54.82,3.85,8.82,6.59,14.42,5.72,24.16-31.36,9.97-66.81,6.62-83.54,41.44-3.04,6.34-2.4,11.78-.31,18.48,2.17,6.97,7.53,14.6,11.22,20.95l-.84,9c-15.61,9.82-36.25,12.52-42.22,32.48-8.27,27.64,6.97,63.92,22.31,86.69,6.71,9.93,13.5,19.8,20.39,29.61l-2.05,4.83-2.44.46c-191.21-69.76-389.47-126.27-583.63-187.75-57-18.05-115.36-34.07-171.58-54.31-1.26-17.26-6.57-37.95,2.48-52.93l6.74-1.87c16.99-4.82,32.54-8.07,39.93-26.48,6.95-17.32,2.43-43.67.72-61.75,17.58-6.9,42.72-5.47,53.26-23.96,11.95-20.97,8.2-51.46,10.52-74.72,3.18-1.17,6.52-2.95,9.93-2.98,176.79,58.76,357.33,106.98,534.87,163.83Z"/>
  <path class="st2" d="M1034.03,1659.49c-5.01-1.35-10-2.53-15.04-3.77-14.71-3.62-29.4-8.46-43.73-13.36-3.11-1.06-6.26-2.01-9.39-3.01-3.05-.91-6.06-1.96-9.05-3.06-26.45-9.79-61.94-18.04-75.55-45.81-3.78-7.72-4.99-16.31-1.49-24.42,5.41-12.54,19.77-22.45,32.3-26.86,15.93-5.6,30.66-5.7,47.33-6.33,13.07,54.92,37.4,86.08,74.62,126.62Z"/>
  <path class="st9" d="M1797.82,728.85c-6.72,5.24-10.33,8.73-16.42,14.56l-2.17-10.57c4.44-3.77,8.97-8.03,13.32-11.95l5.27,7.96Z"/>
</svg>