<?xml version="1.0" encoding="UTF-8"?>
<svg id="Layer_1" xmlns="http://www.w3.org/2000/svg" version="1.1" viewBox="0 0 2048 2048">
  <!-- Generator: Adobe Illustrator 30.3.0, SVG Export Plug-In . SVG Version: 2.1.3 Build 182)  -->
  <defs>
    <style>
      .st0 {
        fill: #fb6529;
      }

      .st1 {
        fill: #7c7c7c;
      }

      .st2 {
        fill: #bdac94;
      }

      .st3 {
        fill: #17120d;
      }

      .st4 {
        fill: #c1c1c1;
      }

      .st5 {
        fill: #dbdbdb;
        stroke-width: 4px;
      }

      .st5, .st6 {
        stroke: #000;
        stroke-miterlimit: 10;
      }

      .st7 {
        fill: #adb3a7;
      }

      .st6 {
        fill: #ededed;
        stroke-width: 5px;
      }

      .st8 {
        fill: #2a1e11;
      }

      .st9 {
        fill: #81564a;
      }

      .st10 {
        fill: #040303;
      }

      .st11 {
        fill: #040a0a;
      }

      .st12 {
        fill: #b2b2b2;
      }

      .st13 {
        fill: #141513;
      }
    </style>
  </defs>
  <circle class="st0" cx="1024" cy="998.8" r="758.04"/>
  <path class="st4" d="M1350.14,1750.05c3.66-31.63-.23-47.71,18.94-70.68,9.19-11.64,7.18-5.36,7.96-18.81-27.08-29.86-128.5,26.26-171.68,13.31-10.7-7.99-107.48,5.65-123.31,7.71-1.04-35.78-.44-73.42-.43-109.36-2.35-.79-7.48-1.76-9.1-4.22,1.59-15.42-14.45-85.67,5.31-88.91l5.71-1.04c3.14-47.61-1.51-93.91-.64-141.2,4.5-243.43,28.06-482.81,32.81-726.61l-117.2,4.44-62.5,1.16c2.2,79.82,3.69,159.65,4.45,239.5.27,31.58-.1,135.05,5.13,164.49,3.28,7.04,13.65,48.85,13.65,48.84,25.14,14.02,28.22-5.54,34.07-10.57,2.36.17,1.57-.35,2.71.86,6.91,33.11-5.28,84.89-1.79,119.33,3.37,33.23-6.4,45.37-7.2,75.56-1.91-4.07-.29-13.27-4.52-12.84-17.21,1.76-7.21-11.22-9.91-16-5.36-9.51-7.63-59.78-3.97-65.02,1.49,1.89,3.07,4.13,5.08,5.57,7.97-.83,9.35-16.84,5.94-22.73-2.79-4.82,4.16-17.11-1.57-22.37-7-7.76-16.59-2.48-16.84-14.89-3.58,3.27-4.48,16.49-11.12,26.97-2.59,19.88-.1,123.62.31,147.05,2.31,129.22,6.97,258.39,13.99,387.45-21.44,16.56-103.27,3.5-132.55.69-14.42-123.21-16.56-242.88-24.8-366.54-15.23-228.83-40.27-458.92-43.38-688.15-49.14-2.49-104.63-14.09-155.17-20.58,17.43,76.36,21.56,152.3,31.36,229,22.48,176.01,40.49,354.24,51.71,531.21,2.86,45.17,28.6,253.51,19.55,287.32-15.73,2.36-64.9-11.47-76.61-20.92-36.14-29.16-23.42-99.88-30.33-141.6-12.61-76.12-17.42-153.15-27.02-229.55l-58.12-466.19c-7.19-62.61-20.35-158.24-22.34-219.6l-1.44-3.24-5.39-9.47c-18.56-9.34-22.36-9.48-43.2-13.63,21.64,66.46,30.13,230.06,40.85,307.05,32.38,232.5,49.25,468.58,81.32,701.27,2.15,15.61,8.88,27.06,11.18,42.3l-6.23,6.49c-21.26-5.79-26.44-15.46-35.94-33.65-8.9,57.27-6.34,134.58-5.47,193.99,55.73,23.01,128.31,57.68,184.62,70.95,192.45,45.33,443.98,64.87,627.7-20.76l4.19-2.03,1.17-18.24c-6.49-7.35-1.25-23.41.07-33.11ZM671.49,700.85c-2.71,2-6.76,1.21-9.77,1.31-.39.31-.78.6-1.16.91-2.09,1.7-3.59,3.58-6.19,4.15l.23-.14c-.45-1.93-.5-1.18.47-3.74,2.14-5.69,1.68-3.09,2.52-7.09l1.4-6.81c1.97,1.55,3.9,3.15,5.91,4.66,1.93,1.46,4.96,2.99,6.42,5.11.53.77.35.92.16,1.64ZM691.25,893l-1.99-4.4c-5.11-11.06-9.94-21.96-6.88-34.38.37-1.5.9-2.97,1.32-4.47l2.38-8.73c9.92,18.44,10.77,32.41,5.17,51.98ZM707.3,668.84c-5.01-7.58-.91-18.81.96-26.56,2.27,1.55,4.6,3.03,6.78,4.69,10.72,8.15,11.8,24.47,12.9,36.54-6.46-3.88-16.33-8.15-20.64-14.68ZM776.04,1587.87c-1.16,2.52-4.8,3.53-6.88,4.5-1.76-5.32-2.55-9.26-2.88-14.88-.22-3.74-.04-7.57-.77-11.26-.47-2.37-1.64-4.21-3.86-5.35-1.46-.75-3.04-1.28-4.46-2.11-1.08-1.81-1.15-1.5-1.37-3.76-.63-6.46-1.43-10.97-4.04-16.92-5.74-13.1-1.22-60.95,2.99-73.72.64-1.93,1.44-3.83,1.92-5.81l1.81-7.77c2.98,3.22,2.45,6.89,2.44,11.15,0,10.03,1.13,19.12,2.15,29.1.59,5.75.74,11.21,2.08,16.81,1.12,4.68,2.69,9.4,3.1,14.24.46,5.4.69,10.57,1.79,15.89,1.26,6.08,2.73,11.22,2.89,17.43.17,6.71-.47,13.43,1.43,19.94,1.1,3.78,3.47,8.53,1.64,12.5Z"/>
  <path class="st1" d="M763.7,613.04c3.11,229.23,28.14,459.32,43.38,688.15,8.23,123.66,10.38,243.33,24.8,366.54,29.28,2.82,111.11,15.87,132.55-.69-7.02-129.05-11.68-258.23-13.99-387.45-.41-23.43-2.9-127.17-.31-147.05-6.36-44.09-6.68-66.97-4.52-112.71-5.23-29.44-4.87-132.91-5.13-164.49-.76-79.85-2.24-159.68-4.45-239.5l62.5-1.16c-39.73-4.21-181.3-.84-234.82-1.64Z"/>
  <path class="st1" d="M519.06,781.72l58.12,466.19c9.6,76.41,14.41,153.43,27.02,229.55,6.91,41.72-5.81,112.44,30.33,141.6,11.72,9.45,60.88,23.29,76.61,20.92,9.06-33.81-16.68-242.15-19.55-287.32-11.22-176.97-29.23-355.21-51.71-531.21-9.8-76.7-13.93-152.63-31.36-229-30.14-4.72-85.43-16.89-111.81-30.33,1.99,61.36,15.15,156.99,22.34,219.6Z"/>
  <path class="st1" d="M573.81,1592.9l6.23-6.49c-2.3-15.24-9.03-26.7-11.18-42.3-32.07-232.68-48.94-468.77-81.32-701.27-10.73-76.99-19.21-240.59-40.85-307.05l-.45-5.62c-10.47-8.82-4.41-5.74-20.05-6.09-5.88,88.03,27.6,256.45,36.28,345.76,22.24,228.9,55.65,460.73,75.41,689.41,9.51,18.19,14.68,27.86,35.94,33.65Z"/>
  <path class="st4" d="M950.12,1132.54c6.64-10.48,7.54-23.7,11.12-26.97.25,12.42,9.83,7.13,16.84,14.89,5.73,5.26-1.22,17.55,1.57,22.37,3.42,5.89,2.04,21.9-5.94,22.73-2.01-1.44-3.59-3.68-5.08-5.57-3.66,5.24-1.39,55.51,3.97,65.02,2.69,4.78-7.3,17.75,9.91,16,4.23-.43,2.6,8.77,4.52,12.84.8-30.19,10.58-42.33,7.2-75.56-3.49-34.44,8.69-86.22,1.79-119.33-1.14-1.21-.34-.69-2.71-.86-5.85,5.03-8.93,24.59-34.07,10.57,0,0-10.36-41.81-13.65-48.84-2.16,45.74-1.83,68.61,4.52,112.71Z"/>
  <path class="st4" d="M1083.54,1478.05l-5.71,1.04c-19.76,3.24-3.72,73.49-5.31,88.91,1.62,2.46,6.75,3.43,9.1,4.22.89-14.1,3.06-81.08,1.92-94.17Z"/>
  <path class="st4" d="M772.97,1555.42c-.16-6.21-1.63-11.35-2.89-17.43-1.1-5.32-1.33-10.49-1.79-15.89-.41-4.84-1.98-9.56-3.1-14.24-1.34-5.61-1.49-11.07-2.08-16.81-1.02-9.98-2.16-19.08-2.15-29.1,0-4.26.54-7.94-2.44-11.15l-1.81,7.77c-.47,1.98-1.27,3.88-1.92,5.81-4.22,12.76-8.73,60.62-2.99,73.72,2.6,5.94,3.41,10.45,4.04,16.92.22,2.26.29,1.96,1.37,3.76,1.42.83,3,1.35,4.46,2.11,2.22,1.14,3.38,2.97,3.86,5.35.73,3.69.55,7.52.77,11.26.33,5.62,1.12,9.56,2.88,14.88,2.08-.97,5.72-1.98,6.88-4.5,1.83-3.97-.55-8.72-1.64-12.5-1.89-6.51-1.26-13.23-1.43-19.94Z"/>
  <path class="st4" d="M715.04,646.98c-2.19-1.67-4.51-3.15-6.78-4.69-1.87,7.74-5.97,18.98-.96,26.56,4.31,6.53,14.18,10.8,20.64,14.68-1.1-12.07-2.18-28.39-12.9-36.54Z"/>
  <path class="st7" d="M683.71,849.76c-.42,1.49-.95,2.96-1.32,4.47-3.06,12.42,1.77,23.32,6.88,34.38l1.99,4.4c5.6-19.56,4.76-33.54-5.17-51.98l-2.38,8.73Z"/>
  <path class="st4" d="M664.9,694.1c-2.01-1.51-3.94-3.11-5.91-4.66l-1.4,6.81c-.85,4-.38,1.4-2.52,7.09-.97,2.56-.92,1.81-.47,3.74l-.23.14c2.6-.56,4.09-2.44,6.19-4.15.38-.31.77-.6,1.16-.91,3.02-.11,7.06.69,9.77-1.31.19-.72.37-.87-.16-1.64-1.46-2.12-4.49-3.65-6.42-5.11Z"/>
  <path class="st10" d="M1050.72,574.35c-34.78,1.7-72.77-2.21-105.83.46-148,11.95-295.64,9.94-440.61-25.36-2.91-.71-7.74,7.53-9.01,9.44l1.44,3.24c26.38,13.44,81.67,25.61,111.81,30.33,50.55,6.49,106.03,18.1,155.17,20.58,53.52.8,195.09-2.57,234.82,1.64l117.2-4.44c59.23.53,107.23,2.87,166.31-3.94,33.01-1.69,70.25-19.51,81.53,20.89l2.32.6,1.98-22.04,5.71,5.69c5.35,1.1,22.06,6.29,25.95,6.39l1.14-.92c-.53-3.29.03-1.9-1.38-4.29l2.85-4.68c6.73-1.3,8.39,6.63,11.49,11.33,3.46-2.47,6.61-10.66,11.71-10.06,2.92-1.54,4.64-2.22,7.81-.99,2.51,4.42,2.82,20.72,1.78,25.62-.63.33-4.48,2.74-5.24,3.48,4.79,12.36,9.18,41.1-3.11,49.34-11.23-4.94-4.12-29.46-5.56-44.28,0,0,0,0,0,0-3.83,7.44-7.79,14.81-11.89,22.11-.99,5.69-.08,7.69,1,13.76-2.36,46.26-4.56,92.19-8.44,138.35-2.1,24.96-17.82,100.75-10.98,119.67l10.46,11.31-37.17,343.01c-6.62,66.37-10.22,147.61-18.71,211.28,3.44,11.23,3.71,24.71,9.82,32.66l2.76,14.91c2.07,11.41,1.71,15.3,1.38,26.72,11.38,18.14,14.02,16.56,34.13,20.72l9.37,12.57c8.26-38.66,13.69-128.79,18.04-170.96l-7.32.48c-18.73,2.95-1.64-60.3,3.42-65.63l1.84.1,2.5,5.62c-5.94,16.29-9.47,19.07,2.47,28.89,17.8-56.09,27.56-233.46,37.28-299.67,7.67-52.29,19.28-117.79,25.61-169.56l-5.84-2.17c-12.19,3.71-8.94-5.76-8.21-16.45l.09-7.33c-22.18-1.49-27.58,12.15-34.73,9.83-5.99-9.8,2.44-35.29,5.23-44.56-4.16-8.6,8.47-52.11,14.08-53.07,5.94,5.16-.12,18.85,9.03,19.52,9.14-4.65,5.89-20.18,11.8-27.48,2.54-3.14,3.66,2.88,11.48-.4l2.3-5.41c-26.44-18.07,7.07-21.32-20.04-26.73-3.9-.78-5.34-34-11.24-40.08-5.56-5.74-.79-11.43.92-16.37-1.88-17.75-11.78-12.11-12.49-30.85-.74-19.6.9-41.43,3.93-60.19,2.41-15.01-4.66-31.45,20.74-29.81,14.55.94,12.39,29.51,28.32,26.49,13.11-2.31,15.94-11.14,14.13-22.56,1.47-2.66,7.12-3.49,9.54-4.26,10.45-21.7,1.45-34.64,24.87-53.94,12.4,1.17,7.44-1.61,16.05,6.57-1.09,2.47-2.23,4.91-3.27,7.4-19.06,45.48-90.02,594.08-85.25,639.9,1.84-.31,8.53-.59,9.4-2.64,5.11-12.12,8.34-4.42,14.74-5.9.59-4.06-1.13-7.6-2.36-11.47,7.54-5.4,10.02-13.14,12.94-21.48,9.35-11.45,28.36-192.46,22.76-212.55l-.36,17.94-4.41,1.53c-9.4-27.33,16.49-59.88,21.3-86.9,14.97-84.22,18.59-166.63,26.57-250.36l-.09,15.77c9.65-38.56,11.63-80.69,20.03-119.81,2.85-13.28,18.46-14.99,33.93-20.97l-.52-14.52c-190.93,44.02-385.5,70.46-581.25,78.96ZM1435.95,1106.74c.85.94.4,1.27.14,2.55-1.65,1.22-1.05,1.12-3.06,1.34-.6.06-1.21.02-1.8.1-1.7.22-1.28.04-2.09,1.16.13.55.18,1.14.41,1.65.43.99,1.09,1.87,1.57,2.83,1.3,2.66,1.57,7.32-.18,9.81-1.57,2.24-4.7,2.31-7.18,2.44-4.86.25-7.28-.45-11.08,1.89-1.98,1.22-3.95,2.45-5.94,3.64.15.54.28,1.08.44,1.62,1.31,4.49,4.11,10.63,1.02,15.2-.94,1.4-1.91,1.69-3.49,1.86-2.79-1.18-3.78-3.56-5.22-6.12-.75-1.35-1.48-2.72-2.21-4.08l-.24.68-.34-.09c-1.53-2.28-1.53-2.16-3.01-5.03-2.64-5.09-2.9-11.73-.58-17.01,2.54-5.78,1.42-2.18,3.25-7.47,2.91-8.37,5.69-14.26,9.91-22,2.27,1.4,4.45,2.97,7.05,3.72,7.05,2.04,17.71,5.85,22.63,11.3ZM1547.72,862.95c-.35,1.34-.78,2.66-1.13,3.99l-1.96,7.78c-1.61-.08-3.55.16-4.78-1.15-1.67-1.8-1.7-5.5-1.57-7.77.07-1.15.23-2.29.3-3.44.15-2.63.22-5.27.34-7.9,1.28-.37,3.98-1.54,5.87-1.44.97.04,2.03.55,2.56,1.38,1.65,2.55,1.06,5.8.36,8.55ZM1591.91,536.93c-1.9,1.1-4.91,1.48-6.14,3.67-.85,1.5.38,5.94.77,7.4,3.11,11.62,2.22,15.01-1.58,26.51-.69-.88-1.36-1.78-2.06-2.65-2.24-2.75-6.67-7.13-7.62-11.03-.37-1.52-.14-2.78.68-4.1,1.48-2.37,2.17-2.57,2.77-4.84.96-3.62-1.58-7.97-3.36-10.9-.98-1.62-2.52-3.12-3.04-4.98-.74-2.64,1.14-5.68,2.51-7.74.42-.64.9-1.24,1.32-1.89,1.15-1.75,2.25-3.53,3.38-5.3,1.1.45,2.2.91,3.31,1.34,2.45.94,5.74,1.82,8.02,3.46,2.15,1.55,3.16,4.91,3.06,7.45-.07,1.64-.57,2.75-2.01,3.58Z"/>
  <path class="st1" d="M1279.28,711.41c2.46-34.54,2.48-70.45,2.74-105.12-59.08,6.81-107.08,4.47-166.31,3.94-4.75,243.8-28.31,483.18-32.81,726.61-.87,47.29,3.78,93.59.64,141.2,1.14,13.1-1.03,80.07-1.92,94.17,0,35.94-.61,73.58.43,109.36,15.83-2.06,112.6-15.7,123.31-7.71l15.29-11.38c16.05-46.45,6.61-128.14,12.47-179.19,29.46-256.89,27.82-514.39,46.17-771.89Z"/>
  <path class="st4" d="M1345.28,1501.85c8.49-63.67,12.08-144.9,18.71-211.28l37.17-343.01-10.46-11.31c-6.84-18.92,8.87-94.7,10.98-119.67,3.89-46.16,6.08-92.09,8.44-138.35-1.02.2-2.04.43-3.07.62-1.65.29-5.73.43-6.96,2.18-.93,1.3-1.08,2.73-1,4.29.07,1.22.3,2.42.31,3.64,0,2.05-1.32,3.64-2.95,4.75-2.85,1.95-6.15,2.59-9.45,1.47-3.4-1.15-5.87-4.22-7.39-7.35-1.32-2.73-2.36-5.61-3.97-8.18-3.64-1.4-3.97-10.19.58-10.23,10-15.71-1.46-32.87-2.65-58.01l-5.71-5.69-1.98,22.04-2.32-.6c-11.29-40.41-48.53-22.59-81.53-20.89-.25,34.67-.28,70.58-2.74,105.12-18.35,257.5-16.71,515-46.17,771.89-5.85,51.05,3.58,132.74-12.47,179.19,33.67-9.19,67.44-17.99,101.32-26.41,4.44-4.11,8.94-8.16,13.5-12.15-5.22-12.09,6.15-103.26,9.81-122.09ZM1301.68,1510.46c.22,1.31.43,2.62.65,3.92-1.16,6.43-14.4,60.28-19.26,61.42-6.72-16.84-4.19-9.05-18-10.1l-1.15-1.66c4.5-20.85,11.4,3.69,8.87-47.66l4.96-7.06c2.29-3.08,4.58-6.16,6.88-9.24,2.09-3.01,4.17-6.01,6.25-9.02-.68-.32,10.67-14.7,12.22-10.49,3.46,9.42-8.88,20.38-1.41,29.89ZM1303.17,1432.98c-17.2,1.92-6.19-27.74-22.22-3.87l-1.55.24c-4.64-3.65-3.03-8.02-2.01-13.24.7-18.43.88-94.54,12.41-108.76l3.66.88c15.29,22.46-8.51,46.21-3.3,80.69,21.49,3.26,27.54,33.89,13,44.06ZM1300.58,1236.7c3.52,11.14,6.11,24.9,1.16,35.77-2.08-.95-4.95-1.62-5.94-4.01-3.71-8.95,1.85-23.35,4.78-31.76ZM1315.14,1118.89c-2.1,1.96-5.88,2.97-8.72,2.85-3.33-.14-5.66-2.94-7.48-5.41-.55-.74-1.05-1.51-1.57-2.26-8,4.67-9.88,4.31-19.13,3.48-4.25-5.66-5.63-7.2-5.74-14.45.9-.47,1.22-.75,2.13-.94,6.12-1.27,13.18,1.14,18.21,4.55,1.33.9,2.62,1.85,3.93,2.77,1.9-.04,1.82.19,3.71-1.07,3.15-2.1,6.41-7.19,7.33-10.74.15-.58.2-1.19.33-1.77.39-1.74.83-3.47,1.24-5.21,3.3,6.39,7.67,13.67,8.05,21.05.13,2.57-.33,5.31-2.3,7.16Z"/>
  <path class="st3" d="M1335.47,1623.94c15.68-11.91,17.72-68.84,19.63-89.43-6.11-7.94-6.38-21.42-9.82-32.66-3.66,18.83-15.03,110-9.81,122.09Z"/>
  <path class="st10" d="M1357.87,1549.42l-2.76-14.91c-1.91,20.6-3.96,77.52-19.63,89.43-4.56,3.99-9.06,8.04-13.5,12.15l5.68-1.05c60.15-10.6,6.57-22.56,31.6-58.89.33-11.42.68-15.31-1.38-26.72Z"/>
  <path class="st4" d="M1287.08,1535.13c-5.97.8-11.59-13.84-14.3-18.76,2.53,51.35-4.37,26.8-8.87,47.66l1.15,1.66c13.81,1.05,11.28-6.74,18,10.1,4.86-1.14,18.1-54.99,19.26-61.42-22.28,12.35-8.85,12.72-15.24,20.75Z"/>
  <path class="st4" d="M1303.09,1480.57c-1.55-4.21-12.9,10.17-12.22,10.49-2.08,3.01-4.16,6.01-6.25,9.02-2.29,3.08-4.58,6.16-6.88,9.24l-4.96,7.06c2.71,4.92,8.33,19.56,14.3,18.76,6.39-8.03-7.04-8.4,15.24-20.75-.22-1.3-.43-2.61-.65-3.92-7.47-9.51,4.88-20.47,1.41-29.89Z"/>
  <path class="st4" d="M1293.48,1308.23l-3.66-.88c-11.53,14.22-11.71,90.33-12.41,108.76,5.89-10.75,7.25-16.76,12.77-27.19-5.21-34.49,18.59-58.23,3.3-80.69Z"/>
  <path class="st4" d="M1290.18,1388.93c-5.52,10.42-6.88,16.44-12.77,27.19-1.02,5.22-2.64,9.59,2.01,13.24l1.55-.24c16.03-23.87,5.02,5.79,22.22,3.87,14.54-10.17,8.5-40.8-13-44.06Z"/>
  <path class="st4" d="M1308.16,1095.89c-.13.59-.18,1.19-.33,1.77-.92,3.55-4.19,8.64-7.33,10.74-1.89,1.26-1.81,1.03-3.71,1.07-1.31-.92-2.61-1.87-3.93-2.77-5.03-3.41-12.09-5.82-18.21-4.55-.91.19-1.23.47-2.13.94.11,7.25,1.49,8.79,5.74,14.45,9.25.83,11.13,1.19,19.13-3.48.52.75,1.02,1.52,1.57,2.26,1.82,2.48,4.16,5.28,7.48,5.41,2.84.12,6.62-.89,8.72-2.85,1.97-1.85,2.44-4.59,2.3-7.16-.37-7.38-4.75-14.66-8.05-21.05-.41,1.74-.84,3.47-1.24,5.21Z"/>
  <path class="st4" d="M1301.74,1272.47c4.95-10.86,2.36-24.63-1.16-35.77-2.93,8.41-8.49,22.81-4.78,31.76.99,2.39,3.86,3.06,5.94,4.01Z"/>
  <path class="st4" d="M1478.05,1206.77c-4.77-45.82,66.2-594.42,85.25-639.9,1.04-2.49,2.18-4.93,3.27-7.4-8.62-8.18-3.65-5.4-16.05-6.57-23.42,19.31-14.42,32.24-24.87,53.94-.04,25.92-15.01,190.14-22.76,208.33,1.22,32.34-7.97,92.8-16.3,123.54-6.34,51.78-17.94,117.27-25.61,169.56-9.72,66.21-19.47,243.58-37.28,299.67l-.06,2.12c.03,13.57.34,15.17-2.85,28.42-4.34,42.17-9.77,132.3-18.04,170.96,6.22-1.03,20.15-3.3,21.91-10.2,10.14-39.7,13.98-233.28,35.35-259.1,5.36-31.58,5.7-64.65,11.35-97.57,4.96-16.52,9.32-18.69,6.69-35.8Z"/>
  <path class="st13" d="M1502.9,815.17c7.75-18.19,22.71-182.41,22.76-208.33-2.43.77-8.07,1.6-9.54,4.26,1.81,11.42-1.02,20.25-14.13,22.56-15.93,3.02-13.77-25.55-28.32-26.49-25.41-1.65-18.33,14.79-20.74,29.81-3.02,18.76-4.67,40.59-3.93,60.19.71,18.74,10.61,13.1,12.49,30.85-1.71,4.94-6.49,10.63-.92,16.37,5.9,6.08,7.34,39.3,11.24,40.08,27.11,5.41-6.4,8.66,20.04,26.73l8.42,4.78,2.64-.82Z"/>
  <path class="st3" d="M1502.9,815.17l-2.64.82c-4.67,10.88-4.62,27.94-9.67,32.59-1.45.36-.76.45-2.08-.28-5.06-9.95-1.23-21.11,1.02-31.68-7.82,3.28-8.94-2.74-11.48.4-5.91,7.3-2.67,22.83-11.8,27.48-9.15-.67-3.1-14.37-9.03-19.52-5.62.95-18.25,44.46-14.08,53.07-2.78,9.28-11.21,34.76-5.23,44.56,7.14,2.32,12.55-11.32,34.73-9.83,4.76-11.2,4.09-32.88,10.94-35.92,7.89,3.8-2.64,49.41-2.82,59.7l5.84,2.17c8.34-30.74,17.52-91.2,16.3-123.54Z"/>
  <path class="st13" d="M1483.58,876.84c-6.84,3.04-6.18,24.73-10.94,35.92l-.09,7.33c-.73,10.69-3.97,20.16,8.21,16.45.19-10.29,10.71-55.9,2.82-59.7Z"/>
  <path class="st13" d="M1488.52,848.29c1.32.74.63.65,2.08.28,5.04-4.65,5-21.71,9.67-32.59l-8.42-4.78-2.3,5.41c-2.26,10.58-6.09,21.74-1.02,31.68Z"/>
  <path class="st3" d="M1376.22,669.44c-4.55.04-4.22,8.83-.58,10.23,1.61,2.57,2.65,5.45,3.97,8.18,1.51,3.13,3.99,6.2,7.39,7.35,3.3,1.11,6.61.47,9.45-1.47,1.62-1.11,2.95-2.7,2.95-4.75,0-1.22-.24-2.43-.31-3.64-.08-1.55.07-2.99,1-4.29,1.24-1.75,5.31-1.89,6.96-2.18,1.03-.18,2.05-.41,3.07-.62-1.07-6.07-1.99-8.06-1-13.76-1.68-2.2-8.11-8.77-5.9-13.82.73-1.67-2.95-38.33,12.85-18.87-.54-.67,4.57,9.86,4.94,10.58,0,0,0,0,0,0,.03.07.03.06,0,.01,1.44,14.82-5.67,39.34,5.56,44.28,12.29-8.25,7.9-36.98,3.11-49.34.76-.74,4.6-3.15,5.24-3.48,1.04-4.9.73-21.2-1.78-25.62-3.17-1.22-4.89-.55-7.81.99-5.09-.6-8.25,7.59-11.71,10.06-3.1-4.7-4.76-12.63-11.49-11.33l-2.85,4.68c1.41,2.39.85.99,1.38,4.29l-1.14.92c-3.89-.11-20.6-5.29-25.95-6.39,1.2,25.14,12.65,42.3,2.65,58.01Z"/>
  <polygon class="st2" points="1421.01 642.38 1421.01 642.39 1421.01 642.38 1421.01 642.38"/>
  <path class="st2" d="M1421.01,642.38s0,0,0,.01c.03.05.03.06,0-.01Z"/>
  <path class="st13" d="M1416.07,631.8c-15.81-19.46-12.12,17.2-12.85,18.87-2.2,5.05,4.22,11.61,5.9,13.82,4.09-7.3,8.06-14.66,11.89-22.11-.37-.72-5.48-11.25-4.94-10.58Z"/>
  <path class="st10" d="M1423.65,1410.06l.06-2.12c-11.93-9.82-8.41-12.59-2.47-28.89l-2.5-5.62-1.84-.1c-5.06,5.33-22.15,68.58-3.42,65.63l-1.23-7.04c-2.54-14.08-1.26-15.76,11.4-21.87Z"/>
  <path class="st3" d="M1423.65,1410.06c-12.66,6.1-13.94,7.78-11.4,21.87l1.23,7.04,7.32-.48c3.19-13.25,2.88-14.84,2.85-28.42Z"/>
  <path class="st13" d="M1406.27,1091.72c-4.22,7.74-7,13.63-9.91,22-1.84,5.29-.71,1.69-3.25,7.47-2.32,5.28-2.05,11.92.58,17.01,1.49,2.87,1.48,2.75,3.01,5.03l.34.09.24-.68c.74,1.36,1.46,2.73,2.21,4.08,1.44,2.56,2.43,4.95,5.22,6.12,1.58-.18,2.54-.47,3.49-1.86,3.09-4.57.29-10.71-1.02-15.2-.16-.54-.3-1.08-.44-1.62,1.99-1.19,3.96-2.43,5.94-3.64,3.8-2.34,6.22-1.63,11.08-1.89,2.48-.13,5.61-.2,7.18-2.44,1.75-2.5,1.48-7.15.18-9.81-.47-.97-1.13-1.85-1.57-2.83-.23-.52-.27-1.1-.41-1.65.81-1.13.39-.94,2.09-1.16.59-.08,1.2-.04,1.8-.1,2.01-.22,1.42-.12,3.06-1.34.26-1.27.71-1.61-.14-2.55-4.92-5.45-15.58-9.26-22.63-11.3-2.6-.75-4.78-2.32-7.05-3.72Z"/>
  <path class="st13" d="M1582.84,522.43c-1.11-.43-2.2-.89-3.31-1.34-1.13,1.77-2.24,3.55-3.38,5.3-.42.64-.9,1.25-1.32,1.89-1.37,2.06-3.24,5.11-2.51,7.74.52,1.86,2.06,3.35,3.04,4.98,1.78,2.92,4.32,7.28,3.36,10.9-.6,2.27-1.29,2.47-2.77,4.84-.83,1.32-1.05,2.58-.68,4.1.95,3.9,5.39,8.28,7.62,11.03.71.87,1.38,1.77,2.06,2.65,3.8-11.5,4.69-14.89,1.58-26.51-.39-1.46-1.61-5.9-.77-7.4,1.23-2.19,4.23-2.58,6.14-3.67,1.44-.83,1.95-1.95,2.01-3.58.1-2.55-.91-5.9-3.06-7.45-2.28-1.64-5.57-2.52-8.02-3.46Z"/>
  <path class="st9" d="M1544.8,853.02c-1.89-.1-4.59,1.06-5.87,1.44-.12,2.64-.19,5.27-.34,7.9-.07,1.15-.23,2.29-.3,3.44-.13,2.27-.11,5.97,1.57,7.77,1.22,1.31,3.17,1.07,4.78,1.15l1.96-7.78c.35-1.34.78-2.65,1.13-3.99.71-2.75,1.29-6.01-.36-8.55-.54-.83-1.6-1.34-2.56-1.38Z"/>
  <path class="st5" d="M1677.52,465.81c-4.54-.99-41.52,26.07-45.55,29.59-190.93,44.02-385.49,70.45-581.24,78.95-34.78,1.7-72.77-2.2-105.83.46-148,11.95-295.63,9.94-440.61-25.36-2.92-.71-7.74,7.53-9.01,9.44l-5.39-9.47c-18.56-9.34-22.36-9.48-43.2-13.63l-.45-5.62c-10.47-8.82-4.42-5.74-20.05-6.09-34.61,1.15-99.05-35.57-71.25-77.05,46.24-68.98,123.55-105.8,199.6-131.73,5.79-.91,11.56-2.02,17.32-3.07,72.02-21.88,126.5-26.81,199.93-30.96,8.07,33.91,58.63,23.76,62.61,12.58,51.96-8.88,148.94-1.28,205.67-2.75,31.24-.81,141.99-5.85,166.18-2.17,5.38,17.8,43.66,12.17,54.74-.16,108.3,11.65,326.86,8.31,390.07,113.84-18.4-4.36-58.1-5.37-74.9,2.8l2.29,5.84,19.31,2.98c-6.8,9.42-22.54,11.43-25.28,21.21-3.05,10.88-5.06,21.59-15.41,27.9-72.73,44.37-682.32,46.21-800.44,40.91-75.58-3.4-150.2-18.3-225.08-28.15-21.46-2.83-46.93-.42-67.25-7.16-24.61-8.16-48.68-28.93-74.62-30.62,12.99,10.44,57.22,33.67,73.06,36.82,211.28,41.97,417.63,49.05,632.63,40.95,92.3-3.47,195.32,3.55,286.24-7.8,62.95-7.86,251.98-26.69,279.12-80.62,20.54,12.82,20.26,14.17,16.79,38.14Z"/>
  <path class="st11" d="M1576.16,405.41l2.28,5.84,19.31,2.98c-6.8,9.42-22.54,11.43-25.28,21.21-3.05,10.89-5.06,21.59-15.41,27.91-72.73,44.37-682.32,46.21-800.44,40.9-75.58-3.39-150.2-18.29-225.08-28.15-21.46-2.83-46.93-.42-67.25-7.16-24.62-8.16-48.68-28.93-74.62-30.62,12.99,10.44,57.22,33.67,73.06,36.82,211.28,41.96,417.63,49.05,632.63,40.95,92.29-3.47,195.32,3.55,286.24-7.8,62.95-7.86,251.98-26.69,279.12-80.62-3.65-7.24-6.83-17.22-9.67-25.06-18.4-4.37-58.1-5.37-74.9,2.8Z"/>
  <path class="st11" d="M834.4,293.85l.7-39.26c-21.86.84-38.01.5-59.52.57l-3.78,26.12c8.07,33.91,58.63,23.76,62.61,12.58Z"/>
  <path class="st11" d="M1202.17,254.2c1.63,11.54,2.99,23.12,4.08,34.73,5.38,17.8,43.66,12.17,54.74-.16-1.14-11.68-2.41-23.34-3.8-34.99-20.28-.54-34.57-.95-55.02.43Z"/>
  <path class="st12" d="M592.95,337.83c-.22.03-.51.06-.75.1l-.48.36,1.23-.46Z"/>
  <path class="st12" d="M620.77,322.78c1.16-3.21.9-1.85,1.18-4.01l-.21-.13c-1.87.55-.6.1-3.57,1.89-.32,1.75-.76,3.5-.75,5.28l.48.03c1-.99,1.95-2.01,2.88-3.06Z"/>
  <path class="st6" d="M835.09,254.59c13.77-41.97,72.98-48.18,109.77-45.99,43.64,2.59,90.12.58,133.93,2.4,64.64.78,87.12-18.59,123.37,43.2,20.46-1.38,34.74-.96,55.02-.43-4.54-24.88-5.19-71.52-29.87-84.13-49.29-25.18-132.56-28.64-188.84-25.26-119.98,7.22-230.95-34.24-262.9,110.76,21.51-.07,37.67.28,59.52-.57Z"/>
  <path class="st10" d="M1422.91,1737.45c-1.63-12.29,1.97-66.79,13.53-73.99,17.02-8.57,17.67-18.19,33.95-6.8,7.53-64.7-8.87-66.35-6.34-102.57,3.9-55.78,16.86-112.08,20.03-173.35-16.38-20.77-1.3-17.01-5.16-33.15-6.53-2.44-12.89-3.86-18.89-7.45-21.36,25.82-25.21,219.4-35.35,259.1-1.76,6.9-15.69,9.17-21.91,10.2l-9.37-12.57c-20.11-4.17-22.75-2.58-34.13-20.72-25.03,36.34,28.54,48.3-31.6,58.89l-5.68,1.05c-33.87,8.42-67.65,17.22-101.32,26.41l-15.29,11.38c43.18,12.95,144.6-43.17,171.68-13.31-.79,13.45,1.23,7.17-7.96,18.81-3.03,21.36-5.31,53.53-9.51,71.65-2.16,14.16,2.95,29.05-9.49,32.14l-1.17,18.24,7,7.64c29.85-3.93,41.76-6.93,63.85-27.5-10.15-5.03-7.38-3.76-18.93-5.51-20.14-16.92,10.93-32.5,22.08-38.58ZM1459.69,1448.97c1.84-5.66,3.63-11.29,5.34-17,2.42,10.06,2.54,16.88-.33,26.95l-4.08,13.84c-.5-2.15-.97-4.32-1.51-6.46-1.59-6.32-1.43-11.09.59-17.33ZM1417.2,1628.62c4.34-7.35,20.68-10.07,27.94-12.11.46,9.42.91,18.54-.49,27.93-.49,3.25-1.87,6.86-4.87,8.58-2.34,1.34-5.53.06-7.85-.47-2.45-3.09-4.78-6.28-7.58-9.08-2.6-2.6-6.65-5.67-7.78-9.37-.58-1.92-.4-3.75.62-5.47Z"/>
  <path class="st8" d="M1359.57,1751.01c4.2-18.12,6.48-50.29,9.51-71.65-19.17,22.97-15.28,39.06-18.94,70.68l9.43.97Z"/>
  <path class="st10" d="M1350.07,1783.16c12.44-3.1,7.33-17.99,9.49-32.14l-9.43-.97c-1.31,9.71-6.56,25.77-.07,33.11Z"/>
  <path class="st10" d="M1424.37,1643.46c2.8,2.79,5.13,5.98,7.58,9.08,2.32.54,5.51,1.82,7.85.47,3-1.72,4.38-5.33,4.87-8.58,1.4-9.39.94-18.51.49-27.93-7.27,2.04-23.6,4.76-27.94,12.11-1.02,1.72-1.2,3.55-.62,5.47,1.13,3.7,5.18,6.77,7.78,9.37Z"/>
  <path class="st13" d="M1460.61,1472.76l4.08-13.84c2.87-10.07,2.75-16.89.33-26.95-1.71,5.7-3.5,11.34-5.34,17-2.01,6.24-2.18,11.01-.59,17.33.54,2.14,1.01,4.31,1.51,6.46Z"/>
  <path class="st8" d="M1454.2,1761.94c-.51.11-1.02.22-1.53.32-.47,1.85-.93,3.7-1.39,5.55"/>
  <path class="st10" d="M1470.38,1656.66c-16.28-11.4-16.93-1.77-33.95,6.8,3.6,14.19,6.86,80.76-13.53,73.99-11.15,6.08-42.22,21.66-22.08,38.58,11.55,1.75,8.78.47,18.93,5.51,11.44-6.26,19.71-8.34,31.52-13.72.46-1.85.92-3.7,1.39-5.55.51-.11,1.02-.22,1.53-.32"/>
  <path class="st10" d="M1422.91,1737.45c20.39,6.77,17.12-59.8,13.53-73.99-11.56,7.2-15.16,61.7-13.53,73.99Z"/>
  <path class="st11" d="M1478.56,1242.45l-7.2.11c-5.65,32.92-5.98,65.99-11.35,97.57,6.01,3.6,12.37,5.02,18.89,7.45,3.87,16.14-11.21,12.38,5.16,33.15,5.4-35.61,11.65-68.88,16.62-104.98-2.37-13.88-2.85-34.33-22.13-33.31Z"/>
  <path class="st3" d="M1499.83,1186.75c1.23,3.87,2.95,7.41,2.36,11.47-6.4,1.48-9.63-6.21-14.74,5.9-.87,2.05-7.56,2.33-9.4,2.64,2.63,17.1-1.73,19.28-6.69,35.8l7.2-.11c19.28-1.03,19.76,19.43,22.13,33.31,5.17-32.38,11.13-78.43,12.08-110.49-2.91,8.34-5.39,16.08-12.94,21.48Z"/>
  <path class="st11" d="M1632.49,509.91c20.57-7.13,51.59-18.19,45.03-44.1-4.55-.99-41.52,26.07-45.55,29.58l.52,14.52Z"/>
</svg>