<?xml version="1.0" encoding="UTF-8"?>
<svg id="Layer_1" xmlns="http://www.w3.org/2000/svg" version="1.1" viewBox="0 0 2048 2048">
  <!-- Generator: Adobe Illustrator 30.3.0, SVG Export Plug-In . SVG Version: 2.1.3 Build 182)  -->
  <defs>
    <style>
      .st0 {
        fill: #7c7c7c;
      }

      .st1 {
        fill: #bdac94;
      }

      .st2 {
        fill: #17120d;
      }

      .st3 {
        fill: #c1c1c1;
      }

      .st4 {
        fill: #dbdbdb;
        stroke-width: 4px;
      }

      .st4, .st5 {
        stroke: #000;
        stroke-miterlimit: 10;
      }

      .st6 {
        fill: #adb3a7;
      }

      .st5 {
        fill: #ededed;
        stroke-width: 5px;
      }

      .st7 {
        fill: #2a1e11;
      }

      .st8 {
        fill: #81564a;
      }

      .st9 {
        fill: #040303;
      }

      .st10 {
        fill: #028796;
      }

      .st11 {
        fill: #040a0a;
      }

      .st12 {
        fill: #b2b2b2;
      }

      .st13 {
        fill: #141513;
      }
    </style>
  </defs>
  <circle class="st10" cx="1024" cy="1018.87" r="902.8"/>
  <path class="st3" d="M1412.42,1913.57c4.36-37.66-.27-56.82,22.55-84.18,10.95-13.86,8.55-6.38,9.48-22.4-32.25-35.56-153.04,31.28-204.46,15.86-12.75-9.52-128,6.73-146.86,9.18-1.24-42.62-.52-87.44-.52-130.24-2.8-.94-8.91-2.1-10.84-5.02,1.9-18.37-17.21-102.03,6.32-105.89l6.8-1.24c3.74-56.7-1.8-111.84-.76-168.17,5.36-289.91,33.42-575.01,39.07-865.37l-139.58,5.29-74.43,1.38c2.63,95.06,4.39,190.14,5.3,285.24.32,37.61-.12,160.84,6.11,195.9,3.91,8.38,16.26,58.17,16.25,58.17,29.95,16.7,33.61-6.6,40.58-12.59,2.82.21,1.87-.41,3.22,1.03,8.23,39.43-6.29,101.1-2.13,142.12,4.02,39.58-7.62,54.03-8.58,89.99-2.28-4.85-.34-15.81-5.38-15.29-20.49,2.09-8.59-13.36-11.8-19.05-6.38-11.33-9.09-71.19-4.73-77.44,1.78,2.25,3.66,4.92,6.05,6.63,9.49-.99,11.14-20.05,7.07-27.07-3.33-5.74,4.95-20.38-1.88-26.64-8.34-9.24-19.76-2.95-20.06-17.74-4.26,3.9-5.33,19.64-13.24,32.12-3.08,23.68-.12,147.23.37,175.13,2.75,153.9,8.3,307.74,16.66,461.44-25.53,19.72-122.99,4.17-157.86.82-17.17-146.73-19.73-289.26-29.53-436.54-18.14-272.52-47.96-546.56-51.66-819.56-58.53-2.96-124.61-16.78-184.81-24.51,20.75,90.95,25.68,181.38,37.35,272.73,26.77,209.62,48.22,421.88,61.58,632.65,3.41,53.8,34.07,301.93,23.28,342.19-18.73,2.82-77.29-13.66-91.24-24.92-43.04-34.73-27.89-118.95-36.12-168.64-15.02-90.66-20.74-182.39-32.18-273.39l-69.22-555.22c-8.56-74.56-24.23-188.46-26.61-261.53l-1.71-3.86-6.42-11.27c-22.1-11.12-26.63-11.29-51.45-16.24,25.78,79.15,35.88,273.99,48.65,365.68,38.57,276.9,58.66,558.07,96.85,835.18,2.56,18.59,10.57,32.23,13.31,50.38l-7.42,7.73c-25.32-6.9-31.48-18.41-42.81-40.07-10.6,68.2-7.55,160.28-6.51,231.03,66.37,27.4,152.82,68.7,219.87,84.5,229.21,53.99,528.76,77.26,747.57-24.72l4.99-2.42,1.39-21.72c-7.73-8.75-1.48-27.88.08-39.44ZM604.17,664.01c-3.23,2.38-8.05,1.44-11.64,1.56-.46.36-.93.71-1.38,1.08-2.49,2.03-4.27,4.27-7.37,4.94l.27-.16c-.54-2.3-.59-1.4.56-4.45,2.55-6.78,2-3.68,3.01-8.44l1.67-8.12c2.35,1.85,4.65,3.76,7.04,5.55,2.3,1.74,5.91,3.56,7.65,6.09.63.91.42,1.09.19,1.95ZM627.71,892.87l-2.37-5.24c-6.09-13.17-11.83-26.16-8.19-40.95.44-1.79,1.07-3.54,1.57-5.32l2.83-10.4c11.82,21.96,12.82,38.6,6.15,61.9ZM646.82,625.9c-5.96-9.02-1.09-22.41,1.14-31.63,2.71,1.84,5.47,3.6,8.08,5.59,12.76,9.71,14.05,29.14,15.36,43.52-7.7-4.62-19.45-9.71-24.58-17.48ZM728.69,1720.42c-1.38,3-5.72,4.2-8.19,5.36-2.09-6.33-3.04-11.03-3.43-17.73-.26-4.45-.05-9.02-.91-13.41-.56-2.83-1.95-5.01-4.59-6.37-1.74-.9-3.62-1.52-5.31-2.51-1.29-2.15-1.37-1.79-1.63-4.48-.75-7.7-1.71-13.07-4.81-20.15-6.84-15.6-1.46-72.59,3.57-87.79.77-2.3,1.72-4.56,2.28-6.92l2.16-9.25c3.55,3.83,2.92,8.21,2.91,13.28-.01,11.94,1.34,22.77,2.56,34.66.7,6.84.88,13.35,2.47,20.02,1.34,5.58,3.2,11.2,3.69,16.97.55,6.43.82,12.59,2.13,18.92,1.51,7.24,3.25,13.36,3.44,20.76.21,7.99-.55,15.99,1.7,23.75,1.31,4.5,4.14,10.15,1.95,14.89Z"/>
  <path class="st0" d="M713.99,559.44c3.7,273,33.52,547.03,51.66,819.56,9.81,147.27,12.36,289.8,29.53,436.54,34.87,3.35,132.33,18.9,157.86-.82-8.36-153.7-13.91-307.54-16.66-461.44-.49-27.91-3.45-151.45-.37-175.13-7.57-52.51-7.96-79.76-5.39-134.23-6.23-35.06-5.8-158.29-6.11-195.9-.91-95.09-2.67-190.17-5.3-285.24l74.43-1.38c-47.32-5.02-215.92-1-279.66-1.95Z"/>
  <path class="st0" d="M422.63,760.33l69.22,555.22c11.44,91,17.17,182.73,32.18,273.39,8.23,49.68-6.92,133.91,36.12,168.64,13.95,11.26,72.51,27.73,91.24,24.92,10.79-40.26-19.87-288.39-23.28-342.19-13.36-210.77-34.81-423.04-61.58-632.65-11.67-91.34-16.59-181.78-37.35-272.73-35.9-5.62-101.75-20.11-133.16-36.12,2.37,73.07,18.04,186.97,26.61,261.53Z"/>
  <path class="st0" d="M487.84,1726.41l7.42-7.73c-2.74-18.15-10.75-31.8-13.31-50.38-38.19-277.12-58.29-558.28-96.85-835.18-12.78-91.69-22.88-286.53-48.65-365.68l-.53-6.69c-12.47-10.5-5.26-6.83-23.88-7.25-7.01,104.84,32.87,305.42,43.21,411.78,26.49,272.61,66.28,548.71,89.81,821.07,11.32,21.67,17.49,33.17,42.81,40.07Z"/>
  <path class="st3" d="M936.02,1178.14c7.91-12.48,8.98-28.22,13.24-32.12.3,14.79,11.71,8.5,20.06,17.74,6.83,6.27-1.45,20.91,1.88,26.64,4.07,7.02,2.42,26.08-7.07,27.07-2.39-1.71-4.28-4.39-6.05-6.63-4.36,6.25-1.65,66.11,4.73,77.44,3.21,5.69-8.7,21.14,11.8,19.05,5.04-.51,3.1,10.44,5.38,15.29.96-35.95,12.6-50.41,8.58-89.99-4.16-41.01,10.36-102.69,2.13-142.12-1.35-1.44-.41-.82-3.22-1.03-6.97,5.99-10.63,29.29-40.58,12.59,0,0-12.34-49.79-16.25-58.17-2.57,54.47-2.18,81.72,5.39,134.23Z"/>
  <path class="st3" d="M1094.91,1589.63l-6.8,1.24c-23.53,3.86-4.43,87.52-6.32,105.89,1.93,2.93,8.04,4.08,10.84,5.02,1.06-16.8,3.64-96.56,2.29-112.15Z"/>
  <path class="st3" d="M725.03,1681.78c-.2-7.4-1.94-13.51-3.44-20.76-1.32-6.33-1.59-12.5-2.13-18.92-.49-5.77-2.36-11.39-3.69-16.97-1.6-6.68-1.78-13.18-2.47-20.02-1.22-11.89-2.57-22.72-2.56-34.66,0-5.07.64-9.45-2.91-13.28l-2.16,9.25c-.57,2.36-1.52,4.62-2.28,6.92-5.02,15.2-10.4,72.2-3.57,87.79,3.1,7.08,4.06,12.45,4.81,20.15.26,2.69.34,2.33,1.63,4.48,1.7.99,3.57,1.61,5.31,2.51,2.64,1.36,4.03,3.54,4.59,6.37.87,4.4.65,8.96.91,13.41.39,6.69,1.34,11.39,3.43,17.73,2.48-1.16,6.82-2.36,8.19-5.36,2.18-4.73-.65-10.39-1.95-14.89-2.26-7.76-1.5-15.76-1.7-23.75Z"/>
  <path class="st3" d="M656.04,599.86c-2.6-1.99-5.37-3.75-8.08-5.59-2.23,9.22-7.11,22.6-1.14,31.63,5.14,7.77,16.89,12.86,24.58,17.48-1.31-14.38-2.6-33.81-15.36-43.52Z"/>
  <path class="st6" d="M618.72,841.36c-.5,1.78-1.13,3.53-1.57,5.32-3.64,14.79,2.11,27.77,8.19,40.95l2.37,5.24c6.67-23.3,5.66-39.94-6.15-61.9l-2.83,10.4Z"/>
  <path class="st3" d="M596.33,655.98c-2.39-1.8-4.69-3.7-7.04-5.55l-1.67,8.12c-1.01,4.77-.45,1.66-3.01,8.44-1.15,3.05-1.1,2.16-.56,4.45l-.27.16c3.1-.67,4.88-2.91,7.37-4.94.45-.37.92-.72,1.38-1.08,3.59-.13,8.41.82,11.64-1.56.23-.86.44-1.04-.19-1.95-1.74-2.53-5.35-4.35-7.65-6.09Z"/>
  <path class="st9" d="M1055.83,513.36c-41.42,2.02-86.66-2.63-126.03.54-176.26,14.23-352.09,11.83-524.76-30.21-3.47-.84-9.22,8.97-10.72,11.24l1.71,3.86c31.41,16.01,97.26,30.51,133.16,36.12,60.2,7.73,126.28,21.55,184.81,24.51,63.74.96,232.34-3.06,279.66,1.95l139.58-5.29c70.54.63,127.71,3.42,198.07-4.69,39.31-2.02,83.66-23.24,97.1,24.88l2.77.71,2.36-26.25,6.8,6.78c6.38,1.32,26.27,7.49,30.91,7.61l1.36-1.1c-.63-3.92.03-2.26-1.65-5.1l3.39-5.57c8.01-1.55,10,7.89,13.68,13.49,4.12-2.94,7.88-12.7,13.94-11.98,3.48-1.83,5.53-2.64,9.3-1.18,2.99,5.27,3.36,24.68,2.12,30.52-.76.4-5.34,3.27-6.24,4.14,5.71,14.72,10.94,48.94-3.7,58.77-13.37-5.88-4.9-35.09-6.62-52.74,0,0,0,0,0,0-4.56,8.86-9.28,17.64-14.16,26.33-1.18,6.78-.09,9.16,1.19,16.38-2.81,55.09-5.43,109.79-10.05,164.77-2.5,29.73-21.22,119.99-13.07,142.52l12.45,13.47-44.27,408.51c-7.89,79.05-12.17,175.8-22.28,251.62,4.09,13.38,4.42,29.43,11.7,38.89l3.29,17.76c2.46,13.59,2.04,18.22,1.65,31.83,13.56,21.61,16.7,19.72,40.65,24.68l11.16,14.97c9.84-46.04,16.31-153.39,21.48-203.61l-8.71.58c-22.31,3.51-1.95-71.82,4.08-78.16l2.19.12,2.98,6.69c-7.08,19.41-11.27,22.71,2.94,34.4,21.2-66.8,32.83-278.05,44.4-356.89,9.14-62.28,22.96-140.28,30.51-201.94l-6.95-2.58c-14.51,4.42-10.65-6.86-9.78-19.59l.11-8.73c-26.41-1.77-32.85,14.47-41.36,11.71-7.13-11.68,2.91-42.02,6.22-53.07-4.96-10.24,10.09-62.06,16.77-63.2,7.07,6.14-.14,22.45,10.76,23.25,10.88-5.54,7.02-24.03,14.06-32.73,3.03-3.74,4.36,3.43,13.67-.48l2.74-6.44c-31.49-21.52,8.42-25.39-23.87-31.84-4.64-.92-6.36-40.49-13.38-47.74-6.63-6.84-.94-13.62,1.1-19.5-2.24-21.14-14.03-14.42-14.87-36.75-.88-23.35,1.08-49.34,4.68-71.69,2.87-17.88-5.55-37.46,24.7-35.5,17.33,1.12,14.76,35.14,33.72,31.55,15.61-2.75,18.99-13.27,16.83-26.87,1.75-3.17,8.47-4.16,11.36-5.07,12.45-25.85,1.72-41.25,29.62-64.25,14.77,1.4,8.85-1.91,19.12,7.83-1.3,2.94-2.66,5.85-3.9,8.82-22.7,54.16-107.21,707.53-101.53,762.09,2.19-.37,10.16-.7,11.2-3.15,6.09-14.43,9.93-5.27,17.56-7.03.7-4.84-1.34-9.05-2.81-13.66,8.98-6.43,11.93-15.64,15.41-25.58,11.14-13.63,33.78-229.21,27.1-253.13l-.43,21.37-5.26,1.82c-11.2-32.54,19.64-71.31,25.37-103.5,17.83-100.3,22.14-198.45,31.64-298.16l-.11,18.78c11.49-45.92,13.85-96.09,23.86-142.69,3.39-15.81,21.98-17.85,40.41-24.97l-.62-17.29c-227.39,52.43-459.11,83.91-692.24,94.03ZM1514.62,1147.42c1.01,1.12.48,1.52.17,3.03-1.96,1.46-1.25,1.33-3.65,1.6-.71.07-1.44.03-2.15.12-2.02.26-1.53.04-2.49,1.38.16.66.22,1.35.49,1.97.52,1.18,1.3,2.22,1.87,3.38,1.54,3.17,1.86,8.71-.22,11.69-1.87,2.67-5.6,2.75-8.55,2.91-5.79.3-8.68-.54-13.2,2.25-2.36,1.45-4.7,2.92-7.07,4.34.17.64.34,1.29.53,1.93,1.56,5.35,4.9,12.66,1.22,18.1-1.13,1.66-2.28,2.01-4.15,2.22-3.33-1.4-4.51-4.24-6.22-7.29-.9-1.61-1.76-3.23-2.64-4.86l-.29.81-.4-.11c-1.82-2.72-1.82-2.57-3.59-5.99-3.14-6.06-3.46-13.96-.69-20.26,3.02-6.89,1.69-2.59,3.87-8.9,3.46-9.96,6.77-16.98,11.8-26.2,2.7,1.67,5.3,3.54,8.4,4.43,8.4,2.43,21.09,6.96,26.96,13.46ZM1647.73,857.08c-.41,1.6-.92,3.17-1.34,4.76l-2.34,9.26c-1.92-.1-4.23.19-5.69-1.37-1.99-2.14-2.02-6.55-1.86-9.25.08-1.37.27-2.73.35-4.1.17-3.13.26-6.27.4-9.41,1.53-.44,4.74-1.83,6.99-1.71,1.15.05,2.41.65,3.05,1.64,1.97,3.03,1.27,6.91.43,10.19ZM1700.36,468.79c-2.27,1.31-5.84,1.76-7.31,4.37-1.01,1.79.45,7.08.91,8.81,3.7,13.84,2.64,17.88-1.89,31.57-.82-1.05-1.62-2.12-2.46-3.15-2.66-3.27-7.95-8.49-9.08-13.13-.44-1.81-.17-3.31.81-4.88,1.76-2.83,2.58-3.06,3.3-5.76,1.15-4.31-1.88-9.49-4-12.98-1.17-1.93-3.01-3.71-3.62-5.93-.88-3.14,1.36-6.76,2.99-9.22.5-.76,1.07-1.48,1.57-2.25,1.37-2.09,2.68-4.2,4.03-6.31,1.32.53,2.62,1.08,3.94,1.59,2.92,1.12,6.84,2.17,9.55,4.12,2.56,1.84,3.77,5.84,3.65,8.88-.08,1.95-.68,3.28-2.4,4.27Z"/>
  <path class="st0" d="M1328.03,676.6c2.93-41.14,2.96-83.9,3.26-125.19-70.36,8.12-127.53,5.33-198.07,4.69-5.65,290.36-33.71,575.45-39.07,865.37-1.04,56.33,4.5,111.47.76,168.17,1.35,15.6-1.23,95.36-2.29,112.15,0,42.8-.72,87.63.52,130.24,18.85-2.46,134.11-18.7,146.86-9.18l18.21-13.55c19.11-55.32,7.88-152.61,14.85-213.4,35.08-305.95,33.13-612.62,54.98-919.29Z"/>
  <path class="st3" d="M1406.63,1617.98c10.11-75.83,14.39-172.57,22.28-251.62l44.27-408.51-12.45-13.47c-8.15-22.53,10.57-112.79,13.07-142.52,4.63-54.97,7.24-109.68,10.05-164.77-1.22.24-2.43.52-3.66.73-1.97.34-6.82.52-8.29,2.6-1.1,1.55-1.29,3.25-1.19,5.1.08,1.45.36,2.88.36,4.34,0,2.44-1.57,4.34-3.51,5.66-3.39,2.32-7.33,3.08-11.26,1.75-4.05-1.37-7-5.02-8.8-8.75-1.57-3.25-2.82-6.68-4.73-9.74-4.34-1.66-4.72-12.13.69-12.18,11.91-18.71-1.73-39.14-3.16-69.09l-6.8-6.78-2.36,26.25-2.77-.71c-13.44-48.13-57.79-26.9-97.1-24.88-.3,41.29-.33,84.05-3.26,125.19-21.85,306.68-19.9,613.35-54.98,919.29-6.97,60.8,4.26,158.09-14.85,213.4,40.1-10.94,80.32-21.43,120.67-31.45,5.29-4.89,10.65-9.72,16.08-14.47-6.21-14.4,7.32-122.97,11.69-145.4ZM1354.71,1628.23c.26,1.56.51,3.12.77,4.67-1.38,7.66-17.14,71.8-22.93,73.15-8-20.06-4.99-10.78-21.44-12.03l-1.37-1.98c5.36-24.84,13.58,4.4,10.56-56.76l5.91-8.41c2.73-3.67,5.46-7.34,8.19-11.01,2.48-3.58,4.96-7.16,7.44-10.74-.81-.38,12.71-17.5,14.55-12.5,4.13,11.22-10.57,24.27-1.68,35.6ZM1356.49,1535.96c-20.48,2.29-7.37-33.04-26.46-4.61l-1.84.29c-5.53-4.35-3.6-9.55-2.39-15.77.83-21.95,1.05-112.59,14.78-129.53l4.36,1.05c18.21,26.75-10.13,55.03-3.93,96.1,25.6,3.88,32.79,40.36,15.48,52.47ZM1353.4,1302.2c4.19,13.27,7.27,29.66,1.38,42.6-2.48-1.14-5.9-1.93-7.07-4.78-4.42-10.66,2.21-27.81,5.7-37.82ZM1370.73,1161.88c-2.5,2.33-7,3.54-10.38,3.4-3.96-.16-6.74-3.5-8.91-6.45-.65-.88-1.25-1.8-1.86-2.69-9.53,5.56-11.77,5.14-22.79,4.15-5.06-6.74-6.7-8.58-6.83-17.21,1.07-.56,1.46-.89,2.54-1.12,7.29-1.51,15.7,1.35,21.69,5.41,1.58,1.07,3.12,2.2,4.69,3.3,2.27-.05,2.17.22,4.42-1.27,3.75-2.5,7.64-8.56,8.73-12.79.18-.69.24-1.42.4-2.11.47-2.08.98-4.14,1.47-6.21,3.93,7.61,9.14,16.28,9.58,25.06.16,3.06-.39,6.33-2.74,8.53Z"/>
  <path class="st2" d="M1394.95,1763.38c18.67-14.19,21.11-81.98,23.38-106.51-7.28-9.46-7.6-25.51-11.7-38.89-4.36,22.43-17.9,131.01-11.69,145.4Z"/>
  <path class="st9" d="M1421.62,1674.63l-3.29-17.76c-2.28,24.53-4.71,92.33-23.38,106.51-5.43,4.75-10.79,9.57-16.08,14.47l6.76-1.25c71.63-12.62,7.82-26.87,37.64-70.14.39-13.6.81-18.23-1.65-31.83Z"/>
  <path class="st3" d="M1337.32,1657.62c-7.11.95-13.8-16.48-17.03-22.34,3.02,61.15-5.2,31.92-10.56,56.76l1.37,1.98c16.45,1.25,13.44-8.03,21.44,12.03,5.79-1.35,21.56-65.49,22.93-73.15-26.54,14.71-10.55,15.15-18.15,24.72Z"/>
  <path class="st3" d="M1356.39,1592.63c-1.84-5.01-15.36,12.11-14.55,12.5-2.48,3.58-4.96,7.16-7.44,10.74-2.73,3.67-5.46,7.34-8.19,11.01l-5.91,8.41c3.23,5.86,9.92,23.29,17.03,22.34,7.61-9.56-8.38-10.01,18.15-24.72-.26-1.55-.51-3.11-.77-4.67-8.89-11.33,5.81-24.38,1.68-35.6Z"/>
  <path class="st3" d="M1344.94,1387.39l-4.36-1.05c-13.73,16.94-13.95,107.58-14.78,129.53,7.02-12.8,8.64-19.97,15.21-32.38-6.2-41.07,22.14-69.35,3.93-96.1Z"/>
  <path class="st3" d="M1341.01,1483.49c-6.57,12.41-8.19,19.57-15.21,32.38-1.22,6.22-3.14,11.42,2.39,15.77l1.84-.29c19.09-28.43,5.98,6.9,26.46,4.61,17.31-12.11,10.12-48.59-15.48-52.47Z"/>
  <path class="st3" d="M1362.42,1134.5c-.16.7-.22,1.42-.4,2.11-1.09,4.23-4.99,10.29-8.73,12.79-2.25,1.49-2.15,1.23-4.42,1.27-1.56-1.1-3.11-2.22-4.69-3.3-5.99-4.06-14.4-6.93-21.69-5.41-1.08.23-1.47.55-2.54,1.12.13,8.63,1.78,10.47,6.83,17.21,11.02.99,13.26,1.42,22.79-4.15.62.9,1.22,1.81,1.86,2.69,2.17,2.95,4.95,6.28,8.91,6.45,3.38.14,7.88-1.06,10.38-3.4,2.35-2.2,2.9-5.47,2.74-8.53-.44-8.79-5.65-17.46-9.58-25.06-.49,2.07-1,4.13-1.47,6.21Z"/>
  <path class="st3" d="M1354.78,1344.8c5.9-12.94,2.82-29.33-1.38-42.6-3.49,10.01-10.11,27.17-5.7,37.82,1.18,2.84,4.6,3.64,7.07,4.78Z"/>
  <path class="st3" d="M1564.76,1266.55c-5.68-54.57,78.84-707.93,101.53-762.09,1.24-2.96,2.6-5.88,3.9-8.82-10.26-9.74-4.35-6.44-19.12-7.83-27.9,22.99-17.17,38.4-29.62,64.25-.05,30.87-17.88,226.45-27.1,248.12,1.45,38.51-9.49,110.52-19.42,147.13-7.54,61.67-21.37,139.67-30.51,201.94-11.57,78.85-23.19,290.09-44.4,356.89l-.07,2.52c.04,16.17.41,18.06-3.4,33.85-5.17,50.22-11.64,157.57-21.48,203.61,7.41-1.23,24-3.94,26.09-12.15,12.07-47.28,16.65-277.82,42.1-308.58,6.39-37.61,6.79-77,13.51-116.2,5.91-19.67,11.1-22.26,7.97-42.63Z"/>
  <path class="st13" d="M1594.36,800.16c9.22-21.66,27.05-217.24,27.1-248.12-2.89.91-9.62,1.9-11.36,5.07,2.16,13.6-1.22,24.11-16.83,26.87-18.97,3.59-16.39-30.43-33.72-31.55-30.26-1.96-21.83,17.62-24.7,35.5-3.6,22.35-5.56,48.34-4.68,71.69.84,22.32,12.63,15.6,14.87,36.75-2.04,5.88-7.72,12.66-1.1,19.5,7.03,7.24,8.74,46.81,13.38,47.74,32.29,6.45-7.62,10.31,23.87,31.84l10.03,5.7,3.14-.97Z"/>
  <path class="st2" d="M1594.36,800.16l-3.14.97c-5.56,12.96-5.51,33.27-11.51,38.82-1.73.43-.9.54-2.48-.34-6.03-11.84-1.47-25.14,1.22-37.73-9.31,3.9-10.65-3.26-13.67.48-7.04,8.7-3.18,27.19-14.06,32.73-10.9-.8-3.69-17.11-10.76-23.25-6.69,1.14-21.73,52.96-16.77,63.2-3.31,11.05-13.36,41.4-6.22,53.07,8.51,2.76,14.95-13.48,41.36-11.71,5.67-13.33,4.88-39.16,13.03-42.78,9.4,4.52-3.14,58.84-3.36,71.1l6.95,2.58c9.93-36.61,20.86-108.62,19.42-147.13Z"/>
  <path class="st13" d="M1571.35,873.61c-8.15,3.62-7.36,29.45-13.03,42.78l-.11,8.73c-.87,12.73-4.73,24.01,9.78,19.59.22-12.26,12.76-66.58,3.36-71.1Z"/>
  <path class="st13" d="M1577.23,839.62c1.57.88.75.77,2.48.34,6.01-5.54,5.95-25.86,11.51-38.82l-10.03-5.7-2.74,6.44c-2.69,12.59-7.25,25.89-1.22,37.73Z"/>
  <path class="st2" d="M1443.48,626.61c-5.42.05-5.03,10.51-.69,12.18,1.91,3.06,3.15,6.49,4.73,9.74,1.8,3.73,4.75,7.38,8.8,8.75,3.93,1.33,7.87.56,11.26-1.75,1.93-1.32,3.51-3.22,3.51-5.66,0-1.45-.28-2.89-.36-4.34-.1-1.85.08-3.56,1.19-5.1,1.47-2.08,6.33-2.26,8.29-2.6,1.23-.22,2.44-.49,3.66-.73-1.28-7.23-2.37-9.6-1.19-16.38-2-2.63-9.66-10.44-7.03-16.46.87-1.99-3.52-45.65,15.31-22.48-.65-.79,5.44,11.74,5.88,12.61,0,0,0,0,0,0,.04.09.03.08,0,.01,1.72,17.65-6.75,46.86,6.62,52.74,14.63-9.82,9.4-44.05,3.7-58.77.9-.88,5.48-3.75,6.24-4.14,1.24-5.84.87-25.25-2.12-30.52-3.77-1.46-5.82-.65-9.3,1.18-6.06-.72-9.82,9.03-13.94,11.98-3.69-5.6-5.67-15.04-13.68-13.49l-3.39,5.57c1.68,2.84,1.01,1.18,1.65,5.1l-1.36,1.1c-4.63-.13-24.53-6.3-30.91-7.61,1.43,29.94,15.07,50.38,3.16,69.09Z"/>
  <path class="st1" d="M1496.82,594.38s0,0,0,0c0,0,0,0,0-.01,0,0,0,0,0,0Z"/>
  <path class="st1" d="M1496.83,594.38s0,0,0,.01c.03.06.04.08,0-.01Z"/>
  <path class="st13" d="M1490.94,581.78c-18.82-23.18-14.43,20.48-15.31,22.48-2.63,6.01,5.03,13.83,7.03,16.46,4.88-8.69,9.6-17.46,14.16-26.33-.44-.86-6.53-13.4-5.88-12.61Z"/>
  <path class="st9" d="M1499.96,1508.65l.07-2.52c-14.21-11.69-10.02-15-2.94-34.4l-2.98-6.69-2.19-.12c-6.03,6.34-26.39,81.67-4.08,78.16l-1.47-8.38c-3.03-16.77-1.5-18.77,13.58-26.04Z"/>
  <path class="st2" d="M1499.96,1508.65c-15.08,7.27-16.61,9.27-13.58,26.04l1.47,8.38,8.71-.58c3.8-15.78,3.43-17.68,3.4-33.85Z"/>
  <path class="st13" d="M1479.26,1129.53c-5.02,9.22-8.34,16.24-11.8,26.2-2.19,6.3-.85,2.01-3.87,8.9-2.76,6.29-2.45,14.2.69,20.26,1.77,3.42,1.76,3.27,3.59,5.99l.4.11.29-.81c.88,1.62,1.74,3.25,2.64,4.86,1.71,3.05,2.89,5.89,6.22,7.29,1.88-.21,3.03-.56,4.15-2.22,3.68-5.44.35-12.75-1.22-18.1-.19-.64-.35-1.28-.53-1.93,2.37-1.42,4.72-2.89,7.07-4.34,4.52-2.78,7.41-1.94,13.2-2.25,2.95-.15,6.68-.23,8.55-2.91,2.08-2.97,1.76-8.52.22-11.69-.57-1.15-1.35-2.2-1.87-3.38-.27-.62-.33-1.32-.49-1.97.96-1.34.47-1.12,2.49-1.38.71-.09,1.43-.04,2.15-.12,2.39-.26,1.69-.14,3.65-1.6.31-1.52.85-1.91-.17-3.03-5.86-6.49-18.55-11.03-26.96-13.46-3.1-.89-5.7-2.76-8.4-4.43Z"/>
  <path class="st13" d="M1689.56,451.52c-1.32-.51-2.63-1.06-3.94-1.59-1.35,2.11-2.66,4.23-4.03,6.31-.5.77-1.07,1.48-1.57,2.25-1.63,2.46-3.86,6.08-2.99,9.22.62,2.21,2.45,3.99,3.62,5.93,2.12,3.48,5.15,8.66,4,12.98-.72,2.7-1.54,2.94-3.3,5.76-.98,1.57-1.25,3.07-.81,4.88,1.13,4.64,6.41,9.86,9.08,13.13.84,1.04,1.64,2.1,2.46,3.15,4.53-13.69,5.59-17.73,1.89-31.57-.47-1.73-1.92-7.03-.91-8.81,1.46-2.61,5.04-3.07,7.31-4.37,1.72-.99,2.32-2.32,2.4-4.27.12-3.03-1.09-7.03-3.65-8.88-2.71-1.95-6.63-3-9.55-4.12Z"/>
  <path class="st8" d="M1644.25,845.25c-2.26-.12-5.47,1.27-6.99,1.71-.14,3.14-.23,6.28-.4,9.41-.08,1.37-.27,2.73-.35,4.1-.16,2.7-.13,7.11,1.86,9.25,1.46,1.56,3.77,1.28,5.69,1.37l2.34-9.26c.42-1.59.93-3.16,1.34-4.76.84-3.28,1.54-7.15-.43-10.19-.64-.99-1.9-1.59-3.05-1.64Z"/>
  <path class="st4" d="M1802.32,384.09c-5.41-1.18-49.45,31.05-54.25,35.24-227.39,52.43-459.1,83.9-692.24,94.03-41.42,2.02-86.67-2.62-126.04.55-176.26,14.23-352.08,11.84-524.75-30.2-3.48-.85-9.22,8.97-10.73,11.24l-6.42-11.28c-22.1-11.12-26.63-11.29-51.45-16.23l-.54-6.69c-12.47-10.5-5.26-6.84-23.88-7.25-41.22,1.37-117.96-42.36-84.86-91.76,55.07-82.15,147.14-126,237.72-156.89,6.9-1.08,13.77-2.41,20.63-3.66,85.77-26.06,150.66-31.93,238.11-36.87,9.61,40.39,69.83,28.3,74.57,14.98,61.88-10.58,177.38-1.52,244.95-3.28,37.21-.96,169.1-6.97,197.91-2.58,6.41,21.2,52,14.49,65.19-.19,128.98,13.87,389.28,9.9,464.56,135.58-21.91-5.19-69.19-6.4-89.2,3.33l2.73,6.96,23,3.55c-8.1,11.22-26.84,13.61-30.11,25.26-3.63,12.96-6.03,25.71-18.35,33.23-86.62,52.84-812.62,55.03-953.3,48.72-90.01-4.05-178.88-21.79-268.06-33.53-25.56-3.37-55.89-.5-80.09-8.53-29.31-9.72-57.98-34.45-88.87-36.47,15.47,12.43,68.15,40.1,87.01,43.85,251.63,49.98,497.38,58.42,753.44,48.77,109.93-4.13,232.62,4.23,340.9-9.29,74.97-9.36,300.1-31.79,332.42-96.02,24.46,15.27,24.13,16.88,20,45.42Z"/>
  <path class="st11" d="M1681.61,312.16l2.72,6.95,23,3.55c-8.09,11.22-26.85,13.61-30.11,25.25-3.63,12.96-6.02,25.72-18.35,33.24-86.61,52.84-812.62,55.03-953.29,48.71-90.01-4.04-178.89-21.79-268.07-33.52-25.56-3.37-55.9-.5-80.09-8.52-29.32-9.72-57.98-34.45-88.87-36.47,15.47,12.43,68.14,40.1,87.01,43.85,251.62,49.97,497.38,58.41,753.44,48.77,109.92-4.14,232.61,4.23,340.9-9.29,74.98-9.36,300.1-31.78,332.42-96.02-4.35-8.63-8.13-20.51-11.51-29.84-21.91-5.2-69.19-6.4-89.2,3.33Z"/>
  <path class="st11" d="M798.19,179.29l.83-46.76c-26.03,1-45.27.6-70.89.68l-4.5,31.1c9.61,40.39,69.82,28.29,74.56,14.98Z"/>
  <path class="st11" d="M1236.19,132.08c1.94,13.75,3.56,27.54,4.86,41.36,6.41,21.2,52,14.5,65.19-.19-1.36-13.91-2.87-27.8-4.52-41.67-24.15-.64-41.17-1.14-65.53.51Z"/>
  <path class="st12" d="M510.64,231.67c-.27.04-.61.08-.9.12l-.57.43,1.47-.55Z"/>
  <path class="st12" d="M543.77,213.75c1.38-3.83,1.08-2.2,1.4-4.77l-.25-.16c-2.22.65-.71.12-4.25,2.25-.39,2.08-.91,4.17-.89,6.29l.57.04c1.19-1.17,2.32-2.39,3.43-3.64Z"/>
  <path class="st5" d="M799.02,132.53c16.4-49.98,86.92-57.38,130.73-54.77,51.97,3.09,107.33.69,159.5,2.86,76.98.92,103.75-22.14,146.93,51.45,24.36-1.64,41.38-1.15,65.53-.51-5.4-29.63-6.19-85.18-35.58-100.19C1207.43,1.39,1108.26-2.73,1041.23,1.3c-142.89,8.6-275.05-40.78-313.11,131.91,25.62-.08,44.86.33,70.89-.68Z"/>
  <path class="st9" d="M1499.08,1898.57c-1.94-14.64,2.34-79.55,16.11-88.12,20.27-10.2,21.05-21.67,40.43-8.09,8.97-77.05-10.57-79.02-7.55-122.16,4.65-66.43,20.08-133.48,23.85-206.46-19.51-24.74-1.54-20.26-6.15-39.48-7.77-2.9-15.35-4.59-22.5-8.88-25.44,30.75-30.03,261.3-42.1,308.58-2.09,8.22-18.68,10.93-26.09,12.15l-11.16-14.97c-23.95-4.96-27.09-3.07-40.65-24.68-29.81,43.28,33.99,57.52-37.64,70.14l-6.76,1.25c-40.34,10.02-80.57,20.51-120.67,31.45l-18.21,13.55c51.42,15.42,172.21-51.41,204.46-15.86-.94,16.02,1.46,8.54-9.48,22.4-3.61,25.44-6.33,63.75-11.33,85.33-2.57,16.86,3.51,34.6-11.31,38.28l-1.39,21.72,8.34,9.1c35.55-4.68,49.74-8.25,76.05-32.76-12.09-5.99-8.79-4.48-22.55-6.56-23.99-20.16,13.02-38.71,26.3-45.95ZM1542.89,1555c2.19-6.74,4.32-13.45,6.36-20.25,2.88,11.98,3.03,20.1-.4,32.1l-4.86,16.48c-.6-2.56-1.16-5.14-1.8-7.69-1.9-7.52-1.7-13.21.7-20.64ZM1492.29,1768.96c5.17-8.75,24.63-12,33.28-14.42.54,11.22,1.09,22.08-.58,33.26-.58,3.87-2.22,8.17-5.8,10.22-2.79,1.6-6.58.07-9.35-.57-2.92-3.68-5.69-7.48-9.02-10.81-3.1-3.1-7.92-6.75-9.27-11.16-.69-2.28-.48-4.46.73-6.51Z"/>
  <path class="st7" d="M1423.65,1914.73c5-21.58,7.72-59.89,11.33-85.33-22.83,27.36-18.2,46.51-22.55,84.18l11.23,1.15Z"/>
  <path class="st9" d="M1412.34,1953.01c14.82-3.69,8.73-21.42,11.31-38.28l-11.23-1.15c-1.56,11.56-7.81,30.69-.08,39.44Z"/>
  <path class="st9" d="M1500.82,1786.64c3.33,3.33,6.11,7.13,9.02,10.81,2.76.64,6.56,2.17,9.35.57,3.57-2.05,5.21-6.35,5.8-10.22,1.67-11.18,1.13-22.04.58-33.26-8.65,2.42-28.11,5.67-33.28,14.42-1.21,2.05-1.43,4.23-.73,6.51,1.35,4.41,6.17,8.07,9.27,11.16Z"/>
  <path class="st13" d="M1543.99,1583.33l4.86-16.48c3.42-12,3.28-20.11.4-32.1-2.03,6.79-4.17,13.5-6.36,20.25-2.4,7.43-2.59,13.12-.7,20.64.64,2.55,1.2,5.13,1.8,7.69Z"/>
  <path class="st7" d="M1536.36,1927.74c-.61.13-1.22.26-1.83.39-.55,2.2-1.1,4.41-1.65,6.61"/>
  <path class="st9" d="M1555.62,1802.35c-19.38-13.57-20.16-2.11-40.43,8.09,4.28,16.9,8.17,96.18-16.11,88.12-13.28,7.24-50.28,25.79-26.3,45.95,13.76,2.08,10.46.57,22.55,6.56,13.63-7.45,23.47-9.93,37.54-16.34.55-2.21,1.1-4.41,1.65-6.61.61-.13,1.22-.26,1.83-.39"/>
  <path class="st9" d="M1499.08,1898.57c24.28,8.06,20.39-71.22,16.11-88.12-13.77,8.57-18.05,73.48-16.11,88.12Z"/>
  <path class="st11" d="M1565.37,1309.04l-8.57.13c-6.73,39.2-7.13,78.59-13.51,116.2,7.15,4.28,14.73,5.98,22.5,8.88,4.61,19.22-13.36,14.74,6.15,39.48,6.43-42.41,13.88-82.03,19.79-125.02-2.82-16.53-3.39-40.89-26.35-39.67Z"/>
  <path class="st2" d="M1590.7,1242.7c1.47,4.61,3.51,8.82,2.81,13.66-7.62,1.76-11.47-7.4-17.56,7.03-1.04,2.45-9.01,2.78-11.2,3.15,3.13,20.37-2.06,22.96-7.97,42.63l8.57-.13c22.96-1.22,23.53,23.14,26.35,39.67,6.16-38.56,13.26-93.41,14.39-131.59-3.47,9.94-6.42,19.15-15.41,25.58Z"/>
  <path class="st11" d="M1748.69,436.62c24.5-8.49,61.45-21.67,53.63-52.52-5.42-1.18-49.45,31.04-54.25,35.23l.62,17.29Z"/>
</svg>