<?xml version="1.0" encoding="UTF-8"?>
<svg id="Layer_1" xmlns="http://www.w3.org/2000/svg" version="1.1" viewBox="0 0 2048 2048">
  <!-- Generator: Adobe Illustrator 30.3.0, SVG Export Plug-In . SVG Version: 2.1.3 Build 182)  -->
  <defs>
    <style>
      .st0 {
        fill: #331711;
      }

      .st1 {
        fill: #f27e5f;
      }

      .st2 {
        fill: #64594c;
      }

      .st3 {
        fill: #eccb72;
      }

      .st4 {
        fill: #053d4f;
      }

      .st5 {
        fill: #221613;
      }

      .st6 {
        fill: #352a20;
      }

      .st7 {
        fill: #01576e;
      }

      .st8 {
        fill: #202220;
      }

      .st9 {
        fill: #9d937e;
      }

      .st10 {
        fill: #91bbb7;
      }

      .st11 {
        fill: #08303e;
      }

      .st12 {
        fill: #070b0e;
      }

      .st13 {
        fill: #f7bb5c;
      }

      .st14 {
        fill: #eedfc1;
      }

      .st15 {
        fill: #121619;
      }

      .st16 {
        fill: #eee2ca;
      }

      .st17 {
        fill: #0b2129;
      }

      .st18 {
        fill: #507070;
      }

      .st19 {
        fill: #268fa5;
      }

      .st20 {
        fill: #f2ecdf;
      }

      .st21 {
        fill: #044c62;
      }

      .st22 {
        fill: #4b4a4a;
      }

      .st23 {
        fill: #fbc170;
      }

      .st24 {
        fill: #41392f;
      }
    </style>
  </defs>
  <circle class="st19" cx="997.49" cy="982.49" r="881.46"/>
  <g>
    <path class="st3" d="M1070.08,1050.2c93.65-143.91,81.91-361.12,57.97-523.86-23.8-122.9-97.43-205.88-221.46-228.92-173.72-32.28-356.91-57.16-532.16-53.5-78.05,15.6-132.44,119.34-134.81,186.81-4.21,120-9.82,275,20.01,388.56,54.75,208.48,254.86,224.23,426.04,248.87,49.03,8.82,98.19,15.26,147.04,23.24,89.79,14.67,165.04,25.64,237.37-41.19ZM379.15,315.37c.42,2.42-2.04,4.35-3.44,5.89-14.2,15.71-24.97,33.27-38.8,49.1-1.07-.63-2.19-1.17-3.2-1.89-.71-.5-.99-1.07-.98-1.89.11-13.88,31.15-46.89,40.37-58.05.76.72,5.61,4.35,6.05,6.84ZM293.48,379.66l-4.46,7.35c-1.03-.72-2.13-1.35-3.1-2.15-1.11-.91-1.65-2.38-1.68-3.78-.46-20.56,51.59-72.79,65.61-85.94,1.16,1.09,5.21,4.07,5.33,6.06.27,4.48-52.17,62.6-58.37,72.83l-3.33,5.62ZM407.01,906.43c-41.29-29.74-63.5-92.6-70.07-141.91-.52-3.93-.96-7.87-1.34-11.82-1.32-7.05-2.49-14.12-3.51-21.22-8.54-57.27-15.88-198.65,3.04-255.64,3.82-11.51,20.08-33.05,28.05-43.66,9.99-3,20.03-5.89,30.25-8.02,63.16-13.18,539.5,25.01,578.92,54.28,37.68,27.98,43.93,86.8,49.86,130.08,12.1,80.36,31.77,262.34-14.11,327.48-21.72,30.84-54.37,48.58-91.19,54.56-83.2,13.52-444.05-36.7-509.89-84.13Z"/>
    <path class="st13" d="M1612.39,1591.39c-.55,2.36-1.95,5.26-.97,7.71.45.21.45.26,1.19.05,1.47-.41,5.17-2.67,5.53-2.87.43-.23.86-.45,1.29-.68-.2-2.62.21-4.4-1.19-6.38-2.36-.21-3.53,1-5.84,2.17Z"/>
    <path class="st23" d="M1721.27,375.1c-41.65,11.26-84.21,25.55-125.12,39.44-132.92,45.13-278.83,77.75-409.05,128.41,15.13,97.65,13.17,269.33,4.77,370.58-2.32,27.99-28.45,70.77-29.84,101.46-5.19,113.98-2.95,253.95,11.03,366.94,52.76,75.53,96.64,118.4,113.59,215,7.15,30.2,4.95,52.22-.71,81.94l-.98,5.66c-.31,7.64.23,8.5-2.73,15.02l-2.8,25.77c-.23,3.96-.18,4.05-1.44,7.84-17.22,73.37-25.67,106.04-64.44,170.38,56.54-22.14,119.9-39.03,172.48-63.68,3.21-16.47,6.22-15.86-7.65-24.81,11.07-15.79,37.35-29.95,54.99-37.37,14.35,8.73,6.91,9.64,23.03,1.34,14.61-106.87-2.52-208.9-54.13-303.6-37.08-68.04-74.6-111.18-76.8-192.31-3.44-126.94,42.33-306.01,158.98-374.38,48.53-28.44,140.92-68.88,174.81-109.75,90.6-109.29,89.09-249.17,80.6-379.98-5.04-16.69-7.18-33.49-18.57-43.89ZM1400.94,1696.42c.71-3.86,5.5-7.71,8.43-10.05,7.42-5.92,14.7-11.75,21.81-18.03,1.32,1.22,2.84,2.28,3.86,3.76,1.32,1.92.87,4.92.16,6.98-2.38,6.93-9.21,11.54-15.38,14.75-5.19,2.69-10.37,5.36-15.52,8.13-1.11-.42-2.28-.53-2.9-1.64-.72-1.29-.73-2.46-.47-3.9ZM1426.67,1705.17c1,.94,2.05,1.83,3.01,2.82,1.76,1.83,2.58,3.99,2.2,6.54-1.46,9.66-19.53,18.49-26.5,23.57l-3.2,2.36c-1.7-1.81-5.56-4.68-5.41-7.88.44-9.93,23.21-21.99,29.91-27.4ZM1385,1775.6c1.57-10.75,36.5-28.7,46.03-34.71,1.58,1.39,3.48,2.54,4.6,4.33.64,1.02.65,2.06.28,3.2-3.69,11.5-37.08,27.31-46.96,33.33-1.56-1.63-4.35-3.46-3.96-6.15ZM1672.72,641.39c-37.26,20.57-74.89,39.25-115.34,52.88-46.02,15.51-90.25,36.56-136.84,50.47-5.34,1.56-10.59,3.17-16.08,4.15-13.95,2.49-32.33,3.58-44.36-5.76-4.74-3.68-6.16-8.29-6.57-14.09-.67-9.46-1.82-18.41-3.1-27.79l-1.17-9.1c-2.1-15.45,1.53-54.76-5.37-65.65-.63-.98-1.68-1.75-2.02-2.86l.77-.3c65.84-33.96,134.27-60.61,205.71-80.79,2.46-.69,4.86-1.56,7.31-2.28,2.96-.87,5.95-1.64,8.92-2.51,10.75-3.13,21.19-6.45,31.61-10.56,28.32-.74,52.31,4.75,79.97,9.64,2.48,33.86,2.56,67.09,3.34,100.99-2.26,1.19-4.54,2.34-6.77,3.57Z"/>
    <path class="st15" d="M1408.57,1467.77c-31.02-51.52-68.02-106.57-71.28-167.23-6.71-124.81,30.83-308.28,145.29-379.27,56.93-35.32,149.35-70.45,188.86-121.78,87.39-113.55,87.7-251.56,75.98-384.41l-7.57,3.91c8.49,130.81,10,270.68-80.6,379.98-33.88,40.87-126.27,81.31-174.81,109.75-116.66,68.37-162.43,247.44-158.98,374.38,2.2,81.13,39.72,124.27,76.8,192.31,51.61,94.7,68.74,196.73,54.13,303.6-14.47,37.47-31.05,48.1-70.37,60.84-52.59,24.64-115.94,41.53-172.48,63.68,38.77-64.33,47.22-97.01,64.44-170.38,1.26-3.79,1.21-3.88,1.44-7.84l2.8-25.77c2.96-6.51,2.42-7.37,2.73-15.02l.98-5.66c-2.61-25.61-1.93-56.35.71-81.94l-11.74-15.32c10.87,112.86-11.66,225.9-74.89,320.75-25.91,9.93-48.7,17.9-77.05,19.13,10.08,2.61,16.12,4.89,25.82,8.63,52.5-16.5,54.85-23.45,39.16,30.27-5.9,6-6.81,5.22-14.98,4.83-14.14,1.27-25.32,2.18-39.43,2.64-16.85,11.15-30.83-5.84-35.34,11.41,37.31,5.04,108.23-5.47,143.91-19.63,95.05-37.72,171.49-63.95,218.42-158.62,26.77-110.08,6.08-236.84-51.96-333.25Z"/>
    <path class="st4" d="M1187.95,1960.39c-8.8.59-8.96-.57-14.98,4.83,8.18.39,9.09,1.17,14.98-4.83Z"/>
    <path class="st21" d="M1433.36,1777.67c-5.82,23-33.31,34.53-54.99,37.37,13.86,8.94,10.86,8.34,7.65,24.81,39.32-12.74,55.9-23.37,70.37-60.84-16.12,8.3-8.68,7.39-23.03-1.34Z"/>
    <path class="st17" d="M1433.36,1777.67c-17.64,7.42-43.92,21.58-54.99,37.37,21.68-2.84,49.17-14.37,54.99-37.37Z"/>
    <path class="st4" d="M1286.64,1596.93c-2.64,25.58-3.32,56.33-.71,81.94,5.66-29.72,7.86-51.74.71-81.94Z"/>
    <path class="st0" d="M1596.19,527.19c-10.42,4.11-20.86,7.43-31.61,10.56-2.96.86-5.96,1.63-8.92,2.51-2.45.72-4.85,1.59-7.31,2.28-71.43,20.19-139.86,46.83-205.71,80.79l-.77.3c.34,1.12,1.4,1.88,2.02,2.86,6.9,10.89,3.27,50.21,5.37,65.65l1.17,9.1c1.28,9.38,2.43,18.34,3.1,27.79.41,5.8,1.83,10.41,6.57,14.09,12.03,9.33,30.41,8.25,44.36,5.76,5.49-.98,10.74-2.59,16.08-4.15,46.59-13.91,90.82-34.96,136.84-50.47,40.45-13.63,78.08-32.31,115.34-52.88,2.23-1.23,4.51-2.38,6.77-3.57-.77-33.89-.86-67.13-3.34-100.99-27.66-4.89-51.65-10.38-79.97-9.64ZM1369.26,619.11c8.46-16.78,192.93-71.09,223.34-79.36,9.05-1.75,17.77-3.07,26.99-1.68,1.88.28,10.85,1.66,11.95,3.1,0,0-.01,0-.02,0-53.47,27.65-165.24,61.28-225.89,81.49-9.02,3.39-22.15,4.77-31.52,2.09-1.64-.47-4.12-1.35-4.89-3.11-.35-.81-.38-1.72.03-2.53ZM1381.08,735.64c-3.82.56-8.3-.67-11.24-3.22-4.47-3.88-5.88-9.17-6.35-14.86-.26-3.1-.46-6.21-.92-9.29-3.95-26.16-4.53-52.44-5.86-78.82,1.91.75,7.7,3.05,9.66,3.66,5.21,1.61,13.54,2.67,17.48,7.38,1.9,2.27,1.72,9.8,1.49,12.56-2.22,27.11.12,54.51,1.17,81.68-1.81.3-3.61.64-5.43.91ZM1669.28,628.68c-2.05,1.37-4.13,2.71-6.16,4.12-65.08,45.05-178.89,79.43-255.78,105.31-3.32-.08-4.61.05-6.88-2.52-12.49-14.18-5.8-80.05-5.47-99.83,69.86-22.39,138.14-49.25,207.88-71.45,18.66-5.93,37-12.8,54.98-20.56,2.64.63,4.35.78,6.33,2.62,11.63,10.86,5.05,65.23,5.1,82.31Z"/>
    <path class="st23" d="M1657.85,543.75c-17.98,7.76-36.32,14.62-54.98,20.56-69.74,22.2-138.02,49.06-207.88,71.45-.33,19.78-7.03,85.65,5.47,99.83,2.27,2.58,3.56,2.44,6.88,2.52,76.89-25.88,190.7-60.26,255.78-105.31,2.03-1.41,4.11-2.75,6.16-4.12-.05-17.07,6.53-71.44-5.1-82.31-1.98-1.84-3.7-1.99-6.33-2.62ZM1459.12,670.36c-2.83,1.24-1.59.95-3.58,1.27l-.38-.36c-.26-1.96-.16-.62.2-4.03,1.24-.64,2.46-1.34,3.73-1.91.95-.43.87-.4,1.41-.16.39,1.62-.94,3.98-1.38,5.18Z"/>
    <path class="st1" d="M1459.09,665.34c-1.28.57-2.49,1.27-3.73,1.91-.35,3.41-.46,2.07-.2,4.03l.38.36c1.99-.32.76-.03,3.58-1.27.44-1.21,1.77-3.56,1.38-5.18-.54-.24-.46-.27-1.41.16Z"/>
    <path class="st14" d="M1374.11,624.75c9.37,2.69,22.5,1.3,31.52-2.09,60.64-20.21,172.41-53.84,225.89-81.49,0,0,.01,0,.02,0-1.11-1.44-10.08-2.82-11.95-3.1-9.22-1.39-17.94-.06-26.99,1.68-30.41,8.27-214.87,62.58-223.34,79.36-.41.81-.38,1.72-.03,2.53.76,1.76,3.25,2.64,4.89,3.11Z"/>
    <path class="st14" d="M1385.34,653.05c.22-2.76.41-10.29-1.49-12.56-3.93-4.71-12.27-5.76-17.48-7.38-1.97-.61-7.75-2.91-9.66-3.66,1.32,26.38,1.91,52.66,5.86,78.82.46,3.08.67,6.19.92,9.29.47,5.69,1.89,10.98,6.35,14.86,2.94,2.55,7.42,3.78,11.24,3.22,1.82-.27,3.62-.6,5.43-.91-1.05-27.18-3.39-54.58-1.17-81.68Z"/>
    <path class="st17" d="M1388.96,1781.75c9.88-6.01,43.28-21.83,46.96-33.33.37-1.14.36-2.18-.28-3.2-1.12-1.78-3.02-2.94-4.6-4.33-9.53,6.01-44.47,23.96-46.03,34.71-.39,2.69,2.4,4.52,3.96,6.15Z"/>
    <path class="st17" d="M1402.18,1740.45l3.2-2.36c6.98-5.08,25.04-13.91,26.5-23.57.38-2.54-.44-4.71-2.2-6.54-.95-.99-2-1.88-3.01-2.82-6.69,5.41-29.46,17.48-29.91,27.4-.15,3.2,3.71,6.08,5.41,7.88Z"/>
    <path class="st17" d="M1404.3,1701.96c5.15-2.77,10.33-5.43,15.52-8.13,6.17-3.21,13-7.82,15.38-14.75.71-2.06,1.16-5.06-.16-6.98-1.02-1.48-2.54-2.54-3.86-3.76-7.12,6.28-14.39,12.11-21.81,18.03-2.93,2.34-7.72,6.19-8.43,10.05-.27,1.45-.25,2.62.47,3.9.62,1.11,1.79,1.22,2.9,1.64Z"/>
    <path class="st3" d="M1170.45,1393.28c-22.92-66.22-21.02-196.21-22.71-267.41-19.44,2.04-25.29,2.76-43.95,7.97l-.27,4.72c-14.07,289.96,107.12,357.94-282.93,289.53,37.95,67.1,49.68,185.28,37.28,258.41-9,57.95-36.22,104.58-62.69,156.42,21.86,10.79,32.15,16.18,52.95,29.21,77.72,48.72,186.54,55.64,274.86,49.36,28.35-1.23,51.14-9.2,77.05-19.13,63.22-94.85,85.75-207.89,74.89-320.75-11.6-27.41-18.92-58.92-32.67-84.51-11.75-21.87-65.07-84.4-71.79-103.82ZM855.33,1462.18c17.94-3.07,48.03,5.68,64.94,12.69-13.84,1.51-25.43,2.27-39.23.14-4.01-.62-8-1.41-12.02-1.93-3.77-.48-8.9-.52-12.11-2.94-2.28-1.72-1.53-5.84-1.57-7.96ZM873.13,1498.46c-1.68-.99-3.31-2.07-5-3.06-2.48-1.45-4.99-2.82-7.49-4.24,4.76.4,9.52.72,14.26,1.29,5.02.61,10.02,1.45,15.06,1.94,13.51,1.32,20.46,2.78,32.93,7.85-17.1,1.8-34.22,5.38-49.76-3.79ZM951.27,1480.82c-11.77.81-17.44-4.16-26.01-11.47,5.08.68,10.14,1.4,15.27,1.75,4.31.29,9.13.13,13.4,1.26,3.57.95,3.93,2.79,5.62,6.08-2.7.98-5.38,2.18-8.28,2.37ZM1106.91,1863.46c-2.75-2.99-4.34-3.33-3.88-5.88,3.83-.99,8.49.78,12.24,1.62,15.55-2.88,79.91-20.94,83.08-19.56,13.89,22.44-74.31,28.05-91.45,23.82ZM1219.22,1799.93c-1.77,1.74-3.75,3.26-5.62,4.89l3.17-1.64c-18.01,20.8-55.37,21.83-80.52,25.02-.59-.32-1.17-.66-1.77-.97-1.64-.85-3.33-1.59-4.93-2.51-.95-.54-2.06-1.58-2.23-2.75-.16-1.18.31-2.35,1-3.29,2.14-2.91,7.7-3.26,10.99-3.45,27.45-1.57,50.68-14.4,74.96-26.38.88.38,1.78.71,2.64,1.13,1.94.94,3.25,2.58,3.71,4.7.31,1.44-.34,4.2-1.4,5.24ZM1227.33,1758.33c-16.78,18.88-51.17,18.78-73.79,20.3-2.38-1.51-5.06-2.95-6.92-5.12-.72-.84-.65-.91-.65-1.64,1.05-1.25,6.25-2.1,7.18-2.3,24.33-5.16,44.81-12.06,67.64-22.31.6.06,6.37-.07,8.1,1.33.91.73,1.12,1.44,1.24,2.66.23,2.5-1.18,5.27-2.8,7.09ZM1241.94,1702.88c-16.11,20.27-42.79,24.94-67.15,27.22.02-1.14-.31-5.62.76-7,1.32-1.69,5.53-2.78,7.42-3.3,29.37-8.06,43.63-20.04,63.88-42.8.76,2.43,1.76,4.82,2.15,7.33,1.03,6.57-3.18,13.66-7.07,18.55ZM1224.12,1662.44c-16.74,6.16-37.73,8.51-9.79-6.72l2.76-3.14c44.85-51.92,32.06-17.86,7.03,9.86Z"/>
    <path class="st23" d="M928.76,1133.97c-41.12-2.6-84.67-5.84-125.39-11.65-3.97-.56-7.9-1.32-11.87-1.84-17.53-2.29-86.63-16.98-97.87-9.57-1.77,1.17-2.79,3.53-3.26,5.51-.27,1.18-.45,2.37-.7,3.54-.38,1.74-.81,3.47-1.2,5.2,10.73,64.68-1.65,190.8,21.39,243.62,22.59,51.77,254.94,69.75,301.26,75.37,105.41,12.8,92.01-73.07,87.79-145.83-1.83-54.19-2.58-107.79-7.73-161.14-6.86.11-13.74.11-20.59.51-47.81,2.79-94.2-.7-141.83-3.72ZM942.39,1379.85c-41.42-14.24-183.83-4.39-178.26-60.87,4.6-46.6-36.43-118.89,12.05-137.57,18-13.24,25.29-20.72,49.53-16.71,31.23,4.75,146.67,1.15,164.2,26.33,10.48,15.05,13.36,91.18,17.5,114.16,11.43,63.47,1.83,78.65-65.02,74.66Z"/>
    <path class="st12" d="M689.67,1119.97c.26-1.18.43-2.37.7-3.54.47-1.98,1.49-4.34,3.26-5.51,11.23-7.41,80.33,7.28,97.87,9.57,3.97.52,7.91,1.28,11.87,1.84,40.72,5.81,84.26,9.05,125.39,11.65,47.63,3.02,94.01,6.51,141.83,3.72,6.85-.4,13.73-.4,20.59-.51,4.28-1.19,8.27-2.32,12.6-3.35,1.2-14.86,2.61-22.6.31-37.4-2.95-1.99-4.73-5.31-4.74-8.88-.02-3.56,1.72-6.9,4.65-8.92,4.3-16.21,9.02-18.49,1.83-35.52-9.31,4.95-18.56,10.01-27.73,15.21l-8.01-8.13c-72.33,66.83-147.58,55.86-237.37,41.19-48.86-7.98-98.02-14.42-147.04-23.24l-12.95,6.62c10.94,27.1,8.87,24.98,8.91,54.13l6.84-3.74c.4-1.73.82-3.46,1.2-5.2Z"/>
    <path class="st6" d="M820.57,1428.08c390.05,68.41,268.86.43,282.93-289.53l.27-4.72c-4.33,1.03-8.32,2.16-12.6,3.35,5.15,53.35,5.89,106.95,7.73,161.14,4.22,72.76,17.61,158.63-87.79,145.83-46.32-5.62-278.67-23.6-301.26-75.37-23.04-52.82-10.66-178.94-21.39-243.62l-6.84,3.74c-.06,52.91-4.91,238,31.39,258.15,80.86,44.9,126.33,40.46,134.22,162.8,2.83,43.86,8.48,92.89-1.43,144.44l12.05-7.8c12.4-73.13.67-191.31-37.28-258.41Z"/>
    <path class="st17" d="M972.73,1349.68c3.71-44.16.22-85.6-11.65-128.42-5.23-4.65-5.1-4.09-8.09-9.93-55.74-10.34-90.92-16.96-148.76-19.86-10.71,3.04-17.53,5.21-24.44-4.94l-3.62-5.12c-48.48,18.68-7.45,90.97-12.05,137.57-5.57,56.47,136.84,46.62,178.26,60.87,36.06-3.02,20.6-11.53,30.35-30.18Z"/>
    <path class="st0" d="M989.91,1191.03c-17.52-25.18-132.97-21.58-164.2-26.33-24.25-4.01-31.53,3.47-49.53,16.71l3.62,5.12c6.91,10.15,13.72,7.98,24.44,4.94-3.33-1.15-10.26-2.92-12.93-5.59.44-.99.89-1.97,1.33-2.96,21.35-16.04,98.47-8.11,122.39-3.56,43.1,8.18,84.63-4.54,37.97,31.97,2.99,5.84,2.86,5.28,8.09,9.93,5.39-4.88,13.29-13.57,20.49-14.38,2.52,1.34,2.98,4.08,4.04,6.94l.1-.35c8.58,19.82,7.52,92.44,13.26,116.94,4.88,20.81-20.19,48.78-26.24,19.27-9.74,18.65,5.71,27.16-30.35,30.18,66.86,3.98,76.45-11.2,65.02-74.66-4.14-22.98-7.02-99.11-17.5-114.16Z"/>
    <path class="st14" d="M915.02,1179.36c-23.91-4.54-101.04-12.47-122.39,3.56-.44.98-.89,1.97-1.33,2.96,2.67,2.67,9.6,4.44,12.93,5.59,57.84,2.9,93.02,9.52,148.76,19.86,46.66-36.5,5.13-23.78-37.97-31.97Z"/>
    <path class="st14" d="M972.73,1349.68c6.05,29.5,31.12,1.53,26.24-19.27-5.74-24.5-4.68-97.12-13.26-116.94l-.1.35c-1.06-2.85-1.52-5.6-4.04-6.94-7.2.81-15.09,9.5-20.49,14.38,11.87,42.82,15.36,84.26,11.65,128.42Z"/>
    <path class="st21" d="M1042.68,1935.6c-17.14-.83-37.2-3.53-54.35-6.12-14.66-2.21-29.31-3.68-43.71-6.97-4.47-.81-8.93-1.61-13.4-2.41-29.67-6.03-55.3-21.39-82.2-33.96-10.98-1.41-36.21-27.57-44-27.55-26.09.08,13.59,37.28,21.62,43.06,4.04,2.89,9.03,5.06,13.49,7.27,2.48,2.98,3.26,2.88,6.85,4.77,108.17,49.48,171.8,49.91,286.55,54.16,14.11-.46,25.3-1.36,39.43-2.64,6.03-5.4,6.19-4.25,14.98-4.83,15.69-53.72,13.34-46.77-39.16-30.27-18.54,4.85-20.55,4.43-40.37,5.58-28.68,4.53-36.87,4.71-65.75-.1Z"/>
    <path class="st11" d="M1133.54,1967.86c-114.75-4.25-178.38-4.68-286.55-54.16-3.59-1.89-4.36-1.79-6.85-4.77-4.47-2.22-9.46-4.39-13.49-7.27-8.03-5.78-47.71-42.97-21.62-43.06,7.8-.02,33.03,26.14,44,27.55,26.89,12.57,52.53,27.93,82.2,33.96,4.47.81,8.93,1.61,13.4,2.41,14.4,3.29,29.05,4.76,43.71,6.97,17.15,2.59,37.21,5.29,54.35,6.12,21.92-.11,43.83-.07,65.75.1,19.82-1.15,21.83-.73,40.37-5.58-9.7-3.74-15.74-6.02-25.82-8.63-88.32,6.29-197.14-.64-274.86-49.36-20.8-13.03-31.08-18.42-52.95-29.21,26.47-51.85,53.69-98.47,62.69-156.42l-12.05,7.8c-2.98,41.72-43.98,110.07-61.94,153.44l1.55,17.95c40.29,87.26,225.43,117.1,312.79,113.58,4.51-17.25,18.49-.26,35.34-11.41Z"/>
    <path class="st4" d="M1108.43,1935.7c-21.91-.17-43.83-.21-65.75-.1,28.88,4.81,37.07,4.63,65.75.1Z"/>
    <path class="st12" d="M1216.92,1789.99c-.86-.42-1.76-.75-2.64-1.13-24.28,11.98-47.52,24.81-74.96,26.38-3.28.19-8.85.54-10.99,3.45-.69.94-1.16,2.11-1,3.29.17,1.17,1.28,2.21,2.23,2.75,1.6.91,3.29,1.66,4.93,2.51.59.31,1.18.65,1.77.97,25.15-3.18,62.51-4.21,80.52-25.02l-3.17,1.64c1.88-1.63,3.85-3.15,5.62-4.89,1.07-1.05,1.72-3.8,1.4-5.24-.46-2.12-1.76-3.76-3.71-4.7Z"/>
    <path class="st8" d="M1115.28,1859.2c-4.03,2.49-4.07,2.58-8.37,4.26,17.14,4.23,105.34-1.39,91.45-23.82-3.17-1.38-67.53,16.69-83.08,19.56Z"/>
    <path class="st2" d="M1103.04,1857.58c-.46,2.56,1.13,2.89,3.88,5.88,4.3-1.68,4.34-1.77,8.37-4.26-3.75-.85-8.41-2.61-12.24-1.62Z"/>
    <path class="st8" d="M1228.89,1748.59c-1.73-1.4-7.5-1.28-8.1-1.33-22.83,10.26-43.32,17.15-67.64,22.31-.93.2-6.13,1.05-7.18,2.3,0,.74-.06.81.65,1.64,1.86,2.17,4.54,3.61,6.92,5.12,22.62-1.52,57.01-1.42,73.79-20.3,1.62-1.82,3.03-4.58,2.8-7.09-.11-1.22-.32-1.93-1.24-2.66Z"/>
    <path class="st8" d="M1182.97,1719.8c-1.89.52-6.1,1.61-7.42,3.3-1.07,1.38-.75,5.86-.76,7,24.36-2.28,51.04-6.95,67.15-27.22,3.89-4.89,8.1-11.98,7.07-18.55-.39-2.52-1.39-4.9-2.15-7.33-20.24,22.76-34.51,34.74-63.88,42.8Z"/>
    <path class="st24" d="M881.04,1475.01c13.8,2.13,25.39,1.36,39.23-.14-16.91-7.01-47-15.76-64.94-12.69.04,2.12-.7,6.24,1.57,7.96,3.21,2.42,8.35,2.46,12.11,2.94,4.03.52,8.02,1.31,12.02,1.93Z"/>
    <path class="st8" d="M1217.09,1652.57l-2.76,3.14,9.79,6.72c25.03-27.73,37.82-61.79-7.03-9.86Z"/>
    <path class="st2" d="M874.9,1492.47c-4.74-.58-9.5-.9-14.26-1.29,2.5,1.41,5.01,2.79,7.49,4.24,1.69.98,3.32,2.06,5,3.06,15.54,9.17,32.67,5.59,49.76,3.79-12.47-5.07-19.43-6.53-32.93-7.85-5.04-.49-10.04-1.33-15.06-1.94Z"/>
    <path class="st24" d="M953.93,1472.37c-4.27-1.13-9.09-.97-13.4-1.26-5.12-.35-10.18-1.07-15.27-1.75,8.57,7.3,14.24,12.27,26.01,11.47,2.91-.2,5.58-1.4,8.28-2.37-1.7-3.29-2.05-5.12-5.62-6.08Z"/>
    <path class="st24" d="M1224.12,1662.44l-9.79-6.72c-27.94,15.23-6.95,12.88,9.79,6.72Z"/>
    <path class="st8" d="M261.28,847.54c55.25,150.21,176.27,199.27,325.36,216.87,25.58,3.02,59.83,12.93,86.08,10.36l12.95-6.62c-171.18-24.63-371.28-40.39-426.04-248.87-29.83-113.56-24.22-268.56-20.01-388.56,2.37-67.47,56.75-171.21,134.81-186.81,175.25-3.66,358.45,21.22,532.16,53.5,124.04,23.04,197.66,106.02,221.46,228.92,23.94,162.74,35.68,379.95-57.97,523.86l8.01,8.13c34.6-60.46,65.62-130.72,70.03-201.41,10.72-171.8,28.3-479.04-175.15-550.09-170.41-59.51-388.34-60.48-568.11-78.8,166.14-25.11,300.3,17.92,453.77,30.67,365.49,30.37,322.58,299.92,328.48,579.18,1.87,88.33-16.74,142.72-81.29,205.25,7.18,17.03,2.46,19.31-1.83,35.52,4.47-3.09,10.55-2.37,14.17,1.68,3.62,4.06,3.66,10.18.08,14.27-3.58,4.09-9.65,4.89-14.16,1.84,2.31,14.8.9,22.53-.31,37.4,18.66-5.21,24.51-5.93,43.95-7.97,1.69,71.2-.21,201.19,22.71,267.41,6.72,19.42,60.04,81.95,71.79,103.82,13.75,25.59,21.07,57.1,32.67,84.51l11.74,15.32c-16.94-96.6-60.82-139.47-113.59-215-13.98-112.99-16.21-252.95-11.03-366.94,1.4-30.69,27.52-73.46,29.84-101.46,8.4-101.25,10.36-272.93-4.77-370.58,130.22-50.66,276.14-83.28,409.05-128.41,40.91-13.89,83.47-28.18,125.12-39.44,11.39,10.4,13.52,27.2,18.57,43.89l7.57-3.91c-41.38-196.15-134.35-265.33-325.86-314.71C1059.01,6.9,668.04,129.65,327.02,253.73c-82.7,30.09-101.1,185.23-103.36,262.29.54,51.06,4.31,105.09,5.72,157.78,8.47,67.71,7.64,107.82,31.89,173.74ZM1709.23,322.22c28.52,61.51.38,46.59-61.91,66.14-40.03-130.16-33.34-117.4-122.07-214.27-4.5-3.37-4.03-2.51-6.86-6.8-22.34-18.57-44.11-33.24-67.24-51.11,128.79,34.19,204.31,90.02,258.09,206.04ZM1153.9,73.62c9.99.37,12.1.1,21.35,2.41l27.14.62c69.35,5.85,26.84,2.42,69.46,23.4l6.98,3.48c.85.4,1.69.79,2.54,1.19,18.45,13.13,27.85,21.28,49.28,29.21l.94-4.74c-24.57-24.13-35.8-29.09-65.79-45.79,84.34,8.23,77.08,29.14,140.24,68.44-20.01-30.32-36.19-38.18-66.57-56.7,166.64,22.44,253.4,147.14,300.03,297-148.97,40.72-304.3,92.76-453.05,138.33-6.05-67.49-33.78-131.2-79.06-181.62-79.94-89.75-171.36-86.66-280.9-104.92-115.46-19.25-223.86-29.56-340.64-36.8,138.58-51.94,517.88-138.03,668.04-133.5Z"/>
    <path class="st23" d="M1187.11,837.87c-5.9-279.27,37-548.82-328.48-579.18-153.47-12.75-287.63-55.78-453.77-30.67,179.77,18.32,397.7,19.29,568.11,78.8,203.45,71.05,185.88,378.29,175.15,550.09-4.41,70.69-35.43,140.95-70.03,201.41,9.18-5.19,18.42-10.26,27.73-15.21,64.55-62.52,83.15-116.92,81.29-205.25Z"/>
    <path class="st15" d="M1099.34,1087.56c.02,3.56,1.79,6.88,4.74,8.88,4.51,3.05,10.58,2.26,14.16-1.84,3.58-4.09,3.55-10.22-.08-14.27-3.62-4.05-9.7-4.78-14.17-1.68-2.93,2.02-4.67,5.36-4.65,8.92Z"/>
    <path class="st3" d="M1107.4,348.84c45.28,50.41,73.01,114.13,79.06,181.62,148.75-45.57,304.08-97.61,453.05-138.33-46.63-149.86-133.4-274.56-300.03-297,30.38,18.53,46.56,26.39,66.57,56.7-63.16-39.3-55.9-60.21-140.24-68.44,29.99,16.7,41.22,21.66,65.79,45.79l-.94,4.74c-21.43-7.93-30.84-16.08-49.28-29.21-7.73,11.8-7.18,10.66-6.99,25.09-25.1-8.09-45.47-23.74-71.04-32.35-9.69-3.26-31.14-1.01-34.35-9.45,9.37-2.78,20.22-2.27,30.31-2.64l3.11-8.72-27.14-.62c-7.12,5.64-12.55.52-21.35-2.41-150.15-4.52-529.45,81.56-668.04,133.5,116.77,7.24,225.18,17.55,340.64,36.8,109.54,18.25,200.96,15.16,280.9,104.92ZM1297.85,425.7c7.64,8.16,6.07,21.82,6.09,31.88-4.86-4.5-6.73-6.15-8.81-12.36-3.2-9.56-6.74-18.35-10.91-27.54,5.42,2.38,9.58,3.7,13.63,8.02ZM1243.64,417.88c14.38,10.23,20.43,37.82,23.35,54.11-6.86-3.69-10.39-5.22-12.91-12.91-5.02-15.31-11.85-29.39-16.02-45.05,1.86,1.28,3.74,2.53,5.58,3.85ZM1205.37,427.01c13.67,10.32,17.23,43.41,19.51,59.33-2.26-.33-5.95-.44-8.03-2.02-2.66-2.03-4.11-6.01-4.59-9.21-2.72-18.27-9.01-34.65-14.09-52.35,2.42,1.39,4.97,2.57,7.19,4.25Z"/>
    <path class="st14" d="M1274.38,129.81c-.19-14.43-.74-13.29,6.99-25.09-.85-.4-1.69-.79-2.54-1.19l-6.98-3.48c-42.62-20.99-.11-17.55-69.46-23.4l-3.11,8.72c32.32,10.52,56.31,14.07,75.09,44.44Z"/>
    <path class="st5" d="M1199.29,85.36c-10.09.37-20.94-.14-30.31,2.64,3.22,8.44,24.66,6.19,34.35,9.45,25.57,8.6,45.94,24.26,71.04,32.35-18.78-30.37-42.77-33.92-75.09-44.44Z"/>
    <path class="st9" d="M1175.25,76.03c-9.25-2.31-11.36-2.04-21.35-2.41,8.8,2.93,14.23,8.04,21.35,2.41Z"/>
    <path class="st8" d="M1216.85,484.32c2.08,1.58,5.77,1.68,8.03,2.02-2.28-15.92-5.85-49.01-19.51-59.33-2.22-1.67-4.78-2.86-7.19-4.25,5.08,17.7,11.37,34.08,14.09,52.35.48,3.2,1.93,7.18,4.59,9.21Z"/>
    <path class="st8" d="M1266.99,471.98c-2.91-16.29-8.96-43.87-23.35-54.11-1.84-1.31-3.72-2.57-5.58-3.85,4.16,15.66,10.99,29.74,16.02,45.05,2.52,7.69,6.05,9.21,12.91,12.91Z"/>
    <path class="st6" d="M1303.94,457.58c-.03-10.06,1.55-23.73-6.09-31.88-4.04-4.32-8.21-5.64-13.63-8.02,4.17,9.2,7.71,17.98,10.91,27.54,2.08,6.21,3.95,7.86,8.81,12.36Z"/>
    <path class="st3" d="M1525.24,174.1c88.73,96.87,82.05,84.1,122.07,214.27,62.29-19.55,90.43-4.63,61.91-66.14-53.79-116.02-129.31-171.85-258.09-206.04,23.14,17.87,44.91,32.54,67.24,51.11,2.84,4.29,2.37,3.44,6.86,6.8Z"/>
    <path class="st7" d="M943.04,591.92c-60.62,73.47-128.5,134.89-196.24,201.05-13.12,12.75-26.55,25.16-40.29,37.24-9.69,8.45-17.28,17.33-28.34,27.07-18.24,16.23-35.24,33.8-50.87,52.55,12.6,2.59,24.76,4.78,37.55,6.08,4.4,0,3.95-.16,7.91,1.88,33.54,3.92,65.74,5.43,98.14,17.15,48.52-69.01,95.2-119.58,156.48-177.88,10.28-9.79,37.43-45.63,48.72-50.01l2.37,2.11c-2.49,35.64-81.56,99.54-102.83,130.09-24.19,34.76-67.19,62.91-89.98,97.13,29.96,1.05,46.27,3.66,74.73,6.68,20.84-2.17,102.82-2.27,123.63-.62,48.14-40.63,44.84-96.89,40.06-156.11-2.6-18.04-6.58-36.26-2.45-53.79-3.46-44.69-7.54-89.49-11.1-134.2-4.53-20.59-6.86-34.4-17.26-52.84-16.15,15.58-36.09,29.25-50.25,46.41Z"/>
    <path class="st7" d="M735.75,647.43c26.63-34.58,79.33-79.45,109.67-111.98,14.8-15.87,14.25-21.42,28.75-37.4-61.86-4.76-134.71-12.18-196.25-20.21-19.83,11.2-88.47,89.88-113.06,111.71-54.54,48.43-95.3,104.18-153.57,151.86,2.49,32.49,7.67,65.49,11.05,98.09,31.12,34.73,48.54,37.66,91.65,53.9,48.05-78.32,162.33-168.8,221.77-245.98Z"/>
    <path class="st12" d="M358.8,755.29l.97-3.5c2.34-4.42,6.51-32.09,8.83-41.22-1.98-5.71-2.2-5.86-5.61-10.94l-8.66-10.53,3.5-16.13c11.73-11.34,12.52-10.34,28.05-13.57,23.78,7.97-6.01.6,20.09,22.51-11.84-73.43-10.13-148.56,9.99-220.15,45.85-3.45,87.52-.22,133.03,1.25,15.12.49,80.12,9.47,88.05,7.74,15.29,2.95,25.3,6.11,40.86,7.09,61.54,8.02,134.39,15.45,196.25,20.21,38.64,13.48,93.41,14.06,119.12,47.45,10.4,18.43,12.73,32.25,17.26,52.84l5.66,18.27c5.53-5.9,3.93-2.95,5.99-8.09-5.94-43.28-12.19-102.1-49.86-130.08-39.41-29.27-515.76-67.46-578.92-54.28-10.22,2.13-20.26,5.02-30.25,8.02-7.97,10.61-24.23,32.14-28.05,43.66-18.92,56.99-11.58,198.37-3.04,255.64,1.02,7.1,2.2,14.17,3.51,21.22l12.11-5.18c3.2,2.13,8.46,5.32,11.09,7.77Z"/>
    <path class="st7" d="M637.05,470.75c-7.93,1.73-72.93-7.25-88.05-7.74-45.51-1.48-87.17-4.7-133.03-1.25-20.12,71.59-21.83,146.72-9.99,220.15.66,6.72,1.19,12.65,1.63,19.42,50.61-63.37,166.77-180.59,229.44-230.58Z"/>
    <path class="st20" d="M564.86,589.55c24.59-21.83,93.23-100.51,113.06-111.71-15.57-.98-25.58-4.14-40.86-7.09-62.67,49.99-178.83,167.21-229.44,230.58.43,15.43,1.4,24.79,3.67,40.08,58.27-47.68,99.04-103.43,153.57-151.86Z"/>
    <path class="st10" d="M678.17,857.28c11.06-9.74,18.65-18.62,28.34-27.07,13.73-12.08,27.17-24.5,40.29-37.24,67.74-66.16,135.62-127.58,196.24-201.05,14.16-17.16,34.11-30.84,50.25-46.41-25.71-33.39-80.48-33.97-119.12-47.45-14.5,15.98-13.96,21.53-28.75,37.4-30.34,32.53-83.03,77.4-109.67,111.98-59.44,77.18-173.72,167.65-221.77,245.98,36.36,4.87,78.18,12.26,113.32,16.42,15.63-18.75,32.63-36.31,50.87-52.55ZM651.83,861.16c-1.25-1.94-.47-5.02-.38-7,.35-.14.7-.27,1.05-.41,1.5-.62,2.95-1.33,4.47-1.87.77-.27.89-.06,1.42.27.43,2.01.27.7-.19,3.93-.33.31-.67.6-1,.91-1.67,1.57-3.09,3.62-5.38,4.15Z"/>
    <path class="st18" d="M658.4,852.16c-.53-.34-.65-.55-1.42-.27-1.52.54-2.98,1.25-4.47,1.87-.35.14-.7.27-1.05.41-.09,1.97-.88,5.06.38,7,2.29-.53,3.7-2.58,5.38-4.15.33-.31.67-.61,1-.91.47-3.23.62-1.93.19-3.93Z"/>
    <path class="st8" d="M916.9,990.56c36.83-5.98,69.47-23.72,91.19-54.56,45.87-65.14,26.2-247.12,14.11-327.48-2.06,5.15-.46,2.2-5.99,8.09l-5.66-18.27c3.56,44.71,7.64,89.51,11.1,134.2,5.07,8.26,3.99,13.88,3.45,23.64-.49,10.04-.83,20.1-1.01,30.15,4.78,59.22,8.08,115.48-40.06,156.11-23.15,4.97-101.6,6.73-123.63.62-28.46-3.02-44.77-5.63-74.73-6.68l-14.77-1.43c-32.39-11.72-64.59-13.24-98.14-17.15-5,.14-4.84.74-7.91-1.88-12.79-1.31-24.95-3.49-37.55-6.08-35.14-4.17-76.95-11.55-113.32-16.42-43.11-16.24-60.53-19.17-91.65-53.9-3.38-32.6-8.56-65.6-11.05-98.09-2.26-15.29-3.23-24.66-3.67-40.08-.44-6.77-.97-12.7-1.63-19.42-26.11-21.91,3.69-14.54-20.09-22.51-15.53,3.23-16.32,2.23-28.05,13.57l-3.5,16.13,8.66,10.53c32.95-17.8,32.21-35.68,28.21,23.39-.33.11-.66.21-.99.31l-5.48-3.14,3.77-2.8-5.37,1.68c-4.92-3.64-8.93-5.53-14.53-8.5-2.32,9.12-6.49,36.79-8.83,41.22,3.16,1.59,6.32,3.17,9.48,4.76,5.67,3.33,11.43-.4,14.69-5.3,2.07-2.64,6.2-5.58,9.08-2.51,4.81,5.15,4.24,12.3,5.39,18.76,3.69,20.55,8.76,40.93,9.51,61.91.3,8.29.48,17.43-3.29,25.01-3.1,5.76-2.69,15.27,6.51,11.95,4.1-1.48,8.66-10.66,13.76-8.7,8.51,3.27,18.7,12.67,25.4,18.96.66.66.84,2.9.42,3.84-2.95,6.51-15.45,6.84-20.93,12.53-3.16,3.27-13.3,3.92-18.03,2.54-16.54-4.79-30.8-36-39.84-49.19-3.07-4.47-5.92-16.2-6.7-21.48-.95-9.65-4.91-14.39-8.42-22.95-4.27-10.43-3.24-30.01-.57-40.91.86-1.9,1.73-3.81,2.59-5.71-2.63-2.45-7.89-5.64-11.09-7.77l-12.11,5.18c.38,3.95.82,7.89,1.34,11.82,6.57,49.31,28.78,112.17,70.07,141.91,65.84,47.43,426.69,97.65,509.89,84.13ZM434.24,904.9l27.35-13.82c32.25-1.38,77.49,16.42,110.27,22.08,87.31,15.08,177.9,29.04,265.86,39.6,42.26,5.07,93.79-7.37,133.13,2.07-2.7,9.98-14.31,13.57-23.02,18.83-16.61,4.84-32.07,8.15-49.39,8.75-63.96,2.21-428.47-38.15-465.27-72.74l1.08-4.76Z"/>
    <path class="st10" d="M356.21,761c-2.67,10.9-3.71,30.48.57,40.91,3.51,8.56,7.47,13.3,8.42,22.95.78,5.28,3.64,17.01,6.7,21.48,9.04,13.19,23.31,44.4,39.84,49.19,4.74,1.37,14.87.73,18.03-2.54,5.48-5.68,17.98-6.02,20.93-12.53.43-.94.25-3.18-.42-3.84-6.69-6.3-16.89-15.69-25.4-18.96-5.1-1.96-9.66,7.22-13.76,8.7-9.19,3.31-9.6-6.2-6.51-11.95,3.77-7.58,3.59-16.71,3.29-25.01-.75-20.97-5.82-41.36-9.51-61.91-1.16-6.46-.58-13.62-5.39-18.76-2.87-3.07-7-.14-9.08,2.51-3.26,4.9-9.02,8.63-14.69,5.3-3.16-1.59-6.32-3.17-9.48-4.76l-.97,3.5c-.86,1.9-1.73,3.81-2.59,5.71Z"/>
    <path class="st22" d="M383.14,719.07l5.37-1.68-3.77,2.8,5.48,3.14c.33-.11.66-.21.99-.31,4-59.07,4.74-41.19-28.21-23.39,3.41,5.09,3.63,5.23,5.61,10.94,5.6,2.97,9.61,4.86,14.53,8.5Z"/>
    <path class="st4" d="M860.4,943.06c22.03,6.11,100.48,4.35,123.63-.62-20.82-1.65-102.8-1.56-123.63.62Z"/>
    <path class="st21" d="M1024.1,786.33c.18-10.05.51-20.11,1.01-30.15.54-9.76,1.61-15.38-3.45-23.64-4.13,17.53-.16,35.75,2.45,53.79Z"/>
    <path class="st4" d="M664.85,915.91c3.07,2.62,2.91,2.02,7.91,1.88-3.96-2.04-3.5-1.88-7.91-1.88Z"/>
    <path class="st16" d="M898.44,982.4c17.33-.6,32.78-3.91,49.39-8.75,8.72-5.25,20.32-8.85,23.02-18.83-39.33-9.44-90.86,3.01-133.13-2.07-87.96-10.56-178.55-24.52-265.86-39.6-32.78-5.66-78.02-23.46-110.27-22.08l-27.35,13.82-1.08,4.76c36.8,34.59,401.31,74.95,465.27,72.74Z"/>
    <path class="st16" d="M875.64,839.25c21.26-30.55,100.34-94.45,102.83-130.09l-2.37-2.11c-11.29,4.39-38.44,40.23-48.72,50.01-61.28,58.3-107.96,108.88-156.48,177.88l14.77,1.43c22.79-34.22,65.79-62.37,89.98-97.13Z"/>
    <path class="st24" d="M349.85,295.15c-14.02,13.15-66.07,65.39-65.61,85.94.03,1.4.57,2.87,1.68,3.78.97.79,2.07,1.43,3.1,2.15l4.46-7.35,3.33-5.62c6.2-10.23,58.65-68.35,58.37-72.83-.12-1.99-4.17-4.97-5.33-6.06Z"/>
    <path class="st6" d="M333.71,368.46c1.01.72,2.13,1.26,3.2,1.89,13.83-15.83,24.6-33.38,38.8-49.1,1.4-1.55,3.86-3.47,3.44-5.89-.43-2.5-5.28-6.13-6.05-6.84-9.22,11.17-40.26,44.18-40.37,58.05,0,.82.27,1.39.98,1.89Z"/>
  </g>
</svg>