<?xml version="1.0" encoding="UTF-8"?>
<svg id="Layer_1" xmlns="http://www.w3.org/2000/svg" version="1.1" viewBox="0 0 2048 2048">
  <!-- Generator: Adobe Illustrator 30.3.0, SVG Export Plug-In . SVG Version: 2.1.3 Build 182)  -->
  <defs>
    <style>
      .st0 {
        fill: #331711;
      }

      .st1 {
        fill: #f27e5f;
      }

      .st2 {
        fill: #64594c;
      }

      .st3 {
        fill: #eccb72;
      }

      .st4 {
        fill: #053d4f;
      }

      .st5 {
        fill: #221613;
      }

      .st6 {
        fill: #352a20;
      }

      .st7 {
        fill: #01576e;
      }

      .st8 {
        fill: #202220;
      }

      .st9 {
        fill: #9d937e;
      }

      .st10 {
        fill: #91bbb7;
      }

      .st11 {
        fill: #08303e;
      }

      .st12 {
        fill: #070b0e;
      }

      .st13 {
        fill: #f7bb5c;
      }

      .st14 {
        fill: #eedfc1;
      }

      .st15 {
        fill: #121619;
      }

      .st16 {
        fill: #eee2ca;
      }

      .st17 {
        fill: #0b2129;
      }

      .st18 {
        fill: #507070;
      }

      .st19 {
        fill: #268fa5;
      }

      .st20 {
        fill: #f2ecdf;
      }

      .st21 {
        fill: #044c62;
      }

      .st22 {
        fill: #4b4a4a;
      }

      .st23 {
        fill: #fbc170;
      }

      .st24 {
        fill: #41392f;
      }
    </style>
  </defs>
  <circle class="st19" cx="1024" cy="1024" r="1024"/>
  <g>
    <path class="st3" d="M1099.91,1134.43c90.14-138.52,78.84-347.6,55.8-504.25-22.91-118.3-93.78-198.17-213.17-220.35-167.22-31.07-343.55-55.02-512.24-51.5-75.13,15.02-127.48,114.87-129.76,179.82-4.05,115.51-9.45,264.7,19.26,374.01,52.7,200.68,245.32,215.84,410.09,239.55,47.19,8.49,94.51,14.69,141.54,22.37,86.43,14.12,158.86,24.68,228.48-39.65h0ZM434.84,427.11c.4,2.33-1.96,4.19-3.31,5.67-13.67,15.12-24.04,32.02-37.35,47.26-1.03-.61-2.11-1.13-3.08-1.82-.68-.48-.95-1.03-.94-1.82.11-13.36,29.98-45.13,38.86-55.88.73.69,5.4,4.19,5.82,6.58h0ZM352.38,488.99l-4.29,7.07c-.99-.69-2.05-1.3-2.98-2.07-1.07-.88-1.59-2.29-1.62-3.64-.44-19.79,49.66-70.06,63.15-82.72,1.12,1.05,5.01,3.92,5.13,5.83.26,4.31-50.22,60.26-56.18,70.1l-3.21,5.41h0ZM461.66,996.04c-39.74-28.63-61.12-89.13-67.45-136.6-.5-3.78-.92-7.58-1.29-11.38-1.27-6.79-2.4-13.59-3.38-20.43-8.22-55.13-15.29-191.21,2.93-246.07,3.68-11.08,19.33-31.81,27-42.03,9.62-2.89,19.28-5.67,29.12-7.72,60.8-12.69,519.3,24.07,557.25,52.25,36.27,26.93,42.29,83.55,47.99,125.21,11.65,77.35,30.58,252.52-13.58,315.22-20.91,29.69-52.33,46.76-87.78,52.52-80.09,13.01-427.43-35.33-490.8-80.98h0Z"/>
    <path class="st13" d="M1621.91,1655.35c-.53,2.27-1.88,5.06-.93,7.42.43.2.43.25,1.15.05,1.41-.39,4.98-2.57,5.32-2.76.41-.22.83-.43,1.24-.65-.19-2.52.2-4.24-1.15-6.14-2.27-.2-3.4.96-5.62,2.09h0Z"/>
    <path class="st23" d="M1726.72,484.6c-40.09,10.84-81.06,24.59-120.44,37.96-127.94,43.44-268.39,74.84-393.74,123.6,14.56,93.99,12.68,259.25,4.59,356.71-2.23,26.94-27.38,68.12-28.72,97.66-5,109.71-2.84,244.44,10.62,353.2,50.78,72.7,93.02,113.97,109.34,206.95,6.88,29.07,4.76,50.26-.68,78.87l-.94,5.45c-.3,7.35.22,8.18-2.63,14.46l-2.7,24.81c-.22,3.81-.17,3.9-1.39,7.55-16.58,70.62-24.71,102.07-62.03,164,54.42-21.31,115.41-37.57,166.02-61.3,3.09-15.85,5.99-15.27-7.36-23.88,10.66-15.2,35.95-28.83,52.93-35.97,13.81,8.4,6.65,9.28,22.17,1.29,14.06-102.87-2.43-201.08-52.1-292.23-35.69-65.49-71.81-107.02-73.92-185.11-3.31-122.19,40.75-294.55,153.03-360.36,46.71-27.38,135.64-66.3,168.27-105.64,87.21-105.2,85.75-239.84,77.58-365.75-4.85-16.07-6.91-32.24-17.87-42.25h-.02ZM1418.38,1756.45c.68-3.72,5.29-7.42,8.11-9.67,7.14-5.7,14.15-11.31,20.99-17.36,1.27,1.17,2.73,2.19,3.72,3.62,1.27,1.85.84,4.74.15,6.72-2.29,6.67-8.87,11.11-14.8,14.2-5,2.59-9.98,5.16-14.94,7.83-1.07-.4-2.19-.51-2.79-1.58-.69-1.24-.7-2.37-.45-3.75h0ZM1443.15,1764.87c.96.9,1.97,1.76,2.9,2.71,1.69,1.76,2.48,3.84,2.12,6.3-1.41,9.3-18.8,17.8-25.51,22.69l-3.08,2.27c-1.64-1.74-5.35-4.5-5.21-7.58.42-9.56,22.34-21.17,28.79-26.37h0ZM1403.04,1832.67c1.51-10.35,35.13-27.63,44.31-33.41,1.52,1.34,3.35,2.44,4.43,4.17.62.98.63,1.98.27,3.08-3.55,11.07-35.69,26.29-45.2,32.08-1.5-1.57-4.19-3.33-3.81-5.92h0ZM1679.99,740.92c-35.87,19.8-72.09,37.78-111.02,50.9-44.3,14.93-86.87,35.19-131.72,48.58-5.14,1.5-10.19,3.05-15.48,3.99-13.43,2.4-31.12,3.45-42.7-5.54-4.56-3.54-5.93-7.98-6.32-13.56-.64-9.11-1.75-17.72-2.98-26.75l-1.13-8.76c-2.02-14.87,1.47-52.71-5.17-63.19-.61-.94-1.62-1.68-1.94-2.75l.74-.29c63.38-32.69,129.24-58.34,198.01-77.77,2.37-.66,4.68-1.5,7.04-2.19,2.85-.84,5.73-1.58,8.59-2.42,10.35-3.01,20.4-6.21,30.43-10.16,27.26-.71,50.35,4.57,76.98,9.28,2.39,32.59,2.46,64.58,3.21,97.21-2.18,1.15-4.37,2.25-6.52,3.44h0Z"/>
    <path class="st15" d="M1425.72,1536.36c-29.86-49.59-65.47-102.58-68.61-160.97-6.46-120.14,29.68-296.74,139.85-365.07,54.8-34,143.76-67.81,181.79-117.22,84.12-109.3,84.42-242.14,73.14-370.02l-7.29,3.76c8.17,125.91,9.63,260.55-77.58,365.75-32.61,39.34-121.54,78.27-168.27,105.64-112.29,65.81-156.35,238.18-153.03,360.36,2.12,78.09,38.23,119.62,73.92,185.11,49.68,91.15,66.17,189.36,52.1,292.23-13.93,36.07-29.89,46.3-67.74,58.56-50.62,23.72-111.6,39.98-166.02,61.3,37.32-61.92,45.45-93.38,62.03-164,1.21-3.65,1.16-3.73,1.39-7.55l2.7-24.81c2.85-6.27,2.33-7.09,2.63-14.46l.94-5.45c-2.51-24.65-1.86-54.24.68-78.87l-11.3-14.75c10.46,108.63-11.22,217.44-72.09,308.74-24.94,9.56-46.88,17.23-74.17,18.41,9.7,2.51,15.52,4.71,24.85,8.31,50.53-15.88,52.8-22.57,37.69,29.14-5.68,5.78-6.56,5.02-14.42,4.65-13.61,1.22-24.37,2.1-37.95,2.54-16.22,10.73-29.68-5.62-34.02,10.98,35.91,4.85,104.18-5.27,138.52-18.9,91.49-36.31,165.07-61.56,210.24-152.68,25.77-105.96,5.85-227.97-50.01-320.77h0Z"/>
    <path class="st4" d="M1213.36,2010.54c-8.47.57-8.62-.55-14.42,4.65,7.87.38,8.75,1.13,14.42-4.65Z"/>
    <path class="st21" d="M1449.59,1834.66c-5.6,22.14-32.06,33.24-52.93,35.97,13.34,8.61,10.45,8.03,7.36,23.88,37.85-12.26,53.81-22.5,67.74-58.56-15.52,7.99-8.36,7.11-22.17-1.29h0Z"/>
    <path class="st17" d="M1449.59,1834.66c-16.98,7.14-42.28,20.77-52.93,35.97,20.87-2.73,47.33-13.83,52.93-35.97Z"/>
    <path class="st4" d="M1308.36,1660.69c-2.54,24.62-3.2,54.22-.68,78.87,5.45-28.61,7.57-49.8.68-78.87h0Z"/>
    <path class="st0" d="M1606.32,631c-10.03,3.96-20.08,7.15-30.43,10.16-2.85.83-5.74,1.57-8.59,2.42-2.36.69-4.67,1.53-7.04,2.19-68.76,19.43-134.62,45.08-198.01,77.77l-.74.29c.33,1.08,1.35,1.81,1.94,2.75,6.64,10.48,3.15,48.33,5.17,63.19l1.13,8.76c1.23,9.03,2.34,17.65,2.98,26.75.39,5.58,1.76,10.02,6.32,13.56,11.58,8.98,29.27,7.94,42.7,5.54,5.28-.94,10.34-2.49,15.48-3.99,44.85-13.39,87.42-33.65,131.72-48.58,38.94-13.12,75.16-31.1,111.02-50.9,2.15-1.18,4.34-2.29,6.52-3.44-.74-32.62-.83-64.62-3.21-97.21-26.62-4.71-49.72-9.99-76.98-9.28h0ZM1387.89,719.47c8.14-16.15,185.71-68.43,214.98-76.39,8.71-1.68,17.1-2.96,25.98-1.62,1.81.27,10.44,1.6,11.5,2.98h-.02c-51.47,26.61-159.05,58.99-217.43,78.44-8.68,3.26-21.32,4.59-30.34,2.01-1.58-.45-3.97-1.3-4.71-2.99-.34-.78-.37-1.66.03-2.44h0ZM1399.26,831.64c-3.68.54-7.99-.64-10.82-3.1-4.3-3.73-5.66-8.83-6.11-14.3-.25-2.98-.44-5.98-.89-8.94-3.8-25.18-4.36-50.48-5.64-75.87,1.84.72,7.41,2.94,9.3,3.52,5.01,1.55,13.03,2.57,16.83,7.1,1.83,2.19,1.66,9.43,1.43,12.09-2.14,26.1.12,52.47,1.13,78.62-1.74.29-3.47.62-5.23.88ZM1676.67,728.69c-1.97,1.32-3.98,2.61-5.93,3.97-62.64,43.36-172.19,76.46-246.2,101.37-3.2-.08-4.44.05-6.62-2.43-12.02-13.65-5.58-77.05-5.27-96.09,67.24-21.55,132.97-47.41,200.1-68.78,17.96-5.71,35.61-12.32,52.92-19.79,2.54.61,4.19.75,6.09,2.52,11.19,10.45,4.86,62.79,4.91,79.23h0Z"/>
    <path class="st23" d="M1665.67,646.94c-17.31,7.47-34.96,14.07-52.92,19.79-67.13,21.37-132.85,47.22-200.1,68.78-.32,19.04-6.77,82.44,5.27,96.09,2.19,2.48,3.43,2.35,6.62,2.43,74.01-24.91,183.56-58,246.2-101.37,1.95-1.36,3.96-2.65,5.93-3.97-.05-16.43,6.29-68.77-4.91-79.23-1.91-1.77-3.56-1.92-6.09-2.52h0ZM1474.38,768.81c-2.72,1.19-1.53.91-3.45,1.22l-.37-.35c-.25-1.89-.15-.6.19-3.88,1.19-.62,2.37-1.29,3.59-1.84.91-.41.84-.39,1.36-.15.38,1.56-.9,3.83-1.33,4.99h0Z"/>
    <path class="st1" d="M1474.35,763.97c-1.23.55-2.4,1.22-3.59,1.84-.34,3.28-.44,1.99-.19,3.88l.37.35c1.92-.31.73-.03,3.45-1.22.42-1.16,1.7-3.43,1.33-4.99-.52-.23-.44-.26-1.36.15h0Z"/>
    <path class="st14" d="M1392.55,724.9c9.02,2.59,21.66,1.25,30.34-2.01,58.37-19.45,165.96-51.82,217.43-78.44h.02c-1.07-1.39-9.7-2.71-11.5-2.98-8.87-1.34-17.27-.06-25.98,1.62-29.27,7.96-206.83,60.24-214.98,76.39-.39.78-.37,1.66-.03,2.44.73,1.69,3.13,2.54,4.71,2.99h0Z"/>
    <path class="st14" d="M1403.36,752.14c.21-2.66.39-9.9-1.43-12.09-3.78-4.53-11.81-5.54-16.83-7.1-1.9-.59-7.46-2.8-9.3-3.52,1.27,25.39,1.84,50.69,5.64,75.87.44,2.96.64,5.96.89,8.94.45,5.48,1.82,10.57,6.11,14.3,2.83,2.45,7.14,3.64,10.82,3.1,1.75-.26,3.48-.58,5.23-.88-1.01-26.16-3.26-52.54-1.13-78.62Z"/>
    <path class="st17" d="M1406.85,1838.59c9.51-5.79,41.66-21.01,45.2-32.08.36-1.1.35-2.1-.27-3.08-1.08-1.71-2.91-2.83-4.43-4.17-9.17,5.79-42.81,23.06-44.31,33.41-.38,2.59,2.31,4.35,3.81,5.92h0Z"/>
    <path class="st17" d="M1419.57,1798.83l3.08-2.27c6.72-4.89,24.1-13.39,25.51-22.69.37-2.44-.42-4.53-2.12-6.3-.91-.95-1.93-1.81-2.9-2.71-6.44,5.21-28.36,16.83-28.79,26.37-.14,3.08,3.57,5.85,5.21,7.58h0Z"/>
    <path class="st17" d="M1421.61,1761.78c4.96-2.67,9.94-5.23,14.94-7.83,5.94-3.09,12.51-7.53,14.8-14.2.68-1.98,1.12-4.87-.15-6.72-.98-1.42-2.44-2.44-3.72-3.62-6.85,6.04-13.85,11.66-20.99,17.36-2.82,2.25-7.43,5.96-8.11,9.67-.26,1.4-.24,2.52.45,3.75.6,1.07,1.72,1.17,2.79,1.58h0Z"/>
    <path class="st3" d="M1196.52,1464.66c-22.06-63.74-20.23-188.86-21.86-257.4-18.71,1.96-24.34,2.66-42.3,7.67l-.26,4.54c-13.54,279.1,103.11,344.54-272.34,278.69,36.53,64.59,47.82,178.34,35.88,248.74-8.66,55.78-34.86,100.66-60.34,150.56,21.04,10.39,30.95,15.57,50.97,28.12,74.81,46.9,179.56,53.56,264.57,47.51,27.29-1.18,49.23-8.86,74.17-18.41,60.85-91.3,82.54-200.11,72.09-308.74-11.17-26.38-18.21-56.71-31.45-81.35-11.31-21.05-62.63-81.24-69.1-99.93h-.02ZM893.2,1530.98c17.27-2.96,46.23,5.47,62.51,12.21-13.32,1.45-24.48,2.19-37.76.13-3.86-.6-7.7-1.36-11.57-1.86-3.63-.46-8.57-.5-11.66-2.83-2.19-1.66-1.47-5.62-1.51-7.66h0ZM910.33,1565.9c-1.62-.95-3.19-1.99-4.81-2.95-2.39-1.4-4.8-2.71-7.21-4.08,4.58.39,9.16.69,13.73,1.24,4.83.59,9.64,1.4,14.5,1.87,13,1.27,19.69,2.68,31.7,7.56-16.46,1.73-32.94,5.18-47.9-3.65h0ZM985.55,1548.92c-11.33.78-16.79-4-25.04-11.04,4.89.65,9.76,1.35,14.7,1.68,4.15.28,8.79.13,12.9,1.21,3.44.91,3.78,2.69,5.41,5.85-2.6.94-5.18,2.1-7.97,2.28h0ZM1135.36,1917.24c-2.65-2.88-4.18-3.21-3.73-5.66,3.69-.95,8.17.75,11.78,1.56,14.97-2.77,76.92-20.16,79.97-18.83,13.37,21.6-71.53,27-88.03,22.93h0ZM1243.46,1856.09c-1.7,1.67-3.61,3.14-5.41,4.71l3.05-1.58c-17.34,20.02-53.3,21.01-77.51,24.08-.57-.31-1.13-.64-1.7-.93-1.58-.82-3.21-1.53-4.75-2.42-.91-.52-1.98-1.52-2.15-2.65-.15-1.14.3-2.26.96-3.17,2.06-2.8,7.41-3.14,10.58-3.32,26.42-1.51,48.78-13.86,72.15-25.39.85.37,1.71.68,2.54,1.09,1.87.9,3.13,2.48,3.57,4.52.3,1.39-.33,4.04-1.35,5.04h0ZM1251.27,1816.04c-16.15,18.17-49.25,18.08-71.03,19.54-2.29-1.45-4.87-2.84-6.66-4.93-.69-.81-.63-.88-.63-1.58,1.01-1.2,6.02-2.02,6.91-2.21,23.42-4.97,43.13-11.61,65.11-21.47.58.06,6.13-.07,7.8,1.28.88.7,1.08,1.39,1.19,2.56.22,2.41-1.14,5.07-2.7,6.82h0ZM1265.33,1762.67c-15.51,19.51-41.19,24.01-64.64,26.2.02-1.1-.3-5.41.73-6.74,1.27-1.63,5.32-2.68,7.14-3.18,28.27-7.76,42-19.29,61.49-41.2.73,2.34,1.69,4.64,2.07,7.06.99,6.32-3.06,13.15-6.81,17.86h0ZM1248.18,1723.74c-16.11,5.93-36.32,8.19-9.42-6.47l2.66-3.02c43.17-49.98,30.86-17.19,6.77,9.49Z"/>
    <path class="st23" d="M963.88,1215.06c-39.58-2.5-81.5-5.62-120.7-11.21-3.82-.54-7.6-1.27-11.43-1.77-16.87-2.2-83.39-16.34-94.21-9.21-1.7,1.13-2.69,3.4-3.14,5.3-.26,1.14-.43,2.28-.67,3.41-.37,1.67-.78,3.34-1.16,5.01,10.33,62.26-1.59,183.66,20.59,234.5,21.74,49.83,245.4,67.14,289.98,72.55,101.46,12.32,88.57-70.33,84.5-140.37-1.76-52.16-2.48-103.75-7.44-155.11-6.6.11-13.23.11-19.82.49-46.02,2.69-90.67-.67-136.52-3.58h0ZM977,1451.73c-39.87-13.71-176.95-4.23-171.59-58.59,4.43-44.86-35.07-114.44,11.6-132.42,17.33-12.74,24.34-19.94,47.68-16.08,30.06,4.57,141.18,1.11,158.05,25.34,10.09,14.49,12.86,87.77,16.84,109.89,11,61.09,1.76,75.71-62.59,71.86h0Z"/>
    <path class="st12" d="M733.74,1201.58c.25-1.14.41-2.28.67-3.41.45-1.91,1.43-4.18,3.14-5.3,10.81-7.13,77.32,7.01,94.21,9.21,3.82.5,7.61,1.23,11.43,1.77,39.2,5.59,81.11,8.71,120.7,11.21,45.85,2.91,90.49,6.27,136.52,3.58,6.59-.39,13.22-.39,19.82-.49,4.12-1.15,7.96-2.23,12.13-3.22,1.16-14.3,2.51-21.75.3-36-2.84-1.92-4.55-5.11-4.56-8.55-.02-3.43,1.66-6.64,4.48-8.59,4.14-15.6,8.68-17.8,1.76-34.19-8.96,4.76-17.87,9.64-26.69,14.64l-7.71-7.83c-69.62,64.33-142.05,53.77-228.48,39.65-47.03-7.68-94.35-13.88-141.54-22.37l-12.47,6.37c10.53,26.09,8.54,24.04,8.58,52.1l6.58-3.6c.39-1.67.79-3.33,1.16-5.01h0Z"/>
    <path class="st6" d="M859.74,1498.16c375.45,65.85,258.79.41,272.34-278.69l.26-4.54c-4.17.99-8.01,2.08-12.13,3.22,4.96,51.35,5.67,102.95,7.44,155.11,4.06,70.04,16.95,152.69-84.5,140.37-44.59-5.41-268.24-22.72-289.98-72.55-22.18-50.84-10.26-172.24-20.59-234.5l-6.58,3.6c-.06,50.93-4.73,229.09,30.21,248.49,77.83,43.22,121.6,38.95,129.2,156.71,2.72,42.22,8.16,89.41-1.38,139.03l11.6-7.51c11.94-70.39.64-184.15-35.88-248.74h0Z"/>
    <path class="st17" d="M1006.2,1422.69c3.57-42.51.21-82.4-11.21-123.61-5.03-4.48-4.91-3.94-7.79-9.56-53.65-9.95-87.52-16.33-143.19-19.12-10.31,2.93-16.87,5.01-23.53-4.76l-3.48-4.93c-46.67,17.98-7.17,87.56-11.6,132.42-5.36,54.36,131.72,44.87,171.59,58.59,34.71-2.91,19.83-11.1,29.21-29.05h0Z"/>
    <path class="st0" d="M1022.74,1269.98c-16.86-24.24-127.99-20.77-158.05-25.34-23.34-3.86-30.35,3.34-47.68,16.08l3.48,4.93c6.65,9.77,13.21,7.68,23.53,4.76-3.21-1.11-9.88-2.81-12.45-5.38.42-.95.86-1.9,1.28-2.85,20.55-15.44,94.78-7.81,117.81-3.43,41.49,7.87,81.46-4.37,36.55,30.77,2.88,5.62,2.75,5.08,7.79,9.56,5.19-4.7,12.79-13.06,19.72-13.84,2.43,1.29,2.87,3.93,3.89,6.68l.1-.34c8.26,19.08,7.24,88.98,12.76,112.56,4.7,20.03-19.43,46.95-25.26,18.55-9.38,17.95,5.5,26.14-29.21,29.05,64.36,3.83,73.59-10.78,62.59-71.86-3.99-22.12-6.76-95.4-16.84-109.89h0Z"/>
    <path class="st14" d="M950.65,1258.75c-23.01-4.37-97.26-12-117.81,3.43-.42.94-.86,1.9-1.28,2.85,2.57,2.57,9.24,4.27,12.45,5.38,55.67,2.79,89.54,9.16,143.19,19.12,44.91-35.13,4.94-22.89-36.55-30.77Z"/>
    <path class="st14" d="M1006.2,1422.69c5.82,28.4,29.95,1.47,25.26-18.55-5.53-23.58-4.5-93.48-12.76-112.56l-.1.34c-1.02-2.74-1.46-5.39-3.89-6.68-6.93.78-14.53,9.14-19.72,13.84,11.43,41.22,14.78,81.11,11.21,123.61h0Z"/>
    <path class="st21" d="M1073.53,1986.68c-16.5-.8-35.81-3.4-52.32-5.89-14.11-2.13-28.21-3.54-42.07-6.71-4.3-.78-8.6-1.55-12.9-2.32-28.56-5.8-53.23-20.59-79.12-32.69-10.57-1.36-34.85-26.54-42.35-26.52-25.11.08,13.08,35.88,20.81,41.45,3.89,2.78,8.69,4.87,12.98,7,2.39,2.87,3.14,2.77,6.59,4.59,104.12,47.63,165.37,48.04,275.82,52.13,13.58-.44,24.35-1.31,37.95-2.54,5.8-5.2,5.96-4.09,14.42-4.65,15.1-51.71,12.84-45.02-37.69-29.14-17.85,4.67-19.78,4.26-38.86,5.37-27.61,4.36-35.49,4.53-63.29-.1h.02Z"/>
    <path class="st11" d="M1160.99,2017.73c-110.45-4.09-171.7-4.5-275.82-52.13-3.46-1.82-4.2-1.72-6.59-4.59-4.3-2.14-9.11-4.23-12.98-7-7.73-5.56-45.92-41.36-20.81-41.45,7.51-.02,31.79,25.16,42.35,26.52,25.88,12.1,50.56,26.88,79.12,32.69,4.3.78,8.6,1.55,12.9,2.32,13.86,3.17,27.96,4.58,42.07,6.71,16.51,2.49,35.82,5.09,52.32,5.89,21.1-.11,42.19-.07,63.29.1,19.08-1.11,21.01-.7,38.86-5.37-9.34-3.6-15.15-5.79-24.85-8.31-85.01,6.05-189.76-.62-264.57-47.51-20.02-12.54-29.92-17.73-50.97-28.12,25.48-49.91,51.68-94.78,60.34-150.56l-11.6,7.51c-2.87,40.16-42.33,105.95-59.62,147.7l1.49,17.28c38.78,83.99,216.99,112.72,301.08,109.33,4.34-16.6,17.8-.25,34.02-10.98h-.02Z"/>
    <path class="st4" d="M1136.82,1986.77c-21.09-.16-42.19-.2-63.29-.1,27.8,4.63,35.68,4.46,63.29.1Z"/>
    <path class="st12" d="M1241.25,1846.52c-.83-.4-1.69-.72-2.54-1.09-23.37,11.53-45.74,23.88-72.15,25.39-3.16.18-8.52.52-10.58,3.32-.66.9-1.12,2.03-.96,3.17.16,1.13,1.23,2.13,2.15,2.65,1.54.88,3.17,1.6,4.75,2.42.57.3,1.14.63,1.7.93,24.21-3.06,60.17-4.05,77.51-24.08l-3.05,1.58c1.81-1.57,3.71-3.03,5.41-4.71,1.03-1.01,1.66-3.66,1.35-5.04-.44-2.04-1.69-3.62-3.57-4.52h0Z"/>
    <path class="st8" d="M1143.41,1913.14c-3.88,2.4-3.92,2.48-8.06,4.1,16.5,4.07,101.4-1.34,88.03-22.93-3.05-1.33-65,16.07-79.97,18.83h0Z"/>
    <path class="st2" d="M1131.63,1911.58c-.44,2.46,1.09,2.78,3.73,5.66,4.14-1.62,4.18-1.7,8.06-4.1-3.61-.82-8.1-2.51-11.78-1.56h0Z"/>
    <path class="st8" d="M1252.77,1806.67c-1.67-1.35-7.22-1.23-7.8-1.28-21.98,9.88-41.7,16.51-65.11,21.47-.9.19-5.9,1.01-6.91,2.21,0,.71-.06.78.63,1.58,1.79,2.09,4.37,3.47,6.66,4.93,21.77-1.46,54.88-1.37,71.03-19.54,1.56-1.75,2.92-4.41,2.7-6.82-.11-1.17-.31-1.86-1.19-2.56h0Z"/>
    <path class="st8" d="M1208.57,1778.96c-1.82.5-5.87,1.55-7.14,3.18-1.03,1.33-.72,5.64-.73,6.74,23.45-2.19,49.13-6.69,64.64-26.2,3.74-4.71,7.8-11.53,6.81-17.86-.38-2.43-1.34-4.72-2.07-7.06-19.48,21.91-33.22,33.44-61.49,41.2h0Z"/>
    <path class="st24" d="M917.94,1543.33c13.28,2.05,24.44,1.31,37.76-.13-16.28-6.75-45.24-15.17-62.51-12.21.04,2.04-.67,6.01,1.51,7.66,3.09,2.33,8.04,2.37,11.66,2.83,3.88.5,7.72,1.26,11.57,1.86h0Z"/>
    <path class="st8" d="M1241.41,1714.24l-2.66,3.02,9.42,6.47c24.09-26.69,36.4-59.48-6.77-9.49Z"/>
    <path class="st2" d="M912.03,1560.14c-4.56-.56-9.14-.87-13.73-1.24,2.41,1.36,4.82,2.69,7.21,4.08,1.63.94,3.2,1.98,4.81,2.95,14.96,8.83,31.45,5.38,47.9,3.65-12-4.88-18.7-6.29-31.7-7.56-4.85-.47-9.66-1.28-14.5-1.87h0Z"/>
    <path class="st24" d="M988.11,1540.79c-4.11-1.09-8.75-.93-12.9-1.21-4.93-.34-9.8-1.03-14.7-1.68,8.25,7.03,13.71,11.81,25.04,11.04,2.8-.19,5.37-1.35,7.97-2.28-1.64-3.17-1.97-4.93-5.41-5.85h0Z"/>
    <path class="st24" d="M1248.18,1723.74l-9.42-6.47c-26.89,14.66-6.69,12.4,9.42,6.47Z"/>
    <path class="st8" d="M321.39,939.35c53.18,144.59,169.67,191.81,313.18,208.75,24.62,2.91,57.59,12.45,82.86,9.97l12.47-6.37c-164.77-23.71-357.38-38.88-410.09-239.55-28.71-109.31-23.31-258.51-19.26-374.01,2.28-64.94,54.63-164.8,129.76-179.82,168.69-3.52,345.03,20.43,512.24,51.5,119.4,22.18,190.26,102.05,213.17,220.35,23.04,156.65,34.34,365.73-55.8,504.25l7.71,7.83c33.3-58.2,63.16-125.83,67.41-193.87,10.32-165.37,27.24-461.11-168.59-529.5-164.03-57.28-373.8-58.22-546.84-75.85,159.92-24.17,289.06,17.25,436.78,29.52,351.81,29.23,310.5,288.69,316.18,557.5,1.8,85.02-16.11,137.38-78.25,197.57,6.91,16.39,2.37,18.59-1.76,34.19,4.3-2.97,10.16-2.28,13.64,1.62,3.48,3.91,3.52,9.8.08,13.74-3.45,3.94-9.29,4.71-13.63,1.77,2.22,14.25.87,21.69-.3,36,17.96-5.01,23.59-5.71,42.3-7.67,1.63,68.53-.2,193.66,21.86,257.4,6.47,18.69,57.79,78.88,69.1,99.93,13.24,24.63,20.28,54.96,31.45,81.35l11.3,14.75c-16.31-92.98-58.54-134.25-109.34-206.95-13.46-108.76-15.6-243.48-10.62-353.2,1.35-29.54,26.49-70.71,28.72-97.66,8.09-97.46,9.97-262.71-4.59-356.71,125.34-48.76,265.8-80.16,393.74-123.6,39.38-13.37,80.35-27.13,120.44-37.96,10.96,10.01,13.01,26.18,17.87,42.25l7.29-3.76c-39.83-188.81-129.32-255.4-313.66-302.93-348.95-89.96-725.28,28.19-1053.53,147.63-79.6,28.96-97.32,178.3-99.49,252.47.52,49.15,4.15,101.16,5.51,151.87,8.15,65.18,7.35,103.78,30.7,167.24h0ZM1715.13,433.7c27.45,59.21.37,44.85-59.59,63.66-38.53-125.29-32.09-113-117.5-206.25-4.33-3.24-3.88-2.42-6.6-6.55-21.5-17.87-42.46-32-64.72-49.2,123.97,32.91,196.66,86.65,248.43,198.33h0ZM1180.59,194.41c9.62.36,11.65.1,20.55,2.32l26.12.6c66.75,5.63,25.84,2.33,66.86,22.52l6.72,3.35c.82.39,1.63.76,2.44,1.15,17.76,12.64,26.81,20.48,47.44,28.12l.9-4.56c-23.65-23.23-34.46-28-63.33-44.08,81.18,7.92,74.19,28.05,134.99,65.88-19.26-29.18-34.84-36.75-64.08-54.58,160.4,21.6,243.91,141.63,288.8,285.88-143.39,39.2-292.91,89.29-436.09,133.15-5.82-64.96-32.52-126.29-76.1-174.82-76.95-86.39-164.94-83.42-270.38-100.99-111.14-18.53-215.48-28.45-327.89-35.42,133.39-50,498.49-132.86,643.03-128.5h0Z"/>
    <path class="st23" d="M1212.56,930.04c-5.68-268.81,35.61-528.27-316.18-557.5-147.72-12.27-276.86-53.69-436.78-29.52,173.04,17.63,382.81,18.57,546.84,75.85,195.83,68.39,178.92,364.13,168.59,529.5-4.24,68.04-34.1,135.67-67.41,193.87,8.84-5,17.73-9.88,26.69-14.64,62.13-60.18,80.04-112.54,78.25-197.57h0Z"/>
    <path class="st15" d="M1128.07,1170.39c.02,3.43,1.72,6.62,4.56,8.55,4.34,2.94,10.18,2.18,13.63-1.77,3.45-3.94,3.42-9.84-.08-13.74-3.48-3.9-9.34-4.6-13.64-1.62-2.82,1.94-4.5,5.16-4.48,8.59h0Z"/>
    <path class="st3" d="M1135.83,459.32c43.58,48.52,70.28,109.86,76.1,174.82,143.18-43.86,292.7-93.96,436.09-133.15-44.88-144.25-128.41-264.28-288.8-285.88,29.24,17.84,44.82,25.4,64.08,54.58-60.8-37.83-53.81-57.96-134.99-65.88,28.87,16.07,39.68,20.85,63.33,44.08l-.9,4.56c-20.63-7.63-29.69-15.48-47.44-28.12-7.44,11.36-6.91,10.26-6.73,24.15-24.16-7.79-43.77-22.85-68.38-31.14-9.33-3.14-29.97-.97-33.06-9.1,9.02-2.68,19.46-2.19,29.18-2.54l2.99-8.39-26.12-.6c-6.85,5.43-12.08.5-20.55-2.32-144.53-4.35-509.63,78.51-643.03,128.5,112.4,6.97,216.75,16.89,327.89,35.42,105.44,17.57,193.44,14.59,270.38,100.99h-.03ZM1319.15,533.3c7.35,7.85,5.84,21,5.86,30.69-4.68-4.33-6.48-5.92-8.48-11.9-3.08-9.2-6.49-17.66-10.5-26.51,5.22,2.29,9.22,3.56,13.12,7.72h0ZM1266.97,525.78c13.84,9.85,19.67,36.4,22.48,52.08-6.6-3.55-10-5.02-12.43-12.43-4.83-14.74-11.41-28.29-15.42-43.36,1.79,1.23,3.6,2.44,5.37,3.71h0ZM1230.13,534.57c13.16,9.93,16.58,41.78,18.78,57.11-2.18-.32-5.73-.42-7.73-1.94-2.56-1.95-3.96-5.79-4.42-8.87-2.62-17.59-8.67-33.35-13.56-50.39,2.33,1.34,4.78,2.47,6.92,4.09h0Z"/>
    <path class="st14" d="M1296.56,248.49c-.18-13.89-.71-12.79,6.73-24.15-.82-.39-1.63-.76-2.44-1.15l-6.72-3.35c-41.02-20.2-.11-16.89-66.86-22.52l-2.99,8.39c31.11,10.13,54.2,13.54,72.28,42.78h0Z"/>
    <path class="st5" d="M1224.28,205.71c-9.71.36-20.16-.13-29.18,2.54,3.1,8.12,23.74,5.96,33.06,9.1,24.61,8.28,44.22,23.35,68.38,31.14-18.08-29.23-41.17-32.65-72.28-42.78h0Z"/>
    <path class="st9" d="M1201.14,196.73c-8.9-2.22-10.93-1.96-20.55-2.32,8.47,2.82,13.7,7.74,20.55,2.32Z"/>
    <path class="st8" d="M1241.18,589.73c2,1.52,5.55,1.62,7.73,1.94-2.19-15.32-5.63-47.18-18.78-57.11-2.14-1.61-4.6-2.75-6.92-4.09,4.89,17.04,10.94,32.8,13.56,50.39.46,3.08,1.86,6.91,4.42,8.87h0Z"/>
    <path class="st8" d="M1289.45,577.85c-2.8-15.68-8.62-42.23-22.48-52.08-1.77-1.26-3.58-2.47-5.37-3.71,4,15.07,10.58,28.63,15.42,43.36,2.43,7.4,5.82,8.87,12.43,12.43h0Z"/>
    <path class="st6" d="M1325.01,563.99c-.03-9.68,1.49-22.84-5.86-30.69-3.89-4.16-7.9-5.43-13.12-7.72,4.01,8.86,7.42,17.31,10.5,26.51,2,5.98,3.8,7.57,8.48,11.9h0Z"/>
    <path class="st3" d="M1538.03,291.12c85.41,93.24,78.98,80.95,117.5,206.25,59.96-18.82,87.04-4.46,59.59-63.66-51.78-111.68-124.47-165.42-248.43-198.33,22.27,17.2,43.23,31.32,64.72,49.2,2.73,4.13,2.28,3.31,6.6,6.55h0Z"/>
    <path class="st7" d="M977.62,693.3c-58.35,70.72-123.69,129.84-188.89,193.52-12.63,12.27-25.56,24.22-38.78,35.85-9.33,8.13-16.63,16.68-27.28,26.06-17.56,15.62-33.92,32.53-48.97,50.58,12.13,2.49,23.83,4.6,36.14,5.85,4.24,0,3.8-.15,7.61,1.81,32.28,3.77,63.28,5.23,94.47,16.51,46.7-66.43,91.64-115.1,150.62-171.22,9.9-9.42,36.03-43.92,46.9-48.14l2.28,2.03c-2.4,34.31-78.51,95.81-98.98,125.22-23.28,33.46-64.67,60.55-86.61,93.49,28.84,1.01,44.54,3.52,71.93,6.43,20.06-2.09,98.97-2.19,119-.6,46.34-39.11,43.16-93.26,38.56-150.27-2.5-17.36-6.33-34.9-2.36-51.78-3.33-43.02-7.26-86.14-10.68-129.18-4.36-19.82-6.6-33.11-16.61-50.86-15.55,15-34.74,28.15-48.37,44.67h.02Z"/>
    <path class="st7" d="M778.09,746.73c25.63-33.29,76.36-76.48,105.56-107.79,14.25-15.28,13.72-20.62,27.67-36-59.54-4.58-129.67-11.72-188.9-19.45-19.09,10.78-85.16,86.52-108.83,107.53-52.5,46.62-91.73,100.28-147.82,146.17,2.4,31.27,7.38,63.04,10.64,94.42,29.95,33.43,46.72,36.25,88.22,51.88,46.25-75.39,156.25-162.48,213.47-236.77h0Z"/>
    <path class="st12" d="M415.26,850.56l.93-3.37c2.25-4.25,6.27-30.89,8.5-39.68-1.91-5.5-2.12-5.64-5.4-10.53l-8.34-10.14,3.37-15.53c11.29-10.92,12.05-9.95,27-13.06,22.89,7.67-5.79.58,19.34,21.67-11.4-70.68-9.75-143,9.62-211.91,44.13-3.32,84.24-.21,128.05,1.2,14.55.47,77.12,9.12,84.75,7.45,14.72,2.84,24.35,5.88,39.33,6.82,59.24,7.72,129.36,14.87,188.9,19.45,37.19,12.98,89.91,13.53,114.66,45.67,10.01,17.74,12.25,31.04,16.61,50.86l5.45,17.59c5.32-5.68,3.78-2.84,5.77-7.79-5.72-41.66-11.73-98.28-47.99-125.21-37.93-28.17-496.45-64.93-557.25-52.25-9.84,2.05-19.5,4.83-29.12,7.72-7.67,10.21-23.32,30.94-27,42.03-18.21,54.86-11.15,190.94-2.93,246.07.98,6.83,2.12,13.64,3.38,20.43l11.66-4.99c3.08,2.05,8.14,5.12,10.67,7.48h.03Z"/>
    <path class="st7" d="M683.09,576.67c-7.63,1.67-70.2-6.98-84.75-7.45-43.81-1.42-83.91-4.52-128.05-1.2-19.37,68.91-21.01,141.23-9.62,211.91.64,6.47,1.15,12.18,1.57,18.69,48.72-61,160.53-173.83,220.85-221.95h0Z"/>
    <path class="st20" d="M613.6,691.02c23.67-21.01,89.74-96.75,108.83-107.53-14.99-.94-24.62-3.99-39.33-6.82-60.32,48.12-172.14,160.95-220.85,221.95.41,14.85,1.35,23.86,3.53,38.58,56.09-45.89,95.33-99.56,147.82-146.17h0Z"/>
    <path class="st10" d="M722.67,948.73c10.65-9.38,17.95-17.92,27.28-26.06,13.22-11.63,26.15-23.58,38.78-35.85,65.2-63.68,130.54-122.8,188.89-193.52,13.63-16.52,32.83-29.69,48.37-44.67-24.75-32.14-77.47-32.7-114.66-45.67-13.96,15.38-13.44,20.72-27.67,36-29.2,31.31-79.92,74.5-105.56,107.79-57.21,74.29-167.22,161.37-213.47,236.77,35,4.69,75.25,11.8,109.08,15.81,15.04-18.05,31.41-34.95,48.97-50.58h0ZM697.32,952.46c-1.2-1.87-.45-4.83-.37-6.74.34-.13.67-.26,1.01-.39,1.44-.6,2.84-1.28,4.3-1.8.74-.26.86-.06,1.37.26.41,1.93.26.67-.18,3.78-.32.3-.64.58-.96.88-1.61,1.51-2.97,3.48-5.18,3.99v.02Z"/>
    <path class="st18" d="M703.64,943.8c-.51-.33-.63-.53-1.37-.26-1.46.52-2.87,1.2-4.3,1.8-.34.13-.67.26-1.01.39-.09,1.9-.85,4.87.37,6.74,2.2-.51,3.56-2.48,5.18-3.99.32-.3.64-.59.96-.88.45-3.11.6-1.86.18-3.78v-.02Z"/>
    <path class="st8" d="M952.46,1077.02c35.45-5.76,66.87-22.83,87.78-52.52,44.15-62.7,25.22-237.87,13.58-315.22-1.98,4.96-.44,2.12-5.77,7.79l-5.45-17.59c3.43,43.04,7.35,86.16,10.68,129.18,4.88,7.95,3.84,13.36,3.32,22.75-.47,9.66-.8,19.35-.97,29.02,4.6,57,7.78,111.16-38.56,150.27-22.28,4.78-97.8,6.48-119,.6-27.39-2.91-43.09-5.42-71.93-6.43l-14.22-1.38c-31.18-11.28-62.17-12.74-94.47-16.51-4.81.13-4.66.71-7.61-1.81-12.31-1.26-24.02-3.36-36.14-5.85-33.82-4.01-74.07-11.12-109.08-15.81-41.5-15.63-58.26-18.45-88.22-51.88-3.25-31.38-8.24-63.14-10.64-94.42-2.18-14.72-3.11-23.74-3.53-38.58-.42-6.52-.93-12.22-1.57-18.69-25.13-21.09,3.55-14-19.34-21.67-14.95,3.11-15.71,2.15-27,13.06l-3.37,15.53,8.34,10.14c31.72-17.13,31-34.34,27.15,22.51-.32.11-.64.2-.95.3l-5.27-3.02,3.63-2.7-5.17,1.62c-4.74-3.5-8.6-5.32-13.99-8.18-2.23,8.78-6.25,35.41-8.5,39.68,3.04,1.53,6.08,3.05,9.13,4.58,5.46,3.21,11-.39,14.14-5.1,1.99-2.54,5.97-5.37,8.74-2.42,4.63,4.96,4.08,11.84,5.19,18.06,3.55,19.78,8.43,39.4,9.15,59.59.29,7.98.46,16.78-3.17,24.07-2.98,5.54-2.59,14.7,6.27,11.5,3.95-1.42,8.34-10.26,13.24-8.37,8.19,3.15,18,12.2,24.45,18.25.64.64.81,2.79.4,3.7-2.84,6.27-14.87,6.58-20.15,12.06-3.04,3.15-12.8,3.77-17.36,2.44-15.92-4.61-29.65-34.65-38.35-47.35-2.96-4.3-5.7-15.59-6.45-20.68-.91-9.29-4.73-13.85-8.1-22.09-4.11-10.04-3.12-28.89-.55-39.38.83-1.83,1.67-3.67,2.49-5.5-2.53-2.36-7.59-5.43-10.67-7.48l-11.66,4.99c.37,3.8.79,7.59,1.29,11.38,6.32,47.46,27.7,107.97,67.45,136.6,63.38,45.65,410.72,93.99,490.8,80.98l-.03-.03ZM487.87,994.56l26.33-13.3c31.04-1.33,74.59,15.81,106.14,21.25,84.04,14.52,171.24,27.95,255.91,38.12,40.68,4.88,90.28-7.09,128.15,1.99-2.6,9.61-13.77,13.06-22.16,18.13-15.99,4.66-30.87,7.84-47.54,8.42-61.57,2.13-412.43-36.72-447.85-70.02l1.04-4.58h0Z"/>
    <path class="st10" d="M412.76,856.05c-2.57,10.49-3.57,29.34.55,39.38,3.38,8.24,7.19,12.8,8.1,22.09.75,5.08,3.5,16.37,6.45,20.68,8.7,12.7,22.44,42.74,38.35,47.35,4.56,1.32,14.31.7,17.36-2.44,5.27-5.47,17.31-5.79,20.15-12.06.41-.9.24-3.06-.4-3.7-6.44-6.06-16.26-15.1-24.45-18.25-4.91-1.89-9.3,6.95-13.24,8.37-8.85,3.19-9.24-5.97-6.27-11.5,3.63-7.3,3.46-16.08,3.17-24.07-.72-20.18-5.6-39.81-9.15-59.59-1.12-6.22-.56-13.11-5.19-18.06-2.76-2.96-6.74-.13-8.74,2.42-3.14,4.72-8.68,8.31-14.14,5.1-3.04-1.53-6.08-3.05-9.13-4.58l-.93,3.37c-.83,1.83-1.67,3.67-2.49,5.5h.02Z"/>
    <path class="st22" d="M438.68,815.69l5.17-1.62-3.63,2.7,5.27,3.02c.32-.11.64-.2.95-.3,3.85-56.86,4.56-39.65-27.15-22.51,3.28,4.9,3.49,5.03,5.4,10.53,5.39,2.86,9.25,4.68,13.99,8.18Z"/>
    <path class="st4" d="M898.08,1031.3c21.21,5.88,96.72,4.19,119-.6-20.04-1.59-98.95-1.5-119,.6Z"/>
    <path class="st21" d="M1055.65,880.43c.17-9.67.49-19.36.97-29.02.52-9.39,1.55-14.8-3.32-22.75-3.98,16.87-.15,34.41,2.36,51.78h0Z"/>
    <path class="st4" d="M709.85,1005.16c2.96,2.52,2.8,1.94,7.61,1.81-3.81-1.96-3.37-1.81-7.61-1.81Z"/>
    <path class="st16" d="M934.69,1069.16c16.68-.58,31.55-3.76,47.54-8.42,8.39-5.05,19.56-8.52,22.16-18.13-37.86-9.09-87.46,2.9-128.15-1.99-84.67-10.16-171.87-23.6-255.91-38.12-31.55-5.45-75.1-22.58-106.14-21.25l-26.33,13.3-1.04,4.58c35.42,33.3,386.29,72.14,447.85,70.02h0Z"/>
    <path class="st16" d="M912.75,931.37c20.46-29.41,96.58-90.91,98.98-125.22l-2.28-2.03c-10.87,4.23-37,38.72-46.9,48.14-58.99,56.12-103.92,104.8-150.62,171.22l14.22,1.38c21.94-32.94,63.33-60.04,86.61-93.49h0Z"/>
    <path class="st24" d="M406.64,407.64c-13.5,12.66-63.6,62.94-63.15,82.72.03,1.35.55,2.76,1.62,3.64.93.76,1.99,1.38,2.98,2.07l4.29-7.07,3.21-5.41c5.97-9.85,56.45-65.79,56.18-70.1-.12-1.92-4.01-4.78-5.13-5.83h0Z"/>
    <path class="st6" d="M391.11,478.21c.97.69,2.05,1.21,3.08,1.82,13.31-15.24,23.68-32.13,37.35-47.26,1.35-1.49,3.72-3.34,3.31-5.67-.41-2.41-5.08-5.9-5.82-6.58-8.87,10.75-38.75,42.53-38.86,55.88,0,.79.26,1.34.94,1.82h0Z"/>
  </g>
</svg>