<?xml version="1.0" encoding="UTF-8"?>
<svg id="Layer_1" xmlns="http://www.w3.org/2000/svg" version="1.1" viewBox="0 0 2048 2048">
  <!-- Generator: Adobe Illustrator 30.3.0, SVG Export Plug-In . SVG Version: 2.1.3 Build 182)  -->
  <defs>
    <style>
      .st0 {
        fill: #331711;
      }

      .st1 {
        fill: #f27e5f;
      }

      .st2 {
        fill: #cb614e;
      }

      .st3 {
        fill: #64594c;
      }

      .st4 {
        fill: #053d4f;
      }

      .st5 {
        fill: #221613;
      }

      .st6 {
        fill: #352a20;
      }

      .st7 {
        fill: #01576e;
      }

      .st8 {
        fill: #f4755b;
      }

      .st9 {
        fill: #202220;
      }

      .st10 {
        fill: #9d937e;
      }

      .st11 {
        fill: #91bbb7;
      }

      .st12 {
        fill: #08303e;
      }

      .st13 {
        fill: #070b0e;
      }

      .st14 {
        fill: #f7bb5c;
      }

      .st15 {
        fill: #eedfc1;
      }

      .st16 {
        fill: #121619;
      }

      .st17 {
        fill: #eee2ca;
      }

      .st18 {
        fill: #0b2129;
      }

      .st19 {
        fill: #507070;
      }

      .st20 {
        fill: #f8a27b;
      }

      .st21 {
        fill: #fc9f22;
      }

      .st22 {
        fill: #f2ecdf;
      }

      .st23 {
        fill: #faa21b;
      }

      .st24 {
        fill: #044c62;
      }

      .st25 {
        fill: #4b4a4a;
      }

      .st26 {
        fill: #41392f;
      }
    </style>
  </defs>
  <path class="st17" d="M223.66,516.02c2.26-77.06,20.66-232.19,103.36-262.29C668.04,129.65,1059.01,6.9,1421.55,100.38c191.51,49.37,284.48,118.56,325.86,314.71,79.43,72.85,144.79,163.45,183.82,264.31,9.88,25.52,20.47,72.08,26.51,87,8.46,26.44,17.92,71.46,20.24,98.98,14.51,58.95,3.52,207.7-7.3,269.44-2.46,13.93-12.06,45.91-18.86,57.63-11.1,37.09-23.07,73.93-35.88,110.47-1.85,15.05-4.74,20.04-11.14,33.58l-2.14,4.62c-11.65,26.31-43.28,79.54-60.99,103.35-3.48,7.62-3.19,7.13-8.56,13.23-9.55,15.9-26.59,46.25-37.38,59.76-12.51,14.34-18.36,30.42-30.95,42.55-18.37,24.98-25.09,32.76-47.16,54.54-26.85,32.74-51.09,52.95-80.66,81.03-62.63,46.73-105.08,73.49-176.43,105.45-46.93,94.67-123.37,120.9-218.42,158.62-35.69,14.16-106.6,24.67-143.91,19.63-87.35,3.51-272.5-26.33-312.79-113.58-8.86-2.39-17.73-4.71-26.62-6.97-100.52-17.27-134.05-39.75-222-77.92-9.52-4.1-17.18-7.21-25.61-13.48-6.46-4.68-12.89-9.48-19.92-13.29-5.19-3.07-10.39-6.14-15.58-9.22-6.82-3.1-10.1-6.09-15.13-11.52-135.27-91.41-261.24-250.91-326.22-399.69-12.66-18.09-32.17-77.77-36.77-99.05-2.46-5.26-5.18-10.71-6.5-16.37-51.28-220.64-35.49-439.59,75.19-636.71,21.52-32.59,30.37-38.94,57.4-65.45Z"/>
  <path class="st23" d="M166.26,581.47c21.52-32.59,30.37-38.94,57.4-65.45.54,51.06,4.31,105.09,5.72,157.78,8.47,67.71,7.64,107.82,31.89,173.74,55.25,150.21,176.27,199.27,325.36,216.87,25.58,3.02,59.83,12.93,86.08,10.36,10.94,27.1,8.87,24.98,8.91,54.13-.06,52.91-4.91,238,31.39,258.15,80.86,44.9,126.33,40.46,134.22,162.8,2.83,43.86,8.48,92.89-1.43,144.44-2.98,41.72-43.98,110.07-61.94,153.44l1.55,17.95c-8.86-2.39-17.73-4.71-26.62-6.97-100.52-17.27-134.05-39.75-222-77.92-9.52-4.1-17.18-7.21-25.61-13.48-6.46-4.68-12.89-9.48-19.92-13.29-5.19-3.07-10.39-6.14-15.58-9.22-6.82-3.1-10.1-6.09-15.13-11.52-135.27-91.41-261.24-250.91-326.22-399.69-12.66-18.09-32.17-77.77-36.77-99.05-2.46-5.26-5.18-10.71-6.5-16.37-51.28-220.64-35.49-439.59,75.19-636.71Z"/>
  <path class="st14" d="M166.26,581.47c21.52-32.59,30.37-38.94,57.4-65.45.54,51.06,4.31,105.09,5.72,157.78-16.02-12.28,8.17-79.67-30.22-39.12-9.85,10.41-49.03,96.37-38.2,34.95,3.38-19.15,6.17-23.81,20.57-27.74,1.58-1.55,6.21-43.97,1.18-45.99-5.91-2.38-11.95-9.6-16.47-14.43Z"/>
  <path class="st14" d="M97.57,1234.55c9.18-8.44,13.16-21.77,20.94-18.19,19.65,9.04,6.62,31.21,17.12,47.57,10.49,12.78,13.24,4.72,18.49,11.29.21,8.85-5.46,6.41-8.75,14.01,6.24,55.87-.8,14.68-11.03,44.37-12.66-18.09-32.17-77.77-36.77-99.05Z"/>
  <path class="st14" d="M460.56,1733.29c18.88-5.1,19.72-21.8,35.4-2.61,9.67,11.84,33.55,7.35,19.05,24.7,5.09,9.04,9.4-1.51,21.78,25.42-9.52-4.1-17.18-7.21-25.61-13.48-6.46-4.68-12.89-9.48-19.92-13.29-5.19-3.07-10.39-6.14-15.58-9.22-6.82-3.1-10.1-6.09-15.13-11.52Z"/>
  <path class="st21" d="M758.79,1858.72c10.08-19.26,10.21-27.27,25.07-10.98l1.55,17.95c-8.86-2.39-17.73-4.71-26.62-6.97Z"/>
  <path class="st14" d="M96.93,1145.65c.73.18,1.46.38,2.2.55,7.68,1.81,13.31,3.17,19.42,8.29,2.44,2.05,5.28,5.49,4.99,8.94-.37,4.52-.78,6.72.16,11.26,2.84,13.73,2.84,21.1-2.16,34.62-.97-.95-2.35-1.92-2.85-3.31-.38-1.07-.34-2.26-.69-3.35-2.14-6.85-5.28-13.76-4.35-21.09.21-1.62.51-3.23.71-4.84.53-4.13-.38-6.35-3.07-9.44-6.31-7.25-9.81-13.06-14.37-21.65Z"/>
  <path class="st14" d="M326.76,1032.34c1.94,1.24,3.91,2.45,5.83,3.72.96.64,1.87,1.35,2.81,2,4.5,3.14,10.02,6.19,13.2,10.85,2.15,3.15.97,6.66.6,10.26-3.85-.34-7.95-.27-11.67-1.23-4.58-1.18-9.15-3.27-11.46-7.63-3.13-5.91-.72-11.89.68-17.97Z"/>
  <path class="st14" d="M233.65,1359.91c1.58-.4,5.08-1.99,7.24-1.08,1.44.61,1.4,1.83,1.72,3.2-1.43,4.88-2.73,5.65-7.08,8.19-.43-.05-.86-.1-1.29-.14-1.99-.16-5.97.15-7.44-1.98-.54-.77-.52-1.53-.17-2.41,1.06-2.66,5.01-4.52,7.02-5.8Z"/>
  <path class="st14" d="M488.34,1328.73c2.59-.68,6.73-2.67,9.85-1.65l.25.65c-.52,2.01-1.69,3.29-3.06,4.82-.71.79-3.66,3.75-4.58,5.25-1.54,2.51-2.95,5.1-4.42,7.65-1.18-1.14-2.38-2.25-3.53-3.41-1.58-1.61-2.37-4.08-1.81-6.3.89-3.58,4.45-5.29,7.3-7.01Z"/>
  <path class="st14" d="M245.84,1391.29c2.05-.43,1.29-.63,2.36-.22.75,1.64.34.43.02,3.82-1.83-1.27-1.9-1.43-2.37-3.61Z"/>
  <path class="st23" d="M1747.41,415.08c79.43,72.85,144.79,163.45,183.82,264.31,9.88,25.52,20.47,72.08,26.51,87,8.46,26.44,17.92,71.46,20.24,98.98,14.51,58.95,3.52,207.7-7.3,269.44-2.46,13.93-12.06,45.91-18.86,57.63-11.1,37.09-23.07,73.93-35.88,110.47-1.85,15.05-4.74,20.04-11.14,33.58l-2.14,4.62c-11.65,26.31-43.28,79.54-60.99,103.35-3.48,7.62-3.19,7.13-8.56,13.23-9.55,15.9-26.59,46.25-37.38,59.76-12.51,14.34-18.36,30.42-30.95,42.55-18.37,24.98-25.09,32.76-47.16,54.54-26.85,32.74-51.09,52.95-80.66,81.03-62.63,46.73-105.08,73.49-176.43,105.45,26.77-110.08,6.08-236.84-51.96-333.25-31.02-51.52-68.02-106.57-71.28-167.23-6.71-124.81,30.83-308.28,145.29-379.27,56.93-35.32,149.35-70.45,188.86-121.78,87.39-113.55,87.7-251.56,75.98-384.41Z"/>
  <path class="st14" d="M1636.96,1695.57c-4.93-5.01-8.19-8.87-14.81-11.92-3.28-7.6,6.15-44.67,10.58-50.27,3-.46,7-.48,10.07,2.49,3.48,7.65,18.28,3.39,12.36-3.62-7.04-8.33,14.8-18.15,19.47-18.72,14.64-1.77,18.53-16.77,27.31-19.39,4.26,2.94,10.08,14.27,15.68,20.39-26.85,32.74-51.09,52.95-80.66,81.03Z"/>
  <path class="st14" d="M1764.79,1560c-1.81-23.45-12.3-12.24-13.94-24.55,4.73-9.26,12.79-2.69,17.01-15,5.88-17.2-9.18-23-5.6-35.32,7.51-6.43,25.04,24.33,33.49,32.32-12.51,14.34-18.36,30.42-30.95,42.55Z"/>
  <path class="st14" d="M1951.81,1192.45c-10.67-22.47-14.6,6.17-28.27-11.36,2.1-7.4,14.21-8.77,12.3-17.61-.89-4.13-2.14-11.82,3.81-12.34,5.49,2.88,8.42,8.83,13.71,12.14,18.71-4.33-10.99-28.84-9.21-24.35-9.2-23.08,18.98-8.41,26.52-4.11-2.46,13.93-12.06,45.91-18.86,57.63Z"/>
  <path class="st14" d="M1957.74,766.39c8.46,26.44,17.92,71.46,20.24,98.98-17.67-16.9-12.81-9.14-13.46-27.4-.33-9.34-34.91,19.78-31.07-6.74.95-6.55,27.46-4.06,20.14-27.08,1.22,5.01,4.3-39.58,4.14-37.76Z"/>
  <path class="st14" d="M1902.66,1341.12c.3-6.33,3.44-31.05,1.78-34.83-8.51-19.45-16.7-4.29-26.29-4.9-12.69-.81-8.67-28.4,3.07-18.68,8.79,10.55,18.04-1.3,21.86.06,20.62,7.38-7.83,15.22,12.86,20.17-1.85,15.05-4.74,20.04-11.14,33.58l-2.14,4.62Z"/>
  <path class="st14" d="M1833.11,1457.69c-9.06-18.41-33.42-3.87-20.48-21.94-.47-6.61-5.57-6.22-7-11.16-2.98-10.32,15.6-24.8,17.64-7.94,1.72,14.2,8.05,20.57,18.4,27.82-3.48,7.62-3.19,7.13-8.56,13.23Z"/>
  <path class="st14" d="M1791.12,1220.22c2.3,2.34,4.28,3.8,4.42,7.19.13,3.1-.32,4.13.38,6.77,1.36,5.05,7.28,6.89,11.52,8.9,2.19,1.04,5.64,1.04,6.48,3.31.73,1.97,1.62,6.26,3.59,7.72.73.54,1.25.66,2.13.35,2-.7,3.33-3.6,3.82-5.46.7-2.68,1.12-7.03,3.26-9.35,2.21-2.4,7.16-3.56,10.25-3.61,1.49-.02,2.98.15,4.47.09,3.34-.13,5.54-2.46,7.38-4.98,1.91-2.61,3.7-6.08,6.51-7.78,4,.47,9.47,2.69,12.66,5.15,2.86,2.2,5.72,6.38,5.18,10.18-.36,2.58-1.85,4.21-3.86,5.66-2.87,2.08-6.39,2.8-9.82,1.85-2.96-.82-5.71-2.35-8.83-2.5-2.08-.1-3.12.59-4.61,2.04-1.09,1.06-2.09,2.21-3.13,3.31,5.01,10.01,12.24,21.97,12.98,33.3.25,3.87-.07,8.17-3.03,11.01-2.42,2.32-5.78,2.93-9.01,3.01-3.38.09-5.8.25-9.06,1.3-2.6.84-5.43,2.22-8.24,2.09-6.89-4.34-12.86-8.16-15.77-16-.6-1.61-1-4.87-2.49-5.72-1.66-.95-3.75-.78-5.54-.37-.28.07-5.54,1.64-7,1.69-2.08.07-2.39-.16-3.84-1.51-1.36-1.27-1.45-7.09-1.46-8.83-.02-5.93.12-10.67-1.31-16.45-2.07-8.39-3.21-14.54-.77-23.1.22-.78.5-1.53.73-2.31l1.98-6.95Z"/>
  <path class="st14" d="M1763.29,1414.04c1.33-1.14,2.59-2.34,3.97-3.41.74-.58,1.9-.8,2.81-.54,1.16.34,2,1.08,2.63,2.1,3.15,5.22,1.26,18.15,0,23.35-.46,1.9-.73,2.26-2.53,3-3,1.24-3.72.87-5.44,3.88.32,2.67.67,3.56,2.78,5.3,2.8,2.32,4.13,2.8,5.42,6.12-.64,2.41-.41,2.89-2.49,4.71-2.66,2.32-8.11,2.04-11.24,1.98-1.53-.02-3.05-.2-4.58-.21-2.99-.03-5.98.05-8.97.07-3.42-1.18-6.89-2.26-10.22-3.69-5.11-2.19-8.61-6.78-10.18-12.03-1.19-3.99-.12-6.94,1.89-10.37,2.56-4.38,2.76-4.17,4.43-8.31.66-1.65,2.9-10.71,5.64-11.81,1.5-.6,4.03.02,5.5.31,3.32.67,8.28,2.31,11.79,1.61,2.95-.59,5.85-1.37,8.77-2.05Z"/>
  <path class="st14" d="M1853.61,1144.22c1.45.5,2.9,1.02,4.36,1.5,5.2,1.72,7.91,3.04,12.07,6.78,1.83,1.64,3.58,3.35,5.43,4.97,2.58-.31,1.79,0,4.17-1.2,2.23-1.13,4.15-2.88,6.78-1.69,4.37,1.98,8.78,10.78,9.16,15.19-.64,1.01-.49,1.22-1.72,1.5-2.6.59-5.54-1.12-7.48-2.65-1.18-.92-2.29-1.95-3.51-2.81l-5.01-3.5c-.7.32-1.39.67-2.1.97-.81.33-1.66.57-2.46.93-.78.36-1.29,1.35-1.51,2.14-1.97,7.12-5.51,16.5-10.53,22.07-1.68,1.87-1.58,1.48-3.84,1.75-1.7-.86-1.98-.71-3.02-2.28-1.27-1.89-1.52-3.84-1.06-6.04,1.06-5.01,2.18-8.58,1.24-13.82-1.62-9.02-1.95-14.55-.98-23.79Z"/>
  <path class="st14" d="M1883.11,998.92c4.2,3.78,6.83,5.84,8.79,11.04.79,2.09,1.48,4.21,2.27,6.3,2.11,5.61,4.62,10.77,4.79,16.85.14,5.15-2.04,9.44-5.74,12.92-.55.52-1.14,1.01-1.71,1.52l-4.92,4.53c-.68-.3-1.34-.61-2.03-.91-2.79-1.19-5.71-2.13-8.32-3.67-2.8-1.66-5.38-4.17-5.66-7.6-.27-3.34,1.82-7.02,3.92-9.49,5.28-6.19,11.43-11.08,10.35-19.86-.2-1.59-.54-3.15-.78-4.74l-.97-6.9Z"/>
  <path class="st14" d="M1700.29,1490.3c1.33,1.42,3.42,3.08,3.69,5.25.35,2.88-.9,5.71-2.62,7.94-9.23,11.96-27.48,15.24-41.48,16.97-.54-2.87-1.16-5.72-1.62-8.61-.38-2.41.68-5.6,2.28-7.42,1.84-2.1,4.06-2.87,6.79-2.99,7.99-.34,13.33-1.45,20.62-4.96,4.15-1.99,8.21-4.15,12.33-6.19Z"/>
  <path class="st14" d="M1796.84,1313.25c1.8,1.18,3.58,2.38,5.4,3.53.95.6,2.01,1.02,2.9,1.71,2.26,1.75,4.56,4.79,4.23,7.83-.28,2.59-2.15,4.69-4.05,6.3-2.49,2.12-5.66,4.21-6.89,7.43-.98,2.55.43,3.82,1.81,6.03.79,1.27,3.39,5.08,4.25,6.87.89,1.85,1.63,3.77,2.45,5.65-2.58-1.32-5.19-2.59-7.81-3.82-3.52-1.62-6.99-3.15-9.33-6.45-3.97-5.6,5.81-26.64,7.05-35.08Z"/>
  <path class="st14" d="M1612.39,1591.39c2.31-1.18,3.49-2.38,5.84-2.17,1.4,1.98,1,3.76,1.19,6.38-.43.22-.86.44-1.29.68-.37.2-4.06,2.46-5.53,2.87-.74.21-.75.16-1.19-.05-.98-2.45.42-5.35.97-7.71Z"/>
  <path class="st14" d="M1903.12,1261.92c.44-.19.89-.36,1.33-.56,1.4-.62,2.78-1.29,4.19-1.88.85-.35,1.89-.81,2.8-.36.97,2.43-.31,4.77-.92,7.29-1.73.73-3.1,1.65-4.98,1.41-1.7-1.81-1.62-3.21-2.41-5.9Z"/>
  <path class="st14" d="M1728.74,1504.88c1.55-.42,3.3-1.42,4.81-.59.48,1.51.26.54.29,2.96-.54.43-2.73,2.24-3.5,2.71-.49.3-.59.1-1-.16-.75-2.3-.33-.7-.6-4.92Z"/>
  <path class="st7" d="M1187.1,542.95c130.22-50.66,276.14-83.28,409.06-128.41,40.91-13.89,83.47-28.18,125.12-39.44,11.39,10.4,13.52,27.2,18.57,43.89l7.57-3.91c11.72,132.85,11.41,270.86-75.98,384.41-39.5,51.33-131.92,86.46-188.86,121.78-114.46,70.99-151.99,254.46-145.29,379.27,3.26,60.66,40.26,115.7,71.28,167.23,58.04,96.41,78.73,223.17,51.96,333.25-46.93,94.67-123.37,120.9-218.42,158.62-35.69,14.16-106.6,24.67-143.91,19.63,4.51-17.25,18.49-.26,35.34-11.41,14.11-.46,25.3-1.36,39.43-2.64,6.03-5.4,6.19-4.25,14.98-4.83,15.69-53.72,13.34-46.77-39.16-30.27-9.7-3.74-15.74-6.02-25.82-8.63,28.35-1.23,51.14-9.2,77.05-19.13,63.22-94.85,85.75-207.89,74.89-320.75l11.74,15.32c-16.94-96.6-60.82-139.47-113.59-215-13.98-112.99-16.21-252.95-11.03-366.94,1.4-30.69,27.52-73.46,29.84-101.46,8.4-101.25,10.36-272.93-4.77-370.58Z"/>
  <path class="st16" d="M1747.41,415.08c11.72,132.85,11.41,270.86-75.98,384.41-39.5,51.33-131.92,86.46-188.86,121.78-114.46,70.99-151.99,254.46-145.29,379.27,3.26,60.66,40.26,115.7,71.28,167.23,58.04,96.41,78.73,223.17,51.96,333.25-46.93,94.67-123.37,120.9-218.42,158.62-35.69,14.16-106.6,24.67-143.91,19.63,4.51-17.25,18.49-.26,35.34-11.41,14.11-.46,25.3-1.36,39.43-2.64,6.03-5.4,6.19-4.25,14.98-4.83,15.69-53.72,13.34-46.77-39.16-30.27-9.7-3.74-15.74-6.02-25.82-8.63,28.35-1.23,51.14-9.2,77.05-19.13,63.22-94.85,85.75-207.89,74.89-320.75l11.74,15.32c-2.64,25.58-3.32,56.33-.71,81.94l-.98,5.66c-.31,7.64.23,8.5-2.73,15.02l-2.8,25.77c-.23,3.96-.18,4.05-1.44,7.84-17.22,73.37-25.67,106.04-64.44,170.38,56.54-22.14,119.9-39.03,172.48-63.68,39.32-12.74,55.9-23.37,70.37-60.84,14.61-106.87-2.52-208.9-54.13-303.6-37.08-68.04-74.6-111.17-76.8-192.31-3.45-126.94,42.33-306.01,158.98-374.38,48.53-28.44,140.92-68.88,174.81-109.75,90.6-109.29,89.09-249.17,80.6-379.98l7.57-3.91Z"/>
  <path class="st4" d="M1172.97,1965.22c6.03-5.4,6.19-4.25,14.98-4.83-5.9,6-6.81,5.22-14.98,4.83Z"/>
  <path class="st24" d="M1433.36,1777.67c14.35,8.73,6.91,9.64,23.03,1.34-14.47,37.47-31.05,48.1-70.37,60.84,3.21-16.47,6.22-15.86-7.65-24.81,11.07-15.79,37.35-29.95,54.99-37.37Z"/>
  <path class="st18" d="M1378.37,1815.04c11.07-15.79,37.35-29.95,54.99-37.37-5.82,23-33.31,34.53-54.99,37.37Z"/>
  <path class="st4" d="M1286.64,1596.93c7.15,30.2,4.95,52.22-.71,81.94-2.61-25.61-1.93-56.35.71-81.94Z"/>
  <path class="st0" d="M1596.19,527.19c28.32-.74,52.31,4.75,79.97,9.64,2.48,33.86,2.56,67.09,3.34,100.99-2.26,1.19-4.54,2.34-6.77,3.57-37.26,20.57-74.89,39.25-115.34,52.88-46.02,15.51-90.25,36.56-136.84,50.47-5.34,1.56-10.59,3.17-16.08,4.15-13.95,2.49-32.33,3.58-44.36-5.76-4.74-3.68-6.16-8.29-6.57-14.09-.67-9.46-1.82-18.41-3.1-27.79l-1.17-9.1c-2.1-15.45,1.53-54.76-5.37-65.65-.63-.98-1.68-1.75-2.02-2.86l.77-.3c65.84-33.96,134.27-60.61,205.71-80.79,2.46-.69,4.86-1.56,7.31-2.28,2.96-.87,5.95-1.64,8.92-2.51,10.75-3.13,21.19-6.45,31.61-10.56Z"/>
  <path class="st8" d="M1657.85,543.75c2.64.63,4.35.78,6.33,2.62,11.63,10.86,5.05,65.23,5.1,82.31-2.05,1.37-4.13,2.71-6.16,4.12-65.08,45.05-178.89,79.43-255.78,105.31-3.32-.08-4.61.05-6.88-2.52-12.49-14.18-5.8-80.06-5.47-99.83,69.86-22.39,138.14-49.25,207.88-71.45,18.66-5.93,37-12.8,54.98-20.56Z"/>
  <path class="st1" d="M1455.35,667.25c1.24-.64,2.46-1.34,3.73-1.91.95-.43.87-.4,1.41-.16.39,1.62-.94,3.98-1.38,5.18-2.83,1.24-1.59.95-3.58,1.27l-.38-.36c-.26-1.96-.16-.62.2-4.03Z"/>
  <path class="st15" d="M1592.59,539.75c9.05-1.75,17.77-3.07,26.99-1.68,1.88.28,10.85,1.66,11.95,3.1,0,0-.01,0-.02,0-53.47,27.65-165.24,61.28-225.89,81.49-9.02,3.39-22.15,4.77-31.52,2.09-1.64-.47-4.12-1.35-4.89-3.11-.35-.81-.38-1.72.03-2.53,8.46-16.78,192.93-71.09,223.34-79.36Z"/>
  <path class="st1" d="M1356.71,629.46c1.91.75,7.7,3.05,9.66,3.66,5.21,1.61,13.54,2.67,17.48,7.38,1.9,2.27,1.72,9.8,1.49,12.56-2.22,27.11.12,54.51,1.17,81.68-1.81.3-3.61.64-5.43.91-3.82.56-8.3-.67-11.24-3.22-4.47-3.88-5.88-9.17-6.35-14.86-.26-3.1-.46-6.21-.92-9.29-3.95-26.16-4.53-52.44-5.86-78.82Z"/>
  <path class="st18" d="M1431.03,1740.89c1.58,1.39,3.48,2.54,4.6,4.33.64,1.02.65,2.06.28,3.2-3.69,11.5-37.08,27.31-46.96,33.33-1.56-1.63-4.35-3.46-3.96-6.15,1.57-10.75,36.5-28.7,46.03-34.71Z"/>
  <path class="st18" d="M1426.67,1705.17c1,.94,2.05,1.83,3.01,2.82,1.76,1.83,2.58,3.99,2.2,6.54-1.46,9.66-19.53,18.49-26.5,23.57l-3.2,2.36c-1.7-1.81-5.56-4.68-5.41-7.88.44-9.93,23.21-21.99,29.91-27.4Z"/>
  <path class="st18" d="M1431.18,1668.35c1.32,1.22,2.84,2.28,3.86,3.76,1.32,1.92.87,4.92.16,6.98-2.38,6.93-9.21,11.54-15.38,14.75-5.19,2.69-10.37,5.36-15.52,8.13-1.11-.42-2.28-.53-2.9-1.64-.72-1.29-.73-2.46-.47-3.9.71-3.86,5.5-7.71,8.43-10.05,7.42-5.92,14.7-11.75,21.81-18.03Z"/>
  <path class="st17" d="M1105.83,1043.12c7.18,17.03,2.46,19.31-1.83,35.52-2.93,2.02-4.67,5.36-4.65,8.92.02,3.56,1.79,6.88,4.74,8.88,2.31,14.8.9,22.53-.31,37.4,18.66-5.21,24.51-5.93,43.95-7.97,1.69,71.2-.21,201.19,22.71,267.41,6.72,19.42,60.04,81.95,71.79,103.82,13.75,25.59,21.07,57.1,32.67,84.51,10.87,112.86-11.66,225.9-74.89,320.75-25.91,9.93-48.7,17.9-77.05,19.13,10.08,2.61,16.12,4.89,25.82,8.63,52.5-16.5,54.85-23.45,39.16,30.27-8.8.59-8.96-.57-14.98,4.83-14.14,1.27-25.32,2.18-39.43,2.64-16.85,11.15-30.83-5.84-35.34,11.41-87.35,3.51-272.5-26.33-312.79-113.58l-1.55-17.95c17.97-43.38,58.96-111.73,61.94-153.44,9.91-51.56,4.26-100.58,1.43-144.44-7.89-122.34-53.36-117.9-134.22-162.8-36.29-20.15-31.45-205.24-31.39-258.15-.04-29.15,2.04-27.03-8.91-54.13l12.95-6.62c49.03,8.82,98.19,15.26,147.04,23.24,89.79,14.67,165.04,25.64,237.37-41.19l8.01,8.13c9.18-5.19,18.42-10.26,27.73-15.21Z"/>
  <path class="st17" d="M1105.83,1043.12c7.18,17.03,2.46,19.31-1.83,35.52-2.93,2.02-4.67,5.36-4.65,8.92.02,3.56,1.79,6.88,4.74,8.88,2.31,14.8.9,22.53-.31,37.4l-.27,4.72c-14.07,289.96,107.12,357.94-282.93,289.53,37.95,67.1,49.68,185.28,37.28,258.41l-12.05,7.8c9.91-51.56,4.26-100.58,1.43-144.44-7.89-122.34-53.36-117.9-134.22-162.8-36.29-20.15-31.45-205.24-31.39-258.15-.04-29.15,2.04-27.03-8.91-54.13l12.95-6.62c49.03,8.82,98.19,15.26,147.04,23.24,89.79,14.67,165.04,25.64,237.37-41.19l8.01,8.13c9.18-5.19,18.42-10.26,27.73-15.21Z"/>
  <path class="st13" d="M1105.83,1043.12c7.18,17.03,2.46,19.31-1.83,35.52-2.93,2.02-4.67,5.36-4.65,8.92.02,3.56,1.79,6.88,4.74,8.88,2.31,14.8.9,22.53-.31,37.4-4.33,1.03-8.32,2.16-12.6,3.35-6.86.11-13.74.11-20.59.51-47.81,2.79-94.2-.7-141.83-3.72-41.12-2.6-84.67-5.84-125.39-11.65-3.97-.56-7.9-1.32-11.87-1.84-17.53-2.29-86.63-16.98-97.87-9.57-1.77,1.17-2.79,3.53-3.26,5.51-.27,1.18-.45,2.37-.7,3.54-.38,1.74-.81,3.47-1.2,5.2l-6.84,3.74c-.04-29.15,2.04-27.03-8.91-54.13l12.95-6.62c49.03,8.82,98.19,15.26,147.04,23.24,89.79,14.67,165.04,25.64,237.37-41.19l8.01,8.13c9.18-5.19,18.42-10.26,27.73-15.21Z"/>
  <path class="st6" d="M681.63,1128.91l6.84-3.74c10.73,64.68-1.65,190.8,21.39,243.62,22.59,51.77,254.94,69.75,301.26,75.37,105.41,12.8,92.01-73.07,87.79-145.83-1.83-54.19-2.58-107.79-7.73-161.14,4.28-1.19,8.27-2.32,12.6-3.35l-.27,4.72c-14.07,289.96,107.12,357.94-282.93,289.53,37.95,67.1,49.68,185.28,37.28,258.41l-12.05,7.8c9.91-51.56,4.26-100.58,1.43-144.44-7.89-122.34-53.36-117.9-134.22-162.8-36.29-20.15-31.45-205.24-31.39-258.15Z"/>
  <path class="st18" d="M776.18,1181.41c18-13.24,25.29-20.72,49.53-16.71,31.23,4.75,146.67,1.15,164.2,26.33,10.48,15.05,13.36,91.18,17.5,114.16,11.43,63.47,1.83,78.65-65.02,74.66-41.42-14.24-183.83-4.39-178.26-60.87,4.6-46.6-36.43-118.89,12.05-137.57Z"/>
  <path class="st0" d="M776.18,1181.41c18-13.24,25.29-20.72,49.53-16.71,31.23,4.75,146.67,1.15,164.2,26.33,10.48,15.05,13.36,91.18,17.5,114.16,11.43,63.47,1.83,78.65-65.02,74.66,36.06-3.02,20.6-11.53,30.35-30.18,3.71-44.16.22-85.6-11.65-128.42-5.23-4.65-5.1-4.09-8.09-9.93-55.74-10.34-90.92-16.96-148.76-19.86-10.71,3.04-17.53,5.21-24.44-4.94l-3.62-5.12Z"/>
  <path class="st20" d="M804.23,1191.47c-3.33-1.15-10.26-2.92-12.93-5.59.44-.99.89-1.97,1.33-2.96,21.35-16.04,98.47-8.11,122.39-3.56,43.1,8.18,84.63-4.54,37.97,31.97-55.74-10.34-90.92-16.96-148.76-19.86Z"/>
  <path class="st2" d="M961.08,1221.26c5.39-4.88,13.29-13.57,20.49-14.38,2.52,1.34,2.98,4.08,4.04,6.94l.1-.35c8.58,19.82,7.52,92.44,13.26,116.94,4.88,20.81-20.19,48.78-26.24,19.27,3.71-44.16.22-85.6-11.65-128.42Z"/>
  <path class="st24" d="M857.85,1686.5c-9,57.95-36.22,104.58-62.69,156.42,21.86,10.79,32.15,16.18,52.95,29.21,77.72,48.72,186.54,55.64,274.86,49.36,10.08,2.61,16.12,4.89,25.82,8.63,52.5-16.5,54.85-23.45,39.16,30.27-8.8.59-8.96-.57-14.98,4.83-14.14,1.27-25.32,2.18-39.43,2.64-16.85,11.15-30.83-5.84-35.34,11.41-87.35,3.51-272.5-26.33-312.79-113.58l-1.55-17.95c17.97-43.38,58.96-111.73,61.94-153.44l12.05-7.8Z"/>
  <path class="st12" d="M857.85,1686.5c-9,57.95-36.22,104.58-62.69,156.42,21.86,10.79,32.15,16.18,52.95,29.21,77.72,48.72,186.54,55.64,274.86,49.36,10.08,2.61,16.12,4.89,25.82,8.63-18.54,4.85-20.55,4.43-40.37,5.58-21.91-.17-43.83-.21-65.75-.1-17.14-.83-37.2-3.53-54.35-6.12-14.66-2.21-29.31-3.68-43.71-6.97-4.47-.81-8.93-1.61-13.4-2.41-29.67-6.03-55.3-21.39-82.2-33.96-10.98-1.41-36.21-27.57-44-27.55-26.09.08,13.59,37.28,21.62,43.06,4.04,2.89,9.03,5.06,13.49,7.27,2.48,2.98,3.26,2.88,6.85,4.77,108.17,49.48,171.8,49.91,286.55,54.16-16.85,11.15-30.83-5.84-35.34,11.41-87.35,3.51-272.5-26.33-312.79-113.58l-1.55-17.95c17.97-43.38,58.96-111.73,61.94-153.44l12.05-7.8Z"/>
  <path class="st4" d="M1042.68,1935.6c21.92-.11,43.83-.07,65.75.1-28.68,4.53-36.87,4.71-65.75-.1Z"/>
  <path class="st13" d="M1214.27,1788.85c.88.38,1.78.71,2.64,1.13,1.94.94,3.25,2.58,3.71,4.7.31,1.44-.34,4.2-1.4,5.24-1.77,1.74-3.75,3.26-5.62,4.89l3.17-1.64c-18.01,20.8-55.37,21.83-80.52,25.02-.59-.32-1.17-.66-1.77-.97-1.64-.85-3.33-1.59-4.93-2.51-.95-.54-2.06-1.58-2.23-2.75-.16-1.18.31-2.35,1-3.29,2.14-2.91,7.7-3.26,10.99-3.45,27.45-1.57,50.68-14.4,74.96-26.38Z"/>
  <path class="st9" d="M1115.28,1859.2c15.55-2.88,79.91-20.94,83.08-19.56,13.89,22.44-74.31,28.05-91.45,23.82-2.75-2.99-4.34-3.33-3.88-5.88,3.83-.99,8.49.78,12.24,1.62Z"/>
  <path class="st3" d="M1106.91,1863.46c-2.75-2.99-4.34-3.33-3.88-5.88,3.83-.99,8.49.78,12.24,1.62-4.03,2.49-4.07,2.58-8.37,4.26Z"/>
  <path class="st9" d="M1220.79,1747.26c.6.06,6.37-.07,8.1,1.33.91.73,1.12,1.44,1.24,2.66.23,2.5-1.18,5.27-2.8,7.09-16.78,18.88-51.17,18.78-73.79,20.3-2.38-1.51-5.06-2.95-6.92-5.12-.72-.84-.65-.91-.65-1.64,1.05-1.25,6.25-2.1,7.18-2.3,24.33-5.16,44.81-12.06,67.64-22.31Z"/>
  <path class="st9" d="M1246.85,1677c.76,2.43,1.76,4.82,2.15,7.33,1.03,6.57-3.18,13.66-7.07,18.55-16.11,20.27-42.79,24.94-67.15,27.22.02-1.14-.31-5.62.76-7,1.32-1.69,5.53-2.78,7.42-3.3,29.37-8.06,43.63-20.04,63.88-42.8Z"/>
  <path class="st26" d="M855.33,1462.18c17.94-3.07,48.03,5.68,64.94,12.69-13.84,1.51-25.43,2.27-39.23.14-4.01-.62-8-1.41-12.02-1.93-3.77-.49-8.9-.52-12.11-2.94-2.28-1.72-1.53-5.84-1.57-7.96Z"/>
  <path class="st9" d="M1214.33,1655.71l2.76-3.14c44.85-51.92,32.06-17.86,7.03,9.86l-9.79-6.72Z"/>
  <path class="st3" d="M860.64,1491.17c4.76.4,9.52.72,14.26,1.29,5.02.61,10.02,1.45,15.06,1.94,13.51,1.32,20.46,2.78,32.93,7.85-17.1,1.8-34.22,5.38-49.76-3.79-1.68-.99-3.31-2.07-5-3.06-2.48-1.45-4.99-2.82-7.49-4.24Z"/>
  <path class="st26" d="M925.26,1469.35c5.08.68,10.14,1.4,15.27,1.75,4.31.29,9.13.13,13.4,1.26,3.57.95,3.93,2.79,5.62,6.08-2.7.98-5.38,2.18-8.28,2.37-11.77.81-17.44-4.16-26.01-11.47Z"/>
  <path class="st26" d="M1224.12,1662.44c-16.74,6.16-37.73,8.51-9.79-6.72l9.79,6.72Z"/>
  <path class="st9" d="M223.66,516.02c2.26-77.06,20.66-232.19,103.36-262.29C668.04,129.65,1059.01,6.9,1421.55,100.38c191.51,49.37,284.48,118.56,325.86,314.71l-7.57,3.91c-5.04-16.69-7.18-33.49-18.57-43.89-41.65,11.26-84.21,25.55-125.12,39.44-132.92,45.13-278.83,77.75-409.06,128.41,15.13,97.65,13.17,269.33,4.77,370.58-2.32,27.99-28.45,70.77-29.84,101.46-5.19,113.98-2.95,253.95,11.03,366.94,52.76,75.53,96.64,118.4,113.59,215l-11.74-15.32c-11.6-27.41-18.92-58.92-32.67-84.51-11.75-21.87-65.07-84.4-71.79-103.82-22.92-66.22-21.02-196.21-22.71-267.41-19.44,2.04-25.29,2.76-43.95,7.97,1.2-14.86,2.61-22.6.31-37.4-2.95-1.99-4.73-5.31-4.74-8.88-.02-3.56,1.72-6.9,4.65-8.92,4.3-16.21,9.02-18.49,1.83-35.52-9.31,4.95-18.56,10.01-27.73,15.21l-8.01-8.13c93.65-143.91,81.91-361.12,57.97-523.86-23.8-122.9-97.43-205.87-221.46-228.92-173.72-32.28-356.91-57.16-532.16-53.5-78.05,15.6-132.44,119.34-134.81,186.81-4.21,120-9.82,275,20.01,388.56,54.75,208.48,254.86,224.23,426.04,248.87l-12.95,6.62c-26.25,2.57-60.5-7.34-86.08-10.36-149.09-17.6-270.1-66.67-325.36-216.87-24.25-65.92-23.42-106.03-31.89-173.74-1.41-52.69-5.19-106.72-5.72-157.78Z"/>
  <path class="st17" d="M404.86,228.02c166.14-25.11,300.3,17.92,453.77,30.67,365.49,30.37,322.58,299.92,328.48,579.18,1.87,88.33-16.74,142.72-81.29,205.25-9.31,4.95-18.56,10.01-27.73,15.21,34.6-60.46,65.62-130.72,70.03-201.41,10.72-171.8,28.3-479.04-175.15-550.09-170.41-59.51-388.34-60.48-568.11-78.8Z"/>
  <path class="st16" d="M1103.99,1078.64c4.47-3.09,10.55-2.37,14.17,1.68,3.62,4.06,3.66,10.18.08,14.27-3.58,4.09-9.65,4.89-14.16,1.84-2.95-1.99-4.73-5.31-4.74-8.88-.02-3.56,1.72-6.9,4.65-8.92Z"/>
  <path class="st17" d="M1153.9,73.62c9.99.37,12.1.1,21.35,2.41l27.14.62c69.35,5.85,26.84,2.42,69.46,23.4l6.98,3.48c.85.4,1.69.79,2.54,1.19,18.45,13.13,27.85,21.28,49.28,29.21l.94-4.74c-24.57-24.13-35.8-29.09-65.79-45.79,84.34,8.23,77.08,29.14,140.24,68.44-20.01-30.32-36.19-38.18-66.57-56.7,166.64,22.44,253.4,147.14,300.04,297-148.97,40.72-304.3,92.76-453.05,138.33-6.05-67.49-33.78-131.2-79.06-181.62-79.94-89.75-171.36-86.66-280.9-104.92-115.46-19.25-223.86-29.56-340.64-36.8,138.58-51.94,517.88-138.03,668.04-133.5Z"/>
  <path class="st15" d="M1202.4,76.65c69.35,5.85,26.84,2.42,69.46,23.4l6.98,3.48c.85.4,1.69.79,2.54,1.19-7.73,11.8-7.18,10.66-6.99,25.09-18.78-30.37-42.77-33.92-75.09-44.44l3.11-8.72Z"/>
  <path class="st5" d="M1199.29,85.36c32.32,10.52,56.31,14.07,75.09,44.44-25.1-8.09-45.47-23.74-71.04-32.35-9.69-3.26-31.14-1.01-34.35-9.45,9.37-2.78,20.22-2.27,30.31-2.64Z"/>
  <path class="st10" d="M1153.9,73.62c9.99.37,12.1.1,21.35,2.41-7.12,5.64-12.55.52-21.35-2.41Z"/>
  <path class="st9" d="M1198.17,422.76c2.42,1.39,4.97,2.57,7.19,4.25,13.67,10.32,17.23,43.41,19.51,59.33-2.26-.33-5.95-.44-8.03-2.02-2.66-2.03-4.11-6.01-4.59-9.21-2.72-18.27-9.01-34.65-14.09-52.35Z"/>
  <path class="st9" d="M1238.06,414.03c1.86,1.28,3.74,2.53,5.58,3.85,14.38,10.23,20.43,37.82,23.35,54.11-6.86-3.69-10.39-5.22-12.91-12.91-5.02-15.31-11.85-29.39-16.02-45.05Z"/>
  <path class="st6" d="M1284.22,417.68c5.42,2.38,9.58,3.7,13.63,8.02,7.64,8.16,6.07,21.82,6.09,31.88-4.86-4.5-6.73-6.15-8.81-12.36-3.2-9.56-6.74-18.35-10.91-27.54Z"/>
  <path class="st7" d="M1451.14,116.18c128.79,34.19,204.31,90.02,258.09,206.04,28.52,61.51.38,46.59-61.91,66.14-40.03-130.16-33.34-117.4-122.07-214.27-4.5-3.37-4.03-2.51-6.86-6.8-22.34-18.57-44.11-33.24-67.24-51.11Z"/>
  <path class="st7" d="M363.17,432.18c9.99-3,20.03-5.89,30.25-8.02,63.16-13.18,539.5,25.01,578.92,54.28,37.68,27.98,43.93,86.8,49.86,130.08,12.1,80.36,31.77,262.34-14.11,327.48-21.72,30.84-54.37,48.58-91.19,54.56-83.2,13.52-444.05-36.7-509.89-84.13-41.29-29.74-63.5-92.6-70.07-141.91-.52-3.93-.96-7.87-1.34-11.82-1.32-7.05-2.49-14.12-3.51-21.22-8.54-57.27-15.88-198.65,3.04-255.64,3.82-11.51,20.08-33.05,28.05-43.66Z"/>
  <path class="st7" d="M363.17,432.18c9.99-3,20.03-5.89,30.25-8.02,63.16-13.18,539.5,25.01,578.92,54.28,37.68,27.98,43.93,86.8,49.86,130.08-2.06,5.15-.46,2.2-5.99,8.09l-5.66-18.27c-4.53-20.59-6.86-34.4-17.26-52.84-25.71-33.39-80.48-33.97-119.12-47.45-14.5,15.98-13.96,21.53-28.75,37.4-30.34,32.53-83.03,77.4-109.67,111.98-59.44,77.18-173.72,167.65-221.77,245.98-43.11-16.24-60.53-19.17-91.65-53.9-3.38-32.6-8.56-65.6-11.05-98.09-2.26-15.29-3.23-24.66-3.67-40.08-.44-6.77-.97-12.7-1.63-19.42-26.11-21.91,3.69-14.54-20.09-22.51-15.53,3.23-16.32,2.23-28.05,13.57l-3.5,16.13,8.66,10.53c3.41,5.09,3.63,5.23,5.61,10.94-2.32,9.12-6.49,36.79-8.83,41.22l-.97,3.5c-2.63-2.45-7.89-5.64-11.09-7.77l-12.11,5.18c-1.32-7.05-2.49-14.12-3.51-21.22-8.54-57.27-15.88-198.65,3.04-255.64,3.82-11.51,20.08-33.05,28.05-43.66Z"/>
  <path class="st13" d="M363.17,432.18c9.99-3,20.03-5.89,30.25-8.02,63.16-13.18,539.5,25.01,578.92,54.28,37.68,27.98,43.93,86.8,49.86,130.08-2.06,5.15-.46,2.2-5.99,8.09l-5.66-18.27c-4.53-20.59-6.86-34.4-17.26-52.84-25.71-33.39-80.48-33.97-119.12-47.45-61.86-4.76-134.71-12.18-196.25-20.21-15.57-.98-25.58-4.14-40.86-7.09-62.67,49.99-178.83,167.21-229.44,230.58-.44-6.77-.97-12.7-1.63-19.42-26.11-21.91,3.69-14.54-20.09-22.51-15.53,3.23-16.32,2.23-28.05,13.57l-3.5,16.13,8.66,10.53c3.41,5.09,3.63,5.23,5.61,10.94-2.32,9.12-6.49,36.79-8.83,41.22l-.97,3.5c-2.63-2.45-7.89-5.64-11.09-7.77l-12.11,5.18c-1.32-7.05-2.49-14.12-3.51-21.22-8.54-57.27-15.88-198.65,3.04-255.64,3.82-11.51,20.08-33.05,28.05-43.66Z"/>
  <path class="st7" d="M415.97,461.76c45.85-3.45,87.52-.22,133.03,1.25,15.12.49,80.12,9.47,88.05,7.74-62.67,49.99-178.83,167.21-229.44,230.58-.44-6.77-.97-12.7-1.63-19.42-11.84-73.43-10.13-148.56,9.99-220.15Z"/>
  <path class="st22" d="M407.62,701.33c50.61-63.37,166.77-180.59,229.44-230.58,15.29,2.95,25.3,6.11,40.86,7.09-19.83,11.2-88.47,89.88-113.06,111.71-54.54,48.43-95.3,104.18-153.57,151.86-2.26-15.29-3.23-24.66-3.67-40.08Z"/>
  <path class="st11" d="M513.98,893.4c48.05-78.32,162.33-168.8,221.77-245.98,26.63-34.58,79.33-79.45,109.67-111.98,14.8-15.87,14.25-21.42,28.75-37.4,38.64,13.48,93.41,14.06,119.12,47.45-16.15,15.58-36.09,29.25-50.25,46.41-60.62,73.47-128.5,134.89-196.24,201.05-13.12,12.75-26.55,25.16-40.29,37.24-9.69,8.45-17.28,17.33-28.34,27.07-18.24,16.23-35.24,33.8-50.87,52.55-35.14-4.17-76.95-11.55-113.32-16.42Z"/>
  <path class="st19" d="M651.45,854.16c.35-.14.7-.27,1.05-.41,1.5-.62,2.95-1.33,4.47-1.87.77-.27.89-.06,1.42.27.43,2.01.27.7-.19,3.93-.33.31-.67.6-1,.91-1.67,1.57-3.09,3.62-5.38,4.15-1.25-1.94-.47-5.02-.38-7Z"/>
  <path class="st9" d="M1010.55,598.34l5.66,18.27c5.53-5.9,3.93-2.95,5.99-8.09,12.1,80.36,31.77,262.34-14.11,327.48-21.72,30.84-54.37,48.58-91.19,54.56-83.2,13.52-444.05-36.7-509.89-84.13-41.29-29.74-63.5-92.6-70.07-141.91-.52-3.93-.96-7.87-1.34-11.82l12.11-5.18c3.2,2.13,8.46,5.32,11.09,7.77l.97-3.5c2.34-4.42,6.51-32.09,8.83-41.22-1.98-5.71-2.2-5.86-5.61-10.94l-8.66-10.53,3.5-16.13c11.73-11.34,12.52-10.34,28.05-13.57,23.78,7.97-6.01.6,20.09,22.51.66,6.72,1.19,12.65,1.63,19.42.43,15.43,1.4,24.79,3.67,40.08,2.49,32.49,7.67,65.49,11.05,98.09,31.12,34.73,48.54,37.66,91.65,53.9,36.36,4.87,78.18,12.26,113.32,16.42,12.6,2.59,24.76,4.78,37.55,6.08,4.4,0,3.95-.16,7.91,1.88,33.54,3.92,65.74,5.43,98.14,17.15l14.77,1.43c29.96,1.05,46.27,3.66,74.73,6.68,20.84-2.17,102.82-2.27,123.63-.62,48.14-40.63,44.84-96.89,40.06-156.11-2.6-18.04-6.58-36.26-2.45-53.79-3.46-44.68-7.54-89.49-11.1-134.2Z"/>
  <path class="st2" d="M359.78,751.79c3.16,1.59,6.32,3.17,9.48,4.76,5.67,3.33,11.43-.4,14.69-5.3,2.07-2.64,6.2-5.58,9.08-2.51,4.81,5.15,4.24,12.3,5.39,18.76,3.69,20.55,8.76,40.93,9.51,61.91.3,8.29.48,17.43-3.29,25.01-3.1,5.76-2.69,15.27,6.51,11.95,4.1-1.48,8.66-10.66,13.76-8.7,8.51,3.27,18.7,12.67,25.4,18.96.66.66.84,2.9.42,3.84-2.95,6.51-15.45,6.84-20.93,12.53-3.16,3.27-13.3,3.92-18.03,2.54-16.54-4.79-30.8-36-39.84-49.19-3.07-4.47-5.92-16.2-6.7-21.48-.95-9.65-4.91-14.39-8.42-22.95-4.27-10.43-3.24-30.01-.57-40.91.86-1.9,1.73-3.81,2.59-5.71l.97-3.5Z"/>
  <path class="st25" d="M363,699.63c32.95-17.8,32.21-35.68,28.21,23.39-.33.11-.66.21-.99.31l-5.48-3.14,3.77-2.8-5.37,1.68c-4.92-3.64-8.93-5.53-14.53-8.5-1.98-5.71-2.2-5.86-5.61-10.94Z"/>
  <path class="st4" d="M860.4,943.06c20.84-2.17,102.82-2.27,123.63-.62-23.15,4.97-101.6,6.73-123.63.62Z"/>
  <path class="st24" d="M1021.65,732.54c5.07,8.26,3.99,13.88,3.45,23.64-.49,10.04-.83,20.1-1.01,30.15-2.6-18.04-6.58-36.26-2.45-53.79Z"/>
  <path class="st4" d="M664.85,915.91c4.4,0,3.95-.16,7.91,1.88-5,.14-4.84.74-7.91-1.88Z"/>
  <path class="st17" d="M461.59,891.08c32.25-1.38,77.49,16.42,110.27,22.08,87.31,15.08,177.9,29.04,265.86,39.6,42.26,5.07,93.79-7.37,133.13,2.07-2.7,9.98-14.31,13.57-23.02,18.83-16.61,4.84-32.07,8.15-49.39,8.75-63.96,2.21-428.47-38.15-465.27-72.74l1.08-4.76,27.35-13.82Z"/>
  <path class="st17" d="M770.89,934.94c48.52-69.01,95.2-119.58,156.48-177.88,10.28-9.79,37.43-45.63,48.72-50.01l2.37,2.11c-2.49,35.64-81.56,99.54-102.83,130.09-24.19,34.76-67.19,62.91-89.98,97.13l-14.77-1.43Z"/>
  <path class="st26" d="M349.85,295.15c1.16,1.09,5.21,4.07,5.33,6.06.27,4.48-52.17,62.6-58.37,72.83l-3.33,5.62-4.46,7.35c-1.03-.72-2.13-1.35-3.1-2.15-1.11-.91-1.65-2.38-1.68-3.78-.46-20.56,51.59-72.79,65.61-85.94Z"/>
  <path class="st6" d="M373.1,308.52c.76.72,5.61,4.35,6.05,6.84.42,2.42-2.04,4.35-3.44,5.89-14.2,15.71-24.97,33.27-38.8,49.1-1.07-.63-2.19-1.17-3.2-1.89-.71-.5-.99-1.07-.98-1.89.11-13.88,31.15-46.89,40.37-58.05Z"/>
</svg>