<?xml version="1.0" encoding="UTF-8"?>
<svg id="Layer_1" xmlns="http://www.w3.org/2000/svg" version="1.1" viewBox="0 0 2048 2048">
  <!-- Generator: Adobe Illustrator 29.8.6, SVG Export Plug-In . SVG Version: 2.1.1 Build 1)  -->
  <defs>
    <style>
      .st0 {
        fill: #040405;
      }

      .st1 {
        fill: #fff;
      }

      .st2 {
        fill: #fbd795;
      }

      .st3 {
        fill: #fbf5ed;
      }

      .st4 {
        fill: #f9e3c3;
      }
    </style>
  </defs>
  <path class="st0" d="M1169.1,403.5c21.6-2.8,48.2,1.6,68.3,9.3,50.7,19.6,113.5,63.7,74.5,123.7,20.2,15.2,38.9,44,50.9,66.1,3.2,1.5,6.3,3,9.4,4.7,79.8,41.8,131.3,125.3,157.4,209.3,22,12.6,41.8,31.3,54.5,53.3,8.9,15.7,14.2,33.1,15.6,51,2,28.3-11.7,87.9-19.2,115.9,23.2,12.6,44.3,24.8,64.4,42.3,27.1-11.4,51.5-16.3,81.1-10.1,30.1,6.3,57.8,26.9,74.9,52.2,4.4,5.6,8.3,18.5,12.3,23.5,16.8,21.4,29.8,42.4,26,70.9-.9,6.7-3.3,16.2-3.4,23.2-.2,12.8,1.9,25.9-1.6,38.5-15.8,55.7-66.2,79.3-120.5,65.9-31.7,9.8-66.1,8.7-94-11.5-4.8-4-9.1-9-14-12.8-4.8-3.5-9.5-7-14.1-10.8-28.6-22.6-41.7-62.3-36-98.2-10.6-8.2-21.7-15.6-33.4-22.1-29.3,55.3-81.2,120.3-130.7,159.1,23.8,22,36.3,36.4,52.5,64.4,11.9-6.8,19.3-10.8,32.2-15.3,16-39.8,63.1-46.6,100.1-38.2,4.4,1,15.3,7.1,18.2,7.3,34.3,2.6,66.2,18.7,76.9,53.5,4.7,15.1,2.3,22.4,11.7,37,6.9,10.7,5.4,33.7,1.3,46.1-7,21.1-21.4,34.4-41.2,44.6-25.6,47.4-76.8,75-122.9,99.4-44.6,24-93.8,39.2-141.5,14.1-46.6-24.6-51.8-62.6-56.6-109.7-1.5-14.7-6.7-33.6-11.3-47.8-4,11-8.8,21.6-16.1,31-42.1,53.4-134.3,75.3-197.9,84.8-94,14.1-246.7-5.7-323.2-64.6-20.2-15.8-30.2-31.4-35.9-55.9-10.6,26.4-14.3,54.9-17.5,82.9-.8,7.3-2.1,14.5-4.3,21.5-7.9,25.2-25.6,46.2-49.1,58.2-46.1,24-91.3,10.6-134.4-11.3-46.9-23.8-105.3-54.8-130.1-102.9-29.9-12.8-52.4-49.3-42.7-83.7,3.2-11.5,8.5-16.1,9.8-29.7,1.9-21.2,14.9-41.3,32.2-53.1,15.6-10.8,29.7-10.9,47.7-13.2,3.2-.4,12.6-5.8,16.2-6.8,13.4-4,33.3-4.9,46.9-2.1,25.3,5.3,38.1,16.8,52,37.2,14.7,5.4,23.2,9.7,36.5,17.3,14.7-26.9,31.4-45.2,53.4-66-49.2-37.2-100.9-103.6-129.8-157.9-10.5,7-21.5,14-31.5,21.7,1.6,38.6-6.3,75.5-39,99.4-10.4,7.6-16.8,14.5-25.9,21.9-19.4,15.8-51.5,20.4-75.5,16.8-4.6-.7-11-3-15.8-3.7-26.5,3.4-43.8,6.4-69.8-4.7-22.5-9.5-40.2-27.8-49-50.6-7.6-19.3-6.8-30.3-6-50.2.1-3.2-2.6-17.2-3.2-21.6-2-15.3.7-28.9,6.6-43,5.3-12.5,13.4-20.3,20.7-31.2,4-5.9,7.7-16,12-22.2,14.2-20.7,38.3-39.6,61.8-48,32.8-11.7,61.7-8.8,92.6,5.2,22.1-17.8,38.5-27.8,63.3-41-8.9-34.3-22-97.2-13.9-131.7,8.8-37.5,38.4-68.7,70.4-88.6,1.1-3.9,2.3-7.7,3.6-11.4,30.3-87.2,80.1-163.6,165.5-204.8,12.8-23,27.2-42.5,47.2-59.6-7-9.1-11.5-16.6-14.3-27.9-3.7-15-.5-32,8.1-44.9,20.6-31.2,64.4-52.9,99.9-60.5,32.3-6.7,67.6-5.4,95.8,13.2,27,17.8,44.3,50,30.3,81.7-2.8,6.4-6,10.9-10.1,16.6,8.9,5,14.9,9.5,22.9,15.7,36.6-10.3,70-7.4,104.8,7.2,9.1-9,16.6-14.6,27.3-21.5-34.1-39.1-14.5-84.7,28.2-106.4,12.7-6.4,23.3-8.6,37.4-10.4Z"/>
  <path class="st1" d="M1171.2,407.5c36.4-3.2,74.9,9.3,104.8,29.6,37.6,25.5,59.5,57.3,30.5,99.9,22,19.3,40,42.8,53,69,7.4,3.3,14.6,7,21.6,11.1,68,39.6,124.4,125.8,144.5,201.8,35.3,20.1,68.7,60.1,70,101.5,1.1,34.3-10.7,85.8-20.3,118.7,19.8,9.6,53.6,30.1,69,45.6,24.4-13.6,57.5-18,84.8-10.7,27.5,7.4,52.8,26.4,68.6,50.1,4.4,6.6,7.9,16.8,12.2,23.4,5.2,8,11.6,14.6,16.4,23.3,7.8,14.2,10.8,30.6,8.6,46.6-.7,4.8-3.4,18.4-3.4,22,.2,13.7,2.2,24.5-1.6,38.1-14.2,50.9-66,76.7-115.8,61.5-42.3,13.7-76.7,5.7-108-24.5-8.8-8.5-17.3-12.6-25.7-23.5-19.7-25.4-24.1-52-20.7-83.2-12.5-9.2-25.5-17.9-38.8-26-9.2,14.9-16.8,29.1-26.8,44.6-32.1,49.4-65.4,82.4-108.9,120.8,24.9,22.9,40.8,39.8,57.5,70.3,13.9-8.5,21.5-12.1,36.6-18,18-43.9,80.1-51.3,116-28.2,43.7-1.7,73.5,29.4,75.9,72,2.8,3.7,4.5,6.3,6.5,10.4,7.1,14.9,8,32.1,2.4,47.6-7.3,20.6-21.1,32.8-40.3,42.1-25.1,51.5-100.5,89.6-151.4,112.6-30.1,14-66.4,17.4-97.4,4.6-52.8-21.8-59.5-60-64.5-110.9-4.2-43.5-23.5-94-67.4-111.8,4.3,4.6,10.7,9.2,15.7,13.3,17,13.8,24.3,23.5,33,43.1-11.4,55-69.7,81.8-117.9,98.2-117.3,40-268.5,33.4-379.9-21.4-28.7-14.1-66.6-41.5-67.4-77.4-.2-9.2,3.6-17.2,7.3-25.4-19.6,26.1-29.1,64.6-32,96.6-3.8,43-16.2,73.3-57.1,93.6-23.8,11.8-64,13.6-89,3.1-53-22.4-140.7-64.2-165.9-118.3-3.1-1.5-6.1-3.2-9.1-5-34.4-20.9-44.9-60.1-23.8-94.7-.8-42.8,33.6-74.9,76.3-71.4,20-12.2,41.4-14.9,64.4-10.1,22.1,4.7,35.9,17.6,47.8,36,17.1,6.1,25.9,10.8,41.2,20,13.9-28.1,35.2-51.4,58.4-72.2-54.2-42-102.7-103.7-134.9-164.2-13.1,8.7-25.3,16.9-37.9,26.2,2.6,17.9,1,36.1-4.8,53.2-5.4,16.2-14.7,30.2-27.5,41.7-3.8,3.4-11.8,7-15.1,10.7-28.2,30.9-66.5,38.3-105.5,25.4-24.3,6.8-48.8,5.9-71.5-5.6-20.8-10.6-36.6-29-43.7-51.2-5.9-18.1-3.2-25.5-3.6-44.1-.9-8.7-3.3-18.5-3.7-27.2-1.4-26,10.7-44.7,26.3-64.1,2.4-2.9,5.6-11.3,7.9-15.3,21.5-38.4,65.6-64.4,110-61.3,18.3,1.2,29.7,4.9,46,13.5,20.4-18.2,44-32.1,68.3-44.3-9.6-30.2-22.7-101.5-15.2-132.1,9.3-37.9,37.6-67.8,70-87.7,1.1-3.8,2.2-7.5,3.5-11.2,21.8-64,61.1-133.1,115.2-174.8,16.7-12.9,31.6-21,50.1-30.2,13.8-24.4,28-44.2,50.1-62.1-18.9-23.4-25.6-48.6-5.9-74.6,24.3-32.1,67-50.2,105.6-57.2,46.5-8.4,104.9,11.1,114.6,62.7,3.4,18.2-5.6,33.6-16.7,47.6,10.2,6.2,18.3,11.7,27.6,19.1,36.8-8.3,72.2-10.5,106.7,8.6,10.6-10.9,20.3-18.5,33.4-25.8-32.1-33.7-23.6-72.5,13.6-98.3,14.4-10,30.3-13.8,47.6-15.8Z"/>
  <path class="st0" d="M1084,592.6c21.8-29,46.6-46.6,82.2-54.9,69.7-16.2,145.6,29.1,160.9,99.8,14.6,5.1,28.5,11.9,41.6,20,65.2,40.2,104.2,117.7,121.5,190.3,23.4,10.9,45,27,56.3,50.9,3.9,8.3,6.2,17.3,6.7,26.5,1.6,31.4-18.3,106.6-28.8,136.4,15.4,5.2,39.8,16.9,52.8,25.8,13.2,9,58.6,38.4,60.2,53.4l-1.1,1.2c-2.9-1.3-21-18.3-25-21.7-32.3-26.7-75.1-53.2-116.8-59.2-17.4-1.9-34.9-.7-49.4,9.9-11.8,8.6-10.2,30.8,2.6,36.5,10.9,4.8,28.2,5.1,41,8.6,48.3,13.6,92,40.2,126.1,77-14.5,31.3-7.7,66.8,22,84.2,5.1,3,11.9,9.7,17.3,13.5,9.3,6.7,21,9.3,32.2,7.2,15-2.9,27.3-14.8,22.5-31.1-8.1-27.4-31.4-15.6-49.8-26.9-2.9-1.8-4.3-2.9-5-6.3l1.6-1.6,7.8,3.3c31.6,13.3,52.4-17.6,41.3-46.3-1.3-3.4-3.4-5-1.6-8.3,3.9-.2,2-.5,5.9,1.3,10.1,12.3,3.6,37.1-3.9,49.7,9.7-2.9,21-6.4,28.8-13.1,4.2-3.6,13.4-14.7,18.6-14,.5,2.9.4,3.8-1.4,6.2-12.5,16-30.3,25.8-50.5,27.1-2.9.2-5,1.3-6.8,3.8,11.9,7.5,23.8,18.7,38.7,16.3,45-7.3,74.9-49.9,32-85.2-.5-2.3-1.1-4.5-1.7-6.8-11.1-41.3-58.7-64.5-96.6-42-5.6,3.3-17.6,15.9-22.8,11.8v-2.2c10.7-10.8,22.4-18.7,37.2-22.4,18.6-4.8,38.4-1.9,54.8,8.2,19.3,11.9,29.9,28.9,34.9,50.5,22.4,15.5,25.9,39.1,15.3,62.9,7.4,24.9,1.1,54.9-25.7,65.7-18.6,7.5-32.6.2-49.4-7.2-3.1,3.2-5.6,5.3-9.6,7.6-11.1,6.5-24.3,8.1-36.6,4.4-12.4-3.6-48.9-31.1-55.7-44.8-11.3-22.7-8.5-40.9-2-63.9-29.3-30.7-65.6-53.8-105.8-67.4-46.2,101.5-100.9,161-191.8,223.2,30.7,12.8,54.7,29.7,76,55.5,19.4,23.2,32.2,51.2,37.1,81,.8,5.1,3.7,16.5-.6,19.8l-2.3-.5c-2.1-3.2-2-7.5-2.4-11.5-2-16.7-6.6-33-13.8-48.2-20.3-42.8-56.8-75.8-101.5-91.6-16.4,10.1-37.6,20.8-55.2,28.7l1.8,3.4c.8,0,1.7,0,2.5.2,21.8,2.4,42.9,12.6,60.3,25.8,42,32,58.4,80.4,64.1,131.1,2.3,20.2.4,41.6,14.3,58.2,9.3,11.1,23.2,16.7,37.3,18.1,36.8,3.7,113.6-43.7,142.3-67.5,16.1-13.4,28.7-29.3,30.3-50.9,1.1-16.2-4.4-32.2-15.2-44.3-37.7-43-97.4-19.4-133.2,13-4.9,4.4-19.6,22.2-25.5,21.4-.6-2.2-.2-3.9,1.4-5.8,26.1-29.9,56.2-50.7,95.2-58.3.4-25.2,21.3-43.8,45-28.7,6.6,4.2,7.8,10.6,13.3,16,1.4-.4,1.4-.3,2.6-1.1,13.9-8.3,28.8-3.6,38.8,8.3,4.4,5.3,6.9,10.5,6,17.6-.7,5.5-4.1,9.6-4.4,15.1,2.4,1.7,4.8,3.5,7.1,5.4,24.4,19.8,3.6,47.4-24.6,48.3-.8,3.3-3.4,12-5,15.3-26.5,48.4-92.1,76-140,97.6-31.9,14.4-75.9,1.1-86.8-33.9-2.9-9.2-4.5-29-5.2-39.2-4.4-60.4-29.5-119.7-87.6-145.8-29.5-13.2-46.4-12.9-76.4-1.8,5,10.1,9.8,20.4,14.2,30.8,20.7,11.8,61.2,35.8,47.5,65.6-10.4,22.5-48,40.9-70.3,48.9-110.9,39.9-245.8,38.5-355.1-6.3-18.1-7.8-49.4-24.8-55.5-44.8-9.8-31.8,23.9-46.7,42.9-62.8,3.8-3.2,13.3-24.2,16.2-30-23.7-9.5-31.5-11-56.9-3.3-73,22.2-102.1,76-111.7,148.1-3,17.7-1.1,36.4-10.2,52.5-9.8,20.2-41.4,31.6-63.3,27.2-24.7-4.9-59.3-22.7-81.5-35.6-25.8-14.9-56.3-33.7-72.4-59.1-4.4-6.9-6.6-15.1-8.8-22.9-35.1-3.2-50.1-38.6-17.6-52.9-5.8-9.6-7.8-17.9-2.8-28.6,3.4-7.2,9.6-12.8,17.1-15.4,12.1-4.2,17.1-1,27.3,4.1,1.8-.9,4.3-5.5,5.7-7.3,20.5-26.5,49.5-9.8,52.8,18.9,39,6.8,71.3,29,97.2,59.1,1.4,1.6.9,3,.3,4.6-6.2-.6-25.4-21.4-33.3-27.4-23.9-17.9-49.5-32.3-80.3-29.4-37.1,3.4-64.5,33.5-60.2,71.1,2.4,21.3,19,39.4,35.9,51.6,29.8,21.5,81.5,54,116.8,61.8,7.3,1.6,14.9,1.9,22.4.9,39.2-5.4,44.7-31.3,47.2-64.5,6.4-84.9,50.4-155.6,140.6-167.9-23.6-11.1-42.9-21.4-65.8-33.8-48.6,18.5-88.7,58-105.9,107.5-4.8,13.9-6.5,30.3-9.4,44.8l-1.3.4c-9.3-4.2,4-46.6,7-54.1,19.4-48.3,55.8-82.3,103-103.2-88.7-55.1-146.8-129.5-190.7-222.8-41.4,14.8-74.8,37-105.7,68,3,9,4.8,18.3,5.3,27.8,1.4,28.7-9.7,45.6-32.7,61.3-8.7,6-14.3,13-24.8,17.6-5.6,2.4-11.7,3.7-17.9,3.7-13.1.1-24.2-4.6-33.4-13.8-25.5,11.8-50,19.3-69.9-9.9-10-14.7-9.5-32.1-5.5-48.9-12.9-23.8-5.1-46.8,15.5-62.7,6.7-28.1,24.5-50.9,53.2-58.7,18.3-4.8,37.8-2.2,54.1,7.4,5.3,3.1,18,10.7,19.5,16.5l-1.3,1.8c-6.5.7-14.5-9.4-21.3-12.7-6-3-10.5-5.3-17.2-7-16.7-4.2-34.4-1.3-49.1,7.8-18.6,11.7-27.3,27.7-32.1,48.3-7.4,5.7-12.8,10.2-17.1,18.8-4.7,9.5-5.3,20.5-1.8,30.4,9.4,25.6,53.5,49.4,76.3,27.3,3.2-3.1,9.9-2.5,12.7-8.4-1.8-2.2-4.7-3.3-7.7-3.4-15.3-.4-29.4-8.3-41-17.8-3.6-2.9-10.8-11-8.1-15.7,4.2,1.4,11.7,10.4,16.8,14.1,10.5,7.6,16.4,9.8,28.6,13.1-5.3-9.3-10.3-19.7-8.8-30.7.7-5.6,4-18,8.5-21.4l1.7.5c1.7,3.1.5,5.5-.7,9-8.1,23.9,3.7,54,32.8,50.3,6.1-.8,11.7-8.3,18.9-6.1l-.5,1.7c-3.6,3.9-11.4,9.9-16.5,10.4-10.4,1.1-27.9,2.4-34.2,12.5-17,27,11.2,46.1,36.9,39.3,12-3.2,18.5-10.2,28-17.3,34-22,37.2-49.1,25.3-86.6,31.5-35.1,78.3-63.6,123.5-76.7,14.7-4.2,44.3-2.6,51.3-18.1,5.3-12.3,0-26.4-12.8-31.5-54.7-21.6-117.6,20.3-159,53.2-5,4-21.9,21-24.6,22-2.5-.9-1.6,0-2.9-2.3,1.5-6.6,10.8-13.7,15.8-18.2,29.5-26.6,61.7-45.6,98.7-60-11.7-35-35.3-120.2-22.4-156,9.1-25.1,34.8-44.5,58.7-55.4,19.4-91.7,70.2-177.8,161.8-211.8,29.1-115.1,174-140.5,245.2-44.1,11.4-2.8,19.4-3.9,30.9-5.3,14.7-17.2,14.6-1.9,21.4-1.8,22.6.5,43,.6,65.3,5.7Z"/>
  <path class="st3" d="M1246.4,1383.2l1.8,3.4c-1-.1-4.7-.3-5.4-1.2.3-1.2,2.6-1.9,3.6-2.3Z"/>
  <path class="st2" d="M1491.4,855.5c7.2,3.7,11.1,5.8,17.7,10.4,5.4,4,8.5,6.6,13.4,11.2,31.4,32.8,35.7,74.8.1,107.4-25.3,22.1-58.8,40.3-89.7,53.1-145.6,60.4-312.4,72.7-468.6,67.5-122.7-4.1-252.6-22.9-364.7-74.5-10-4.6-35.2-19.9-43.7-20.4l-1,1.1c4.3,6.6,15.1,11.1,21.9,14.8,54.8,29.8,116.4,48.2,177.1,61,205.4,43.2,568.1,39.7,745.9-77.3,15.8-10.4,29.1-21.7,41.6-36-6.5,32.2-12.5,54.8-22.6,86.1-24.3-6.8-48.8-9-72.2,1.8-15.1,7-20.2,29.3-11.5,42.1,10.8,15.9,41.8,14.9,60.2,20.9-19.8,42.4-40.5,79.5-70.5,115.4-150.1,179.6-412.8,239.2-624.2,136.2-118.8-57.8-192.7-133.3-248.5-252.2,14.4-3.8,54.5-6.6,59.9-20.3,21.2-53.8-49.6-54.6-83.2-44.4-10.3-32.1-15.5-54.5-21.9-87.8,6.8,9,17.6,22.5,27.9,27.6h2.2c1.2-2.5,1-1.2.7-4-21.8-22.1-36.3-31.7-35.5-65.9.8-34.7,27.9-56.2,55.3-71.5-2.5,13.3-4.1,25.5-6.3,38.6-5.6,3.9-8.3,5.9-13.2,10.6-4,3.8-7.3,11.2-10.2,12-9.5-10.8,8.8-28.1,10.5-37.8l-1.2-1.1c-5.7.7-12.7,11.9-14.4,17.1-8.6,26.7,8.8,48.3,29.5,62.5,36.9,25.4,80.9,39.5,123.7,51.4,198.4,48.5,413.3,50.2,614.7,18.2,67.7-10.8,184.2-36.9,231.7-92,15.4-17.9,9.1-41.4-5.7-58.2-2.7.6-2.6.4-4.6,2.3,1,5.2,10,14.6,12.3,20.5,2.2,5.5,2,11.6-.4,17-2.3-.5-6.3-7.8-9-10.8-6-6.7-9.4-9.8-16.8-14.8l-2.2-19.5c-1-5.7-2.9-12.7-4.2-18.5Z"/>
  <path class="st2" d="M840.7,1424.4c10.4,4.8,37.9,12.4,49.4,15.5,100.3,27.4,225.7,38.9,319.7-14.3,6,13.7,14.5,31.1,19.1,44.8-22.3,24.3-140.5,40.1-176.1,43.6-2.9.3-2.3.3-4.2,2.2l.3,2.2c17.7,7.5,138.2-21,160.7-29.2,32-11.7,26.4-21,15.2-46.1,12.2,7.8,28,18,34.3,31.4,13.3,28.4-33.6,50.4-53,59.3-73.5,31.3-165.8,38.8-245.3,28.8-48.4-6.1-129.7-23.2-163.7-61.9-4.4-4.9-7.1-14-5.6-20.7,3.4-15.6,18.9-26.7,31.2-35-2.7,6.6-9.4,19.2-7.9,26.3,1,4.8,5.5,7.7,9.4,10.2,8.6,5.4,18.8,8.6,28.6,11.2,23.7,6.4,146.4,30.7,162.3,26.1,1.8-.5,1.5-.8,2.3-2.4l-.6-1.6c-4.5-2.4-32.7-3.7-40.4-5.4-25.5-5.5-146.8-18.6-154.9-40.1.1-10.2,14.2-35.2,19.3-45.2Z"/>
  <path class="st1" d="M893.4,545.9l12.4,5.2c2.6,1.3,9.2,4.6,11.2,6.3,28.7,17.1,57.5,49.4,63.1,83.3,1.7,7.8,5.3,34.5,2.3,41.1-3.9,55.7-53.3,106.5-107.5,115.9-11.2,2.6-35.9,4.3-47.1,1.5-21.5-1.9-43.3-14.2-59.5-27.8-4.6-3.6-7.3-6.8-11.2-11-8.4-8-17.2-23.4-22.5-33.5,37.1,17.8,70.8,32.7,113.3,23.1,38.7-8.7,65.8-33.6,86.9-66.7,8.2-12.8,23.5-42.4,21.5-59.6-.1-1.3-.8-1.2-2.2-1.7-4.7,3.1-5.4,16.5-7.5,22.4-21.7,61.7-77.5,113.9-146.8,100.4-25.8-5-45.1-15.3-68.5-26.6-3.1-8.5-5.4-17.3-6.7-26.3-1.1-3.3-1.5-10.6-1.6-14.1,0-10.3.1-17.3,1.3-27.6,6.8,11.3,15.3,22.6,26.8,29.3,95.9,55.9,185.8-34.8,142.3-133.6Z"/>
  <path class="st2" d="M980.2,640.6c1.7,7.8,5.3,34.5,2.3,41.1-3.9,55.7-53.3,106.5-107.5,115.9-11.2,2.6-35.9,4.3-47.1,1.5,6.8.6,12.2-1.4,19.3-2l10-2.8c41.8-12.8,72.8-39.9,96.4-76.4,12.1-18.7,27.6-54.7,26.6-77.4Z"/>
  <path class="st1" d="M874.9,797.7l-1.6-.9.8-1.3c3.3-.9,6.5-2.1,9.6-3.5,36.6-16.3,71.8-57.6,88.4-93.3,4.1-8.8,5.6-14.3,8.9-23l1.1.2.4,5.8c-3.9,55.7-53.3,106.5-107.5,115.9Z"/>
  <path class="st2" d="M757.2,760.4c19.5,5,39.6,7.3,59.7,7,18.8-.2,54.5-5.8,68-19.7,1.6,4.1,1.3,4,4.3,7.3-6.6,2.2-14,6.9-20.6,9.7-19.9,8.5-41.9,11.6-63.5,10.1-7.9-.5-30.6-4.1-36.8-3.3-4.6-3.6-7.3-6.8-11.2-11Z"/>
  <path class="st2" d="M723,677.8c4.1,5.9,8.3,8.2,14.2,12.1,17.7,11.6,38.2,18.2,59.4,19.2,6.3.3,12.7.3,19,0,2.6-.1,7-1,7.9,2.5.2.8-.9,1.9-1.6,2.3-8.8,4-37.1,1.4-45.8-.5-3.3-.8-6.7-1.6-10-2.5-11.1-3-21.7-8.6-31.7-14.1-3.6-2-6.3-6-9.8-4.9-1.1-3.3-1.5-10.6-1.6-14.1Z"/>
  <path class="st2" d="M899.4,737.7c7.9-1.9,24.6-21.1,28.5-28.2,1.6,3.9,1.7,4.2,5.7,5.6-.4.2-12.1,13.5-13,14.8-5,6.9-12.5,10.4-17.6,15.5-1.2-3.7-1.5-4-3.5-7.5Z"/>
  <path class="st0" d="M884.9,747.7c3.8-7.5,5.8-10.3,14.4-9.9,2,3.5,2.3,3.8,3.5,7.5-3.5,7-5.6,8.8-13.6,9.7-3-3.3-2.7-3.2-4.3-7.3Z"/>
  <path class="st2" d="M905.8,551c2.6,1.3,9.2,4.6,11.2,6.3-2,4.9,4.2,17.7,2.1,23.6-.7,2-2.5,2.7-4.1,1.3-3.4-3.1-2.2-9.6-3.9-13.7-1.5-6.4-4.2-11.1-5.4-17.5Z"/>
  <path class="st0" d="M927.9,709.5c7.6-8.7,16.2-3.7,5.7,5.6-4-1.4-4-1.7-5.7-5.6Z"/>
  <path class="st2" d="M915.8,614.3c2,.5,6,1.8,5.4,4.6-10.3,55.3-44.3,102.4-99.8,115.9-2.7-.5-1.5,0-3.6-2.1l.2-2.2c2.5-3.2,9.2-4,13.2-5.3,37.6-12,63.3-47,76.8-82.5,3.5-9.2,5.3-19,7.8-28.5Z"/>
  <path class="st1" d="M1127.1,560.2c5.3-3,10.6-6.2,16.1-8.6-28.5,46.3-12.2,101,33.4,128.7,25.9,15.9,57.2,20.6,86.6,13,18.4-4.6,48.9-19.3,57-37.8,1.8-2.7,2.3-5.9,4.5-3.2,1.5,14.3,2,21.8.7,35.9l-1.8,10.7c-1.6,6.6-6.8,26.7-11.7,30.8-.6-.6-2.7-3.1-3.6-2.5-48.4,34.8-109.5,30.2-158.3-1.3-6.7-4.3-13-9.1-19-14.3-4.8-4.2-13-13.8-17.2-15.8l-1.6.4c-2.2,6.4,6.1,12.2,10.7,16.5,20.1,18.7,44.4,32.3,70.8,39.5,34.8,9.2,75.1,6,106.4-12.5,4.2-2.5,8.3-5.3,12.1-8.3-7.5,12.2-17.1,26.5-27.9,36.2-5.8,5.2-9.1,8.3-15.5,12.6-11.9,8.6-27.7,15-42,18.1-35.9,7.4-73.3.3-104-19.7-28.6-18.8-48.9-46.8-55.7-80.6-1.6-6.8-2-13.4-2-20.3-.8-8.2,0-16.1.8-24.3,5.1-32.4,22.2-63.7,48.1-84.1l1.1-.7c4.1-3.8,7.3-5.6,12-8.6Z"/>
  <path class="st1" d="M1070.5,689c27.7,60.4,110.6,97.8,174.7,92.3,4.8-.4,20-2.6,23.6-1-11.9,8.6-27.7,15-42,18.1-35.9,7.4-73.3.3-104-19.7-28.6-18.8-48.9-46.8-55.7-80.6.4-3.7-.6-6.4,2.4-8.4l1-.7Z"/>
  <path class="st2" d="M1065.1,677.9c-.8-8.2,0-16.1.8-24.3,1,22.7,25.1,58.3,41.9,73.3,34.9,31,86.7,50.1,133.4,48.4,14.4-.5,29.3-4.3,43.2-7.7-5.8,5.2-9.1,8.3-15.5,12.6-3.6-1.6-18.8.6-23.6,1-64.2,5.5-147.1-31.9-174.7-92.3l-1,.7c-3,2-2.1,4.8-2.4,8.4-1.6-6.8-2-13.4-2-20.3Z"/>
  <path class="st3" d="M1065.1,677.9c2.3,3.1,4,7.5,5.4,11.1l-1,.7c-3,2-2.1,4.8-2.4,8.4-1.6-6.8-2-13.4-2-20.3Z"/>
  <path class="st2" d="M1323.5,698.9c-5.6.6-21,10.8-27.6,13.4-49.6,19.5-115.9,12.7-155.9-24.3-2.2-2.1-1.9-3.4-1.7-6l1.5-1.2c2.2.6,2.1.6,3.8,2,43.3,37.2,110.3,43,161.1,18.2,7.1-3.5,14.1-8.3,20.8-12.8l-1.8,10.7Z"/>
  <path class="st2" d="M1115.1,568.8c4.1-3.8,7.3-5.6,12-8.6-11.1,31.6-23,51.8-6.9,86.8,2.3,5,12.7,18.7,12.4,22.4l-1.9,2.1c-6.5.3-8.8-6.9-11.7-11.7-17.1-28.2-16.4-53.7-6.6-84.2.2-2.8,1.3-2.9,1.5-6.1l1.1-.7Z"/>
  <path class="st3" d="M1115.1,568.8c.8,3-.4,4.5-2.6,6.8.2-2.8,1.3-2.9,1.5-6.1l1.1-.7Z"/>
  <path class="st3" d="M1320.2,655.5c1.8-2.7,2.3-5.9,4.5-3.2-1.4,1-3,2.3-4.5,3.2Z"/>
  <path class="st0" d="M1090.6,617.3c3.1.9,5,.8,4.9,4.8,0,8.1,1.4,15.7,3.2,23.5,1.3,5.5,4.4,10.2,4.7,15.4,0-.3-.5,3.6-.2,1.8-.8,0-3.6.2-4.1-.6-6.7-10.2-10.8-32.9-8.5-44.9Z"/>
  <path class="st1" d="M1329.5,646.6c104.5,40.6,153,156.4,162.5,261.3,1.7,18.5,1.1,32.9-3.5,51-10.4,6.6-21.2,12.6-32.3,17.9-.4.1-4.3,1.8-4.4.7-.9-7.4,0-16-1.1-23.6-2.2-24.1-11.6-58.5-20.5-80.6-25.2-62.5-59.7-99-120.7-125.6,3.1-4.9,5.9-9.9,8.8-14.9l3.2-6.7c10.5-28.9,14-48.8,8.1-79.6Z"/>
  <path class="st1" d="M1318.2,732.9c27.8,9,46.7,13.8,71.8,31.2,49,34.1,69.8,92.6,67,150.6-.4,8-1.2,16.2-1.8,24.3-1.3,5.3-.8,11.3-4.5,15-2.2-24.1-11.6-58.5-20.5-80.6-25.2-62.5-59.7-99-120.7-125.6,3.1-4.9,5.9-9.9,8.8-14.9Z"/>
  <path class="st0" d="M1426.9,813.6c6.4,2.7,3.5,7.4-.9,10.3l-1.5,1c-7-5.7-4.3-7.3,2.4-11.4Z"/>
  <path class="st2" d="M1321.4,726.2c1.8,2.1,30.1,9.9,35.7,12.2,59.6,23.6,97.6,75.9,105.3,139.1.4,2.8,1.9,15.1,2.8,16.8-1.9,0-3.4,1.4-3.4,3.3,0,1.9,1.5,3.4,3.3,3.4-2,6-.5,37.5-4.8,50.9-1.2,8-3.2,17.5-4.1,25-.4.1-4.3,1.8-4.4.7-.9-7.4,0-16-1.1-23.6,3.8-3.7,3.2-9.7,4.5-15,.5-8.1,1.4-16.3,1.8-24.3,2.8-58.1-18-116.6-67-150.6-25.1-17.4-44-22.2-71.8-31.2l3.2-6.7Z"/>
  <path class="st4" d="M1455.2,939c.5,7.1-3.3,25.3-1.1,29l.5.2c1.9-1.3,3.2-12.3,5.6-16.4-1.2,8-3.2,17.5-4.1,25-.4.1-4.3,1.8-4.4.7-.9-7.4,0-16-1.1-23.6,3.8-3.7,3.2-9.7,4.5-15Z"/>
  <path class="st0" d="M1465.2,894.2c1.8,0,3.3,1.6,3.3,3.4,0,1.9-1.6,3.3-3.4,3.3-1.8,0-3.3-1.6-3.3-3.4,0-1.9,1.6-3.3,3.4-3.3Z"/>
  <path class="st0" d="M1340.3,696.9c24.5.2,58.4,27.5,73.3,45.7,1.1,1.3-.4,7.8-6.1,2.1-9-9.3-13-13.1-23.3-20.8-3.8,2.9-4.2,4.6-9.6,5.9-6.6,2.5-11.9-8.4-6.8-12.5,7.1-4.7-10.7-9-14.1-11.2-6.2-4-13.2.3-13.4-9.2Z"/>
  <path class="st0" d="M1443.5,772c14.4-1,9.5,10.5,2.2,17.1-12-.6-10.9-9.5-3.5-15.8l1.4-1.2Z"/>
  <path class="st1" d="M559.6,958.2c-9.3-55.2,8.6-128.3,31.2-179.1,26.8-60.3,64.9-107.2,127.9-131.2-2.6,17.8-3,27.7,0,45.3-16.3,4.2-27,10-41.5,18-10.8,9.7-27,17.6-32.6,32.6l-.5,1.2c6.7,2.6,6.1-.9,12-7.8,16.6-19.3,39.6-30.5,63.4-37.9,4.1,15.4,6.1,22.6,13.1,37.1l3.3,5.9,8.5,13c-21.8,7.8-42.1,15.2-61,29.1-57.1,42.2-81.8,124.8-88.6,192.9-4-1.8-8.9-3.9-12.8-5.9-2.9-1.4-5.4-2.8-8.3-4.4-5-2.5-9.6-5.7-14.3-8.7Z"/>
  <path class="st1" d="M559.6,958.2c-9.3-55.2,8.6-128.3,31.2-179.1,26.8-60.3,64.9-107.2,127.9-131.2-2.6,17.8-3,27.7,0,45.3-16.3,4.2-27,10-41.5,18-10.8,9.7-27,17.6-32.6,32.6l-.5,1.2c-.4-4.4,1.4-5-3.1-5.8-3.3,4.7-10.3,13.6-11.1,18.9l.5.6c5.2,5.7,2.2,9.7-2.7,14.8l-2.9-.2c-4.6,4.1-8.7,14.9-11.3,20.8-18.1,42.3-28.8,87.3-31.8,133.2-.9,14.7-.7,29.4.5,44.1-2.9-1.4-5.4-2.8-8.3-4.4-5-2.5-9.6-5.7-14.3-8.7Z"/>
  <path class="st2" d="M618.6,766c6.5-15.7,12-25.4,22.6-38.7,8.7-10.8,39.9-38.5,53.1-39.6l1.1,1.3c-.3,1-.7,2-1,3-13.1,10.3-26.6,18.7-39,30.1-2.7,1.7-12.5,14.3-14.4,17.1-3.3,4.7-10.3,13.6-11.1,18.9l.5.6c5.2,5.7,2.2,9.7-2.7,14.8l-2.9-.2c-4.6,4.1-8.7,14.9-11.3,20.8-18.1,42.3-28.8,87.3-31.8,133.2-.9,14.7-.7,29.4.5,44.1-2.9-1.4-5.4-2.8-8.3-4.4,1.3-5.4.4-25.2.7-32.1,1.8-61.3,18-114.1,44-168.8Z"/>
  <path class="st0" d="M630.3,758.7c5.2,5.7,2.2,9.7-2.7,14.8-4.3-3.3-3.9-3.4-5.7-8.7l.3-.3c3.8-3.9,3.3-2.9,8-5.8Z"/>
  <path class="st3" d="M655.4,722c.9.6,1.4,1.1,2.3,1.4,4.6-1.9,13.8-14.8,19.5-12.3-10.8,9.7-27,17.6-32.6,32.6l-.5,1.2c-.4-4.4,1.4-5-3.1-5.8,1.9-2.8,11.7-15.4,14.4-17.1Z"/>
  <path class="st2" d="M732.7,736.3l3.3,5.9c-46.7,19.7-77.2,41-102.6,85.2-1.1,1.9-2.8,2-4.6,2.2-1.9-1.3-2-1-3.4-2.7l1.5-.7c7.2-3.5,6.6-6.1,7.2-13.3,3.9-3.7,14.1-18.4,18.9-24,20.7-24.4,50.1-41.6,79.9-52.6Z"/>
  <path class="st0" d="M625.3,826.9c-1.2-1.2-3.9-2.5-4.4-3.6-2.6-5.2,0-9.2,4.3-11.2,2.2-1,4.7-1,6.9,0,.6.3,1.2.5,1.9.8-.5,7.2,0,9.9-7.2,13.3l-1.5.7Z"/>
  <path class="st0" d="M670.7,731.5c1.1-.9,2.6-1.2,3.9-.6,1.3.5,2.3,1.7,2.5,3.1.2,1.4-.4,2.8-1.5,3.7-1.7,1.3-4.1.9-5.4-.7-1.3-1.7-1.1-4.1.6-5.4Z"/>
  <path class="st1" d="M962,949.2c29.3,7.5,63.3,10.9,93,5.5,28.9-5.2,25.5-8.7,54.9,4.5,41.3,18.4,71.2,41.3,100.8,75.2l-20.7,2.2c-3.8.3-7.5.6-11.3,1-15.5,1.2-32.9,2.9-48.2,3.5-30.6-28-71.3-42.3-112.7-39.7-36,1.9-70.4,15.9-97.4,39.8-10.6-.7-21.9-1.2-32.4-2.2l-7.6-.5c-12.8-1.1-25.5-2.3-38.3-3.7,35.6-43.9,67.2-66.6,119.9-85.7Z"/>
  <path class="st1" d="M888,1039.1c67.9-72.9,186.5-84.2,267.5-25.3,4.8,3.5,22.5,18.8,23.2,23.8-15.5,1.2-32.9,2.9-48.2,3.5-30.6-28-71.3-42.3-112.7-39.7-36,1.9-70.4,15.9-97.4,39.8-10.6-.7-21.9-1.2-32.4-2.2Z"/>
  <path class="st2" d="M925.6,998.4c84-44.4,197.1-41,261.8,36.7,1,1.2,1,.9,2.5,1.6-3.8.3-7.5.6-11.3,1-.7-5-18.4-20.3-23.2-23.8-81-58.9-199.6-47.6-267.5,25.3l-7.6-.5c15.8-18.9,19.2-22.4,39.2-35.9l-1.6-.9c3.4-1.2,4.6-2.1,7.7-3.4Z"/>
  <path class="st0" d="M918,1001.8c-11.6-6.9-4.3-20.9,3.4-22.3,12-2.1,10.3,10.3,4.2,18.9-3.1,1.3-4.2,2.2-7.7,3.4Z"/>
  <path class="st1" d="M1305.2,754.1c61.1,28.7,99,68.3,122.6,132.7,11,30,17.9,61.7,18.4,93.8-16.1,6.9-30.5,11.8-47.2,17-2.6,1-3.6,1.8-6.2,1.1l-.4-2.5c-.6-2.8-.9-4.3-1.1-7.2-20.4-85.2-59-152.7-142.1-191.3,11.8-5.1,17.1-8,27.5-15.4l7.2-6c8.8-7.6,14-13.1,21.3-22.2Z"/>
  <path class="st1" d="M1276.7,782.3c18.5,5.1,64.7,28.4,74.4,44.7,4.6,2.2,3.7,1.6,6.1,5.7,38.2,38.2,44.5,98.2,37.4,149-1.2,2.6-1.9,4.7-3.3,7.2-20.4-85.2-59-152.7-142.1-191.3,11.8-5.1,17.1-8,27.5-15.4Z"/>
  <path class="st0" d="M1351.1,827c4.6,2.2,3.7,1.6,6.1,5.7-1.9,8.8-10.9,19.3-16.8,13.9-9.6-8.6,2.9-17.9,10.7-19.7Z"/>
  <path class="st2" d="M1276.7,782.3l7.2-6c45.4,21.1,78.3,39,102.2,84.5,1.9,3.5,10.2,23.1,11.9,24.1-1.9,1.8-2.4,4.7-1.2,7.1,1.2,2.4,3.8,3.6,6.4,3.2l-2.4.6c-.4,1.1,3.6,31.7,3.9,35.7,2.1,23.6-3.2,43.5-5.8,66.2-2.6,1-3.6,1.8-6.2,1.1l-.4-2.5c-.6-2.8-.9-4.3-1.1-7.2,1.3-2.6,2.1-4.6,3.3-7.2,7.1-50.8.8-110.8-37.4-149-2.4-4.1-1.5-3.5-6.1-5.7-9.6-16.3-55.9-39.6-74.4-44.7Z"/>
  <path class="st3" d="M1391.3,989.1c1.3-2.6,2.1-4.6,3.3-7.2-.3,4.6-1.3,9.9-2.1,14.4-.6-2.8-.9-4.3-1.1-7.2Z"/>
  <path class="st0" d="M1398,885c1.8-1.8,4.6-2.2,6.9-1,2.3,1.2,3.6,3.7,3.2,6.2-.4,2.5-2.3,4.6-4.8,5-2.6.5-5.2-.8-6.4-3.2-1.2-2.4-.7-5.2,1.2-7.1Z"/>
  <path class="st1" d="M1240.8,801.3c58.1,23.5,102.7,73.3,126.5,130.5,7.8,18.7,17.5,48.8,19.3,69.5-10,2.7-22.8,6.4-32.7,8.5l-8.9,2c-4.4,1.2-4.9,1.9-8.3.5-3.1-8.1-6.2-16.2-9.4-24.3-24.2-60.2-74.6-123-135.1-148.6,2.3-7.8,3.8-13.1,5.3-21.1,1.4-4.2,2-5.5,2.3-9.9,5.8-1.6,11.7-1.7,17.8-2.4,8.6-1,14.8-2.4,23.1-4.6Z"/>
  <path class="st1" d="M1197.7,818.2c13.9,3.4,31.8,10.1,44.2,16.9,1.9.9,3.4,1.4,4.5,3.1,68.1,36.7,100.5,97.1,98.7,173.6-4.4,1.2-4.9,1.9-8.3.5-3.1-8.1-6.2-16.2-9.4-24.3-24.2-60.2-74.6-123-135.1-148.6,2.3-7.8,3.8-13.1,5.3-21.1Z"/>
  <path class="st0" d="M1241.4,839.5c.9-.1,1.8.2,2.5.8,1,1,1.1,2.5.4,3.6-.7,1.2-2.2,1.7-3.4,1.2-1.3-.4-2.1-1.7-2-3.1.1-1.4,1.2-2.5,2.5-2.6Z"/>
  <path class="st3" d="M1241.8,835.1c1.9.9,3.4,1.4,4.5,3.1-1,.5-1.7,1.3-2.4,2.1-.7-.7-1.6-1-2.5-.8.8-2,1.1-2.2.4-4.4Z"/>
  <path class="st0" d="M1284.8,877c14.9-.5,8.6,12.1,1.7,18.7-14.5.6-9.8-11.9-1.7-18.7Z"/>
  <path class="st2" d="M1200,808.3c.8,1.2,1.5,3,2.7,3.4,23.8,8.2,40.9,15.1,62.4,28.7,53.7,34,86.1,92.6,87,156,0,4.2-1.1,10.5,1.9,13.3l-8.9,2c1.7-76.5-30.7-136.9-98.7-173.6-1.2-1.7-2.7-2.2-4.5-3.1-12.4-6.8-30.3-13.5-44.2-16.9,1.4-4.2,2-5.5,2.3-9.9Z"/>
  <path class="st1" d="M601.4,979.8c4.6-40.7,16-88,36.4-124,12.4.5,21.1-3.7,11.7-16.8l-.8-1.1c1.2-5.8,9.4-15.7,13.1-20.3,23.9-29.3,53.5-43,88.3-55.1,6.9,7,11.7,11.6,19.3,17.9,2.5,1.6,5.4,3.8,7.8,5.6,8.2,5.1,13.4,7.8,22.2,12-86.4,36.4-146.2,103.2-146,200.5-17.9-5.8-34.6-11.6-52-18.8Z"/>
  <path class="st2" d="M691.7,831.2c-1.6,0-3.6-.4-4.6.5-24,20.9-37,54.3-45.4,84.3-2.2,7.8-1.4,31.7-8.5,33.7l-1.3-1.3c-1.9-8.1.2-14.7,1.5-22.9,4.6-28.2,14.5-55.3,31.2-78.6,3.2-4.5,19-21.6,19.5-23.6,2,5.8,2,5.9,7.7,7.9Z"/>
  <path class="st2" d="M769.4,780.4c2.5,1.6,5.4,3.8,7.8,5.6-9,2.8-18.1,4.3-27.5,7.3-9.3,3-18.3,7.1-26.7,12.1-9.3,5.5-14.4,8.5-23.1,15.4-4-2.5-3.5-2.7-8.2-3.8,2.9-.8,3.1-1.6,5.6-3.4,18.3-13.5,39-24.2,60.8-30.4,3.6-1,7.5-1.8,11.3-2.9Z"/>
  <path class="st0" d="M691.7,817.1c4.6,1.1,4.2,1.3,8.2,3.8l-.7,1.8c-1.9,5.1-3.1,5.4-7.5,8.5-5.6-2-5.7-2-7.7-7.9,3-3.8,3.4-3.9,7.7-6.2Z"/>
  <path class="st1" d="M659.9,1000.4c-2.3-27.1,5.7-61.7,17.8-85.8,28.5-56.7,72.7-92.5,131.7-112.9,13.7,3.3,22,4.7,36.1,5.6l2.1.6c.9,3,.8,3.4.9,6.5,1.3,9.1,2.7,18,5.4,26.8-53,17.5-99.6,53.3-126,103.3-11.6,22-16.7,43.3-22.8,66.9-3,.6-3.9.1-6.8-.5l-7.9-2c-10.1-2.4-20.4-5.5-30.4-8.4Z"/>
  <path class="st1" d="M698.3,1010.7c.8-32.6,4-68.1,18.4-97.7,28.5-58.6,75-78.3,131.8-98.7,1.3,9.1,2.7,18,5.4,26.8-53,17.5-99.6,53.3-126,103.3-11.6,22-16.7,43.3-22.8,66.9-3,.6-3.9.1-6.8-.5Z"/>
  <path class="st0" d="M727.4,913.7c13.2.5,10.1,9,2.7,15.8-11.3,0-11.6-8.4-4.1-14.6l1.4-1.2Z"/>
  <path class="st2" d="M845.5,807.3l2.1.6c.9,3,.8,3.4.9,6.5-56.8,20.4-103.3,40.1-131.8,98.7-14.4,29.6-17.6,65.1-18.4,97.7l-7.9-2c1.4-2.8,2.2-32.5,3.2-39.4,8.4-66.2,45.8-116.8,106.8-144.4,8-3.6,40.6-13.9,45-17.7Z"/>
  <path class="st0" d="M683.4,931.9c14.4,2,11.3,13,1.4,19.4l-3.1,1.9c-16.3.1-9.9-15.7,1.7-21.3Z"/>
  <path class="st1" d="M711.4,1013.8c12.9-81.2,67.5-140,144-166.8,3.3,9.6,5.8,15.4,10.2,24.4,1,1.7,1.9,3.3,2.9,4.9,3.8,6.1,7.8,12,11.8,17.9-48.5,22.5-85.8,63.7-103.5,114.1-1.9,5.7-3.7,11.4-5.2,17.2l-30.8-5.7c-.2,0-.5,0-.7-.1-2.2-.4-4.3-.8-6.5-1.1l-22.3-4.9Z"/>
  <path class="st1" d="M792.8,926.4c7-4.1,15.9-13.6,22.9-18.7,14.5-10.6,29.7-19.8,45.9-27.5,3.1-1.5,4-1.9,6.9-3.9,3.8,6.1,7.8,12,11.8,17.9-48.5,22.5-85.8,63.7-103.5,114.1-1.9,5.7-3.7,11.4-5.2,17.2l-30.8-5.7c.1-6.9,6.9-22,8.8-29.5,7.3-4.6,7.9-5.6,7.6-14,1.8-9,14.1-22.6,19.2-30.5,2.3-3.7,8.4-9.4,9.9-12.7,2.3-3,3.6-4.1,6.4-6.7Z"/>
  <path class="st2" d="M865.7,871.4c1,1.7,1.9,3.3,2.9,4.9-2.9,1.9-3.8,2.4-6.9,3.9-16.2,7.7-31.5,16.9-45.9,27.5-7,5.1-15.9,14.6-22.9,18.7-.4-3.6-.8-5.1-1.8-8.6,3.6-.7,13.1-10.7,18-14.1,15-10.5,39.4-26.8,56.7-32.3Z"/>
  <path class="st2" d="M779.1,931.3c2.7.8,4.5,1.2,7.3,1.8-1.5,3.3-7.6,9.1-9.9,12.7-5.1,7.9-17.4,21.6-19.2,30.5-3.6-2.2-2.9-2.2-7-3.3,3.2-9.2,21.9-33.7,28.8-41.7Z"/>
  <path class="st2" d="M742.3,988.9c2.9.6,4.3,1.1,7.4,1.5-1.9,7.4-8.7,22.6-8.8,29.5-.2,0-.5,0-.7-.1-2.2-.4-4.3-.8-6.5-1.1,2-6.6,7.8-23.6,8.6-29.7Z"/>
  <path class="st0" d="M750.3,973c4.1,1.2,3.5,1.2,7,3.3.2,8.4-.3,9.4-7.6,14-3.1-.4-4.5-1-7.4-1.5-3.7-9.5-.4-11.8,8-15.8Z"/>
  <path class="st0" d="M779.1,931.3c-4.7-10.9,1-16.2,11.9-13.6,1,3.5,1.4,5,1.8,8.6-2.7,2.6-4.1,3.8-6.4,6.7-2.8-.5-4.6-1-7.3-1.8Z"/>
  <path class="st1" d="M1190.3,845.3c60.4,25.5,108.5,87.7,132.7,147.4,3,7.3,5.7,14.7,8.1,22.2-11.8,2.8-23.6,5.2-35.5,7.4-2.5.4-4.5.8-7,1.1l-14.6,2.6c-21.9-55.9-63.2-98.8-116.8-125.4,5.2-5.6,8.2-9.9,12.7-16.2,1.2-1.9,2.3-3.7,3.6-5.6,8.2-12.7,11.6-19.2,16.7-33.5Z"/>
  <path class="st1" d="M1169.9,884.4c17.9,10.1,37.7,18,54.3,30.7,7.9,6.1,13.3,6.9,15.5,16.7l.8.7c2.5,2.3,4.3,2.4,7.5,2.7,5.6,4.3,13.6,14.9,17.8,21,14.1,20,20.9,43.1,22.7,67.1l-14.6,2.6c-21.9-55.9-63.2-98.8-116.8-125.4,5.2-5.6,8.2-9.9,12.7-16.2Z"/>
  <path class="st2" d="M1248,935.3c2.2-1.3,4.2-2.7,6.3-3.9,24.4,26.1,39.1,55,41.3,91-2.5.4-4.5.8-7,1.1-1.8-24-8.6-47.2-22.7-67.1-4.3-6.1-12.2-16.7-17.8-21Z"/>
  <path class="st2" d="M1169.9,884.4c1.2-1.9,2.3-3.7,3.6-5.6,12.9,5.6,26.1,12.7,38.3,19.8,4.9,2.8,9.6,5.8,14.2,9.1,5.4,3.8,10.4,8.2,15.6,12.2-2,5-1.6,6.3-1.9,12-2.2-9.8-7.5-10.6-15.5-16.7-16.5-12.8-36.3-20.7-54.3-30.7Z"/>
  <path class="st0" d="M1241.6,919.9c15.8-17.1,28.2-3.6,12.7,11.5-2.2,1.2-4.1,2.6-6.3,3.9-3.2-.3-5.1-.4-7.5-2.7l-.8-.7c.3-5.6,0-6.9,1.9-12Z"/>
  <path class="st0" d="M1204.6,873.6c1.6-.2,3.1.8,3.4,2.3.4,1.5-.4,3.1-1.9,3.7-1.1.4-2.4.1-3.2-.7-.9-.8-1.2-2.1-.8-3.2.4-1.1,1.3-2,2.5-2.1Z"/>
  <path class="st1" d="M1009.1,878.5c44.7-4.5,97.4,4.9,138.4,22.5-34,29.8-60,43.9-106.1,48.6-.2,0-.5,0-.7,0-54.7,4.1-94.3-6.3-136.3-41.3,34.6-18.9,65.8-26.5,104.7-29.9Z"/>
  <path class="st1" d="M777.3,1026.3c7.6-23.3,15.5-44.3,31.7-66.2,16.1-21.7,47.7-50.4,74.6-60,2.5-.9,4.8,2.3,6.6,4.1l4.1,4.1c7,6.3,14,12.6,21.9,17.7,2.2,1.5,4.3,2.9,6.4,4.4,10.8,6.1,18.9,10.3,30.4,15.3-44,15-91.2,49.8-117.7,88.4-11.9-1.4-23.8-2.9-35.7-4.6l-7.2-.8-15-2.4Z"/>
  <path class="st1" d="M777.3,1026.3c7.6-23.3,15.5-44.3,31.7-66.2,16.1-21.7,47.7-50.4,74.6-60,2.5-.9,4.8,2.3,6.6,4.1l4.1,4.1c-34.1,12.6-65.6,46.2-80.7,79-6.1,13.5-10.8,27.6-14,42.1l-7.2-.8-15-2.4Z"/>
  <path class="st2" d="M890.2,904.2l4.1,4.1c-34.1,12.6-65.6,46.2-80.7,79-6.1,13.5-10.8,27.6-14,42.1l-7.2-.8c14.1-56.6,41.3-102.3,97.8-124.5Z"/>
  <path class="st2" d="M916.2,926.1c2.2,1.5,4.3,2.9,6.4,4.4-3.5,3.6-9.8,6.4-14.4,8.9-31.2,16.9-55.1,40.7-75.6,69.2-1.4,1.9-9.2,1,.3-11.5,12.6-16.6,23.2-28.1,39.1-41.2,2.2-1.7,7.6-5.9,9.5-7.8,11.9-7.8,22.6-14.5,34.7-21.9Z"/>
  <path class="st0" d="M869.8,950.2c-6.9-3.4-12.3-9.2-5.7-16.7,1.4-1.6,3.4-2.6,5.5-2.7,6.8-.4,9,4,8.4,10.1v1.8c-3.1,4.3-3.3,4.6-7.9,7.2l-.4.2Z"/>
  <path class="st3" d="M878,942.8c.9,3.2.8,3.3,3.5,5.3-1.8,1.8-7.3,6.1-9.5,7.8-.5-3.3.4-3.8-2.2-5.6l.4-.2c4.6-2.6,4.8-2.9,7.8-7.2Z"/>
  <path class="st1" d="M1153.3,905.8c49.6,22.4,89.4,65.3,112.1,115.1.8,1.8.9,3.5.6,5.4-4,1.8-5.5,1.8-10,2.5-3.2.4-7.2.8-10.4,1.3l-28.5,3.4c-28.3-39.9-80-71.4-125.6-87.7,9.4-3.5,17.9-8.3,26.5-13.4l8.1-4.7c10-7,18.4-13.3,27.1-22Z"/>
  <path class="st1" d="M1118.1,932.4c43.8,12.8,103.8,54.1,125.8,94.3.6,1.1,1.2,2.3,1.8,3.4l-28.5,3.4c-28.3-39.9-80-71.4-125.6-87.7,9.4-3.5,17.9-8.3,26.5-13.4Z"/>
  <path class="st2" d="M1126.2,927.7c40.4,16.4,65,29.7,97.2,60.9,8.2,7.8,15.5,16.5,21.8,26,2.8,4.1,6.5,13.1,10.8,14.1-3.2.4-7.2.8-10.4,1.3-.6-1.2-1.2-2.3-1.8-3.4-22-40.2-82-81.4-125.8-94.3l8.1-4.7Z"/>
  <path class="st1" d="M958.1,755.3c37.2,14.7,85.3,18.5,122.3,2.2,2.2-1,4.4-2,6.6-3.2,9.2,10,15.5,16.9,26.2,25.4l8.7,6,14.7,8.1c-16.3,5.9-32.7,12.1-49.5,15.9-62.6,14.1-120.5,7.2-179.3-16.2l10.3-5.4,13.2-8.3c10.2-7.9,17.7-15.3,26.8-24.4Z"/>
  <path class="st1" d="M958.1,755.3c37.2,14.7,85.3,18.5,122.3,2.2,2.2-1,4.4-2,6.6-3.2,9.2,10,15.5,16.9,26.2,25.4l-1.8,1.7c-32.4,8.8-96.5,0-131-1.4-14.8-.6-35.3.9-49.1-.3,10.2-7.9,17.7-15.3,26.8-24.4Z"/>
  <path class="st0" d="M1066.5,765.4c2.3-.7,4.8.5,5.6,2.9.8,2.3-.5,4.8-2.9,5.6-2.3.8-4.8-.5-5.6-2.9-.8-2.3.5-4.8,2.9-5.6Z"/>
  <path class="st2" d="M1113.1,779.8l8.7,6c-65.3,17-138.3-6.5-203.8,2.3l13.2-8.3c13.8,1.2,34.3-.3,49.1.3,34.4,1.4,98.6,10.2,131,1.4l1.8-1.7Z"/>
  <path class="st1" d="M980.2,718c25.4-8.5,56.6-11.9,83.2-8.9l5.6,15.2c1.1,2.2,2.1,4.6,3.1,6.8,4,7.6,6.4,11.2,11.4,18.2-39.5,18.1-81.3,15.6-121.2,1.1,8.2-11.9,12.6-19.2,18-32.5Z"/>
  <path class="st2" d="M1068.9,724.3c1.1,2.2,2.1,4.6,3.1,6.8-18.8,6.9-50.3,6.7-69.8,2.7-7.3-1.2-8.1-9.6,2.1-6.9,14.9,3.9,51.1,3.3,64.6-2.5Z"/>
  <path class="st1" d="M928.2,1041.8c26.4-18.6,42.5-26.2,75-32.5,25.7-5,73.3,1,94.3,16.1,5.7,2.6,10.5,5.7,15.5,9.5,3.4,2.4,5.7,4.2,8.8,6.9l-12.3.5c-23.2,1.9-63.2,2.5-86.6,1.9-15.1.2-34.2.5-49.1-.8-14.9.1-30.6-.8-45.6-1.5Z"/>
  <path class="st2" d="M1097.5,1025.3c5.7,2.6,10.5,5.7,15.5,9.5,3.4,2.4,5.7,4.2,8.8,6.9l-12.3.5c-23.2,1.9-63.2,2.5-86.6,1.9-15.1.2-34.2.5-49.1-.8,8.6-1,19.3.8,26.8-.7,6.5-1.3,17.5-5.6,24.2-7.8,29.6-9.6,46.7-11.9,76.1-3.4-.4-2.4-2.1-3-3.5-6Z"/>
  <path class="st1" d="M1022.9,1044c5.7-4.8,20-7.9,27.3-9l5.5-.8c11.7-1.6,45.3-.2,53.9,7.9-23.2,1.9-63.2,2.5-86.6,1.9Z"/>
  <path class="st3" d="M1097.5,1025.3c5.7,2.6,10.5,5.7,15.5,9.5-3.8.1-8.8-1.5-12-3.4-.4-2.4-2.1-3-3.5-6Z"/>
  <path class="st1" d="M988.1,650.5c26.5-7.3,45.6-8.2,72.1-1-.8,6.8-1,11.1-1.4,17.8.2,5.2.1,11.4.2,16.7.7,7.3,1.6,11.8,3.2,18.8-19.6-2-37.2-.9-56.5,2.4-7.5,1.3-14.9,3-22.2,5.2,2-7.8,3.6-14.3,4.9-22.3.3-2.3.5-4.6.8-6.9.3-12.2.2-18.7-1-30.9Z"/>
  <path class="st1" d="M988.3,688.2c2.6-.5,5.1-1,7.6-1.6,13.1-3.2,52-8.9,63-2.5.7,7.3,1.6,11.8,3.2,18.8-19.6-2-37.2-.9-56.5,2.4-7.5,1.3-14.9,3-22.2,5.2,2-7.8,3.6-14.3,4.9-22.3Z"/>
  <path class="st2" d="M1057.7,675.9c.3-3-.5-6.2,1.1-8.6.2,5.2.1,11.4.2,16.7-11-6.4-49.9-.7-63,2.5-2.5.6-5.1,1.1-7.6,1.6.3-2.3.5-4.6.8-6.9,4.4-.5,7.3-1.9,11.6-3,19.4-5.1,37.2-4.1,57-2.5Z"/>
  <path class="st1" d="M1015.5,593.2c25.4-.5,39.5.3,64.6,4.6-5.7,10-9.8,17.9-13.8,28.7-.9,2.5-1.6,4.9-2.5,7.3-.4,2-1.3,8.1-2.7,9.3-2.5.2-11.7-2.3-15-2.9-20.2-3.4-39.2-1.4-58.8,4-1.1-3.7-1.9-7.6-2.9-11.4-.5-2.2-1.3-4.2-1.9-6.4-4.3-10.6-7.5-17.1-12.7-27.2,6.6-1.3,20.3-4.6,26.1-2.7,2.4,2.8,3,3.6,5.9,5.9,6.3.2,10.2-4.4,13.7-9.3Z"/>
  <path class="st1" d="M984.4,632.9c2.8-1.8,3-1.5,6.3-2.5,24-7.4,47.8-6.1,71.4,1.9.6.2,1.3,1.2,1.7,1.7-.4,2-1.3,8.1-2.7,9.3-2.5.2-11.7-2.3-15-2.9-20.2-3.4-39.2-1.4-58.8,4-1.1-3.7-1.9-7.6-2.9-11.4Z"/>
  <path class="st2" d="M982.5,626.5c26.8-11.3,56.7-9.4,83.8.1-.9,2.5-1.6,4.9-2.5,7.3-.4-.5-1.1-1.4-1.7-1.7-23.6-8-47.4-9.3-71.4-1.9-3.3,1-3.5.7-6.3,2.5-.5-2.2-1.3-4.2-1.9-6.4Z"/>
  <path class="st1" d="M819.7,547.5c10.9-1.9,21.9,2.3,28.9,10.9,6.9,8.6,8.7,20.3,4.5,30.5-4.1,10.2-13.5,17.5-24.4,18.9-16.5,2.1-31.6-9.4-34-25.8-2.4-16.4,8.7-31.8,25-34.5Z"/>
  <path class="st1" d="M1216,547.4c16.3-3,31.9,7.7,35.1,23.9,3.2,16.2-7.2,32-23.4,35.4-10.7,2.3-21.7-1.4-28.9-9.6-7.2-8.2-9.5-19.6-5.9-29.9,3.6-10.3,12.4-17.9,23.1-19.8Z"/>
  <path class="st1" d="M1780,1239.8c.2.2,1.1.9,1.2,1.4,6.4,27.1-10.5,54.5-40,53.8-6-.2-15.5-4.7-20.6-7.1-2.6-1.3-7-2.3-5.8-5.5,2.6-6.8,1-13.5.3-20.3,27.3,5.4,45.6-3,64.9-22.3Z"/>
  <path class="st1" d="M266.2,1240.4c3.9,2.4,7.9,7.1,12.9,10.2,20.8,12.8,30.3,16.3,54,11.7-1,6.3-3.2,11.5-.9,18.2,1.4,4.2,1.3,4-2.3,6-9.3,4.7-20,9.9-30.7,8.2-26.9-4.5-37.2-29.6-33-54.3Z"/>
  <path class="st1" d="M1592.2,1416.3c23.1-1.4,39.3,19.8,21.3,38.6-3.1,1.1-6.3,2-9.6,2.9-1.4.4-8,2.7-8.9,1.6-6.7-8-12.1-13.6-20.8-19.5l2.9-7.8c3.7-9.6,5.9-11.7,15.1-15.8Z"/>
  <path class="st1" d="M440.5,1417.2c19.8-2.5,23,7.2,29.8,23.3-9.5,6.7-12.4,9.4-19.2,18.7-9.1-1.2-23-3.1-26.8-12.7-5.6-13.9,4.1-24,16.2-29.3Z"/>
  <path class="st1" d="M1546.3,1400.3c12-.7,19.6,3.1,25.7,13.8,4.3,7.4-.8,14.4-3.4,22.1-2.4-1.2-4.8-2.2-7.3-3.3-14.1-4.4-18.7-4.8-33.6-5.8,2.5-14.3,4.3-21.1,18.4-26.8Z"/>
  <path class="st1" d="M489.5,1402.3c17.7-.6,23.3,9.4,26.9,25-10.1.6-14.7,1-24.5,3.2-6.4,1.8-10.1,3.5-16.1,6.1-2.3-5.1-4.5-10.3-6.6-15.6,5.7-11.4,7.8-14.3,20.2-18.8Z"/>
  <path class="st1" d="M1615.6,1461.1c20.6.4,27.4,26.1,3.3,38.4l-1.7.9c-6.8,2-11.7,4.4-11.2-3.3.6-10.2-3.7-22.3-7.8-31.6l1.4-.3c5.6-1.3,10.3-2.4,15.8-4Z"/>
  <path class="st1" d="M424.1,1462.2c9.8-.3,13.6,1.1,23.2,3.2-6.4,13.1-8.2,21.7-8.6,36,0,.5-2.7.9-2.8.9-10.2-2.8-19.4-6.1-23.9-16.7-1.7-4-1.6-8.6.2-12.6,2.7-6.3,6-8.4,11.9-10.9Z"/>
  <path class="st0" d="M855.4,446.4c11.3-1.3,23.4-1,34.1,3.4,12.8,5.2,32.6,20.4,24.8,36.4-11.3,23.1-38.9,12.1-58.9,14.6-12.4,1.6-21.3,4.8-32.9,9.6-18.7,9.1-22.3,20-41.8,5-23.5-18.1,2.5-36.8,18.3-47.3,17-11.3,36.5-18.6,56.5-21.7Z"/>
  <path class="st1" d="M858.4,452.4c19.7-2,36.9,2.6,49.2,19.4,11.1,13.5-10.5,23.7-21.2,23.1-27.4-1.5-42.3-1.3-67.8,10.3-7.1,3.4-19.1,14.1-26.1,10.5-8.8-4.6-20.7-14.4-11-24.7,19.5-20.9,48.8-34.8,77-38.5Z"/>
  <path class="st0" d="M1178.3,445.4c18.6-.8,38.8,4.7,55.4,13.4,13.3,7,37.4,22,42.6,37,4.3,12.4-13.5,24.7-23.6,27.2-4.8,1.2-10.3-2.9-14.2-5.4-27.9-19.6-47.6-17.8-79.5-16.5-17.2.7-33.8-20.2-19.8-35.9,11.8-13.2,21.9-17.7,39.1-19.8Z"/>
  <path class="st1" d="M1183,451.5c25.2.9,47.1,10.9,67.7,25.1,7.9,5.5,26.2,18.4,16.6,29.8-2.8,3.3-11.2,8.4-15.2,11.1-4.9-2.4-11.5-6.7-16.3-9.6-10.9-6.3-22.1-10.7-34.8-13-18.3-3.4-40.4,5.1-56.4-6.4-8-5.7-3.8-15.3,1.5-21.4,9.8-11.3,22.7-14.6,37-15.7Z"/>
</svg>