<?xml version="1.0" encoding="UTF-8"?>
<svg id="Layer_1" xmlns="http://www.w3.org/2000/svg" version="1.1" viewBox="0 0 947 947">
  <!-- Generator: Adobe Illustrator 30.3.0, SVG Export Plug-In . SVG Version: 2.1.3 Build 182)  -->
  <defs>
    <style>
      .st0 {
        fill: #cfae94;
      }
    </style>
  </defs>
  <path class="st0" d="M881,442.01c7.04,2.07,13.93,4.6,20.64,7.58-10.89-36.77-33.08-66.88-67-85.75-17.93-9.98-45.22-17.54-65.89-16.17,40.96-21.42,91.33-16.52,132.95.19-10.53-35.31-36.78-65.67-69.19-83.32-38-20.7-89.12-23-130.18-11.03-38.36,11.18-77.58,44.01-102.61,75.13-31.18,38.74-48.89,74.8-96.64,97.43-15.14,7.35-31.43,12.04-48.16,13.88-51.9,5.53-92.24-15.75-121.92-58.1-13.44-19.18-16.48-38.55-18.82-61.13-2.98-28.79-16.46-55.32-36.69-75.99,14.96.03,30.53-.15,45.45.15-4.35-9.18-8.13-17.44-13.38-26.1-18.76-30.97-46.23-54.31-80.49-66.32-12.08-4.24-24.34-6.65-37.23-5.99-28.5,2.52-53.19,18.85-69.53,42.19-7.14,10.21-12.22,31.97-12.62,44.32-25.88,18.88-48.89,40.61-64.36,69.1,24.04-3.91,45.49-3.4,68.74,4.65-11.61,18.69-20.82,39.35-23.11,61.39-4.57,43.97,10.75,82.09,56.1,92.69-2.8,13.93-5.43,26.85-6.8,41.04-6.23,61.82,9.43,123.87,44.27,175.33,40.18,61.25,103.42,103.67,175.33,117.62,71.69,15.05,146.42.88,207.61-39.39,53.59-35.77,87.12-92.9,126.83-141.46,41.88-51.21,101.16-88.38,169.57-73.09,13.06,2.73,25.44,5.98,37.59,12-6.13-22.77-15.72-39.03-30.47-57.25-24.36-27.1-53.98-45.08-91.1-47.08-2.79-.12-5.59-.19-8.38-.2,34.25-18.37,73.19-17.27,109.51-6.3ZM192.38,177.88c27.18-3.04,56.31,16.66,73.72,35.77-6.66.3-23.23.59-29.29-.9-4.55-1.12-13.59-4.18-19.11-5.64-27.18-5.57-47.12-1.73-72.6,7.16,9.46-20.56,24.42-33.36,47.29-36.38ZM124.46,404c-10.28-29.86,4.51-58.91,17.27-85.45,14.55,7.79,32.35,27.84,40.18,42.46,12.42,23.19,11.71,53.15-14.28,66.7-20.08,6.95-36.69-4.85-43.18-23.7ZM744.8,481.97c37.26-7.04,64.77.7,93.6,24.32-18.66.04-35.78,1.6-53.59,6.56-65.14,18.15-109.12,70.48-146.95,123.16-24.69,34.37-56.03,71.53-91.2,95.35-52.78,35.75-120.65,44.41-182.33,31.96-110.3-21-195.9-124.83-194.3-237.21.33-23.37,4.71-46.3,9.4-69.24,1.83-.94,3.65-1.91,5.44-2.92,38.87-22.07,45.17-71.23,24.27-108.47-9.65-17.2-28.73-39.76-45.63-50.3-14.25-8.89-37.28-18.38-53.6-22.77,22.02-18.41,51.09-34.5,80.1-36.49,43.42-3.62,80.08,38.11,91.48,76.68,2.51,8.48,3.79,21.46,4.74,30.4,4.35,41.24,28.64,74.24,60.84,98.85,35.85,27.29,75.8,34.57,119.6,28.46,68.48-9.55,107.81-54.24,145.97-106.82,29.29-39.56,67.2-76.06,117.84-83.45,37.46-5.46,71.41-1.59,102.48,22.02-16.61.06-27.73,1.63-43.95,5.17-57.21,12.48-116.53,69.21-146.33,118.51,38.37-32.01,90.96-52.42,141.37-45.94,20.61,2.65,37.01,10.29,53.03,23.35-76.77-2.57-133.27,50.88-171.23,111.64l-3.7,5.94c26.42-18.65,50.07-32.6,82.67-38.76Z"/>
  <path class="st0" d="M538.68,505.4c-13.39,2.81-26.72,5.8-40.34,7.23-60.2,6.31-114.13-6.92-164.79-39.98-11.06-7.11-21.58-15.02-31.47-23.68-4.61-4.07-10.44-10.16-14.79-13.71-31.58,40.46-44.27,80.46-38.84,132.17,4.31,41.09,29.24,82.83,61.84,108.21,38.94,29.98,88.2,43.25,136.92,36.88,34.44-4.48,64.08-15.7,91.43-37.49,39.21-32.76,56.37-68.76,62.94-118.71l-72.34.04c6.35-18.52,9.07-31.21,9.43-50.96ZM318.02,500.06c7.19,4.56,14.56,8.81,22.12,12.73,49.96,25.83,104.74,39.17,161.06,31.87-6.43,15.28-11.81,22.17-23.35,33.87-30.22,27.14-67.06,30.69-103.75,13.58-41.28-19.26-57.87-61.67-71.86-102.05,2.17.89,12.97,8.2,15.78,10ZM563.11,588.08c-4.56,13.24-8.66,21.43-16.33,33.03-32.43,47.24-90.17,68-145.82,59.87-78.1-11.4-133.31-77.81-121.19-157.52,1.69,1.51,4.62,8.34,5.7,10.84,12.21,28.42,27.35,53.75,52.81,72.6,29.26,21.78,66.05,30.84,102.07,25.14,26.68-4.21,54.96-22.03,70.74-43.83,17.34-.22,34.69-.26,52.03-.13Z"/>
</svg>