<?xml version="1.0" encoding="UTF-8"?>
<svg id="Layer_1" xmlns="http://www.w3.org/2000/svg" version="1.1" viewBox="0 0 2048 2048">
  <!-- Generator: Adobe Illustrator 30.3.0, SVG Export Plug-In . SVG Version: 2.1.3 Build 182)  -->
  <defs>
    <style>
      .st0 {
        fill: #f6ab5f;
      }

      .st1 {
        fill: #fabc71;
      }

      .st2 {
        fill: #f7bb72;
      }

      .st3 {
        fill: #22969b;
      }

      .st4 {
        fill: #3e1f0f;
      }

      .st5 {
        fill: #cd9358;
      }

      .st6 {
        fill: #4a2a0f;
      }

      .st7 {
        fill: #0d8e92;
      }

      .st8 {
        fill: #f6e6d2;
      }

      .st9 {
        fill: #0e2b2c;
      }

      .st10 {
        fill: #0c0806;
      }

      .st11 {
        fill: #64411f;
      }

      .st12 {
        fill: #3c3025;
      }

      .st13 {
        fill: #055556;
      }

      .st14 {
        fill: #09191b;
      }

      .st15 {
        fill: #081b1d;
      }

      .st16 {
        fill: #886b48;
      }

      .st17 {
        fill: #048991;
      }

      .st18 {
        fill: #fbc170;
      }
    </style>
  </defs>
  <path class="st18" d="M1237.22,156.75c124.49-78.71,269.91-139.63,420.56-106.76,74.78,16.31,156.24,65.12,199.58,129.78,9.39,14,23.97,42.6,33.31,58.94,99.64,101.95,59.19,332.13,6.27,447.39l.73,4.92c9.69,61.01,29.67,112.95,38.22,178.88,26.4,220.42-30.8,442.73-160.29,623.04-4.53,6.32-9.14,12.58-13.81,18.79l-15.74,18.53c-3.25,5.2-1.11,2.08-5.43,7.51l-3.72,4.72c-36.99,46.61-112.5,121.86-160.96,155.74-228.97,176.92-468.5,210.62-746.24,184.28-104.15,55.34-228.5,120.28-346.97,124.39-169.51,5.89-378.71-114.77-384.87-300.08-11.68-141.08,44.12-320.74,98.8-451.52-19.53-80.85-24.15-180.44-16.67-263.36,22.14-244.47,140.09-470.26,328.12-628.07,212.91-177.43,458.33-232.33,729.13-207.13Z"/>
  <path class="st10" d="M1237.22,156.75c124.49-78.71,269.91-139.63,420.56-106.76,74.78,16.31,156.24,65.12,199.58,129.78,9.39,14,23.97,42.6,33.31,58.94,4.47,42.58,12.94,99.86,6.48,141.76-18.39,119.19-80.82,229.65-138.34,333.98-11.25,20.42-39.28,72.31-58.27,83.28,3.21-6.52,6.59-12.95,10.16-19.28,6.7-9.33,12.63-18.51,18-28.69,11.8-18.6,25.81-43.28,34.74-63.27,5.83-5.74,12.29-20.24,16.62-28.17,1.73-2.91,3.44-5.82,5.12-8.75,6.65-15.35,17.53-34,25.32-49.85,64.63-128.3,128.16-291.15,32.06-419.14-101.52-135.2-281.96-153.54-431.28-97.74-96.37,36.01-157.07,76.24-238.21,135.9,9.87,5.8,15.22,5.33,17.15,16.24,96.82-.37,179.62,11.39,267.37,56.95,52.39,27.21,173.51,104.26,180.37,168.78-4.81,13.26-.7,8.1-13.32,15.54-44.7-2.3-105.06-24.06-160.34-35.94-192.46-41.34-442.41-58.36-617.78,45.63-10.7,6.34-53.56,70.1-62.84,83.44,181.03-35.63,335.13-5.19,489.53,96.38,27.05,17.8,136.17,97.6,111.11,134.82-22.86,9.1-65.58-7.21-89.42-14.28-157.09-46.61-330.79-85.97-495.22-71.86-83.6,7.5-165.13,30.13-240.63,66.8-30.13,47.44-58.03,90.37-84.35,140.01,156.34-56.09,293.28-38.84,443.04,30.23,45.32,20.9,211.63,119.23,193.34,179.18-12.75,16.2-32.23,17.57-51.33,13.88-273.63-52.82-569.45-98.25-824.05,59.42-69.72,138.93-118.64,300.84-128.04,456.22l-5.77,1.75c-1.29,12.75-1.85,34.04-4.05,44.88-11.68-141.08,44.12-320.74,98.8-451.52-19.53-80.85-24.15-180.44-16.67-263.36,22.14-244.47,140.09-470.26,328.12-628.07,212.91-177.43,458.33-232.33,729.13-207.13Z"/>
  <path class="st17" d="M196.65,1255.3c-19.53-80.85-24.15-180.44-16.67-263.36,22.14-244.47,140.09-470.26,328.12-628.07,212.91-177.43,458.33-232.33,729.13-207.13-17.68,12.19-101.4,79.63-105.76,81.79-61.03,30.21-88.53,24.76-148.69,73.1-93.23,74.91-145.24,177.51-220.86,264.43-114,41.68-147.69,106.19-214.38,202.61-33.6,48.58-61.61,97.59-90.39,149.07-145.5,84.47-189.34,177.04-260.48,327.56Z"/>
  <path class="st1" d="M1173.07,218.75c9.87,5.8,15.22,5.33,17.15,16.24-29.1,4.2-41.09,8.8-17.15-16.24Z"/>
  <path class="st8" d="M626.43,900.29c55.79-6.63,118.61,5.29,172.24,20.04,83.09,22.85,256.64,101.53,296.76,182.63,4.93,9.97,4.85,14.56,1.6,24.9-9.08,5.58-12.9,7.36-23.64,6.3-44.35-4.36-92.6-24.32-135.77-36.55-53.26-15.1-106.33-26.35-160.97-35.16-175.56-23.81-330.16-12.39-494.72,54.46,15.99-27.29,32.65-54,52.87-78.39,75.7-91.32,176.32-127.6,291.63-138.23Z"/>
  <path class="st12" d="M496.81,949.03c.58.16,4.99,1.02,6.03,2.13-.02.18.01.36-.05.53-.36,1.07-73.27,41.25-82.25,46.92-1.99.08-3.13.45-4.84-.21-.43-.16-.84-.7-.95-1.12-.26-.94-.03-1.7.41-2.57,8.54-17.25,64.74-39.12,81.65-45.69Z"/>
  <path class="st12" d="M853.61,973.05c27.67,1.11,62.27,12.68,83.83,30.28-24.41-2.34-64.81-15.23-83.83-30.28Z"/>
  <path class="st12" d="M528.64,960.8c.31-.02.63-.03.94-.07,1.97-.18,4.5-.76,6.25.59.49.38.9,1.11.76,1.75-1.44,6.71-57.84,27.98-67.56,33.32-.57.18-4,1.33-5.2,1.47-1.44.16-1.22.07-2.16-.7.02-.11.24-1.97.45-2.32,9.18-15.6,50.12-27.54,66.51-34.06Z"/>
  <path class="st12" d="M950.73,1018.77c18.59,3.58,43.43,12.91,54.59,28.73-17.96-.74-41.69-16.55-54.59-28.73Z"/>
  <path class="st8" d="M1179.43,248.47c20.99-2.21,42.56-2.45,63.65-1.8,124.07,3.85,263.3,65.19,347.39,156.97,13.48,14.71,33.64,35.88,32.9,56.27l-7.46,5.03c-32.42-6.91-64.71-22.61-95.94-33.95-42.98-15.6-86.49-28.93-130.4-41.63-167.78-38.35-324.87-32.84-487.88,22.96,77.32-96.15,153.99-148.25,277.75-163.86Z"/>
  <path class="st12" d="M1310.98,285.71c19.56,2.11,51.09,7.43,66,20.85.42.38,2.25,1.85,2.04,2.93-.17.9-.86,1.48-1.71,1.71-3.48.94-6.91-.36-10.07-1.68-10.62-4.43-21.02-8.64-31.98-12.17-1.59.1-5.06-.21-6.83,1.03-.51.36-.42.61-.58,1.26.72,2.09,2.07,3.16,3.83,4.45,3.97,2.9,15.62,10.01,17.01,15.53.32,1.27.24,1.92-.4,2.96-.31.51-.63.98-1.28.97-3.07-.04-6.89-2.78-9.14-4.55-7.86-6.17-23.12-14.79-28.03-23.5-1.75-3.11.31-6.75,1.14-9.77Z"/>
  <path class="st12" d="M1187.3,271.42c2.55-.32,5.09-.91,7.67-.88,1.57.02,3.53.76,4.42,2.13.9,1.37.49,1.65.14,3.15-4.4,4.35-16.4,4.69-22.3,5.59-20.8,3.18-40.98,8.78-60.65,16.33-3.4,1.31-6.79,2.63-10.22,3.89-2.79,1.46-4.02,2.44-7.04,2.53-1.26-.71-.86-.23-1.38-1.31.08-1.42.37-2.33,1.2-3.52,11.8-17.02,68.45-25.03,88.16-27.91Z"/>
  <path class="st8" d="M880.22,566.81c47.34-3.38,96.74.73,143.42,8.86,114.5,19.95,280.6,96.82,347.24,196.05,5.18,7.72,6.24,7.7,4.53,17.28-22.56,8.06-185.73-63.17-222.37-74.47-191.76-54.54-351.99-63.31-543.36-1.8,8.11-13.63,17.8-26.41,27.71-38.78,62.53-78.03,147.85-97.12,242.83-107.15Z"/>
  <path class="st12" d="M871.72,601.85c3.91-.19,11.85-1.54,15.52.67.99.6,1.71,1.8,1.74,2.97.02.59-.48,1.21-.83,1.56-2.8,2.75-7.69,3.11-11.39,3.18-3.28.07-6.57.06-9.85.33-10.04.82-20.32,1.2-30.23,3.09-5.56,1.06-10.88,2.16-16.52,2.82-3.25.78-6.51,1.49-9.72,2.4-5.64,1.59-12.72,4.5-18.51,1.95l.02-3.68-.12-.2c20.75-13,55.86-13.15,79.88-15.09Z"/>
  <path class="st1" d="M273.46,1134.87c188.59-91.1,384.03-85.88,584.38-44.81l3.72,8.41c-207.71-36.92-431.07-13.7-618.74,85.91,9.57-16.52,20.45-33.27,30.64-49.5Z"/>
  <path class="st1" d="M574.39,760.12c7.12-10.02,16.93-25.19,28.4-30.28,118.43-52.53,263.39-58.25,389.71-39.79,65.21,9.53,127.98,28.15,189.7,45.84l-9.39,5.28c-19.07-7.94-91.35-20.78-115.23-24.47-185.11-28.54-309.91-26.77-483.19,43.41Z"/>
  <path class="st1" d="M868.34,456.8c28.1-40.28,77.05-47.79,122.84-59.28,151.61-38.05,297.72-24.48,446.67,18.1l1.63,8.1c-19.88-7.42-77.23-15.74-99.27-18.42-164.47-20.02-317.43-10.38-471.87,51.5Z"/>
  <path class="st16" d="M857.85,1090.06c24.9,3.29,34.31,6.39,57.09,14.85-14.38-1.22-39.47-3.65-53.38-6.44l-3.72-8.41Z"/>
  <path class="st11" d="M1182.21,735.89c8.52,2.46,31.41,6.99,37.23,13.57-1.63,4.47-41.65-6.92-46.62-8.29l9.39-5.28Z"/>
  <path class="st16" d="M1437.85,415.61c7.19,1.3,33.46,7.52,37.31,12.34-1.88,4.45-31.74-3.34-35.68-4.24l-1.63-8.1Z"/>
  <path class="st17" d="M1839.65,806.07l57.29-119.97.73,4.92c9.69,61.01,29.67,112.95,38.22,178.88,26.4,220.42-30.8,442.73-160.29,623.04-4.53,6.32-9.14,12.58-13.81,18.79l-15.74,18.53c-3.25,5.2-1.11,2.08-5.43,7.51l-3.72,4.72c-36.99,46.61-112.5,121.86-160.96,155.74-228.97,176.92-468.5,210.62-746.24,184.28,17.66-12.18,55.71-32.08,75.95-43.99,42.73-25.11,84.68-51.52,125.8-79.18,5.01-2.99,5.33-2.9,9.33-7.02,35.92-21.97,74.59-53.49,107.46-80.13,12.2-9.26,25.92-17.42,35.71-29.64,27.12-18.5,59.93-49.14,83.24-71.98,15.85-10.99,44.51-42.37,57.86-56.16l34.83-35.78c.85-1.02,1.69-2.03,2.54-3.05,124.76-127.04,241.02-283.65,339.7-431.36,33.51-50.15,63.67-107.12,97.2-158.54l.29-2.68c11.53-24.76,26.5-53.1,40.04-76.94Z"/>
  <path class="st3" d="M1839.65,806.07l57.29-119.97.73,4.92c9.69,61.01,29.67,112.95,38.22,178.88,26.4,220.42-30.8,442.73-160.29,623.04-4.53,6.32-9.14,12.58-13.81,18.79-9.53-4.62-43.98-59.05-44.18-67.63,7.73-2.39,14.31-4.59,21.9-7.37,1.87-11.05-1.56-11.51-8.81-24.13l2.85-5.85,8.11,3.56,5.89-5.78,4.22,3.03c-5.81,7.77-4.55,6-8.55,14.86l3.98,3.09c13.13-12.63,5.63-8.7,23.2-12.5-7.19-6.43-6.52-6.93-10.1-16.13,7.54-4.25,18.11.46,29.35,2.77,12.78-42.11-20.13-33.85-29.64-48.18l7.22-12.2c16.16-4.52,23.58-3.65,40.66-3.75-1.59,8.86-1.53,14.01-1.81,23.05l4.55,2.93c11.87-6.36,11.06-5.92,19.37-16.63,3.1-17.16-7.37-32.2-10.59-50.72l5.12-7.13c12.51-4.26,10.43-1.54,18.69-9.76l-3.79-6.34-11.16-3.85c3.71-19.64,12.58-19.37,1.98-34.25,4.26-8.89,6.94-17.74,17.79-19.01l5.74-.73c4.22-8.95-8.91-20.61-6.46-42.89,7.99-11.94,11.45-12.71,23.9-18.32,10.43-14.84,11.05-16.12,17.12-33.37-13.44-4.43-16.84-4.44-22.64-14.71l7.66-12.73-5.27-3.24-13.82,4.71-6.92-4.77c-2.54-15.06,3.52-27.75,5.54-40.88.54-3.54-11.43-8.03-13.25-25.85,11-4.43,12.01-3.72,19.72-12.31l-1.58-8.26-17.27-6.66-2.92-7.77,3.15-6.23c10.07,6.78,5.73,5.68,17.13,6.3,7.15-9.45,12.96-25.16,8.38-36.52-13.08.65-6.59-.65-19.62,7.53-2.03,9.7-.5,5.29-4.27,13.35-8.13-9.91,4.55-10.92-.03-24.08l-16.42,6.19c-21.04-12.15,2.12-6.34-4.02-19.05-6.37-13.18-15.84-27.08-20.45-41.18l-2.12-6.69.29-2.68c11.53-24.76,26.5-53.1,40.04-76.94Z"/>
  <path class="st17" d="M1839.65,806.07c.14,3.14,2.78,32.29.31,34.37-14.22,12.02,5.14,9.62-3.37,25.23,9.48,15.84,17.65,3.66,22.64,4.85,2.4,2.49,1.64,6.35,9.48,14.75.24-1.15-8.71,14.21-11.23,15.64-7.96.26-10.12-18.08-18.95-1.99-.79,1.44,7.75,7.47-1.14,9.98-37.39,10.57-23.55-16.39-24.08-19.34-6.89-2.58-7.38-2.94-13.7-6.56,11.53-24.76,26.5-53.1,40.04-76.94Z"/>
  <path class="st7" d="M1830.25,1232.85c4.26-8.89,6.94-17.74,17.79-19.01l5.74-.73.25,4.19c1.09,16.51,1.45,36.96-.55,53.39-4.01,3.77-9.2,1.29-14.05.26l-11.16-3.85c3.71-19.64,12.58-19.37,1.98-34.25Z"/>
  <path class="st3" d="M1575.93,1698.24c-8.18-9.63-8.79-22.44-20.88-29.98,2.14,1.33-30.42-30.82-16.58-30.83,21.31-.02,18.67-9.97,37.06-20.47,1.63-1.14,3.11-1,5.03-.52,2.61,3.49,2.37,6.52,4.53,8.29,14.75,2.65,5.72-27.57,15.64-29.26,13.85-2.35,8.81-17.11,20.98-19.66,9.46-1.98,14.48,12,25.06,8.16,2.93-.97,7.18-4.93,7.54-7.84.61-5,7.02-11.92,7.64-15.25-.43-.99-3.75-6.5-5.77-6.99-8.39-2.27-8.97-18.74-14.86-19.54-3.83.91-6.07,7.08-8.71,8.88-4.96,3.39-19.27.96-13.73-7.51,4.86-1.37,15.3.94,13.33-6.43-2.01-7.53,5-21.63,12.35-23.22,25.82,7.56-8.78,33.38,34.45,52.55-.15,1.85-.3,3.7-.45,5.56,11.23,12.71,17.23-6.63,24.4-10.81,1.22-.71,19.98-7.54,18.2-12.34-2.98-8.03-12.72-11.74-9.49-23.83,2.28-14.33-4.25-10.12-12.85-8.33-22.44,4.67,1.85,21.04-6.68,29.29-6-1.51-6.98-4.92-10.01-10.47-7.19-11.87,4.11-20.32,3.71-29.76.01.28-15.23-1.23-9.29-12.66,2.85-5.48,9.31,5.2,11.71,5.67,5.15,1.01,7.61-4.08,12.41-4.55,16.49,3.24,17.4,18.99,25.65,28.66.26.3,10.62,5.71,11.58,8.1.97,1.11,9.2,7.93,8.17,7.1-3.25,5.2-1.11,2.08-5.43,7.51l-3.72,4.72c-36.99,46.61-112.5,121.86-160.96,155.74Z"/>
  <path class="st7" d="M1650.2,1588.06c3.89,4.52,5.96,6.52,5.41,12.62-.24,2.66-.59,5.32-.65,7.99-.18,9.03-1.16,14.05-3.89,22.79l-2.39-3.77c-3.19-4.91-6.6-9.41-7.79-15.25-1.14-5.62-.54-11.93,3.03-16.63.82-1.08,1.75-2.06,2.6-3.11,1.24-1.54,2.45-3.1,3.68-4.64Z"/>
  <path class="st7" d="M1599.36,1639.93c.49-.2.99-.39,1.48-.59,2.05-.85,4.98-2.52,7.44-2.59-.18,1.82-4.13,5.35-4.37,5.62-.37.14-.74.29-1.11.44-1.75.73-3.71,1.98-5.69,1.87-.21-1.61,1.67-3.79,2.24-4.74Z"/>
  <path class="st3" d="M1828.28,1267.09l-1.19.6c-.98.28-1.96.55-2.93.83-.02-.03-1.84-18.26-1.92-20.72-.61-18.71-31.11-11.87-30.9-1.54,3.39,5.13,18.84,7.95,4.64,14.23-4.53,2.01-13.81-7.46-15.78-11.1.36-6.7,12.75-11.77,13.54-21.71-5.01,1.89,21.31-41,19.37-23.16-.99,9.15-8.94,21.39,17.15,28.31,10.6,14.88,1.73,14.61-1.98,34.25Z"/>
  <path class="st3" d="M1515.25,1676.38c6.22,1.33,25.73,5.47,28.69,11.56.45.92-.02,2.41-.58,3.15-1.34,1.79-3.64,2.72-5.77,3.05-2.03.31-4.64.29-6.59,1.2-5.34,2.49-9.33,8.46-11.31,13.84-1.16,3.14-2.16,6.37-3.27,9.53-2.54-.89-4.76-1.38-7.48-.81-2.51.52-3.11.94-5.37,1.18-1.24.13-3.68.48-4.82-.48l.62.09c1.86-4.17.73-3.36,3.96-5.47,2.82-1.84,5.49-3.12,7.68-5.72,7.1-8.46,4.95-21.11,4.24-31.11Z"/>
  <path class="st7" d="M1492.1,1637.78c1.96,1.66,4.31,3.06,5.85,5.12,1.37,1.84.55,4.08.01,6.09-.83,3.07-1.26,3.88-1.63,6.52-.34,2.41-.62,4.83-1.06,7.22-.78,4.32-1.28,5.78,0,9.81,1.33,4.19,2.8,7.53,3.01,11.85.47,9.37,2.37,18.47,2.95,27.9-2.23-1.65-4.43-3.33-6.73-4.88-2.25-1.52-4.64-2.84-6.66-4.68-7.08-6.47.84-15.38.18-23.95-.35-4.5-.59-7.98.43-12.44,2.25-9.87,3.03-18.37,3.64-28.55Z"/>
  <path class="st7" d="M1561.49,1595.58c1.07-.58,2.12-1.19,3.2-1.75,1.86-.95,3.62-1.61,5.64-.67,1.71.8,2.63,3.82,3.22,5.11-2.14.94-6.74,4-9.68,2.51-1.6-.81-2.05-4.07-2.38-5.21Z"/>
  <path class="st7" d="M1627.47,1563.96c1.28-.72,2.54-1.48,3.84-2.16,1.32-.69,2.46-.78,3.79-.21.4.62.57.65.47,1.41-.28,2.22-2.89,4.22-4.09,5.52-.76.33-3.21,1.86-4.64,1.59-.31-.83-.35-.6-.16-1.54.11-.56.31-1.1.4-1.66.17-.97.25-1.96.38-2.94Z"/>
  <path class="st7" d="M1777.96,954.27c.99-.12,1.98-.31,2.98-.36,1.07-.05,2.2.26,2.83,1.2,1.25,1.87.56,4.06.27,6.09-.92.17-1.85.32-2.77.51-1.74.35-3.95,1.16-5.8.75-.39-.09-.47-.38-.66-.67.04-2.68,2.12-5.45,3.16-7.52Z"/>
  <path class="st7" d="M1536.52,1617.79c.87-.19,3.96-1.08,4.96-.84-.63,1.2-3.92,3.02-4.27,3.27-.47,0-5.69.4-7.42-.18,1.72-1.62,4.46-1.59,6.73-2.25Z"/>
  <path class="st3" d="M1524.7,1658.69c.71-.21,1.42-.39,2.12-.62.76-.25,1.5-.55,2.25-.8.83-.27,1.57-.57,2.38-.12.71,1.53.05,2.42-.36,4.27-1.05.68-2.08,1.39-3.14,2.05-.59.36-1.14.63-1.81.45-1.33-1.54-1.1-3.04-1.44-5.22Z"/>
  <path class="st3" d="M1787.56,1272.35c1.97-.38,1.19-.5,2.34-.19,1.07,1.16.43.31,1.23,2.96-2.67-.1-1.71.28-3.08-.43-.62-1.04-.29-.32-.5-2.33Z"/>
  <path class="st3" d="M1851.01,1138.79c.55-.2,1.56-.78,2.32-.57,1.01.27,1.64,1.38,2.25,2.06-2.18.4-1.25.34-2.76.37-1.38-.73-.71-.19-1.81-1.85Z"/>
  <path class="st14" d="M1890.67,238.71c99.64,101.95,59.19,332.13,6.27,447.39l-57.29,119.97c-13.55,23.83-28.51,52.17-40.04,76.94l-.29,2.68c-33.53,51.42-63.69,108.39-97.2,158.54-98.68,147.71-214.94,304.31-339.7,431.36-.85,1.02-1.7,2.03-2.54,3.05l-34.83,35.78c-13.36,13.79-42.02,45.17-57.86,56.16-23.31,22.84-56.11,53.47-83.24,71.98-9.79,12.21-23.51,20.38-35.71,29.64-32.87,26.65-71.55,58.16-107.46,80.13-4,4.13-4.32,4.03-9.33,7.02-41.12,27.67-83.07,54.07-125.8,79.18-20.24,11.91-58.29,31.81-75.95,43.99-104.15,55.34-228.5,120.28-346.97,124.39-169.51,5.89-378.71-114.77-384.87-300.08,2.19-10.84,2.75-32.13,4.05-44.88l5.77-1.75c5.62,130.54,39.35,206.97,155.15,274.14,18.19,9.48,30.57,13.33,48.52,21.14,18.37,3.37,38.83,5.6,56.44,9.29,18.54-.14,25.43-.67,43.36-2.49,19.59-2.03,38.98-5.71,57.95-10.99,9.7-3.31,19.38-5.88,28.44-10.73,30.68-9.26,57.91-24.06,86.25-38.63l5.72-4.02c8.93-4.26,11.53-5.2,19.39-10.8,11.09-6.04,21.96-12.47,32.6-19.29,22.03-13.25,43.61-27.21,64.73-41.86,52.84-33.62,190.93-130.27,233.02-173.23l4.29-2.81c13.24-10.32,26.21-20.99,38.88-32,12.25-9.02,23.37-19.67,35.09-29.59,18.46-15.67,40.56-36.11,58.2-52.81,15.37-13.41,30.45-27.16,45.21-41.25,4.71-4.56,9.48-9.06,14.3-13.5,31.16-29.16,73.78-68.11,101.19-100.48,9.69-6.48,31.73-30.96,40.49-40.73,120.04-128,189.74-211.83,293.29-350.88,9.34-12.45,31.62-42.44,38.57-54.67,23.4-28.91,73.64-119.17,91.83-136.28,18.99-10.97,47.01-62.86,58.27-83.28,57.52-104.33,119.96-214.79,138.34-333.98,6.46-41.9-2.01-99.18-6.48-141.76Z"/>
  <path class="st9" d="M1267.18,1570.57c-.52-.23-5.28-3.06-7.3-2.39-1.32.44-2.28,1.68-3.01,2.79-.46.69-1.57,2.75-2.21,3.28-1.62,1.36-2.06.85-3.96.52-3.64-3.28-4.15-20.79-26.62-28.39-12.53-10.47,1.36-23.99,13.26-24.7-1.39.09,19.81-21.26,25.44-25.1.26.19,9.81,19.98,14.03,8.08,21.21-59.86-11.49-31.73-17.76-33.02-.33-.43-.67-.86-1-1.3-.15-5.29-9.26-3.98-9.22-7.3.21-12.98,7.74-4.97,13.75-8.12-3.37,1.76,2.33-6.1,3.62-7.23,3.93,3.25,4.27,11.78,7.23,11.07,12.85-3.1,12.14,1.74,18.47,14.12,6.64,13.01,5.56,16.63,20.02,20.07,8.69,2.07,9.12,13.66,13.14,21.47-13.36,13.79-42.02,45.17-57.86,56.16Z"/>
  <path class="st9" d="M1148.23,1672.18c-2.77-1.99-6.77-5.46-9.91-6.28-.57.39-1.14.78-1.71,1.17-.62.46-1.24.92-1.86,1.38-3.22-1.45-4.12-1.85-7.79-3.29l.18.51.05-.95c1.18-1.85,4.02-12.37-.39-7.46,4.99-5.56,9.43-3.64,12.14-10.82-3.3-3.67-9.07-10.6-14.67-10.08l-.47.42-.38-.04c-4.32-3.33-8.55-8.28-4.9-13.55,18.26-7.39,16.14,11.63,25.77,20.4,3.53,3.22,11.3,2.93,12.63-2.04.46-1.07.91-2.13,1.37-3.2,2.04-2.79,2.99-6.61.63-9.53-.27-.33-5.16-6.33-4.5-7.3,3.73-5.41,13.53,1.36,17.99.44,2.43-3,3.6-9.29,8.73-6.86,5.39,7.41-1.67,14.86,2.82,27.46-9.79,12.21-23.51,20.38-35.71,29.64Z"/>
  <path class="st9" d="M1031.44,1759.34c-1.31-4.66-16.45-57.05-.55-52.47,2.5,3.07,6.8,36.79,9.88,45.44-4,4.13-4.32,4.03-9.33,7.02Z"/>
  <path class="st9" d="M1359.88,1478.64c-6.63-3.87-23.51-13.96-18.82-24.1,2.95-6.38,19.72-8.17,17.68,2.73-1.47,7.84.19,11.52,3.69,18.33-.85,1.02-1.7,2.03-2.54,3.05Z"/>
  <path class="st9" d="M1127.58,1546.13c10.13-1.99,8.75-8.42,14.63-10.52,13.77,5.18-17.29,31.01,9.64,23.25,2.08-.6,8.09.07,10.36.15l-.55,4.28c-.33,4.19-.66,8.39-.99,12.58-2.22,16.91-7.41-1.59-14.43-2.69-5.17,2.76,4.93,20.74-18.06,18.98-6.56-.5-14.45-14.96-23.97-22.79-7.15-26.03,3.68-21.97,23.38-23.25Z"/>
  <path class="st15" d="M1104.21,1569.38c-7.15-26.03,3.68-21.97,23.38-23.25l-2.85,6.04c-5.32,13.06-6.12,13.77-20.53,17.21Z"/>
  <path class="st9" d="M1212.71,1482.53c1.75.87,3.48,1.77,5.24,2.62,2.04.98,4.17,1.78,6.11,2.95,2.4,1.45,4.71,3.18,5.16,6.14.51,3.36-1.95,6.51-4.02,8.83-5.76,6.47-7.68,13.17-12.61,19.36-1.46,1.84-4.23,2.25-6.4,2.61-1.75.28-3.53.32-5.25.74-2.26.55-2.92,1.4-3.8,3.6-.48,1.2-.21,1.89-1.06,2.87-1.62,1.86-5.81,1.3-7.84.89-1.48-.3-2.92-.75-4.4-1.07-2.01-.43-4.04-.77-6.06-1.15-.14-.74-2.46-7.74-.64-9.78.94-1.06,2.64-1.05,3.91-1.12,1.21-.07,2.43-.03,3.64-.14,1.42-.13,2.87-.65,3.65-1.93.9-1.49.54-3.18-.28-4.6-1.12-1.94-2.49-3.74-3.49-5.74-.98-1.96-1.49-4.29-.62-6.39.96-2.3,4.43-5.13,6.97-5.42,2.33-.26,4.34,1.25,6.02,2.66,1.78,1.5,3.88,4.03,6.33,4.7,2.01.55,4.35.15,5.99-1.16,2.26-1.8,3.09-5.52,3.14-8.21.03-1.49-.07-2.98-.03-4.46.06-2.27.22-4.53.33-6.8Z"/>
  <path class="st9" d="M1067.66,1661.01c1.57.5,3.18,1.03,4.85,1.02,1.33-.01,2.66-.17,4-.18,2.73-.02,4.1.9,5.87,2.87,4.31,4.8,10.62,14.55,9.5,21.49-.46,2.87-1.57,3.79-3.92,5.23-2.98-.07-4.54-1.23-6.72-3.18-2.47-2.22-6.9-7.26-10.63-8.35-.74-.22-1.78-.38-2.42.21-1.11,1.02-1.36,2.77-1.42,4.19-.26,6.13-.88,11.11-1.92,17.19-1.88,1.43-3.81,2.79-5.64,4.28-1.05.87-5.29,5.68-7.78,5.81-1.19.06-2.06-.42-2.97-1.18-1.59-1.33-3.28-4.34-3.29-6.46,0-2.19,8.26-5.69,9.98-7.75,2.03-2.42,1.42-5.16.92-8.03-.24-1.37-.59-2.72-.78-4.1-.74-5.2,2.4-12.06,5.82-15.78,1.19-1.29,2.61-2.37,3.74-3.71.97-1.16,1.87-2.38,2.8-3.57Z"/>
  <path class="st9" d="M874.31,1789.61c2.98,1.11,6.4,2.11,9.16,3.77,2.56,1.54,5.05,3.21,7.72,4.56,7.73,3.92,8.43,3.29,11.59,11.04-4.2,2.26-8.18,4.82-12.87,5.93-3.44.81-7.61.99-10.56-1.3-2.66-2.07-3.41-6.19-3.7-9.31-.23-2.49-.37-4.98-.6-7.47-.22-2.41-.49-4.82-.74-7.23Z"/>
  <path class="st9" d="M796.31,1802.28l5.2.4c5.96.41,13.32.23,18.89,3.06,4.13,2.09,4.69,3.83,6.07,8.15-1.19.35-2.35.77-3.56,1.05-5.12,1.18-12.42-3.72-16.44-6.26-1.35-.86-2.67-1.77-4.03-2.62l-6.13-3.78Z"/>
  <path class="st9" d="M990.45,1740.06c.77-.4,2.02-1.32,3.11-1.4.49-.03.58.21.96.54.19.55.33.68.14,1.32-2.52,8.66-10.08,13.62-17.3,17.87-.51-.16-1.01-.32-1.52-.47-2.63-.75-6.86-1.24-8.57-3.9-.44-.68-.5-1.51-.06-2.22,1.12-1.82,4.27-2.46,6.19-2.73,8.3-1.16,10.52-3.44,17.04-9.03Z"/>
  <path class="st9" d="M1162.21,1559.01c6.03-10.83,18.29-7.51,29.41-6.33-9.73,9.55-15.09,7.89-29.41,6.33Z"/>
  <path class="st9" d="M1063.09,1625.13c1.44,1.01,2.77,1.71,3.58,3.33.9,1.82.97,3.61.16,5.48-1.26,2.88-5.22,4.96-7.92,6.23-1.22.57-2.46,1.11-3.65,1.74l-5.26,2.86c-1.14-1.03-4.49-3.15-4.28-5.46.17-1.95,2.92-3.86,4.39-4.74,2.41-1.44,5.04-2.56,7.18-4.38,1.96-1.66,3.86-3.37,5.8-5.06Z"/>
  <path class="st9" d="M867.79,1778.93l1.35,2.6c.64,1.2,1.38,2.24,1.37,3.65-.05,3.79-1.99,6.51-4.74,8.92-.94.83-1.91,1.62-2.86,2.44l-5.53,4.83c-.61-.77-1.21-1.56-1.84-2.31-1.16-1.38-3.73-3.56-3.49-5.74.33-2.91,2.52-4.65,4.84-6.14,2.53-1.62,3.06-1.72,4.98-3.3l5.92-4.95Z"/>
  <path class="st13" d="M1211.23,1464.15c1.98-.99,4.72-2.69,7.12-2.87,1.88-.15,3.44.16,4.74,1.62,1.32,1.48,1.12,4.06,1.24,5.79-3.07,1.37-5.13,1.78-8.5.55-2.66-.97-3.25-2.62-4.6-5.1Z"/>
  <path class="st9" d="M1201.77,1570.89c1.89-.54,3.01-1.31,4.73-.76.66,1.87-.1,3.44-.5,5.47-.49.29-2.19,1.54-3.27,1.76-.49.1-.47,0-.86-.28-.34-.98-.33-.69-.28-1.91.02-.4.09-.8.11-1.19.04-1.03.04-2.06.07-3.1Z"/>
  <path class="st9" d="M979.66,1773.28c1.05.41,3.41.91,4.26,2.11-.92,1.18-3.34,1.59-4.41,1.96-1-.33-3.7-.77-4.64-1.96.99-1.22,3.75-1.75,4.79-2.11Z"/>
  <path class="st9" d="M1052.9,1593.27c1.43-.88,2.86-2.25,4.62-2.28.77,1.33.23,2.78.09,4.31-1.11,1-3.09,3.46-4.98,3.82-.81-1.63.09-4.48.28-5.85Z"/>
  <path class="st9" d="M1010.76,1636.69c.16,0,1.9-.1,2.36.26.45.36.81.85.88,1.44.08.61.03,1.23.07,1.83.05.85.13,1.71.2,2.56-1.36.31-2.6.87-3.91.31-.45-.85-.44-.61-.29-1.98.06-.54.24-1.06.33-1.6.14-.93.24-1.88.36-2.82Z"/>
  <path class="st9" d="M1087.16,1582.93c.55.38,2.21,1.3,2.65,2.21.48,1.02.12,2.09-.31,3.04-.16.35-.37.67-.52,1.02-.42.96-.79,1.94-1.18,2.91-2.94-1.56-1.89-.68-3.46-2.23-.31-1.36-.2-1.75.52-2.98.21-.36.48-.67.69-1.03.56-.96,1.07-1.95,1.61-2.92Z"/>
  <path class="st9" d="M940.2,1788.37c.41.37.87.69,1.22,1.11.52.63.54,1.39.37,2.16-.12.54-.39,1.03-.57,1.56-.26.75-.51,1.51-.76,2.26-2.46-2.09-1.58-1.07-2.87-2.81,0-2.06,1.15-2.58,2.63-4.27Z"/>
  <path class="st1" d="M1530.61,894.24l4.83,2.72c5.01,2.66,23.42,19.6,25.99,27.22,6.61,19.55-11.54,20.98,4.64,35.76,7.61,6.72,4.48,20.36,4.08,28.72-103.55,139.05-173.25,222.88-293.29,350.88l-6.13,1.48c-20.07,5.07-45.88-4.42-61.92-16.73-9.17-5.76-20.04-.26-27.91-4.57l.02-.36c17.99-1.98,7.17-.95,24.12-8.34l-.73-17.57-7.31,3.56c1.19-11.41.96-11.49,5.1-22.4l1.12-5.13c-3.56-15.05,2.76-19.64-12.35-24.8,10.44-20.22,5.24-35.7,9.33-43.96,1.17.71,2.34,1.43,3.51,2.15,9.75-1.51,15.9-6.15,22.21-6.06,21.22-5.77,30.81-4.62,19.29-22.52l9.49,1.94,4.08-2.82,6.81,3.1c5.21,11.42,2.94,17.94,1.38,30.65l-.67,5.18,3.99,2.49c15.27-10.09,16.48-10.49,27.12-24.91,2.37-14.79,4.47-9.29-1.68-18.96l-13.73-2.96-.75-10.35c13.79-19.83,10.98-15.73,2.43-36.95,13.52-2.92,22.53-12.22,41.86-16.61l4.03-.89c7.2-8.66,5.52-3.81,5.23-15.03-17.28-13.46,3.83-3.73,16.3-21.89-2.47-3.93-4.99-7.84-7.55-11.71,4.43-8.6,4.89-7.2,12.82-14.18l3.93,3.29c11.59-7.73,10.67-7.72,24.12-9.58l1.45,4.12,1.66-.21c16.21-2.96,14.85-2.76,31.53-1.33,20.34-14.46,27.44-30.73,46.28-32.25,6.46-4.12,23.75-39.6-6.83-30.24-6.86-1.78-11.98-11.57-15.66-17.35,6.3-2.01,11.43-7.77,16.87-12.51,11.67-2.32-2.57-8.65,4.08-23.53l12.41-6.71,7.22,6.27,8.12-13.07-2.09,3,3.71,5.84c-7.97,35.37-17.54,3.53,2.13,33l6.62.03c9.7-2.15,6.19-.81,14.47-6.78.93-7.08,1.98-14.15,3.15-21.2l8.86-3.02c1.93-7.67-2.85-9.57,2.2-23.95Z"/>
  <path class="st0" d="M1203.72,1202.88c9.75-1.51,15.9-6.15,22.21-6.06,1.86,3.83,13.2,23.45,5.55,24.75-.89.15-23.46-10.94-24.97,14.53-.74,12.46,27.79,18.43,34.84,10.43,7.66-4.42,13.06,4.56,13.19,10.61-3.12,3.89-12.56,5.61-13.02,10.17-.88,8.89.09,15.65-12.18,12.9-7.33-1.64-10.82,7.29-16.87,7.56-4.65-.71-8.2-9.53-10.36-13.15l1.12-5.13c-3.56-15.05,2.76-19.64-12.35-24.8,10.44-20.22,5.24-35.7,9.33-43.96,1.17.71,2.34,1.43,3.51,2.15Z"/>
  <path class="st5" d="M1208.8,1324.31c3.43-2.62,14.37-12.77,16.83-13.81,5.32.83,4.16,2.7,5.99,6.91,6.19,14.31,18.25,4.05,30.59,8.26,11.94,4.07,8.63.83,14.66,13.88l-6.13,1.48c-20.07,5.07-45.88-4.42-61.92-16.73Z"/>
  <path class="st4" d="M1419.07,1036.71c20.34-14.46,27.44-30.73,46.28-32.25-15.73,19.46-41.18,43.69-62.68,56.05-9.97,5.74,4.05-20.11,6.97-14.79.14.26,9.47-9.06,9.43-9.01Z"/>
  <path class="st0" d="M1351.11,1066.31l3.96,5.37c-2.89,2.21-4.32,5.83-3.73,9.42.59,3.59,3.11,6.56,6.56,7.72-11.26,5.09-11.77,4.26-23.08-.62-17.28-13.46,3.83-3.73,16.3-21.89Z"/>
  <path class="st0" d="M1528.41,918.19c21.01-9.57,16.19.85,25.53,18.13-16.78-2.53-30.93-1.65-25.53-18.13Z"/>
  <path class="st0" d="M1355.07,1071.68c3.73-2.85,8.96-2.68,12.49.42,3.53,3.1,4.38,8.26,2.03,12.32-2.35,4.07-7.24,5.91-11.69,4.4-3.44-1.17-5.96-4.14-6.56-7.72-.59-3.59.85-7.21,3.73-9.42Z"/>
  <path class="st0" d="M1360.31,1043.7c11.59-7.73,10.67-7.72,24.12-9.58l1.45,4.12c3.15,17.87-17.02,11.43-25.57,5.45Z"/>
  <path class="st0" d="M1204.31,1293.46l4.48,1.21c15.85,3.67,2.58,11.67-3.75,16.37l-.73-17.57Z"/>
  <path class="st0" d="M1495.31,949.16l6.62.03c10.25,19.11-7.84,19.33-6.62-.03Z"/>
  <path class="st4" d="M1503.55,978.98c1.37,1.31,4.13,3.05,4.06,5.42-.59,20.88-78.54,93.74-96.73,110.5-1.62-1.43-3.69-2.66-4.6-4.65.38-4.57,15.94-16.64,19.67-20.33,28.33-27.99,55.02-58.1,77.6-90.94Z"/>
  <path class="st18" d="M1303.49,1134.02c.54-.3,1.09-.6,1.63-.91,2.96-1.7,6.33-4.21,9.84-4.7,1.57,1.73,1.49,2.68,1.28,5.01-.5,5.43-1.01,6.41.09,11.35.75,3.35,1.68,6.67,2.19,10.06.28,1.9.46,3.81.73,5.7,1.05,7.36,1.6,12.06,1.39,19.45-2.15-1.37-4.47-2.53-6.38-4.21-4.69-4.14-10.38-10.33-10.36-17.03,0-3.39.43-6.25-.52-9.56-1.11-3.9-1.98-5.49-2.71-9.67-.4-2.32,1.54-3.87,2.81-5.48Z"/>
  <path class="st0" d="M1350.01,1227.83c-29.59,30.23-38.27-57.11-15.43-18.13,2.76,1.42,5.52,2.84,8.29,4.26l12.94-1.97c-1.9,5.62-3.38,10.43-5.8,15.84Z"/>
  <path class="st5" d="M1342.87,1213.97l12.94-1.97c-1.9,5.62-3.38,10.43-5.8,15.84-8.5-.99-12.33-1.16-8.62-10.11l1.48-3.75Z"/>
  <path class="st2" d="M1334.58,1209.7c-2.11.37,8.66-1.7,7.65-1.35,19.3-6.64,11.35-9.27,9.19-22.42.33-3.26,12.2-23.59,16.63-11.94,3.37,8.87-9.13,21.62-1.39,31.76,4.65,6.09-8.96,6.09-10.84,6.25l-12.94,1.97c-2.76-1.42-5.52-2.84-8.29-4.26Z"/>
  <path class="st0" d="M1392.84,1123.11l4.3,1.94c1.44.66,2.87,1.36,4.31,2.02,2.85,1.3,6.12,2.44,8.77,4.19,2.97,1.97,4.8,4.69,5.32,8.27.23,1.61.3,3.24.47,4.85l.76,6.85c-1.95-.95-4-1.75-5.78-2.98-1.14-.79-2.16-1.75-3.31-2.53-5.08-3.46-9.41-4.37-11.35-10.69-.5-1.63-.8-3.31-1.28-4.94-.68-2.34-1.47-4.64-2.2-6.96Z"/>
  <path class="st2" d="M1419.56,1099.62c1.29.25,2.57.52,3.86.76,3.69.67,10.09,1.12,13.34,3.66,1.27.99,1.97,2.28,2.02,3.9.12,4.35-4.69,9.03-6.84,11.77-1.19.03-2.72.28-3.74-.55-5.92-4.84-7.34-12.46-8.64-19.54Z"/>
  <path class="st0" d="M1527.62,980.15c.8-.24,1.61-.47,2.4-.73.86-.28,1.71-.63,2.57-.91.85-.28,1.74-.61,2.58-.13.71,1.92-.28,3.34-.9,5.42-1.01.51-2.01,1.06-3.03,1.54-.9.43-1.23.41-2.08,0-1.03-1.5-1.15-3.46-1.53-5.18Z"/>
  <path class="st2" d="M967.63,1495.58c17.82-1.64,16.24-3.23,23.62-13.85,8.46-2.58,11.65,23.12,30.22-6.62,1.67-2.67,6.36-4.83,10.69-2.07,1.14,2.21-7.48,17.86-8.76,19.1-25.04,24.27,10.25,23.82,8,34.26-4.03,1.57-6.29-1.28-10.29-2.18-22.12,18.86,2.88,36.96-3.95,19.69-6.9-17.44,31.8-3.46,10.16,11.28-10.93,6.45-25.44,8-37.17,3.32l-5.83-.67c-13.7,4.62-8.86,6.16-1.44,16.96,21.62-.34,27.23-7.16,34.59,13.53-11.72,9.91-22.84,20.57-35.09,29.59-12.68,11-25.64,21.68-38.88,32l-4.29,2.81c-42.09,42.96-180.17,139.61-233.02,173.23-6.65-10.54-7.07-10.86-4.6-23.3l.38-3.95c4.83-7.92,18.93-23.89,17.8-31.01-2.65-16.71,4.58-11.39,13.24-23.24-15.09-15.82-38.67,4.45-44.73,3.75-22.73-2.64,1.28-24.28,13.32-26.09,1.86-19.61,6.97-18.67,27.59-23.78-9.02-2.21-9.53-1.59-12.93-10.23l-8.44-5.93c-1.06-4.94-3.27-10.42,1.48-14.15.26.26.51.52.76.77,8.79-2.1,2.5-17.37,11.53-20.36,5.66-1.87,13.41-9.97,17.92-14.08,4.82.24,6.49,6.69,10.78,8.27.61-2.97-14.81-23.33,19.36-15.18,10.29,4.84,23.43,8.62,23.72-8.74.38-22.56,7.26-27.89,30.55-22.51,1.68.39,21.8,8.5,11.66-4.88-18.7-24.66,9.93-13.56,18.72-24.19,1.72-2.16,5.54-3.02,5.74-7.07-6.82-4.19-4.36-11.18-3.18-17.98,20.37-3.5,23.4,17.94,31.72,20.34,36.68,10.58,49.24-8.55,52.79-40.98,6.98-9.98,15.27-20.1,26.28-25.82Z"/>
  <path class="st0" d="M919.46,1606.37c39.26-7.86,21.42-46.96,36.71-59.77,14.52-.69.57,13.1,26.71,28.19,21.62-.34,27.23-7.16,34.59,13.53-11.72,9.91-22.84,20.57-35.09,29.59-12.68,11-25.64,21.68-38.88,32l-4.29,2.81c-27.13-8.61-1.79-11.42-15.27-24.29-2.25-8.35-2.62-13.95-4.48-22.05Z"/>
  <path class="st2" d="M961.4,1611.91c6.96,2.09,13.95,4.1,20.97,6-12.68,11-25.64,21.68-38.88,32,1.37-28.65-19.85-10.16,3.69-37.25,4.74-.18,9.48-.43,14.22-.75Z"/>
  <path class="st5" d="M947.18,1612.66l-2.19-4.26c-5.64-10.67,14.02-14.45,16.41,3.51-4.74.32-9.48.57-14.22.75Z"/>
  <path class="st1" d="M729.19,1698.31c13.72,21.24-11.66,20.97-27.59,23.78,1.86-19.61,6.97-18.67,27.59-23.78Z"/>
  <path class="st1" d="M923.94,1628.42c-20.94,5.32-29.59-19.66-4.48-22.05,1.86,8.11,2.22,13.7,4.48,22.05Z"/>
  <path class="st5" d="M701.96,1798.69c41.71-10.12,13.82,26.74-.38,3.95l.38-3.95Z"/>
  <path class="st0" d="M733.01,1744.44c-1.75-17.14-4.07-19.73,13.15-18.09-2.52,13.91,1.48,22.34-13.15,18.09Z"/>
  <path class="st0" d="M707.81,1682.15c18.64-20.75,29.43-4.66,8.44,5.93l-8.44-5.93Z"/>
  <path class="st0" d="M984.32,1557.83c-1.9-2.11-8.58-7.59-7.06-11.26,3.18-7.67,20.22-.71,16.46,7.34-1.19,1.53-2.38,3.06-3.57,4.59l-5.83-.67Z"/>
  <path class="st0" d="M804.86,1598.97c3.44,1.13,6.49,2.35,9.99,2.94,4.58.76,9.14.17,11.86,4.25.85,1.27,2.17,4.28,4.19,4.34.84.02,1.3-.18,1.92-.71,1.68-1.42,2.28-2.87,4.82-2.58,3.12.35,7.9,2.89,9.36,5.8,2.64,5.25.09,12.13-1.93,17.11-.63,1.56-1.47,3.03-1.95,4.64-.71,2.38-1.35,4.79-2.03,7.18-2.61-1.45-5.33-2.73-7.77-4.45-3.33-2.34-7.12-5.61-10.88-7.4-2.41.45-3.39,1.02-5.1,2.8-1.24,1.29-2.31,2.86-3.88,3.81-.67.4-2.51-.22-2.63-.24-4.61-1.13-6.87-4.18-8.9-8.2-4.5-8.94-.1-20.7,2.92-29.31Z"/>
  <path class="st18" d="M771.42,1670.94c24.72,3.6,20.44,54.5-13.6,42.59-3.9-1.37-1.31-18.2.72-22.82,4.79-6.95,8.75-12.45,12.88-19.77Z"/>
  <path class="st0" d="M758.54,1690.71c-27.28-7.91-10.75-35.57,12.88-19.77-4.13,7.32-8.09,12.82-12.88,19.77Z"/>
  <path class="st5" d="M841.45,1584.28c1.92-3.18,5.46-5.01,9.16-4.75,3.71.26,6.96,2.57,8.41,5.99,1.46,3.41.89,7.36-1.48,10.22-3.31,3.99-9.14,4.75-13.36,1.75-4.22-3.01-5.42-8.76-2.73-13.2Z"/>
  <path class="st18" d="M792.49,1640.99c2.14-2.65,5.55-3.94,8.9-3.34,3.36.59,6.12,2.96,7.22,6.18,1.1,3.22.36,6.79-1.94,9.31-3.4,3.73-9.15,4.09-12.99.8-3.83-3.28-4.37-9.02-1.2-12.95Z"/>
  <path class="st0" d="M771,1730.99c.86.54,1.72,1.08,2.59,1.61,1.84,1.1,3.81,2.02,5.5,3.34,1.43,1.11,2.44,2.24,2.37,4.11-.09,2.54-3.75,5.45-4.97,6.73-.9.3-1.78.67-2.7.9-1.28.31-2.27-.06-3.18-.95-1.3-1.26-1.05-4.48-.83-6.06.18-1.32.49-2.61.66-3.93.24-1.9.38-3.82.57-5.73Z"/>
  <path class="st1" d="M1043.38,1357.12c20.7-7.68,3.99-38.43,23.41-14.73,6.64,8.1,4.58,2.2,10.89,4.98,4.78,21.77,11.06,40.57,39.14,37.8-4.8,11.04,15.55,22.86-5.99,23.6-40.85,1.4,8.76,26.27,6.26,42.78-3.04,20.1,3.31,18.89,18.08,29.21-4.82,4.44-9.59,8.95-14.3,13.5-14.76,14.09-29.83,27.84-45.21,41.25-17.65,16.7-39.74,37.14-58.2,52.81-7.35-20.69-12.97-13.87-34.59-13.53-7.42-10.8-12.26-12.34,1.44-16.96l5.83.67c11.73,4.69,26.24,3.13,37.17-3.32,21.64-14.74-17.06-28.72-10.16-11.28,6.83,17.27-18.17-.83,3.95-19.69,4,.9,6.26,3.75,10.29,2.18,2.25-10.43-33.03-9.99-8-34.26,1.28-1.24,9.9-16.88,8.76-19.1-4.33-2.76-9.01-.61-10.69,2.07-18.57,29.74-21.77,4.04-30.22,6.62-7.37,10.62-5.8,12.21-23.62,13.85-11.01,5.71-19.3,15.84-26.28,25.82-3.55,32.43-16.11,51.56-52.79,40.98-8.31-2.4-11.34-23.84-31.72-20.34,3.95-5.81,24.08-27.71,23.07-31.94-4.43-.02-4.89,3.17-8.73-.24-.76-2.59-.78-1.32-.02-3.82,2.8-1.87,6.99-1.55,8.96-4.4.25-5.4-7.25-17.7-6.53-18.87,8.22-13.41,1.86-4.96-4.27-12.01.92-3.05.6-2.56,3.32-4.22,10.46-.21,20.64,23.1,27.41,14.51,16.66-21.16-6.1-9.98,20.66-17.91,1.85-3.53.41-4.53,4.1-7.29,7.07-.63,16.43,11.28,18.86-.14,1.85-8.69,20.84-17.11,15.02-23.94-6.36-7.45-30.06,3.18-36.18-3.56l.77-1.53c5.71-2.66,13.2-.08,19.39-1.69,9.56-3.18,3.13-12.61,15.44-13.38,6.79-.42,22.42-.81,28.69-3.54l11.11-8.24c5.05,4.36,7.72,6.34,11.91,11.38,10.48-2.95,15.16-8.8,29.17-12.97l4.41-10.61c43.52-11.62,10.64-20.17-.05-30.5Z"/>
  <path class="st2" d="M1043.38,1357.12c20.7-7.68,3.99-38.43,23.41-14.73,6.64,8.1,4.58,2.2,10.89,4.98,4.78,21.77,11.06,40.57,39.14,37.8-4.8,11.04,15.55,22.86-5.99,23.6-40.85,1.4,8.76,26.27,6.26,42.78-3.04,20.1,3.31,18.89,18.08,29.21-4.82,4.44-9.59,8.95-14.3,13.5-14.76,14.09-29.83,27.84-45.21,41.25-4.21-13.52-1.91-16.17-13.94-23.51-.68-4.02-5.43-22.2.18-25.11,14.66-7.61,4.2-28.72-9.24-28.97-1.42-.03-11.83.7-7.55-5.54,2.91-4.25,21.92,3.15,14.87-11.67-1.61-2.43-3.22-4.86-4.84-7.29-6.51-6.4-5.99-5.89-15.58-7.19l-2.58,3.66c-.91,4.21-1.86,14.86-7.25,16.26-3.91-2.4-6.17-8.3-9.33-7.27-3.26,1.07-17.73,4.78-14.04-3.53,5.92-13.36-2.08-12.4,3.46-24.15,10.48-2.95,15.16-8.8,29.17-12.97l4.41-10.61c43.52-11.62,10.64-20.17-.05-30.5Z"/>
  <path class="st0" d="M1086.2,1489.83l-1.49-7.39c-16.29-78.35,22.43-13.68,36.17,11.81-14.76,14.09-29.83,27.84-45.21,41.25-4.21-13.52-1.91-16.17-13.94-23.51,5.69-7.17,7.46-7.8,10.07-15.47l14.4-6.7Z"/>
  <path class="st5" d="M1086.2,1489.83c1.97,2.73,7.26,10.39,6.41,14.45-.15.73-.59,1.36-1.22,1.75-7.29,4.43-15.77-4.72-19.59-9.49l14.4-6.7Z"/>
  <path class="st0" d="M1036.99,1429.89c-9.71-5.83-11.13-7-22.01-9.91-1.22-3.34,32.22-35.6,24.58,6.25l-2.58,3.66Z"/>
  <path class="st0" d="M1043.43,1387.62c4,.78,7.35,1.3,11.03,2.76l2.46,5.71.34.15c-.72,5.68-14.57,2.21-18.24,1.99l4.41-10.61Z"/>
  <path class="st6" d="M941.35,1521.39c-3.71.93-12.57,4.8-14.52-.06,2.49-5.35,39.69-34.49,45.11-41.37,4.08-5.19,10.5.57,2.95,6.64-1.11.89-7.44,9.2-7.26,8.97-11.01,5.71-19.3,15.84-26.28,25.82Z"/>
  <path class="st0" d="M997.93,1399.82c6.35,34.39-12.87,48.46-11.11,8.24l11.11-8.24Z"/>
  <path class="st1" d="M1039.57,1426.23c9.6,1.3,9.07.8,15.58,7.19-11.14,11.19-13.31,7.13-15.58-7.19Z"/>
  <path class="st4" d="M975.31,1436.96c.54.69,4.56,5.05,4.46,6.67-.07,1.15-2.16,3.05-2.92,3.77-32.06,30.67-60.84,60.79-96.77,87.41-.78-.71-1.57-1.4-2.32-2.13-1.42-1.38-1.52-1.59-1.55-3.51,2.54-4.63,86.19-79.95,99.1-92.21Z"/>
  <path class="st2" d="M1006.15,1452.95c1.81-.85,3.58-2.08,5.55-2.44,1.06-.19,2.01-.09,2.79.7,1.3,1.31,1.32,5.05,1.47,6.28-1.07.46-5.74,2.94-8.03,2.98-1,.02-1.58-.08-2.26-.78-1.4-1.45.28-5.89.47-6.73Z"/>
  <path class="st2" d="M1631.39,702.33c-4.57,10.76,5.78,14.97,12.2,9.33.95-3.3-1.07-5.32,0-9.1,7.47-3.54,11.21-4.52,15.58-12.2.02-.75,4.26-3.98,4.99-3.23,3.88,3.96.08,22,5.19,27.77,12.52,14.12,7.15,19.5,15.73,35.24,1.31,2.4,1.97,4.65,2.87,7.2,3.82,5.93,16.06,14.6,22.74,21.1-3.56,6.33-6.95,12.76-10.16,19.28-18.19,17.11-68.43,107.37-91.83,136.28-6.95,12.23-29.23,42.22-38.57,54.67.4-8.36,3.54-22-4.08-28.72-16.18-14.78,1.97-16.22-4.64-35.76-2.58-7.61-20.99-24.55-25.99-27.22l-4.83-2.72c-1.54-.12-3.08-.23-4.62-.35-1.72-.14-3.44-.27-5.15-.4-5.42,1.08-10.43-13.26-5.35-12.55,16.18,2.26,48.07,8.75,18.5-16.26-2.86-2.42-17.54-12.26-12.33-18.22,7.75-8.86,19.24-.85,16.38-16.87,5.55-10.61,11.51-2.5,16.32-2.55,4.09-.04,5.58-3.17,1.08-8.07-.26-4.26,3.14-5.93,5.11-9.41-.51-7.55-11.02-2.95-14.85-6.47-.25-1.21-.55-1.89.06-3.1,7.55-1.21,13.55-12.21,16.49-11.55,5.31,5.84,1.2,33.74,7.79,38.23.46-.05.92-.09,1.37-.13,20.14,19,13.78-11.17,15.68-15.46-2.75-12.8-3.75-19.14-9.89-30.6,1.02-1.22,2.29-2.24,3.64-3.08,2.35-1.48,8.94-.7,11.35.41.78.36,1.44.96,2.19,1.38,2.86,1.63,6.57.6,9.41-.45,1.14-.42,2.27-.91,3.42-1.31,3.77-1.3,9.07-2.2,11.84-5.6,2.44-3,1.95-7.86.97-11.32-.88-3.1-2.58-4.65-5.38-6.06-3.39-1.71-7.33-.57-10.59.83-1.96.85-5.75,3.17-8.11,2.45-14.09-19.83,14.25-14.36,20.07-15.49,1.42-.27,2.81-8.56,2.29-10.31-2.91-9.78,4.81-16.03,5.47-25.37.41-4.45,2.97-3.99,7.63-4.25Z"/>
  <path class="st0" d="M1530.61,894.24c-1.54-.12-3.08-.23-4.62-.35-1.72-.14-3.44-.27-5.15-.4-5.42,1.08-10.43-13.26-5.35-12.55,16.18,2.26,48.07,8.75,18.5-16.26-2.86-2.42-17.54-12.26-12.33-18.22,7.75-8.86,19.24-.85,16.38-16.87,5.55-10.61,11.51-2.5,16.32-2.55,4.09-.04,5.58-3.17,1.08-8.07-.26-4.26,3.14-5.93,5.11-9.41-.51-7.55-11.02-2.95-14.85-6.47-.25-1.21-.55-1.89.06-3.1,7.55-1.21,13.55-12.21,16.49-11.55,5.31,5.84,1.2,33.74,7.79,38.23.46-.05.92-.09,1.37-.13,20.14,19,13.78-11.17,15.68-15.46l5.54-.85c19.33-5.12,18.2,10.23,24.63,6.31,10.26-6.25,22-4.67,18.28,9.05-3.12,7.91,16.99,2.42,17.89,1.73,6.59-5.06-16.57-24.57,8.39-17.41,3.66,1.07,8.36,18.18,7.63,20.95l-7.27,1.54c-13.39,2.93-11.91,13.6-23.24,13.55-23.07-.09-26.43-23.95-30.44,8.11-1.03,8.27,3.25,17.6,1.16,21.55-9.9,6.14-9.82-4.86-13.91-8.12-10.04,2.94-13.81,15.36,2.52,23.05,9.44,4.48,16.42,6.95,6.47,16.64-.95,14.06-.76,13.35,3.98,26.82-6.95,12.23-29.23,42.22-38.57,54.67.4-8.36,3.54-22-4.08-28.72-16.18-14.78,1.97-16.22-4.64-35.76-2.58-7.61-20.99-24.55-25.99-27.22l-4.83-2.72Z"/>
  <path class="st5" d="M1604.73,907.19c-6.72-3.06-19.19-2.23-17.73-12.06,2.98-3.87,6.23-3.58,11.26-4.58,9.44,4.48,16.42,6.95,6.47,16.64Z"/>
  <path class="st1" d="M1634.87,761.8c5.92,1.1,17.39,2.09,21.73,7.41,1.61,1.98,1.91,4.43,1.57,6.86-.08.55-.2,1.09-.29,1.64l-.7,4.73c-2.16.55-5.89,2.18-8.65,1.54-2.82-.65-5.01-3.93-6.19-6.37l-3.17-6.71c-1.46-3.03-2.91-6.05-4.31-9.11Z"/>
  <path class="st0" d="M1632.81,731.27c4.19.96,17.39,2.06,20.54,6.05,2.84,3.6.52,10.19-.12,14-2.69-.85-5.36-1.75-8.08-2.54-2.9-.84-6.49-1.4-8.77-3.62-3.61-3.51-3.13-9.31-3.57-13.89Z"/>
  <path class="st2" d="M1106.95,1345.94c6.13-5.16,13.48-9.6,10.06-18.46-6.45-3.31-10.31.97-16.3-.78-1.32-2.07,4.94-28.05,5.15-28.33,11-15.47,40.46-17.92,1.74-31.11-13.27-4.52-30.94-4.46-12.07-19.41.07-.06-14.09-29.4,9.97-34.46,3.42-1.09.97-2.39,6.34-1.43,7,6.16-3.54,42.36,34.72,39.56,39.62-2.89-3.26-20.04-6.18-29.68l1.47-1.39c8.69,1.27,9.01,6.63,12.25,6.82,3.79-3.8,5.22-9.15,7.99-10.85,13.86,5.58,11.62,18.18,28.79,28.27,15.11,5.16,8.78,9.75,12.35,24.8l-1.12,5.13c-4.14,10.9-3.92,10.99-5.1,22.4l7.31-3.56.73,17.57c-16.95,7.39-6.13,6.37-24.12,8.34l-.02.36c7.87,4.31,18.74-1.19,27.91,4.57,16.05,12.3,41.85,21.79,61.92,16.73l6.13-1.48c-8.76,9.76-30.8,34.24-40.49,40.73-27.41,32.37-70.03,71.32-101.19,100.48-14.77-10.32-21.12-9.11-18.08-29.21,2.49-16.51-47.11-41.38-6.26-42.78,21.54-.74,1.19-12.56,5.99-23.6,7-3.77,20.45-15.49,23.25-15.65,13.59-.8,7.22-8.43,1.3-20.24-31.4,5.3-6.07,13.42-22.58,23.69-10.17-.42-11.72-19.24-11.85-27.03Z"/>
  <path class="st0" d="M1141.38,1349.29c.24-3.36.57-10.55,1.07-14.02,7.44-.75,11.8,6.68,19.1,2.29,3.77-2.27,10.66-6.49,15.16-6.57,11.44,6.62-5.35,20.6-1.32,23.15,8.37,5.29,8.38,9.45,7.09,19.78-2.24,17.94,20.88,9.31,27.61,14.23,12.96.17,8.31-7.13,26.26-7.87-27.41,32.37-70.03,71.32-101.19,100.48-14.77-10.32-21.12-9.11-18.08-29.21,2.49-16.51-47.11-41.38-6.26-42.78,21.54-.74,1.19-12.56,5.99-23.6,7-3.77,20.45-15.49,23.25-15.65,13.59-.8,7.22-8.43,1.3-20.24Z"/>
  <path class="st18" d="M1176.96,1270.95c12.47-8.74,17.03-13,26.26-1.46l-1.12,5.13c-4.14,10.9-3.92,10.99-5.1,22.4-8.66,3.93-11.23,7.3-19.14.86.3-10.75-.59-16.53-.9-26.94Z"/>
  <path class="st1" d="M1177.86,1297.89c-2.72-1.4-34.27-24.8-34.19-24.61,6.63-14.23,19.31-4.86,26.74-3.5l6.56,1.17c.31,10.41,1.2,16.18.9,26.94Z"/>
  <path class="st2" d="M298,1880.75c-3.64,3.55-8.43,6.61-10.28,11.56-.45,1.19-.86,8.81-3.86,9.26l-.17-.27.04-.66-1.51.33c.3,1.63.37-44.86-2.4-39.36,3.27.51,3.82,1.12,7.11,2.75,1.82-1.05,6.69-5.68,8.04-5.71.17.14.35.29.53.43,5.78-1.49,10.86-13.55,26.25-10.23,5.97-1.88,12.82-10.63,13.43-15.75,1.57-13.25,14.3-15.35,23.58-27.39,17.28-22.41,16.32,12.75,16.58,13.32,4.43,1.78,12.61-5.92,22.55-2.15,6.27,7.6,4.7,25.77,23.72,35.72,2.38,8.24,3.18,11.42,10.84,16.44l3.19,16.43c5.54,3.29,8.75,5.19,13.9,8.83l2.65,5.34c10.05-3.97,8.69,4.32,15.41,13.72-5.08,3.74-10.23,7.38-15.44,10.93,18.81,12.85,3.06,9.32,16.92,26.96-18.97,5.28-38.36,8.96-57.95,10.99-17.93,1.81-24.81,2.35-43.36,2.49-17.61-3.69-38.07-5.92-56.44-9.29l6.68-19.05c18.75-18.29-13.86-32.44-14.88-34.8.21-2.22-.21-1.14,1.61-3.07,22.16,5.1,9.11-19.75,10.97-17.96-8.28-1.83.06,8.76-6.72,12.31-5.77-.63-6.42-3.22-11.75-3.41-.75-1.92.14-4.64.76-8.73Z"/>
  <path class="st1" d="M367.76,1964.76c-2.36-16.35,8.27-11.79,17.02-25.4,6.69-10.4,28.94-4.56,33.84-6.8-.15-6.02.59-13.08-3.56-17.55-3.05-3.29-24.76-1.26-25.68-.92-14.49,5.44-13.39-1.71-23.54-9.03-5.8-3.86-4.72,12.17-6.93,14.67-2.96-2.81-4.1-11.26-5.34-15.28,8.58-12.6,3.78-2.67,1.59-14.09l.92-1.3c13.96-3.91,9.08-4.14,16.39-6.8,6.26,1.8,2.85,8.01,7.58,12.97,14.24,14.92,9.87-15.57,22.48,6.26,1.27,2.2,7.53-.32,9.26-5.26,4.23-12.05,8.96-10.45,18.74-6.34l5.1-4.38c5.54,3.29,8.75,5.19,13.9,8.83l2.65,5.34c10.05-3.97,8.69,4.32,15.41,13.72-5.08,3.74-10.23,7.38-15.44,10.93,18.81,12.85,3.06,9.32,16.92,26.96-18.97,5.28-38.36,8.96-57.95,10.99-17.93,1.81-24.81,2.35-43.36,2.49Z"/>
  <path class="st2" d="M435.64,1885.51c5.54,3.29,8.75,5.19,13.9,8.83l2.65,5.34c10.05-3.97,8.69,4.32,15.41,13.72-5.08,3.74-10.23,7.38-15.44,10.93-13.11-1.05-25.11-19.68-21.84-26.43l.22-8,5.1-4.38Z"/>
  <path class="st0" d="M435.64,1885.51c5.54,3.29,8.75,5.19,13.9,8.83l2.65,5.34c-11.37,1.89-13.17,5-21.87-1.79l.22-8,5.1-4.38Z"/>
  <path class="st0" d="M299.64,1861.61c4.41,6.27,14.72,22.35-1.64,19.14-13.28-8.61-9.35-7.35,1.64-19.14Z"/>
  <path class="st0" d="M394.77,1851.1c.53-.11,6.11-1.64,8.14-1.42-1.61,2.07-4.58,2.58-6.94,3.73-1.6-.08-5.02.04-6.61-.53.78-.97,5.21-1.73,5.41-1.78Z"/>
  <path class="st1" d="M546.54,1827.03c14.76-7.66,7.18,4.57,22.72,14.1l2.24,4.26c-10,8.89-14.42,9.62-27.24,14.6,23.97,18.97,22.51-.74,36.19,26.77-.6,7.01.75,8.25,3.3,15.16-28.34,14.57-55.57,29.38-86.25,38.63-9.06,4.85-18.74,7.42-28.44,10.73-13.85-17.64,1.89-14.11-16.92-26.96,5.22-3.55,10.36-7.19,15.44-10.93-6.72-9.4-5.36-17.69-15.41-13.72l-2.65-5.34c4.42-9.73,2.99-10.23,1.92-21.66l-.22-7.41c5.47-12.59,5.31-14.62,7.7-28.08,6.53,2.74,6.58,2.89,13.42,3.74,4.43,5.07,3.71,4.91,9.1,7.75,8.39-3.18,16.82-6.28,25.27-9.31,15.42-6.81,23.27-11.32,39.81-12.34Z"/>
  <path class="st0" d="M467.59,1913.39c15.39,7.39,27.99.24,38.52,10.24,6.03,5.72-7.18,3.1-8.61,16.92-9.06,4.85-18.74,7.42-28.44,10.73-13.85-17.64,1.89-14.11-16.92-26.96,5.22-3.55,10.36-7.19,15.44-10.93Z"/>
  <path class="st4" d="M569.26,1841.12l2.24,4.26c-10,8.89-14.42,9.62-27.24,14.6-8.23,2.72-72.06,31.66-74.5,21.54,3.72-6.11,85.45-34.83,99.5-40.4Z"/>
  <path class="st4" d="M506.73,1839.36c15.42-6.81,23.27-11.32,39.81-12.34-14.97,12.15-92.46,42.86-65.08,21.65,8.39-3.18,16.82-6.28,25.27-9.31Z"/>
  <path class="st0" d="M544.27,1859.99c23.97,18.97,22.51-.74,36.19,26.77-26.98-4.37-24.07-1.95-36.19-26.77Z"/>
  <path class="st0" d="M1694.43,678.38c14.3,17.01,12.16-18.07,19.06-22.06,14.99-8.69,9.12,23.2,29.5-.35-.53-8.38-25.82-1.91-18.31-22.87,5.36-14.97,30.82-13.14,43.66-8.03,7.73,9.31,11.97,13.55,16.84,24.51-1.69,2.93-3.39,5.84-5.12,8.75-4.33,7.93-10.79,22.43-16.62,28.17-8.93,19.99-22.95,44.67-34.74,63.27-5.37,10.17-11.3,19.36-18,28.69-6.68-6.5-18.92-15.17-22.74-21.1-.9-2.55-1.57-4.8-2.87-7.2-8.58-15.75-3.22-21.12-15.73-35.24-5.11-5.77-1.31-23.81-5.19-27.77-.73-.75-4.97,2.48-4.99,3.23-4.37,7.68-8.1,8.66-15.58,12.2-1.07,3.78.96,5.8,0,9.1-6.42,5.64-16.77,1.43-12.2-9.33,3.42-2.78,11.42-8.55,13.94-10.95l-.26-2.07c-8.74-11.49-27.6,15.51-32.74-2.15,2.27-4.43,9.47-2.19,13.91-14.8,5.43-15.46,19.17.06,31.99-.89,12.94-8.45,11.73-11.19,25.82-4.33,2.94,7.48,2.37,8.96,10.37,11.23Z"/>
  <path class="st2" d="M1709.7,711.86c7.49-33.82,20.76-6.54,34.31-9.32,7.59-9.9,5.69-14.67,19.43-16.06-8.93,19.99-22.95,44.67-34.74,63.27l-.87-3.43c-2.16-8.85-1.66-10.36-7.45-16.62l-10.67-17.84Z"/>
  <path class="st1" d="M1709.7,711.86c19.26-16.24,30.43-3.9,10.67,17.84l-10.67-17.84Z"/>
  <path class="st5" d="M1768.34,625.06c7.73,9.31,11.97,13.55,16.84,24.51-1.69,2.93-3.39,5.84-5.12,8.75-6.76-20.45-11.21-5.48-26.51-20.62-.57-1.5-1.14-3-1.71-4.5,1.43-4.14,11.54-5.8,16.49-8.13Z"/>
  <path class="st2" d="M1694.43,678.38c11.6-11.51,2.51-18.23,17.28-27.62,1.59-1.01,5.02-2.81,4.75-5.1-25.51-13.3.09-10.86-15.29-27.36-3.73-4-9.42-3.06-11.72-10.56.57-2.77,0-1.46,1.85-3.86,4.86.08,11.96,8.61,17.52,9.47,16.14,2.51,26.24-22.33,30.71-24.85,9.52,3.06,3.82,19.07,13.98,18.27,5.52-4.02.26-11.61,4.32-17.38,1.98-.33,3.5,1.18,5.4.81,3.54-6.32-1.96-3.41-1.95-10.88,26.18-6.73,38.75.43,49.22,20.4-7.79,15.85-18.67,34.5-25.32,49.85-4.88-10.95-9.11-15.2-16.84-24.51-12.84-5.11-38.29-6.94-43.66,8.03-7.52,20.97,17.78,14.5,18.31,22.87-20.37,23.56-14.51-8.33-29.5.35-6.9,4-4.76,39.07-19.06,22.06Z"/>
  <path class="st0" d="M1767.27,598.31c2.03-.46,4.05-1.01,6.1-1.37.76-.13,2.19.11,2.64.89,1.45,2.51,1.14,5.14.61,7.87-1.06,5.44-2.07,10.81-2.96,16.28-.67-1.1-4.27-7.01-5.03-8.07-1.47-2.03-3.13-3.92-4.64-5.93-1.27-1.68-3.27-4.93-2.37-7.1.72-1.74,4.62-2.29,5.66-2.58Z"/>
  <path class="st2" d="M571.5,1845.38c11.97,3.27,10.92-16.86,14.03-23.44,6.73-4.6,9.62,1.43,16.93,3.41,3.44-1.7-1.99-13.41.11-18.84,1.92-4.99-3.58-16-2.49-21.23.26-2.75,4.8-3.72,6.59-2.34,4.64,3.7,3.98,15.86,9.86,17.8,11.71,3.41,25.76,6.76,31.07,19.21,2.03,3.41-2.18,9.61-5.95,8.97-6.04-1.02-7.92-9.46-14.93-9.83-13.63-.72-5.63,14.56-12.51,18.32-6.16,3.36-14.76-6.55-20.35,4.7-2.35,2.78-4.71,5.57-7.06,8.35-1.94,2.03-4.71,6.91-.05,7.8,5.09.97,14.38-2.66,17.95-5.58,8.77-7.17,10.19-9.2,21.77-6.43,7.08,1.7,11.6,7.67,12.69,15.09.76,2.16,1.53,4.32,2.3,6.48-10.63,6.82-21.5,13.25-32.6,19.29-7.86,5.6-10.46,6.54-19.39,10.8l-5.72,4.02c-2.55-6.91-3.9-8.15-3.3-15.16-13.67-27.51-12.22-7.8-36.19-26.77,12.82-4.98,17.23-5.71,27.24-14.6Z"/>
  <path class="st0" d="M589.48,1897.9c-2.34-6.7-8.01-15.49-3.88-21.75,20.89-9.79,3.15-1.95,17.22-11.14l1,.27c3.99,4.31,4.39,16.32,5.05,21.82-7.86,5.6-10.46,6.54-19.39,10.8Z"/>
  <path class="st2" d="M1411.26,1010.25c-1.47-2.5-4.15-6.14-4.45-8.83,1.15-1.15,2.31-2.3,3.46-3.46-7.94-2.19-6.73-2.96-10.72-9.98-6.17-10.85-19.74-1.02-23.93-11.62-2.72-6.9-3.5-7.54-9.67-11.12-6.42-4.65,8.5-19.35-1.85-21.62-17.34-5.64,4.08-15.62,11.19-15.91,11.74,10.27-4.73,51.06,46.89,53.14,8.81-6.56-2.32-18.37,14.74-22.45l5.93-1.54c3.68,5.78,8.79,15.57,15.66,17.35,30.57-9.35,13.29,26.13,6.83,30.24-18.84,1.52-25.94,17.79-46.28,32.25-3.45-10.75-2.75-16.03-7.8-26.46Z"/>
  <path class="st1" d="M1071.58,1293.21c6.27,11.64,6.09,10.86,18.97,13.41-22.2,2.54-47.2,16.92-13.98,30.73,15.32,6.37,10.1-6.82,30.38,8.59.13,7.79,1.68,26.61,11.85,27.03,16.51-10.26-8.82-18.39,22.58-23.69,5.92,11.8,12.28,19.44-1.3,20.24-2.8.16-16.26,11.87-23.25,15.65-28.08,2.77-34.36-16.03-39.14-37.8-6.31-2.77-4.25,3.13-10.89-4.98-19.42-23.7-2.71,7.05-23.41,14.73-2.72-12.08,12.08-8.32,7.2-33.6-4.09-21.16,17.05-17.14,21.01-30.3Z"/>
  <path class="st2" d="M1459.74,944.35c-4.05-.97-15.94-2.82-18.6-4.83-.09-.4-.18-.8-.28-1.21.28-.2.57-.4.85-.59.65.46,1.3.92,1.95,1.37-.78-2.35-1.35-2.87-1.09-5.86l-.49.02c-1.29-4.94,9.48-29.08-7.08-27.68-18.13,1.53-15.05-41.14-9.18-40.12,4.21,4.07-1.16,15.45,4.04,17.68,5.26-1.92,8.27-16.19,16.68-16.41,28.51-.76,39.09,21.56,19.52,50.81l-2.24,3.3c-6.65,14.87,7.59,21.2-4.08,23.53Z"/>
  <path class="st2" d="M1356.38,1040.41c-11.52-14.35,4.18-15.98-1.89-19.38-7.46-4.19-10.83-26.94-8.58-33.12,3.97-2.92,41.14,8.63,36.08,24.98,1.78-5.74,3.68,11.44,2.44,21.23-13.46,1.85-12.53,1.84-24.12,9.58l-3.93-3.29Z"/>
  <path class="st0" d="M421.61,1852.64c7.6-10.63,11.98-12.51,10.85-25.24-.02-.21,17.16-5.07,26.48,9.79-2.39,13.46-2.23,15.49-7.7,28.08l.22,7.41c1.07,11.44,2.5,11.94-1.92,21.66-5.14-3.64-8.36-5.54-13.9-8.83l-3.19-16.43c-7.65-5.02-8.46-8.2-10.84-16.44Z"/>
  <path class="st5" d="M432.44,1869.08c5.22-15.11,10.8-20.62,18.79-3.82l.22,7.41c1.07,11.44,2.5,11.94-1.92,21.66-5.14-3.64-8.36-5.54-13.9-8.83l-3.19-16.43Z"/>
  <path class="st2" d="M472.36,1840.92c-3.78-11.44-10.48-25.28,2.2-31.29,27.86-13.21,18.55,4.6,19.22,12.47,6.32,9.44,6.79,3.47,12.95,17.27-8.45,3.03-16.87,6.13-25.27,9.31-5.39-2.84-4.67-2.68-9.1-7.75Z"/>
  <path class="st2" d="M1658.24,671.48c-6.1-35.37-11.62-10.86-31.7-14.41-.78-.14-2.42-5,1.39-6.53,2.05.94,1.38.99,2.32.67,8.64-10.04,25.44-19.79,33.44-6.14,8.16,13.91,22.27,7.6,20.37,22.08-14.09-6.87-12.89-4.12-25.82,4.33Z"/>
  <path class="st1" d="M1387.54,1038.04c-1.61-26.02-3.13-29.91,23.73-27.79,5.06,10.43,4.35,15.7,7.8,26.46-16.69-1.43-15.33-1.63-31.53,1.33Z"/>
  <path class="st1" d="M262.81,1934.33l6.21-2.5c17.63-7.5,38.32,10.97,46.37-3.91,1.86,1.38,2.38,7.24,2.62,8.49l-6.68,19.05c-17.94-7.81-30.33-11.66-48.52-21.14Z"/>
  <path class="st2" d="M1248.34,1106.89c-1.77-9.55-1.74-33.02,16.54-19.53,3.11,2.3-4.81,10.99-1.09,15.02,7.89,11.8,12.14,5.02,19.9,18.35-3.97-2.02-2.79-1.8-5.1-1.46-5.77,6.94-7.25,7.06-14.71,2.87-6.84-8.34-6.92-9.15-15.52-15.25Z"/>
  <path class="st2" d="M1334.81,1088.2c-27.51-2.97-12.96-35.95,8.75-33.61,2.56,3.88,5.08,7.78,7.55,11.71-12.47,18.17-33.58,8.43-16.3,21.89Z"/>
  <path class="st2" d="M1245.21,1174.3c11.52,17.9,1.93,16.75-19.29,22.52-6.31-.09-12.46,4.55-22.21,6.06,20.37-18.04,20.1-12.86,41.5-28.58Z"/>
  <path class="st2" d="M1071.58,1293.21l3.71-3.69c13.08-13.31,13.05,4.78,15.26,17.11-12.89-2.55-12.7-1.77-18.97-13.41Z"/>
  <path class="st1" d="M1263.87,1122.14c-12.32-.34-30.69-.82-15.52-15.25,8.6,6.09,8.68,6.9,15.52,15.25Z"/>
  <path class="st2" d="M498.74,1769.18c-13.69-12.91-10.08-12.16-18.26-30.26-.89-3.59-4.2-6.51-4.38-10.39-.49-10.15-13.01-12.16-15.41-21.35-.74-2.82,1.04-4.41,2.59-6.51,2.28-2.82,4.56-5.65,6.83-8.47,2.85-3.15,5.28-9.81,10.5-9.59,2.07.09,2.88,2.3,3.84,3.69,2.87,4.17,3.31,9.69,2.2,14.52-.7,2.21-1.39,4.42-2.09,6.63-4.59,11.25,17.44,18.57,14.81,8.01-5.05-20.26,14.23-21.14,16.25-39.16-.21-3.05.06-15.29,6.04-12.17,7.01,3.67-.09,17.02,9.81,15.61,1.8-.55,3.6-1.11,5.4-1.66,12.44,7.28-10.55,9.6,13.01,25.33l4.67-10.87c4.27-10.17-2.13-7,6.85-12.18,22.01,20.87-20.06,44.97,37.93,36.32,22.65-3.37,5.34,11.92,1.38,17.12l-1.22,7.09c-1.08,7.46-7.6,21.42-16.04,17.96-13.15-5.4-18.14-2.37-13.86,12.68,2.94,10.34-4.14,9.74-8.65,15.64l.19,2.25c5.05,3.67,11.82,1.47,16.92,5.06l.86,2.06c-2.51,5.97-6.78,6.32-9.24,9.55,2.45-3.21-28.13,1.35-24.41,1.52-13.24-10.49-.67-44.11-22.41-15.34l-1.88-13.08c2.43-8.53,20.5-26.7-9.65-24.14.23-.02-6.28,8.71-3.43,4.75-2.96,8.04-1.55,9.27-9.15,9.37Z"/>
  <path class="st0" d="M549.87,1703.41l4.67-10.87c4.27-10.17-2.13-7,6.85-12.18,22.01,20.87-20.06,44.97,37.93,36.32,22.65-3.37,5.34,11.92,1.38,17.12-2.36,4.19-15.24,28.51-22.79,8.34-8.85-23.65-25.73-15.47-30.73-18.87-1.7-7.65,4.86-6.52,2.69-19.87Z"/>
  <path class="st0" d="M498.74,1769.18c-1.81-7.25-9.74-36.28-13.43-41.96,13.4-15.5,20.21,14.01,23.77,18.63-2.66,7.01-2.92,7.14-1.19,13.96-2.96,8.04-1.55,9.27-9.15,9.37Z"/>
  <path class="st0" d="M521.56,1687.58c1.06-.2,2.12-.47,3.19-.59,1.28-.15,2.46.04,3.32,1.06,1.56,1.85.21,7.35.09,8.39-.77.26-2.87,1.21-4.19,1.27-.73.03-1.42-.19-1.91-.75-.64-.74-.77-1.99-.76-2.91.02-.9.14-1.8.17-2.7.05-1.26.05-2.51.09-3.77Z"/>
  <path class="st4" d="M499.88,1143.78c2.09-.19,4.2-.64,6.29-.44,1.06.1,2.71.37,3.2,1.53.29.69.21,1.24-.12,1.92-1.93,4.05-11.28,6.26-14.85,7.2-44.67,11.72-90.88,30.97-130.97,53.9l-12.91,7.44c-1.45.17-2.88.46-4.34.32-1.26-.12-2.47-.68-3.02-1.88-.22-.49-.19-1.56.05-2.04,3.54-7.33,19.77-13.48,26.32-16.9,41.22-21.54,85.02-40.19,130.35-51.04Z"/>
  <path class="st6" d="M159.54,1545.17c1.32,1.5,2.68,2.97,3.96,4.5,4.23,5.05-3.29,28.48-4.11,35.72-.44,3.86-.71,7.75-1.34,11.59-5.52,33.39-6.01,69.2-5.58,102.98-1.94-1.44-4.88-3.08-6.28-5.39-11.29-18.59.7-83.05,4.08-105.42,1.11-7.3,2.32-14.14,3.76-21.37,1.58-7.95,3.14-14.84,5.52-22.61Z"/>
  <path class="st4" d="M1648,114.17l.65-18.38,7.12.8c19.37,1.72,95.31,38.75,97.58,54.71-3.62,4.53-14.97-5.42-17.4-6.92-16.06-9.89-39.83-29.1-58.33-32.07l-7.49,13.34c-8.31-7.17-10.96-8.99-22.13-11.47Z"/>
  <path class="st1" d="M1648,114.17l.65-18.38c11.61,10.91,13.91,10.85,28.96,16.52l-7.49,13.34c-8.31-7.17-10.96-8.99-22.13-11.47Z"/>
  <path class="st4" d="M1828.84,345.02c6.35-9.03,4.55-9.67,8.12-19.5,4.73,2.28,9.24,4.34,14.02,6.5,8.56,15.08-4.69,48.83-4.76,66.32-.01,3.76-5.38,28.06-10.02,15.9-.59-1.54,2.46-24.6,2.71-29.29-.84-18.12,5.16-31.2-10.07-39.92Z"/>
  <path class="st18" d="M1828.84,345.02c6.35-9.03,4.55-9.67,8.12-19.5,4.73,2.28,9.24,4.34,14.02,6.5-8.85,11.35-8.24,34.77-12.07,52.92-.84-18.12,5.16-31.2-10.07-39.92Z"/>
  <path class="st6" d="M746.6,755.77c1.68-.19,3.35-.42,5.03-.56,3.51-.29,6.75-.28,9.5,2.09.38,2.56.53,1.33-.36,3.67-1.89,1.37-3.99,1.78-6.26,2.21-4.62.88-9.19,1.85-13.8,2.78-35.51,7.13-69,18.53-100.67,36.23-1.85,1.05-4.15,2.66-6.29,3.06-2.5.47-1.95.4-3.92-.59-.55-.87-.81-1.37-.57-2.47,1.38-6.31,14.72-12.45,19.51-14.78,1.47-.72,2.99-1.31,4.48-1.99,30.05-13.88,60.81-23.42,93.35-29.65Z"/>
  <path class="st4" d="M1057.12,473.22c3.16-.65,6.35-1.25,9.6-1.16,3.28.1,6.8.62,9.26,2.95l-.5,2.28c-17.63,11.1-74,13.24-97.2,18.46-2.82.83-5.82,1.79-8.72,2.33-2.3.43-6.17.19-8.03-1.42-.96-.83-.69-.95-.76-2.25,3.72-3.81,9.81-4.97,14.81-6.12,6.39-1.47,12.93-3.19,19.37-4.43,5.81-1.12,11.64-2.4,17.46-3.45,14.87-2.69,29.75-5.11,44.72-7.2Z"/>
  <path class="st0" d="M359.35,1756.71c16.22-8.33,26.94-7.62,21.85,13.97-.44,1.87-.85,3.75-1.23,5.64-23.54,19.05-46.08,2.72-20.62-19.61Z"/>
  <path class="st1" d="M359.35,1756.71c16.22-8.33,26.94-7.62,21.85,13.97-.44,1.87-.85,3.75-1.23,5.64-6.92-6.89-13.69-12.79-20.62-19.61Z"/>
  <path class="st4" d="M1828.84,345.02c-1.76-11.35-1.38-81.54.97-87.62l2.99-1.11c10.38,5.38,4.9,60.04,4.17,69.23-3.57,9.84-1.77,10.47-8.12,19.5Z"/>
  <path class="st4" d="M1670.12,125.65c-7.82,1.87-90.64-17.69-93.43-22.86-.02-.39-.05-.78-.07-1.17,13.4-4.34,50.81,6.59,64.11,10.53l7.26,2.03c11.16,2.48,13.81,4.3,22.13,11.47Z"/>
  <path class="st1" d="M1345.97,874.66c1.3-.51,4.8-2.37,6.9-2.05.75.12,1.75.59,2.06,1.35.9,2.17.61,3.45-.32,5.54-2.36,5.32-4.89,9.83-5.39,15.69-.3,3.51-.28,8.11-2.74,11-1.61,1.9-4.7,1.82-6.9,2.11-2.96-3.32-21.16-19.7-21.76-23.68-.12-.83.14-1.49.61-2.16,1.4-1.98,5.63-2.58,7.8-2.73,4.49-.31,8.87-.19,13.08-2.03,2.23-.98,4.44-2.02,6.66-3.04Z"/>
  <path class="st2" d="M668.11,1773.18c4.24,1.41,8.15,2.67,12.54,3.41,2.44.42,4.75.59,7.01,1.75,1.23.63,1.65,1.15,1.99,2.46-.53,1.67-1.28,2.3-2.94,3.02-1.18.52-5.14,1.49-6.18,3.02-1.03,1.51-1.07,2.23-.58,4.04.95,3.5,5.24,7.44,8.27,9.28,1.56.95,4.05,1.89,4.81,3.68-1.19,1.25-.31.48-3.15,1.6-2.2,1.03-9.81,3.54-10.68,7.08-.44,1.8-.68,3.65-1.25,5.41-1.28.91-1.19,1.25-2.98.65-2.09-.69-2.46-.8-3.13-2.49-.51-1.29-.18-3.37.35-4.61.96-2.28,2.18-4.48,2.73-6.89-.87-2.64-1.76-4-3.79-5.98-1.78-1.73-4.35-3.69-5.91-5.84-2.09-2.87-1.75-5.04-.73-8.25.52-1.61,1.18-3.18,1.69-4.8.69-2.16,1.29-4.36,1.94-6.54Z"/>
  <path class="st2" d="M522.86,1792.28c-32.77,11.18-82.73-17.73-1.88-13.08l1.88,13.08Z"/>
  <path class="st0" d="M1319.02,959.07c3.83,4.33,6.23,7.82,8.71,13.07,1.02,2.15,1.93,4.34,2.94,6.49.95,2.02,1.42,3.14,3.57,3.77.63.18,1.29.25,1.9.49,2.65,1.07,2.01.74,2.89,3.18-1.01,1.85-.67,1.44-2.11,3.2-.81.99-1.67,1.95-2.49,2.94l-4.62,5.69c-6.16-3.25-17.61-8.72-20.73-15.54-.7-1.54-.15-3.72.73-5.08,2.84-4.4,2.48-3.35,5.21-8.63,1.54-2.99,2.69-6.47,4.01-9.59Z"/>
  <path class="st18" d="M1306.25,1020.17c7.08-8.87,4.82-7.32,14.93-6.78,9.79.53-4.17-17.74,15.12-14.34,7.53,1.21,6.49,11.52,5.32,16.36-10.16,7.93-10.97,1.08-18.77,15.63l-16.61-10.88Z"/>
  <path class="st0" d="M855.43,1444.88c.9,1.57,1.94,3.07,2.67,4.72,5.34,12.05-.57,22.84-5.74,33.39l-2.85-1.21c-2.37-.98-3.9-1.3-5.77-2.6-2.66-1.87-4.29-4.89-4.39-8.14-.33-8.64,7.08-13.76,11.67-20.03l4.41-6.13Z"/>
  <path class="st11" d="M170.4,1656.88c1.62,1.14,3.27,2.24,4.85,3.43,2.84,2.14,3.64,6.85,3.8,10.17.82,16.26,2.85,31.95,2.83,48.3-1.38-1.03-2.78-2.02-4.13-3.09-2.67-2.1-3.53-6.74-3.77-9.91-1.22-16.44-3.16-32.34-3.59-48.9Z"/>
  <path class="st1" d="M924.22,1370.45c1.18.37,2.35.76,3.53,1.12,4.83,1.46,7.53,2.28,10.49,6.55.65.94,1.25,1.91,1.9,2.86,2.59,3.8,7.18,10.3,12.12,10.72,2,.17,4.01.21,6.01.31.55.47,1.43.79,1.55,1.49l-3.69,2.95c-2.98,1.56-11.28,7.51-15.05,6.12-1.18-.43-2.32-2.2-2.94-3.17-2.02-3.19-3.87-6.66-6.38-9.52-3.39-3.86-6.88-7.32-7.25-12.76-.04-.56-.01-1.12-.04-1.69l-.26-4.99Z"/>
  <path class="st2" d="M1179.55,1091.58c2.17.14,4.34.31,6.52.43,3.51.19,7.21-.01,10.57,1.23,7.2,2.65,11.57,12.9,14.66,18.99-3.18-.01-6.36-.05-9.53,0-4.79.06-13.84,1.54-18.12-2.08-4.2-3.55-3.72-14.07-4.09-18.56Z"/>
  <path class="st0" d="M1156.96,1109.34c1.15.47,2.29.95,3.44,1.41,2.41.95,4.84,1.83,7.23,2.79,2.27.91,5.61,2.8,6.14,5.41.71,3.44-1.4,7.16-3.06,10.01-.56.96-1.16,1.89-1.71,2.85l-3.25,5.62c-4.8-2.96-9.98-5.74-14.05-9.72-1.92-1.88-4.1-4.81-3.8-7.68.48-4.64,5.95-7.98,9.05-10.69Z"/>
  <path class="st0" d="M247.27,1827.72c3.42,1.61,7.46,3.18,10.62,5.47,2.66,1.94,5.28,4.58,5.33,8.1.05,3.55-2.25,6.71-4.89,8.86-.41.34-.86.62-1.27.96-1.21.97-2.39,1.96-3.59,2.94-.61-.02-3.6-.08-4.5-.27-3.01-.62-6.47-2.6-7.82-5.48-1.69-3.62-.29-7.46,1.35-10.81.8-1.64,1.7-3.24,2.51-4.89.79-1.61,1.51-3.25,2.27-4.88Z"/>
  <path class="st2" d="M392.99,1785.59c7.29,4.69,10.83,7.24,13.32,15.64.35,1.18.61,2.38.93,3.56.94,3.47.64,3.71-.22,7.45-4.52-.03-9.33.24-13.79-.56-2.42-.43-4.72-1.23-5.91-3.58-1.31-2.58-.13-6.5.81-9.01,1.69-4.52,3.35-8.93,4.88-13.5Z"/>
  <path class="st2" d="M1132.84,1161.21c6.57.63,13.55.73,19.36,4.3,6.31,3.89,7.32,10.31,8.94,17.03-.55.09-1.1.17-1.65.26-5.38.95-8.29,1.59-13.35-.55-5.24-2.2-9.19-6.16-10.83-11.64-.24-.8-.37-1.62-.58-2.42l-1.88-6.99Z"/>
  <path class="st2" d="M308.38,1811.67c4.78,2.09,8.69,3.47,12.53,6.97,1.97,1.8,3.7,4.36,3.52,7.14-.17,2.6-1.63,4.73-3.6,6.32-.45.36-.93.67-1.4,1.02l-3.93,3.02c-3.62-1.5-7.29-2.88-10.81-4.59-2.27-1.1-5.74-2.98-6.2-5.85-.39-2.43,1.41-5.06,2.94-6.77,1.14-1.28,2.4-2.45,3.59-3.69l3.37-3.58Z"/>
  <path class="st2" d="M1225.77,891.96c3.49-1.86,7.75-1.44,10.81,1.07,3.06,2.51,4.31,6.6,3.18,10.38-1.14,3.79-4.43,6.52-8.36,6.93-4.66.49-9.01-2.39-10.38-6.87-1.37-4.48.62-9.31,4.76-11.51Z"/>
  <path class="st2" d="M289.38,1661.38c2.75-2.36,6.59-2.99,9.95-1.62,3.36,1.37,5.67,4.5,5.99,8.12.32,3.61-1.41,7.09-4.48,9.03-4.29,2.7-9.93,1.63-12.94-2.44-3.01-4.08-2.36-9.78,1.49-13.08Z"/>
  <path class="st0" d="M1196.73,1134.27c.64.11,1.28.24,1.92.34,3.08.5,6.83.67,9.78,2.09,1.85.9,3.26,2.13,3.74,4.21,1.35,5.9-4.86,14.48-7.5,19.21-.43-.44-.86-.89-1.3-1.33-1.36-1.34-2.76-2.65-4.11-4.01-2.42-2.44-3.4-5.53-3.1-8.93.15-1.68.43-3.35.52-5.03.11-2.19.03-4.38.05-6.57Z"/>
  <path class="st1" d="M1322.86,1031.05c-.54,2.72-.38,5.79-2.3,7.77.74-.23-32.27-4.46-23.5-20.61l1.44.3c3,4.45.97,3.87,2.39,7.16l.84.14,2.79-2.5-2.55,1.52.5-1.47,3.12-1.4c-.06-1.21-.23-.61.66-1.79l16.61,10.88Z"/>
  <path class="st2" d="M251.04,1881.02c.47.3.94.61,1.42.9,3.04,1.87,8.37,4.22,9.26,8.29.47,2.16-.71,4.66-1.83,6.41-.73,1.14-1.55,2.21-2.3,3.32l-3.16,4.79c-1.56-1.13-3.1-2.28-4.68-3.39-1.67-1.17-3.43-2.2-5.03-3.47-1.8-1.42-3.97-3.44-3.81-5.97.18-2.73,2.55-4.98,4.54-6.55.48-.38.98-.72,1.46-1.09l4.12-3.25Z"/>
  <path class="st1" d="M572.69,1576.1c2.68-2.32,6.46-2.89,9.71-1.47,3.25,1.42,5.4,4.57,5.52,8.12.12,3.54-1.79,6.84-4.93,8.49-4.15,2.17-9.26.89-11.89-2.98-2.63-3.87-1.95-9.1,1.59-12.16Z"/>
  <path class="st2" d="M614.65,1518.23c4-.78,8.03,1.21,9.84,4.87,1.81,3.65.95,8.06-2.1,10.77-2.85,2.53-6.98,3-10.33,1.18-3.35-1.83-5.19-5.55-4.61-9.32.58-3.77,3.46-6.76,7.2-7.5Z"/>
  <path class="st1" d="M873.9,1289.45c4.45,1.19,7.24,5.59,6.43,10.12-.81,4.53-4.95,7.69-9.53,7.28-3.34-.3-6.22-2.46-7.45-5.58-1.23-3.12-.6-6.66,1.64-9.16,2.23-2.5,5.69-3.53,8.92-2.66Z"/>
  <path class="st2" d="M409.07,1776.77c2.11-2.48,5.42-3.6,8.61-2.91,3.18.69,5.73,3.07,6.63,6.21.9,3.13,0,6.51-2.32,8.78-3.39,3.3-8.77,3.36-12.22.13-3.46-3.23-3.76-8.6-.69-12.2Z"/>
  <path class="st2" d="M274.46,1808.36c.71-.43,4.24-3.05,6.02-3.01.74.02.71.19,1.06.69.03,2.86-1.92,4.82-3.46,7.13-1.6.55-3.19,1.14-4.81,1.66-.88.28-3.02.71-3.82-.07-.31-.3-.38-.65-.26-1.07.67-2.28,3.86-4.19,5.26-5.33Z"/>
  <path class="st1" d="M742.4,1355.73c1.97.22,3.94.47,5.92.67,2.69.27,5.71.21,8.27,1.33,1.02.45,1.86,1.2,1.96,2.37.23,2.75-3.83,5.66-5.1,6.9-2.07.9-2.8,1.49-4.78,1.7-1.11.12-2.42-.5-3.19-1.24-2.69-2.57-2.71-8.76-3.07-11.73Z"/>
  <path class="st2" d="M652.44,1625.07c.78-.5,3.85-3.06,5.55-2.61.67.17,1.02.51,1.35,1.18.88,1.74.07,5.47-.11,6.94-.83.51-4.29,3.24-6.11,2.77-.56-.14-.93-.48-1.19-1.03-.89-1.83.24-5.77.5-7.24Z"/>
  <path class="st1" d="M368.65,1557.82c1.24-.28,2.81-.73,4.12-.67,1.25.05,1.82.27,2.58,1.18,1.05,1.25-.28,4.48-.48,5.3-2.22.61-7.83,2.72-10.77,1.99-.44-.11-.89-.38-1.02-.83-.27-.95.71-2.21,1.25-2.82.37-.42.81-.75,1.22-1.13l3.12-3Z"/>
  <path class="st1" d="M1770.91,489.23c2.47-.82,3.92-1.76,6.34-1.13.65.62.78.5.7,1.54-.09,1.31-2.64,4-2.91,4.35-1.27.45-5.56,2.56-7.61,1.75-.47-.19-.45-.34-.66-.76.11-2.45,2.65-4.22,4.14-5.76Z"/>
  <path class="st1" d="M347.09,1740.08c1.37-1.26,3.98-4.39,6.4-4.52,1.35-.07,1.18.1,2.14.95.88,2.46.05,3.82-.65,6.51-1.3.92-3.23,2.63-4.83,3.08-.69.2-1.37.17-1.9-.35-1.17-1.15-1.07-4.66-1.16-5.67Z"/>
  <path class="st1" d="M451.37,1563.75c1-.27,1.98-.6,2.99-.8.72-.15.69-.12,1.04.14.05,1.38-1.27,2.99-1.84,3.98-1.07.04-3.33.37-4.38-.05l-.12-.31c.75-1.63.16-.53,2.3-2.95Z"/>
  <path class="st1" d="M1515.56,806.89c1.4-.35,3.1-1.25,4.54-.6-.07,1.2.08.83-.61,2-.21.36-.47.69-.69,1.04-.54.92-1.06,1.85-1.59,2.77-1.56.01-4.21.54-5.76-.5.49-1.92,2.92-3.56,4.1-4.71Z"/>
</svg>