<?xml version="1.0" encoding="UTF-8"?>
<svg id="Layer_1" xmlns="http://www.w3.org/2000/svg" xmlns:xlink="http://www.w3.org/1999/xlink" version="1.1" viewBox="0 0 2048 2048">
  <!-- Generator: Adobe Illustrator 30.3.0, SVG Export Plug-In . SVG Version: 2.1.3 Build 182)  -->
  <defs>
    <style>
      .st0 {
        fill: none;
      }

      .st1 {
        fill: #fb6529;
      }

      .st2 {
        fill: #c3bdb5;
      }

      .st3 {
        fill: #484947;
      }

      .st4 {
        fill: #ecddca;
      }

      .st5 {
        fill: url(#linear-gradient);
      }

      .st6 {
        fill: #101b1d;
      }

      .st7 {
        fill: #383430;
      }

      .st8 {
        fill: #020202;
      }

      .st9 {
        fill: #efe5da;
      }

      .st10 {
        fill: #dd6e56;
      }

      .st11 {
        fill: #f5f4ee;
      }

      .st12 {
        fill: #e9e9e9;
      }

      .st13 {
        fill: #948f8a;
      }

      .st14 {
        fill: #81392e;
      }

      .st15 {
        fill: #028796;
      }

      .st16 {
        fill: #490f0e;
      }

      .st17 {
        font-family: PaleMartini, 'Pale Martini';
        font-size: 124.98px;
        letter-spacing: .07em;
      }

      .st18 {
        fill: #615b54;
      }

      .st19 {
        fill: #fbc170;
      }

      .st20 {
        fill: #aaaaa6;
      }

      .st21 {
        fill: #0e0907;
      }

      .st22 {
        fill: #787877;
      }

      .st23 {
        fill: #cac9c5;
      }
    </style>
    <linearGradient id="linear-gradient" x1="1015.73" y1="1616.13" x2="1037.23" y2="1733.11" gradientTransform="translate(0 2048) scale(1 -1)" gradientUnits="userSpaceOnUse">
      <stop offset="0" stop-color="#9daaab"/>
      <stop offset="1" stop-color="#c8c7c1"/>
    </linearGradient>
  </defs>
  <path class="st15" d="M1760.51,390.15c-1.56-60.38-65.4-98.63-119.38-71.53l-794.01,398.56L102.35,534.63c-73.48-18.01-130.38,64.2-87.64,126.62l231.71,338.49c9.53,13.92,14.55,30.42,14.41,47.28l-3.97,456.16c-.53,60.4,61.94,100.84,116.84,75.63l830.32-381.4,744.44,155.36c74.06,15.46,128.08-68.67,83.21-129.58l-243.29-330.26c-10-13.58-15.6-29.9-16.04-46.75l-11.82-456.02Z"/>
  <g>
    <path class="st9" d="M1355.21,1242.5c-11.61-2.28-6.73.65-15.62-7.05.51-35.42,28.92-56.16,14.64-91.7-5.9-14.63,7.24-48.54,12.32-64.11l-3.78-9.33c-10.23-1.43-7.32,0-15.03-5.95.35-7.99.47-15.2.51-23.23-8.93.94-4.56,1.39-13.22-1.38-4.05-16.34,21.17-72.13,28.92-91.53l-6.57-3.99c-4.33,3.91-1.5,2.12-9.17,3.83-4.33-20.26,30.02-116.19,38.13-141.78l-5.15-1.02c-5.27,1.22-1.85.73-10.43,0-2.72-11.13,5.04-25.96,9.56-37.58-6.22-1.18-7.67-2-13.1-1.39-.87-9.37,1.22-20.38-1.77-29.59-13.18-40.35,21.44-91.94,14.2-118.23-24.36-7.25.63,5.14-22.94,8.68-18.14-26.16-1.02-4.44-7.59-26.9-6.34-1.96-12.75-3.75-19.2-5.38-9.76,5.3-15.15,8.03-24.04,14.67-25.34,15.81-308.73,18.5-355.48,18.54-85.15.12-349.02-18.3-410.8-70.55l-5.43,1.79c-3.34,39.94.98,153.48.67,200.67l.47,609.84c10.7,22.66,22.43,50.17,32.78,73.56,17.82-30.44,42.97-78.57,62.96-105.92,2.16-4.85,3.42-7.5,6.49-11.86h.08c19.95-22.13,1.38,77.11-.04,83.22-.47,14.67-3.46,32.4-5.23,47.44,43.48-24.21,91.72-53.43,134.81-75.68-27.15,37.33-70.91,86.81-102.19,123.4,21.01,3.59,42.06,6.68,63.19,9.37,3.15.41,5.43,1.06,8.42,1.87l71.62,8.44c-24.32,8.76-52.02,18.34-76.81,25.1-22.04,7.7-45.92,14.79-68.35,21.44,41.91,37.17,73.46,63.05,111.99,104.94l-137.09-52.33c4.33,16.46,8.74,32.85,13.69,49.15,67.56,16.3,119.66,25.72,188.84,34.64,163.85,17.16,271.15,11.08,429.41-26.69,10.43-23.6,22.27-47.27,32.94-70.95-62.41,17.24-85.39,31.67-143.27,52.65,35.89-43.52,69.06-66.59,110.77-103.03-56.11-16.46-86.37-26.94-141.42-48.66,37.89-6.89,108.13-10.39,138.94-19.81-32.27-37.05-70.55-77.96-100.58-115.99,49.07,19.97,85.51,44.54,133.71,67.49-3.11-17.44-6.65-26.9-6.61-44.46-4.76-24.25-6.53-75.15-7.79-101.36,7.16,12.1,17,28.49,21.72,41.81,11.65,19.93,29.83,56.61,41.43,73.28,1.14-5.22.47-6.6,5.15-8.88l6.18-6.36c-30.57-39.98,3.03-26.78,3.07-71.69l-11.21-8.97c-3.93-11.09,10.31-54.65,14.32-69.73l-12-2.81ZM553.87,989.54c-1.22-13.98-1.77-27.43-1.93-41.45,2.05.9,5.82,1.92,7.63,3.95,8.03,9.13,2.99,55.34,1.46,67.81-.98-.73-2.01-1.39-2.95-2.2-5.15-4.4-3.7-22.17-4.21-28.12ZM566.58,1168.25c-7.67-6.72-6.06-52.49-7.48-65.12.43.24.91.49,1.34.73.87.41,4.17,1.87,5.51,2.97,8.3,6.81,7.04,53.22,7.52,63.33-.83-.16-5.43-.65-6.89-1.92ZM588.18,1046.19c-8.42-8.92-5.43-36.39-4.84-47.68,4.8,4.16,7.08,6.24,7.67,13.2.28,3.42.39,6.85.83,10.27,1.22,9.74,2.28,19.07,2.83,28.89-2.2-1.51-4.64-2.73-6.49-4.69ZM612.89,1083.89c-.87-.2-1.73-.33-2.6-.57-1.1-.29-.94-.29-1.38-1.02.2-2.08,0-.81.98-3.75,1.77-.24,4.33-1.1,6.14-.16-.08,2.12-2.09,3.99-3.15,5.5Z"/>
    <path class="st9" d="M616.91,1605.2c4.57,17.36,9.21,34.63,14.43,51.82-48.46-13.37-73.02-18.92-119.44-46.42-5.53-84.87-4.57-186.62-3.19-272.18,11.28,23.89,23.64,52.89,34.55,77.56,18.8-32.11,45.31-82.86,66.39-111.68,12.28,20.37,4.69,49.2,6.89,75.24-.5,15.47-3.65,34.16-5.51,50.02,45.85-25.53,96.71-56.34,142.15-79.8-28.63,39.36-74.77,91.52-107.75,130.11,22.15,3.77,44.35,7.04,66.63,9.88,3.32.43,5.73,1.12,8.89,1.98,3.48,13.32,7.47,9.88,10.62,17.02-1.16,2.36-13.32,14.99-16.1,18.35-23.23,8.12-48.42,15.59-72.07,22.6,44.19,39.19,77.47,66.48,118.08,110.66l-144.55-55.18Z"/>
    <path class="st9" d="M1387.34,1472.75c-11.91,25.14-27.59,51.39-23.07,78.03h0s2.13.51,2.13.51l18.32,4.28h.01c-.32.56-.64,1.13-.98,1.7,0,0-.01,0,0,.01-.3.5-.59,1-.89,1.51-.08.16-.18.32-.26.47-.31.51-.6,1.02-.91,1.54-2.47,4.21-5.12,8.68-7.74,13.31-.57.99-1.13,1.99-1.68,2.99-.56,1-1.11,2.01-1.64,3.03-.37.67-.73,1.35-1.08,2.02-2.9,5.54-5.56,11.19-7.58,16.78-.22.59-.43,1.18-.63,1.77-1.31,3.82-2.31,7.6-2.88,11.29-.08.57-.17,1.14-.23,1.71-.33,2.74-.41,5.43-.18,8.03h0s2.15,6.89,2.15,6.89c-13.64,7.04-63.93,32.01-76.96,36.78,11-24.87,23.48-49.84,34.73-74.81-65.81,18.18-90.04,33.39-151.07,55.51,37.83-45.89,72.81-70.21,116.79-108.63-59.16-17.37-91.07-28.41-149.11-51.31,39.96-7.26,114.01-10.96,146.5-20.89-34.02-39.06-74.39-82.2-106.04-122.29,51.74,21.06,90.15,46.96,140.99,71.15-3.28-18.39-7.01-28.35-6.97-46.88,2.82-24.66-4.24-50.53,14.69-62.78,12.27,21.01,31.44,59.69,43.68,77.27,7.3,26.98,13.06,17.79,23.52-.04,6.14-15.09,5.89-15.05,16.39-26.25-8.38,31.75-24.27,61.4-35.14,95.87h0c-2.54,8.22-1.83,12.19,1.12,14.84.72.64,1.56,1.21,2.53,1.73.58.32,1.19.62,1.86.91.3.14.59.26.89.4.62.26,1.29.53,1.97.8.33.13.66.25,1,.39.45.18.91.37,1.38.55,1.39.55,2.86,1.14,4.41,1.82Z"/>
    <path class="st12" d="M1390.95,1381.7c-10.46,17.83-16.23,27.02-23.52.04,1.2-5.5.5-6.97,5.43-9.37,6.15,3.1,12.12,5.98,18.09,9.33Z"/>
    <path class="st9" d="M715.45,1527.12c2.78-3.35,14.94-15.98,16.1-18.35-3.15-7.14-7.14-3.7-10.62-17.02l75.51,8.89c-25.64,9.24-54.85,19.34-80.99,26.48Z"/>
    <path class="st9" d="M1323.74,1304.48c-18.93,12.25-11.87,38.12-14.69,62.78-5.03-25.57-6.9-79.24-8.22-106.86,7.56,12.76,17.92,30.03,22.91,44.08Z"/>
    <path class="st9" d="M616.53,1379.55c-2.19-26.04,5.4-54.87-6.89-75.24,2.29-5.11,3.61-7.91,6.84-12.51h.08c21.04-23.33,1.46,81.3-.04,87.75Z"/>
    <path class="st23" d="M498.73,1607.27c-4.41,11.53-8.8,20.64-3.42,33.17,14.35,33.47,54.83,49.44,85.67,62.12,88.02,35.99,183.9,47.52,277.55,56.19,62.26,5.76,131.14,9.14,193.33,2.66,68.8-7.17,183.51-9.35,241.48-46.6-5.95-4.78-6.51-3.99-7.56-11.24,26.49-14.66,53.34-28.6,80.53-41.82l-3.07-11.25c-133.95,69.93-403.46,72.66-550.77,52.59-71.62-5.56-276.69-37.53-313.73-95.81Z"/>
    <path class="st8" d="M1630.39,1658.56c-7.65,1.43-30.05,5.59-31.92,1.34-10.71-24.39-10.11,1.15-25.47.31-5.83-.32-18.5-2.76-25.31-1.44-5.09.25-32.23-3.45-22.4,19.76.55,1.3,12.14,3.82,14.64,4.52l22.94-1.25c29.83,5.1,54.43,1.34,83.33-2.81,1.34-10.72,5.22-10.36,14.54-16.73-13.08-4.2-16.44-5.23-30.36-3.72Z"/>
    <path class="st21" d="M1641.25,1626.09c-1.33-3.37.71-3.71,2.81-7.02-26.61,2.77-21.35,3.19-43.98,8.07,1.33,7.71,3.43,15.16,2.08,23.03.89,2.28,1.21,1.71,4.45,3.15,27.37-6.39,49.49-10.4,77.31-17.91l-1.01-3.25c-11.95-3.35-14.42-7.22-25.25-13.8-3.87,5.73-8.6,11.88-16.41,7.74Z"/>
    <path class="st2" d="M1630.39,1658.56c13.92-1.52,17.28-.48,30.36,3.72,10.51-8,15.8-16.08,23.17-26.88-27.82,7.51-49.94,11.52-77.31,17.91l23.78,5.26Z"/>
    <path class="st13" d="M1641.25,1626.09c7.81,4.14,12.54-2.01,16.41-7.74-7.76-2.19-7.03-2.85-13.6.72-2.1,3.31-4.14,3.65-2.81,7.02Z"/>
    <path class="st18" d="M1539.93,1683.07c-2.5-.71-14.09-3.22-14.64-4.52-9.82-23.21,17.31-19.51,22.4-19.76,6.81-1.32,19.48,1.11,25.31,1.44,15.36.84,14.76-24.7,25.47-.31,1.87,4.25,24.27.09,31.92-1.34l-23.78-5.26c-3.24-1.44-3.56-.87-4.45-3.15,1.35-7.86-.75-15.32-2.08-23.03-17.7,2.57-13.24.22-14.61,14.5-7.68-2.67-8.29-12.61-20.38-1.44-4.82,4.45-14.29,2.45-17.12-2.22-10.13-5.86-3.73,11.77-18.57,9.02-2-1.62-4-3.24-6.01-4.86-19.9,31.26-7.07,9.91-27.94,22.22.43,1.71.85,3.41,1.27,5.12,6.34,10.37,7.89,7.52,14.89,15.73,15.91-.37,11.36,7.47,28.33-2.13Z"/>
    <path class="st21" d="M1358.04,1621.73c33.2-25.83,32.2-54.35,53.09-84.52,1.7,2.62,3.39,5.23,5.09,7.85,7.7-14.43-3.35-12.93-14.85-21.35-5.7,10.6-11.06,21.2-16.65,31.84-10.82,19.02-28.5,45.25-26.68,66.18Z"/>
    <path class="st14" d="M1358.04,1621.73l2.17,6.88c26.06-18.72,43.91-53.73,56.01-83.55-1.7-2.62-3.39-5.23-5.09-7.85-20.89,30.18-19.89,58.69-53.09,84.52Z"/>
    <path class="st10" d="M1401.38,1523.71c4.84-11.22,8.03-21.79,12.92-32.91l-5.25-6.76c-10.36,19.96-28.24,51.86-44.78,66.76l20.46,4.76c5.59-10.63,10.95-21.24,16.65-31.84Z"/>
    <path class="st21" d="M1346.55,521.28c-10.29,5.59-15.97,8.47-25.36,15.47-8.09-.99-33.73.08-36.8-11.64,1.74-4.95,15.56-9.15,18.84-7.1,5.35,3.4,4.1,19.94,18.34,12.07l.37-1.33c-1.37-3.17-4.23-4.77-4.52-8.2,4.4-9.93,24.78-23.04,29.13.73Z"/>
    <path class="st14" d="M1387.34,1472.75c4.5-5.39,43.56-68.08,32.42-73.64-8.21,3.5-40.84,98.19-47.58,52.22-5,16.17,2.58,15.88,15.16,21.42Z"/>
    <path class="st9" d="M1407.33,1355.45c-10.49,11.21-10.25,11.17-16.39,26.25-5.98-3.35-11.95-6.23-18.09-9.33l6.52-6.71c12.37,3.66,19.21-22.72,25.77-28.83,19.71-18.3,6.72,10.79,2.19,18.61Z"/>
    <path class="st20" d="M1410.7,1613.3s-40.98,32.45-47.46,37.19l3.07,11.25c5.87-4.03,55.73-37.34,44.39-48.44Z"/>
    <path class="st20" d="M1410.24,796.17c-6.89,38.24-16.93,61.96-27.8,97.67l-6.93-4.21c8.42-32.53,21.87-62.78,34.73-93.46Z"/>
    <path class="st18" d="M1370.55,1676.03l-.19-.31-.66-.09.38-1.51c-6.31,1.44-41.52,15.07-45.03,19.28l2.09,8.01c9.79-4.61,38.54-15.34,43.41-25.38Z"/>
    <path class="st23" d="M1404.84,1146.39c-6.47,28.27-9.87,34.29-18.96,60.71l-12.65-2.96c13.28-20.07,20.95-36.4,31.61-57.75Z"/>
    <path class="st18" d="M1399.7,703.48c-6.55-1.25-8.09-2.11-13.81-1.47,16.77-14.31,13.65-35.84,21.57-42.59,6.6,3.95-6.18,37.64-7.76,44.05Z"/>
    <path class="st13" d="M1293.34,1714.8c11.26-4.92,22.09-9.73,33.79-13.39l-2.09-8.01c-15.92,5.61-23.04,8.68-39.27,10.16,1.05,7.25,1.61,6.46,7.56,11.24Z"/>
    <path class="st22" d="M1385.18,1032.43l-3.99-9.84c1.54-9.63,2.29-17.24,5.48-26.39l-.92,3.27,2.78-6.58c.66-.25,1.29-.51,1.95-.77,6.76,2.54-3.73,34.72-5.31,40.31Z"/>
    <path class="st18" d="M1406.04,744.17l-5.43-1.08c17.05-47.01,23.11-29.09,5.43,1.08Z"/>
    <path class="st16" d="M1420.35,1456.29c-4.83-.27-6.32,9.44-7.3,12.59l7.84,10.4c1.02-5.72,4.71-17.91-.54-22.99Z"/>
    <path class="st21" d="M1487.88,1678.57c6.43-1.28,5.98-3.05,8.83-9.1-7.97,1.83-9.54.6-8.83,9.1Z"/>
    <path class="st14" d="M1420.89,1479.29l-7.84-10.4c-1.45,5.09-2.69,10.03-4,15.15l5.25,6.76c2.22-3.82,4.42-7.66,6.59-11.51Z"/>
    <path class="st18" d="M1408.62,593.48c-1.62,12.22-14.49,33.96-12.7,43.26,1.72,1.47.51.58,3.98,2.07,3.2-7.02,5.23-12.52,7.49-19.95,1.36-4.47,2.93-8.54,4.49-12.9,1.62-4.52,1.85-9.45,2.56-14.15.37-2.44.88-4.86,1.25-7.3.9-5.99.33-9.77-.76-15.81-3.13,8.6-5.11,15.6-6.32,24.78Z"/>
    <path class="st6" d="M1404.5,902.73c3.75-9.78,6.92-19.79,10.1-29.78,2.8-8.81,2.74-12.34-.02-20.85-5.81,17.09-17.38,32.93-10.08,50.63Z"/>
    <path class="st6" d="M1640.58,1563.33c-3.53-1.5-7.98-1.04-11.71-.85-1.24.06-2.48.01-3.71.12-2.13.18-4.04,1.16-6,1.96.32,1.7.35,5.48,2.44,6.6,3.27,1.76,8.5-.09,11.78-.73,3.37-.65.69.03,4.65-.18,1.63-.09,3.8-1.07,5.14-1.55-.46-1.66-.64-4.54-2.59-5.38Z"/>
    <path class="st18" d="M1109.76,1766.7c3.48,4.69,4.9,6.57,10.83,7.12,7.92.73,16.43-2.4,23.82-4.78-.28-1.84-.02-3.03-1.13-4.3-3.03-3.42-29.65,1.45-33.52,1.96Z"/>
    <path class="st3" d="M1394.7,1068.86c.92,1.99,1.93,3.94,2.9,5.91,1.93-7.48,4.15-14.57,6.62-21.87,2.42-7.18.95-9.67-2.02-16.6-2.61,7.71-11.3,24.35-7.49,32.56Z"/>
    <path class="st13" d="M1360.43,1736.62c-6.63.48-14.57,5.13-21.14,7.71,12.24,5.23,15.1,10.72,22.94-.77-.58-6.72.23-4.64-1.8-6.94Z"/>
    <path class="st7" d="M1330.5,1751.77c8.17,2.72,6.8.49,8.78-7.44-7.81.5-9.78-1.13-8.78,7.44Z"/>
    <path class="st22" d="M1380.12,1741.45c-.73.33-1.13.86-1.65,1.43l-.03.52c.92.26,1.9-.15,2.66-.74,1.16-.91,2.25-1.93,3.37-2.9-.13.06-.27.12-.4.18-1.31.5-2.66.93-3.94,1.51Z"/>
    <path class="st22" d="M1384.46,1739.76c.17-.08.35-.16.52-.24-.09,0-.17,0-.26.01-.09.08-.17.15-.26.23Z"/>
    <path class="st22" d="M1391.34,1736.73c-2.16.83-4.25,1.84-6.36,2.79,2.23-.11,4.46-.15,6.68-.36,1.71-.16,3.13-.79,4.37-1.96l-.09-.55c-1.35-.62-3.24-.44-4.6.09Z"/>
    <path class="st3" d="M1377.87,496.23c-.08.35-1.83,5.83-1.27,7.62,1.61-.98,4.26-5.63,4.56-6.08.78-1.35,1.65-2.67,2.22-4.13l-.11-.44c-1.57.31-4.1,2.23-5.41,3.03Z"/>
    <path class="st18" d="M1419.57,770.86c-.92-.53-1.92-.91-2.87-1.37-1.48,2.69-4.67,6.91-3.38,10.46.55,1.53,1.93,2.37,3.1,3.34,1.34-1.93,5.1-6.15,5.02-9.34-.03-1.35-.76-2.44-1.88-3.09Z"/>
    <path class="st21" d="M1440.24,1713.76c-.9.16-1.76.46-2.64.7-.17.9-.31,1.8-.5,2.7-.11.51-.31,1-.41,1.52-.28,1.5-.37,1.13.22,1.96,1.42-.14.5.04,2.6-1.08.33-.88.65-1.77.98-2.64.25-.66.52-1.32.78-1.98l-.11-.95c-.32-.23-.39-.34-.92-.24Z"/>
    <path class="st21" d="M1422.61,1653.7c-.93.19-1.83.52-2.75.77.1,1.04.05,4.01,1.15,5.03.54.5,1.97,1.04,2.6,1.31.1-1.08.17-2.16.29-3.23.05-.41.17-.8.21-1.21.15-1.26.13-.98-.13-2.05-.51-.47-.61-.77-1.37-.62Z"/>
    <path class="st22" d="M1316.16,1730.39l-.72,1.33.17.54c1.52.5.57.26,2.89.52.37-1.98.56-1.25.19-2.26-1.15-.46-.33-.21-2.53-.13Z"/>
    <path class="st6" d="M1414.02,1083.05c-1.45,2.08-1.17,1.13-1.46,2.57.66,1.28.12.46,2.25,1.89.27-1.05.85-2.15.56-3.27-.16-.59-1-.95-1.35-1.18Z"/>
    <path class="st3" d="M1686.35,1567.48c-1.11,1.34-1.04.69-.97,1.72,1.33.56.49.27,2.58.66.44-1.96.59-1.23.28-2.23-.83-.42-.24-.19-1.89-.14Z"/>
    <path class="st23" d="M1452.65,413.23c.08-13.85-7.1-24.35-16.95-32.81-110.37-94.83-549.68-84.34-697.32-65.29-58.5,7.55-208.64,30.58-245.86,78.26-5.14,6.58-8.56,15.75-6.82,24.18,3.48,16.87,18,27.55,31.8,35.44,68.68,39.27,220.53,56.08,299.61,62.16,37.34,2.87,75.87,1.42,112.85,6.78,43.85-3.89,88.57,1.26,132.86-1.88,127.81-9.06,256.74-13.05,371.71-77.5,8.19-8.27,18.04-16.46,18.11-29.34ZM1391.03,442.65c-186.85,90.31-611.89,74.46-800.87,21.48-11.12-3.15-22.12-6.74-32.97-10.77-27.56-6.62-37.17-12.3-44.71-40.31,108.32-127.99,864.6-128.34,904.2-4.34-3.84,15.69-11.32,27.01-25.66,33.94Z"/>
    <path class="st21" d="M512.49,413.05l9.78,7.95,8.36-6.22c7.56-23.92,75.54-45.76,99.16-51.38,5.43-.76,9.5-1.3,14.89-2.51,55.58-13.62,112.1-22.78,169.04-27.39,86.38-6.86,571.27-14.53,589.35,80.83-7.31,9.7-33.8,19.78-45.22,8.55-48.78-48-274.78-80.6-328.17-51.94l2.47,5.85c100.79-9.8,241.69,4.93,332.5,52.22-26.9,5.31-49.39,10.97-76.79,18.52-135.24,37.29-284.65,24.98-423.35,19.51-24.28-.96-105.56-3.25-109.83-30.98-.93-6.42.13-17.57.88-24.36-4.34-2.79-4.43-1.98-10.46-1.14-.85,15.97-3.58,31.27,3.53,44.95,53.88,30.57,254.61,28.79,322.87,29.49,9.12-.72,55.83-4.58,62.13,4.53l-.12.2-.91-.13.99.99c-26.14,8.14-193.51,7.05-226.65,2.33-68.25,1.38-254.54-20-319.29-42.15-9.6,6.33-18.58,3.68-30.45,2.6,10.85,4.03,21.85,7.63,32.97,10.77,188.98,52.98,614.02,68.84,800.87-21.48,14.34-6.93,21.82-18.25,25.66-33.94-39.6-124-795.88-123.65-904.2,4.34Z"/>
    <path class="st21" d="M778.95,365.83c33.32,6.67,67.64,4.03,101.42,7.24l3.42-14.6c10.35-10.38,94-10.84,100.35-5.13-1.13,7.41-30.49,7.54-38.25,9.86-7.77,2.36-54.31,8.61-58.25,7.53,3.66,8.66,3.82,10.55-5.08,13.72-20.56,3.3-47.65,8.5-67.87,10.07,12.28.86,53.6,8.09,63.28,16.51,52.36-2.6,103.59.55,157.21-1.98-4.43-1.23-26.71-4.25-26.87-6.05,1-1.18,17.86-5.79,21.56-7.34l-.37-8.51,2.64-10.37-2.47-5.85c53.38-28.65,279.38,3.94,328.17,51.94,11.41,11.23,37.9,1.15,45.22-8.55-18.07-95.36-502.97-87.69-589.35-80.83-56.94,4.62-113.45,13.77-169.04,27.39l5.6,9.18c49.75-10.01,78.63-14.27,128.67-4.24ZM1010.06,391.83c-26.47.81-62.81,5.23-86.09-8.83,21.83-2.66,50.61-5.28,72.4-1.68,7.39,1.22,9.26,4.59,13.69,10.51Z"/>
    <path class="st5" d="M778.95,365.83c33.32,6.67,67.64,4.03,101.42,7.24l3.42-14.6c10.35-10.38,94-10.84,100.35-5.13-1.13,7.41-30.49,7.54-38.25,9.86-7.77,2.36-54.31,8.61-58.25,7.53,3.66,8.66,3.82,10.55-5.08,13.72-20.56,3.3-47.65,8.5-67.87,10.07,12.28.86,53.6,8.09,63.28,16.51,52.36-2.6,103.59.55,157.21-1.98-4.43-1.23-26.71-4.25-26.87-6.05,1-1.18,17.86-5.79,21.56-7.34l-.37-8.51,2.64-10.37-2.47-5.85c53.38-28.65,279.38,3.94,328.17,51.94,11.41,11.23,37.9,1.15,45.22-8.55-18.07-95.36-502.97-87.69-589.35-80.83-56.94,4.62-113.45,13.77-169.04,27.39l5.6,9.18c49.75-10.01,78.63-14.27,128.67-4.24ZM1010.06,391.83c-26.47.81-62.81,5.23-86.09-8.83,21.83-2.66,50.61-5.28,72.4-1.68,7.39,1.22,9.26,4.59,13.69,10.51Z"/>
    <path class="st21" d="M984.14,353.35c-6.36-5.71-90-5.25-100.35,5.13,26.23,3.28,34.87,4.53,62.1,4.73,7.76-2.32,37.12-2.45,38.25-9.86Z"/>
    <path class="st20" d="M887.64,370.73c-.3-.08-.38-.2-.15-.37.06.14.1.24.15.37,3.94,1.08,50.48-5.17,58.25-7.53-27.23-.2-35.87-1.44-62.1-4.73l-3.42,14.6c-.17,5.13.68,6.35,2.19,11.37,8.9-3.17,8.75-5.06,5.08-13.72Z"/>
    <path class="st20" d="M887.64,370.73c-.06-.13-.09-.23-.15-.37-.23.17-.15.29.15.37Z"/>
    <path class="st20" d="M1035.19,409.05l3.8,2.26c2.3-4.99,3.39-8.99,8.03-11.8-6.16-1.81-10.89-2.66-17.14-3.85-3.7,1.55-20.56,6.16-21.56,7.34.16,1.8,22.44,4.81,26.87,6.05Z"/>
    <path class="st6" d="M923.97,383c23.28,14.06,59.62,9.64,86.09,8.83-4.43-5.92-6.3-9.29-13.69-10.51-21.79-3.6-50.58-.98-72.4,1.68Z"/>
    <path class="st8" d="M587.65,450.76c42.39-29.42,103.47-40.09,153.42-51.68,8.49-3.72,13.45-4.47,22.54-6.6,21.04-3.89,30.67-6.7,52.23-5.01-12.61,5.49-16.11,5.44-24.18,16.73-1.36,65.2,212.19,52.41,255.47,47.43,24.8-2.85,55.9-7.34,59.83-37.14-13.65-23.39-54.06-26.47-77.45-27.35l.37,8.51c6.25,1.19,10.98,2.04,17.14,3.85,104.38,17.26,20.09,42.4-28.53,44.04-64.74,2.17-152.18,8.04-210.6-24.13-12.72-7.01,2-20.44,6.81-24.89,20.22-1.58,47.31-6.77,67.87-10.07-1.51-5.02-2.36-6.25-2.19-11.37-33.78-3.21-68.11-.57-101.42-7.24-50.05-10.03-78.92-5.77-128.67,4.24-14.25,2.57-27.07,5.68-41.1,8.46-16.33,2.9-61.16,27.91-78.55,36.25l-8.36,6.22-9.78-7.95c7.53,28.01,17.15,33.69,44.71,40.31,11.87,1.08,20.86,3.74,30.45-2.6Z"/>
    <path class="st11" d="M1038.98,411.31c-11.22,15.26-144.03,11.95-161.01-.27-9.68-8.41-51.01-15.65-63.28-16.51-4.81,4.46-19.53,17.88-6.81,24.89,58.42,32.17,145.86,26.3,210.6,24.13,48.62-1.63,132.91-26.78,28.53-44.04-4.64,2.81-5.73,6.8-8.03,11.8Z"/>
    <path class="st21" d="M1038.98,411.31l-3.8-2.26c-53.62,2.53-104.85-.62-157.21,1.98,16.98,12.23,149.79,15.53,161.01.27Z"/>
    <path class="st20" d="M741.07,399.08c1.34,3.83,2.68,7.65,4.03,11.47,6.02-.84,6.12-1.65,10.46,1.14,3.07-6.48,5.4-12.55,8.05-19.21-9.09,2.13-14.04,2.88-22.54,6.6Z"/>
    <path class="st20" d="M650.28,370.07l-5.6-9.18c-5.39,1.21-9.46,1.75-14.89,2.51-6.92,4.96-13.8,10-20.61,15.13,14.02-2.78,26.84-5.89,41.1-8.46Z"/>
    <path class="st2" d="M1106.96,414.5c-3.93,29.8-35.03,34.29-59.83,37.14-43.28,4.98-256.84,17.78-255.47-47.43,8.07-11.28,11.58-11.24,24.18-16.73-21.56-1.7-31.2,1.12-52.23,5.01-2.66,6.66-4.98,12.74-8.05,19.21-.74,6.78-1.8,17.94-.88,24.36,4.27,27.73,85.55,30.02,109.83,30.98,138.7,5.47,288.11,17.78,423.35-19.51,27.4-7.55,49.88-13.21,76.79-18.52-90.81-47.29-231.71-62.02-332.5-52.22l-2.64,10.37c23.4.88,63.8,3.95,77.45,27.35Z"/>
    <path class="st2" d="M587.65,450.76c64.74,22.15,251.03,43.53,319.29,42.15,22.35-1.99,160.74,3.16,164.56-7.91-68.26-.69-268.98,1.09-322.87-29.49-7.11-13.69-4.38-28.98-3.53-44.95-1.34-3.83-2.68-7.65-4.03-11.47-49.95,11.59-111.04,22.26-153.42,51.68Z"/>
    <path class="st13" d="M906.94,492.91c33.14,4.72,200.51,5.81,226.65-2.33l-.99-.99.91.13.12-.2c-6.3-9.11-53.01-5.26-62.13-4.53-3.82,11.08-142.21,5.93-164.56,7.91Z"/>
    <path class="st22" d="M629.79,363.4c-23.62,5.62-91.6,27.45-99.16,51.38,17.39-8.34,62.22-33.34,78.55-36.25,6.81-5.13,13.68-10.17,20.61-15.13Z"/>
    <path class="st21" d="M1460.2,428.76c-.5.82-1.01,1.64-1.55,2.46-.27.41-.56.82-.85,1.23-.58.8-1.19,1.6-1.83,2.39-.32.4-.65.8-.98,1.2-.67.79-1.37,1.57-2.1,2.35-.37.38-.74.77-1.12,1.17-3.77,3.85-8.25,7.56-13.23,11.11l-3.98-8.12c.51-.52,1.02-1.03,1.55-1.55.78-.77,1.57-1.55,2.35-2.33l1.18-1.18c.26-.26.53-.53.79-.8,1.69-1.72,3.34-3.49,4.85-5.35,4.19-5.12,7.32-10.89,7.36-18.15.02-2.66-.23-5.2-.73-7.62-.32-1.56-.73-3.08-1.23-4.55-.2-.62-.43-1.24-.7-1.86-.37-.94-.79-1.86-1.24-2.76-.27-.58-.57-1.14-.89-1.7t-.01-.01c-.37-.67-.77-1.33-1.18-1.98-.21-.32-.42-.64-.63-.96-.65-.97-1.34-1.91-2.06-2.83-1.08-1.37-2.24-2.69-3.47-3.98-.14-.15-.28-.31-.42-.44-1.38-1.42-2.85-2.78-4.37-4.09-3.84-3.3-8.08-6.47-12.7-9.52-1.31-.88-2.66-1.73-4.03-2.57-.7-.43-1.39-.85-2.1-1.28-2.11-1.27-4.28-2.5-6.52-3.71,0,0,0-.01-.01,0-1.49-.82-3-1.61-4.55-2.4,0,0,0-.01-.01,0-65.86-33.66-182.12-49.8-302.07-55.74-55.7-2.76-112.21-3.32-164.83-2.39-3.02.05-6.02.11-9,.17-21.19.44-41.71,1.12-61.22,1.98-2.76.13-5.5.25-8.22.38-6.87.33-13.62.67-20.21,1.04-2.61.15-5.2.31-7.77.45-.01,0-.02.01-.04,0-2.57.16-5.11.31-7.62.47-1.29.08-2.56.17-3.83.24-3.74.25-7.43.51-11.06.76h-.03c-4.84.35-9.57.71-14.19,1.06-.01.01-.02.01-.03,0-21.97,1.75-41.33,3.7-57.28,5.77-18.74,2.41-46.88,6.41-77.7,12.31-1.51.28-3.02.58-4.53.88-3.03.59-6.08,1.2-9.15,1.83-1.53.32-3.07.63-4.62.96-2.31.48-4.63.98-6.95,1.49-3.1.67-6.21,1.37-9.32,2.09-2.34.54-4.67,1.09-7,1.63-1.56.37-3.11.75-4.66,1.13-31.06,7.62-61.55,17.19-85.23,28.96-1.77.89-3.51,1.78-5.21,2.69-2.83,1.52-5.54,3.07-8.13,4.65-1.03.63-2.05,1.28-3.04,1.92-.5.33-.99.65-1.48.97-.97.65-1.93,1.31-2.86,1.97-.46.34-.92.66-1.37,1-1.36,1-2.68,2.02-3.93,3.05-2.09,1.72-4.04,3.47-5.82,5.26-1.79,1.78-3.42,3.61-4.87,5.47-1.32,1.69-2.53,3.54-3.55,5.51-.4.75-.77,1.52-1.11,2.3-.05.11-.09.22-.14.33-.33.75-.61,1.51-.88,2.27-.31.9-.57,1.81-.8,2.73-.18.77-.34,1.54-.46,2.32-.15.91-.24,1.83-.3,2.75-.11,1.99.03,3.99.43,5.94,1.74,8.45,6.24,15.34,12.03,21.11,2.89,2.89,6.11,5.48,9.46,7.86.84.6,1.69,1.17,2.54,1.74,2.55,1.7,5.17,3.27,7.75,4.74,4.29,2.46,8.91,4.83,13.82,7.12,1.83.84,3.71,1.69,5.62,2.52.01,0,.02,0,.02.01,1.28.55,2.56,1.1,3.87,1.63.65.27,1.32.55,1.99.82,1.33.54,2.67,1.08,4.02,1.59,1.37.54,2.75,1.05,4.14,1.58,1.38.52,2.78,1.03,4.2,1.53.72.25,1.43.52,2.15.77,1.43.51,2.88,1,4.33,1.49.73.24,1.47.5,2.2.74,16.97,5.61,35.67,10.58,55.21,14.96,1.7.38,3.41.75,5.11,1.13,2.56.56,5.15,1.11,7.74,1.64,2.58.54,5.19,1.06,7.8,1.58.86.17,1.74.35,2.6.52,1.61.32,3.22.62,4.83.93,13.26,2.53,26.71,4.82,40.07,6.9,1.76.27,3.52.54,5.28.81,1.76.26,3.52.52,5.27.78,4.39.64,8.76,1.27,13.11,1.87,1.74.23,3.47.47,5.2.71,1.73.23,3.46.45,5.18.69,1.72.22,3.44.44,5.15.66,5.12.64,10.2,1.27,15.19,1.87,1.67.19,3.33.39,4.99.58,1.64.19,3.29.37,4.92.56,6.54.74,12.94,1.41,19.16,2.05,1.55.16,3.09.32,4.63.46,5.36.54,10.57,1.03,15.62,1.49,2.16.2,4.29.39,6.39.57,1.39.13,2.77.24,4.14.36h.01c5.47.47,10.69.9,15.63,1.28,24.5,1.89,49.53,1.91,74.27,3.21h.01c2.36.13,4.71.26,7.05.41,3.64.23,7.26.5,10.88.81,6.92.58,13.79,1.34,20.62,2.32-.02,0-.04.01-.06.01-42.14,6.53-151.89,5.45-193.48-1.04h0c-.13-.48-.26-.92-.4-1.31-.19-.53-.39-1-.59-1.41-.09-.21-.2-.41-.32-.59-.22-.36-.45-.67-.69-.94-.12-.14-.24-.26-.37-.37-1.5-1.35-3.44-1.22-5.97-1.11-.36.02-.74.04-1.14.05-1.76.06-3.79.03-6.12-.5-1.4-.33-2.93-.82-4.58-1.6-.28-.43-.49-.83-.63-1.22-.01-.02-.02-.04-.02-.05-.07-.24-.14-.48-.19-.72-.02-.14-.04-.26-.05-.4-.11-.76-.04-1.51.02-2.38h.01c.14,0,.27,0,.4-.01.74,0,1.2-.04,1.33-.13.05-.02.06-.05.01-.08-.04-.03-.13-.06-.25-.11-.26-.08-.75-.19-1.46-.32h0c0,.23-.04.43-.04.64-.98,0-2.32-.03-3.91-.08-.34-.02-.7-.03-1.06-.05-2.4-.11-5.24-.25-8.21-.43-.46-.04-.93-.06-1.4-.09h-.07c-.47-.03-.95-.06-1.41-.09-.28-.02-.56-.04-.82-.05l-1.42-.09c-2.01-.15-3.99-.28-5.85-.42-1.14-.08-2.24-.17-3.26-.25-.22-.02-.44-.04-.65-.05-.39-.03-.77-.06-1.14-.09-.01,0-.02-.01-.03,0-.37-.04-.73-.06-1.08-.09h-.02c-.52-.05-1-.09-1.46-.14-.17-.02-.32-.03-.46-.04-.42-.03-.81-.07-1.16-.12h-.01c-.34-.03-.64-.06-.9-.11-1.11-.14-1.3-.22-.18-.22-.69,0-1.38-.01-2.08-.02-1.43-.03-2.88-.07-4.35-.15-.73-.04-1.47-.08-2.21-.13-1.49-.09-2.99-.21-4.52-.34-1.53-.14-3.08-.3-4.64-.46-.78-.08-1.56-.18-2.35-.27-2.37-.28-4.78-.61-7.2-.98-8.11-1.21-16.54-2.83-25.12-4.7-1.71-.38-3.43-.76-5.16-1.15-1.72-.39-3.45-.79-5.18-1.2-1.72-.41-3.45-.82-5.19-1.24-1.73-.42-3.46-.85-5.19-1.29-1.73-.43-3.45-.86-5.18-1.31-.86-.22-1.72-.44-2.58-.66-1.72-.44-3.44-.9-5.16-1.34-.85-.23-1.71-.45-2.56-.67-2.56-.69-5.1-1.36-7.63-2.03-1.68-.45-3.35-.91-5.02-1.35-1.67-.45-3.32-.9-4.97-1.34-1.64-.44-3.28-.89-4.89-1.32-7.29-1.96-14.3-3.83-20.89-5.48-2.19-.55-4.34-1.09-6.44-1.58-3.5-.83-6.85-1.6-10.04-2.27-1.27-.27-2.51-.53-3.72-.76-12.07,1.41-7.13-1.2-15.35,8.08l-5.73,1.89c-3.52,42.11,1.04,161.83.71,211.59l.51,643.03c-1.37,85.55-2.33,187.31,3.19,272.18,46.43,27.5,70.98,33.05,119.44,46.42,71.24,17.19,126.17,27.11,199.12,36.52l-18.01,9.53c-7.28-.56-15.92-1.4-25.63-2.51-1.5-.17-3.02-.35-4.56-.53-1.55-.18-3.11-.37-4.7-.57-1.59-.2-3.21-.4-4.84-.61-4.9-.62-10-1.31-15.26-2.06-1.75-.25-3.52-.51-5.31-.76-.9-.13-1.8-.26-2.7-.4-2.71-.4-5.46-.81-8.23-1.24-5.56-.85-11.25-1.77-17.04-2.75-.97-.16-1.94-.33-2.91-.5-1.94-.34-3.89-.67-5.85-1.01-1.96-.35-3.93-.7-5.92-1.05-37.62-6.78-78.29-15.9-114.12-27.35-2.83-.91-5.62-1.82-8.38-2.75-.93-.31-1.85-.62-2.75-.94-2.74-.94-5.45-1.9-8.12-2.87-1.77-.65-3.53-1.31-5.27-1.96-1.75-.66-3.47-1.33-5.17-2-9.36-3.69-18.14-7.59-26.12-11.68-1.44-.75-2.87-1.5-4.27-2.26-1.4-.76-2.76-1.52-4.11-2.29-2.01-1.15-3.95-2.32-5.84-3.5-.63-.4-1.25-.8-1.87-1.19-1.22-.8-2.41-1.6-3.56-2.4-.01-.01-.01,0-.01,0-9.29-6.47-16.53-13.35-21.16-20.63l5.06-8.2-4.48-13.71c-.43-2.17-.82-4.88-1.17-8.09-.22-2.13-.44-4.48-.64-7.02h0c-.09-1.29-.19-2.6-.28-3.96v-.02c-.15-2.28-.28-4.67-.42-7.2v-.04c-.11-2.01-.2-4.11-.3-6.27.01-.01,0-.03,0-.04-.08-2.16-.17-4.4-.25-6.7v-.06c-.03-1.14-.07-2.29-.12-3.46-.01-.62-.03-1.24-.05-1.87-.05-1.78-.09-3.61-.15-5.46.01-.02,0-.05,0-.08-.19-8.11-.34-16.84-.43-26.01.01-.04,0-.08,0-.13-.22-22.84-.16-48.4.05-73.88v-.74c.22-25.52.57-50.93.89-73.44.05-3.18.09-6.32.14-9.37.07-4.59.14-9.03.2-13.3v-.44c.03-1.62.05-3.23.07-4.8v-.37c.22-15.26.38-27.94.4-36.69l-1.21-505.4v-.59c.03-8.18.08-16.4.16-24.65.06-8.22.15-16.49.24-24.77v-.08c.09-8.28.19-16.56.3-24.88.26-20.95.54-42,.76-63.04.08-8.31.17-16.61.22-24.89.2-26.78.23-53.48-.08-79.83-.17-13.87-.42-27.64-.8-41.28-.03-.97-.08-2.02-.18-3.16v-.02c-.15-1.9-.37-4.03-.67-6.35-.12-.93-.24-1.89-.39-2.87h0c-.26-1.91-.58-3.92-.93-6.02-.09-.62-.2-1.24-.31-1.88-.26-1.57-.55-3.19-.84-4.85-.03-.21-.07-.42-.12-.63-.19-1.08-.38-2.16-.59-3.27-.54-2.91-1.12-5.93-1.72-9.02-.05-.25-.09-.51-.15-.76-1.34-6.82-2.8-13.97-4.28-21.12-.05-.27-.12-.56-.17-.83-.92-4.45-1.83-8.89-2.73-13.24-.05-.27-.11-.54-.17-.81-.35-1.71-.7-3.41-1.03-5.08-.19-.91-.37-1.81-.55-2.71-.21-1.02-.41-2.03-.61-3.05-.17-.88-.35-1.74-.52-2.6-.19-.99-.39-1.97-.57-2.94-.52-2.65-1-5.21-1.46-7.66-.17-.93-.33-1.83-.48-2.72-.6-3.34-1.12-6.46-1.53-9.28,2.98-5.05,6.87-9.91,11.6-14.6,1.57-1.56,3.24-3.1,4.99-4.62.59-.51,1.18-1.01,1.79-1.52,1.81-1.51,3.72-2.99,5.71-4.46,1.99-1.47,4.07-2.91,6.23-4.33.73-.48,1.47-.96,2.2-1.43,1.2-.76,2.43-1.52,3.68-2.27.57-.35,1.15-.69,1.74-1.03,2.06-1.21,4.19-2.4,6.37-3.58.83-.45,1.68-.9,2.53-1.35,1.7-.89,3.43-1.76,5.2-2.64,7.08-3.48,14.71-6.82,22.85-10.03,2.04-.79,4.09-1.58,6.19-2.36,1.04-.39,2.1-.78,3.17-1.17,2.12-.77,4.28-1.54,6.47-2.29h.01c1.91-.66,3.85-1.32,5.81-1.97.64-.21,1.29-.42,1.94-.63,2.75-.9,5.56-1.78,8.4-2.65.62-.2,1.24-.39,1.88-.57,1.64-.51,3.3-.99,4.98-1.49,3.92-1.14,7.92-2.27,12-3.36,3.4-.92,6.84-1.81,10.34-2.7,6.67-1.69,13.54-3.32,20.57-4.88,3.73-.83,7.51-1.66,11.33-2.45,10.12-2.12,20.55-4.1,31.25-5.98,2.4-.42,4.82-.84,7.25-1.24,18.03-3.03,36.81-5.74,56.17-8.11,2.77-.34,5.56-.66,8.36-1,.37-.03.74-.07,1.11-.13,2.83-.33,5.66-.64,8.51-.95,6.75-.75,13.55-1.46,20.41-2.12,2.95-.28,5.93-.57,8.9-.84,3.59-.33,7.17-.64,10.78-.95,3.04-.26,6.08-.51,9.14-.76,5.26-.41,10.53-.81,15.84-1.19,8.19-.58,16.45-1.12,24.75-1.59.2-.01.39-.02.59-.04,10.05-.57,20.17-1.08,30.36-1.51.15,0,.3-.01.44-.02,3.31-.14,6.62-.26,9.95-.39.13,0,.25-.01.38-.02,3.34-.12,6.68-.23,10.04-.34.12-.01.22-.01.34-.01,42.03-1.34,84.72-1.42,126.84-.27h.01c4.89.14,9.77.3,14.65.45,6.5.23,12.98.48,19.44.76,6.45.28,12.9.6,19.31.94,1.6.08,3.21.18,4.81.26,4.8.27,9.58.56,14.35.85,3.17.2,6.35.41,9.51.62,4.74.33,9.47.66,14.17,1.02,1.57.12,3.14.24,4.7.36,3.13.25,6.24.51,9.34.76,3.11.26,6.21.53,9.29.8h.01c3.09.27,6.16.56,9.23.84,1.53.15,3.06.3,4.59.44,4.58.44,9.13.91,13.67,1.38,12.07,1.28,23.95,2.67,35.6,4.18,5.82.76,11.59,1.54,17.29,2.35,21.38,3.06,41.88,6.52,61.27,10.38,1.3.26,2.58.53,3.87.78,8.97,1.83,17.69,3.75,26.15,5.76,3.63.86,7.2,1.74,10.72,2.63,3.52.9,6.99,1.8,10.4,2.73,1.14.31,2.28.62,3.41.93,2.25.62,4.48,1.25,6.68,1.9,1.1.32,2.19.64,3.29.96,1.92.57,3.82,1.15,5.7,1.73,10.92,3.37,21.18,6.93,30.69,10.67,1.86.73,3.69,1.47,5.48,2.21.91.37,1.79.75,2.68,1.13,1.77.75,3.51,1.51,5.22,2.28.85.38,1.71.77,2.55,1.16,1.69.77,3.34,1.55,4.96,2.34,1.62.79,3.22,1.59,4.78,2.39,2.33,1.2,4.6,2.41,6.79,3.66,1.47.82,2.9,1.66,4.3,2.5,3.49,2.09,6.78,4.23,9.86,6.42,1.23.86,2.44,1.75,3.6,2.65,3.49,2.66,6.66,5.39,9.51,8.18,4.09,4.02,7.38,7.94,9.92,11.77.01.01,0,.01,0,.01.47.7.91,1.38,1.32,2.07.01.01,0,.01,0,.01.63,1.03,1.2,2.06,1.71,3.07.01.01,0,.01,0,.01.7,1.36,1.29,2.71,1.79,4.04h0c.26.67.48,1.34.7,1.99,3.02,9.52,1.47,18.4-3.35,26.66Z"/>
    <path class="st22" d="M715.41,507.69c-.01.24-.02.43-.04.65,2.14,0,2.56-.19.04-.65Z"/>
    <path class="st22" d="M716.23,513.13c-1.12-1.72-.98-3-.86-4.79-8.05.03-40.75-2.45-34.49-2.44-44.94-.09-113.37-24.55-152.31-32.05l6.07,3.44c40.99,24.13,93.14,29.43,138.02,35.92,12,1.74,57.4,4.04,63.74,7.66-2.9-10.59-8.42-2.22-20.17-7.75Z"/>
    <path class="st4" d="M1562.87,1681.82c-9.48,3.83-13.02,7.04-21.78,12.96,32.69,21.41,47.07.11,68.28,19.73,16.15-12.35,24.55-19.42,36.84-35.51-28.9,4.15-53.51,7.91-83.33,2.81Z"/>
    <path class="st13" d="M1539.93,1683.07c-16.97,9.6-12.42,1.76-28.33,2.13,2.69,11.9,3.08,14,7.51,24.91l9.37-3.71c.08-2.49-.99-6.66,1.48-8.38,2.98.37,5.38,1.35,8.32,2.44,2.51-4.57,1.71-2.61,2.81-5.67,8.76-5.92,12.31-9.14,21.78-12.96l-22.94,1.25Z"/>
    <path class="st7" d="M1528.48,1706.39c6.37-1.77,6.14-.88,9.8-5.94-2.94-1.09-5.34-2.06-8.32-2.44-2.47,1.72-1.39,5.88-1.48,8.38Z"/>
    <path class="st11" d="M389.1,1.15c-.31-.37-.6-.77-.9-1.15-.16.6-.31,1.21-.48,1.81-.12.42-.26.83-.38,1.25-.16.59-.34,1.5,0,2.06.25.42.7.59,1.16.6.68.01,1.34-.23,2-.38.36-.64.67-1.04.38-1.78-.38-.95-1.16-1.66-1.79-2.42Z"/>
  </g>
  <path class="st9" d="M1385.88,1207.1c-4.23,15.9-19.25,61.84-15.1,73.52l11.82,9.46c-.04,47.35-35.47,33.42-3.24,75.58l-6.52,6.71c-4.93,2.4-4.23,3.87-5.43,9.37-12.24-17.58-31.41-56.25-43.68-77.27-4.99-14.06-15.35-31.33-22.91-44.08,1.33,27.63,3.19,81.3,8.22,106.86-.04,18.53,3.69,28.49,6.97,46.88-50.83-24.19-89.25-50.1-140.99-71.15,31.65,40.09,72.03,83.24,106.04,122.29-32.49,9.93-106.54,13.62-146.5,20.89,58.05,22.9,89.95,33.94,149.11,51.31-43.98,38.41-78.95,62.74-116.79,108.63,61.03-22.12,85.26-37.34,151.07-55.51-11.25,24.97-23.73,49.94-34.73,74.81-166.87,39.84-280.02,46.24-452.77,28.15-72.94-9.42-127.88-19.34-199.12-36.52-5.23-17.2-9.87-34.47-14.43-51.82l144.55,55.18c-40.62-44.18-73.89-71.47-118.08-110.66,23.65-7,48.84-14.48,72.07-22.6,26.14-7.14,55.35-17.24,80.99-26.48l-75.51-8.89c-3.16-.86-5.57-1.55-8.89-1.98-22.28-2.84-44.48-6.11-66.63-9.88,32.98-38.59,79.12-90.75,107.75-130.11-45.43,23.46-96.3,54.27-142.15,79.8,1.87-15.86,5.02-34.55,5.51-50.02,1.5-6.45,21.08-111.08.04-87.75h-.08c-3.24,4.6-4.56,7.39-6.84,12.51-21.08,28.83-47.59,79.58-66.39,111.68-10.91-24.67-23.27-53.67-34.55-77.56l-.51-643.03c.34-49.76-4.23-169.48-.71-211.59l5.73-1.89c65.14,55.09,343.38,74.52,433.16,74.38,49.28-.04,348.09-2.88,374.81-19.55,9.38-7,15.07-9.88,25.36-15.47,6.8,1.72,13.56,3.61,20.24,5.67,6.93,23.67-11.12.77,8,28.36,24.85-3.74-1.49-16.81,24.19-9.15,7.63,27.71-28.87,82.12-14.97,124.65,3.15,9.71.95,21.32,1.87,31.2,5.73-.64,7.26.21,13.81,1.47-4.77,12.24-12.94,27.89-10.08,39.61,9.05.78,5.44,1.29,11,0l5.43,1.08c-4.69,14.84-17.75,52.07-27.79,86.16-6.26-7.59-14.37-14.09-24.3-18.85l-360.49-172.85c-5-2.4-10.42-3.61-15.83-3.61s-10.65,1.16-15.58,3.48l-373.56,175.64c-54.56,25.65-54.47,103.29.15,128.81l371.16,173.44c4.91,2.29,10.21,3.44,15.5,3.44s10.97-1.22,16.03-3.69l362.98-176.57c4.6-2.24,8.79-4.84,12.6-7.77-9,22.99-17.52,48.24-14.96,58.56,9.13,2.92,4.52,2.45,13.94,1.47-.04,8.46-.16,16.07-.54,24.49,8.13,6.27,5.06,4.77,15.85,6.27l3.99,9.84c-5.36,16.42-19.21,52.16-12.99,67.59,15.07,37.47-14.89,59.34-15.43,96.69,9.37,8.12,4.23,5.03,16.47,7.43l12.65,2.96Z"/>
  <g>
    <path class="st0" d="M1419.57,770.86c-.7-.4-1.42-.71-2.15-1.03-.23-.12-.47-.23-.71-.35,0,.01-.01.01-.01.02-.06.12-.14.24-.21.36-.03.04-.05.09-.08.14-.07.13-.15.26-.23.4-.92,1.56-2.14,3.48-2.75,5.44-.45,1.39-.59,2.8-.12,4.13.07.18.16.36.25.53.03.06.07.13.13.19.36.59.85,1.08,1.38,1.53.15.13.3.24.45.36.31.24.61.47.9.71.08-.12.18-.24.27-.37.05-.07.11-.15.16-.22.26-.35.58-.76.91-1.19.01,0,.01-.01.01-.01.14-.17.26-.35.4-.54.07-.09.15-.19.22-.3.14-.19.27-.38.41-.58,0,0,.01,0,.01-.01.21-.3.41-.6.61-.91.07-.12.15-.22.21-.33.14-.21.26-.42.38-.63h.01c.25-.43.47-.86.67-1.3.11-.22.2-.44.28-.66.3-.79.47-1.57.45-2.29-.03-.83-.32-1.58-.79-2.18-.3-.36-.65-.66-1.08-.91Z"/>
    <path class="st0" d="M1318.78,1730.77s-.02-.06-.03-.09c-.01-.03-.02-.06-.03-.11-.01,0-.01-.01-.01-.02-.26-.11-.42-.18-.54-.22-.17-.07-.25-.07-.41-.05-.04.01-.11.01-.18.02-.05,0-.12.01-.18.02-.25.04-.62.07-1.22.09l-.74,1.33h0s.16.53.16.53h.01c.19.06.34.12.46.16.19.07.32.12.41.14.06.02.12.03.17.04.26.05.53.03,1.85.18h.01c.04-.23.08-.42.12-.59.06-.26.12-.45.15-.59.14-.41.17-.41.04-.74-.01-.03-.02-.06-.03-.09Z"/>
    <path class="st0" d="M1415.68,855.78c-.12-.45-.24-.91-.38-1.38-.21-.72-.45-1.48-.71-2.28-1.97,5.77-4.59,11.39-6.92,17-1,2.4-1.95,4.81-2.76,7.21-2.67,7.89-3.95,15.83-1.23,24.16.17.48.34.98.53,1.49.09.24.19.5.3.74h0s.01.02.01.02c.46-1.22.93-2.46,1.37-3.68h0c.91-2.47,1.78-4.93,2.63-7.41.42-1.24.84-2.49,1.25-3.72.42-1.24.83-2.49,1.23-3.74.94-2.88,1.87-5.78,2.79-8.67.26-.85.54-1.7.8-2.55.15-.46.3-.92.42-1.35.34-1.11.62-2.13.85-3.09.17-.66.31-1.31.41-1.93.03-.2.07-.41.11-.62.56-3.47.31-6.35-.7-10.16-.01,0-.01-.01-.01-.02Z"/>
    <path class="st0" d="M1415.29,1084.04c-.07-.14-.19-.26-.32-.37-.19-.16-.41-.3-.61-.41-.14-.08-.26-.15-.35-.21-1.46,2.07-1.16,1.12-1.46,2.56.13.25.21.42.27.54.04.07.07.13.11.18h.01s.03.05.05.07c.14.14.33.19.86.51.24.14.54.33.94.6h0c.03-.12.06-.22.09-.33.06-.21.14-.43.21-.65.25-.74.47-1.5.27-2.28-.02-.07-.05-.15-.09-.21Z"/>
    <path class="st0" d="M1144.06,1766.16c-.13-.49-.34-.95-.76-1.41t-.02-.01c-.09-.11-.22-.21-.36-.31-.14-.08-.3-.17-.47-.24-.02-.01-.05-.02-.09-.03-.07-.03-.15-.06-.23-.08-.31-.11-.66-.2-1.05-.26-.23-.04-.49-.08-.75-.12-.06-.01-.14-.02-.21-.02-.41-.04-.85-.07-1.32-.11-.37-.02-.75-.03-1.15-.03-8.9-.12-24.94,2.79-27.87,3.18.44.58.83,1.12,1.22,1.62.39.5.75.95,1.1,1.37,0,0,0,.01.01.01.36.41.71.79,1.05,1.14,1.78,1.75,3.73,2.61,7.44,2.95,5.69.53,11.69-.95,17.36-2.7,1.77-.55,3.51-1.12,5.21-1.68.42-.14.84-.26,1.25-.4h0c-.15-.93-.15-1.69-.25-2.37-.02-.17-.06-.34-.11-.51Z"/>
    <path class="st0" d="M1383.27,493.22c-.2.03-.41.09-.63.18-.78.28-1.69.82-2.54,1.36-.36.23-.72.47-1.05.7-.43.3-.83.56-1.16.77-.02.07-.12.39-.25.85-.04.12-.07.24-.11.38-.05.2-.12.41-.18.64-.11.39-.21.82-.32,1.27-.03.17-.07.34-.12.51-.06.27-.12.55-.17.83-.03.17-.06.34-.09.51v.03c-.02.16-.04.33-.07.49-.08.65-.11,1.27-.05,1.73.01.14.04.26.07.37.25-.15.53-.39.82-.69.35-.36.71-.8,1.08-1.29.13-.16.24-.33.36-.5.41-.58.81-1.18,1.16-1.73.11-.15.2-.31.28-.44.44-.73.76-1.28.85-1.41.2-.34.4-.66.6-1,.51-.84,1.01-1.69,1.41-2.58.08-.18.16-.36.23-.54l-.04-.15-.08-.28Z"/>
    <path class="st0" d="M1494.91,1669.86h-.01c-.38.07-.73.14-1.06.21h-.01c-.34.06-.65.13-.96.19h-.01c-.31.05-.59.12-.86.18h-.01c-.27.05-.53.12-.77.18-2.08.53-3.07,1.19-3.37,3.24-.02.12-.04.24-.04.37-.13,1.07-.08,2.48.07,4.35t.02-.01c1.48-.3,2.58-.61,3.46-1,.19-.08.37-.18.54-.27.54-.3.97-.62,1.34-1,.73-.76,1.22-1.73,1.8-3.02,0,0,.01-.01.01-.02.39-.91.83-1.97,1.41-3.23h.01c.07-.19.16-.37.24-.56-.21.05-.42.09-.63.14-.4.09-.79.17-1.16.25Z"/>
    <path class="st0" d="M1250.86,672l.86,19.91c1.88.41,3.67,1.03,5.38,1.82,8.67-10.49,17.43-20.9,26.38-31.16,14.54-16.67,29.43-33.05,45.34-48.63-11.66,18.96-24.33,37.12-37.36,54.99-8.03,11-16.24,21.86-24.54,32.64,2.27,2.95,3.93,6.39,4.78,10.14l16.62.47c14.02.63,28.04,1.03,42.06,1.91,21.07,1.13,42.13,2.53,63.18,4.53,2.01-5.27,4.33-10.45,6.15-15.13,1.58-6.41,14.36-40.1,7.76-44.05-7.92,6.75-4.81,28.28-21.57,42.59-.92-9.88,1.29-21.49-1.87-31.2-13.9-42.53,22.61-96.94,14.97-124.65-25.67-7.66.66,5.41-24.19,9.15-19.13-27.59-1.08-4.69-8-28.36-6.68-2.07-13.44-3.95-20.24-5.67-4.35-23.77-24.74-10.66-29.13-.73.3,3.44,3.15,5.03,4.52,8.2l-.37,1.33c-14.23,7.87-12.99-8.68-18.34-12.07-3.28-2.06-17.1,2.15-18.84,7.1,3.07,11.73,28.71,10.65,36.8,11.64-7.84,4.89-39.1,8.59-80.6,11.38,3.52,27.25,5.85,54.54,7.73,81.85,1.09,14,1.7,28.01,2.54,42.02Z"/>
    <path class="st0" d="M1404.74,1042.58c-.19-.6-.41-1.21-.66-1.86-.52-1.3-1.15-2.72-1.88-4.42h-.01c-.4,1.18-.95,2.59-1.57,4.14-.63,1.56-1.33,3.26-2.03,5.05-.95,2.38-1.91,4.92-2.72,7.45-.2.63-.4,1.28-.58,1.9-.09.32-.18.63-.26.95-1.19,4.43-1.73,8.69-.73,11.94.12.39.26.76.42,1.12.54,1.16,1.1,2.31,1.68,3.46.4.81.8,1.63,1.2,2.44.49-1.87.99-3.7,1.51-5.53l.79-2.75c1-3.41,2.07-6.78,3.19-10.16.07-.23.15-.45.22-.67.31-.91.61-1.8.92-2.71v-.02c.13-.38.24-.75.35-1.1.42-1.4.67-2.61.79-3.73.19-1.77.01-3.29-.44-4.89-.05-.2-.12-.4-.18-.6Z"/>
    <path class="st0" d="M1414.93,568.73s-.01-.03-.01-.05c-3.11,8.64-5.1,15.61-6.31,24.8-1.61,12.22-14.49,33.95-12.7,43.26h0c.11.11.2.18.28.25,1.3,1.11.44.41,3.7,1.81.6-1.32,1.16-2.58,1.68-3.82.36-.81.7-1.61,1.01-2.41.98-2.4,1.86-4.74,2.7-7.21.15-.41.28-.82.42-1.24.27-.83.56-1.69.83-2.56.27-.88.55-1.76.82-2.69.35-1.12.7-2.21,1.08-3.3,1.09-3.24,2.27-6.35,3.44-9.62h.01c.51-1.42.88-2.87,1.16-4.33.19-.97.35-1.93.48-2.91.32-2.3.54-4.63.89-6.91.11-.61.21-1.22.33-1.83.34-1.82.69-3.64.96-5.47.15-.98.25-1.91.32-2.8.01-.06.01-.13.02-.19.03-.42.05-.83.07-1.23.06-1.72,0-3.32-.17-4.98-.21-2.01-.57-4.1-1.02-6.56Z"/>
    <path class="st0" d="M1331.19,1745.31c-.06.05-.12.11-.17.17-.32.35-.53.81-.64,1.43-.2,1.07-.15,2.61.12,4.86h.01c4.43,1.48,6.05,1.49,6.93-.07.15-.26.27-.58.39-.93.12-.35.22-.75.32-1.19.31-1.33.6-3.07,1.15-5.24-4.31.28-6.85-.08-8.09.96-.01,0-.01.01-.01.01Z"/>
    <path class="st0" d="M1642.14,1564.96c-.34-.72-.82-1.32-1.56-1.63-3.52-1.49-7.99-1.02-11.68-.84h-.06c-.91.03-1.82.02-2.74.06-.31.01-.61.03-.92.06h-.02c-.79.06-1.55.24-2.3.49-.5.16-.99.35-1.48.55-.74.31-1.47.63-2.19.94.19.99.27,2.73.75,4.22.21.71.52,1.36.98,1.82.19.22.42.4.67.54.25.14.53.25.8.34,3.27,1.15,7.97-.49,11-1.06.45-.08.79-.15,1.05-.19.79-.14.9-.11,1.1-.05h.01s.09.03.17.04h.01s.09.02.16.03c.33.03.92.05,2.15-.01.61-.03,1.3-.19,1.99-.4.69-.21,1.38-.47,2-.71.41-.17.8-.32,1.13-.44-.08-.32-.16-.66-.23-1.04-.19-.88-.39-1.87-.79-2.7Z"/>
    <path class="st0" d="M1441.15,1714c-.11-.08-.19-.16-.27-.21h-.01s-.09-.04-.15-.05c-.08-.02-.18-.02-.32-.01-.05-.01-.09,0-.16.01-.46.08-.9.2-1.33.34-.35.09-.7.21-1.05.31-.08.03-.17.05-.26.08h-.01c-.04.22-.08.43-.12.66-.12.67-.23,1.35-.38,2.02-.01.04-.02.09-.03.14-.04.2-.11.41-.17.62-.04.13-.07.25-.12.38-.03.13-.07.26-.11.39-.04.25-.07.44-.11.6-.02.11-.04.2-.05.27-.01.04-.01.07-.02.11-.01.04-.01.08-.01.12-.01.28.09.35.44.83.62-.05.79-.05.96-.13.05-.01.09-.03.15-.07h.01c.21-.14.54-.39,1.46-.88.16-.42.33-.86.5-1.31.17-.44.33-.89.5-1.32.13-.33.25-.65.39-.98.14-.34.27-.67.4-.99l-.06-.44-.06-.5Z"/>
    <path class="st0" d="M1424.03,1654.58c-.02-.07-.04-.17-.06-.26h0c-.16-.16-.27-.28-.39-.38-.21-.2-.39-.32-.78-.27-.06.01-.13.03-.2.04-.22.04-.45.09-.69.16-.23.05-.46.13-.69.19-.45.15-.91.3-1.36.42,0,.06.01.13.01.19v.03c.01.16.02.33.03.52.03.52.06,1.15.15,1.78.15,1,.41,1.99.97,2.51.14.13.32.25.53.38.64.37,1.56.72,2.05.91.02-.15.03-.3.04-.43.07-.66.12-1.33.17-1.98.02-.26.04-.54.07-.8.03-.3.12-.61.17-.91.01-.11.03-.2.04-.3.02-.19.04-.35.06-.47.02-.14.03-.24.03-.33.01-.19.01-.32-.02-.46-.03-.14-.07-.28-.14-.53Z"/>
    <path class="st0" d="M1687.92,1567.46c-.22-.11-.25-.09-.54-.06-.19.02-.5.05-1.03.07h0c-.12.14-.2.24-.28.34t-.01.01c-.12.14-.22.23-.31.33-.04.03-.07.07-.11.09-.04.03-.07.06-.11.11-.04.03-.07.06-.09.08-.01.01-.03.03-.03.04-.01.01-.02.02-.02.03-.07.11-.05.22-.03.69.01,0,.01.01.02.01.24.11.42.18.55.23.08.04.16.06.21.08.03.01.05.02.07.02.07.03.14.05.23.06.01,0,.02.01.03,0,.09.01.21.03.38.06.05.01.13.02.2.03.22.04.52.09.92.18.08-.4.16-.69.21-.9h0c.03-.09.05-.16.07-.22,0-.01,0-.02.01-.03,0-.02.01-.05.02-.07.01-.03.02-.06.03-.08.01-.03.02-.06.03-.09v-.03c.02-.06.03-.11.04-.15.02-.13-.03-.25-.17-.65-.14-.07-.23-.13-.31-.18Z"/>
    <path class="st0" d="M1384.31,1739.82c-.05.02-.11.04-.16.07-.03.01-.06.03-.09.05-.66.25-1.33.49-1.98.72-.33.13-.66.24-.99.38-.33.13-.65.26-.97.41-.38.17-.65.38-.91.62-.13.13-.24.25-.37.38-.12.14-.24.27-.38.41v.52c.26.07.54.09.81.07.2-.01.39-.05.58-.12.27-.08.54-.2.78-.36,0,0,0-.01.01,0,.16-.09.32-.2.45-.33h.01c.58-.45,1.14-.93,1.69-1.42.28-.25.56-.51.84-.74.27-.24.55-.49.83-.72-.02,0-.03.01-.05.01-.04.01-.07.02-.11.03Z"/>
    <path class="st0" d="M1384.72,1739.52l-.11.11-.11.12-.04.04c.11-.05.21-.11.32-.17.05-.02.11-.05.16-.08.01,0,.01-.01.02-.01h-.24Z"/>
    <path class="st0" d="M1361.63,1737.89s0-.01,0-.01c-.06-.07-.14-.16-.23-.25-.21-.23-.51-.53-.95-1.03-2.08.15-4.29.71-6.54,1.5-.45.16-.91.32-1.36.48s-.9.35-1.35.53c-3.17,1.29-6.39,2.86-9.39,4.18-.85.38-1.7.73-2.51,1.05,1.73.75,3.27,1.49,4.66,2.18.35.17.7.35,1.02.52.66.35,1.29.66,1.89.97.6.31,1.17.59,1.72.84.27.13.54.25.8.37,1.04.46,2,.8,2.92.98,3.27.63,5.96-.84,9.92-6.64-.36-4.2-.19-4.96-.5-5.5-.03-.05-.06-.11-.11-.16Z"/>
    <path class="st0" d="M1395.82,1736.6c-.12-.05-.23-.09-.36-.13-1.09-.34-2.41-.25-3.51.06-.21.05-.4.12-.59.19h-.01c-.54.22-1.08.44-1.61.66-1.06.44-2.12.93-3.17,1.41-.54.24-1.06.49-1.59.72h.04c1.11-.06,2.21-.09,3.31-.14,1.12-.04,2.24-.09,3.33-.2.38-.04.74-.11,1.1-.19.44-.11.86-.24,1.27-.43.73-.33,1.39-.78,1.99-1.36l-.08-.56s-.06-.03-.11-.04Z"/>
    <path class="st8" d="M1389.62,743.1c9.05.78,5.44,1.29,11,0,3.7-10.2,6.88-17.34,9.42-21.97-5.94.43-11.88.82-17.82,1.14-2.53,7.32-4.1,14.62-2.59,20.83Z"/>
    <path class="st8" d="M1384.95,1739.53h.03s.02-.01.03-.01h-.04s-.01.01-.02.01Z"/>
    <path class="st8" d="M1765.19,1517.42h0c-.85-1.72-1.63-2.94-2.46-4-.27-.36-.56-.7-.84-1.02-.15-.17-.28-.33-.44-.5-.3-.33-.61-.65-.94-.99t-.01-.01c-.65-.69-1.38-1.42-2.21-2.3-.2-.22-.42-.45-.64-.7-1.46.04-2.84.08-4.16.12-.88.03-1.74.05-2.57.07s-1.64.05-2.44.07c-.79.03-1.56.06-2.32.09-1.52.07-2.97.16-4.4.27-.36.03-.71.06-1.06.09-.71.06-1.4.15-2.1.23-.35.04-.7.08-1.04.14-.7.09-1.39.2-2.09.33-1.4.23-2.82.53-4.27.89-.73.18-1.47.37-2.21.58-.75.21-1.52.44-2.31.7-.78.25-1.58.52-2.4.8-1.23.43-2.53.92-3.88,1.46-1.22-.56-2.22-1.02-3.06-1.42-.62-.3-1.16-.56-1.61-.8-.31-.16-.58-.32-.82-.46s-.46-.3-.65-.44c-.2-.14-.38-.28-.55-.44-.81-.76-1.29-1.68-2.21-3.33-.83-1.5-2.01-3.61-4.15-6.76-3.85-.74-7.91-1.51-12.16-2.31-4.25-.81-8.69-1.64-13.3-2.51-5.56-1.04-11.35-2.12-17.33-3.21-1.7-.32-3.41-.63-5.13-.94-4.61-.83-9.32-1.69-14.12-2.53-.46-.08-.94-.17-1.4-.25-2.18-.38-4.39-.77-6.6-1.15-2.04-.37-4.09-.72-6.16-1.08-1.97-.34-3.95-.67-5.95-1.01-4.86-.83-9.77-1.66-14.73-2.47-1.89-.31-3.79-.61-5.69-.92-56.51-9.13-117.39-16.81-157.55-15.12-1.37.05-2.72.13-4.05.21-.18,0-.35.01-.53.03-.62.03-1.23.07-1.83.12-.62-9.06-1.08-18.57-1.4-28.46-.73-23.26-.69-48.56-.26-74.73.03-1.79.06-3.59.09-5.38.14-7.57.31-15.22.5-22.9.04-1.66.07-3.32.13-4.99.01-.66.03-1.33.04-1.99.07-2.88.16-5.77.23-8.66.05-1.81.11-3.63.15-5.45.05-1.77.11-3.53.16-5.3.01-.59.03-1.19.04-1.78.16-5.4.32-10.8.47-16.2.02-.48.03-.97.04-1.46.09-3.09.19-6.18.27-9.27.13-3.91.24-7.82.35-11.73.06-2.05.13-4.09.18-6.13.01-.27.02-.54.02-.81.09-3.28.19-6.55.27-9.81.04-1.32.08-2.65.11-3.96.06-2.24.13-4.46.18-6.67.01-.06.01-.12,0-.18.24-9.19.44-18.27.6-27.19t0-.01c.37-20.08.5-39.33.19-57.16l-5.23-439.77c-.02-1.27-.04-2.56-.06-3.88v-.02c-.03-1.98-.06-4.03-.11-6.13v-.02c-.05-2.8-.11-5.7-.17-8.69-.01-.75-.02-1.52-.04-2.28-.03-1.52-.06-3.05-.09-4.61-.12-5.49-.24-11.24-.37-17.2-.04-1.66-.07-3.33-.12-5.02-.03-1.77-.07-3.55-.12-5.35-.04-1.7-.07-3.42-.12-5.15v-.23c-.04-1.71-.07-3.43-.12-5.17-.16-7.31-.32-14.82-.46-22.47-.04-1.85-.07-3.69-.12-5.54-.11-5.81-.21-11.68-.31-17.59-.03-1.88-.06-3.76-.09-5.65-.09-6.89-.19-13.8-.27-20.7-.02-1.93-.04-3.85-.05-5.77-.27-29.14-.2-57.8.59-82.38.06-2.02.14-4.03.21-6.01.12-2.97.24-5.88.38-8.72.09-1.88.19-3.72.3-5.54.15-2.73.32-5.39.51-7.95.12-1.7.24-3.35.38-4.98v-.02c.13-1.62.27-3.19.42-4.73t0-.02c.14-1.55.3-3.05.45-4.5l-3.98-8.12s-.01.01-.02.01c-17.97,10.07-36.27,18.66-54.86,26.03-2.78,1.1-5.58,2.17-8.37,3.23-2.8,1.05-5.61,2.08-8.44,3.08-1.63.58-3.27,1.15-4.9,1.71-1.18.41-2.36.81-3.54,1.2-1.89.63-3.77,1.25-5.66,1.87-.95.31-1.89.61-2.84.91-2.84.9-5.67,1.77-8.52,2.63-1.9.56-3.8,1.12-5.7,1.67-6.66,1.92-13.35,3.7-20.07,5.38-1.92.47-3.84.95-5.76,1.41-1.93.45-3.85.91-5.78,1.35-1.93.44-3.86.88-5.79,1.31-1.93.42-3.86.83-5.8,1.24-34.83,7.35-70.27,12.03-106,15.49-3.96.38-7.94.75-11.92,1.11-5.97.54-11.94,1.03-17.91,1.52-3.99.33-7.96.64-11.95.94-1.99.15-4,.3-6,.45-3.99.3-7.97.58-11.97.86-2,.14-4,.28-6,.42-7.98.56-15.97,1.11-23.96,1.64h-.02c-9.99.69-19.97,1.36-29.95,2.07-5.74.4-11.49.67-17.24.83-15.68.45-31.39.15-47.08-.15-22.98-.43-45.89-.84-68.58,1.16-.02,0-.04.01-.06.01-42.14,6.53-151.89,5.45-193.48-1.04-.5-.28-1.22-.56-2.16-.83-.57-.16-1.21-.32-1.91-.47-.46-.11-.96-.2-1.49-.31-.26-.05-.54-.11-.81-.15-.55-.11-1.12-.2-1.72-.3-1.8-.3-3.82-.58-5.99-.85-.67-.08-1.38-.17-2.09-.25-.84-.09-1.7-.19-2.57-.28-1.92-.22-3.91-.42-5.95-.62-.79-.08-1.59-.16-2.4-.23-.07-.01-.15-.01-.22-.02-4.15-.39-8.42-.76-12.55-1.11-.5-.04-.98-.08-1.47-.13-1.59-.14-3.16-.26-4.69-.39-.07-.01-.14-.01-.2-.02-1.12-.09-2.22-.19-3.3-.27-1.54-.14-3.03-.26-4.43-.39-1.02-.09-2.01-.19-2.95-.27-.62-.06-1.22-.13-1.79-.18h-.01c-2.01-.21-3.72-.41-5.03-.6-25.25-3.65-52.79-6.93-79.37-13.38-1.48-.36-2.94-.73-4.42-1.11-1.47-.38-2.93-.77-4.4-1.17-1.46-.4-2.91-.81-4.37-1.23-1.46-.42-2.9-.85-4.34-1.31-1.44-.45-2.88-.91-4.31-1.38-5.73-1.89-11.37-3.99-16.87-6.33-1.37-.59-2.74-1.19-4.1-1.8-.67-.31-1.35-.62-2.03-.94-1.35-.63-2.69-1.29-4.02-1.95-2-1-3.98-2.03-5.93-3.11-1.31-.73-2.6-1.46-3.88-2.21l-6.03-3.42-.03-.02c-12.07,1.41-7.13-1.2-15.35,8.08,65.14,55.09,343.38,74.52,433.16,74.38,34.78-.03,193.84-1.45,293.83-8.15.04-.71.08-1.41.12-2.12.09.7.17,1.4.26,2.1,41.5-2.79,72.76-6.49,80.6-11.38-8.09-.99-33.73.08-36.8-11.64,1.74-4.95,15.56-9.15,18.84-7.1,5.35,3.4,4.1,19.94,18.34,12.07l.37-1.33c-1.37-3.17-4.23-4.77-4.52-8.2,4.4-9.93,24.78-23.04,29.13.73,6.8,1.72,13.56,3.61,20.24,5.67,6.93,23.67-11.12.77,8,28.36,24.85-3.74-1.49-16.81,24.19-9.15,7.63,27.71-28.87,82.12-14.97,124.65,3.15,9.71.95,21.32,1.87,31.2,16.77-14.31,13.65-35.84,21.57-42.59,6.6,3.95-6.18,37.64-7.76,44.05-1.82,4.68-4.14,9.86-6.15,15.13,5.64.54,11.27,1.13,16.91,1.76,8.74-15.41,9.22.55-4.41,23.8-4.69,14.84-17.75,52.07-27.79,86.16-8.25,27.92-14.47,53.72-12.41,63.34,8.1-1.8,5.1.08,9.67-4.04,3.67-14.17,8.3-27.92,13.41-41.47,6.62-17.51,14.07-34.69,21.32-51.99-4.6,25.56-10.62,44.63-17.35,65.13-3.33,10.18-6.85,20.7-10.46,32.55-3.28,8.19-9.51,22.56-15.53,37.95-9,22.99-17.52,48.24-14.96,58.56,9.13,2.92,4.52,2.45,13.94,1.47-.04,8.46-.16,16.07-.54,24.49,8.13,6.27,5.06,4.77,15.85,6.27,1.54-9.63,2.29-17.24,5.48-26.39l-.92,3.27,2.78-6.58c.66-.25,1.29-.51,1.95-.77,6.76,2.54-3.73,34.72-5.31,40.31-5.36,16.42-19.21,52.16-12.99,67.59,15.07,37.47-14.89,59.34-15.43,96.69,9.37,8.12,4.23,5.03,16.47,7.43,13.28-20.07,20.95-36.4,31.61-57.75-6.47,28.27-9.87,34.29-18.96,60.71-4.23,15.9-19.25,61.84-15.1,73.52l11.82,9.46c-.04,47.35-35.47,33.42-3.24,75.58,12.37,3.66,19.21-22.72,25.77-28.83,19.71-18.3,6.72,10.79,2.19,18.61-8.38,31.75-24.27,61.4-35.14,95.87h0c.9,6.15,2.26,9.78,3.98,11.46,2.14,2.09,4.82,1.1,7.8-1.88,1.83-1.83,3.79-4.42,5.8-7.51.19-.31.38-.61.58-.92,1.03-1.62,2.08-3.37,3.13-5.21.2-.36.41-.72.61-1.09,0,0,0-.01.01-.01.2-.36.41-.74.61-1.11.3-.54.6-1.08.9-1.62.25-.45.51-.93.75-1.39,0-.01.01-.01.01-.01.25-.46.51-.94.75-1.41.13-.24.25-.49.39-.73,6.94-13.19,13.75-28.4,18.36-36.02h.01c.67-1.11,1.3-2.05,1.86-2.8,0-.01.01-.01.01-.01.36-.47.7-.88,1.01-1.19.37-.38.71-.63,1.01-.76.01,0,.01-.01.02-.01.17.08.33.18.46.31.15.12.28.24.41.38,1.88,2.05,1.22,6.95-.92,13.31-.9,2.64-2.04,5.54-3.36,8.57-.38.86-.77,1.74-1.18,2.63-1.02,2.24-2.13,4.53-3.29,6.85-.45.92-.93,1.85-1.4,2.77-1.93,3.73-3.96,7.49-6,11.12-.51.91-1.01,1.8-1.52,2.69,0,0-.01,0-.01.01-.5.89-1,1.76-1.51,2.63-.76,1.31-1.51,2.58-2.25,3.82-.47.82-.96,1.63-1.43,2.41h-.01c-.47.8-.94,1.57-1.39,2.32-.23.38-.46.75-.7,1.12-.43.73-.88,1.43-1.3,2.12,0,0-.01,0-.01.01-.85,1.36-1.66,2.64-2.39,3.79h-.01c-.55.88-1.08,1.68-1.55,2.4-.39.59-.76,1.13-1.08,1.61-.51.73-.93,1.35-1.29,1.83-.3.41-.54.73-.73.95-11.91,25.14-27.59,51.39-23.07,78.03h0c.25-.22.51-.45.77-.7t.01,0c1.03-.97,2.07-1.99,3.11-3.08.26-.27.53-.56.79-.83,1.31-1.39,2.61-2.87,3.91-4.42t.01-.01c.53-.61,1.04-1.24,1.56-1.89,0-.01.01-.01.01-.01,3.13-3.86,6.25-8.11,9.29-12.57.25-.38.52-.75.77-1.13,1.27-1.87,2.51-3.76,3.73-5.68,0-.01.01-.01.01-.01,1.73-2.69,3.42-5.41,5.05-8.13.94-1.55,1.86-3.11,2.76-4.65,2.27-3.87,4.42-7.7,6.43-11.36,2.4-4.4,4.61-8.56,6.55-12.3.33-1.28.65-2.54.98-3.8.97-3.79,1.94-7.51,3.04-11.32h0c.24-.81.53-2.04.89-3.42.07-.28.16-.58.23-.88.11-.35.2-.71.32-1.08.05-.18.11-.35.17-.53.05-.17.11-.34.17-.52l.13-.38c.26-.75.57-1.5.91-2.18.16-.32.32-.62.5-.91.17-.3.36-.57.55-.83.93-1.19,2.05-1.96,3.45-1.89h.01c.25.25.5.52.71.8.54.71.95,1.51,1.25,2.38.04.13.08.24.13.37.13.41.24.84.32,1.29.46,2.32.39,4.99.07,7.62,0,0,.01.01,0,.01-.24,1.99-.61,3.98-.98,5.78-.12.61-.24,1.19-.36,1.75-.13.56-.23,1.09-.34,1.59-.09.5-.19.97-.26,1.4-1.08,1.93-2.18,3.86-3.29,5.77-1.1,1.92-2.19,3.84-3.31,5.75-1.53,3.48-2.9,6.91-4.2,10.31-.52,1.36-1.02,2.71-1.53,4.07-2.28,6.1-4.48,12.21-7.2,18.53,0,0,0,.01-.01.01,4.99,3.64,9.87,5.42,13.19,7.43.37.22.73.45,1.06.69.32.23.62.46.91.72.14.12.27.24.41.38.39.39.73.79,1,1.23.09.15.18.3.25.45.15.31.27.63.37.97.52,1.87.15,4.27-1.43,7.68h-.01c-.26.57-.56,1.16-.9,1.78,0,.01-.01.01-.01.02-.75,1.86-1.53,3.74-2.32,5.64h-.01c-1.2,2.85-2.46,5.73-3.75,8.63-6.33,14-13.91,28.4-22.98,41.15-.5.7-.99,1.38-1.5,2.07-1.23,1.68-2.49,3.33-3.77,4.93-.52.65-1.03,1.3-1.56,1.93-1.02,1.23-2.06,2.44-3.1,3.62-1.74,1.95-3.53,3.85-5.37,5.67-1.12,1.1-2.24,2.17-3.38,3.19-.75.69-1.52,1.36-2.29,2.02-1.94,1.64-3.92,3.21-5.96,4.67-.01,0-.01.01-.02.01-13.64,7.04-63.93,32.01-76.96,36.78-166.87,39.84-280.02,46.24-452.77,28.15l-18.01,9.53c118.12,16.1,314.8,17.52,457.17-18.59,7.41-1.89,14.67-3.87,21.76-5.95,1.77-.53,3.53-1.05,5.29-1.58,1.75-.54,3.49-1.09,5.22-1.62h.01c1.73-.56,3.45-1.11,5.16-1.67,4.27-1.4,8.48-2.85,12.6-4.33,15.69-5.66,30.29-11.93,43.57-18.85.14-.09.28-.2.44-.33.08-.05.17-.12.26-.19.25-.2.55-.41.86-.65.34-.25.71-.53,1.1-.83.58-.45,1.21-.94,1.9-1.47.8-.61,1.67-1.29,2.58-2,.35-.27.71-.55,1.08-.83.37-.28.74-.57,1.12-.88.38-.3.77-.6,1.16-.91,1.38-1.08,2.85-2.21,4.35-3.4.65-.52,1.32-1.04,1.99-1.56.64-.52,1.31-1.03,1.96-1.55.02-.01.05-.03.07-.05.69-.55,1.37-1.09,2.07-1.62,1.03-.82,2.08-1.63,3.12-2.46.07-.05.14-.11.2-.16,1.32-1.04,2.65-2.08,3.94-3.1,1.4-1.1,2.76-2.17,4.08-3.21,1.29-1,2.53-1.98,3.71-2.91.91-.72,1.75-1.39,2.58-2.06.57-.45,1.11-.88,1.6-1.28.26-.2.52-.4.76-.6,2.97-2.34,5.15-4.07,6.04-4.78.14-.11.24-.19.32-.24.01-.02.02-.02.03-.03.07-.05.12-.08.12-.08.86.84,1.37,1.81,1.57,2.89.21,1.16.07,2.44-.37,3.81-.06.24-.15.49-.24.72-.37.96-.88,1.96-1.49,3.01h-.01c-1.88,3.13-4.8,6.55-8.28,10.03s-7.52,7-11.6,10.32c-.67.56-1.36,1.11-2.04,1.64-3.41,2.72-6.79,5.27-9.86,7.52-.61.44-1.2.88-1.79,1.3-.89.64-1.74,1.24-2.54,1.82-.42.3-.83.59-1.23.86-.88.61-1.68,1.18-2.4,1.69-.34.23-.66.46-.97.66-.16.11-.32.22-.46.32-.84.59-1.54,1.07-2.08,1.42h-.01c-.23.17-.42.31-.59.42-13.59,6.61-27.1,13.4-40.52,20.37-6.72,3.48-13.4,7.01-20.07,10.59-6.67,3.57-13.33,7.19-19.95,10.85h.03c.5-.05.98-.09,1.47-.14h.01c.98-.11,1.92-.21,2.84-.32.52-.06,1.02-.13,1.52-.19.77-.11,1.52-.22,2.26-.34.56-.07,1.1-.17,1.63-.26,1.15-.19,2.26-.4,3.34-.63.45-.09.91-.19,1.35-.3.61-.14,1.21-.27,1.81-.42.15-.04.3-.07.44-.11.66-.17,1.32-.34,1.97-.52,4.35-1.2,8.61-2.68,13.72-4.49,2.13-.75,4.4-1.56,6.89-2.44h.01c.38-.46,1.15-1.03,2.2-1.7.15-.09.31-.19.47-.28.5-.28,1.03-.59,1.62-.92.2-.12.4-.22.61-.33.62-.33,1.29-.66,1.99-1.01.71-.35,1.44-.71,2.22-1.08.25-.13.53-.25.79-.37.53-.25,1.08-.51,1.62-.75.28-.13.56-.25.84-.38.57-.25,1.15-.52,1.73-.77,2.06-.9,4.22-1.81,6.4-2.72,3.84-1.58,7.76-3.13,11.33-4.49.42-.16.84-.32,1.25-.47.16-.05.32-.11.46-.17.49-.18.96-.36,1.43-.53.01,0,.01-.01.01-.01,1.56-.57,3.02-1.1,4.32-1.54,1.43-.5,2.68-.91,3.7-1.22.5-.15.93-.27,1.31-.38.25-.06.47-.13.67-.17l-.38,1.5.66.08h0s.03.07.03.07l.14.27c-.31.62-.71,1.25-1.18,1.89-.23.3-.47.6-.75.9-.28.33-.6.66-.93.99-2.22,2.2-5.34,4.41-8.88,6.53-.51.31-1.02.6-1.55.91-.52.31-1.05.6-1.59.9-.27.15-.54.3-.81.44-.55.3-1.09.59-1.63.88-9.69,5.06-20.72,9.42-26.08,11.94-1.47.45-2.91.93-4.35,1.42-8.61,2.94-16.84,6.45-25.23,10.13-1.4.61-2.79,1.22-4.21,1.83h-.01c-9.48,6.09-20.48,11.25-32.55,15.64-1.76.65-3.54,1.28-5.36,1.89-.39.14-.79.26-1.18.39-1.61.54-3.25,1.07-4.89,1.56-16.12,5.02-33.75,8.89-51.97,11.96-4.1.69-8.23,1.34-12.39,1.96-47.07,6.99-96.57,9.38-133.14,13.2-62.19,6.48-131.06,3.09-193.34-2.67-8.2-.76-16.42-1.53-24.64-2.35-1.17-.12-2.34-.23-3.52-.35-7.57-.76-15.15-1.55-22.74-2.39-43.29-4.79-86.67-11-129.17-20.75-2.88-.66-5.76-1.34-8.64-2.04h-.01c-2.87-.7-5.74-1.41-8.6-2.14-8.61-2.19-17.18-4.54-25.7-7.06-4.25-1.27-8.49-2.57-12.72-3.92-2.83-.91-5.64-1.83-8.45-2.77-11.23-3.77-22.35-7.89-33.35-12.38-9.64-3.96-20.21-8.25-30.64-13.29-1.04-.52-2.09-1.02-3.13-1.55-9.87-4.93-19.5-10.59-27.96-17.33-.44-.36-.89-.72-1.32-1.08-.89-.72-1.75-1.46-2.59-2.2-1.7-1.5-3.34-3.04-4.91-4.64-6.31-6.41-11.52-13.68-15.11-22.05-.44-1.03-.82-2.04-1.14-3.03h0c-.17-.51-.31-.99-.43-1.47,0,0,.01-.01,0-.01-1.3-4.88-1.12-9.3-.15-13.69.98-4.43,2.74-8.79,4.6-13.55.18-.47.37-.94.55-1.41,0-.01.01-.02.01-.03l5.06-8.2-4.48-13.71c-.72.96-1.41,1.91-2.1,2.85-.33.49-.66.96-.99,1.43-.97,1.41-1.88,2.82-2.75,4.21-2,3.27-3.72,6.47-5.17,9.64-.41.9-.79,1.78-1.16,2.68-.18.44-.36.9-.53,1.34-.35.89-.66,1.77-.96,2.65-4.01,11.84-3.96,22.91-.62,33.25.23.71.47,1.4.74,2.11h0c.39,1.05.81,2.1,1.27,3.13,2.14,4.84,5.01,9.52,8.53,14.03.51.64,1.02,1.28,1.54,1.91,1.85,2.24,3.85,4.42,6.02,6.58,9.86,9.83,22.84,18.82,37.95,27.02.94.52,1.9,1.03,2.86,1.53,1.92,1.01,3.87,2.01,5.85,3.01,2.97,1.49,6.01,2.94,9.12,4.38,3.1,1.42,6.26,2.84,9.49,4.21,22.54,9.64,47.79,17.98,73.5,25.15,6.12,1.71,12.27,3.35,18.41,4.92,1.23.32,2.47.63,3.69.94,3.69.93,7.37,1.83,11.04,2.72,1.22.3,2.45.59,3.67.88,2.45.58,4.88,1.15,7.32,1.71,1.21.28,2.43.56,3.64.83,3.64.82,7.25,1.62,10.84,2.4,2.39.52,4.78,1.02,7.15,1.53,4.73,1,9.42,1.97,14.03,2.89,3.47.7,6.9,1.37,10.28,2.01,2.26.43,4.48.86,6.7,1.28,7.74,1.47,15.23,2.8,22.35,4.04,2.04.35,4.04.7,6.01,1.03,1.98.34,3.93.66,5.85.98,22.02,3.67,39.75,6.2,50.26,7.76,11.86,1.76,23.76,3.46,35.67,5.06t.02,0c32.75,4.44,65.68,8.27,98.69,11.27,6.02.55,12.05,1.08,18.07,1.56,5.99.5,11.99.96,17.99,1.39,3.03.22,6.05.43,9.08.63,6,.41,11.99.78,17.99,1.13h.06c6,.35,12,.65,18,.94,139.96,6.52,280.27-4.56,414.62-48.91,1.77-.58,3.54-1.17,5.31-1.77,17.65-5.97,33.83-8.31,46.79-18.05.57-.43,1.13-.86,1.68-1.32,1.11-.91,2.18-1.87,3.24-2.9.52-.52,1.03-1.04,1.56-1.59,0,0-.01-.01,0-.01.51-.55,1.01-1.11,1.52-1.7,0,0-.01,0,0-.01.5-.58.98-1.18,1.48-1.8.24-.32.48-.63.73-.96.47-.64.94-1.31,1.41-1.98h0c.7-1.03,1.37-2.11,2.05-3.23h0c-.55-1.37-1.04-2.59-1.49-3.71h0c-.33-.85-.63-1.63-.91-2.37-.12-.32-.23-.62-.34-.93-.24-.64-.45-1.27-.66-1.87-1.57-4.63-2.35-8.21-4.11-16.03-.88-1.02-1.66-1.88-2.39-2.59-.18-.18-.36-.36-.53-.53-2.43-2.33-4.11-3.28-5.93-4.88-.39-.35-.78-.72-1.19-1.13-.41-.42-.83-.89-1.28-1.42-.3-.36-.6-.75-.92-1.18-.49-.64-.99-1.36-1.53-2.19-.36-.55-.74-1.14-1.13-1.78-.01,0-.01-.01-.01-.01-.08.19-.17.37-.24.55h-.01c-.58,1.27-1.02,2.33-1.41,3.24,0,.01-.01.02-.01.02-.58,1.29-1.08,2.26-1.8,3.02-.37.38-.8.71-1.34,1-.17.09-.35.19-.54.27-.88.39-1.98.71-3.46,1t-.02.01c-.16-1.88-.2-3.29-.07-4.35,0-.13.02-.25.04-.37.31-2.05,1.3-2.71,3.37-3.24.24-.06.5-.13.77-.18h.01c.27-.06.56-.13.86-.18h.01c.31-.06.62-.13.96-.19h.01c.34-.07.69-.14,1.06-.21h.01c.37-.08.76-.16,1.16-.25.21-.04.42-.08.63-.14-.12-.5-.23-.99-.36-1.48-.3-1.22-.59-2.45-.89-3.64,1.52-.9,2.86-1.61,4.05-2.2t.01,0c.42-.21.8-.37,1.19-.54.31-.14.61-.26.89-.38.36-.14.73-.29,1.06-.4.45-.15.86-.28,1.25-.39,1.74-.47,2.92-.47,3.82-.36.36.03.67.09.97.15.04,0,.07.01.11.02.32.06.6.1.88.09.47,0,.92-.15,1.48-.6.07-.06.15-.12.23-.19.15-.14.32-.3.48-.46.64-.67,1.42-1.68,2.48-3.15.36-.52.75-1.09,1.18-1.72,1.17-1.73,2.6-3.92,4.4-6.72.52-.79,1.05-1.62,1.62-2.52.28-.45.58-.92.89-1.39.31-.46.61-.95.93-1.44,1,.79,2,1.59,3.01,2.4,1.01.81,2.02,1.63,3.02,2.45,7.96,1.48,9.81-2.9,11.36-6.38.08-.18.16-.36.24-.55.15-.3.27-.58.42-.85.36-.7.75-1.31,1.24-1.75,1.06-.94,2.59-1.04,5.28.51.33.54.75,1.03,1.23,1.49,1.13,1.06,2.63,1.92,4.29,2.47,3.87,1.29,8.63,1,11.61-1.76,1.56-1.43,2.93-2.52,4.15-3.31.4-.26.79-.5,1.17-.71.75-.4,1.43-.7,2.07-.88,1.7-.5,3.05-.26,4.26.35.86.44,1.67,1.08,2.49,1.77.41.35.83.72,1.25,1.1.12.09.22.18.33.27.22.19.44.37.66.56.23.18.45.35.7.54,0,0,.01-.01.01,0,.23.17.47.34.73.51.77.5,1.6.93,2.55,1.27.14-1.34.21-2.53.26-3.6.05-1.06.07-1.99.09-2.82,0-.41.01-.8.02-1.16.01-.24.01-.47.02-.7.01-.22.02-.42.03-.61.01-.3.04-.58.07-.83.02-.17.05-.33.07-.47.03-.15.06-.3.11-.43.01-.06.03-.13.06-.19.14-.39.33-.71.59-.97.57-.59,1.49-.94,3.01-1.24.22-.04.47-.09.73-.14h.01c.26-.04.53-.08.82-.14h.01c.28-.04.59-.08.91-.14h.01c.81-.12,1.72-.23,2.74-.37.21-.03.43-.06.65-.08,1.29-.17,2.74-.36,4.4-.6h.02c1.05-.23,2.05-.44,2.98-.66.01,0,.01-.01.02,0,.94-.2,1.82-.4,2.66-.6.27-.07.56-.14.83-.19.8-.19,1.56-.36,2.28-.54.73-.18,1.4-.34,2.06-.5.42-.11.83-.2,1.23-.31,4.62-1.14,7.43-1.91,11.24-2.63.33-.06.66-.12,1.01-.18.35-.06.71-.13,1.08-.19.37-.06.75-.12,1.14-.18.22-.03.44-.06.67-.11,1.16-.18,2.45-.36,3.89-.55.31-.03.63-.07.97-.12.73-.09,1.49-.19,2.3-.28.36-.04.73-.08,1.11-.13.52-.06,1.05-.13,1.6-.19.14-.01.27-.03.42-.04.85-.09,1.76-.2,2.71-.31,1.18-.12,2.43-.25,3.75-.39h.02c1.85-1,3.12-1.68,4.15-2.08h.01c.12-.04.23-.08.35-.12,1.46-.5,2.52-.4,4.29.07.23.06.49.14.75.21,1.05.31,2.34.72,4.03,1.19,2.1,1.28,3.89,2.45,5.49,3.53.97.66,1.88,1.29,2.74,1.89,0,0,.01.02.02.02.45.31.9.61,1.33.92,0,.01.01.01.02.02,4.42,3.02,8.19,5.31,15.65,7.4,1.29-1.03,2.53-2.07,3.82-3.09,6.6-14.36,27.3-26.13,41.73-36.15-.02-.01-.2-.07-.51-.19-.13-.05-.27-.11-.43-.17-.17-.06-.35-.14-.55-.21-.51-.2-1.13-.44-1.83-.74-.38-.15-.79-.32-1.21-.51-.2-.08-.41-.17-.63-.26-.33-.14-.67-.28-1.02-.44-.18-.07-.36-.16-.54-.23-.54-.24-1.1-.5-1.68-.76-.32-.15-.64-.3-.98-.45-.52-.25-1.04-.51-1.58-.76-.34-.17-.66-.34-1-.51-.61-.32-1.22-.63-1.85-.96-.4-.22-.8-.44-1.2-.66-.65-.36-1.31-.74-1.94-1.13-.34-.2-.67-.41-1.01-.62-.19-.12-.39-.24-.58-.37-.37-.24-.73-.49-1.09-.74-.54-.37-1.06-.75-1.56-1.14-.32-.25-.63-.51-.94-.77-.01.01-.01,0-.01,0-3.75-3.21-5.57-6.64-2.45-9.71.24-.23.51-.46.81-.71,0-.01.01-.01.02-.01.76-.59,1.73-1.16,2.91-1.71.01,0,.01-.01.02-.01l.16.46h.01c.85-2.63,1.66-5.04,2.41-7.24,0-.01.01-.01.01-.01.55-1.57,1.08-3.04,1.57-4.41.11-.28.2-.55.32-.82.2-.53.4-1.03.59-1.54,0-.01.01-.01.01-.01.5-1.24.97-2.4,1.43-3.47,0-.01.01-.01.01-.01.19-.42.37-.83.55-1.23h.01c.46-1,.93-1.91,1.37-2.74,0-.01.01-.01.01-.01.73-1.33,1.44-2.45,2.17-3.4.09-.13.19-.24.28-.36.28-.34.56-.65.83-.94.09-.09.19-.19.28-.28.2-.2.39-.38.59-.55.18-.15.37-.3.55-.43.2-.15.4-.28.6-.41.17-.11.35-.21.52-.31,3.23-1.77,7.06-1.39,12.61-.52.81.13,1.66.26,2.54.41.31.05.61.11.92.15.91.15,1.86.3,2.86.45h.01c1,.15,2.03.3,3.13.44h.01c4.38.57,9.51,1.03,15.65,1.08,7.89-17.91,7.48-9.41,5.53-26.02ZM1383.16,494.19c-.4.9-.91,1.74-1.41,2.58-.2.34-.4.66-.6,1-.09.14-.41.69-.85,1.41-.08.14-.18.3-.28.44-.35.55-.75,1.15-1.16,1.73-.12.17-.23.34-.36.5-.37.48-.73.93-1.08,1.29-.3.3-.57.54-.82.69-.03-.11-.06-.23-.07-.37-.05-.46-.03-1.08.05-1.73.03-.16.05-.33.07-.49v-.03c.03-.17.06-.34.09-.51.05-.28.11-.56.17-.83.04-.17.08-.34.12-.51.11-.44.21-.88.32-1.27.06-.23.13-.44.18-.64.03-.14.06-.26.11-.38.14-.46.23-.78.25-.85.33-.21.73-.47,1.16-.77.34-.22.7-.46,1.05-.7.85-.54,1.76-1.08,2.54-1.36.22-.08.43-.15.63-.18l.08.28.04.15c-.07.18-.15.36-.23.54ZM1416.12,580.27c-.02.4-.04.81-.07,1.23-.01.06-.01.13-.02.19-.06.9-.17,1.82-.32,2.8-.27,1.83-.62,3.65-.96,5.47-.12.61-.22,1.22-.33,1.83-.35,2.28-.57,4.61-.89,6.91-.14.98-.3,1.94-.48,2.91-.28,1.47-.65,2.91-1.16,4.32h-.01c-1.17,3.28-2.35,6.39-3.44,9.63-.38,1.09-.73,2.18-1.08,3.3-.27.93-.55,1.81-.82,2.69-.27.88-.56,1.73-.83,2.56-.14.42-.27.83-.42,1.24-.84,2.47-1.72,4.81-2.7,7.21-.32.8-.65,1.6-1.01,2.41-.52,1.23-1.08,2.5-1.68,3.82-3.26-1.4-2.4-.71-3.7-1.81-.08-.07-.18-.15-.28-.24h0c-1.79-9.32,11.08-31.05,12.7-43.27,1.2-9.19,3.19-16.16,6.31-24.8,0,.02.01.03.01.05.45,2.46.81,4.54,1.02,6.56.17,1.66.23,3.26.17,4.98ZM1405.36,1048.08c-.12,1.12-.37,2.33-.79,3.73-.11.35-.22.72-.35,1.1v.02c-.31.91-.61,1.8-.92,2.71-.07.22-.15.44-.22.67-1.13,3.38-2.19,6.76-3.19,10.16l-.79,2.75c-.52,1.82-1.02,3.66-1.51,5.53-.4-.8-.8-1.62-1.2-2.44-.58-1.15-1.14-2.3-1.68-3.46-.16-.36-.31-.73-.42-1.12-1-3.25-.46-7.51.73-11.94.08-.32.17-.63.26-.95.18-.62.38-1.27.58-1.9.81-2.53,1.77-5.07,2.72-7.45.71-1.79,1.4-3.49,2.03-5.05.62-1.55,1.17-2.96,1.57-4.15h.01c.73,1.71,1.36,3.13,1.88,4.43.25.64.47,1.25.66,1.86.06.2.13.4.18.6.45,1.6.63,3.12.44,4.89ZM1415.11,1086.53c-.07.22-.15.44-.21.65-.03.11-.06.21-.09.32h0c-.4-.26-.7-.45-.94-.59-.54-.32-.73-.37-.86-.51-.02-.02-.03-.04-.05-.06h-.01c-.03-.06-.06-.12-.11-.19-.06-.12-.15-.28-.27-.54.3-1.44,0-.5,1.46-2.56.08.06.21.13.35.21.2.12.42.25.61.41.13.11.24.23.32.37.04.06.07.14.09.21.2.78-.02,1.54-.27,2.28ZM1416.39,865.97c-.03.21-.07.42-.11.62-.11.62-.24,1.27-.41,1.93-.23.96-.52,1.98-.85,3.09-.13.43-.27.89-.42,1.35-.26.85-.54,1.7-.8,2.55-.93,2.89-1.86,5.79-2.79,8.67-.4,1.25-.81,2.5-1.23,3.74-.41,1.23-.83,2.48-1.25,3.72-.84,2.48-1.72,4.95-2.63,7.4h0c-.44,1.23-.91,2.47-1.37,3.69h-.01v-.02c-.11-.24-.2-.5-.3-.74-.19-.51-.36-1-.53-1.49-2.72-8.33-1.43-16.27,1.23-24.16.81-2.4,1.76-4.81,2.76-7.21,2.33-5.61,4.95-11.23,6.92-17,.25.8.5,1.56.71,2.28.14.47.26.93.38,1.38,0,.01,0,.02.01.02,1,3.82,1.25,6.7.7,10.16ZM1420.99,776.24c-.08.22-.18.44-.28.66-.2.43-.42.86-.67,1.29h-.01c-.12.22-.24.43-.38.64-.06.11-.14.21-.21.33-.2.31-.4.61-.61.91,0,.01-.01.01-.01.01-.14.2-.27.39-.41.58-.07.11-.15.2-.22.3-.14.19-.26.37-.4.54,0,0,0,.01-.01.01-.33.43-.64.84-.91,1.19-.05.07-.11.15-.16.22-.09.13-.19.25-.27.37-.28-.23-.59-.46-.9-.71-.16-.12-.31-.23-.45-.36-.53-.45-1.02-.94-1.38-1.53-.05-.06-.1-.13-.13-.19-.09-.17-.18-.35-.25-.53-.47-1.33-.34-2.74.12-4.13.61-1.96,1.83-3.88,2.75-5.44.08-.14.16-.27.23-.4.03-.04.05-.09.08-.14.07-.12.15-.24.21-.36,0-.01.01-.01.01-.02.23.12.47.23.71.35.73.33,1.46.63,2.15,1.03.42.24.78.55,1.08.91.47.6.76,1.35.79,2.18.02.72-.16,1.5-.45,2.29ZM1144.41,1769.04c-.41.14-.83.26-1.25.4-1.7.56-3.44,1.13-5.21,1.68-5.66,1.75-11.66,3.23-17.36,2.7-3.71-.34-5.66-1.2-7.44-2.95-.35-.35-.7-.73-1.05-1.14-.01,0-.01-.01-.01-.01-.35-.42-.71-.88-1.1-1.37-.39-.51-.78-1.04-1.22-1.62,2.93-.39,18.97-3.3,27.87-3.18.4,0,.78.01,1.15.03.46.03.91.06,1.32.11.07,0,.15.01.21.02.26.03.52.07.75.12.39.06.75.16,1.05.26.08.02.16.05.23.08.04.01.07.02.09.03.18.07.34.16.47.24.14.09.26.2.36.31t.02.01c.42.46.63.93.76,1.41.04.17.08.34.11.51.11.69.11,1.44.25,2.36h0ZM1318.77,1731.6c-.03.14-.08.33-.15.59-.03.17-.07.36-.12.59h-.01c-1.32-.15-1.58-.13-1.85-.18-.05-.01-.11-.02-.17-.04-.09-.02-.22-.06-.41-.14-.13-.04-.27-.09-.46-.16h-.01l-.16-.52h0s.74-1.34.74-1.34c.6-.02.97-.05,1.22-.09.06-.01.13-.02.18-.02.07-.01.14-.01.18-.02.16-.02.24-.02.41.05.12.04.27.12.54.22,0,.01,0,.02.01.02.01.04.02.07.03.11.01.03.02.06.03.09.01.03.02.06.03.09.13.33.09.33-.04.74ZM1338.14,1749.58c-.09.44-.2.84-.32,1.19-.12.35-.24.66-.39.93-.88,1.56-2.5,1.55-6.93.07h-.01c-.26-2.25-.32-3.8-.12-4.86.12-.62.33-1.09.64-1.43.05-.06.11-.12.17-.17,0,0,0-.01.01-.01,1.23-1.04,3.77-.67,8.09-.96-.55,2.17-.84,3.91-1.15,5.24ZM1352.31,1750.2c-.92-.18-1.88-.52-2.92-.98-.26-.12-.53-.24-.8-.37-.55-.25-1.12-.54-1.72-.84-.6-.31-1.22-.62-1.89-.97-.33-.17-.67-.35-1.02-.52-1.39-.7-2.93-1.43-4.66-2.18.81-.33,1.66-.67,2.51-1.05,3.01-1.32,6.22-2.89,9.39-4.18.45-.18.9-.36,1.35-.53s.91-.33,1.36-.48c2.25-.79,4.46-1.35,6.54-1.5.44.51.74.8.95,1.03.09.09.17.18.23.25,0,0-.01.01,0,.01.04.05.07.11.11.16.31.55.14,1.31.5,5.5-3.96,5.8-6.65,7.28-9.92,6.64ZM1394.01,1738.56c-.4.19-.82.33-1.27.43-.36.08-.72.15-1.1.19-1.1.11-2.21.16-3.33.2-1.1.04-2.2.07-3.31.14-.01,0-.02.01-.03.01h-.03c-.05.03-.11.06-.16.08-.11.06-.21.12-.32.17-.28.23-.56.47-.83.72-.28.23-.56.49-.84.74-.55.5-1.11.97-1.69,1.42h-.01c-.14.13-.3.23-.45.33-.01-.01-.01,0-.01,0-.24.16-.51.27-.78.36-.19.06-.38.11-.58.12-.27.02-.55,0-.81-.07v-.52c.14-.14.26-.27.38-.41.13-.13.24-.25.37-.38.25-.24.53-.45.91-.62.32-.15.64-.28.97-.41.33-.14.66-.25.99-.38.65-.23,1.32-.46,1.98-.72.03-.02.06-.04.09-.05.05-.03.11-.05.16-.07.03-.01.06-.02.11-.03.02,0,.03-.01.05-.01l.04-.04.11-.12.11-.11h.24c.53-.23,1.05-.47,1.59-.72,1.05-.49,2.11-.97,3.17-1.41.54-.22,1.08-.44,1.61-.65h.01c.19-.08.38-.15.59-.2,1.1-.32,2.43-.4,3.51-.06.13.03.24.07.36.13.04.01.07.03.11.04l.08.56c-.6.58-1.27,1.03-1.99,1.36ZM1424.19,1655.58c0,.08-.01.19-.03.33-.02.13-.04.28-.06.47-.01.09-.03.19-.04.3-.05.3-.14.61-.17.91-.03.26-.05.54-.07.8-.05.65-.09,1.32-.17,1.98-.01.14-.02.28-.04.43-.48-.19-1.4-.54-2.05-.91-.21-.13-.39-.25-.53-.38-.56-.52-.82-1.51-.97-2.51-.08-.63-.12-1.27-.15-1.78-.01-.19-.02-.36-.03-.52v-.03c0-.06-.01-.13-.01-.19.45-.13.91-.27,1.36-.42.22-.06.45-.14.69-.19.23-.06.46-.12.69-.16.07-.01.14-.03.2-.04.39-.04.57.07.78.27.12.09.23.22.39.37h0c.02.11.04.2.06.27.06.24.11.39.14.53.03.15.03.27.02.46ZM1440.87,1715.93c-.14.33-.26.65-.39.98-.17.43-.33.88-.5,1.32-.17.44-.34.89-.5,1.31-.92.49-1.24.74-1.46.86h-.01c-.05.05-.09.07-.15.08-.17.07-.34.07-.96.13-.35-.49-.45-.55-.44-.83,0-.03,0-.07.01-.12.01-.03.01-.06.02-.11.01-.07.03-.17.05-.27.03-.16.06-.35.11-.6.03-.13.07-.26.11-.39.04-.13.07-.25.12-.38.06-.21.13-.42.17-.62.01-.04.02-.09.03-.14.15-.67.26-1.35.38-2.02.03-.23.07-.44.12-.66h.01c.09-.03.18-.05.26-.08.36-.09.71-.21,1.05-.31.43-.14.86-.25,1.33-.34.06-.01.11-.02.16-.01.14-.01.23-.01.32.01.05.01.11.03.15.05h.01c.08.05.17.13.27.21l.06.5.06.44c-.13.32-.26.65-.4.99ZM1642.03,1569.15c-.62.23-1.32.5-2,.71-.7.21-1.38.37-1.99.4-1.23.06-1.82.04-2.15.01-.06-.01-.12-.02-.16-.03h-.01c-.07-.01-.13-.02-.17-.04h-.01c-.2-.05-.31-.08-1.1.05-.26.04-.6.11-1.05.19-3.03.58-7.73,2.21-11,1.06-.27-.08-.55-.2-.8-.34-.25-.14-.48-.32-.67-.54-.46-.46-.77-1.12-.98-1.82-.47-1.49-.56-3.23-.75-4.22.73-.31,1.46-.63,2.19-.94.48-.2.98-.39,1.48-.55.75-.24,1.51-.42,2.3-.49h.02c.31-.03.61-.05.92-.06.92-.04,1.83-.03,2.74-.06h.06c3.69-.18,8.16-.64,11.68.84.74.32,1.22.92,1.56,1.63.4.83.6,1.82.79,2.7.07.38.15.73.23,1.04-.33.13-.72.27-1.13.44ZM1688.35,1568.44v.03s-.02.06-.03.09c-.01.02-.02.05-.03.08-.01.02-.02.05-.02.07-.01.01-.01.02-.01.03-.02.06-.04.13-.07.21h0c-.05.22-.13.51-.21.91-.4-.08-.7-.14-.92-.18-.07-.01-.15-.02-.2-.03-.17-.03-.28-.05-.38-.06-.01.01-.02,0-.03,0-.09-.01-.16-.03-.23-.06-.02,0-.04-.01-.07-.02-.05-.02-.13-.04-.21-.08-.13-.05-.31-.13-.55-.23-.01,0-.01-.01-.02-.01-.02-.46-.04-.58.03-.69,0-.01.01-.02.02-.03,0-.01.02-.03.03-.04.02-.02.05-.05.09-.08.03-.04.06-.07.11-.11.03-.02.06-.06.11-.09.08-.09.19-.19.31-.33t.01-.01c.08-.09.17-.2.28-.33h0c.54-.03.84-.06,1.03-.08.28-.03.32-.04.54.06.07.05.17.11.31.18.13.4.18.52.17.65,0,.04-.02.09-.04.15Z"/>
    <path class="st1" d="M1330.37,714.08c-14.01-.88-28.04-1.28-42.06-1.91l-16.62-.47c-.85-3.75-2.51-7.19-4.78-10.14,8.31-10.78,16.52-21.64,24.54-32.64,13.03-17.87,25.7-36.03,37.36-54.99-15.91,15.58-30.8,31.96-45.34,48.63-8.95,10.26-17.71,20.68-26.38,31.16-1.7-.79-3.5-1.41-5.38-1.82l-.86-19.91c-.84-14.01-1.45-28.02-2.54-42.02-1.88-27.31-4.2-54.6-7.73-81.85-.13,0-.26.02-.38.03-1.64,27.42-2.09,54.81-2.09,82.17-.12,14.04.22,28.07.35,42.1l.51,19.88c-1.83.51-3.58,1.21-5.22,2.08-9.26-9.97-18.61-19.85-28.13-29.58-15.48-15.8-31.3-31.29-48.1-45.9,12.73,18.27,26.43,35.66,40.47,52.75,8.65,10.51,17.47,20.87,26.39,31.14-1.62,2.38-2.84,5.06-3.61,7.92l-16.63-.19c-14.03.09-28.06-.06-42.1.28-28.07.42-56.15,1.3-84.25,3.49,28,3.28,56.02,5.25,84.05,6.75,14.01.88,28.04,1.27,42.06,1.91l16.62.46c.85,3.74,2.51,7.17,4.77,10.12-8.31,10.78-16.52,21.64-24.55,32.64-13.03,17.87-25.7,36.03-37.35,55,15.92-15.56,30.82-31.94,45.35-48.61,8.95-10.27,17.71-20.68,26.38-31.17,1.78.82,3.66,1.47,5.64,1.88l.57,13.28c.85,14.01,1.45,28.02,2.54,42.02,1.92,28.01,4.31,56,8.01,83.94,1.77-28.13,2.23-56.22,2.23-84.29.13-14.04-.24-28.06-.35-42.1l-.35-13.36c1.77-.51,3.46-1.19,5.05-2.04,9.26,9.96,18.61,19.85,28.13,29.57,15.48,15.8,31.3,31.29,48.08,45.91-12.74-18.26-26.45-35.65-40.49-52.73-8.65-10.51-17.47-20.87-26.38-31.14,1.63-2.39,2.85-5.07,3.62-7.94l16.63.18c14.03-.08,28.06.05,42.1-.28,20.67-.31,41.35-.87,62.04-2.01.42-1.22.87-2.44,1.34-3.66-21.05-2-42.11-3.4-63.18-4.53Z"/>
    <path class="st18" d="M1414.42,720.82c-1.32-.15-2.64-.29-3.97-.44-.14.24-.28.49-.42.75,1.46-.11,2.92-.2,4.39-.31Z"/>
    <path class="st1" d="M1240.34,546.03c-.04.71-.08,1.41-.12,2.12.13,0,.26-.02.38-.03-.09-.7-.17-1.4-.26-2.1Z"/>
    <path class="st8" d="M1392.21,722.27c5.94-.33,11.88-.71,17.82-1.14.14-.26.28-.51.42-.75-5.64-.63-11.27-1.23-16.91-1.76-.46,1.22-.91,2.44-1.34,3.66Z"/>
  </g>
  <path class="st15" d="M1336.43,994.94c-.81-4.82-2-9.55-3.59-14.12-2.35-6.82-5.57-13.3-9.64-19.16-5.66-8.16-12.99-15.14-21.97-20.26l-325.8-185.77c-4.52-2.58-9.41-3.88-14.3-3.88s-9.62,1.25-14.08,3.74l-337.61,188.77c-49.3,27.57-49.23,111.01.13,138.43l335.44,186.4c4.44,2.46,9.22,3.69,14.01,3.69s9.91-1.31,14.48-3.97l328.05-189.77c4.15-2.4,7.95-5.2,11.39-8.35,20.29-18.46,28.1-48.42,23.49-75.77ZM1281.53,1057.29l-316.94,189.77c-1.72,1-3.66,1.52-5.57,1.52s-3.69-.48-5.39-1.42l-324.33-186.4c-15.83-8.79-25.3-26.46-25.32-47.26-.02-20.78,9.41-38.47,25.23-47.32l326.49-188.77c1.71-.95,3.54-1.44,5.42-1.44s3.79.52,5.5,1.5l314.69,185.77c15.56,8.87,24.88,26.42,24.93,46.94.05,20.52-9.19,38.14-24.71,47.12Z"/>
  <g>
    <path class="st9" d="M867.99,834.24c3.27,0,4.92,1.57,4.92,4.69l-.45,52.39c-.63,3.27-2.49,4.9-5.58,4.9-1.55,0-2.72-.52-3.49-1.56-.78-1.04-1.32-2.3-1.63-3.79l-3.57-46.82-100.33,4.02-3.12,310.8,77.59-2.23c3.27,0,4.91,1.63,4.91,4.91s-1.49,4.91-4.46,4.91l-78.04,2.68-.89,79.82,34.34-1.78c3.27,0,4.91,1.48,4.91,4.46,0,3.57-1.49,5.35-4.46,5.35l-98.1,5.35c-.37.07-.73.11-1.07.11-1.03,0-1.94-.33-2.72-1-1.05-.89-1.56-2.08-1.56-3.57,0-2.98,1.63-4.77,4.91-5.36l36.57-1.78-18.28-400.87-32.11,1.34c-1.48,0-2.75-.37-3.79-1.11-1.04-.75-1.56-1.86-1.56-3.35,0-3.57,1.64-5.36,4.91-5.36l192.18-7.13M867.99,822.24c-.15,0-.3,0-.45,0l-192.01,7.13c-9.81.13-16.63,7.23-16.63,17.36,0,5.33,2.39,10.11,6.56,13.1,3.1,2.21,6.82,3.37,10.79,3.37.17,0,.33,0,.5-.01l20.16-.84,17.19,376.98-24.62,1.2c-.52.03-1.04.08-1.55.18-8.97,1.62-14.77,8.36-14.77,17.17,0,5.01,2.05,9.52,5.77,12.7,2.94,2.52,6.58,3.87,10.51,3.87.77,0,1.56-.05,2.34-.16l97.24-5.3c9.48-.2,16.06-7.27,16.06-17.35s-6.95-16.46-16.91-16.46c-.21,0-.42,0-.62.02l-21.57,1.12.62-55.57,66.42-2.28c9.56-.12,16.21-7.04,16.21-16.9s-6.95-16.91-16.91-16.91c-.11,0-.23,0-.34,0l-65.12,1.87,2.88-286.92,77.36-3.1,2.69,35.28c.04.51.11,1.01.21,1.51.66,3.22,1.93,6.09,3.77,8.55,3.02,4.06,7.8,6.38,13.11,6.38,8.85,0,15.66-5.75,17.37-14.65.14-.71.21-1.43.21-2.15l.45-52.39s0-.07,0-.1c0-9.83-6.96-16.69-16.92-16.69h0Z"/>
    <path d="M872.46,891.32c-.63,3.27-2.49,4.9-5.58,4.9-1.55,0-2.72-.52-3.49-1.56-.78-1.04-1.32-2.3-1.63-3.79l-3.57-46.82-100.33,4.02-3.12,310.8,77.59-2.23c3.27,0,4.9,1.63,4.9,4.91s-1.49,4.91-4.46,4.91l-78.04,2.68-.89,79.82,34.34-1.78c3.27,0,4.9,1.48,4.9,4.46,0,3.57-1.49,5.35-4.46,5.35l-98.1,5.35c-1.49.29-2.75,0-3.79-.89-1.05-.89-1.56-2.08-1.56-3.57,0-2.98,1.63-4.77,4.9-5.36l36.57-1.78-18.28-400.87-32.11,1.34c-1.48,0-2.75-.37-3.79-1.11-1.04-.75-1.56-1.86-1.56-3.35,0-3.57,1.64-5.36,4.91-5.36l192.18-7.13c3.27,0,4.92,1.57,4.92,4.69l-.45,52.39Z"/>
  </g>
  <g>
    <path class="st9" d="M869.03,1032.23c5.94,0,12.56.82,19.84,2.45,7.28,1.64,14.05,4.09,20.29,7.36,6.24,3.28,11.52,7.51,15.83,12.71,4.31,5.2,6.47,11.37,6.47,18.51s-2.23,13.38-6.69,18.73c-4.46,5.35-9.96,9.81-16.5,13.38-6.54,3.57-13.53,6.17-20.96,7.8-7.43,1.64-14.12,2.45-20.07,2.45-6.24,0-13.31-.74-21.18-2.23-7.88-1.48-15.24-3.86-22.07-7.13-6.84-3.27-12.56-7.65-17.17-13.16-4.61-5.5-6.91-12.26-6.91-20.29s2.52-14.12,7.58-19.18c5.05-5.05,11.15-9.21,18.28-12.49,7.13-3.27,14.72-5.57,22.74-6.91,8.03-1.34,14.86-2.01,20.51-2.01M867.69,1105.81c9.51,0,17.84-3.19,24.97-9.59,7.13-6.39,10.7-14.34,10.7-23.86,0-11-2.83-18.8-8.47-23.41-5.65-4.61-13.68-6.91-24.08-6.91s-19.11,2.75-26.98,8.25c-7.88,5.5-11.82,13.9-11.82,25.19,0,10.11,3.64,17.69,10.93,22.74,7.28,5.06,15.53,7.58,24.75,7.58M869.03,1020.23c-6.37,0-13.72.71-22.49,2.17-9.02,1.5-17.69,4.14-25.77,7.84-8.42,3.87-15.74,8.88-21.77,14.91-7.36,7.36-11.1,16.67-11.1,27.66s3.27,20.32,9.72,28c5.68,6.79,12.82,12.27,21.19,16.27,7.73,3.7,16.15,6.43,25.02,8.1,8.53,1.62,16.41,2.44,23.4,2.44s14.42-.92,22.65-2.73c8.48-1.86,16.6-4.89,24.12-8.99,7.85-4.29,14.57-9.75,19.97-16.23,6.28-7.54,9.47-16.43,9.47-26.41s-3.1-18.76-9.22-26.16c-5.32-6.41-11.88-11.69-19.5-15.69-7.15-3.74-14.96-6.58-23.23-8.44-8.14-1.82-15.7-2.75-22.48-2.75h0ZM867.69,1093.81c-6.78,0-12.64-1.78-17.9-5.44-2.69-1.87-5.77-5.01-5.77-12.89,0-9.47,3.57-13.18,6.69-15.36,5.87-4.1,12.44-6.09,20.11-6.09s13.07,1.42,16.5,4.21c3.35,2.74,4.05,9.18,4.05,14.11,0,6.08-2.13,10.82-6.71,14.92-4.9,4.39-10.45,6.53-16.97,6.53h0Z"/>
    <path d="M931.46,1073.26c0,7.13-2.23,13.38-6.69,18.73s-9.96,9.81-16.5,13.38c-6.54,3.57-13.53,6.17-20.96,7.8-7.43,1.64-14.12,2.45-20.07,2.45-6.24,0-13.31-.74-21.18-2.23-7.88-1.48-15.24-3.86-22.07-7.13-6.84-3.27-12.56-7.65-17.17-13.16-4.61-5.5-6.91-12.26-6.91-20.29s2.52-14.12,7.58-19.18c5.05-5.05,11.15-9.21,18.28-12.49,7.13-3.27,14.72-5.57,22.74-6.91,8.03-1.34,14.86-2.01,20.51-2.01,5.94,0,12.56.82,19.84,2.45,7.28,1.64,14.05,4.09,20.29,7.36,6.24,3.28,11.52,7.51,15.83,12.71,4.31,5.2,6.47,11.37,6.47,18.51ZM903.36,1072.37c0-11-2.83-18.8-8.47-23.41-5.65-4.61-13.68-6.91-24.08-6.91s-19.11,2.75-26.98,8.25c-7.88,5.5-11.82,13.9-11.82,25.19,0,10.11,3.64,17.69,10.93,22.74,7.28,5.06,15.53,7.58,24.75,7.58s17.84-3.19,24.97-9.59c7.13-6.39,10.7-14.34,10.7-23.86Z"/>
  </g>
  <g>
    <path d="M1013.6,1121.62c-6.62,0-14.12-.79-22.3-2.33-8.35-1.57-16.28-4.14-23.55-7.62-7.59-3.62-14.04-8.58-19.18-14.72-5.51-6.57-8.31-14.69-8.31-24.14s3.14-17.22,9.34-23.42c5.52-5.53,12.26-10.13,20.02-13.7,7.6-3.48,15.76-5.96,24.26-7.38,8.31-1.38,15.55-2.09,21.5-2.09,6.34,0,13.45.87,21.15,2.6,7.77,1.75,15.09,4.4,21.76,7.9,6.92,3.63,12.86,8.41,17.67,14.19,5.21,6.29,7.85,13.81,7.85,22.34s-2.72,16.14-8.08,22.57c-4.92,5.9-11.05,10.88-18.23,14.8-7.03,3.83-14.61,6.66-22.55,8.4-7.8,1.72-14.99,2.59-21.35,2.59ZM1017.16,1048.04c-8.93,0-16.63,2.34-23.54,7.17-6.23,4.35-9.25,10.98-9.25,20.28,0,8.09,2.73,13.92,8.34,17.81,6.31,4.38,13.29,6.51,21.33,6.51s14.92-2.63,20.97-8.06c5.86-5.25,8.71-11.59,8.71-19.39,0-9.05-2.11-15.37-6.27-18.77-4.52-3.69-11.35-5.56-20.28-5.56Z"/>
    <path class="st9" d="M1015.38,1032.23c5.94,0,12.56.82,19.84,2.45,7.28,1.64,14.05,4.09,20.29,7.36,6.24,3.28,11.52,7.51,15.83,12.71,4.31,5.2,6.47,11.37,6.47,18.51s-2.23,13.38-6.69,18.73c-4.46,5.35-9.96,9.81-16.5,13.38-6.54,3.57-13.53,6.17-20.96,7.8-7.43,1.64-14.12,2.45-20.07,2.45-6.24,0-13.31-.74-21.18-2.23-7.88-1.48-15.24-3.86-22.07-7.13-6.84-3.27-12.56-7.65-17.17-13.16-4.61-5.5-6.91-12.26-6.91-20.29s2.52-14.12,7.58-19.18c5.05-5.05,11.15-9.21,18.28-12.49,7.13-3.27,14.72-5.57,22.74-6.91,8.03-1.34,14.86-2.01,20.51-2.01M1014.04,1105.81c9.51,0,17.84-3.19,24.97-9.59,7.13-6.39,10.7-14.34,10.7-23.86,0-11-2.83-18.8-8.47-23.41-5.65-4.61-13.68-6.91-24.08-6.91s-19.1,2.75-26.98,8.25c-7.88,5.5-11.82,13.9-11.82,25.19,0,10.11,3.64,17.69,10.93,22.74,7.28,5.06,15.53,7.58,24.75,7.58M1015.38,1020.23c-6.37,0-13.72.71-22.49,2.17-9.02,1.5-17.69,4.14-25.77,7.84-8.42,3.87-15.74,8.88-21.77,14.91-7.36,7.36-11.1,16.67-11.1,27.66s3.27,20.32,9.72,28c5.68,6.79,12.82,12.27,21.19,16.27,7.73,3.7,16.15,6.43,25.02,8.1,8.53,1.62,16.41,2.44,23.4,2.44s14.42-.92,22.65-2.73c8.48-1.86,16.6-4.88,24.12-8.99,7.85-4.29,14.57-9.75,19.97-16.23,6.28-7.54,9.47-16.43,9.47-26.41s-3.1-18.76-9.22-26.16c-5.32-6.41-11.88-11.69-19.5-15.69-7.15-3.74-14.96-6.58-23.23-8.44-8.14-1.82-15.7-2.75-22.48-2.75h0ZM1014.04,1093.81c-6.78,0-12.64-1.78-17.9-5.44-2.69-1.87-5.77-5.01-5.77-12.89,0-9.47,3.57-13.18,6.69-15.36,5.87-4.1,12.44-6.09,20.11-6.09s13.07,1.42,16.5,4.21c3.35,2.74,4.05,9.18,4.05,14.11,0,6.08-2.13,10.82-6.71,14.92-4.9,4.39-10.45,6.53-16.97,6.53h0Z"/>
  </g>
  <g>
    <path d="M1212.47,1138.57c-3.27,0-6.08-1.27-8.13-3.66-1.81-2.11-2.77-4.77-2.77-7.69,0-2.32.1-4.71.31-7.1-.51.18-1.02.36-1.55.53-4.17,1.39-8.53,2.64-12.98,3.71-4.45,1.08-8.92,1.94-13.27,2.56-4.39.63-8.43.95-11.99.95-5.92,0-13.15-.54-21.5-1.61-8.64-1.09-17.01-3.25-24.88-6.4-8.1-3.23-15.11-7.62-20.84-13.02-6.43-6.06-9.69-13.75-9.69-22.87,0-9.97,3.39-18.32,10.07-24.81,6.01-5.85,13.39-10.62,21.95-14.17,8.29-3.44,17.08-5.9,26.13-7.3,8.89-1.38,16.7-2.08,23.22-2.08,8.1,0,16.18.87,24.03,2.59,4.94,1.09,9.78,2.81,14.49,5.15.05-2.24.07-4.46.07-6.65v-17.39c0-28.2-.15-57.21-.45-86.23-.28-26.58-.69-53.58-1.22-80.35h-20.88c-6.9,0-11.35-4.28-11.35-10.91s4.46-10.91,11.35-10.91h57.08c6.62,0,10.91,4.46,10.91,11.35,0,2.82-.16,5.81-.48,8.87-.28,2.67-.58,5.3-.89,7.81l-2.67,30.66c-2.65,32.13-4.45,64.88-5.33,97.3-.89,26-1.34,52.78-1.34,79.66v24.53c0,5.41.07,10.9.2,16.42,1.57-.48,3.18-.96,4.81-1.44,2.54-.75,4.86-1.42,6.95-2.02,3.28-.94,4.6-1.13,5.67-1.13,6.62,0,10.9,4.28,10.9,10.91,0,4.91-2.72,8.74-7.46,10.52-.21.08-.42.15-.64.2-.62.16-2.55.7-8.6,2.58-4.77,1.49-9.83,3.06-15.2,4.69-5.36,1.64-10.27,3.13-14.74,4.47-7.02,2.11-8.2,2.26-9.3,2.26ZM1169.66,1057.41c-4.84,0-9.75.62-14.6,1.83-4.73,1.18-9.03,2.96-12.78,5.3-3.48,2.16-6.16,4.96-8.2,8.56-2,3.53-3.01,7.93-3.01,13.1,0,4.15.8,7.47,2.37,9.87,1.67,2.57,3.85,4.53,6.66,5.98,3.08,1.6,6.54,2.67,10.29,3.17,4.14.56,8.38.84,12.59.84,7.51,0,15.27-.99,23.07-2.94,6.52-1.63,12.38-4.42,17.46-8.31.22-4.15.39-8.44.52-12.8.12-4.47.19-8.93.21-13.29-4.03-3.53-8.85-6.23-14.37-8.04-6.65-2.17-13.45-3.27-20.21-3.27Z"/>
    <path class="st9" d="M1239.67,836.92c3.27,0,4.91,1.78,4.91,5.35,0,2.68-.15,5.43-.45,8.25-.3,2.83-.6,5.43-.89,7.8l-2.68,30.77c-2.68,32.41-4.46,64.96-5.35,97.66-.89,26.16-1.34,52.77-1.34,79.82v24.53c0,8.03.15,16.21.45,24.53.89-.29,2.52-.81,4.91-1.56,2.38-.74,4.83-1.48,7.36-2.23,2.52-.74,4.83-1.41,6.91-2.01,2.08-.59,3.41-.89,4.01-.89,3.27,0,4.9,1.64,4.9,4.91,0,2.38-1.19,4.01-3.57,4.91-1.19.3-4.17,1.19-8.92,2.68-4.76,1.49-9.81,3.05-15.16,4.68-5.35,1.64-10.26,3.12-14.72,4.46-4.46,1.34-6.99,2.01-7.58,2.01-1.49,0-2.68-.52-3.57-1.56-.89-1.04-1.34-2.3-1.34-3.79,0-2.68.15-5.42.45-8.25.29-2.82.45-5.57.45-8.25-2.68,1.49-6.02,2.9-10.03,4.24-4.01,1.34-8.18,2.53-12.49,3.57-4.31,1.05-8.55,1.86-12.71,2.45-4.17.6-7.88.89-11.15.89-5.65,0-12.56-.52-20.74-1.56-8.18-1.04-15.98-3.04-23.41-6.02-7.43-2.97-13.75-6.91-18.95-11.82-5.21-4.91-7.8-11.07-7.8-18.51,0-8.32,2.75-15.16,8.25-20.51,5.5-5.35,12.19-9.66,20.07-12.93,7.87-3.27,16.12-5.57,24.75-6.91,8.62-1.34,16.05-2.01,22.3-2.01,7.73,0,15.31.82,22.74,2.45,7.43,1.64,14.56,4.84,21.4,9.59.29-5.64.45-11.29.45-16.94v-17.39c0-28.83-.15-57.59-.45-86.29-.3-28.69-.75-57.45-1.34-86.29h-26.75c-3.57,0-5.35-1.63-5.35-4.91s1.78-4.9,5.35-4.9h57.08M1162.97,1112.05c8.03,0,16.2-1.04,24.53-3.12,8.32-2.08,15.61-5.8,21.85-11.15.29-5.05.52-10.26.67-15.61.15-5.35.22-10.7.22-16.05-5.06-5.05-11.22-8.76-18.51-11.15-7.29-2.38-14.65-3.57-22.07-3.57-5.35,0-10.7.67-16.05,2.01-5.35,1.34-10.19,3.34-14.49,6.02-4.31,2.68-7.73,6.24-10.26,10.7-2.53,4.46-3.79,9.81-3.79,16.05,0,5.35,1.12,9.74,3.34,13.15,2.23,3.42,5.2,6.1,8.92,8.03,3.71,1.94,7.8,3.2,12.26,3.79,4.46.6,8.92.89,13.38.89M1239.67,824.92h-57.08c-10.22,0-17.35,6.95-17.35,16.9s7.14,16.91,17.35,16.91h14.99c.48,24.79.85,49.76,1.1,74.41.3,28.99.45,57.98.45,86.16v15.07c-2.4-.82-4.82-1.5-7.27-2.04-8.28-1.82-16.8-2.73-25.33-2.73-6.83,0-14.95.72-24.14,2.15-9.52,1.48-18.78,4.06-27.51,7.69-9.26,3.85-17.28,9.03-23.84,15.42-7.77,7.55-11.88,17.62-11.88,29.11,0,10.68,4,20.1,11.57,27.24,6.28,5.92,13.93,10.71,22.73,14.23,8.33,3.34,17.2,5.62,26.35,6.78,8.59,1.1,16.08,1.66,22.25,1.66,3.85,0,8.18-.34,12.86-1.01,4.52-.64,9.18-1.54,13.83-2.67,2.3-.55,4.58-1.16,6.84-1.8.24,3.92,1.68,7.51,4.2,10.44,3.15,3.69,7.66,5.74,12.67,5.74,2.02,0,3.81-.35,11.03-2.51,4.7-1.41,9.67-2.92,14.78-4.48,5.22-1.59,10.36-3.18,15.24-4.71,6.29-1.96,7.91-2.4,8.26-2.49.44-.11.87-.24,1.29-.4,7.11-2.67,11.35-8.7,11.35-16.14,0-9.95-6.95-16.91-16.9-16.91-1.87,0-3.85.37-7.31,1.35-1.34.39-2.77.8-4.27,1.24-.04-2.83-.05-5.64-.05-8.43v-24.53c0-26.79.45-53.51,1.33-79.41,0-.03,0-.05,0-.08.88-32.31,2.67-64.93,5.31-96.97l2.65-30.53c.31-2.49.61-5.11.89-7.79.34-3.29.51-6.48.51-9.51,0-10.22-6.95-17.35-16.91-17.35h0ZM1162.97,1100.05c-3.94,0-7.9-.26-11.78-.78-3.12-.41-5.83-1.24-8.31-2.54-1.91-.99-3.31-2.24-4.41-3.94-.92-1.41-1.4-3.68-1.4-6.6,0-4.12.75-7.53,2.23-10.13,1.54-2.71,3.54-4.81,6.14-6.43,3.23-2.01,6.95-3.55,11.08-4.58,4.37-1.09,8.8-1.65,13.14-1.65,6.12,0,12.29,1,18.35,2.98,3.87,1.27,7.24,2.97,10.2,5.17-.03,3.4-.1,6.84-.19,10.3-.09,3.3-.22,6.57-.37,9.77-3.89,2.59-8.2,4.46-13.06,5.67-7.34,1.84-14.61,2.77-21.62,2.77h0Z"/>
  </g>
  <text class="st17" transform="translate(785.01 1008.52)"><tspan x="0" y="0">Canned</tspan></text>
  <path class="st1" d="M785.01,1524.69c-4.78-2.07-10.13-.68-13.42,3-5.65-4.56-11.38-8.98-17.18-13.32-8.81-6.64-17.8-13.01-26.83-19.33-11.4-8.01-23.24-15.34-35.13-22.6l40.53,9.28c17.62,3.89,35.23,7.85,52.87,11.71-.9,5.23,1.81,10.59,6.9,12.79,5.97,2.58,12.9-.16,15.48-6.13,2.58-5.97-.16-12.9-6.13-15.48-5.97-2.58-12.9.16-15.48,6.13-.14.32-.21.66-.31.99-17.35-5-34.73-9.9-52.09-14.87l-62.9-17.46c14.39-19.96,29.31-39.55,42.72-60.19,7.05-10.82,14.06-21.67,20.8-32.71,4.4-7.17,8.73-14.4,12.92-21.72.26.14.49.31.76.43,5.97,2.58,12.9-.16,15.48-6.13,2.58-5.97-.16-12.9-6.13-15.48-5.97-2.58-12.9.16-15.48,6.13-1.97,4.54-.83,9.63,2.45,12.95-5.38,6.53-10.63,13.15-15.8,19.82-7.94,10.21-15.62,20.6-23.25,31.02-13.12,17.88-25.01,36.62-37.18,55.16l-7.5-65.94-7.86-65.3c3.82-.63,7.26-3.11,8.91-6.92,2.58-5.97-.16-12.9-6.13-15.48-5.97-2.58-12.9.16-15.48,6.13-2.58,5.97.16,12.9,6.13,15.48,1.62.7,3.31.98,4.97.94l4.47,65.62,5.22,70.04-45.68-28.41c-15.47-9.46-30.91-18.97-46.4-28.4.18-.33.4-.63.55-.99,2.58-5.97-.16-12.9-6.13-15.48-5.97-2.58-12.9.16-15.48,6.13s.16,12.9,6.13,15.48c5.06,2.19,10.79.52,14-3.67,14.84,10.41,29.73,20.74,44.59,31.12l34.27,23.55c-13.39-3.84-26.8-7.59-40.42-10.56-10.76-2.37-21.53-4.67-32.38-6.67-7.04-1.32-14.11-2.53-21.21-3.6.46-4.94-2.2-9.82-7-11.9-5.97-2.58-12.9.16-15.48,6.13-2.58,5.97.16,12.9,6.13,15.48,5.97,2.58,12.9-.16,15.48-6.13,0-.02.01-.04.02-.06,6.74,2.44,13.52,4.73,20.32,6.92,10.49,3.41,21.07,6.51,31.65,9.55,17.72,5.12,35.78,8.86,53.78,12.86l-38.31,57.81-35.99,55.09c-.43-.25-.84-.53-1.31-.73-5.97-2.58-12.9.16-15.48,6.13-2.58,5.97.16,12.9,6.13,15.48,5.97,2.58,12.9-.16,15.48-6.13,2.16-4.99.56-10.61-3.49-13.85l38.79-53.14,38.78-53.86c1.55,22.12,2.76,44.28,5.46,66.3,1.56,12.82,3.17,25.64,5.11,38.43,1.33,8.95,2.77,17.9,4.42,26.82-3.48.83-6.55,3.2-8.08,6.74-2.58,5.97.16,12.9,6.13,15.48,5.97,2.58,12.9-.16,15.48-6.13,2.58-5.97-.16-12.9-6.13-15.48-1.35-.58-2.74-.86-4.13-.92-.05-9.07-.31-18.12-.67-27.17-.48-12.92-1.28-25.82-2.15-38.71-1.49-22.71-4.55-45.27-7.21-67.88,16.95,11.69,33.58,23.87,51.19,34.56,9.4,5.74,18.84,11.42,28.46,16.84,6.29,3.57,12.63,7.05,19.06,10.39-.02.05-.06.1-.08.15-2.58,5.97.16,12.9,6.13,15.48,5.97,2.58,12.9-.16,15.48-6.13s-.16-12.9-6.13-15.48Z"/>
  <path class="st19" d="M1181.75,1273.68c1.74-2.11,5.1-.12,4.07,2.42-11.7,28.58-23.21,59.15-34.18,91.65-5.95,17.62-11.42,34.89-16.47,51.75-8.74,29.22,6.51,60.2,35.01,71.06,15.73,6,31.97,11.91,48.7,17.7,28,9.69,55.13,18.23,81.24,25.8,3.81,1.1,3.27,6.68-.69,7.02-13.04,1.11-26.46,1.94-40.23,2.43-64.42,2.31-123.22-3.14-174.96-12.26-22.75-4.01-37.46-26.28-32.34-48.81.64-2.8,1.34-5.67,2.11-8.59,8.97-33.85,23.47-59.34,52.36-100.91,18.99-27.34,43.96-61.26,75.38-99.24Z"/>
  <path class="st19" d="M634.56,579.09l-89.31,124.39,89.31,124.39,89.31-124.39-89.31-124.39ZM556.36,703.48l78.19-108.91,78.19,108.91-78.19,108.91-78.19-108.91Z"/>
</svg>