<?xml version="1.0" encoding="UTF-8"?>
<svg id="Layer_1" xmlns="http://www.w3.org/2000/svg" version="1.1" viewBox="0 0 2048 2048">
  <!-- Generator: Adobe Illustrator 30.3.0, SVG Export Plug-In . SVG Version: 2.1.3 Build 182)  -->
  <defs>
    <style>
      .st0 {
        fill: #057583;
      }

      .st1 {
        fill: #b5c1c0;
      }

      .st2 {
        fill: #097e8e;
      }

      .st3 {
        fill: #f7ccaf;
      }

      .st4 {
        fill: #027181;
      }

      .st5 {
        fill: #0b0606;
      }

      .st6 {
        fill: #b1cacf;
      }

      .st7 {
        fill: #048da0;
      }

      .st8 {
        fill: #f6e8d2;
      }

      .st9 {
        fill: #f3c096;
      }

      .st10 {
        fill: #046b7d;
      }

      .st11 {
        fill: #fff;
      }

      .st12 {
        fill: #c2dae2;
      }

      .st13 {
        fill: #b63f2b;
      }

      .st14 {
        fill: #e24c31;
      }
    </style>
  </defs>
  <path class="st5" d="M811.95,874.5c-69.37,178.56-87.74,188.53-89.61,387.35-.31,88.93-.04,177.86.86,266.78.16,33.2,1.72,99.97-2.73,131.7,3.24,7.87,2.07,20.37,2.03,29.36-16.07,190.55,39.35,265.95,229.64,285.37,15.91.39,30.92,1.44,46.75,2.44,53.62,3.38,106.18-4.82,159.41-6.87,21.17-10.5,80.72-20.31,110.74-41.06,43.36-29.94,57.32-72.4,69.96-119.92,3.98-48.73,4.21-96.63,5.11-145.5l.51-350.26c.12-46.61,2.89-149.29-4.21-189.71-14.12-80.43-60.29-176.39-88.13-256.37-61.46-176.57-90.08-355.6-97.14-542.18,1.72-14.46.62-29.17-.7-43.63,10.18-3.96,31.9-14.75,40.91-15.97,21.84-28.87,18.52-62.63,16.77-97.63-3-59.74-71.44-59.87-123.77-65.37-45.66-4.8-189.4-8.31-221.68,37.48-8.38,11.9-8.27,85.77-4.17,102.64,3.51,22,32.68,28.82,46.4,43.19-1.44,16.28-2.73,44.2-5.15,59.12,2.38,142.54-40.32,396.55-91.79,529.05ZM1332.25,1515.37l-13.61,3.11c-36.19,8.58-66.29,15.95-103.57,19.68-153.01,23.16-328.06,11.24-479.2-19.82-.59-47.14-1.01-91.92.39-139.09,150.13,31.4,319.79,31.63,472.34,16.26,5.81-1.88,38.6-4.6,45.19-4.82l5.42-1.11c10.1-2.56,66.84-15.77,72.57-12.42,0,12.62,1.68,25.16-.7,37.62,1.33,33.54,1.37,67.04,1.17,100.6ZM1328.98,1770.07c-6.32,52.55-4.64,79.89-42.19,126.33-68.67,78.07-227.65,67.87-323.26,66.67-48.98-6.73-131.53-16.68-170.72-47.87-44.02-35.03-60.36-103.18-56.07-156.73.94-12,22.03-2.58,19.42,7.58.51,136.06,92.57,165.24,214.08,173.94,94.17-.82,228.27,10.77,300.76-59.48,21.37-40.07,30.69-68.82,33.34-114.41.7-11.73,29.13-33.32,24.64,3.96ZM1332.13,1719.45c-.35,22.56-21.49,23.96-41.8,27.99-13.02,4.29-26.01,8.41-39.03,12.73,2.03-33.88.16-65.84.31-99.45v-2.45c-.9-23.16,4.25-58.81-5.46-77.71l-3.9,1.27-2.18,1.95c-1.05,59.03.74,116.58-.51,175.68-27.61,2.03-52.21,7.58-79.82,8.71-95.54,5.47-187.6,8.08-282.59-3.46-19.46-2.36-51.9-9.02-69.18-4.6l4.68,8.31c88.36,17.5,223.4,21.58,314.26,14,42.04-4.86,69.37-5.5,113.2-12.65-1.17,12.45-12.48,86.17-2.22,90.97,11.04-1.49,10.96-49.04,11.27-59.5.43-10.53.9-21.06,1.44-31.58,14.15-3.86,27.61-7.31,41.65-11.49-13.84,104.34-20.55,142.42-137.65,160.54-57.09,8.83-152.78,16.96-208.93,5.47-104.89-2.45-179.18-48.78-177.15-156.3.19-11.65,14.12-5.53,22.34-6.25l-.43-7.02c-16.38-6.65-36.69-9.67-54.36-15.99-.04-9.51-.39-19.61-.19-29.01.51-48.1.39-96.19-.31-144.28-.12-13.95.31-25.27.74-39.15,16.3,5.29,40.09,11.68,55.02,17.07l17,1.97c120.73,16.01,277.21,26.64,398.21,6.03,7.8-1.83,7.49-1.55,15.99-1.33,36.46-8.46,73.27-12.83,109.38-23.37.23,25.34,1.83,52.87-1.21,77.82.27,4.32.55,8.65.82,12.97,1.87,36.13,1.21,65.99.62,102.11ZM1331.86,1216.34c.62,31.81.12,62.23,1.21,94.23.12,16.08-.9,33.31-1.25,49.68l-7.53,2.42c-40.63,13.42-67.5,18.38-110.16,20.57-178.2,17.3-302.28,10.77-478.27-14.08-1.52-43.49-2.65-167.13,1.75-206.74l7.21-2.64c15.71,5.61,34.28,15.86,47.69,4.15-10.02-4.81-13.8-5.38-20.51-14.13,5.81-83.77,68.01-217.51,95.34-304.69,31.59-100.63,41.06-163.89,57.56-265.96l7.92-3.48,17.47,9.79c49.37,7.1,93.27,12.36,142.88,3.77,11.74-2.86,30.77-9.1,41.68-6.65,11.07,31.83,13.8,70.96,21.14,104.39,26.63,121.68,74.01,236.25,115.15,353.26,10.92,31.11,17.86,78.3,24.68,111.56l-48.35,12.16c-4.06-33.99-13.14-161.23-33.18-179.39-2.85,14.46,18.13,154.26,20.94,181.84-15.44,1.81-32.29,4.25-47.69,5.05-102.44,7.68-205.7,10.38-307.94-1.48-16.46-1.91-47.85-6.43-63.02-2.12l3.9,8.54c68.59,19.99,290.7,15.98,368.54,9,9.48-2.84,34.86-4.3,47.69-6.74.62,12.36,2.03,81.65,4.68,83.5,18.99,13.09,5.3-78,4.72-84.08,24.29-6,49.83-11.56,73.08-20.64,24.18-6.69,12.28,39.96,12.67,58.91ZM929.36,562.35c50.61-23.11,101.89-29.77,156.99-18.44,55.49,17.43,63.05,17.51,7.02,35.5-50.42,1.26-104.27,8.59-152.97-12.24l-11.04-4.83ZM902.57,212.3c-3.51-24.25-1.33-47.51,14.58-67.23,2.61-3.21,5.34-6.34,7.99-9.53.9.28,1.76.6,2.69.86,3.28.93,6.78,1.07,8.34,4.53,1.56,3.36-.39,7.51-1.95,10.46-25.19,46.73,3.59,70.49-3.63,97.68-3.16-1.74-6.67-3.35-9.59-5.46-10.53-7.57-16.61-18.6-18.44-31.3ZM919.15,281.57l47.22,7.31,27.72,3.38c25.15,3.03,63.37,1.4,88.87.45,21.56-3.65,40.2-6.86,61.53-11.89-16.88,121.76,45.43,455.72,91.32,578.78,27.65,74.16,60.44,155.52,85.2,231.85,6.04,18.67,9.71,36-1.05,52.65l-8.27,2.85c-14.51-32.23-21.88-93.55-34.51-129.6-15.95-45.64-34.51-90.39-50.46-135.91-32.01-90.73-56.39-183.99-72.8-278.78-7.64-47.36-14.19-94.89-19.58-142.56-2.61-24.7-6.28-123.75-12.36-138.06-17.66,21.52,6.43,186.26,10.37,224.46-33.34-13.5-32.37-8.85-60.36-16.74-42.46-2.8-80.33-2.69-121.19,11.04-6.98,2.05-10.8,2.79-17.9,4.22-3.78-39.11,22.93-217.59,7.88-241.02l-4.25,2.95c-6.43,26.78-3.98,69.23-6.16,98.73-11.54,158.38-32.56,313.6-83.14,464.67-19.42,57.92-41.8,110.09-62.98,167.12-8.66,23.29-18.25,101.17-28.66,110.31-14.78-1.74-9.75,1.69-18.44-6.58,1.52-65.37,47.5-161.72,70.81-221.3,16.14-40.63,30.14-82.1,41.88-124.23,48.51-171.4,63.33-337.29,69.29-514.08Z"/>
  <path class="st3" d="M275.43,1188.45c11.5-13.98,9.9-17.33,25.46-24.6l-5.3-11.29c1.25-5.75,1.75-5.76,4.91-11.34l9.36,15.08c6.75,18.03-6.16,23.99-1.05,29.38,23.2,24.51-10.84,25.65-8.73,14.88,1.25-6.56-2.53-24.88-19.93,1.75,38.02,114.45,98.03,222.42,187.76,304.55,15.48,15.01,31.12,29.9,46.87,44.65,51.28,35.64,109.26,79.8,166.08,106.12,26.32-14.45-12.36-20.5-.16-34.88,9.98-11.79,22.66-12.18,22.93,4.84.12,7.35,10.92,26.38,16.85,32.75,4.45-31.73,2.89-98.5,2.73-131.7-.9-88.93-1.17-177.85-.86-266.78,1.87-198.82,20.24-208.79,89.61-387.35,51.47-132.51,94.17-386.51,91.79-529.05-3.63-2.88-20.35-18.45-22.07-19.02-5.5,1.95-7.68,8.49-13.18,10.64-9.05-1.61,3.67-8.63-.55-19.13-1.37-1.13-2.77-2.27-4.17-3.41,2.42-1.56,32.37-9.63,35.41-7.47,4.56,3.24,3.86,31.55,4.56,38.39,2.42-14.92,3.7-42.84,5.15-59.12-65.98,11.83-136.13,19.95-197.66,51.34l3.86,6.7c5.19,8.82,12.17,7.63,18.09,13.48-.66,6.44-26.91,15.41-31.08,2.48-.9-2.85-13.26-6.04-15.25-4.67-24.29,16.78-5.97,17.42-38.92,13.38-32.29,19.28-105.6,64.7-129.97,88.69,1.72,13.49,16.92,19.65,23.75,17.84,3.7-.97,9.71-29.25,14.54-2.05,1.25,5.6,3.28,16.14-5.61,15.33-19.65-1.79-26.52,13.53-32.91,14.63-4.76-2.11-4.84-3.8-6.47-8.41-6.39-4.53-17.47-5.39-25.03-7.02-149.11,146.74-232.52,322.6-233.69,534.48-.16,15.17,1.01,30.33,3.51,45.3,2.85,47.09,7.99,74.67,19.38,120.62ZM788.83,336.93c3.55.42,8.07.53,11.5,2.06,4.41,1.99,7.53,5.3,8.93,10.03,1.72,5.83-1.44,9.48-4.37,14.4-9.9-6.43-14.43-15.65-18.02-26.75.62.09,1.29.18,1.95.26ZM632.77,405.38c2.03-3.04,5.65-4.55,9.24-3.82,3.59.73,6.36,3.56,7.02,7.14.66,3.58-.94,7.21-4.02,9.17-3.55,2.27-8.23,1.73-11.19-1.29-2.96-3.01-3.39-7.69-1.05-11.21ZM485.88,533.82c1.17-1.09,3.08-3.47,4.64-3.8.43-.09.59.06.9.23.2.42.39.85.62,1.26.86,1.57,1.01,1.43,1.68,3.39.74,2.12,1.17,4.35,2.07,6.42,4.09,9.9,4.64,11.12,1.64,21.61-3.98-3.57-7.02-5.82-9.63-10.28-2.57-4.34-5.07-8.11-7.84-12.28-.97-1.44-2.11-3.51-1.79-5.28,1.83-1.81,5.81-1.17,7.72-1.28ZM338.29,1222.53c-.35.14-.7.22-1.05.37-.9.39-1.79.84-2.65,1.26-1.17-.69-4.25-1.95-5.15-3.67l.12-.34c1.25-.69.82-.56,2.57-.81.55-.09,1.13-.1,1.72-.18,1.48-.2,2.92-.44,4.41-.66.51.53,1.05,1,1.52,1.58.51.65.35.74.16,1.38-.78.73-.51.6-1.64,1.06ZM372.79,1322.64c-2.42,29.09-39.11-3.98-22.77-11.59l20.51-11.44c.74,3.83,2.26,23.01,2.26,23.03ZM345.19,1262.4c1.48-.08,2.96-.2,4.45-.3,1.99,2.57,1.36,1.33,2.26,3.56-.08.5.04,1.05-.47,1.35-1.48.94-3.35.47-4.99.4-.97-.47-5.77-2.14-6.47-4.02.94-.88,2.38-.88,3.59-.96.55-.04,1.09-.02,1.64-.05ZM324.87,787.42c.9-.48,4.8-3.17,6.71-2.54.39.13.39.31.59.65-.16,2.53-2.5,4.18-4.09,5.87-1.13,2.25-2.22,6-4.76,7.5l-.47-.18c-1.09-3.45,1.05-8.25,2.03-11.3ZM309.7,814.71c1.83.56,3.63,1.14,5.42,1.68,3,.89,9.24,1.97,11.43,4.97.78,1.06.55,2.34.35,3.54-.27,2.25-.86,4.45-.35,6.71.74,3.23,4.45,5.44,7.06,7.04,2.92,1.81,1.36.6,4.09,2.58l5.58,4.17c-3.28-.18-6.51-.34-9.79-.48-7.56-.26-14.51.64-20.04-5.73-6.4-7.36-4.41-15.5-3.74-24.5ZM309.59,1118.22c2.03-4.84,4.09-9.55,5.97-14.45,3.55,2.96,9.01,6.58,10.45,11.39.97,3.4-.58,6.52-2.46,9.28-1.21,1.79-2.57,3.49-3.78,5.27-1.17,1.72-2.3,3.48-3.43,5.22-.39-.19-.78-.39-1.17-.57-2.26-1.07-5.42-2.01-6.55-4.57-1.75-3.93-.62-7.8.97-11.57Z"/>
  <path class="st8" d="M517.74,503.49c6.4-1.1,13.26-16.41,32.91-14.63,8.89.81,6.86-9.73,5.61-15.33-4.84-27.2-10.84,1.07-14.54,2.05-6.82,1.8-22.03-4.35-23.75-17.84-9.83,4.85-23.75,21.81-31.74,30.33,7.56,1.63,18.64,2.48,25.03,7.02,1.64,4.62,1.72,6.3,6.47,8.41Z"/>
  <path class="st8" d="M720.47,1660.33c-5.93-6.37-16.73-25.39-16.85-32.75-.27-17.02-12.95-16.63-22.93-4.84-12.21,14.38,26.48,20.43.16,34.88,15.91,16.14,31.12,8.02,41.65,32.07.04-8.99,1.21-21.5-2.03-29.36Z"/>
  <path class="st8" d="M300.07,1200.56c-2.11,10.77,31.94,9.63,8.73-14.88-5.11-5.39,7.8-11.34,1.05-29.38l-9.36-15.08c-3.16,5.58-3.67,5.59-4.91,11.34l5.3,11.29c-15.56,7.27-13.96,10.62-25.46,24.6,1.6,5.37,2.77,8.66,4.72,13.86,17.39-26.63,21.17-8.31,19.93-1.75Z"/>
  <path class="st8" d="M686.86,355.66c1.99-1.37,14.35,1.82,15.25,4.67,4.17,12.92,30.42,3.95,31.08-2.48-5.93-5.85-12.91-4.66-18.09-13.48l-3.86-6.7c-16.26,3.7-47.46,23.23-63.29,31.37,32.95,4.04,14.62,3.4,38.92-13.38Z"/>
  <path class="st8" d="M863.77,314.53c1.4,1.13,2.81,2.27,4.17,3.41,4.21,10.5-8.5,17.51.55,19.13,5.5-2.15,7.68-8.68,13.18-10.64,1.72.57,18.44,16.14,22.07,19.02-.7-6.84,0-35.15-4.56-38.39-3.04-2.16-32.99,5.91-35.41,7.47Z"/>
  <path class="st8" d="M372.79,1322.64s-1.52-19.2-2.26-23.03l-20.51,11.44c-16.34,7.61,20.35,40.69,22.77,11.59Z"/>
  <path class="st8" d="M333.49,844.94c3.28.13,6.51.29,9.79.48l-5.58-4.17c-2.73-1.99-1.17-.78-4.09-2.58-2.61-1.6-6.32-3.82-7.06-7.04-.51-2.26.08-4.47.35-6.71.19-1.2.43-2.47-.35-3.54-2.18-3-8.42-4.08-11.43-4.97-1.79-.54-3.59-1.12-5.42-1.68-.66,8.99-2.65,17.13,3.74,24.5,5.54,6.37,12.48,5.47,20.04,5.73Z"/>
  <path class="st8" d="M487.79,552.66c2.61,4.46,5.65,6.71,9.63,10.28,3-10.49,2.46-11.71-1.64-21.61-.9-2.07-1.33-4.3-2.07-6.42-.66-1.96-.82-1.82-1.68-3.39-.23-.41-.43-.84-.62-1.26-.31-.17-.47-.32-.9-.23-1.56.33-3.47,2.71-4.64,3.8-1.91.12-5.89-.52-7.72,1.28-.31,1.77.82,3.84,1.79,5.28,2.77,4.16,5.26,7.94,7.84,12.28Z"/>
  <path class="st8" d="M804.89,363.41c2.92-4.92,6.08-8.57,4.37-14.4-1.4-4.73-4.52-8.04-8.93-10.03-3.43-1.53-7.95-1.64-11.5-2.06-.66-.08-1.33-.17-1.95-.26,3.59,11.09,8.11,20.31,18.02,26.75Z"/>
  <path class="st8" d="M315.16,1134.36c.39.18.78.38,1.17.57,1.13-1.74,2.26-3.51,3.43-5.22,1.21-1.78,2.57-3.49,3.78-5.27,1.87-2.76,3.43-5.88,2.46-9.28-1.44-4.81-6.9-8.43-10.45-11.39-1.87,4.9-3.94,9.61-5.97,14.45-1.6,3.78-2.73,7.64-.97,11.57,1.13,2.56,4.29,3.5,6.55,4.57Z"/>
  <path class="st8" d="M645.01,417.87c3.08-1.96,4.68-5.59,4.02-9.17-.66-3.59-3.43-6.41-7.02-7.14-3.59-.73-7.21.78-9.24,3.82-2.34,3.52-1.91,8.2,1.05,11.21,2.96,3.02,7.64,3.55,11.19,1.29Z"/>
  <path class="st8" d="M323.31,798.9c2.53-1.49,3.63-5.25,4.76-7.5,1.6-1.69,3.94-3.34,4.09-5.87-.2-.35-.2-.52-.59-.65-1.91-.63-5.81,2.06-6.71,2.54-.97,3.05-3.12,7.85-2.03,11.3l.47.18Z"/>
  <path class="st8" d="M346.44,1267.42c1.64.07,3.51.53,4.99-.4.51-.31.39-.86.47-1.35-.9-2.24-.27-.99-2.26-3.56-1.48.1-2.96.21-4.45.3-.55.03-1.09,0-1.64.05-1.21.08-2.65.08-3.59.96.7,1.88,5.5,3.54,6.47,4.02Z"/>
  <path class="st8" d="M339.77,1220.08c-.47-.58-1.01-1.05-1.52-1.58-1.48.22-2.92.46-4.41.66-.58.08-1.17.09-1.72.18-1.75.25-1.33.12-2.57.81l-.12.34c.9,1.72,3.98,2.98,5.15,3.67.86-.42,1.75-.87,2.65-1.26.35-.15.7-.23,1.05-.37,1.13-.46.86-.33,1.64-1.06.2-.64.35-.74-.16-1.38Z"/>
  <path class="st3" d="M1223.07,301.85l-1.95,2.18c.47,3.99,5.34,9.16,3.74,11.44-4.41-2.04-22.73-3.03-30.06-4.63-2.11-3.61-5.65-40.17-31.9-20-8.11,22.3,30.77,21.86,30.1,44.04l-.82.59c-13.22-2.43-10.22-6.96-37.04-9.83,7.06,186.58,35.68,365.61,97.14,542.18,27.84,79.98,74.01,175.94,88.13,256.37,7.1,40.42,4.33,143.1,4.21,189.71l-.51,350.26c26.75-4.77,81.89-35.41,105.75-49.72.59-3.05,1.09-6.11,1.56-9.17,4.87-31.25,19.85-20.02,37.79-17.15,182.96-124.3,284.35-320.56,311.64-535.93-2.53-19.05-1.44-59.12-17.31-65.72-17.9-7.43,2.65-24.27,6.71-31.45-.62-2.46-17.9-14.2-9.9-30.86,5.5-.67,18.91-6.76,6.51-12.15-23.79-9.64-2.96-14.12-11.35-26.03-23.08-32.8,12.6-5.43,9.59-41.12l-.66-3.48c-10.26-12.9-11.23-26.27-17.24-34.71-3.86-1.52-19.58,8.5-20.32,9.18-10.33,10.83-24.49,5.97-20.98-8.68,1.29-5.39,1.56-13.66,5.19-15.58,1.25.1.35-.12,3.08,1.47l11.19,4.13c6.08-1.57,11.54-2.75,12.4-9.78-4.64-4.98-4.37-20.23-1.09-25.93l3.74-6.85c-3-21-32.95-75.02-44.06-96.45-25.15,38.59-29.52-16.18-46.52-14.29-14.97,14.63-12.44-1.13-12.56-.94,10.84-17.35,11.62-22.11,18.29-40.9l2.14-6.57c-24.14-34.1-53.93-68.03-82.59-98.45-4.56.48-9.44-.17-11.78,5.46-8.54,20.51-16.22-.17-19.58-2.62-34.9,2.73,1.17-30.48-18.6-28.82-7.56.63-21.72-2.87-27.41-6.86-2.18-1.51-3.51-3.93-3.67-6.56-.2-5.27,6.08-6.32,6.94-10.77-3.78-11.52-11.89,1.39-17.39-25.17-96-64.78-133.75-89.23-254.2-117.84-19.03,8.81-13.3-5.08-26.36-2ZM1754.76,832.74c.86.92.97,1.35.94,2.66,0,.37-.08.74-.08,1.12,0,1.02.04,2.04.08,3.06-.74-.2-1.52-.33-2.22-.65-.9-.39-1.05-1.56-1.09-2.36-.04-.42.04-.85.04-1.28,0-.78-.04-1.55-.08-2.33,2.07-.35,1.29-.46,2.42-.22ZM1732.96,1244.92c-1.13.72-2.14,1.67-3.51,1.66-1.29-1.38-1.25-2.77-1.75-4.75,1.6-1,3.51-2.79,5.58-2.77.86,1.8,0,4.03-.31,5.86ZM1717.56,1215.87c4.09-3.37,8.15-6.63,12.17-10.08,1.56,1.34,5.97,4.44,7.25,6.6.47.75.78,1.93.39,2.78-.39.92-1.87,1.55-2.73,1.84-4.37,1.55-8.19,2.32-11.74,5.33l-5.07,4.41c-1.52.23-4.33,1.03-5.65-.11-.9-.74-1.25-1.39-1.05-2.55.51-3.07,4.25-6.42,6.43-8.23Z"/>
  <path class="st8" d="M1775.5,885.97c8.38,11.9-12.44,16.39,11.35,26.03,12.4,5.39-1.01,11.48-6.51,12.15-7.99,16.65,9.28,28.4,9.9,30.86-4.06,7.18-24.61,24.02-6.71,31.45,15.87,6.61,14.78,46.67,17.31,65.72,6.28-32.88-3.08-178.58-15.75-207.33,3,35.69-32.68,8.32-9.59,41.12Z"/>
  <path class="st8" d="M1155.14,325.63c26.83,2.87,23.83,7.4,37.04,9.83l.82-.59c.66-22.18-38.21-21.75-30.1-44.04,26.24-20.17,29.79,16.39,31.9,20,7.33,1.6,25.66,2.59,30.06,4.63,1.6-2.28-3.28-7.44-3.74-11.44l1.95-2.18c13.06-3.09,7.33,10.8,26.36,2-11.58-9.32-49.05-15.12-54.09-37.81-9.01,1.22-30.73,12.01-40.91,15.97,1.33,14.47,2.42,29.17.7,43.63Z"/>
  <path class="st8" d="M1521.02,446.85c-.86,4.45-7.14,5.5-6.94,10.77.16,2.63,1.48,5.06,3.67,6.56,5.69,4,19.85,7.49,27.41,6.86,19.77-1.65-16.3,31.56,18.6,28.82,3.35,2.45,11.04,23.13,19.58,2.62,2.34-5.63,7.21-4.98,11.78-5.46-25.66-30.59-59.35-52.99-91.48-75.35,5.5,26.56,13.61,13.65,17.39,25.17Z"/>
  <path class="st8" d="M1657.27,642.95c.12-.19-2.42,15.57,12.56.94,17-1.88,21.37,52.88,46.52,14.29-5.97-15.35-27.34-50.14-38.64-62.7l-2.14,6.57c-6.67,18.79-7.45,23.55-18.29,40.9Z"/>
  <path class="st8" d="M1757.76,787.41c-.86,7.03-6.32,8.21-12.4,9.78-9.01,10.1-10.84,8.41-11.19-4.13-2.73-1.59-1.83-1.37-3.08-1.47-3.63,1.92-3.9,10.19-5.19,15.58-3.51,14.64,10.65,19.51,20.98,8.68.74-.69,16.46-10.7,20.32-9.18,6,8.43,6.98,21.81,17.24,34.71-1.68-10.98-4.09-21.83-7.17-32.49-5.65-18.9-9.63-35.4-16.85-54.25l-3.74,6.85c-3.28,5.7-3.55,20.95,1.09,25.93Z"/>
  <path class="st8" d="M1745.36,797.19l-11.19-4.13c.35,12.54,2.18,14.22,11.19,4.13Z"/>
  <path class="st8" d="M1451.42,1605.26c-.47,3.06-.97,6.12-1.56,9.17,11.11-5.97,31.16-16.73,39.35-26.32-17.94-2.87-32.91-14.1-37.79,17.15Z"/>
  <path class="st8" d="M1717.83,1226.75l5.07-4.41c3.55-3.01,7.37-3.78,11.74-5.33.86-.3,2.34-.92,2.73-1.84.39-.85.08-2.02-.39-2.78-1.29-2.16-5.69-5.26-7.25-6.6-4.02,3.46-8.07,6.71-12.17,10.08-2.18,1.81-5.93,5.16-6.43,8.23-.2,1.15.16,1.8,1.05,2.55,1.33,1.13,4.13.34,5.65.11Z"/>
  <path class="st8" d="M1727.69,1241.84c.51,1.98.47,3.37,1.75,4.75,1.36.01,2.38-.94,3.51-1.66.31-1.83,1.17-4.06.31-5.86-2.07-.02-3.98,1.77-5.58,2.77Z"/>
  <path class="st8" d="M1752.38,836.57c.04.81.2,1.97,1.09,2.36.7.32,1.48.45,2.22.65-.04-1.02-.08-2.04-.08-3.06,0-.37.08-.74.08-1.12.04-1.31-.08-1.74-.94-2.66-1.13-.24-.35-.14-2.42.22.04.78.08,1.55.08,2.33,0,.43-.08.85-.04,1.28Z"/>
  <path class="st9" d="M1175.92,1987.65c-10.33-2.76-21.37-2.28-31.9-3.52l1.4-.04-5.15-3.05c-1.13.25-2.26.5-3.39.76l.08-.26c12.71-5.33,9.87-2.55,21.33-10.9-53.23,2.04-105.79,10.24-159.41,6.87-15.83-1-30.84-2.05-46.75-2.44,27.3,10.98,127.94,16.72,159.8,15.87,10.61-1.32,63.83-3,63.95-3.06l.04-.23Z"/>
  <path class="st14" d="M797.72,1107.08c3.51-5.17,15.75-3.13,18.17,1.18,5.93,10.57-.31,41.49-.82,53.95l-.31,6.18,1.83-.55c15.17-4.31,46.56.21,63.02,2.12,102.24,11.86,205.5,9.16,307.94,1.48,3.51-42.06-33.73-183.23-41.49-230.37-17.24-104.55-49.95-248.57-52.88-351.86-49.6,8.6-93.51,3.33-142.88-3.77-9.05,72.84-86.96,446.72-136.56,475.76l-4.09-2.04c-6.16-28.47,13.69-57.94,22.69-83.93,42.31-122.59,90.62-265.59,100.22-395.27l.27-4.3-7.92,3.48c-16.49,102.07-25.97,165.33-57.56,265.96-27.34,87.18-89.53,220.93-95.34,304.69,6.71,8.75,10.49,9.32,20.51,14.13-.16-13.83-2.92-44.85,5.19-56.83Z"/>
  <path class="st13" d="M1187.54,1171.44c15.4-.81,32.25-3.24,47.69-5.05-2.81-27.58-23.79-167.38-20.94-181.84,20.04,18.16,29.13,145.4,33.18,179.39l48.35-12.16c-6.82-33.26-13.77-80.45-24.68-111.56-41.14-117.01-88.52-231.58-115.15-353.26-7.33-33.43-10.06-72.56-21.14-104.39-10.92-2.46-29.95,3.78-41.68,6.65,2.92,103.29,35.64,247.31,52.88,351.86,7.76,47.14,45,188.32,41.49,230.37Z"/>
  <path class="st11" d="M832.34,975.24c-9.01,25.99-28.86,55.45-22.69,83.93l4.09,2.04c49.6-29.04,127.51-402.92,136.56-475.76l-17.47-9.79-.27,4.3c-9.59,129.68-57.91,272.68-100.22,395.27Z"/>
  <path class="st7" d="M1203.49,1232.98c-5.11-8.47-5.65-31.63-4.29-41.71-3.43-1.91-6.82-3.87-10.18-5.88-77.83,6.97-299.94,10.98-368.54-9l-3.9-8.54-1.83.55c2.34,48.78.31,98.69-.74,147.43-.43,20.55,8.07,47.34-9.71,61.25l-6.59-1.29c-13.02-16.49-1.17-176.15-5.19-211.87-13.41,11.71-31.98,1.47-47.69-4.15l-7.21,2.64c-4.41,39.61-3.28,163.25-1.75,206.74,175.98,24.85,300.06,31.38,478.27,14.08-.78-29.44-.58-64.06-6.28-92.81-4.17-21.19-1.52-37.86-4.37-57.45Z"/>
  <path class="st11" d="M797.72,1375.79l6.59,1.29c17.78-13.91,9.28-40.7,9.71-61.25,1.05-48.74,3.08-98.65.74-147.43l.31-6.18c.51-12.46,6.75-43.38.82-53.95-2.42-4.32-14.66-6.36-18.17-1.18-8.11,11.99-5.34,43-5.19,56.83,4.02,35.72-7.84,195.37,5.19,211.87Z"/>
  <path class="st7" d="M1206.53,1551.26c-121,20.61-277.48,9.98-398.21-6.03,7.29,22.08,4.87,38.05,4.87,61.06l.12,72.14c.16,24.33-.27,58.43-5.34,81.69,17.27-4.42,49.72,2.24,69.18,4.6,94.99,11.54,187.06,8.94,282.59,3.46,31.23-62.64,45.78-142.12,53.15-211.49l-6.36-5.43Z"/>
  <path class="st0" d="M1212.89,1556.69c-7.37,69.36-21.91,148.84-53.15,211.49,27.61-1.13,52.21-6.68,79.82-8.71,1.25-59.1-.55-116.65.51-175.68-29.13,17.52-11.19-2.91-27.18-27.09Z"/>
  <path class="st10" d="M1238.39,1560.38c-11.19-2.94-9.75-1.19-15.87-10.46-8.5-.21-8.19-.5-15.99,1.33l6.36,5.43c15.99,24.18-1.95,44.62,27.18,27.09l2.18-1.95c-2.57-11.14,8.38-18.22-3.86-21.45Z"/>
  <path class="st11" d="M1208.6,1395.51c-152.55,15.37-322.21,15.15-472.34-16.26-1.4,47.17-.97,91.94-.39,139.09,151.14,31.06,326.19,42.98,479.2,19.82,1.25-27.53,15.4-131.87-6.47-142.65Z"/>
  <path class="st6" d="M1324.06,1439.06c-5.38-24.16,3.31-21.11,2.53-36.24-8.51-4.56-15.8-.06-19.98-8.06-.45.17-.58.08-.22-.4.07.15.15.26.22.4,3.35-1.26,26.19-18.37,25.16-17.61-5.73-3.35-62.47,9.87-72.57,12.42,13.84,20.2-9.79,23.43-5.42,1.11-6.59.22-39.38,2.94-45.19,4.82,21.88,10.78,7.72,115.12,6.47,142.65,37.28-3.73,67.38-11.09,103.57-19.68l13.61-3.11c.2-33.56.16-67.06-1.17-100.6-1.05,3.69-5.54,25.6-5.54,25.61l-1.48-1.33ZM1261.05,1469.22c-1.05-.71-.51-.21-1.36-1.74.39-.09,1.17-.45,1.68-.23.74.29,1.09,1.19,1.44,1.73-.59.11-1.17.17-1.76.24ZM1328.7,1479.75c.78,1.58.7,1.76.31,3.21-.97,3.42-2.69,7.58-2.65,11.18,0,2.21.08,4.42.16,6.63-.35,1.09-.9,4.7-2.69,5.32-5.07,1.75-11.7-10.45-17.24-10.86-1.72-.12-2.89.61-4.06,1.72-2.07,1.95-2.57,2.86-5.34,3.52-1.4-.45-2.18-.5-3.24-1.7-.97-1.16-1.25-2.19-1.13-3.67.43-5.35.51-6-2.34-10.62-1.09-1.77-2.26-3.31-3.12-5.17-1.36-2.82-1.87-4.38-4.6-6.18-2.81-1.87-5.81-2.93-6.63-6.55-.39-1.76.31-3.2,1.33-4.55.31-.36.62-.69.9-1.05l2.38-3.03c2.3,1.4,4.84,3.41,7.37,4.28,1.91.66,4.68.29,6.47-.66,3.43-1.8,4.91-2.58,8.73-2.42l.47.54c1.44.49,3.04-.25,4.56-.53,2.18-.41-.04-.15,2.22-.36.35.26.31.2.51.72,1.72,5.09,1.91,7.73,6.32,10.86,3.08,2.17,9.44,5.51,11.31,9.37Z"/>
  <path class="st12" d="M1306.62,1394.76c-.07-.14-.15-.25-.22-.4-.35.48-.22.57.22.4Z"/>
  <path class="st12" d="M1331.78,1377.15c1.03-.76-21.81,16.35-25.16,17.61,4.17,8.01,11.47,3.5,19.98,8.06.78,15.13-7.92,12.08-2.53,36.24l1.48,1.33s4.48-21.93,5.54-25.61c2.38-12.46.7-25,.7-37.62Z"/>
  <path class="st12" d="M1259.22,1389.58l-5.42,1.11c-4.37,22.31,19.26,19.08,5.42-1.11Z"/>
  <path class="st12" d="M1311.08,1459.52c-.2-.52-.16-.46-.51-.72-2.26.2-.04-.05-2.22.36-1.52.28-3.12,1.03-4.56.53l-.47-.54c-3.82-.16-5.3.62-8.73,2.42-1.79.95-4.56,1.31-6.47.66-2.53-.87-5.07-2.88-7.37-4.28l-2.38,3.03c-.27.36-.59.69-.9,1.05-1.01,1.35-1.72,2.8-1.33,4.55.82,3.62,3.82,4.68,6.63,6.55,2.73,1.8,3.24,3.36,4.6,6.18.86,1.86,2.03,3.4,3.12,5.17,2.85,4.62,2.77,5.27,2.34,10.62-.12,1.48.16,2.51,1.13,3.67,1.05,1.21,1.83,1.25,3.24,1.7,2.77-.66,3.28-1.57,5.34-3.52,1.17-1.11,2.34-1.85,4.06-1.72,5.54.41,12.17,12.61,17.24,10.86,1.79-.62,2.34-4.23,2.69-5.32-.08-2.21-.16-4.42-.16-6.63-.04-3.6,1.68-7.76,2.65-11.18.39-1.45.47-1.63-.31-3.21-1.87-3.86-8.23-7.2-11.31-9.37-4.41-3.13-4.6-5.77-6.32-10.86Z"/>
  <path class="st12" d="M1261.36,1467.25c-.51-.21-1.29.14-1.68.23.86,1.53.31,1.03,1.36,1.74.59-.07,1.17-.14,1.76-.24-.35-.54-.7-1.44-1.44-1.73Z"/>
  <path class="st14" d="M814.25,1861.64c-19.42-29.43-27.57-64.83-23.4-100-8.23.72-22.15-5.4-22.34,6.25-2.03,107.52,72.26,153.85,177.15,156.3,51.86-2.32,60.52-22.97,107.9-42.69,19.65-8.2,99.71-79.9,96.78-93.96-3.39-3.54-18.56-4.35-23.44-5.11-90.86,7.58-225.89,3.5-314.26-14,.2,22.97,1.25,64.07,15.87,81.58,21.95,26.33-5.46,24.97-14.27,11.65Z"/>
  <path class="st13" d="M1053.56,1881.5c-47.38,19.72-56.03,40.37-107.9,42.69,56.15,11.49,151.84,3.36,208.93-5.47,117.1-18.12,123.81-56.21,137.65-160.54-14.04,4.18-27.49,7.63-41.65,11.49-.55,10.52-1.01,21.05-1.44,31.58-.31,10.46-.23,58.01-11.27,59.5-10.26-4.8,1.05-78.52,2.22-90.97-43.83,7.15-71.16,7.79-113.2,12.65,4.87.76,20.04,1.57,23.44,5.11,2.92,14.06-77.13,85.76-96.78,93.96Z"/>
  <path class="st7" d="M791.32,1543.26c-14.94-5.39-38.72-11.78-55.02-17.07-.43,13.89-.86,25.2-.74,39.15.7,48.09.82,96.18.31,144.28-.2,9.4.16,19.5.19,29.01,17.66,6.32,37.98,9.34,54.36,15.99-.55-64.19-3.7-148.32.9-211.36Z"/>
  <path class="st11" d="M813.31,1678.42l-.12-72.14c0-23.01,2.42-38.98-4.87-61.06l-17-1.97c-4.6,63.04-1.44,147.17-.9,211.36l.43,7.02c-4.17,35.18,3.98,70.58,23.4,100,8.81,13.32,36.23,14.68,14.27-11.65-14.62-17.51-15.68-58.61-15.87-81.58l-4.68-8.31c5.07-23.26,5.5-57.36,5.34-81.69Z"/>
  <path class="st12" d="M950.81,540.78c40.87-13.73,78.73-13.84,121.19-11.04,16.34-4.53,11.74-5.72,11.97-25.01.78-70.86-2.46-141.04-1.01-212.03-25.5.95-63.72,2.59-88.87-.45l-27.72-3.38,2.5,44.25c2.5,49.34-6.59,159.73-18.05,207.66Z"/>
  <path class="st11" d="M807.97,919.88c-23.32,59.59-69.29,155.93-70.81,221.3,8.7,8.27,3.67,4.84,18.44,6.58,10.41-9.14,20-87.02,28.66-110.31,21.17-57.03,43.56-109.2,62.98-167.12,50.58-151.07,71.59-306.29,83.14-464.67,2.18-29.51-.27-71.95,6.16-98.73l4.25-2.95c15.05,23.43-11.66,201.9-7.88,241.02,7.1-1.43,10.92-2.17,17.9-4.22,11.46-47.93,20.55-158.32,18.05-207.66l-2.5-44.25-47.22-7.31c-5.97,176.79-20.78,342.68-69.29,514.08-11.74,42.13-25.74,83.6-41.88,124.23Z"/>
  <path class="st6" d="M1083.97,504.73c-.23,19.28,4.37,20.48-11.97,25.01,28,7.89,27.02,3.25,60.36,16.74-3.94-38.21-28.04-202.94-10.37-224.46,6.08,14.31,9.75,113.36,12.36,138.06,5.38,47.67,11.93,95.2,19.58,142.56,16.42,94.8,40.79,188.05,72.8,278.78,15.95,45.52,34.51,90.27,50.46,135.91,12.63,36.05,20,97.37,34.51,129.6l8.27-2.85c10.76-16.65,7.1-33.98,1.05-52.65-24.76-76.32-57.56-157.69-85.2-231.85-45.9-123.05-108.21-457.02-91.32-578.78-21.33,5.03-39.97,8.25-61.53,11.89-1.44,70.99,1.79,141.17,1.01,212.03Z"/>
  <path class="st4" d="M1308.35,1268.86c-.23-1.92-5.59-1.81-8.35-1.66l-1.2.07c.28-.02.71-.04,1.2-.07l2.81-.16-3.9-.05c2.69-3.31,5.69-6.91,3.55-11.28-3.7-2.37-11.19-.41-12.28-4.23.9-2.48,3.55-3.68,4.8-6.04-.74-4.36-3.74-4.75-4.06-6.06-.9-5.09,6.47-24.09,9.51-29.14,9.94-12.53-15.91-13.06,9.67-22.5,13.18-4.86,10.18-17.82,9.09-30.3-23.24,9.07-48.78,14.64-73.08,20.64.59,6.07,14.27,97.16-4.72,84.08-2.65-1.85-4.06-71.14-4.68-83.5-12.83,2.43-38.21,3.9-47.69,6.74,3.35,2.01,6.75,3.97,10.18,5.88,7.76,9.84.59,6.85,4.6,14.6,3.12,1.83,26.98,2.49,7.99,14.64-5.5,3.52-6.51,6.94-8.31,12.46,2.85,19.59.2,36.26,4.37,57.45,5.69,28.75,5.5,63.37,6.28,92.81,42.66-2.19,69.53-7.15,110.16-20.57l7.53-2.42c.35-16.37,1.36-33.6,1.25-49.68-16.03-19.16-21.45-14.55-24.72-41.71ZM1282.18,1203.06c.08-2.65,2.89-4.87,4.37-6.54,1.05-.29,3.08-1.17,4.56-1.01.78.09,1.52.6,1.95,1.25,1.64,2.42,1.56,5.39,1.25,8.17-.27,2.39-.66,4.77-.94,7.17-.23,2.34-.43,4.7-.66,7.05-1.6-2.22-3.16-4.51-4.91-6.62-2.26-2.71-5.69-5.51-5.61-9.46Z"/>
  <path class="st2" d="M1300,1267.2c-.49.03-.92.05-1.2.07l1.2-.07Z"/>
  <path class="st2" d="M1319.19,1157.43c1.09,12.48,4.09,25.44-9.09,30.3-25.58,9.45.27,9.98-9.67,22.5-3.04,5.05-10.41,24.05-9.51,29.14.31,1.32,3.31,1.7,4.06,6.06-1.25,2.36-3.9,3.55-4.8,6.04,1.09,3.83,8.58,1.86,12.28,4.23,2.14,4.37-.86,7.97-3.55,11.28l3.9.05-2.81.16c2.76-.15,8.12-.26,8.35,1.66,3.28,27.16,8.7,22.55,24.72,41.71-1.09-32-.58-62.42-1.21-94.23-.39-18.95,11.5-65.6-12.67-58.91Z"/>
  <path class="st0" d="M1203.49,1232.98c1.79-5.53,2.81-8.94,8.31-12.46,18.99-12.15-4.87-12.81-7.99-14.64-4.02-7.75,3.16-4.76-4.6-14.6-1.36,10.08-.82,33.24,4.29,41.71Z"/>
  <path class="st10" d="M1293.37,1212.1c.27-2.39.66-4.78.94-7.17.31-2.78.39-5.75-1.25-8.17-.43-.65-1.17-1.17-1.95-1.25-1.48-.16-3.51.72-4.56,1.01-1.48,1.67-4.29,3.89-4.37,6.54-.08,3.95,3.35,6.75,5.61,9.46,1.76,2.11,3.31,4.4,4.91,6.62.23-2.35.43-4.7.66-7.05Z"/>
  <path class="st10" d="M1264.52,1630.45c10.61-7.87,34.74,18.96,12.01,14.37-.66.14-1.36.28-2.03.42,2.92,16.78,12.13-3.47-9.94,25.72,7.53,6.12,11.46,7.53,21.21,6.55,17.51-1.76-3.82,35.71-1.99,42.09,1.83-.75,2.73-1.15,4.76-1.37,4.6,16.07,1.01,5.79,1.25,15.63,11.15-4.9,5.85-7.16,3.2-16.51-.08-.19,8.97-11.16,10.22-21.58l-2.18-14.08c-.51-18.6-6.47-15.17-8.11-31.37-.31-3.23,2.11-4.6,4.52-5.98,7.88-4.51,4.13-17.17,10.29-22.85,6.78-5.55,15.56-5.03,23.79-4.15-.27-4.32-.55-8.65-.82-12.97-5.15,4.14-2.14,2.4-6.32,2.55-19.22-28.23-7.8-18.92-15.68-45.39-6.12-4.91-15.4,4.33-26.55-12.77-8.27-12.66-14.31,24.94-22.23,23.6-5.34-.91-9.01,2.21-13.76,8.2,9.71,18.9,4.56,54.54,5.46,77.71,3.04-9.76,2.81-20.34,12.91-27.81ZM1297.12,1605c1.09.25,2.07,3.08,2.22,3.43-2.26-.05-1.44.28-2.61-.36-.78-1.45-.35-.44-.7-3.2.35.04.74.04,1.09.13ZM1282.73,1574.91c1.72.07,2.38,1.95,3.12,3.15l-1.44.57c-.19.09-2.14,1.12-2.92.96-1.68-.34-2.03-2.02-2.73-3.39,1.33-.48,2.61-1.35,3.98-1.29Z"/>
  <path class="st2" d="M1307.72,1621.49c-6.16,5.68-2.42,18.34-10.29,22.85-2.42,1.38-4.84,2.75-4.52,5.98,1.64,16.2,7.6,12.77,8.11,31.37,24.92,11.57,17.39,25.73,2.18,14.08-1.25,10.42-10.29,21.39-10.22,21.58,2.65,9.36,7.95,11.61-3.2,16.51l.55,13.57c20.32-4.03,41.45-5.43,41.8-27.99.59-36.11,1.25-65.97-.62-102.11-8.23-.88-17-1.4-23.79,4.15Z"/>
  <path class="st4" d="M1301.02,1681.69l2.18,14.08c15.21,11.66,22.73-2.51-2.18-14.08Z"/>
  <path class="st4" d="M1259.92,1572.36c7.92,1.34,13.96-36.26,22.23-23.6,11.15,17.1,20.43,7.86,26.55,12.77,7.88,26.47-3.55,17.16,15.68,45.39,4.17-.15,1.17,1.59,6.32-2.55,3.04-24.95,1.44-52.48,1.21-77.82-36.11,10.54-72.92,14.91-109.38,23.37,6.12,9.27,4.68,7.51,15.87,10.46,12.24,3.23,1.29,10.31,3.86,21.45l3.9-1.27c4.76-5.99,8.42-9.11,13.76-8.2Z"/>
  <path class="st4" d="M1288.54,1718.23c-2.03.22-2.92.62-4.76,1.37-1.83-6.37,19.5-43.85,1.99-42.09-9.75.98-13.69-.43-21.21-6.55-4.87-5.25-6.82-6.09-12.95-10.25-.16,33.61,1.72,65.57-.31,99.45,13.02-4.32,26.01-8.44,39.03-12.73l-.55-13.57c-.23-9.83,3.35.44-1.25-15.63Z"/>
  <path class="st0" d="M1264.56,1670.97c22.07-29.19,12.87-8.95,9.94-25.72.66-.14,1.36-.28,2.03-.42,22.73,4.59-1.4-22.23-12.01-14.37-10.1,7.48-9.87,18.05-12.91,27.81v2.45c6.12,4.16,8.07,5,12.95,10.25Z"/>
  <path class="st0" d="M1281.48,1579.59c.78.16,2.73-.88,2.92-.96l1.44-.57c-.74-1.2-1.4-3.08-3.12-3.15-1.37-.05-2.65.81-3.98,1.29.7,1.37,1.05,3.05,2.73,3.39Z"/>
  <path class="st0" d="M1299.34,1608.43c-.16-.35-1.13-3.18-2.22-3.43-.35-.08-.74-.08-1.09-.13.35,2.75-.08,1.75.7,3.2,1.17.64.35.31,2.61.36Z"/>
  <path class="st1" d="M1270.99,1880.52c-72.49,70.25-206.59,58.66-300.76,59.48-2.11,7.73-4.33,15.42-6.71,23.07,95.61,1.2,254.59,11.4,323.26-66.67-8.85-6.81-9.28-7.04-15.79-15.89Z"/>
  <path class="st11" d="M756.15,1766.06c2.61-10.16-18.48-19.59-19.42-7.58-4.29,53.56,12.05,121.71,56.07,156.73,39.19,31.18,121.74,41.14,170.72,47.87,2.38-7.66,4.6-15.34,6.71-23.07-121.51-8.7-213.57-37.88-214.08-173.94Z"/>
  <path class="st14" d="M1093.37,579.42c.08-13.48-1.91-22.91-7.02-35.5-55.1-11.34-106.38-4.68-156.99,18.44l11.04,4.83c48.7,20.83,102.56,13.5,152.97,12.24Z"/>
  <path class="st13" d="M1086.35,543.92c5.11,12.59,7.1,22.03,7.02,35.5,56.03-18,48.47-18.07-7.02-35.5Z"/>
  <path class="st6" d="M1304.33,1766.11c-2.65,45.58-11.97,74.34-33.34,114.41,6.51,8.85,6.94,9.08,15.79,15.89,37.55-46.44,35.88-73.79,42.19-126.33,4.48-37.28-23.94-15.69-24.64-3.96Z"/>
  <path class="st11" d="M921.02,243.61c2.92,2.11,6.43,3.72,9.59,5.46,7.21-27.19-21.56-50.95,3.63-97.68,1.56-2.95,3.51-7.1,1.95-10.46-1.56-3.46-5.07-3.6-8.34-4.53-.94-.26-1.79-.57-2.69-.86-2.65,3.19-5.38,6.32-7.99,9.53-15.91,19.72-18.09,42.98-14.58,67.23,1.83,12.7,7.92,23.74,18.44,31.3Z"/>
</svg>