<?xml version="1.0" encoding="UTF-8"?>
<svg id="Layer_1" xmlns="http://www.w3.org/2000/svg" version="1.1" viewBox="0 0 500 500">
  <!-- Generator: Adobe Illustrator 30.3.0, SVG Export Plug-In . SVG Version: 2.1.3 Build 182)  -->
  <defs>
    <style>
      .st0 {
        fill: #f7f5ee;
      }

      .st1 {
        fill: #2e1310;
      }

      .st2 {
        fill: #3d1e0f;
      }

      .st3 {
        fill: #654c3d;
      }

      .st4 {
        fill: #030303;
      }

      .st5 {
        fill: #110e0d;
      }

      .st6 {
        fill: #662c10;
      }

      .st7 {
        fill: #cfcfce;
      }

      .st8 {
        fill: #969696;
      }

      .st9 {
        fill: #fff;
      }

      .st10 {
        fill: #dc4937;
      }

      .st11 {
        fill: #efdac1;
      }

      .st12 {
        fill: #fcb239;
      }

      .st13 {
        fill: #9a6f3a;
      }

      .st14 {
        fill: #1e0f0c;
      }

      .st15 {
        fill: #f5f6f4;
      }
    </style>
  </defs>
  <circle class="st12" cx="227.9" cy="258.78" r="204.71"/>
  <path class="st15" d="M183.78,203.52c.35-.01.7-.04,1.05-.06,1.71-9.45.84-22.48.13-32.05-.34-4.57,1.15-22.48-2.27-25.17-.39-.3-.8-.59-1.2-.89-.23,8.08-3.14,53.08.68,57.53.43.5.96.65,1.61.64Z"/>
  <path class="st10" d="M273.11,476.52c.56-1.58.97-2.82,1.91-4.19,1.71-2.47,3.42-4.93,5.03-7.47-13.26,2.41-45.77,6.64-57.95,4.97-.51-.07-.98-.13-1.29-.56.04-.13.07-.27.13-.4,1.38-2.8,37.63-3.45,42.69-4.1,6.38-.82,12.73-2.29,19.03-3.58,2.58-.54,4.84-1.27,7.33-2.15-2.49-17.69,9.7-27.05,10.23-36.78-4.47,2.64-6.88,10.47-11.09,14.32l-1.19-1.18c1.86-6.33,6.32-11.89,8.82-18.09-.35.04-.7.06-1.04.13-.51.11-1.01.27-1.51.41.21-3.44,2.27-6.62,3.75-9.71l-2.19-2.16c-2.71-4.11,3.94-9.43,3.58-14.11l-.32-.23c-.13.03-.27.05-.39.11-.31.16-.97.71-1.49.74-.2-.1-.32-.33-.39-.53-.96-2.87,1.98-8.7,3.23-11.23l.65-2.22-1.43-1.67-1.16-1.05c-.54-3.36,1.87-6.93,2.52-10.31l-2.31-1.44c-.1-5.41,4.2-9.26,3.96-14.62l-2.59,2.35c-1.15-2.31.11-5.46.57-7.99-.48-.68-1.24-1.57-1.51-2.42-.33-1.06.09-1.66.58-2.61.32-2.38.92-4.61,1.51-6.94-.53-.69-1.08-1.38-1.64-2.05-.41-3.49.8-6.27,1.93-9.5l-2-1.56-1.92-1.06c-.39-.06-1.1-.04-1.4-.44-.84-1.09-.66-4.03-.51-5.29.12-1.02.4-2.37.11-3.4-.34-1.21-.42-1.78-.35-3.06.02-.26.06-.52.05-.78,0-.43-.2-.86-.54-1.14-.24-.2-.6-.34-.74-.65-.23-.52.05-1.34.16-1.82-.58-3.4-1.13-7.08.58-10.28.11-.21.25-.41.38-.62l.55-.94.2-1.51c-1.27-.13-2.48-.26-3.75-.28.02-.38.04-.76.07-1.13.13-1.83.21-2.74-.5-4.44l-1.91-.75c-.71-1.66-1.23-2.51-2.3-3.9l-1.83-.16-.41-2.29-1.41-2.03c-2.01-.25-1.89-.38-3.38-1.52-1.22-4.48.07-9.17.82-13.68l-1.49-2.69-3.07,3.94c-.81-.81-1.64-1.61-2.47-2.4h-.76l-1.52-2.44c-1.13-.96-1.72-1.57-3.02-2.08l-.91-2.51c2.31-11.1-2.78-5.06-4.97-10.72-2.13-5.49,6.75-14.78,4.25-20.86l-3.16,2.4-1.16-.21c-.66-5.5,1.63-11.16,3.79-16.13l-1.4-1.02c-1.67-.55-2.94-1.04-4.38-2.07-1.55-5.84,2.29-10.73,5-15.69-.41-.15-.8-.39-1.23-.43-.32-.03-.9.01-1.27-.13-.99-.37-1.11-1.44-1.46-2.35-1.7-5.27,1.17-12.14,2.94-17.18l-1.17-.89c-.34.4-.79,1.15-1.4,1.21-.27-.16-.42-.34-.54-.65-1.19-3.28,2.99-12.5,4.2-15.61l-1.31-1.9-1.24-1.23c-.41-1.47-.92-2.61-1.61-3.99-.54-.37-1.36-.79-1.77-1.39-.31-.45-.41-1.01-.27-1.54.14-.51.41-1.06.46-1.61.04-.48-.07-.88-.38-1.25h-.21c-.17.15-.23.18-.34.34-.5.73-.7,1.35-1.55,1.65-.38-.09-.48-.07-.79-.32-.64-.53-.88-1.55-.95-2.33-.04-.37-.04-.74-.08-1.12-.05-.48-.13-.95-.2-1.43-1.02.91-1.66,1.46-2.96,1.89-1.52.52-4.4,1.34-5.91.43-.56-.34-1.07-.7-1.7-.9-.83-.27-1.37-.43-1.85-1.21-.09-.15-.15-.33-.26-.47-1.86-2.47-16.33-.6-19.79-.88-1.38-.11-2.62-.28-4-.2-1.67.09-3.25.16-4.92.12-5.85-.57-25.97-4.96-30.66-3.67-5.55,4.95-7.47,17.41-7.86,24.36-1.53,27.11,2.49,53.67-2.89,80.59.74,1.24.85,1.37.99,2.66.15,1.42.43,2.51.72,3.93.18.89.17,1.87.23,2.78l1.05-1.71c.21-.35.4-.7.61-1.05.8-1.28,2.08-3.44,3.7-3.88.02.11.03.12-.08.23-.09.08-.19.15-.28.22l.17.92c-.37.97-.65,1.51-1.15,2.47-.59,1.12-1.11,2.26-1.66,3.4-2.26,4.65-4.6,9.24-6.72,13.96-4.21,9.36-9.72,18.59-13.26,28.19-.35.96-.77,1.89-1.15,2.84-1.21,3.06-1.93,6.24-2.66,9.43-1.05,4.58-2.83,8.99-3.77,13.57-.33,1.59-1.95,5.25-3.56,5.96-.21.1-.41.14-.63.06-.45-.16-.72-.72-.82-1.16-.14-.56-.25-1.14-.38-1.71-.35.08-1.09.12-1.3.56-.11.22-.18.46-.29.69-.82,1.63-1.64,2.7-2.74,4.14-3.92,31.35.97,107.12,9.09,137.23,4.72,1.85,9.48,3.77,14.45,4.82,8.81,1.85,41.55,3.65,46.38,7.87-15.64,1.5-46.64-3.5-60.89-10.17,2.23,8.6,3.98,12.84,12.14,17.49,15.91,9.05,48.14,10.17,66.29,10.64,15.03-1.4,30.28-3.62,44.96-7.19l.89-3.63ZM181.49,145.35c.4.3.8.59,1.2.89,3.42,2.69,1.93,20.6,2.27,25.17.71,9.57,1.58,22.6-.13,32.05-.35.02-.7.05-1.05.06-.65.01-1.17-.14-1.61-.64-3.82-4.45-.91-49.45-.68-57.53ZM180.35,430.53c-18.7-16.73-24.04-43.52-25.09-67.46-1.11-25.23,2.27-54.97,20.33-74.21,14.24-15.17,31.32-18.68,51.3-19.36,15.05,1.68,28.3,4.57,39.71,15.43,19.01,18.09,23.65,45.68,24.19,70.75.52,24.46-2.18,53.34-20.19,71.78-13.69,14.01-31.16,18.5-50.18,18.81-15.09-1.07-28.63-5.51-40.07-15.74Z"/>
  <path class="st5" d="M205.16,76.44c-6.25,1.49-26.73,5.35-30.17,9.49-1.96,7.66-2.04,24.97-.03,32.6,2.24,2.27,2.77,2.72,5.35,4.58,1.19,7.06-6.02,10.12-7.17,25.35-2.63,24.97,4.4,59.08-3.08,82.65-7.45,23.48-28,39.86-31.48,67.21-7.24,56.89.96,106.61,7.77,162.43,2.59,9.19,4.92,13.98,13.73,18.8,12.1,6.61,41.66,10.5,55.5,10.26l.09-1.33c4.03-.08,7.66-.25,11.6-1.14-18.14-.47-50.38-1.59-66.29-10.64-8.16-4.65-9.91-8.89-12.14-17.49,14.25,6.67,45.25,11.67,60.89,10.17-4.83-4.22-37.57-6.02-46.38-7.87-4.98-1.05-9.73-2.97-14.45-4.82-8.12-30.11-13.02-105.88-9.09-137.23.02-4.59.21-8.99.73-13.55.58-5.07,1.59-10.02,2.78-14.98,3.08-12.36,9.23-24.38,16.72-34.67,5.57-7.66,8.82-14.77,12.79-23.3,5.38-26.92,1.36-53.48,2.89-80.59.39-6.95,2.32-19.41,7.86-24.36,4.69-1.29,24.82,3.1,30.66,3.67-.01-.34-.03-1.24-.1-1.64-.04-.25-.12-.49-.18-.74-.18-.81-.15-1.6.37-2.29.37-.5,1.13-.69,1.7-.78,1.66-.24,3.25-.49,4.9-.82-13.39-1.23-26.31-1.12-39.37-4.77-1.31-.26-2.14-.63-3.12-1.56-.42-.4-.81-.98-.8-1.57.11-.18.1-.22.35-.27.44-.07,1.18.41,1.48.56,23.79,4.31,54.34,5.59,78.2,1.37,3.24-.57,6.36-1.35,9.53-2.25.59-.16,1.15-.41,1.73-.61.56-.19,1.58-.46,2.17-.3.27.07.25.16.33.38-.12.63-.52.92-1.05,1.28-1.77,1.19-3.72,1.95-5.79,2.41l4.06.88c3.42-.11,5.37-2.46,8.16-4.77.13-7.67,1.16-24.61-1.38-30.89-8.06-8.79-26.88-3.54-31.33-12.39-2.18-.41-2.26-.49-4.45-1.37.46,3.48-.47,5.99,1.91,8.23.88-.18,1.38-.42,2.14.07.48.31,1,.86,1,1.48,0,.45-.23.79-.57,1.07-1.84,1.52-6.39,1.93-8.76,2.53-5.2,1.11-29.34,1.56-30.58-4.5.63-1.79,3.15-1.94,3.81-4,1.78-5,4.28-9.39,5.85-14.52,2.3-7.52,2.86-14.86,4.14-22.5,1.53-7.95,1.42-16.93,4.13-24.49.46-1.29,7.18-1.77,7.5-.57,1.46,5.4,1.94,15.13,1.99,21.07l.08,9.5c-.05,7.21.14,14.42.32,21.63,1.58-5.27,1.04-12.36,3.13-18.14.69-1.9-1.7-6.05.78-8.15-.4-8.63.4-21.49-4.41-27.9-4.41-2.28-9.31-2.03-12.86,1.66-2.05,6.48-3.46,24.05-4.42,31.88-.29,2.02-.55,4.05-.76,6.08-2.24,10.3-4.53,14.86-8.94,24.47ZM273.71,89.25c.26.24.49.41.62.75,1.53,4.25.84,18.77-1.2,23.55-.35-3.37-.61-6.74-.38-10.14.12-1.75.33-3.27.22-5.02-.19-2.98-1.32-6.73.73-9.14ZM260.15,99.02c-.33-.16-.2-.06-.46-.56-.18-.36-.26-.69-.56-.97,0,.01-.01.03-.02.03-.29.22-.61.39-.89.63-1.08.91-.56,13.42-.61,15.63.02.04.52.78.57.92.11.26.13.55-.03.79-.56.83-2.62,1.21-3.49,1.34-21.79,3.48-46.23,2.4-68-.71-3.27-.47-6.5-1.04-9.75-1.6-.45-8.98-.41-18.05-.26-27.04,3.14,1.32,6.19,2.48,9.52,3.26,20.12,4.7,41.99,4.57,62.49,3.16,3.34-.24,7.27-1.49,10.53-1.17.48.05,1.21.18,1.44.68.55,1.15.26,3.84-.08,4.96-.16.55-.07.43-.4.65ZM269.73,112.99c-1.35,1.28-5.34,2.13-7.11,2.05-.91-.04-1.18-.25-1.81-.88.21-.81.4-1.62.62-2.43.39-1.44.81-2.85,1.07-4.33.15-.89.24-1.84.63-2.67.24-.5.31-.67.81-.87l.19.14c.91,1.95.38,4.83.56,6.94.04.44.09,1.14.46,1.44.27-.03.65-.44.8-.61,1.01-1.13,1.15-2.94.93-4.37-.84-5.44-.65-11.5-.4-16.99.49.38,1,.74,1.46,1.16,1.12,1,1.19,2.95,1.23,4.32.04,1.39.08,2.16.25,3.55l.13-.36h.07c.88,2.8.91,5.48-.11,8.23-.01.04-.06.06-.09.09-.02.16-.04.31-.07.47-.03.17-.15.34-.04.49.57.85,1.03,1.45,1.13,2.5.08.82-.08,1.55-.7,2.13ZM209.81,86.99c8.14.73,15.6,2.08,23.84,1.09,2.6-.31,5.2-1.08,7.78-1.28.56-.05,1.12-.08,1.68-.11,1.5-.99,3.52-2.02,4.2-3.82.21-.56.49-1.87,1.03-2.28,1.31-1,3.91-.1,5.33.12,1.97.31,3.8.66,5.73,1.16,2.44.62,10.05,1.38,11.44,3.67,0,.41-.17.7-.49.97-2.87,2.46-10.43,2.79-14.18,3.42-4.18.95-8.28,1.13-12.56,1.29-9.97,3.02-30.33.38-40.98-.68-.14-.02-.28-.04-.42-.06-3.02-.47-6.04-.85-9.06-1.36-5.09-.85-9.88-2.18-14.81-3.71,3.75-.9,7.53-1.69,11.32-2.39l10.5-1.89c.15.13.31.27.46.41,3.06,2.75,5.31,4.16,9.19,5.45Z"/>
  <path class="st9" d="M232.45,76.34c-.08-3.52-.51-6.42.19-9.8-.17-7.21-.37-14.42-.32-21.63l-.08-9.5c-.05-5.94-.53-15.67-1.99-21.07-.32-1.2-7.04-.72-7.5.57-2.72,7.56-2.61,16.54-4.13,24.49-1.28,7.64-1.84,14.98-4.14,22.5-1.57,5.13-4.07,9.52-5.85,14.52-.66,2.06-3.18,2.21-3.81,4,1.23,6.06,25.38,5.61,30.58,4.5l1.54-1.98c-3.5-2.33-4.08-2.38-4.48-6.6Z"/>
  <path class="st10" d="M146.47,298.95c.35.37.68.76,1.03,1.14.65-2.06,1.58-4.11,2.07-6.2.75-3.2,1.64-6.47,3.12-9.43,3.24-6.46,11.61-26.09,15.09-30.5,2.95-3.75,4.76-7.46,6.98-11.63-.06-.91-.05-1.89-.23-2.78-.29-1.42-.57-2.51-.72-3.93-.14-1.29-.25-1.42-.99-2.66-3.96,8.53-7.21,15.64-12.79,23.3-7.49,10.29-13.63,22.31-16.72,34.67,1.25,1.97,1.53,2.68,1.76,5.02.12,1.27.54,2.07,1.4,3Z"/>
  <path class="st7" d="M233.16,125.49c3.71-.12,7.35-1.34,11-1.44,4.41-.11,8.71-.93,13.01-1.87,2.57-.56,4.92-1.28,7.42-2.1,2.07-.46,4.02-1.22,5.79-2.41.53-.36.92-.65,1.05-1.28-.08-.22-.06-.31-.33-.38-.59-.16-1.62.11-2.17.3-.58.2-1.14.45-1.73.61-3.17.9-6.29,1.68-9.53,2.25-23.86,4.22-54.41,2.94-78.2-1.37,1.01.94,1.41,1.62,2.09,2.84,13.06,3.65,25.98,3.54,39.37,4.77,3.88-.86,8.26.21,12.23.08Z"/>
  <path class="st4" d="M235.76,48.4c-2.09,5.78-1.55,12.87-3.13,18.14-.7,3.38-.27,6.28-.19,9.8,2.59-1.86,4.63-3.09,7.21-4.8,2.19.88,2.27.96,4.45,1.37-3.95-10.09-5.76-12.77-6.37-24.17-.28-3.64-.29-5.01-1.19-8.49-2.48,2.1-.1,6.25-.78,8.15Z"/>
  <path class="st10" d="M142.84,314.63c.22-.44.95-.48,1.3-.56,1.14-2.91,1.61-5.63,2.36-8.65.47-1.89.8-3.37,1-5.33-.34-.38-.68-.77-1.03-1.14-.86-.93-1.28-1.73-1.4-3-.23-2.34-.51-3.05-1.76-5.02-1.18,4.96-2.2,9.91-2.78,14.98-.52,4.56-.71,8.96-.73,13.55,1.11-1.44,1.92-2.51,2.74-4.14.11-.23.18-.47.29-.69Z"/>
  <path class="st7" d="M236.93,82.94c.5-.19.95-.32,1.35-.69,1.3-1.21,1.72-1.67,3.29-2.48-2.38-2.24-1.45-4.75-1.91-8.23-2.58,1.71-4.62,2.94-7.21,4.8.4,4.22.98,4.27,4.48,6.6Z"/>
  <path class="st8" d="M236.93,82.94l-1.54,1.98c2.36-.6,6.92-1.01,8.76-2.53.34-.28.57-.62.57-1.07,0-.62-.52-1.17-1-1.48-.76-.49-1.27-.25-2.14-.07-1.57.81-1.99,1.27-3.29,2.48-.4.37-.85.5-1.35.69Z"/>
  <path class="st13" d="M178,117.24c-.25.05-.23.09-.35.27-.02.59.38,1.17.8,1.57.98.93,1.81,1.3,3.12,1.56-.68-1.22-1.08-1.9-2.09-2.84-.29-.15-1.04-.63-1.48-.56Z"/>
  <path class="st9" d="M260.63,93.41c-.24-.5-.97-.63-1.44-.68-3.26-.32-7.18.93-10.53,1.17-20.5,1.41-42.37,1.54-62.49-3.16-3.33-.78-6.38-1.94-9.52-3.26-.15,8.99-.19,18.06.26,27.04,3.25.56,6.48,1.13,9.75,1.6,21.77,3.11,46.21,4.19,68,.71.87-.13,2.94-.51,3.49-1.34.16-.24.14-.53.03-.79-.06-.14-.55-.88-.57-.92.05-2.21-.46-14.72.61-15.63.28-.24.6-.41.89-.63.01,0,.02-.02.02-.03.3.28.38.61.56.97.26.5.13.4.46.56.33-.22.24-.1.4-.65.33-1.12.63-3.81.08-4.96Z"/>
  <path class="st7" d="M245.77,88.1c.27.11.23.1.33.29-.14.39-.48.5-.86.67-.48.21-.97.38-1.47.53-.2.06-.37.13-.42.36-.09.42.15.85.26,1.27,4.27-.16,8.37-.34,12.56-1.29.41-.37.82-.72,1.22-1.09.28-.26.53-.53.8-.78,1-.94,2.07-1.31,3.42-1.22.55.03,1.1.13,1.66.11.48-.01.79-.04,1.12-.38.05-.21.09-.24,0-.45-.2-.45-.77-.84-1.23-.94-.11-.03-.23-.03-.35-.05-.9-.17-1.85-.74-2.35-1.52-.36-.57-.71-1.16-1.06-1.74-1.93-.5-3.76-.85-5.73-1.16-1.42-.22-4.02-1.12-5.33-.12-.54.41-.82,1.72-1.03,2.28-.68,1.8-2.7,2.83-4.2,3.82l1.17.75c.48.3.98.44,1.48.66Z"/>
  <path class="st7" d="M262.8,85.13c.11.02.23.02.35.05.47.1,1.04.49,1.23.94.09.21.05.24,0,.45-.33.34-.64.37-1.12.38-.55.02-1.1-.08-1.66-.11-1.36-.09-2.42.28-3.42,1.22-.27.25-.53.52-.8.78-.4.37-.81.72-1.22,1.09,3.75-.63,11.3-.96,14.18-3.42.32-.27.49-.56.49-.97-1.39-2.29-9-3.05-11.44-3.67.35.58.7,1.17,1.06,1.74.5.78,1.45,1.35,2.35,1.52Z"/>
  <path class="st7" d="M206.12,88.16c-1.77.5-2.22,1.01-3.49,2.38,10.65,1.06,31.02,3.7,40.98.68-.11-.42-.35-.85-.26-1.27.05-.23.22-.3.42-.36.5-.15.99-.32,1.47-.53.38-.17.72-.28.86-.67-.1-.19-.06-.18-.33-.29-.51-.22-1.01-.36-1.48-.66l-1.17-.75c-.56.03-1.12.06-1.68.11-2.58.2-5.18.97-7.78,1.28-8.24.99-15.7-.36-23.84-1.09l-.95.35c-.9.32-1.82.56-2.74.82Z"/>
  <path class="st7" d="M200.16,81.13l-10.5,1.89c-3.79.7-7.57,1.49-11.32,2.39,4.92,1.53,9.72,2.86,14.81,3.71,3.02.51,6.04.89,9.06,1.36.14.02.28.04.42.06,1.28-1.37,1.72-1.88,3.49-2.38.92-.26,1.84-.5,2.74-.82l.95-.35c-3.87-1.29-6.12-2.7-9.19-5.45-.15-.14-.31-.28-.46-.41Z"/>
  <path class="st7" d="M269.3,108.36c-.11-.15.01-.32.04-.49.03-.16.05-.31.07-.47.03-.03.07-.05.09-.09,1.02-2.75.99-5.43.11-8.23h-.07l-.13.36c-.17-1.39-.21-2.16-.25-3.55-.04-1.37-.11-3.32-1.23-4.32-.46-.42-.97-.78-1.46-1.16-.25,5.49-.44,11.55.4,16.99.22,1.43.09,3.24-.93,4.37-.15.17-.53.58-.8.61-.37-.3-.42-1-.46-1.44-.18-2.11.35-4.99-.56-6.94l-.19-.14c-.5.2-.57.37-.81.87-.4.83-.48,1.78-.63,2.67-.26,1.48-.68,2.89-1.07,4.33-.22.81-.41,1.62-.62,2.43.63.63.9.84,1.81.88,1.76.08,5.76-.77,7.11-2.05.61-.58.77-1.31.7-2.13-.1-1.05-.56-1.65-1.13-2.5Z"/>
  <path class="st8" d="M272.76,103.41c-.24,3.4.03,6.77.38,10.14,2.03-4.78,2.73-19.3,1.2-23.55-.12-.34-.36-.51-.62-.75-2.05,2.41-.92,6.16-.73,9.14.11,1.75-.1,3.27-.22,5.02Z"/>
  <path class="st5" d="M310.02,402.66c1.93-22.79,3.2-95.02-3.55-114.35-7.78-22.29-24.43-42.27-28.45-65.63-4.71-27.37,1.84-64.49-4.55-87.96-.71,1.06-1.4,1.73-2.35,2.59-.84,2.79-1.86,5.32-3.05,7.97.07,2.12.34,2.48,1.75,4.13.09.11.18.22.28.33.17,4.79-2.85,9.87-4.83,14.13-.17.36-.33.72-.49,1.09-1.77,5.04-4.64,11.91-2.94,17.18.46.2.9.42,1.37.6.4.16.8.04,1.14-.18,1.01-.65,3.18-4.68,4.11-4.35.21.07.29.21.32.44.3,1.99-1.57,4.32-2.58,5.82l-.39.58c-2.71,4.96-6.55,9.85-5,15.69,1.44,1.03,2.71,1.52,4.38,2.07.78-1.18,3.02-5.43,4.59-5.54.17-.01.35.09.44.24.25.45-.01,1.05-.19,1.46-.74,1.75-2.25,3.4-3.44,4.86-2.16,4.97-4.45,10.63-3.79,16.13l1.16.21,3.16-2.4c2.51,6.08-6.37,15.37-4.25,20.86,2.19,5.66,7.28-.38,4.97,10.72l.91,2.51,1.27-.82c1.37-.91,1.54-2.61,1.81-4.08.3-1.65,3.01-9.81,4.16-10.69.03-.02.07-.02.1-.04.99,1.96.29,3.75-.3,5.69-.18.59-.33,1.19-.51,1.79-.82,2.69-1.79,5.35-2.61,8.06-.24.79-.54,1.38-.89,2.17l1.52,2.44h.76c.26-.57.52-1.13.77-1.7.62-1.43,1.14-4.14,2.45-5.08.16.01.28.01.37.17,1.02,1.75-.79,7.04-1.12,9.01l3.07-3.94c.3-.92.59-2.33,1.49-2.92.21-.14.42-.16.64-.07.4.16.54.63.58,1.02.13,1.17-.4,2.26-.78,3.33-.16.44-.29.89-.44,1.33-.74,4.51-2.04,9.2-.82,13.68,1.49,1.14,1.37,1.27,3.38,1.52.24-2.73.71-14.93,3.13-16.29.13-.07.24-.06.35.02.69.42.93,2.68.97,3.44.19,4.71-1.95,10.28-3.04,14.86l.41,2.29,1.83.16c1.07,1.39,1.59,2.24,2.3,3.9l1.91.75c.58-.65,1.12-1.6,2.13-1.54.79.04,1.4.54,2.07.91.39.22.78.42,1.17.63.52-.38.67-.68,1.24-.65.17.15.19.3.18.54-.13,1.76-1.44,3.78-2.26,5.3l-.34.66-.2,1.51.1,1.27c.01.15,0,.3.02.44.06.6.26,1.15.73,1.54.47.39,1.05.63,1.59.93.67.28,1.09.36,1.36,1.06.48,1.23.35,2.69.39,3.95.05,1.54.24,2.93.46,4.46-.56,1.98-1.2,3.78-1.98,5.69-1.09,2.66-.75,6.27-.98,9.08l1.92,1.06.49-.86c.73-1.27,1.88-5.08,3.65-5.39.29-.06.32.01.54.13.19.93-.41,2.09-.7,2.9-.17.47-.32.94-.49,1.41-.43,1.15-.99,2.25-1.49,3.37-1.13,3.23-2.35,6.01-1.93,9.5.38-.2.77-.38,1.15-.58,1.2-.61,1.73-2.11,2.35-3.21.27-.47,1.01-1.74,1.64-1.82.14-.02.2.06.3.13.28,1.78-1.64,4.57-2.63,5.95-.39.53-.79,1.06-1.18,1.58-.59,2.33-1.19,4.56-1.51,6.94.26.13.51.28.79.39.26.1.48.05.69-.11.76-.56,1.17-1.7,1.6-2.49.16-.29.62-1.16,1.01-1.31.11-.04.16,0,.27.03.38,1,.24,2.67-.2,3.65-.54,1.22-1.35,2.17-1.89,3.44-.25.59-.9,1.04-1.35,1.43-.46,2.53-1.72,5.68-.57,7.99l2.59-2.35c.24,5.36-4.06,9.21-3.96,14.62l2.31,1.44c-.65,3.38-3.05,6.95-2.52,10.31l1.16,1.05c.39-.33.79-.66,1.18-1.01.39-.35.7-.77,1.07-1.14.46-.47,1.1-1.01,1.78-1.11.16-.03.77.1.84.11.16.02.33.03.48.07.63.12,1.28.4,1.63.97.29.48.43,1.09.22,1.62-.06.16-.18.26-.35.3-.63.17-1.24-.13-1.85-.25-.68-.14-1.42,0-1.99.41-.6.44-1.11,1.14-1.59,1.7l-.65,2.22c1.14.34,3.12.69,3.78,1.9.29.53.21,1.11.02,1.66-.17.47-.37.79-.59,1.26-.53,1.17-1.41,3.58-.77,4.83.31.6.73.7,1.22,1.08.35.28.54.67.5,1.13-.06.65-.18,1.3-.28,1.94-1.53,4.61-3.67,9.3-5.91,13.61-1.49,3.09-3.55,6.27-3.75,9.71.5-.14,1-.3,1.51-.41.34-.07.69-.09,1.04-.13-2.5,6.2-6.96,11.76-8.82,18.09l1.19,1.18c4.21-3.85,6.62-11.68,11.09-14.32-.53,9.73-12.72,19.09-10.23,36.78l-.82,1.03c-.1.13-.23.24-.31.38-.2.32-.22.73-.09,1.08.05.15.13.28.19.43.21.51.04.89-.04,1.47-.67,1.66-4.47,8.18-3.94,9.78.14.41.56.72.97.83.48.12,1.67.13,1.9.14.15.01.3.02.45.03.57-.8,1.11-1.63,1.68-2.43.84-1.17,1.42-1.73,2.81-2.06.32.13.44.09.57.39.12.27-.09.59-.23.8-.83,1.18-2.11,2.27-3.14,3.27-.36.35-.73.69-1.09,1.03-.52.2-1.05.39-1.57.6-.37.14-.73.31-1.1.45-3.23,1.25-7.35,1.9-10.76,2.85-1.11.31-2.18.66-3.26,1.04-14.68,3.57-29.93,5.79-44.96,7.19-3.94.89-7.57,1.06-11.6,1.14l-.09,1.33c18.67,1.18,39.03,2.7,57.52-.18,14.28-2.23,72.75-16.15,78.71-27.36,1.34-2.54,1.01-3.23.28-5.82-6.23-6.92-17.71-8.17-26.48-9.43-7.11-.5-14.18-.88-21.31-.97,1.55-14.5,4.49-28.81,5.72-43.39ZM270.48,188.71c-.23.36-.47.71-.7,1.07-.3.48-.59.96-.88,1.44-.24-.06-.49-.09-.73-.18-.12-.04-.28-.16-.32-.3-.21-.75.43-1.74.81-2.31.18-.28.39-.55.58-.83.36-.55.71-1.11,1.07-1.67.3.17.63.26.76.62.23.66-.25,1.61-.59,2.16ZM269.93,167.07c-.67,1.01-1.34,2-1.99,3.03-.32-3.6,1.69-6.3,3.25-9.43.37,2.73.3,4.05-1.26,6.4ZM305.94,356.36c-.34.58-1.01.78-1.59,1.02-.3-.08-.92-.16-1.26-.37-.33-.21-.52-.66-.48-1.04.1-.85.79-1.18,1.45-1.53.4.09.81.16,1.21.26.34.09.69.38.79.72.11.39.09.57-.12.94ZM301.6,471.53c-.47.14-.95.28-1.43.39.48-.3,1.04-.46,1.56-.69.46-.09.93-.18,1.4-.23-.47.25-1.01.36-1.52.53Z"/>
  <path class="st5" d="M296.77,391.96c.07.2.18.43.39.53.52-.03,1.18-.58,1.49-.74.12-.06.26-.08.39-.11l.32.23c.35,4.68-6.29,10-3.58,14.11,2.63-3.25,4.63-9.44,8.1-11.45.1-.64.22-1.29.28-1.94.04-.46-.15-.85-.5-1.13-.48-.38-.91-.48-1.22-1.08-.64-1.25.23-3.66.77-4.83.21-.47.42-.79.59-1.26.2-.55.27-1.13-.02-1.66-.65-1.21-2.64-1.56-3.78-1.9-1.24,2.53-4.18,8.36-3.23,11.23Z"/>
  <path class="st6" d="M285.52,465.81c-1.23,1.97-3,7.7-5.07,8.61-.14.06-.3.07-.45.01-.36-.14-.57-.7-.64-1.03-.18-.8-.04-1.76-.01-2.53.02-.55.01-.44-.14-.93l-.13-.08c-2.77,1.13-2.12,5.58-5.97,6.66l-.89,3.63c1.08-.38,2.15-.73,3.26-1.04,3.4-.95,7.52-1.6,10.76-2.85.37-.14.73-.31,1.1-.45.52-.21,1.04-.4,1.57-.6l-.6-1c-.15-.01-.3-.02-.45-.03-.23-.01-1.41-.02-1.9-.14-.41-.11-.83-.42-.97-.83-.53-1.6,3.26-8.12,3.94-9.78-1.69.42-2.44.84-3.41,2.38Z"/>
  <path class="st10" d="M261.67,164.63c.11.31.27.49.54.65.6-.06,1.05-.81,1.4-1.21.74-3.24,2.07-6.35,3.24-9.46.77-2.03,1.19-3.96,3.25-4.87-.09-.11-.18-.22-.28-.33-1.41-1.65-1.67-2.01-1.75-4.13-.98,1.2-1.53,2.35-2.21,3.74-1.2,3.11-5.39,12.33-4.2,15.61Z"/>
  <path class="st10" d="M293.96,301.06c-.11.48-.39,1.3-.16,1.82.14.31.5.45.74.65.33.28.53.71.54,1.14,0,.26-.04.52-.05.78-.08,1.28,0,1.85.35,3.06.29,1.03.02,2.38-.11,3.4-.15,1.26-.33,4.2.51,5.29.3.4,1.01.38,1.4.44.23-2.81-.11-6.42.98-9.08.78-1.91,1.42-3.71,1.98-5.69-1-.18-2-.32-3-.47-1.06-.43-2.12-.87-3.17-1.34Z"/>
  <path class="st10" d="M288.08,259.9c-.03-.76-.28-3.02-.97-3.44-.12-.08-.23-.09-.35-.02-2.42,1.36-2.89,13.56-3.13,16.29l1.41,2.03c1.09-4.58,3.23-10.15,3.04-14.86Z"/>
  <path class="st5" d="M294.54,290.78c-1.71,3.2-1.16,6.88-.58,10.28,1.05.47,2.11.91,3.17,1.34.17-2.99.32-6.04.78-9-.54-.3-1.11-.54-1.59-.93-.47-.39-.68-.94-.73-1.54-.01-.14,0-.29-.02-.44l-.1-1.27-.55.94c-.12.21-.26.41-.38.62Z"/>
  <path class="st10" d="M291.92,287.43c1.27.02,2.48.15,3.75.28l.34-.66c.82-1.52,2.12-3.54,2.26-5.3.02-.24,0-.39-.18-.54-.57-.03-.71.27-1.24.65l-1.26,1.47c-1.21,1.44-2.32,2.79-3.68,4.1Z"/>
  <path class="st1" d="M291.99,286.3c-.03.37-.04.75-.07,1.13,1.36-1.31,2.47-2.66,3.68-4.1l1.26-1.47c-.39-.21-.79-.41-1.17-.63-.67-.37-1.27-.87-2.07-.91-1-.06-1.54.89-2.13,1.54.71,1.7.63,2.61.5,4.44Z"/>
  <path class="st10" d="M272.65,251.77c.82-2.71,1.79-5.37,2.61-8.06.18-.6.33-1.2.51-1.79.59-1.94,1.29-3.73.3-5.69-.03.02-.07.02-.1.04-1.16.88-3.86,9.04-4.16,10.69-.27,1.47-.44,3.17-1.81,4.08l-1.27.82c1.3.51,1.89,1.12,3.02,2.08.35-.79.65-1.38.89-2.17Z"/>
  <path class="st10" d="M266.84,154.61c-1.17,3.11-2.5,6.22-3.24,9.46l1.17.89c.16-.37.33-.73.49-1.09,1.98-4.26,5-9.34,4.83-14.13-2.06.91-2.49,2.84-3.25,4.87Z"/>
  <path class="st10" d="M295.77,405.98l2.19,2.16c2.24-4.31,4.38-9,5.91-13.61-3.47,2.01-5.47,8.2-8.1,11.45Z"/>
  <path class="st10" d="M298.7,341.36c.27.85,1.03,1.74,1.51,2.42.45-.39,1.1-.84,1.35-1.43.54-1.27,1.34-2.22,1.89-3.44.44-.98.57-2.65.2-3.65-.11-.03-.16-.07-.27-.03-.4.15-.86,1.02-1.01,1.31-.42.79-.83,1.93-1.6,2.49-.22.16-.43.21-.69.11-.27-.11-.53-.26-.79-.39-.49.95-.92,1.55-.58,2.61Z"/>
  <path class="st10" d="M300.13,302.87c-.22-1.53-.41-2.92-.46-4.46-.04-1.26.09-2.72-.39-3.95-.28-.7-.69-.78-1.36-1.06-.46,2.96-.61,6.01-.78,9,1,.15,2.01.29,3,.47Z"/>
  <path class="st10" d="M263.29,184.49c.38.14.96.1,1.27.13.43.04.83.28,1.23.43l.39-.58c1.01-1.5,2.89-3.83,2.58-5.82-.04-.23-.11-.37-.32-.44-.93-.33-3.09,3.7-4.11,4.35-.35.22-.74.34-1.14.18-.46-.18-.91-.4-1.37-.6.35.91.47,1.98,1.46,2.35Z"/>
  <path class="st6" d="M302.24,376.81c.57-.41,1.3-.55,1.99-.41.61.12,1.21.42,1.85.25.17-.04.28-.14.35-.3.2-.53.07-1.14-.22-1.62-.35-.57-1-.85-1.63-.97-.16-.04-.32-.05-.48-.07-.08-.01-.68-.14-.84-.11-.68.1-1.32.64-1.78,1.11-.36.37-.68.79-1.07,1.14-.38.35-.78.68-1.18,1.01l1.43,1.67c.49-.56,1-1.26,1.59-1.7Z"/>
  <path class="st10" d="M302.58,316.89c.17-.47.32-.94.49-1.41.29-.81.89-1.97.7-2.9-.22-.12-.24-.19-.54-.13-1.77.31-2.93,4.12-3.65,5.39l-.49.86,2,1.56c.51-1.12,1.06-2.22,1.49-3.37Z"/>
  <path class="st10" d="M277.63,249.77c-.09-.16-.21-.16-.37-.17-1.32.94-1.83,3.65-2.45,5.08-.25.57-.51,1.13-.77,1.7.84.79,1.66,1.59,2.47,2.4.33-1.97,2.14-7.26,1.12-9.01Z"/>
  <path class="st10" d="M301.97,330.23c.99-1.38,2.91-4.17,2.63-5.95-.1-.07-.16-.15-.3-.13-.63.08-1.38,1.35-1.64,1.82-.62,1.1-1.15,2.6-2.35,3.21-.38.2-.77.38-1.15.58.56.67,1.1,1.36,1.64,2.05.4-.52.8-1.05,1.18-1.58Z"/>
  <path class="st10" d="M270.02,198.97c.17-.41.44-1.01.19-1.46-.08-.15-.27-.25-.44-.24-1.58.11-3.81,4.36-4.59,5.54l1.4,1.02c1.19-1.46,2.7-3.11,3.44-4.86Z"/>
  <path class="st2" d="M289.99,474.18c1.03-1,2.31-2.09,3.14-3.27.15-.21.35-.53.23-.8-.13-.3-.24-.26-.57-.39-1.39.33-1.97.89-2.81,2.06-.57.8-1.12,1.63-1.68,2.43l.6,1c.36-.34.73-.68,1.09-1.03Z"/>
  <path class="st10" d="M281.51,256.2c.38-1.07.91-2.16.78-3.33-.04-.39-.18-.86-.58-1.02-.22-.09-.43-.07-.64.07-.9.59-1.18,2-1.49,2.92l1.49,2.69c.15-.44.28-.89.44-1.33Z"/>
  <path class="st2" d="M305.27,354.7c-.4-.1-.81-.17-1.21-.26-.67.35-1.35.68-1.45,1.53-.04.38.15.83.48,1.04.35.21.97.29,1.26.37.58-.24,1.25-.44,1.59-1.02.21-.37.23-.55.12-.94-.1-.34-.45-.63-.79-.72Z"/>
  <path class="st10" d="M267.94,170.1c.65-1.03,1.32-2.02,1.99-3.03,1.56-2.35,1.63-3.67,1.26-6.4-1.56,3.13-3.57,5.83-3.25,9.43Z"/>
  <path class="st10" d="M270.32,185.93c-.36.56-.71,1.12-1.07,1.67-.18.28-.39.55-.58.83-.38.57-1.03,1.56-.81,2.31.04.14.19.26.32.3.23.09.48.12.73.18.29-.48.58-.96.88-1.44.23-.36.47-.71.7-1.07.35-.55.82-1.5.59-2.16-.12-.36-.46-.45-.76-.62Z"/>
  <path class="st3" d="M300.17,471.92c.48-.11.96-.25,1.43-.39.51-.17,1.05-.28,1.52-.53-.47.05-.93.14-1.4.23-.52.23-1.07.39-1.56.69Z"/>
  <path class="st4" d="M223.15,131.76c3.47.28,17.93-1.59,19.79.88.11.14.16.32.26.47.48.78,1.02.94,1.85,1.21.63.2,1.14.56,1.7.9,1.51.91,4.39.09,5.91-.43,1.3-.43,1.95-.98,2.96-1.89.36-.35.72-.7,1.07-1.06.37-.37.65-.74,1.09-1.05.53-.37,1.27-.73,1.92-.62l.19.27c.73-.13,1.5-.58,2.13-.95.3-.18.58-.39.9-.53.8.27.91.27,1.36.93.26.38.53.88.93,1.15.47.31.97.59,1.46.89.91-1.56,1.78-3.12,2.6-4.72-.24-2.08-.45-4.17-.63-6.25l-4.06-.88c-2.5.82-4.85,1.54-7.42,2.1-4.3.94-8.6,1.76-13.01,1.87-3.65.1-7.29,1.32-11,1.44-3.98.13-8.35-.94-12.23-.08-1.65.33-3.24.58-4.9.82-.57.09-1.33.28-1.7.78-.52.69-.54,1.48-.37,2.29.05.25.14.49.18.74.07.4.08,1.3.1,1.64,1.67.04,3.25-.03,4.92-.12,1.37-.08,2.62.09,4,.2Z"/>
  <path class="st0" d="M152.69,284.46c-1.48,2.96-2.38,6.23-3.12,9.43-.49,2.09-1.42,4.14-2.07,6.2-.2,1.96-.53,3.44-1,5.33-.74,3.02-1.21,5.74-2.36,8.65.13.57.24,1.15.38,1.71.1.44.37,1,.82,1.16.22.08.42.04.63-.06,1.62-.71,3.23-4.37,3.56-5.96.95-4.58,2.72-8.99,3.77-13.57.73-3.19,1.45-6.37,2.66-9.43.38-.95.8-1.88,1.15-2.84,3.54-9.6,9.05-18.83,13.26-28.19,2.12-4.72,4.46-9.31,6.72-13.96.55-1.14,1.07-2.28,1.66-3.4.51-.96.78-1.5,1.15-2.47l-.17-.92c.09-.07.2-.14.28-.22.11-.11.09-.12.08-.23-1.62.44-2.9,2.6-3.7,3.88-.21.35-.4.7-.61,1.05l-1.05,1.71c-2.22,4.17-4.03,7.88-6.98,11.63-3.48,4.41-11.85,24.04-15.09,30.5Z"/>
  <path class="st14" d="M263.64,464.77c-5.06.65-41.31,1.3-42.69,4.1-.06.13-.09.27-.13.4.31.43.78.49,1.29.56,12.19,1.67,44.7-2.56,57.95-4.97-1.61,2.54-3.32,5-5.03,7.47-.94,1.37-1.35,2.61-1.91,4.19,3.85-1.08,3.21-5.53,5.97-6.66l.13.08c.15.49.16.38.14.93-.03.77-.17,1.73.01,2.53.07.33.28.89.64,1.03.14.06.31.05.45-.01,2.07-.91,3.84-6.64,5.07-8.61.96-1.54,1.71-1.96,3.41-2.38.08-.58.25-.96.04-1.47-.06-.15-.14-.28-.19-.43-.13-.35-.11-.76.09-1.08.09-.14.21-.25.31-.38l.82-1.03c-2.48.88-4.75,1.61-7.33,2.15-6.3,1.29-12.65,2.76-19.03,3.58Z"/>
  <path class="st10" d="M266.27,136c-.3.9-.56,1.82-.85,2.73-.79,2.49-1.64,4.56-2.11,7.16l1.24,1.23c1.09-2.67,2.11-6.12,3.87-8.4.92-1.2,1.19-1.19,2.7-1.41.96-.86,1.64-1.53,2.35-2.59-.16-.31-.33-.62-.47-.94-1.07-2.33-2.16-4.52-3.72-6.57-.82,1.6-1.69,3.16-2.6,4.72.61,1.73.2,2.29-.41,4.07Z"/>
  <path class="st10" d="M266.27,136c.6-1.78,1.02-2.34.41-4.07-2.64,2.98-3.45,6.4-4.97,9.97.69,1.38,1.2,2.52,1.61,3.99.47-2.6,1.32-4.67,2.11-7.16.29-.91.54-1.83.85-2.73Z"/>
  <path class="st10" d="M268.42,138.72c-1.75,2.28-2.77,5.73-3.87,8.4l1.31,1.9c.68-1.39,1.23-2.54,2.21-3.74,1.19-2.65,2.2-5.18,3.05-7.97-1.51.22-1.78.21-2.7,1.41Z"/>
  <path class="st14" d="M265.22,131.04c-.41-.27-.67-.77-.93-1.15-.45-.66-.56-.66-1.36-.93-.32.14-.6.35-.9.53-.63.37-1.4.82-2.13.95l-.19-.27c-.66-.11-1.4.25-1.92.62-.44.31-.72.68-1.09,1.05-.35.36-.71.71-1.07,1.06.07.48.15.95.2,1.43.04.38.05.75.08,1.12.08.78.31,1.8.95,2.33.31.25.41.23.79.32.85-.3,1.05-.92,1.55-1.65.11-.16.17-.19.34-.33h.21c.31.36.42.76.38,1.24-.05.55-.32,1.1-.46,1.61-.14.53-.04,1.09.27,1.54.41.6,1.23,1.02,1.77,1.39,1.53-3.57,2.33-6.99,4.97-9.97-.49-.3-.98-.58-1.46-.89Z"/>
  <path class="st14" d="M290.79,355.68c-.53-25.07-5.17-52.66-24.19-70.75-11.41-10.86-24.66-13.75-39.71-15.43-19.98.68-37.06,4.19-51.3,19.36-18.06,19.24-21.44,48.98-20.33,74.21,1.05,23.94,6.39,50.73,25.09,67.46,11.44,10.23,24.98,14.67,40.07,15.74,19.01-.31,36.49-4.8,50.18-18.81,18.01-18.44,20.71-47.32,20.19-71.78ZM260.74,432.32c-9.24,7.03-22.44,10.56-33.9,11.3-16.1,1.04-32.68-4.02-44.73-14.92-17.2-15.55-22.64-40.3-24.02-62.48-1.56-24.98,1.2-55.3,18.84-74.69,11-12.1,26-18.11,42.09-18.88,16.58-.79,33.27,2.63,45.68,14.44,18.14,17.28,22.88,44.36,23.23,68.32.36,24.57-1.89,52.26-19.83,70.83-2.34,2.21-4.6,4.38-7.36,6.08Z"/>
  <path class="st9" d="M287.92,355.41c-.36-23.96-5.09-51.04-23.23-68.32-12.41-11.81-29.1-15.23-45.68-14.44-16.09.77-31.09,6.78-42.09,18.88-17.63,19.39-20.39,49.71-18.84,74.69,1.38,22.18,6.82,46.93,24.02,62.48,12.06,10.9,28.64,15.96,44.73,14.92,11.46-.74,24.66-4.27,33.9-11.3-.93-.68-1.91-1.32-2.72-2.13-.18-.18-.96-1.1-1.4-1.37-1.9-1.13-3.57,2.02-5.45,1.98-.6-.02-1.17-.45-1.51-.91-.33-.46-.44-.9-.26-1.44.33-.96,1.36-1.66,2.25-2.02.69-.28,1.28-.47,1.92-.83.55-.31,1.04-.71,1.65-.9.78-.25,1.52-.06,2.18.39.76.5,1.38.93,2.34.8,1.01-.13,1.61-.8,2.14-1.61.6-.92,1.01-1.71,2.06-2.18.57.06.85.02,1.19.52.6.89,1.08,1.82,1.85,2.57.37.36.75.7,1.12,1.05,17.94-18.57,20.19-46.26,19.83-70.83ZM177.12,366.96c-3.71,1.1-5.58-10.37-7.98-11.94-.08.04-.16.06-.23.12-.99.91-1.13,3.56-1.17,4.77-.04,1.48.21,3.85-.6,5.25-.22.39-.54.72-1.02.76-.31.02-.61-.07-.83-.28-2.45-2.43-.85-22.28-.35-26.09.54.32,1.12.63,1.62,1.01.82.64,1.23,1.86,1.35,2.85.15,1.19.05,3.08.74,4.09.1-.01.2-.01.29-.03.31-.09.89-1,1-1.17,1.16-1.78,2.85-4.98,4.88-5.91.37-.17.78-.17,1.14.02.41.21.61.57.67,1.02.31,2-3,5.02-3.99,6.41-.43.62-.81,1.27-1.23,1.9,2.27,5.36,4.36,10.95,6.93,16.16-.35.43-.65.9-1.22,1.06ZM179.25,414.7c0,.09-.02.18-.02.28-.01.24,0,.49,0,.74-.36.04-.64.13-.96-.03-.11-.21-.11-.17-.08-.48.01-.13.05-.25.07-.38.03-.22.05-.44.07-.67.18-.04.36-.09.55-.11.16-.02.19.07.3.17.08.25.09.19.07.48ZM181.41,367.04c.01-8.96-.59-18.25.04-27.16,3.19.03,7.86-.55,10.82.5.51.18,1.12.52,1.28,1.08.1.4,0,.82-.17,1.18-1.25,2.46-5.71.35-7.72,1.32-.51.25-.79.86-.96,1.37-.52,1.52-.71,3.5.19,4.94.47.74,1.39,1.14,2.21,1.32.5.11,1,.17,1.48.31.63.18,1.87.7,2.05,1.4.16.61-.17,1.3-.54,1.76-.44.55-1.18.88-1.89.84-.95-.06-1.64-.41-2.52.06-.89.47-1.23,1.54-1.4,2.45-.25,1.3-.49,2.6-.78,3.88,1.33.44,2.3.81,3.66.91,1.58.13,3.3.02,4.83.57,1,.36,1.42.56,1.84,1.52-.15.37-.1.34-.39.65-1.92,2.03-9.43,1.07-12.03,1.1ZM193.26,423.24c-.36-.18-.18-.04-.49-.45.54-.2.31-.18.67-.18.32.2.12.05.48.57-.44.06-.22.04-.66.06ZM231.95,434.55c-.14.24-.29.46-.42.7-.14.24-.73,1.28-.65,1.57.15.05.1,0,.17.12-.09.44-.54.88-.89,1.14-.12.09-.26.15-.37.25-.4.38-.77.79-1.16,1.19-.12-.13-.72-.84-.92-1.02-.15-.14-.39-.18-.59-.16-.23.01-.61.12-.88.03-.45-.15-.53-.44-.68-.84.38-.48,1.12-.68,1.71-.74.66-.06,1.18.01,1.79-.26.6-.27,1.03-.86,1.2-1.48.1-.33.15-.67.23-1l.34-1.43s.92-.29,1.2-.16c.2.1.31.2.36.43.15.54-.19,1.2-.44,1.66ZM239.63,432.85c.42.1.17.02.73.31-.6-.18-.37-.05-.73-.31ZM244.4,363.4c0,.9-.04,2.41-.71,3.12-.25.27-.39.34-.74.33-.57-.02-1.1-.46-1.4-.92-1.28-1.94-.73-5.89-.67-8.03.02-.77.02-1.75-.52-2.36-.75-.84-3.43-.85-4.37-.74-.83.1-1.57.4-2,1.15-2.32,4.06,1.68,8.08-2.89,11.7-.12.09-.23.19-.35.28-.54-.84-.95-1.35-1.27-2.21-.75-1.94-.62-1.76-1.58-3.33-.39.38-.79.74-1.18,1.12-.5.49-.98,1-1.5,1.47-1.85,1.64-3.61,2.35-6.09,2.21-2.03-.11-3.81-1.05-5.07-2.67-3.64-4.69-2.05-13.81-1.22-19.15l-2.33-1.59-.48-.03c-.93-.06-2.85-.37-3.83.19-1.99,1.15.16,17.98-.84,21.4-.16.57-.52,1.3-1.13,1.49-.41.12-.9.05-1.23-.23-.67-.57-.62-1.94-.62-2.71-.01-3.09,1.27-17.53-.42-19.45-.35-.39-.79-.54-1.3-.61-.81-.11-2.4-.02-2.96-.91-.24-.39-.39-1.06-.16-1.49.83-1.54,6.75-1.3,8.12-1.35,1.85-.08,2.99.03,4.35,1.3,1.53.3,3.05.58,4.56.92l1.11-.59c3.29-1.71,5.21-2,8.74-.88,2.19-.14,4.13-.33,6.26-.86,1.25.41,2,.42,2.63,1.56.96,1.71.21,5.48.13,7.39-.02.71.01,1.43.48,2.01.63.77,2.85,1.12,3.8,1.1.93-.03,1.79-.42,2.35-1.16,1.89-2.52-.79-9.96,1.92-11.02.6-.23,1.28-.01,1.8.3.74.43.69,2.58.69,3.24.07,6.67-.12,13.34-.08,20.01ZM260.55,364.81c-1.44,1.52-3.86,2.2-5.91,2.1-1.81-.1-3.5-.94-4.66-2.34-3.94-4.65-1.81-19.63-1.43-25.44.25.12.5.24.75.36.37.17.82.31,1.16.56,2.66,2,.56,15.71.95,19.38.13,1.26.65,2.67,1.77,3.39.85.54,2.33.83,3.31.49,6.28-2.17-.41-17.92,2.79-22.5.3-.42.69-.82,1.25-.82.84-.01,1.26.66,1.75,1.24.03,5.34,2.06,19.6-1.73,23.58ZM277.19,353c-1.09,1.28-2.36,2.01-4.05,2.09-.91.05-2.23-.11-3.05.43-.26.17-.5.37-.75.56-.01,2.43.73,7.8-.36,9.92-.23.46-.7.83-1.21.91-.45.06-.89-.18-1.2-.48-2.37-2.35-.52-22.51-.2-26.36,3.11-.03,7.94-1.11,10.72.87,1.46,1.02,2.21,2.76,2.41,4.48.31,2.74-.53,5.48-2.31,7.58Z"/>
  <path class="st0" d="M265.13,422.62c-.35-.5-.62-.46-1.2-.52-1.04.47-1.46,1.26-2.06,2.18-.53.81-1.13,1.48-2.13,1.61-.96.13-1.58-.3-2.34-.8-.66-.45-1.4-.64-2.19-.39-.6.19-1.1.59-1.64.9-.64.36-1.24.55-1.92.83-.9.36-1.93,1.06-2.25,2.02-.18.54-.07.98.26,1.44.34.46.91.89,1.51.91,1.88.04,3.55-3.11,5.45-1.98.44.27,1.22,1.19,1.4,1.37.82.81,1.79,1.45,2.72,2.13,2.76-1.7,5.02-3.87,7.36-6.08-.37-.35-.75-.69-1.12-1.05-.77-.75-1.25-1.68-1.85-2.57Z"/>
  <path class="st15" d="M230.68,339.97c-2.13.53-4.07.72-6.26.86.43,1.02.89,2.04,1.3,3.07.45,1.12.73,1.99.86,3.17-.32.32-.57.85-1.07.86-.64.02-1.45-.68-1.78-1.17-.25-.35-.46-.73-.71-1.08-.68-1-1.62-1.84-2.84-2.08-.84-.16-1.81-.08-2.53.41-1.37.91-1.82,2.86-1.98,4.39-.34,3.3-1.4,10.6.86,13.44.8,1.01,2.33,1.94,3.63,2,.96.04,1.73-.45,2.33-1.16.97-1.15,1.04-4.56,2.61-4.68.62-.04,1.12.43,1.44.9.68,1.02.96,2.36,1.37,3.49.96,1.57.83,1.39,1.58,3.33.33.86.73,1.37,1.28,2.21-1.53-6.95-2.01-21.15-.08-27.96Z"/>
  <path class="st4" d="M243.8,340.15c-.52-.31-1.2-.53-1.8-.3-2.71,1.06-.03,8.5-1.92,11.02-.56.74-1.42,1.13-2.35,1.16-.95.02-3.17-.33-3.8-1.1-.47-.58-.51-1.3-.48-2.01.08-1.91.82-5.68-.13-7.39-.63-1.14-1.39-1.15-2.64-1.56-1.94,6.81-1.45,21.01.08,27.96.11-.09.23-.19.34-.28,4.57-3.62.58-7.64,2.9-11.7.43-.75,1.17-1.05,1.99-1.15.95-.11,3.63-.1,4.38.74.54.61.54,1.59.52,2.36-.05,2.14-.6,6.09.67,8.03.3.46.83.9,1.4.92.35.01.49-.06.74-.33.68-.71.71-2.22.71-3.12-.03-6.67.15-13.34.09-20.01,0-.66.04-2.81-.69-3.24Z"/>
  <path class="st4" d="M225.09,358c-1.57.12-1.64,3.53-2.61,4.68-.6.71-1.38,1.2-2.33,1.16-1.3-.06-2.83-.99-3.63-2-2.26-2.84-1.2-10.14-.86-13.44.16-1.53.61-3.48,1.98-4.39.72-.49,1.69-.57,2.53-.41,1.22.24,2.16,1.08,2.84,2.08.24.35.46.73.71,1.08.33.49,1.14,1.19,1.78,1.17.5-.01.75-.54,1.07-.86-.13-1.18-.41-2.05-.86-3.17-.41-1.03-.87-2.05-1.3-3.07-3.53-1.12-5.45-.83-8.74.88l-1.11.59c-.57,1.02-1.15,2.05-1.73,3.07-.83,5.34-2.42,14.46,1.22,19.15,1.26,1.62,3.03,2.56,5.07,2.67,2.48.14,4.24-.57,6.08-2.21.53-.47,1.01-.98,1.51-1.47.39-.38.78-.74,1.18-1.12-.41-1.13-.7-2.47-1.37-3.49-.32-.47-.82-.94-1.44-.9Z"/>
  <path class="st0" d="M210.02,341.38l.49,2.4,2.33,1.59c.58-1.02,1.16-2.05,1.73-3.07-1.51-.34-3.03-.62-4.56-.92Z"/>
  <path class="st5" d="M277.1,340.94c-2.78-1.98-7.61-.9-10.72-.87-.32,3.85-2.17,24.01.2,26.36.31.3.75.54,1.21.48.51-.08.98-.45,1.21-.91,1.09-2.12.35-7.49.36-9.92.25-.19.49-.39.75-.56.82-.54,2.14-.38,3.05-.43,1.69-.08,2.96-.81,4.05-2.09,1.78-2.1,2.62-4.84,2.31-7.58-.2-1.72-.96-3.46-2.41-4.48ZM275.3,351.65c-.26.01-.52.02-.79.04-.91.06-2.01.24-2.94.14-.69-.07-1.38-.31-1.76-.92-1.27-2.05-.1-6.54.23-8.75.34.08.69.17,1.03.24,1.58.36,3.48.62,4.46,2.11,1.35,2.04.23,4.99-.24,7.14Z"/>
  <path class="st15" d="M271.08,342.4c-.35-.07-.69-.16-1.03-.24-.33,2.21-1.5,6.7-.23,8.75.38.61,1.07.85,1.76.92.93.1,2.03-.08,2.94-.14.26-.02.52-.03.79-.04.47-2.15,1.59-5.1.24-7.14-.98-1.49-2.88-1.75-4.46-2.11Z"/>
  <path class="st4" d="M171.42,349.74c.42-.63.8-1.28,1.23-1.9.98-1.39,4.29-4.41,3.99-6.41-.07-.45-.27-.81-.67-1.02-.37-.19-.77-.19-1.14-.02-2.04.93-3.72,4.13-4.88,5.91-.11.17-.68,1.08-1,1.17-.09.02-.19.02-.29.03-.69-1.01-.59-2.9-.74-4.09-.12-.99-.53-2.21-1.35-2.85-.5-.38-1.08-.69-1.61-1.01-.5,3.81-2.1,23.66.34,26.09.22.21.52.3.83.28.49-.04.8-.37,1.02-.76.81-1.4.56-3.77.6-5.25.03-1.21.17-3.86,1.17-4.77.06-.06.15-.08.22-.12,2.41,1.57,4.27,13.04,7.99,11.94.56-.16.87-.63,1.22-1.06-2.58-5.21-4.66-10.8-6.93-16.16Z"/>
  <path class="st4" d="M260.54,339.99c-.56,0-.95.4-1.25.82-3.2,4.58,3.49,20.33-2.8,22.5-.97.34-2.45.05-3.31-.49-1.12-.72-1.63-2.13-1.77-3.39-.39-3.67,1.71-17.38-.95-19.38-.34-.25-.79-.39-1.16-.56-.26-.12-.51-.24-.76-.36-.38,5.81-2.51,20.79,1.44,25.44,1.16,1.4,2.85,2.24,4.66,2.34,2.05.1,4.47-.58,5.91-2.1,3.78-3.98,1.76-18.24,1.72-23.58-.48-.58-.91-1.25-1.74-1.24Z"/>
  <path class="st4" d="M193.84,365.29c-.42-.96-.85-1.16-1.85-1.52-1.52-.55-3.24-.44-4.83-.57-1.36-.1-2.33-.47-3.66-.91.29-1.28.53-2.58.78-3.88.18-.91.52-1.98,1.4-2.45.88-.47,1.57-.12,2.53-.06.71.04,1.44-.29,1.88-.84.37-.46.71-1.15.55-1.76-.18-.7-1.42-1.22-2.05-1.4-.49-.14-.99-.2-1.48-.31-.82-.18-1.75-.58-2.21-1.32-.9-1.44-.71-3.42-.19-4.94.17-.51.45-1.12.96-1.37,2.01-.97,6.47,1.14,7.71-1.32.18-.36.28-.78.17-1.18-.15-.56-.77-.9-1.27-1.08-2.96-1.05-7.63-.47-10.82-.5-.63,8.91-.04,18.2-.05,27.16,2.6-.03,10.11.93,12.03-1.1.29-.31.24-.28.4-.65Z"/>
  <path class="st4" d="M205.66,340.08c-1.37.05-7.28-.19-8.12,1.35-.24.43-.08,1.1.16,1.49.55.89,2.15.8,2.95.91.51.07.95.22,1.3.61,1.69,1.92.41,16.36.42,19.45,0,.77-.04,2.14.62,2.71.33.28.82.35,1.22.23.61-.19.97-.92,1.14-1.49,1-3.42-1.15-20.25.84-21.4.97-.56,2.89-.25,3.82-.19l.48.03-.49-2.4c-1.36-1.27-2.5-1.38-4.36-1.3Z"/>
  <path class="st0" d="M232.04,432.46c-.28-.13-1.15.15-1.2.16l-.34,1.43c-.08.33-.13.67-.22,1-.18.62-.61,1.21-1.2,1.48-.61.27-1.13.2-1.79.26-.59.06-1.34.26-1.71.74.15.4.23.69.67.84.27.09.65-.02.89-.03.2-.02.44.02.59.16.19.18.8.89.92,1.02.39-.4.76-.81,1.16-1.19.11-.1.25-.16.37-.25.35-.26.8-.7.89-1.14-.07-.12-.02-.07-.18-.12-.08-.29.52-1.33.65-1.57.13-.24.29-.46.42-.7.25-.46.59-1.12.45-1.66-.06-.23-.17-.33-.36-.43Z"/>
  <path class="st0" d="M238.38,326.08c-.41,0-1.1.3-1.32.37.22,1.27.12,1.33,1.04,2.1.1-.38.2-.76.31-1.14.04-.14.11-.28.15-.42.14-.45.11-.34.08-.74-.11-.12-.1-.16-.28-.17Z"/>
  <path class="st11" d="M178.88,414.05c-.19.02-.37.07-.55.11-.02.23-.04.45-.07.67-.02.13-.06.25-.07.38-.03.31-.03.27.08.48.32.16.6.07.96.03,0-.25-.01-.5,0-.74,0-.1.02-.19.03-.28.01-.29,0-.23-.07-.48-.11-.1-.15-.19-.3-.17Z"/>
  <path class="st11" d="M193.44,422.61c-.35,0-.12-.02-.67.18.31.41.13.27.49.45.44-.02.22,0,.66-.06-.36-.52-.16-.37-.48-.57Z"/>
  <path class="st0" d="M240.37,433.16c-.56-.29-.31-.21-.73-.31.36.26.13.13.73.31Z"/>
</svg>