<?xml version="1.0" encoding="UTF-8"?>
<svg id="Layer_1" xmlns="http://www.w3.org/2000/svg" version="1.1" viewBox="0 0 500 500">
  <!-- Generator: Adobe Illustrator 30.3.0, SVG Export Plug-In . SVG Version: 2.1.3 Build 182)  -->
  <defs>
    <style>
      .st0 {
        fill: #f4a032;
      }

      .st1 {
        fill: #b15927;
      }

      .st2 {
        fill: #201211;
      }

      .st3 {
        fill: #f4a127;
      }

      .st4 {
        fill: #562311;
      }

      .st5 {
        fill: #b95e28;
      }
    </style>
  </defs>
  <path class="st3" d="M392.67,283.14c-6.06-2.39-6.32-14.77-11.85-17.03-19.04-4.68-40.26-7.42-59.45-11.39-52.22-11.06-104.38-22.39-156.47-34.03-23.87-5.43-47.8-12.35-71.91-16.61-1.02-.18-2.83.95-3.03,2.06-8.49,49.3-12.41,116.44-3.22,165.32,4.17,2.21,16.71,9.15,20.55,7.19,7.3-3.72,11.43-13.45,20.89-13.86,6.94,3.43,7.31,15.51,7.41,22.48,6.37,1.98,17.52,7.15,22.72,3.27,16.12-12.04,22.24-11.15,30.02,10.44,6.88,3.78,85.49,24.87,95.56,26.27,3.36-2.99,4.26-9.74,8.66-10.58,10.11-1.97,13.12,7.13,14.92,14.86,10.9,3.56,136.1,32.39,138.85,31.12.65-7.27,0-20.76.76-25.91.97-33.99,1.09-74.84.14-108.71-.05-3.46-.4-5.6-.26-9.16-.02-8.69.96-34.91-1.93-41.06-8.9-1.03-19.79-3.55-28.73-5.36-5.84,8.61-11.2,15.62-23.65,10.7ZM125.69,279.44c-14.15-9.49-12.4-26.09,3.71-29.61,10.79-2.36,11.73,10.96,12.58,16.75-2.74,7.76-7.22,14.84-16.29,12.86ZM192.82,343.78c-8.67,15.35-19.3,19.33-33.18,7.83-38.2-45.79,34.42-70.71,35.97-20.25.13,3.99-1.68,8.58-2.8,12.43ZM240.25,315.44c-5.62-1.58-11.41-8.84-15.41-13.08-.93-2.53-2.38-5.45-2.81-8.03-4.89-28.75,29.19-35.46,39.93-9.74,1.45,3.46,1.79,8.65,2.26,12.32-3.75,11.05-9.63,22.54-23.95,18.53ZM267.28,409.07c-2.68-2.11-3.7-3.08-6.1-5.63-10.45-29.64,25.06-33.77,25.83-8.46.38,12.42-8.32,15.93-19.73,14.09ZM366.97,406.11l-.95-.38c-15.67-7.55-19.42-17.43-17.46-33.9.56-4.78,2.33-9.34,5.17-13.24,4.09-5.57,10.25-9.25,17.09-10.22,14.37-2.09,32.45,13.24,33.71,28.12l.2,1.92c-.17,21.99-15.89,36.42-37.76,27.69Z"/>
  <path class="st3" d="M402.13,382.66c-4.28-8.41-6.14-10.17-15.35-13.02-6.33-1.97-15.02-2.56-20.53,1.58-15.02,11.29-14.45,24.72,1.67,32.4,17.97,6.95,31.15-2.67,34.21-20.96Z"/>
  <path class="st1" d="M370.82,348.38c-6.84.96-13,4.65-17.09,10.22-2.83,3.89-4.61,8.45-5.17,13.24-1.97,16.47,1.78,26.35,17.46,33.9l1.91-2.12c-16.12-7.68-16.69-21.11-1.67-32.4,5.51-4.14,14.2-3.55,20.53-1.58,9.21,2.85,11.07,4.62,15.35,13.02l2.59-4.24-.2-1.92c-1.26-14.87-19.34-30.21-33.71-28.12Z"/>
  <path class="st1" d="M367.92,403.61l-1.91,2.12.95.38c21.87,8.72,37.58-5.71,37.76-27.69l-2.59,4.24c-3.07,18.29-16.24,27.91-34.21,20.96Z"/>
  <path class="st1" d="M159.64,351.61l2-1.7c-20.66-28.46,27.78-42.78,28.01-7.31l3.17,1.18c1.12-3.85,2.92-8.43,2.8-12.43-1.55-50.45-74.18-25.54-35.97,20.25Z"/>
  <path class="st3" d="M189.65,342.61c-.23-35.47-48.67-21.15-28.01,7.31l.68.5c13.67,10.08,19.37,4.78,27.33-7.81Z"/>
  <path class="st5" d="M162.32,350.41l-.68-.5-2,1.7c13.88,11.5,24.51,7.52,33.18-7.83l-3.17-1.18c-7.96,12.59-13.66,17.89-27.33,7.81Z"/>
  <path class="st3" d="M249.35,285.36c-11.26-2.14-17.77,5.24-21.14,14.28,10.31,19.21,30.34,16.79,32.02-2.13-2.61-4.26-5.26-11.09-10.88-12.15Z"/>
  <path class="st1" d="M228.21,299.63c3.37-9.03,9.88-16.42,21.14-14.28,5.62,1.06,8.27,7.89,10.88,12.15,1.32-.22,2.64-.41,3.97-.59-.46-3.67-.81-8.86-2.26-12.32-10.74-25.73-44.81-19.01-39.93,9.74.43,2.58,1.89,5.5,2.81,8.03,1.29-1.72,1.22-2.2,3.37-2.73Z"/>
  <path class="st5" d="M260.23,297.5c-1.69,18.92-21.71,21.34-32.02,2.13-2.15.53-2.08,1.01-3.37,2.73,4,4.24,9.79,11.5,15.41,13.08,14.32,4.01,20.2-7.48,23.95-18.53-1.33.17-2.65.37-3.97.59Z"/>
  <path class="st1" d="M261.18,403.44l2.18-1.21c1.58-15.69,21.8-13.85,20.39-1.8-.8,6.81-10.32,6.75-15.73,6.64l-.73,2c11.41,1.84,20.11-1.68,19.73-14.09-.77-25.3-36.28-21.18-25.83,8.46Z"/>
  <path class="st3" d="M268.01,407.07c5.41.11,14.93.16,15.73-6.64,1.42-12.05-18.81-13.89-20.39,1.8,1.91,1.74,3.24,2.73,4.66,4.84Z"/>
  <path class="st5" d="M263.35,402.23l-2.18,1.21c2.4,2.54,3.42,3.52,6.1,5.63l.73-2c-1.42-2.11-2.75-3.09-4.66-4.84Z"/>
  <path class="st1" d="M129.4,249.82c-16.11,3.52-17.86,20.13-3.71,29.61.29-.76.26-.94.47-1.97-1.34-9.58,3.61-11.7,12.44-9.94,1.43-.5,1.89-.67,3.38-.95-.85-5.79-1.79-19.12-12.58-16.75Z"/>
  <path class="st0" d="M138.6,267.53c-8.82-1.76-13.77.36-12.44,9.94,7.56-1.31,8.92-2.97,12.44-9.94Z"/>
  <path class="st5" d="M126.16,277.47c-.21,1.03-.18,1.2-.47,1.97,9.07,1.98,13.55-5.1,16.29-12.86-1.49.29-1.96.45-3.38.95-3.52,6.97-4.88,8.63-12.44,9.94Z"/>
  <path class="st3" d="M347.49,126.22c-24.03-4.88-50.17-12.28-74.47-14.99-4.98,9.14-15.26,21.02-26.73,11.02-4.84-4.22-4.25-11.52-4.14-17.56-19.69-3.07-56.57-9.99-75.32-15.05-7.89,21.29-5.22,90.12-2.24,113.94,7.33,2.89,45,8.45,56.49,10.79,8.89-13.34,16.48-9.87,21.53,3.4,12.06,2,24.18,3.66,36.32,5.01,2.36-5.91,3.31-7.46,6.63-13.14,6.38-3.46,7.86-5.13,15.37-2.58,7.62,2.58,10.68,12.94,10.88,20l.04.94c23.91,3.62,47.84,7.08,71.8,10.33,16.63-26.25,23.47,1.16,30.88,4.61-1.37-22.02,1.06-45.07-1.66-66.52-.5-3.92-13.77-5.06.59-21.36.13-5.02-.12-10-.3-15.02-2,.13-27.68-6.07-31.42-6.89-11.85,20.87-32.37,15.83-34.23-6.93ZM222.41,172.45c-2.94,7.63-10.61,10.61-18.36,10.61-7.4,0-12.61-6.8-17.27-11.33-9.2-15.57.32-37.3,19.69-32.26,15.23,3.97,19.93,18.43,15.94,32.98ZM303.48,166.76c-7.87,5.07-13.84-1.25-19.41-3.82-20.18-18.2,20.49-44.06,26.74-8.51-1.15,5.09-2.73,9.36-7.33,12.33ZM363.13,192.08c-.46,3.64-3.56,7.51-6.42,9.6-.38.28-.77.54-1.15.82-.53.39-1.04.81-1.55,1.21-1.16.21-2.27.36-3.44.37-3.63.04-6.56-1.43-9.04-4.1-3.57-3.84-5.01-9.02-4.6-14.19.31-3.94,2.3-7.27,5.33-9.76.82-.67,1.65-1.33,2.46-2.01,1.47-.05,2.94-.15,4.41-.02,3.87.35,8.34,2.61,10.76,5.67,2.82,3.57,3.82,7.94,3.25,12.41Z"/>
  <path class="st3" d="M201.86,64.42c-6.37,2.85-14.54,7.01-20.38,11.23-4.16,3-6.02,4.37-9.73,7.95l-4.1,3.91c23.48,6.46,51.55,9.24,76.89,16,.3,5.96-.25,12.98,5.02,16.89,7.43,5.51,14.59-1.53,18.51-7.45.9-1.39,1.74-2.82,2.54-4.28,26.25,2.77,54.33,9.77,79.88,16.1,1.35,6.43,2.05,12.47,8.12,16.3,7.46,4.72,15,.04,18.78-6.81.71-1.31,1.39-2.63,2.02-3.98,9.58,1.14,24.14,4.92,33.81,7.5-5.82-11.66-25.47-32.02-34.73-43.57-16.98,4.49-24.73-1.01-13.65-17.31-10.42-11.89-19.5-24.36-29.82-36.3-23.15-4.25-109.51,13.26-133.17,23.84Z"/>
  <path class="st5" d="M377.4,134.24c-3.78,6.84-11.32,11.53-18.78,6.81-6.06-3.83-6.77-9.87-8.12-16.3-25.55-6.33-53.63-13.32-79.88-16.1-.79,1.46-1.64,2.89-2.54,4.28-3.91,5.92-11.08,12.97-18.51,7.45-5.27-3.91-4.72-10.93-5.02-16.89-25.34-6.76-53.41-9.54-76.89-16l-.84,2.13c18.76,5.06,55.63,11.98,75.32,15.05-.11,6.03-.69,13.34,4.14,17.56,11.47,10,21.75-1.88,26.73-11.02,24.29,2.71,50.43,10.11,74.47,14.99,1.86,22.76,22.38,27.8,34.23,6.93,3.74.82,29.43,7.02,31.42,6.89l.09-2.27c-9.67-2.59-24.22-6.36-33.81-7.5-.64,1.34-1.31,2.67-2.02,3.98Z"/>
  <path class="st1" d="M311.84,228l-.04-.94c-.2-7.06-3.27-17.42-10.88-20-7.51-2.55-8.98-.88-15.37,2.58-3.33,5.68-4.27,7.24-6.63,13.14,3.46.68,6.94,1.26,10.43,1.73,5.35.74,17.96,2.13,22.49,3.5Z"/>
  <path class="st1" d="M221.07,214.37c5.77.67,16.01,2.19,21.53,3.4-5.04-13.26-12.64-16.73-21.53-3.4Z"/>
  <path class="st3" d="M216.46,176.5c3.72-2.21,3.87-8.57,4.48-12.33l-2.04-2.84c-9.57-13.39-21.85-8.83-29.12,3.77,2.64,14.64,13.89,18.98,26.68,11.39Z"/>
  <path class="st1" d="M206.47,139.47c-19.38-5.04-28.89,16.68-19.69,32.26,2.75-3.27,2.34-2.27,3-6.62,7.27-12.6,19.55-17.16,29.12-3.77l2.04,2.84c1.08,2.7.94,5.34,1.47,8.28,3.98-14.55-.71-29.01-15.94-32.98Z"/>
  <path class="st5" d="M216.46,176.5c-12.79,7.59-24.04,3.24-26.68-11.39-.66,4.35-.25,3.35-3,6.62,4.67,4.53,9.87,11.34,17.27,11.33,7.75,0,15.42-2.98,18.36-10.61-.54-2.94-.4-5.57-1.47-8.28-.62,3.76-.76,10.12-4.48,12.33Z"/>
  <path class="st1" d="M284.07,162.94c.95-.77,1.86-1.5,2.81-2.3,1.15-13.49,12.66-16.32,20.14-7.24l.94,1.11,2.85-.09c-6.25-35.55-46.92-9.69-26.74,8.51Z"/>
  <path class="st3" d="M307.96,154.52l-.94-1.11c-7.48-9.08-18.99-6.26-20.14,7.24,9.66,6.61,17.42,7.09,21.08-6.12Z"/>
  <path class="st5" d="M286.87,160.64c-.94.79-1.85,1.53-2.81,2.3,5.57,2.57,11.55,8.89,19.41,3.82,4.6-2.97,6.18-7.23,7.33-12.33l-2.85.09c-3.66,13.21-11.42,12.74-21.08,6.12Z"/>
  <path class="st1" d="M349.13,173.99c-1.47-.13-2.93-.04-4.41.02-.81.69-1.64,1.34-2.46,2.01-3.03,2.49-5.02,5.81-5.33,9.76-.41,5.17,1.03,10.35,4.6,14.19,2.48,2.67,5.41,4.15,9.04,4.1,1.18-.01,2.28-.16,3.44-.37.51-.4,1.02-.82,1.55-1.21.38-.28.77-.54,1.15-.82,2.86-2.09,5.96-5.96,6.42-9.6.57-4.47-.42-8.84-3.25-12.41-2.42-3.06-6.89-5.32-10.76-5.67ZM359.82,193.37c-.4,3.09-3.18,5-5.41,6.81-.85.28-1.71.6-2.57.8-2.37.53-4.34.02-6.29-1.41-1.9-1.37-4.08-3.59-4.29-6.06-.16-1.86.88-3.38,2.1-4.68.26-.27.53-.51.79-.77l1.18-1.18c.8-.07,1.59-.15,2.38-.23.8-.08,1.59-.2,2.39-.23,3.03-.12,6.22.88,8.37,3.09.93.95,1.53,2.55,1.36,3.87Z"/>
  <path class="st3" d="M350.09,186.41c-.8.03-1.59.15-2.39.23-.79.09-1.58.17-2.38.23l-1.18,1.18c-.26.26-.53.51-.79.77-1.22,1.3-2.27,2.81-2.1,4.68.21,2.47,2.39,4.69,4.29,6.06,1.96,1.43,3.92,1.94,6.29,1.41.87-.2,1.73-.52,2.57-.8,2.23-1.81,5-3.72,5.41-6.81.17-1.32-.43-2.92-1.36-3.87-2.15-2.21-5.34-3.21-8.37-3.09Z"/>
  <path class="st1" d="M447.08,436.73c-.75,5.15-.12,18.64-.76,25.91-2.75,1.27-127.95-27.56-138.85-31.12-1.8-7.73-4.81-16.83-14.92-14.86-4.4.85-5.29,7.6-8.66,10.58-10.06-1.4-88.67-22.49-95.56-26.27-7.78-21.59-13.9-22.48-30.02-10.44-5.21,3.88-16.35-1.29-22.72-3.27-.11-6.97-.47-19.05-7.41-22.48-9.46.41-13.59,10.14-20.89,13.86-3.84,1.96-16.38-4.98-20.55-7.19-9.19-48.88-5.27-116.02,3.22-165.32.19-1.11,2-2.24,3.03-2.06,24.11,4.26,48.04,11.18,71.91,16.61,52.09,11.64,104.25,22.97,156.47,34.03,19.18,3.97,40.41,6.71,59.45,11.39,5.52,2.27,5.78,14.64,11.85,17.03,12.44,4.92,17.8-2.09,23.65-10.7,8.94,1.81,19.83,4.33,28.73,5.36-4.19-7.5-23.99-28.32-30.53-34.86-7.4-3.45-14.25-30.86-30.88-4.61,5.92,1.35,24.89,2.27,27.8,4.9l-1.01,1.43c-4.24,1.37-20.6-2.05-26.18-2.86l-70.78-10.87-111-17.12c-16.86-2.75-34.15-5.33-50.84-8.92-5.85-1.26-5.39-2.47-8.42-7.4-.81-1.15-4.57-8.59-2.33-9,1,.62,2.48,5.29,2.94,6.57,6.47,7.73,11.95,6.23,20.78,8.51-2.99-23.82-5.65-92.64,2.24-113.94l.84-2.13,4.1-3.91c3.71-3.58,5.56-4.95,9.73-7.95,5.84-4.22,14.01-8.38,20.38-11.23,23.67-10.57,110.02-28.09,133.17-23.84-3.78-4.55-7.57-9.19-11.42-13.64-5.27-6.08-9.29-11.12-17.54-6.18-6.73,4.03-16.27-1.41-23.47-.71-4.15.45-12.62,4.51-16.55,6.64-15.9-2.22-22.32-1.74-36.06,7.27-16.85-.01-19.12.32-33.11,10.09-11.66-.15-16.66,1.23-25.48,9.96-1.08,1.07-2.14,2.17-3.17,3.28-41.51,8.14-35.18,47.19-34.43,79.64.38,16.27,1.71,5.13-9.92,15.93-15.5.34-19.23,1.91-28.27,14.38-23.19,1.69-16.92,12.31-35.15,22.28-4.44,8.55-4.59,12.17-2.84,22-2.27,4.36-4.46,7.59-4.9,12.42,3.13,2.66,4.68,4.22,3.92,9.08-.22,1.36,4.64,5.09,2.56,9.17-.02.04-.21,3.34-1.3,3.89-.55-.82.14-2.01-.66-2.78-.4,0-.27.04-.63.34-7.46,11.7-5.21,22.86.1,34.75-4.66,15.42-4.08,20.44.14,35.91-1.09,3.32-3.05,8.79-3.04,12.17,0,6.31,1.97,13.09,1.96,19.42-.03,11.74-4.19,22.62,1.74,33.83,4.57,8.63,11.06,9.48,19.68,11.9,16.74,4.5,33.59,8.52,50.43,12.62,9.35,2.28,18.77,5.22,28.22,7.33,4.66,1.05,17.52-.21,20.89.98,13.48,4.75,25.82,8.38,39.71,12l145.75,36.94c26.01,6.82,56.68,14.8,83.33,19.65.04,0,2.6.09,2.63.1-1.4-8.5.87-39.85-1.08-44.51ZM209.12,52.28c.45.56.3,1.29.29,1.97-.6.16-1.21.3-1.8.48-.48.15-1.7.83-2.27.55-.55-.27-.67-1.1-.75-1.62-.07-.44-.11-.88-.17-1.32-.1-.6-.22-1.19-.33-1.78,1.36.3,4.04.48,5.04,1.72ZM186.76,49.65c.57-.65,1.61-.81,2.42-.89.58-.06,1.16-.09,1.74-.17l1.71-.24c.61.28.71.2.99.66,0,.33.04.31-.28.64-.92.91-3.36.97-4.47,1.09-.5,0-1,.05-1.49-.03-.42-.07-.6-.16-.84-.51.05-.3,0-.28.23-.53ZM156.91,155.28c.11,0,.78-.02.94.02.13.03.28.12.34.25.09.22-.03.5-.13.7-.11.18-.22.35-.34.53-.14.25-.29.5-.43.75-.23.05-.84.28-1.18.17-.22-.07-.19-.12-.33-.33.05-.93.56-1.36,1.13-2.1ZM154.38,168.43c.09-.12.19-.23.29-.35l.77-1c.47.05.94.1,1.42.14.66.06,1.37.02,1.99.29.25.11.43.28.48.55.14.79-.84,1.9-1.17,2.4-.67-.08-1.35-.18-2.03-.21-.6-.03-.54.02-1.14-.07-.31-.05-.79-.14-.94-.47-.19-.42.11-.96.34-1.29ZM151.12,147.81c1.39,2.15,1.26,6.04.64,8.41-.35,1.32-.69,2.62-1,3.96-.24.03-1.17.29-1.41-.06-.37-.51-.19-1.09-.11-1.68.7-4.67-.04-7.36-.85-11.96,1,.31,2.13.39,2.73,1.33ZM146.62,168.33c.14-.11.76-.67,1.1-.82.18-.08.17-.06.31.01.11.25.11.2.11.53,0,.13-.03.25-.03.38l-.05.96c-.38.13-.64.28-1.02.23-.4-.34-.41-.56-.67-1.11.09-.06.17-.13.25-.19ZM65.97,251.21c-.44,0-1.23.13-1.64-.14-.17-.11-.24-.19-.27-.39-.05-.39.61-.96.75-1.12.18,0,1.01.04,1.31.1.26.05.24.1.4.3-.03.55-.23.7-.55,1.25Z"/>
  <path class="st2" d="M289.35,224.5c-3.49-.46-6.97-1.04-10.43-1.73-12.15-1.35-24.26-3.02-36.32-5.01-5.51-1.21-15.75-2.72-21.53-3.4-11.49-2.34-49.16-7.91-56.49-10.79-8.83-2.28-14.31-.78-20.78-8.51l-.61,2.43c3.04,4.93,2.57,6.14,8.42,7.4,16.69,3.58,33.98,6.16,50.84,8.92l111,17.12,70.78,10.87c5.58.81,21.94,4.23,26.18,2.86l1.01-1.43c-2.91-2.63-21.88-3.55-27.8-4.9-23.95-3.26-47.89-6.71-71.8-10.33-4.53-1.37-17.14-2.76-22.49-3.5Z"/>
  <path class="st5" d="M57.9,246.07c1.09-.55,1.28-3.86,1.3-3.89,2.07-4.08-2.79-7.81-2.56-9.17.76-4.86-.79-6.42-3.92-9.08-.04,7.94,1.58,12.16,3.9,19.7.36-.3.23-.33.63-.34.8.76.11,1.96.66,2.78Z"/>
  <path class="st4" d="M140.86,188.49c-2.24.41,1.52,7.84,2.33,9l.61-2.43c-.46-1.28-1.94-5.95-2.94-6.57Z"/>
  <path class="st5" d="M149.24,158.45c-.09.58-.26,1.16.11,1.68.24.34,1.17.09,1.41.06.31-1.33.66-2.63,1-3.96.63-2.37.75-6.26-.64-8.41-.6-.94-1.73-1.02-2.73-1.33.81,4.6,1.55,7.29.85,11.96Z"/>
  <path class="st5" d="M204.58,53.65c.08.52.2,1.35.75,1.62.58.28,1.79-.4,2.27-.55.59-.18,1.2-.32,1.8-.48,0-.68.16-1.4-.29-1.97-1-1.24-3.68-1.42-5.04-1.72.11.59.23,1.19.33,1.78.07.44.11.88.17,1.32Z"/>
  <path class="st5" d="M187.37,50.7c.49.08.99.03,1.49.03,1.11-.11,3.56-.17,4.47-1.09.32-.32.28-.31.28-.64-.28-.45-.39-.38-.99-.66l-1.71.24c-.58.08-1.16.11-1.74.17-.81.08-1.85.24-2.42.89-.22.25-.18.23-.23.53.24.35.41.44.84.51Z"/>
  <path class="st5" d="M148.06,169.41l.05-.96c0-.13.03-.25.03-.38,0-.34,0-.29-.11-.53-.13-.07-.13-.09-.31-.01-.34.15-.95.71-1.1.82-.08.07-.16.13-.25.19.25.54.27.77.67,1.11.39.05.65-.1,1.02-.23Z"/>
  <path class="st5" d="M154.99,170.19c.6.09.54.04,1.14.07.68.03,1.36.13,2.03.21.33-.5,1.31-1.61,1.17-2.4-.05-.27-.23-.44-.48-.55-.62-.28-1.33-.24-1.99-.29-.47-.04-.94-.09-1.42-.14l-.77,1c-.1.12-.2.23-.29.35-.23.33-.53.87-.34,1.29.15.33.64.42.94.47Z"/>
  <path class="st5" d="M156.11,157.71c.34.11.94-.12,1.18-.17.14-.25.29-.5.43-.75.12-.18.23-.35.34-.53.11-.19.22-.47.13-.7-.06-.14-.2-.22-.34-.25-.16-.04-.84-.02-.94-.02-.57.73-1.08,1.17-1.13,2.1.13.21.11.25.33.33Z"/>
  <path class="st5" d="M66.13,249.66c-.3-.06-1.13-.09-1.31-.1-.14.15-.8.73-.75,1.12.03.19.1.28.27.39.4.27,1.2.15,1.64.14.32-.55.52-.7.55-1.25-.15-.2-.13-.25-.4-.3Z"/>
</svg>