<?xml version="1.0" encoding="UTF-8"?>
<svg id="Layer_1" xmlns="http://www.w3.org/2000/svg" xmlns:xlink="http://www.w3.org/1999/xlink" version="1.1" viewBox="0 0 500 500">
  <!-- Generator: Adobe Illustrator 30.3.0, SVG Export Plug-In . SVG Version: 2.1.3 Build 182)  -->
  <defs>
    <style>
      .st0 {
        fill: #f6a763;
      }

      .st1 {
        fill: url(#linear-gradient1);
      }

      .st2 {
        fill: url(#linear-gradient);
      }

      .st3 {
        fill: #080606;
      }

      .st4 {
        fill: #130f0d;
      }

      .st5 {
        fill: #f0e5ce;
      }

      .st6 {
        fill: #195e60;
      }

      .st7 {
        fill: #141918;
      }

      .st8 {
        fill: #6f9d96;
      }

      .st9 {
        fill: #3a7475;
      }

      .st10 {
        fill: #4d847f;
      }

      .st11 {
        fill: #f7c28e;
      }

      .st12 {
        fill: #ef7951;
      }

      .st13 {
        fill: #29595f;
      }
    </style>
    <linearGradient id="linear-gradient" x1="328.67" y1="67.7" x2="332.02" y2="74.02" gradientTransform="translate(151.54 -87.12) rotate(29.09)" gradientUnits="userSpaceOnUse">
      <stop offset="0" stop-color="#1c4a4d"/>
      <stop offset="1" stop-color="#2e6a66"/>
    </linearGradient>
    <linearGradient id="linear-gradient1" x1="220.48" y1="429.65" x2="223.86" y2="432.69" gradientTransform="translate(151.54 -87.12) rotate(29.09)" gradientUnits="userSpaceOnUse">
      <stop offset="0" stop-color="#2c5e60"/>
      <stop offset="1" stop-color="#407f7c"/>
    </linearGradient>
  </defs>
  <circle class="st0" cx="250" cy="250" r="205.13"/>
  <path class="st4" d="M108.48,408.17c11.24,4.66,21.43,9.72,33.17,13.94,28.73,10.57,60.94,9.22,90.11,1.17,8.06-2.22,20.81-6.68,28.32-10.34,7.4-3.6,37.21-18.42,40.91-24.92l-.67-1.5c-6.08-4.31-24.64-5.84-32.86-6.84-42.38-5.23-85.39-1.37-126.17,11.31-13.41,4.31-29.39,13.24-42.61,14.96,11.22-11.91,34.63-42.57,46.68-48.69,17.04-.47,29.13,2.74,45.81,4.51,61.59,6.53,129.86-21.28,176.97-60.21-.66-4.84-2.28-5.56-3.64-10.01-40.48.04-78.4,5.11-117.98,14-34.18,7.68-59.23,21.33-88.65,39.32-4.69,3.2-9.11,6.32-13.89,9.51,3.16-3.74,6.33-7.61,9.87-10.98,14.26-17,34.04-45.25,51.64-56.15,51.69,11.15,86.31,1.48,134.01-21.23,10.7-5.09,57.69-33.04,60.43-41.52l-1.46-1.62c-11.22-2.34-19.82-2.04-31.04-2.12-42.35-.3-85.52,11.72-121.26,34.57-14.33,9.16-27.42,20.33-41.77,29.09-.3.15-.6.3-.9.44,14.84-16.33,29.9-32.46,45.19-48.38,10.08-10.48,20.64-23.63,34.41-28.62,11.86,2.64,22.64,6.02,34.87,6.7,33.85,1.9,65.44-14.14,91.39-34.57,5.02-3.95,10.59-7.72,14.73-12.66l-.38-1.67c-4.54-2.48-21.86-2.24-28-2.83-46.43-4.4-75.93,14.01-112.4,39.84-1.89,1.39-1.88.17-3.42-1.67-78.2,71.63-138.27,160.53-214.68,233.54-8.18,7.82-37.55,32.04-48.35,33.35l-.88-1.2c3.65-8.06,15.83-11.6,22.79-16.7,47.78-34.95,83.25-81.51,121.08-126.09,22.21-25.83,44.96-51.19,68.23-76.07-.42-3.4,1.02-6.03,2.5-9.19,1.32-.15,4.29,1.18,5.56,1.64,5.19-3.68,20.01-18.61,25.17-23.73,15.16-15.03,28.67-28.26,45.14-41.91,4.52-6.21,14.43-12.75,20.19-17.57-1.67,5.91-4.37,3.79-6.46,11.08,9.96-9.71,26.41-22.71,37.68-30.44,7.95,1.72,18.91,5.79,27.17,8.15,18.56,5.3,32.42,5.56,51.37,4.72,6.58-.3,24.37-2.66,28.77-7.33l-.55-1.79c-8.67-6.58-30.81-8.6-41.99-10.16-14.53-1.64-27.38-2.76-42.16-1.64-.53.03-6.7.81-6.49-.42,1.04-1.26,5.69-2.24,7.29-2.68,5.53-2.48,24.26-7.46,31.28-9.6,11.63-3.38,73.7-23.82,75.07-33.75l-1.97-1.53c-28.35-4.1-53.15,5.4-78.18,17.17-3.6,2.02-7.26,3.93-10.96,5.74,2.84-2.76,6.94-6.4,9.46-9.09,9.93-9.82,59.6-61.81,56.49-73.66l-1.73-.75c-21,7.03-55.54,46.49-70.42,64.25-7.26,10.51-15.02,21.02-19.94,32.92-3.26,7.89-10.37,11.64-2.38-.59,7.11-10.89,11.68-23.92,17.06-35.59,3.8-10.17,15.42-52.54,7.1-60.37l-2.36.67c-8.02,7.79-15.96,35.43-18.5,46.69-6.05,20.49-8.23,42.26-15.18,61.66-16.11,10.91-28,20.45-42.5,33.56-.84.74-3.05,3.25-4.17,2.9-.53-1.83,2.12-5.09,3.48-6.29,22.72-32.69,38.69-68.42,36.24-109.12-.7-5.34-1.65-18.19-4.78-22l-2.16-.06c-4.24,2.91-6.99,8.53-9.79,13.11-30.59,50.79-40.04,72.77-28.94,130.24-12.62,10.36-24.62,21.45-35.93,33.22-3.9,3.69-7.74,8.01-11.65,11.57-2.38,2.18-20.01,20.3-21.72,19.46-1.95-7.86,14.86-21.79,19.14-26.85,1.98-1.94,3.6-3.51,5.71-5.33,21.8-24.38,29.02-63.19,27.08-95.19-.74-14.38-3.21-28.62-7.35-42.41-20.87,25.85-33.21,51.52-43.18,83.02-8.82,27.91-16.47,51.35-3.92,79.32-7.12,21.85-19.24,29.87-33.88,46.51-16.26,18.47-34.04,36.95-48.9,56.54,1.71-5.98,5.6-20.31,8.14-25.2,6.25-12.01,15.99-22.35,23.08-34.52,29.41-50.49,28.42-100.41,18.54-155.74-6.37,9.92-18.53,28.2-23.38,38.47-18.3,38.76-32.26,85.35-33.64,128.25-.6,18.78,5.87,37.85,2.42,54.36-12.39,14.91-37.66,46.23-51.05,58.26-6.83,7.66-4.31.33-3.46-6.83-.19-.6-.46-1.18-.58-1.8-1.06-5.62,20.87-34.9,24.72-41.88,18.44-33.52,13.88-122.94,3.41-159.69-.83.42-2.07,1.29-3.27,2.07,1.08,3.53,2.52,7.82,3.11,11.14,2.17,7.64,2.52,14.91,3.69,22.82-5.41,4.45-9.89,9.3-14.87,14.21,2.7-13.55,4.28-23.72,6.5-37.27-.02-3.02.69-7.22,1.15-10.63-1.1.69-2.12,1.24-2.73,1.22-6.31-.24-1.6-5.89,2.65-12.2-5.91,6.61-10.74,17.22-15.52,25.2-26.72,44.68-39.6,103.91-23.66,154.41,6.68,21.19,14.94,25.44,9.21,49.46-6.03,5.88-12.59,12.55-18.9,18.02-10.66,9.36-19.95,17.12-31.89,25.1-4.2,2.8-18.28,10.57-20.07,13.7.61,3.27,4.16,8.22,7.46,6.7,19.31-8.92,36.24-23.7,51.75-38.01,14.5-14.75,15.92-19.29,36.85-24.4l-.07.02ZM183.82,426.56c-11.85-7.48-24.03-14.43-35.75-22.1,4.92-.53,9.85-.92,14.77-1.52,11.75,6.43,22.72,15.54,33.92,23-4.31.25-8.62.29-12.93.62h-.01ZM201.74,425.64c-8.84-3.68-25.07-16.76-33.2-23.11,5.72-.56,11.45-1.03,17.16-1.81,11.72,7.75,23.57,14.75,35.79,21.66-6.58,1.12-13.13,2.36-19.75,3.26h0ZM225.02,421.6c-7.63-4.66-15.6-8.83-22.94-13.94-3.42-2.32-6.92-4.51-10.34-6.84,23.52-2.18,21.41-.55,42.76,10.01,3.33,1.61,6.64,3.27,9.92,4.99-6.44,2.01-12.92,3.94-19.4,5.79h0ZM248.77,414.67c-9.05-4.21-17.79-9.19-26.93-13.13-1.08-.44-2.75-.92-3.4-1.97.04-.15,0-.14.19-.24,6.42-3.56,28.46-1.74,35.28.8,3.45,1.28,6.92,2.42,10.36,3.73.74.19,1.73.36,2.25.97.15.17.27.54.23.76-.36,1.97-15.41,7.8-17.98,9.08ZM289.38,392.69c-.88,2.83-13.6,8.8-16.6,10.57-2.01-.72-4.05-1.36-6.03-2.11-1.79-.68-3.55-1.3-5.36-1.91-2.16-.73-4.3-1.44-6.5-2.1-.11-.22-.24-.43-.35-.66-.06-.14-.08-.21.02-.34.38-.46,1.52-.66,2.11-.7.5-.04,1.01-.06,1.52-.12,10.3-1.31,20.58-2.79,30.89-3.96.09.26.42.92.3,1.33ZM256.68,384.58c.87-.88,1.72-1.77,2.6-2.64l1.17.19c9.07,1.56,18.34,2.98,27.48,3.96.68.25,1.29.38,1.83.85.17.6.18.3-.07.89-3.25,1.85-33.26,4.48-38.48,5.06-.52.02-1.38.15-1.77-.3-.18-.2-.2-.35-.18-.6.15-2.09,5.95-5.91,7.42-7.39v-.02ZM252.83,381.66c.24.18.48.35.7.55.23.21.43.52.36.85-.4,1.7-6.98,5.78-8.54,6.81-7.46,4.92-15.57,5.05-24.34,5.15-.22-.07-.71-.21-.89-.31-.13-.07-.2-.19-.19-.34.24-2.75,15.07-11.76,17.79-13.45,5.11.04,10.04.31,15.12.73h0ZM216.02,381.72c.31-.15.63-.27.94-.42.22-.1.43-.23.65-.34,4.25.07,8.43.2,12.69.02-.64,1.67-1.04,2.19-2.51,3.31-5.4,4.16-10.98,7.8-16.69,11.5-.51.01-1.02.03-1.53.03-4.18-.02-8.55.29-12.7.83,1.08-3.54,4.8-5.25,7.76-7.23,1.64-1.09,3.27-2.17,4.88-3.31,2.03-1.44,4.28-3.29,6.51-4.39h0ZM193.34,383.3c5.63-.65,11.27-1.2,16.91-1.67.26.74.24.42.21.9-.44.66-1.02,1.08-1.66,1.54-6.28,4.48-12.87,8.41-18.97,13.15-5.79.31-11.55.76-17.32,1.31l-1.93.17c-.07-.13-.14-.27-.21-.4-.14-.32-.08-.53.11-.83,2.37-3.67,18.06-13.6,22.86-14.17h0ZM182.63,384.96c-3.44,5.11-12.34,9.36-17.16,13.52-2.34.36-4.64.92-6.97,1.26-2.77.39-5.57.96-8.36,1.16-1.07.08-2.16.12-3.24.19,2.64-3.82,7.2-6.57,10.76-9.5,6.06-4.97,17.32-5.24,24.98-6.63h0ZM119.11,403.46c2.28-3.59,26.16-11.1,31.4-12.1.3-.06.61-.1.92-.15l1.83-.32c-1.5,2.87-4.88,4.69-7.3,6.74-.84.7-1.62,1.46-2.46,2.17-.3.24-.61.47-.91.71l-1.25,1.02c-6.23.66-12.46,1.52-18.69,2.16-.64.06-1.29.11-1.93.17l-1.97.2c.12-.2.24-.41.36-.61h0ZM142.93,404.82c11.59,6.74,23.04,13.75,34.3,21.01l-1.7-.12c-7.12-.45-14.38-1.15-21.28-3.01-.48-.13-.94-.29-1.41-.41-.46-.12-.92-.21-1.38-.31-6.06-1.79-12.03-3.85-17.91-6.16-6.31-2.49-12.26-5.31-18.36-8.22,9.26-.8,18.51-1.72,27.73-2.78h.01ZM218.17,359.84l-1.73-.68c-3.83-1.53-7.86-2.55-11.66-4.12-6.91-2.79-13.88-5.41-20.91-7.87.05-.12.26-.65.38-.81,1.26-1.7,11.61-3.51,14.01-4.07,3.31,1.02,6.84,1.96,10.07,3.23.95.37,1.88.8,2.84,1.16,3.38,1.26,6.84,2.45,10.18,3.79,1.94.78,3.92,1.32,5.85,2.08,3.33,1.3,6.72,2.38,10.07,3.62-2.76,2.77-14.81,2.92-19.11,3.67h.01ZM246.09,356.38c-10.98-3.92-21.3-7.54-32.16-11.95-7.49-2.51-10.08-3.64-1.74-5.58l13.59-2.52c13.11,4.24,27.5,10.74,40.92,15.29-6.84,1.38-13.74,3.24-20.61,4.75h0ZM270.25,350.07c-4.86-1.83-9.96-3.33-14.72-5.41-3.16-1.38-6.34-2.57-9.59-3.72-1.15-.41-2.31-.76-3.45-1.2-1.13-.43-2.2-.92-3.34-1.3-2.22-.73-4.34-1.48-6.51-2.35-.04-.15-.38-.96-.2-1.31.82-1.64,14.7-3.19,17.01-3.58,10.72,5.04,21.55,9.53,32.61,13.71.15.21.33.42.47.65.07.12.09.25.02.37-.98,1.61-10.13,3.46-12.3,4.13h0ZM287.21,344.51c-10.19-4.35-20.57-8.04-30.6-12.78-.53-.23-1.62-.55-1.84-1.2-.06-.2-.04-.46.05-.66.3-.64,1.46-.9,2.05-1.06,5.29-1.32,10.55-2.48,15.9-3.54,8.13,4.25,16.41,8.11,24.76,11.89.57.21,1.47.42,1.84,1,.19.31.06.77-.11,1.06-1.37,2.25-9.55,4.41-12.04,5.28h-.01ZM303.59,337.64c-8.07-4.35-16.42-8.02-24.56-12.28-.15-.15-.82-.69-.89-.98-.02-.07,0-.17.04-.22,1.36-1.7,11.34-2.98,14.09-3.71,8.75,3.11,17.7,5.45,26.44,8.51.29.17.59.29.78.58.01.21.04.24-.09.47-1.22,2.36-13.01,6.37-15.81,7.62h0ZM323.82,327.35c-3.25-.95-6.51-1.86-9.74-2.87l-5-1.53c-1.52-.47-3-.9-4.53-1.31l-6.58-1.82c-.1-.28-.21-.55-.29-.82-.08-.25-.03-.34.1-.56.46-.26.33-.23.89-.31,4.02-.49,8.02-1.61,12.02-2.37,9.22-1.76,19.45.66,28.87,1.01.18.44.58.99.31,1.48-1.83,3.33-12.42,7.86-16.06,9.1h0ZM365.4,298.28c-3.4,6.3-12.87,11.9-18.88,15.67-7.29-.33-14.59-.61-21.83-1.48.12-.28.24-.57.38-.84,1.39-2.65,35.23-11.61,40.34-13.34h-.01ZM356.81,295.17c5.25-.76,7.34.6.33,2.58-14.85,4.01-25.38,8.23-41.19,11.84,4.4-4.4,8.7-8.9,13-13.39,9.25-.92,18.57-1.6,27.86-1.03h0ZM304.62,302.58l3.18-4.05c2.88-.38,5.77-.83,8.66-1.11,2.03-.2,4.03-.44,6.06-.68.34.55.2.29.42.75-.03.65-.7,1.31-1.13,1.76-.24.27-.5.52-.75.78l-3.78,3.9c-2.42,2.57-4.94,5.05-7.54,7.44-.3.26-.6.5-.89.76l-1.13,1c-2.5.56-5.01,1.28-7.54,1.67-2.13.33-4.23.67-6.34,1.06-.08-.26-.17-.52-.22-.79-.27-1.41,7.92-9.04,9.19-10.45.61-.68,1.26-1.33,1.82-2.05h0ZM303.18,298.88c.05.19.09.38.13.57.54,2.81-10.2,11.98-12.14,14.97-.45.69-.88,1.39-1.36,2.06-.23.33-.47.64-.72.96-4.78,1.29-9.58,2.37-14.41,3.49-.08-.13-.24-.4-.29-.54-.25-.96,2.92-4.09,3.4-4.61.37-.41.76-.8,1.14-1.2,4.45-4.77,9.03-9.32,13.7-13.87,3.51-.64,7.03-1.23,10.55-1.82h0ZM264.25,311.59c2.87-2.91,5.9-5.54,9.01-8.18,4.64-.69,9.32-1.32,13.98-1.85-1.42,4.72-7.87,8.89-11.09,12.69-.54.63-1.05,1.3-1.63,1.9-1.37,1.45-2.65,2.88-3.9,4.45-.24.3-.45.62-.69.92-.25.3-.51.6-.76.89-5.98,1.38-11.93,2.7-17.85,4.34,1-3.12,3.77-5.44,5.96-7.81l3.14-3.44c.84-.92,1.73-1.81,2.6-2.7.41-.4.83-.79,1.23-1.2h0ZM241.05,314c1.12-1.03,2.23-2.09,3.37-3.1.28-.25.58-.48.86-.73.36-.31.69-.64,1.03-.95,2.66-.62,5.32-1.31,8.02-1.77,4.09-.69,8.14-1.53,12.23-2.22-1.37,4.31-7.34,8.71-10.48,11.89-.49.49-.96.99-1.44,1.48-1.38,1.41-2.79,2.79-4.14,4.21l-5.8,6.02c-7.71,1.24-14.91,2.73-22.49,4.61,2.57-5.17,10-10.81,14.22-14.97,1.51-1.52,3.05-3.01,4.62-4.46h0ZM214.85,324.04c2.43-2.49,4.87-4.93,7.1-7.6.52-.2,1.06-.39,1.58-.59,5.27-2.05,10.59-3.39,16.09-4.68-1.21,5.17-14.87,16.02-19.17,19.52-.51.41-1.03.81-1.54,1.22-4.72,3.81-10.77,4.19-16.58,5.6,2.3-4.45,7.52-7.84,10.88-11.61.55-.62,1.07-1.27,1.64-1.86h0ZM184.95,335.44c.78-.75,1.67-1.45,2.32-2.33,5.14-6.97,19.98-11.74,28.26-14.05-4.5,7.41-12.61,11.54-17.74,18.19-.32.4-.59.83-.91,1.23-.27.33-.56.63-.84.95-5.96,1.66-11.87,3.44-17.96,4.52,1.1-3.3,4.39-6.1,6.87-8.5h0ZM163.19,345.62c2.07-1.3,4.13-2.54,6.24-3.76,4.33-2.49,8.57-5.58,13.1-7.62-.92,3.13-3.09,4.42-5.25,6.78-4.44,4.83-10.09,6.13-16.33,7.57.41-1.68.69-2.01,2.24-2.97h0ZM156.53,353.3c.08-.03.17-.03.25-.06,7.11-1.96,14.3-3.74,21.45-5.58,4.29,1.54,8.58,3.09,12.84,4.74,3.9,1.51,7.83,3.03,11.75,4.48.15.11.45.32.6.38,1.05.41,2.27.57,3.06,1.43v.24c-.75.4-1.81.31-2.62.28-13.3-.34-25.43-2.61-38.47-4.57-1.02-.15-2.04-.3-3.05-.52-.79-.02-1.6-.06-2.4-.07-.95,0-2.53.18-3.4-.38-.16-.11-.12-.14-.12-.3.04-.02.07-.05.11-.07h0ZM234.49,288.25c-3.61,1.26-12.57-.89-16.55-1.53-.93-.12-2.01-.14-2.64-.92l.03-.2c.23-.25.18-.23.49-.4,4.82-2.5,11.38-.34,16.15,1.13.34.17.68.35,1.02.53.58.31,1.44.65,1.65,1.36-.05,0-.1.01-.15.03h0ZM265.44,287.18c-9.23,1.18-18.19,2.55-27-1.04-2.97-1.21-5.92-2.34-8.94-3.43-.75-.11-1.75-.16-2.29-.78-.11-.13-.09-.34-.03-.49.85-2.12,10.22-4.7,12.63-5.51l1.21.45c1.44.55,2.77,1.08,4.24,1.51.53.16,1.08.3,1.61.46,1.95.61,4.04,1.19,5.92,1.96,3.89,1.6,7.84,3.09,11.78,4.58.75.21,2.22.44,2.69,1.16.14.22.11.26.08.43-.46.51-1.25.61-1.89.69h-.01ZM274.95,285.5c-3.4-1.1-6.99-2.07-10.3-3.41-1.61-.65-3.24-1.17-4.87-1.77-3.48-1.27-6.98-2.45-10.45-3.76-1.16-.35-3.21-.72-3.97-1.79-.13-.17-.13-.41,0-.58.32-.44,1.09-.8,1.6-.96,4.64-1.5,9.2-2.96,13.92-4.22,2.59.93,5.26,1.72,7.84,2.67,1.94.72,3.95,1.31,5.87,2.06l12.26,4.79c1.25.36,3.33.77,4.17,1.88.18.24.21.41.15.68-2.22,2.55-12.73,3.66-16.18,4.41h-.03ZM298.44,279.01c-6.16-1.88-12.17-3.78-18.25-5.95-2.65-.95-5.32-1.75-7.96-2.7-1.58-.63-4.87-1.31-5.92-2.67-.18-.22-.13-.21-.07-.44,2.59-2.53,13.22-4.86,16.96-5.92,4.39,1.84,8.88,3.8,13.35,5.43,3.75,1.38,7.26,3.1,10.93,4.63,1.37.37,3.38.81,4.31,1.97.17.22.31.53.22.81-.67,1.77-11.94,4.35-13.56,4.84h0ZM310.31,269.84c-3.07-1.36-6.21-2.46-9.27-3.79-4.63-2.01-9.24-3.89-13.82-6.03,5.83-1.49,11.63-3.06,17.41-4.72,7.67,4.38,15.3,8.63,23.18,12.62-8.49,3.86-9.07,4.82-17.49,1.93h-.01ZM331.39,266.02c-1.71.37-2.81-.45-4.19-1.31-6.56-3.41-13.15-6.62-19.65-10.18,5.32-1.51,11.25-3.96,16.74-4.3,6.59,3.13,12.98,6.66,19.51,9.92-3.71,1.73-8.55,5.02-12.42,5.87h.01ZM346.28,258.77c-5.18-2.76-10.33-5.06-15.7-7.42-.42-.34-1.48-1.04-1.78-1.61-.06-.12-.11-.29-.05-.42.18-.41.92-.62,1.28-.72,15.72-4.67,15.38-2.97,31.12-.32.18.16.38.31.55.48.17.16.18.24.13.46-.61,2.29-13.15,8.43-15.55,9.55ZM387.11,232.2c-.39.31-.79.6-1.19.9-6.03,4.68-12.4,8.76-18.61,13.17-5.95-1.02-11.85-2.18-17.78-3.37.06-.15.22-.57.3-.68,1.78-2.65,34.91-12.16,39.82-13.42-.66,1.59-1.13,2.31-2.53,3.4h-.01ZM359.24,224.29c2.71-.1,6.87-.29,9.49-.14l3.9.24c3.5-.36,14.48.16,18.52.3-7.13,2.39-16.32,5.62-23.53,7.2-2.53,1.67-17.8,6.62-21.12,7.5,3.72-3.99,6.96-7.41,10.26-11.79l2.48-3.32h0ZM298.91,239.84c2.04-2.32,3.83-4.67,5.66-7.16,8.23-2.26,16.68-4.6,25.1-6.04,8.38-1.42,16.53-2.13,25.03-2.03-2.51,6.34-9.54,11.96-14.19,16.88-2.61.76-5.2,1.5-7.84,2.11,2.53-3.11,5.18-6.23,7.61-9.42.59-.79,1.12-1.59,1.84-2.27.57-.53,1.22-1.01,1.54-1.75.15-.33.24-.82.04-1.16-.16-.28-.37-.35-.71-.34-1.12.02-2.95,2.48-3.56,3.32-.51.68-.97,1.4-1.52,2.04-.57.67-1.2,1.3-1.77,1.98-1.02,1.22-2.02,2.37-3.08,3.55-.46.51-.9,1.03-1.36,1.53-.72.79-1.47,1.54-2.15,2.36-.36.42-.66.89-1.03,1.3-.19.21-.39.4-.59.59-5.95,1.38-11.79,2.96-17.66,4.65,2.99-3.14,6.13-6.11,8.91-9.44.55-.65,1.06-1.34,1.63-1.98.58-.66,1.19-1.3,1.76-1.97.44-.52.84-1.07,1.3-1.57.39-.44,1.09-.97,1.17-1.63.04-.24-.11-.43-.3-.57-.24-.18-.66-.19-.94-.15-.82.12-1.4.61-1.9,1.25-.76.99-.42.65-1.25,1.58l-8,8.77c-2.11,2.53-4.66,4.65-6.89,7.07-7.87,2.34-15.78,4.56-23.72,6.63,3.05-3,6.05-6.01,8.93-9.17,1.06-1.16,2.14-2.32,3.18-3.5,1.62-1.81,3.19-3.65,4.78-5.48l-.02.02ZM270.07,248.88c6.55-8.43,19.04-11.33,28.95-14.5-2.53,6.97-11.93,14.49-17,19.98-.61.65-1.24,1.28-1.81,1.96-4.8,5.56-15.21,7.53-22.08,9.92.39-1.6.64-2.44,1.63-3.79,1.29-1.79,2.55-3.7,3.92-5.43l6.39-8.15h0ZM254,254.41l1.49-.74c2.85-1.6,5.73-3.16,8.64-4.65.98-.46,1.97-.91,2.94-1.36.68-.31,1.35-.63,2.02-.96l-6.43,8.03c-2.89,3.56-5.03,6.71-8.37,10.1-2.2,4.62-11.88,6.27-18.56,8.78,4.69-6.03,11.36-15.94,18.27-19.2h0ZM233.3,267.98c1.9-1.37,3.76-2.68,5.71-3.97-1.24,4.14-4.48,7.23-6.92,10.76-4.61,2.15-8.69,3.79-13.67,4.96,3.04-4.62,10.35-8.48,14.88-11.75h0ZM325.26,211.27c-4.16,1.85-19.03-.69-23.55-2.11-1.92-.61-3.83-1.2-5.77-1.75-.74-.11-1.81-.18-2.45-.66-.17-.13-.36-.43-.28-.67.12-.36.49-.56.8-.72,4.77-2.38,11.1-2.41,16.04-.65,3.45,1.22,6.9,2.48,10.41,3.51l3.51,1.02c.12.08,1.54.82,1.73,1.42-.08.32-.13.46-.44.61h0ZM340.5,210.45c-3.67.81-5.87,1.31-9.03-.7-3.14-1.13-6.39-2.19-9.5-3.4-1.81-.7-3.55-1.27-5.37-1.91-3.31-1.17-6.62-1.99-9.99-2.96,6.14-2.2,12.14-4.24,18.43-5.97,8.14,4.08,16.1,8.61,24.12,12.94l-8.66,1.99h0ZM352.39,207.29c-3.96-2.52-8-4.8-12.11-7.05-3.71-2.06-7.4-4.15-11.07-6.27l14.05-3.56c4,2.02,7.96,4.05,12.04,5.94,3.78,1.77,7.46,3.9,11.19,5.81-4.7,1.73-9.37,3.52-14.1,5.14h0ZM368.08,199.25c-6.94-3.64-13.87-6.93-20.96-10.24,4.86-1.38,9.74-2.65,14.65-3.82,5.97,3.42,11.77,7.19,17.65,10.79-3.31,1.52-7.64,4.63-11.34,3.27h0ZM392.77,187.82c-3.42,2.12-6.9,4.18-10.35,6.25-3.9-2.2-7.65-4.63-11.45-7-.92-.51-2.98-1.34-3.45-2.45-.09-.22-.06-.43.06-.63.81-1.3,4.49-1.66,5.75-1.91,2.07-.4,4.12-.79,6.19-1.23,4.02,1.4,7.91,2.61,12.01,3.79.74.21,1.75.39,2.29.99.17.19.34.58.25.84-.18.57-.82,1.05-1.3,1.35ZM413.69,170.11l2.05-.23c-2.9,5.36-11.62,10.11-16.54,13.74-.62-.19-1.23-.39-1.85-.58-1.14-.35-2.29-.65-3.42-1.02-3.15-1.04-6.32-1.94-9.48-2.94.12-.4.16-.84.4-1.19,1.43-2.27,24.07-7.2,27.82-7.68.34-.04.69-.06,1.03-.1h0ZM387.38,167.03c.52-.45,1.03-.9,1.55-1.35,2.49.17,4.98.44,7.47.58l13.63.72c-1.13,1.89-27.81,8.56-32.54,9.86,1.28-4.1,6.69-7.11,9.88-9.81h.01ZM359.67,172.58c.72-.79,1.49-1.53,2.19-2.33.87-1,1.71-2.02,2.57-3.03.32-.04.65-.07.97-.11,5.54-.72,10.85-.9,16.43-.88.14.47.26.68.23,1.12-.07.87-2.2,2.36-2.63,2.7-10.45,8.06-17.51,11.34-30.16,14.76-.2-.32-.1-.14-.29-.53.17-1.86,7.71-8.4,9.33-10.17.46-.5.9-1.01,1.36-1.51v-.02ZM348.83,170.31l10.74-2.58c.07.31.2.69.21,1.03.11,2.41-14.89,15.5-17.37,17.84-2.83.63-5.64,1.26-8.45,2.01-.18-.1-.53-.17-.56-.45-.17-2.39,13.02-15.2,15.42-17.85h.01ZM318.5,191.16c2.71-4.12,6.05-7.5,8.9-11.45l1.5-2.11c4.64-1.94,9.11-3.84,13.95-5.26-1.93,5.1-8.49,9.73-11.97,14.02-.43.53-.84,1.08-1.28,1.6l-2.45,2.97c-3.31,1.12-6.64,2.17-10,3.15.34-1.24.62-1.79,1.35-2.91h0ZM314.17,185.55l1.25-.79c1.14-.62,4.48-2.92,5.53-2.72.56.74-3.09,5.34-3.67,6.06-12.38,17.61-16.94,5.97-3.12-2.55h.01ZM291.98,199.88c.23-.19.48-.36.72-.54,3.64-2.86,7.43-5.37,11.31-7.89-.2.82-.35,1.64-.67,2.42-1.11,2.69-2.46,5.3-5.32,6.27-2.71.92-5.38,1.89-8.07,2.85.35-1.75.59-1.95,2.04-3.11h0ZM471.27,84.23c4.86-.47,9.79-.04,14.67-.06-4.65,2.36-9.33,4.66-14.03,6.92-26.47,12.64-61.4,24.98-90.3,30.32,6.98-3.59,9.99-4.58,17.07-7.61l26.06-11.15c10.5-4.41,21.59-7.2,32.5-10.37,2.45-.7,10.11-1.21,9.39-3.94-9.65-2.4-55.61,16.82-66.46,21.42-5.13,2.18-10.31,4.2-15.56,6.06,23.58-15.92,57.75-31.88,86.66-31.6h0ZM394.01,86.11c2.6-2.87,4.75-6.01,7.71-9.29,14.41-19.04,38.31-40.1,58.4-52.84-3.19,5.32-6.48,10.58-9.84,15.79-14.8,20.28-28.72,35.55-46.43,53.4l-1.45,1.47c-4.77,4.82-9.97,9.2-13.93,14.56-1.18.37-5.53,2.52-2.77-.95l3.04-3.77c2.96-3.1,5.15-6.24,7.87-9.53l3.33-3.99c6.07-7.24,12.28-13.7,18.53-20.65l3.17-3.51c7.78-8.97,20.34-20.34,26.63-29.32-5.41,1.31-20.69,18.74-25.04,23.36l-13.78,14.92c-2.02,2.15-3.89,4.4-5.99,6.48-2.41,3.14-4.57,5.33-6.8,8.18-4.99,6.06-10.79,11.29-15.93,17.09,5.43-10.37,6.58-11.74,13.26-21.4h.02ZM376.72,132.58c22.69-1.93,45.55,1.32,68.34,4.86,1.71.26,4.92,1.15,6.61,1.72,18.3,4.67,4.58,5.22-4.92,7.14l-1.81.23c-18.56,2.68-37.47,1.8-55.72-2.58-4.3-1.35-8.57-2.52-12.89-3.95,2.93-.03,7.65,0,10.52.46,19.48,1.19,40.04,1.52,58.98,2.77,2.14-.07,4.06.66,4.48-1.39-1.26-.73-2.24-1.59-3.75-1.67-25-1.32-63.32.23-86.77-6.73,6.21-.08,10.85-.34,16.92-.86h.01ZM372.74,96.27c.65-1.78,1.18-3.62,1.86-5.39.7-1.78,1.24-3.59,1.91-5.37,1.19-3.12,1.97-6.27,2.98-9.45.95-2.99,1.77-6.02,2.72-9.01,1.59-5,2.87-10.03,4.27-15.07l.24-.86c.18-.61.37-1.22.54-1.83.47-1.66.82-3.3,1.49-4.9.32-.77.7-1.49.68-2.35,0-.34-.12-.8-.45-.98-.37-.21-.86-.07-1.21.1-1.18.6-1.34,2.41-1.73,3.51-1.11,3.14-1.9,6.33-2.95,9.48-.7,2.12-1.43,4.25-2.06,6.4-.25.85-.44,1.72-.71,2.56-.25.82-.55,1.63-.78,2.45-.15.54-.27,1.1-.42,1.64-1.42,5.2-2.9,10.36-4.44,15.52-1.67,5.54-3.86,10.6-6.24,15.85,1.38-11.01,3.55-23.05,6.8-33.66.21-.64.44-1.28.63-1.93.75-2.51,1.28-5.13,2.2-7.58.25-.63.52-1.25.75-1.89.45-1.32.84-2.64,1.4-3.92.41-.94.87-1.85,1.24-2.8,2.93-7.5,5.86-14.77,10.09-21.64,1.86,4.54-.02,12.66-.55,17.56-1,9.21-2.67,18.62-5.21,27.54-.47,1.64-.92,3.39-1.49,5-4.12,11.5-8.81,22.84-14.93,33.43,1.08-4.09,1.91-8.44,3.39-12.41h-.02ZM328.22,127.44c-3.34,2.21-6.33,4.62-9.35,7.25-1.46,1.27-2.9,2.52-4.41,3.73.68-3.11,1.53-9.6,4.4-11.55,1.43-.98,2.66-1.8,3.95-2.95,3.23-2.86,6.34-5.2,9.98-7.53.08.64.22,1.29.12,1.93-.35,2.5-2.48,7.66-4.69,9.12ZM334.78,112.88c-1.11.55-2.51.49-3.53,1.24-3.85,2.83-7.23,6.06-11.22,8.78-.28-.86-.59-1.53-.37-2.42,2.44-10.42,10.72-14.31,19.28-19.45-.44,1.94-2.24,10.92-4.16,11.85ZM342.9,88.45c-.13.5-.28.99-.41,1.48-.7,2.57-1.45,5.11-2.37,7.62-4.05,2.65-8.75,5-12.44,8.11-.97.82-1.91,1.67-2.88,2.49-.41-.12-.88-.13-1.09-.54-.59-1.11.76-4.78,1-5.74.2-.82.37-1.63.57-2.45,3.21-2.69,6.76-5.3,9.4-8.56,1-1.22,1.97-2.39,3.02-3.58,2.06-2.36,4.17-4.63,6.38-6.85-.17,2.79-.46,5.3-1.18,8.02h0ZM345.45,74.48l-.03,1.09c-.52.54-1.03,1.08-1.56,1.61-3.01,2.97-6.02,6.05-8.72,9.3-1.02,1.23-2.02,2.36-3.1,3.54-1.16,1.27-2.17,2.32-3.44,3.49-.53-.34-.89-.52-.97-1.2-.26-2.26,2.79-10.58,4.32-12.28.84-.93,1.65-1.77,2.35-2.81,3.18-4.79,7.54-8.96,11.35-13.28.55,3.51-.03,7.03-.19,10.55h-.01ZM345.88,54.37c.11,1.13.23,2.26.32,3.4-1.03,1.31-2.09,2.59-3.1,3.91-1.17,1.53-2.34,2.96-3.56,4.45-1.4,1.69-2.77,3.34-4.25,4.96-.25.31-.49.63-.74.94-.21.26-.59.58-.96.54-.22-.02-.43-.17-.52-.37-.44-.97.07-2.71.33-3.66.36-1.35.74-2.72,1.14-4.06.89-3,1.72-6.04,2.72-9,1.91-5.75,3.55-11.11,6.09-16.64,2.49,5.03,2,10.07,2.53,15.53h0ZM329.71,53.05c2.6-4.06,5-8.22,7.77-12.17.34,1.15.38,1.81,0,2.97-.54,1.67-.99,3.4-1.59,5.05-.54,1.5-.96,2.97-1.42,4.5-1.98,6.56-3.48,13.65-6.26,19.9-.04-.41-.07-.81-.14-1.22-.68-4.62-1.07-9.28-1.34-13.95.99-1.69,1.91-3.43,2.96-5.07h.02ZM323.68,63.44c1.21,4.74.77,11.3,2.63,15.56.52,1.2.74,2.04.36,3.32-.15.49-.32.97-.46,1.46-.39,1.34-.74,2.72-1.09,4.08-.23.86-.41,1.74-.66,2.59-.46,1.55-.95,3.1-1.41,4.66-.14-.52-.38-1.28-.47-1.86-.46-2.75-.69-5.54-1.16-8.29-.73-4.32-1.42-8.58-2.3-12.88,1.39-2.94,3.04-5.78,4.57-8.65h-.01ZM316.84,76.88c2.25,4.7,5.5,21.66,3.86,26.66-.64,1.95-1.22,3.88-1.79,5.86-3.49-6.39-5.12-14.22-7.08-21.22,1.63-3.79,3.29-7.56,5-11.3h.01ZM305.06,108.69c.76-2.62,1.37-5.37,2.26-7.93.88-2.52,1.72-5.06,2.65-7.56,3.32,6.84,5.11,14.65,8.16,21.7-1.13,4.09-2.39,8.13-3.78,12.14-2.91-5.4-4.24-11.6-7.97-16.56-.19-.26-.43-.51-.62-.78-.25-.33-.47-.67-.7-1.01ZM304.19,113c4.39,5.8,5.83,13.6,8.24,20.37-1.02,3.88-1.93,7.58-3.32,11.35-3.69-2.04-6.17-11.35-7.82-15.29.73-5.55,1.7-10.97,2.9-16.43h0ZM303.32,153.18c-.17-1.13-.39-2.26-.53-3.39-.57-4.58-1.2-9.07-1.47-13.68,2.63,4.41,4.61,9.23,6.88,13.84-.11.45-.2.91-.32,1.37-.83,3.37-1.71,6.7-2.61,10.05-1.34-2.78-1.52-5.15-1.96-8.18h0ZM309.4,158.75c-2.54-7.3,7.98-19.88,13.27-24.16.65-.71,2.62-3.37,3.89-2.93.86,2.01-9.36,17.37-11.31,19.72-.77,1.34-3.93,7.67-5.84,7.37h-.01ZM279.47,153.96c-7.07,5.64-13.7,11.87-20.69,17.6-.85.69-1.69,1.38-2.52,2.09-.11-.08-.5-.35-.6-.51-.51-.8,0-2.55.29-3.35.77-2.11,1.4-4.26,1.91-6.45.32-1.39.48-2.16.92-3.48,7.84-5.69,14.31-12.33,21.74-18.41.96,3.78-.5,8.69-1.04,12.51h0ZM282.76,123.7c.29,4.29-.21,8.38-.37,12.66-5.87,5.05-11.3,10.57-17.3,15.49-.93.77-1.87,1.51-2.79,2.29-.32-.1-1.24-.25-1.44-.73-.16-.4-.04-.82.14-1.19.42-.9.83-1.5,1.08-2.42,3.04-11,9.93-14.99,17.6-22.96,1.05-1.09,2-2.11,3.1-3.15h-.02ZM282.72,109.87c.71,3.32.46,6.72.56,10.09-5.44,5.1-10.75,10.31-16.14,15.47-.64-.06-.41.03-.74-.13-.35-.97.32-2.89.54-3.83.56-2.34,1.09-4.65,1.58-7.01,1.21-1.21,2.49-2.35,3.68-3.57,2.07-2.13,4.12-4.27,6.13-6.46,1.45-1.55,2.89-3.07,4.39-4.56h0ZM277.72,82.03c.55.26.21.08,1.07.64.55,1.35.57,1.61.84,3.03,1.51,6.34,2.11,12.39,2.9,18.83-4.31,5.34-7.76,9.22-12.41,14.3,2.52-11.91,4.7-25.09,7.48-36.77l.12-.03ZM273.62,79.93c2.3,6.37-6.27,37.77-9.21,44.88-2.94-6.59-4.26-14.24-5.93-21.27,4.76-8.21,9.62-15.89,15.14-23.61h0ZM256.11,106.65c2.58,6.86,3.38,14.8,6.65,21.34.11.22.25.43.36.65.21.44.41.89.61,1.33-1.19,4.99-1.75,10.45-3.64,15.22-1.16,2.95-2.06,5.87-3.43,8.75-3.51-9.27-5.35-19.85-8.18-29.45,2.31-6.1,5-11.89,7.63-17.85h0ZM246.74,129.16c3.53,6.66,5.94,18.27,7.33,25.83.08.48.15.97.23,1.45.57,3.32.93,4.98-.26,8.17-.69,1.85-1.23,3.66-1.75,5.56-4.46-8.1-7.16-17.56-10.76-26.11,1.65-5,3.41-9.95,5.2-14.89h0ZM237.12,156.97c.31-1.01.57-2.04.9-3.04.7-2.14,1.34-4.26,1.96-6.42,4.1,7.51,5.44,16.81,10.38,23.8.2.29.44.56.64.85.26.38.47.77.72,1.15-.69,1.74-1.31,3.52-2.05,5.24-1.33,3.1-2.38,6.27-3.64,9.4-4.22-7.96-6.94-17.73-10.33-26.17.45-1.61.95-3.2,1.43-4.8h0ZM238.81,219.69c.93-2.99,3.03-7.38,3.24-10.13-1.17-.16-2.34-.3-3.51-.42-1.67,5.46-3.59,10.73-5.16,16.25-7.46-17.84-5.41-22.72-3.94-41.22,2.44,8.32,4.07,15.95,7.66,23.85.58-.66,1.15-1.31,1.72-1.97-4.57-16.97-9.66-18.99-5.52-36.63l.98-4.34c3.26,8.98,6.78,18.14,10.17,27.09-.86,2.83-1.98,6.12-2.93,8.92,1.31.59,2.61,1.19,3.9,1.81,8.4-31.45,8.47-22.44,32.14-44.46-1.29,5.25-2.38,10.08-3.77,15.36-4.53,3.14-9.01,7.08-13.38,10.53-3.37,2.36-9.67,6.76-10.87,10.61l.07.07.89.14c1.95-.73,19.26-14.73,21.85-16.7-1.46,4.65-2.97,8.51-4.79,13-7.4,4.95-14.56,7.29-22.13,11.45v2.96c3.33-1.45,12.65-6.98,17.03-9.21-7.67,8.03-15.31,15.69-23.64,23.06v-.02ZM158.36,297.7c-.28-.48-.42-1.18-.56-1.66.14-.77.28-1.54.41-2.31.85-4.95,1.86-9.86,3.03-14.73,5.68-4.77,12.16-8.98,18.4-13-.26.98-.48,1.85-.89,2.77-1.86,4.16-16.85,27.64-20.4,28.93h0ZM183.38,260.31c-6.07,3.8-11.87,8-17.93,11.83l-1.74,1.12c.25-1.41.47-2.82.9-4.19.2-.65.44-1.29.64-1.94.31-1.01.57-2.03.9-3.04.38-1.12.68-2.01.99-3.14,7.13-5.31,14.25-10.57,21.59-15.59.46,1.57.41,2.1-.25,3.64-1.63,3.84-3.2,7.58-5.08,11.31h-.02ZM194.1,230c-.62,2.74-1.27,5.38-1.55,8.18-.03.35-.04.71-.08,1.06-.04.38-.08.77-.13,1.15-7.83,4.51-15.04,9.81-22.4,15.04-.65-.05-.41.04-.76-.13-.5-.93-.06-2.46.23-3.39.28-.93.6-1.83.83-2.78l.76-3.11c6.36-6.31,12.79-12.17,20.32-17.08.29-.19.59-.37.88-.56l1.75-1.14c.19,1.02.36,1.73.13,2.75h.02ZM197.12,219.58c-.19.85-.33,1.71-.51,2.56-7,4.56-14.1,9.25-20.23,14.94-.49.46-.97.94-1.46,1.39-.5.45-1,.89-1.5,1.33.1-.57.2-1.14.29-1.71.52-3.38,1.11-6.86,1.98-10.17.34-1.3.71-2.57,1.01-3.88,6.12-5.12,13.15-9.48,18.99-14.87,1.34-1.25,1.8-1.57,3.5-2.34-.17,4.47-1.14,8.39-2.07,12.74h0ZM199.92,203.53c-3.76,2.8-7.68,5.38-11.43,8.18-2.65,1.98-5.31,3.85-8.16,5.53-.35.13-1.02.5-1.41.34-.1-.04-.17-.13-.21-.23-.42-1.2.62-3.61.97-4.73.58-1.82,1.12-3.65,1.72-5.46.43-1.27.88-2.52,1.29-3.79.29-.23.58-.45.88-.67,4.29-3.2,8.62-6.52,12.57-10.14l4.92-4.49c1.24,4.67-.46,10.78-1.13,15.48v-.02ZM201.37,182.31l.09,1.71c-5.73,5.4-11.67,10.77-18.08,15.34.31-2.1.55-4.18,1.18-6.22.63-2,1.18-4.02,1.65-6.06.18-.77.32-1.55.51-2.31,4.82-2.67,9.53-5.52,14.3-8.29.19,1.95.26,3.88.34,5.83h.01ZM197.98,135.93c.51,1.37.45,1.45.55,2.92,1.55,10.94,2.65,21.94,3.3,32.97-4.94,3-9.44,5.87-14.29,8.98.91-4.26,9.41-45.19,9.7-45.32.31.08.09,0,.74.45h0ZM188.09,140.32l2.5-4.58c.22-.4,2.14-4.51,3.18-3.42.22,1.07.07,1.24-.21,2.39-3.04,14.28-5.06,28.14-8.51,42.69-3.2-7.19-5.09-12.19-7.37-19.59,3.94-7.4,5.96-10.57,10.42-17.48h0ZM175.66,162.24c1.75,4.25,3.17,8.64,4.99,12.87,1.11,2.57,2.02,5.11,2.98,7.73-2.13,8.53-3.99,17.05-6.3,25.55-4.7-7.69-6.84-21.14-8.59-30.04,2.17-5.41,4.4-10.87,6.93-16.11h0ZM162.28,197.12c.3-1.01.57-2.03.9-3.03,1.16-3.48,2.28-6.93,3.58-10.36,4.12,9.99,6.14,21.33,8.88,31.75-1.58,5.01-2.91,10.05-4.43,15.06-4.35-9.15-7.26-20.26-10.03-30,.36-1.15.75-2.28,1.1-3.43h0ZM157.58,213.05l1.04-4.56c.21-.94.4-1.86,1.07-2.59,1.17.41,2.91,7.82,3.38,9.32,2.55,5.81,5.2,14.89,7.21,20.95-1.83,5.77-3.38,11.4-4.82,17.29-3.93-9.37-7.52-21.52-10.44-31.42.84-3.03,1.76-5.89,2.56-8.99h0ZM152.58,231.56c1.73-7,3.72,2.1,4.67,4.79,2.12,7.23,4.65,14.3,7.17,21.4-1.52,5.12-3.06,10.14-4.55,15.27-3.9-9.01-7.46-18.16-10.66-27.44.96-4.9,2.33-9.27,3.37-14.02h0ZM148.35,251.9c4.31,7.67,7.13,17.32,9.64,25.75-1.6,6.4-2.88,12.83-4.14,19.3-1.4-2.95-2.47-5.94-3.7-8.95-.91-2.21-1.75-4.44-2.64-6.65-3.62-8.95-.56-20.18.84-29.45h0ZM145.15,283.08c6.38,11.04,8.09,20.49,4.84,32.8l-1.02,3.73c-3.86-9.54-4.59-26.17-3.82-36.53h0ZM119.91,311.88c-.02.44-.02.87-.06,1.3-8.55,6.46-16.92,12.94-25.07,19.93-.06-.03-.94-.33-1.08-.63-.92-1.84,1.03-9.49,1.36-11.83,8.18-7.83,16.68-14.98,25.14-22.47,1.06,4.42-.05,9.2-.28,13.7h-.01ZM121.89,291.33l-.08,1.62-26.04,22.83c-1.13-4.34.79-11.16,1.55-15.64.11-.66.19-1.33.29-2,8.23-6.29,16.41-13.2,24.35-19.87.7,4.38.19,8.67-.07,13.07h0ZM121.99,259.51c.96,5.02.48,10.52.28,15.61-7.64,5.58-15.22,11.52-22.51,17.56-.07-.04-.96-.33-1.12-.64-1.27-2.48,1.67-12.8,2.51-15.69,5.93-4.98,11.55-10.63,18-14.93.39-.27.79-.52,1.19-.78l1.65-1.13h0ZM122.53,256.12c-1.59,1.09-3.2,2.17-4.74,3.34-4.73,3.63-9.42,7.31-14.06,11.07-.25.11-.48.24-.74.32-.22.09-.5.12-.7-.07-1.02-.98.49-8.41.6-9.81.04-.44.06-.89.09-1.34,5.69-6.05,11.89-11.59,18.53-16.57,1.46,3.95.89,8.86,1.02,13.06ZM120.04,226.77c.89,2.78,1.19,5.43,1.32,8.34.02.44.01.88.04,1.32.03.64.08,1.28.13,1.91-.32.32-.63.65-.94.98-4.78,5.19-10.24,9.57-15.31,14.45-.23.1-.46.21-.7.29-.17.06-.28.03-.41-.1-.99-1.04,1.22-11.31,1.41-13.03,4.83-4.71,9.7-9.39,14.47-14.17h-.01ZM109.05,190.61c1.81,6.39-4.45,40.06-6.81,47.89-.82-1.33-1.64-2.64-2.3-4.06-2.58-5.48-4.68-10.66-6.41-16.48,4.94-9.25,10.11-18.37,15.51-27.36h.01ZM91.52,222.38c3.01,7.23,5.75,14.76,9.93,21.42-1.05,8.45-2.14,16.99-3.77,25.34-5.67-9.19-9.37-22.77-12.73-33.09l6.57-13.67h0ZM78.27,255.66c.32-.96.63-1.93.98-2.89.37-1.02.76-2.04,1.09-3.08.91-2.88,1.95-5.58,3.08-8.39,4.27,7.87,6.51,17.17,10.06,25.45,4.83,11.23,2.19,18.03.49,29.75-2.78-4.05-14.19-35.21-15.69-40.85h0ZM77.1,261.36c7.18,10.54,9.77,26.39,14.42,38.28,2.85,7.3.43,15.46-.58,23.05-1.87-2.98-3.11-5.87-4.37-9.14-2.36-6.13-4.85-12.23-7.02-18.42-3.89-11.06-7.06-16.08-4.03-27.72l1.58-6.05h0ZM72.47,284.57c.18.37.36.74.55,1.09.63,1.2.96,1.83.81,3.24-.05.56-.22.85.01,1.34.09.01.17.03.25.02.81-.09.34-.19.81-.06.25.34.36.77.5,1.17,4.42,12.29,9.04,24.69,14.71,36.45-.41,7.02-.78,14.11-1.65,21.09-.24-.07-.48-.12-.72-.2-.83-.29-1.53-1.79-1.84-2.5-.26-.59-.51-1.18-.77-1.77-2.84-6.38-5.57-12.81-8.18-19.29-6.98-17.32-7.71-21.3-4.48-40.59h0ZM82.11,369.78c-6.81-16.18-10.53-32.33-11.18-49.88,1.9,2.38,3.09,4.76,4.2,7.62l2.55,6.39c.41,1.03.76,2.07,1.19,3.1l4.82,11.78c1.05,2.57,2.13,5.06,3.46,7.49-.58,6.57-.78,13.16-1.39,19.72-1.53-1.98-2.66-3.88-3.64-6.2v-.02ZM89,378.48c.6-7.51,1.28-15.03,2.05-22.53,1.49-1.52,3.04-2.97,4.64-4.37l3.31-2.93c1.63-1.34,3.3-2.62,4.97-3.93,1.91-1.49,8.4-5.56,8.68-7.86l-.34-.31c-3.94-.45-16.47,11.25-20.31,14.09.17-4.13.65-8.24,1.06-12.35,8.33-7.17,16.93-14,25.25-21.15,1.27,4.1-1.79,13.82-3.54,17.72-.43.93-.88,1.78-1.18,2.77-4.49,14.68-15.99,28.33-24.59,40.84h0Z"/>
  <path class="st11" d="M23.18,332.68c-.31-.36-1.24-.47-1.52-.54-.89.43-1.42.51-1.9,1.29.01.21-.03.26.1.41.28.31,1.07.4,1.33.46.78-.36,1.61-.55,2.08-1.29,0-.16.03-.2-.08-.33h-.01Z"/>
  <path class="st11" d="M34.78,361.06c-.18-.23-.49-.22-.74-.28-.48.71-.34.4-.52.87l.04.14c.43.19.15.09.86.19.39-.78.37-.46.36-.91h0Z"/>
  <path class="st7" d="M326.61,157.08c-5.76,4.82-15.67,11.37-20.19,17.57-2.87,4.91-21.41,22.06-26.54,26.34,1.54,1.84,1.53,3.05,3.42,1.67,3.62-5.33,30.84-29.79,36.85-34.5,2.09-7.29,4.78-5.18,6.46-11.08h0Z"/>
  <path class="st3" d="M368.13,301.55c8.8-7.95,9.81-9.39-3.64-10.01,1.36,4.45,2.98,5.17,3.64,10.01Z"/>
  <path class="st8" d="M261.28,216.57c-5.16,5.11-19.97,20.04-25.17,23.73-2.61,2.59-5.3,5.11-8.06,7.55-23.27,24.88-46.02,50.24-68.23,76.07-37.83,44.58-73.3,91.14-121.08,126.09-6.96,5.09-19.14,8.63-22.79,16.7l.88,1.2c10.8-1.31,40.17-25.53,48.35-33.35,76.41-73.01,136.49-161.91,214.68-233.54,5.13-4.28,23.67-21.43,26.54-26.34-16.46,13.65-29.97,26.88-45.14,41.91l.02-.02Z"/>
  <path class="st3" d="M110.6,190.2c.61.02,1.63-.53,2.73-1.22.05-.4.11-.79.15-1.17.09.29.18.59.27.9,1.2-.77,2.43-1.65,3.27-2.07-1.39-4.41-1.4-4.83-3.77-8.64-4.25,6.31-8.96,11.97-2.65,12.2h0Z"/>
  <path class="st3" d="M230.56,238.65c-1.48,3.16-2.92,5.79-2.5,9.19,2.76-2.44,5.44-4.95,8.06-7.55-1.27-.46-4.24-1.79-5.56-1.64Z"/>
  <path class="st5" d="M407.43,98.88l-1.5-3.35c-2.53,2.7-6.62,6.33-9.46,9.09,3.71-1.81,7.36-3.72,10.96-5.74Z"/>
  <path class="st9" d="M282.01,257.99c7.94-2.08,15.85-4.29,23.72-6.63,2.24-2.42,4.78-4.54,6.89-7.07l8-8.77c.83-.93.49-.59,1.25-1.58.49-.64,1.07-1.13,1.9-1.25.28-.04.7-.02.94.15.19.14.35.32.3.57-.08.65-.78,1.19-1.17,1.63-.46.5-.86,1.05-1.3,1.57-.57.67-1.18,1.31-1.76,1.97-.57.64-1.08,1.33-1.63,1.98-2.78,3.33-5.93,6.3-8.91,9.44,5.87-1.68,11.72-3.27,17.66-4.65.2-.19.4-.39.59-.59.37-.41.67-.88,1.03-1.3.68-.82,1.43-1.57,2.15-2.36.46-.51.9-1.03,1.36-1.53,1.06-1.18,2.07-2.33,3.08-3.55.57-.68,1.2-1.31,1.77-1.98.56-.64,1.01-1.36,1.52-2.04.62-.84,2.45-3.3,3.56-3.32.34,0,.55.07.71.34.2.33.11.83-.04,1.16-.32.74-.97,1.22-1.54,1.75-.72.68-1.24,1.48-1.84,2.27-2.43,3.19-5.08,6.3-7.61,9.42,2.65-.6,5.24-1.35,7.84-2.11,4.66-4.92,11.68-10.54,14.19-16.88-8.5-.1-16.65.61-25.03,2.03-8.43,1.43-16.87,3.78-25.1,6.04-1.83,2.49-3.62,4.83-5.66,7.16-1.59,1.83-3.16,3.67-4.78,5.48-1.04,1.18-2.13,2.33-3.18,3.5-2.88,3.16-5.89,6.17-8.93,9.17l.02-.02Z"/>
  <path class="st9" d="M400.17,109.76c10.85-4.59,56.81-23.81,66.46-21.42.72,2.73-6.94,3.24-9.39,3.94-10.91,3.16-22,5.96-32.5,10.37l-26.06,11.15c-7.07,3.03-10.09,4.02-17.07,7.61,28.9-5.35,63.84-17.68,90.3-30.32,4.7-2.25,9.37-4.56,14.03-6.92-4.88.01-9.81-.41-14.67.06-28.91-.29-63.08,15.68-86.66,31.6,5.25-1.86,10.43-3.88,15.56-6.06h0Z"/>
  <path class="st9" d="M114.78,334.86c1.75-3.9,4.81-13.62,3.54-17.72-8.33,7.15-16.93,13.98-25.25,21.15-.42,4.11-.89,8.22-1.06,12.35,3.84-2.84,16.36-14.54,20.31-14.09l.34.31c-.28,2.31-6.77,6.37-8.68,7.86-1.66,1.3-3.33,2.59-4.97,3.93l-3.31,2.93c-1.6,1.4-3.15,2.85-4.64,4.37-.77,7.5-1.45,15.01-2.05,22.53,8.61-12.51,20.11-26.16,24.59-40.84.3-.99.75-1.84,1.18-2.77h0Z"/>
  <path class="st9" d="M212.19,338.85c.46,1.91,1.16,3.7,1.74,5.58,10.86,4.41,21.18,8.03,32.16,11.95,6.87-1.51,13.76-3.38,20.61-4.75-13.42-4.55-27.81-11.05-40.92-15.29l-13.59,2.52h0Z"/>
  <path class="st9" d="M212.19,338.85c-8.34,1.94-5.74,3.08,1.74,5.58-.58-1.88-1.29-3.67-1.74-5.58Z"/>
  <path class="st9" d="M85.13,344.45c.26.58.51,1.18.77,1.77.31.72,1.01,2.21,1.84,2.5.23.08.48.13.72.2.87-6.98,1.24-14.07,1.65-21.09-5.67-11.77-10.29-24.16-14.71-36.45-.14-.4-.25-.83-.5-1.17-.47-.12,0-.03-.81.06-.08.01-.16,0-.25-.02-.23-.49-.07-.79-.01-1.34.14-1.41-.19-2.04-.81-3.24-.19-.36-.37-.73-.55-1.09-3.23,19.29-2.5,23.27,4.48,40.59,2.61,6.48,5.34,12.91,8.18,19.29h0Z"/>
  <path class="st9" d="M384.29,75.24c.58-1.61,1.03-3.36,1.49-5,2.54-8.92,4.22-18.33,5.21-27.54.53-4.9,2.4-13.02.55-17.56-4.23,6.87-7.16,14.14-10.09,21.64-.38.95-.84,1.86-1.24,2.8-.56,1.28-.95,2.61-1.4,3.92-.23.64-.5,1.26-.75,1.89-.92,2.45-1.45,5.08-2.2,7.58-.19.65-.42,1.29-.63,1.93-3.25,10.61-5.42,22.65-6.8,33.66,2.38-5.26,4.57-10.32,6.24-15.85,1.54-5.16,3.02-10.33,4.44-15.52.15-.54.27-1.1.42-1.64.23-.83.53-1.63.78-2.45.27-.84.46-1.71.71-2.56.63-2.15,1.36-4.28,2.06-6.4,1.05-3.15,1.84-6.34,2.95-9.48.39-1.1.55-2.9,1.73-3.51.36-.18.84-.31,1.21-.1.33.18.44.64.45.98.03.86-.35,1.58-.68,2.35-.67,1.6-1.02,3.24-1.49,4.9-.17.62-.36,1.22-.54,1.83l-.24.86c-1.41,5.05-2.68,10.07-4.27,15.07-.95,2.99-1.77,6.02-2.72,9.01-1.01,3.18-1.79,6.33-2.98,9.45-.68,1.78-1.21,3.59-1.91,5.37-.69,1.76-1.21,3.6-1.86,5.39-1.47,3.97-2.3,8.32-3.39,12.41,6.13-10.59,10.81-21.93,14.93-33.43h.02Z"/>
  <path class="st9" d="M168.55,402.53c8.13,6.35,24.35,19.42,33.2,23.11,6.62-.9,13.17-2.14,19.75-3.26-12.22-6.91-24.07-13.91-35.79-21.66-5.7.78-11.43,1.25-17.16,1.81h0Z"/>
  <path class="st9" d="M191.74,400.81c3.42,2.34,6.93,4.52,10.34,6.84,7.34,5.12,15.31,9.28,22.94,13.94,6.49-1.85,12.96-3.78,19.4-5.79-3.28-1.72-6.59-3.38-9.92-4.99-21.35-10.56-19.24-12.19-42.76-10.01h0Z"/>
  <path class="st9" d="M151.48,421.99c.46.1.92.19,1.38.31.47.12.93.28,1.41.41,6.9,1.86,14.16,2.55,21.28,3.01l1.7.12c-11.27-7.26-22.71-14.27-34.3-21.01-9.22,1.06-18.48,1.98-27.73,2.78,6.11,2.91,12.06,5.73,18.36,8.22,5.88,2.31,11.85,4.37,17.91,6.16h-.01Z"/>
  <path class="st9" d="M79.55,295.13c2.18,6.19,4.66,12.29,7.02,18.42,1.26,3.27,2.5,6.16,4.37,9.14,1.01-7.59,3.42-15.75.58-23.05-4.65-11.89-7.25-27.74-14.42-38.28l-1.58,6.05c-3.03,11.63.14,16.65,4.03,27.72h0Z"/>
  <path class="st9" d="M272.33,178.44c-2.59,1.97-19.9,15.96-21.85,16.7l-.89-.14.19.19-.2-.16v-.04h0l-.07-.07c1.2-3.85,7.5-8.26,10.87-10.61,4.37-3.45,8.86-7.39,13.38-10.53,1.39-5.29,2.48-10.11,3.77-15.36-23.67,22.02-23.74,13.02-32.14,44.46,7.57-4.16,14.74-6.5,22.13-11.45,1.82-4.49,3.32-8.35,4.79-13h.01Z"/>
  <polygon class="st9" points="249.58 195.03 249.79 195.19 249.59 194.99 249.59 194.99 249.58 195.03"/>
  <path class="st9" d="M266.52,404.82c-.53-.61-1.52-.78-2.25-.97-3.44-1.31-6.91-2.44-10.36-3.73-6.81-2.54-28.86-4.36-35.28-.8-.19.1-.16.09-.19.24.66,1.05,2.32,1.52,3.4,1.97,9.14,3.94,17.88,8.92,26.93,13.13,2.57-1.27,17.62-7.11,17.98-9.08.04-.22-.08-.59-.23-.76Z"/>
  <path class="st9" d="M222.21,333.43c7.57-1.87,14.78-3.37,22.49-4.61l5.8-6.02c1.36-1.43,2.77-2.81,4.14-4.21.48-.49.95-1,1.44-1.48,3.15-3.18,9.11-7.58,10.48-11.89-4.09.69-8.15,1.54-12.23,2.22-2.69.45-5.36,1.14-8.02,1.77-.34.32-.68.65-1.03.95-.28.25-.58.48-.86.73-1.14,1.01-2.25,2.07-3.37,3.1-1.57,1.46-3.11,2.94-4.62,4.46-4.22,4.16-11.65,9.8-14.22,14.97h0Z"/>
  <path class="st9" d="M93.48,266.76c-3.55-8.28-5.79-17.58-10.06-25.45-1.13,2.8-2.16,5.51-3.08,8.39-.33,1.04-.72,2.06-1.09,3.08-.34.95-.65,1.93-.98,2.89,1.5,5.64,12.91,36.8,15.69,40.85,1.71-11.72,4.34-18.52-.49-29.75h0Z"/>
  <path class="st9" d="M299.36,338.17c-.37-.58-1.27-.79-1.84-1-8.35-3.79-16.63-7.64-24.76-11.89-5.35,1.07-10.61,2.22-15.9,3.54-.59.15-1.75.41-2.05,1.06-.09.2-.11.45-.05.66.22.66,1.31.98,1.84,1.2,10.03,4.74,20.41,8.43,30.6,12.78,2.5-.87,10.67-3.03,12.04-5.28.17-.29.3-.75.11-1.06h.01Z"/>
  <path class="st9" d="M258.13,266.25c6.87-2.39,17.27-4.35,22.08-9.92.58-.68,1.21-1.31,1.81-1.96,5.07-5.49,14.46-13.02,17-19.98-9.91,3.16-22.4,6.06-28.95,14.5l-6.39,8.15c-1.37,1.73-2.63,3.63-3.92,5.43-.98,1.35-1.24,2.19-1.63,3.79h0Z"/>
  <path class="st6" d="M421.67,66.8l-3.17,3.51c-6.25,6.95-12.46,13.41-18.53,20.65l-3.33,3.99c-2.72,3.29-4.91,6.43-7.87,9.53l-.28,4.72c3.96-5.36,9.16-9.74,13.93-14.56l1.45-1.47c17.71-17.85,31.63-33.11,46.43-53.4l-2-2.29c-6.3,8.99-18.85,20.36-26.63,29.32Z"/>
  <path class="st4" d="M450.32,141.84l1.36-2.68c-1.69-.57-4.9-1.46-6.61-1.72-22.79-3.54-45.65-6.79-68.34-4.86-6.07.51-10.71.78-16.92.86,23.45,6.96,61.77,5.41,86.77,6.73,1.51.08,2.49.94,3.75,1.67h0Z"/>
  <path class="st2" d="M450.32,141.84l1.36-2.68c-1.69-.57-4.9-1.46-6.61-1.72-22.79-3.54-45.65-6.79-68.34-4.86-6.07.51-10.71.78-16.92.86,23.45,6.96,61.77,5.41,86.77,6.73,1.51.08,2.49.94,3.75,1.67h0Z"/>
  <path class="st9" d="M311.78,273.36c-.93-1.16-2.94-1.6-4.31-1.97-3.67-1.53-7.19-3.25-10.93-4.63-4.46-1.64-8.96-3.59-13.35-5.43-3.74,1.07-14.37,3.39-16.96,5.92-.06.23-.11.21.07.44,1.05,1.37,4.34,2.05,5.92,2.67,2.64.95,5.31,1.75,7.96,2.7,6.07,2.17,12.09,4.07,18.25,5.95,1.61-.48,12.89-3.07,13.56-4.84.1-.28-.04-.59-.22-.81h0Z"/>
  <path class="st9" d="M221.35,350.47c-3.34-1.34-6.81-2.53-10.18-3.79-.96-.36-1.89-.79-2.84-1.16-3.23-1.27-6.76-2.22-10.07-3.23-2.4.55-12.75,2.37-14.01,4.07-.12.16-.33.69-.38.81,7.03,2.46,14,5.08,20.91,7.87,3.8,1.57,7.83,2.58,11.66,4.12l1.73.68c4.31-.75,16.36-.9,19.11-3.67-3.35-1.24-6.74-2.31-10.07-3.62-1.94-.76-3.92-1.3-5.85-2.08h-.01Z"/>
  <path class="st9" d="M97.31,300.13c-.77,4.48-2.68,11.3-1.55,15.64l26.04-22.83.08-1.62c.26-4.4.77-8.69.07-13.07-7.94,6.67-16.12,13.58-24.35,19.87-.1.66-.18,1.33-.29,2h0Z"/>
  <path class="st9" d="M282.53,345.57c-.14-.23-.32-.43-.47-.65-11.07-4.18-21.9-8.68-32.61-13.71-2.3.38-16.19,1.93-17.01,3.58-.18.35.16,1.16.2,1.31,2.17.87,4.29,1.62,6.51,2.35,1.15.38,2.22.86,3.34,1.3,1.14.44,2.3.79,3.45,1.2,3.25,1.15,6.43,2.34,9.59,3.72,4.76,2.08,9.86,3.58,14.72,5.41,2.17-.67,11.32-2.52,12.3-4.13.07-.12.05-.24-.02-.37h0Z"/>
  <path class="st9" d="M290.98,280.42c-.84-1.1-2.92-1.51-4.17-1.88l-12.26-4.79c-1.92-.75-3.93-1.34-5.87-2.06-2.58-.96-5.25-1.74-7.84-2.67-4.72,1.26-9.27,2.72-13.92,4.22-.51.16-1.28.52-1.6.96-.12.17-.11.41,0,.58.76,1.07,2.81,1.44,3.97,1.79,3.47,1.31,6.97,2.49,10.45,3.76,1.63.6,3.26,1.11,4.87,1.77,3.31,1.34,6.91,2.31,10.3,3.41,3.45-.74,13.96-1.86,16.18-4.41.06-.27.03-.44-.15-.68h.03Z"/>
  <path class="st6" d="M403.48,82.24c2.1-2.09,3.97-4.34,5.99-6.48l13.78-14.92c4.36-4.62,19.63-22.05,25.04-23.36l2,2.29c3.36-5.21,6.65-10.47,9.84-15.79-20.1,12.74-43.99,33.81-58.4,52.84.76,2.04,1.31,3.27,1.76,5.41h-.01Z"/>
  <path class="st9" d="M101.46,243.8c-4.18-6.66-6.92-14.19-9.93-21.42l-6.57,13.67c3.37,10.31,7.06,23.89,12.73,33.09,1.63-8.35,2.72-16.89,3.77-25.34h0Z"/>
  <path class="st9" d="M256.67,153.94c1.37-2.88,2.27-5.8,3.43-8.75,1.9-4.77,2.45-10.22,3.64-15.22-.21-.45-.4-.89-.61-1.33-.11-.22-.25-.43-.36-.65-3.27-6.54-4.06-14.48-6.65-21.34-2.63,5.96-5.32,11.75-7.63,17.85,2.83,9.59,4.66,20.18,8.18,29.45h0Z"/>
  <path class="st9" d="M177.32,208.4c2.31-8.5,4.17-17.02,6.3-25.55-.96-2.62-1.87-5.16-2.98-7.73-1.82-4.23-3.24-8.63-4.99-12.87-2.53,5.24-4.76,10.7-6.93,16.11,1.75,8.91,3.9,22.36,8.59,30.04h0Z"/>
  <path class="st9" d="M101.15,276.35c-.84,2.89-3.78,13.21-2.51,15.69.16.3,1.04.6,1.12.64,7.29-6.04,14.87-11.98,22.51-17.56.2-5.08.68-10.59-.28-15.61l-1.65,1.13c-.4.26-.8.52-1.19.78-6.45,4.3-12.07,9.95-18,14.93h0Z"/>
  <path class="st9" d="M93.7,332.48c.14.29,1.02.6,1.08.63,8.15-6.98,16.52-13.46,25.07-19.93.04-.43.04-.87.06-1.3.23-4.49,1.34-9.28.28-13.7-8.46,7.49-16.96,14.64-25.14,22.47-.33,2.34-2.27,9.99-1.36,11.83h.01Z"/>
  <path class="st9" d="M148.07,404.46c11.73,7.67,23.91,14.62,35.75,22.1,4.31-.33,8.62-.36,12.93-.62-11.2-7.46-22.17-16.57-33.92-23-4.92.6-9.84.99-14.77,1.52h.01Z"/>
  <path class="st9" d="M318.71,328.96c-8.74-3.06-17.69-5.4-26.44-8.51-2.74.73-12.73,2.01-14.09,3.71-.04.06-.06.15-.04.22.07.29.74.83.89.98,8.13,4.26,16.49,7.92,24.56,12.28,2.8-1.25,14.59-5.27,15.81-7.62.13-.23.1-.27.09-.47-.19-.29-.49-.41-.78-.58h0Z"/>
  <path class="st9" d="M83.68,348.77l-4.82-11.78c-.42-1.02-.78-2.07-1.19-3.1l-2.55-6.39c-1.11-2.86-2.3-5.23-4.2-7.62.65,17.55,4.38,33.7,11.18,49.88.98,2.32,2.11,4.23,3.64,6.2.61-6.56.81-13.15,1.39-19.72-1.34-2.43-2.41-4.92-3.46-7.49v.02Z"/>
  <path class="st9" d="M102.24,238.5c2.36-7.83,8.62-41.51,6.81-47.89-5.41,8.98-10.58,18.11-15.51,27.36,1.73,5.81,3.83,11,6.41,16.48.66,1.41,1.47,2.73,2.3,4.06h-.01Z"/>
  <path class="st9" d="M171.22,230.55c1.52-5.02,2.85-10.06,4.43-15.06-2.74-10.43-4.76-21.76-8.88-31.75-1.3,3.43-2.42,6.88-3.58,10.36-.33,1-.6,2.02-.9,3.03-.35,1.15-.74,2.28-1.1,3.43,2.77,9.74,5.68,20.85,10.03,30h0Z"/>
  <path class="st9" d="M257.28,318.94c-2.18,2.36-4.96,4.69-5.96,7.81,5.92-1.64,11.87-2.96,17.85-4.34.26-.29.51-.59.76-.89.24-.3.45-.62.69-.92,1.25-1.57,2.53-2.99,3.9-4.45.58-.6,1.09-1.26,1.63-1.9,3.22-3.8,9.67-7.97,11.09-12.69-4.65.53-9.34,1.17-13.98,1.85-3.12,2.64-6.15,5.27-9.01,8.18-.4.41-.82.8-1.23,1.2-.87.89-1.76,1.78-2.6,2.7l-3.14,3.44h0Z"/>
  <path class="st9" d="M164.42,257.74c-2.51-7.09-5.04-14.16-7.17-21.4-4.4.14-4.47.26-4.67-4.79-1.04,4.75-2.41,9.12-3.37,14.02,3.2,9.28,6.76,18.43,10.66,27.44,1.49-5.14,3.03-10.16,4.55-15.27h0Z"/>
  <path class="st9" d="M157.25,236.35c-.96-2.69-2.94-11.79-4.67-4.79.2,5.05.27,4.93,4.67,4.79Z"/>
  <path class="st9" d="M170.27,236.17c-2.01-6.06-4.65-15.14-7.21-20.95-1.92-.83-3.49-1.46-5.49-2.18-.8,3.1-1.73,5.96-2.56,8.99,2.92,9.9,6.5,22.04,10.44,31.42,1.43-5.89,2.98-11.52,4.82-17.29h0Z"/>
  <path class="st9" d="M339.57,316.77c-9.42-.35-19.66-2.77-28.87-1.01-4,.76-8,1.88-12.02,2.37-.57.07-.44.05-.89.31-.13.21-.18.3-.1.56.08.27.19.55.29.82l6.58,1.82c1.53.42,3.01.85,4.53,1.31l5,1.53c3.22,1.01,6.49,1.93,9.74,2.87,3.64-1.25,14.23-5.77,16.06-9.1.28-.49-.13-1.04-.31-1.48h0Z"/>
  <path class="st9" d="M201.82,171.82c-.65-11.03-1.75-22.03-3.3-32.97-.09-1.47-.04-1.55-.55-2.92-.66-.46-.44-.37-.74-.45-.29.13-8.79,41.06-9.7,45.32,4.85-3.11,9.35-5.99,14.29-8.98h0Z"/>
  <path class="st9" d="M264.42,124.81c2.94-7.11,11.51-38.51,9.21-44.88-5.51,7.72-10.37,15.41-15.14,23.61,1.66,7.03,2.99,14.68,5.93,21.27h0Z"/>
  <path class="st9" d="M176.7,224.05c-.31,1.31-.68,2.58-1.01,3.88-.87,3.31-1.46,6.79-1.98,10.17-.09.57-.2,1.14-.29,1.71.5-.44,1-.88,1.5-1.33s.97-.93,1.46-1.39c6.14-5.69,13.24-10.39,20.23-14.94.18-.85.32-1.71.51-2.56.92-4.35,1.89-8.27,2.07-12.74-1.7.77-2.16,1.09-3.5,2.34-5.84,5.39-12.87,9.75-18.99,14.87h0Z"/>
  <path class="st9" d="M170.38,398.3c.06.14.14.27.21.4l1.93-.17c5.78-.55,11.53-1,17.32-1.31,6.1-4.74,12.69-8.68,18.97-13.15.64-.46,1.22-.88,1.66-1.54.03-.48.05-.17-.21-.9-5.65.47-11.29,1.02-16.91,1.67-4.79.57-20.49,10.51-22.86,14.17-.19.29-.25.51-.11.83h0Z"/>
  <path class="st9" d="M304.62,255.3c-5.78,1.66-11.58,3.24-17.41,4.72,4.58,2.14,9.2,4.01,13.82,6.03,3.06,1.33,6.2,2.44,9.27,3.79,8.42,2.89,9,1.93,17.49-1.93-7.88-3.99-15.51-8.23-23.18-12.62h.01Z"/>
  <path class="st9" d="M306.61,201.49c3.37.97,6.68,1.79,9.99,2.96,1.82.64,3.56,1.21,5.37,1.91,3.12,1.2,6.36,2.27,9.5,3.4,3.16,2.01,5.36,1.5,9.03.7l8.66-1.99c-8.01-4.33-15.98-8.86-24.12-12.94-6.29,1.73-12.29,3.77-18.43,5.97h0Z"/>
  <path class="st9" d="M193.56,134.71c-1.84,1.86-3.66,3.72-5.47,5.61-4.46,6.92-6.47,10.08-10.42,17.48,2.29,7.4,4.17,12.41,7.37,19.59,3.45-14.54,5.48-28.41,8.51-42.69h.01Z"/>
  <path class="st9" d="M193.77,132.32c-1.04-1.09-2.96,3.02-3.18,3.42l-2.5,4.58c1.81-1.89,3.63-3.76,5.47-5.61.28-1.15.43-1.32.21-2.39h0Z"/>
  <path class="st9" d="M150.15,288c1.23,3.01,2.3,6,3.7,8.95,1.25-6.47,2.54-12.9,4.14-19.3-2.51-8.43-5.33-18.08-9.64-25.75-1.4,9.27-4.47,20.5-.84,29.45.9,2.21,1.74,4.44,2.64,6.65h0Z"/>
  <path class="st9" d="M218.91,331.91c.51-.41,1.03-.81,1.54-1.22,4.3-3.5,17.96-14.35,19.17-19.52-5.49,1.28-10.82,2.63-16.09,4.68-.52.2-1.06.39-1.58.59-2.24,2.67-4.68,5.11-7.1,7.6-.58.59-1.09,1.25-1.64,1.86-3.36,3.77-8.58,7.17-10.88,11.61,5.81-1.41,11.85-1.8,16.58-5.6h0Z"/>
  <path class="st9" d="M386.87,140.45l2.37,3.49c18.24,4.38,37.15,5.26,55.72,2.58l1.81-.23-.92-3.07c-18.94-1.25-39.49-1.58-58.98-2.77h0Z"/>
  <path class="st9" d="M307.55,254.53c6.49,3.56,13.08,6.77,19.65,10.18,1.38.86,2.48,1.68,4.19,1.31,3.86-.85,8.71-4.14,12.42-5.87-6.53-3.26-12.92-6.78-19.51-9.92-5.49.34-11.42,2.79-16.74,4.3h-.01Z"/>
  <path class="st9" d="M196.05,339.42c.28-.32.58-.62.84-.95.32-.4.59-.83.91-1.23,5.12-6.65,13.24-10.78,17.74-18.19-8.27,2.31-23.12,7.08-28.26,14.05-.65.88-1.55,1.58-2.32,2.33-2.48,2.4-5.77,5.2-6.87,8.5,6.1-1.08,12-2.86,17.96-4.52h0Z"/>
  <path class="st9" d="M249.65,178.54c.74-1.72,1.36-3.5,2.05-5.24-.24-.39-.46-.77-.72-1.15-.2-.29-.44-.56-.64-.85-4.94-6.99-6.28-16.29-10.38-23.8-.62,2.16-1.26,4.29-1.96,6.42-.33,1-.59,2.03-.9,3.04-.48,1.6-.98,3.19-1.43,4.8,3.39,8.45,6.11,18.21,10.33,26.17,1.26-3.13,2.31-6.3,3.64-9.4h0Z"/>
  <path class="st10" d="M343.26,190.41l-14.05,3.56c3.67,2.12,7.36,4.21,11.07,6.27,4.11,2.25,8.15,4.53,12.11,7.05,4.73-1.62,9.4-3.41,14.1-5.14-3.73-1.91-7.41-4.04-11.19-5.81-4.08-1.88-8.03-3.91-12.04-5.94h0Z"/>
  <path class="st9" d="M105.69,236.89c4.99-4.91,9.46-9.76,14.87-14.21-1.16-7.91-1.51-15.17-3.69-22.82-2.26-.39-2.25-.36-4.69-.25-2.21,13.55-3.79,23.72-6.5,37.27h.01Z"/>
  <path class="st9" d="M183.57,202.68c-.3.22-.59.45-.88.67-.42,1.27-.87,2.53-1.29,3.79-.6,1.81-1.14,3.65-1.72,5.46-.35,1.12-1.39,3.53-.97,4.73.04.1.11.19.21.23.4.17,1.06-.2,1.41-.34,2.85-1.68,5.51-3.55,8.16-5.53,3.76-2.8,7.68-5.38,11.43-8.18.68-4.7,2.37-10.81,1.13-15.48l-4.92,4.49c-3.95,3.61-8.28,6.94-12.57,10.14v.02Z"/>
  <path class="st9" d="M267.25,286.06c-.46-.72-1.94-.95-2.69-1.16-3.94-1.49-7.89-2.98-11.78-4.58-1.88-.77-3.97-1.35-5.92-1.96-.53-.16-1.08-.31-1.61-.46-1.47-.44-2.8-.96-4.24-1.51l-1.21-.45c-2.41.82-11.78,3.4-12.63,5.51-.06.15-.08.36.03.49.54.63,1.54.67,2.29.78,3.02,1.09,5.97,2.21,8.94,3.43,8.81,3.6,17.76,2.22,27,1.04.64-.08,1.44-.19,1.89-.69.04-.17.06-.21-.08-.43h0Z"/>
  <path class="st9" d="M257.84,163.33c-.5,2.18-1.13,4.34-1.91,6.45-.29.8-.8,2.54-.29,3.35.11.16.5.43.6.51.83-.71,1.67-1.4,2.52-2.09,7-5.73,13.63-11.95,20.69-17.6.54-3.82,2-8.73,1.04-12.51-7.43,6.09-13.9,12.72-21.74,18.41-.44,1.32-.6,2.09-.92,3.48h.01Z"/>
  <path class="st9" d="M219.92,394.38c0,.14.06.27.19.34.18.1.67.24.89.31,8.77-.09,16.88-.23,24.34-5.15,1.57-1.03,8.15-5.11,8.54-6.81.08-.33-.12-.64-.36-.85-.22-.2-.46-.37-.7-.55-5.08-.42-10.02-.69-15.12-.73-2.72,1.69-17.55,10.7-17.79,13.45h0Z"/>
  <path class="st9" d="M361.7,248.75c-.17-.17-.37-.32-.55-.48-15.73-2.66-15.4-4.36-31.12.32-.36.1-1.1.31-1.28.72-.06.13-.02.3.05.42.3.57,1.36,1.27,1.78,1.61,5.37,2.36,10.52,4.66,15.7,7.42,2.4-1.13,14.94-7.26,15.55-9.55.05-.22.04-.3-.13-.46Z"/>
  <path class="st9" d="M102.89,260.97c-.1,1.4-1.62,8.83-.6,9.81.2.19.47.16.7.07.26-.09.49-.22.74-.32,4.64-3.75,9.33-7.44,14.06-11.07,1.54-1.17,3.15-2.24,4.74-3.34-.13-4.19.44-9.11-1.02-13.06-6.64,4.98-12.84,10.52-18.53,16.57-.03.45-.05.89-.09,1.34Z"/>
  <path class="st9" d="M156.54,353.66c.87.56,2.45.37,3.4.38.8,0,1.61.05,2.4.07,1.01.21,2.03.36,3.05.52,13.04,1.96,25.17,4.24,38.47,4.57.81.02,1.86.11,2.6-.28v-.24c-.78-.86-2-1.02-3.05-1.43-.14-.06-.44-.27-.6-.38-3.93-1.45-7.85-2.97-11.75-4.48-4.25-1.64-8.54-3.19-12.84-4.74-7.15,1.84-14.34,3.62-21.45,5.58-.08.02-.17.03-.25.06-.04.01-.07.05-.11.07,0,.16-.05.19.12.3h.01Z"/>
  <path class="st9" d="M241.51,201.08c.95-2.8,2.07-6.09,2.93-8.92-3.39-8.95-6.91-18.12-10.17-27.09l-.98,4.34c-4.14,17.64.95,19.67,5.52,36.63,1.13-1.85,1.92-2.94,2.69-4.97h0Z"/>
  <path class="st9" d="M357.14,297.75l-.33-2.58c-9.29-.58-18.61.11-27.86,1.03-4.3,4.49-8.6,8.99-13,13.39,15.81-3.6,26.34-7.83,41.19-11.84h0Z"/>
  <path class="st9" d="M191.33,228.94c-7.54,4.91-13.96,10.77-20.32,17.08l-.76,3.11c-.23.95-.55,1.85-.83,2.78-.29.94-.73,2.47-.23,3.39.35.17.11.08.76.13,7.36-5.23,14.57-10.53,22.4-15.04.05-.38.09-.77.13-1.15.03-.35.04-.71.08-1.06.28-2.8.93-5.45,1.55-8.18.23-1.02.06-1.73-.13-2.75l-1.75,1.14c-.29.19-.59.37-.88.56h-.02Z"/>
  <path class="st9" d="M254.04,164.6c1.19-3.19.83-4.85.26-8.17-.08-.48-.15-.97-.23-1.45-1.39-7.56-3.8-19.17-7.33-25.83-1.79,4.95-3.55,9.89-5.2,14.89,3.6,8.55,6.3,18.01,10.76,26.11.52-1.9,1.06-3.71,1.75-5.56h0Z"/>
  <path class="st9" d="M348.98,184.27c.19.39.09.21.29.53,12.64-3.42,19.71-6.7,30.16-14.76.43-.33,2.56-1.83,2.63-2.7.03-.43-.09-.65-.23-1.12-5.58,0-10.89.17-16.43.88-.33.04-.65.07-.97.11-.86,1-1.7,2.03-2.57,3.03-.69.81-1.47,1.55-2.19,2.33-.45.5-.89,1.02-1.36,1.51-1.62,1.77-9.16,8.31-9.33,10.17v.02Z"/>
  <path class="st9" d="M349.82,242.21c-.07.11-.24.53-.3.68,5.93,1.19,11.83,2.35,17.78,3.37,6.21-4.41,12.59-8.49,18.61-13.17.4-.3.8-.59,1.19-.9,1.4-1.09,1.87-1.81,2.53-3.4-4.92,1.25-38.04,10.77-39.82,13.42h0Z"/>
  <path class="st9" d="M324.68,312.47c7.24.87,14.55,1.15,21.83,1.48,6.01-3.77,15.48-9.36,18.88-15.67-5.11,1.73-38.95,10.69-40.34,13.34-.14.27-.25.56-.38.84h.01Z"/>
  <path class="st9" d="M293.61,315.08c.05.27.14.52.22.79,2.11-.4,4.21-.73,6.34-1.06,2.53-.4,5.05-1.11,7.54-1.67l1.13-1c.29-.26.59-.5.89-.76,2.6-2.39,5.12-4.87,7.54-7.44l3.78-3.9c.25-.26.51-.52.75-.78.43-.46,1.1-1.12,1.13-1.76-.22-.46-.09-.2-.42-.75-2.02.24-4.03.48-6.06.68-2.89.29-5.78.73-8.66,1.11l-3.18,4.05c-.56.72-1.21,1.37-1.82,2.05-1.28,1.41-9.46,9.04-9.19,10.45h0Z"/>
  <path class="st9" d="M167.12,260.95c-.3,1.13-.61,2.02-.99,3.14-.33,1-.58,2.03-.9,3.04-.2.65-.44,1.29-.64,1.94-.42,1.37-.65,2.78-.9,4.19l1.74-1.12c6.06-3.83,11.86-8.03,17.93-11.83,1.88-3.73,3.44-7.47,5.08-11.31.66-1.54.71-2.07.25-3.64-7.34,5.02-14.46,10.28-21.59,15.59h.02Z"/>
  <path class="st9" d="M196.87,396.64c4.15-.54,8.52-.85,12.7-.83.5,0,1.02-.02,1.53-.03,5.72-3.7,11.29-7.34,16.69-11.5,1.46-1.12,1.87-1.63,2.51-3.31-4.26.18-8.44.05-12.69-.02-.22.11-.43.24-.65.34-.31.15-.63.27-.94.42-2.23,1.09-4.48,2.95-6.51,4.39-1.6,1.14-3.24,2.22-4.88,3.31-2.96,1.97-6.68,3.69-7.76,7.23h0Z"/>
  <path class="st9" d="M249.44,392.57c.39.45,1.25.32,1.77.3,5.22-.58,35.23-3.21,38.48-5.06.26-.59.24-.29.07-.89-.54-.47-1.15-.6-1.83-.85-9.14-.98-18.41-2.4-27.48-3.96l-1.17-.19c-.88.87-1.74,1.76-2.6,2.64-1.47,1.48-7.28,5.31-7.42,7.39-.02.25,0,.4.18.6v.02Z"/>
  <path class="st9" d="M277.8,315.78c-.48.53-3.65,3.65-3.4,4.61.04.14.21.41.29.54,4.83-1.12,9.63-2.2,14.41-3.49.25-.32.49-.63.72-.96.48-.67.91-1.38,1.36-2.06,1.94-2.99,12.68-12.16,12.14-14.97-.04-.19-.08-.37-.13-.57-3.52.59-7.04,1.18-10.55,1.82-4.67,4.55-9.25,9.1-13.7,13.87-.38.4-.77.79-1.14,1.2h0Z"/>
  <path class="st9" d="M262.06,149.81c-.25.92-.66,1.52-1.08,2.42-.18.37-.3.79-.14,1.19.2.48,1.12.63,1.44.73.92-.78,1.87-1.53,2.79-2.29,6-4.93,11.43-10.44,17.3-15.49.16-4.28.66-8.37.37-12.66-1.1,1.05-2.05,2.07-3.1,3.15-7.67,7.97-14.56,11.95-17.6,22.96h.02Z"/>
  <path class="st9" d="M255.49,253.67l-1.49.74c-6.91,3.26-13.58,13.17-18.27,19.2,6.68-2.52,16.36-4.17,18.56-8.78,2.17-4.19,7.1-8.8,1.19-11.16h.01Z"/>
  <path class="st9" d="M254.29,264.83c3.34-3.4,5.48-6.54,8.37-10.1l6.43-8.03c-.67.32-1.34.64-2.02.96-.98.46-1.97.91-2.94,1.36-2.91,1.5-5.79,3.05-8.64,4.65,5.91,2.36.97,6.97-1.19,11.16h-.01Z"/>
  <path class="st9" d="M150.13,400.9c2.79-.2,5.59-.77,8.36-1.16,2.33-.33,4.63-.89,6.97-1.26,4.83-4.16,13.73-8.41,17.16-13.52-7.65,1.39-18.92,1.65-24.98,6.63-3.56,2.93-8.11,5.68-10.76,9.5,1.08-.07,2.17-.11,3.24-.19h0Z"/>
  <path class="st9" d="M104.15,253.97c.12.13.23.17.41.1.24-.08.47-.19.7-.29,5.07-4.89,10.53-9.26,15.31-14.45.31-.33.62-.66.94-.98-.04-.64-.1-1.28-.13-1.91-.02-.44-.01-.88-.04-1.32-.13-2.91-.42-5.56-1.32-8.34-4.77,4.78-9.64,9.45-14.47,14.17-.19,1.73-2.4,12-1.41,13.03h.01Z"/>
  <path class="st9" d="M347.12,189.02c7.09,3.3,14.02,6.59,20.96,10.24,3.7,1.36,8.03-1.75,11.34-3.27-5.87-3.6-11.68-7.37-17.65-10.79-4.91,1.17-9.8,2.44-14.65,3.82h0Z"/>
  <path class="st9" d="M161.24,279c-1.17,4.88-2.19,9.79-3.03,14.73-.13.77-.27,1.54-.41,2.31.14.48.28,1.17.56,1.66,3.55-1.29,18.54-24.78,20.4-28.93.41-.92.62-1.79.89-2.77-6.24,4.02-12.72,8.23-18.4,13h0Z"/>
  <path class="st9" d="M229.44,184.17c-1.48,18.51-3.52,23.39,3.94,41.22,1.58-5.52,3.49-10.79,5.16-16.25l-1.44-1.12c-3.59-7.9-5.22-15.53-7.66-23.85Z"/>
  <path class="st9" d="M256.68,395.44c-.59.04-1.73.25-2.11.7-.1.12-.09.2-.02.34.11.23.23.44.35.66,2.19.66,4.33,1.37,6.5,2.1,1.81.61,3.57,1.23,5.36,1.91,1.99.75,4.03,1.4,6.03,2.11,3-1.78,15.71-7.74,16.6-10.57.12-.41-.21-1.07-.3-1.33-10.31,1.17-20.59,2.65-30.89,3.96-.5.07-1.01.08-1.52.12h0Z"/>
  <path class="st9" d="M314.36,127.04c1.4-4,2.66-8.05,3.78-12.14-3.05-7.05-4.84-14.86-8.16-21.7-.93,2.5-1.78,5.04-2.65,7.56-.89,2.56-1.51,5.31-2.26,7.93.23.34.45.68.7,1.01.19.26.43.51.62.78,3.73,4.97,5.06,11.17,7.97,16.56Z"/>
  <path class="st9" d="M282.53,104.53c-.79-6.43-1.4-12.49-2.9-18.83-.26-1.42-.29-1.69-.84-3.03-.86-.56-.52-.37-1.07-.64l-.12.03c-2.78,11.68-4.95,24.86-7.48,36.77,4.65-5.08,8.1-8.97,12.41-14.3Z"/>
  <path class="st9" d="M334.54,64.49c-.4,1.34-.77,2.71-1.14,4.06-.26.94-.77,2.68-.33,3.66.09.2.3.35.52.37.36.04.74-.28.96-.54.25-.31.49-.63.74-.94,1.48-1.62,2.85-3.27,4.25-4.96,1.22-1.49,2.39-2.92,3.56-4.45,1.01-1.32,2.07-2.61,3.1-3.91-.09-1.13-.21-2.27-.32-3.4-.53-5.46-.05-10.5-2.53-15.53-2.54,5.52-4.18,10.89-6.09,16.64-1,2.97-1.83,6-2.72,9h0Z"/>
  <path class="st9" d="M393.82,185.63c-.54-.6-1.55-.78-2.29-.99-4.1-1.18-7.99-2.39-12.01-3.79-2.07.44-4.12.83-6.19,1.23-1.26.25-4.94.6-5.75,1.91-.12.2-.15.41-.06.63.47,1.11,2.53,1.94,3.45,2.45,3.8,2.37,7.54,4.8,11.45,7,3.45-2.07,6.93-4.13,10.35-6.25.48-.3,1.12-.77,1.3-1.35.09-.26-.09-.66-.25-.84Z"/>
  <path class="st9" d="M312.42,133.37c-2.41-6.78-3.84-14.58-8.24-20.37-1.2,5.46-2.18,10.89-2.9,16.43,1.65,3.95,4.13,13.25,7.82,15.29,1.4-3.77,2.31-7.47,3.32-11.35h0Z"/>
  <path class="st9" d="M334.67,90.86c-2.65,3.27-6.19,5.88-9.4,8.56-.2.81-.37,1.63-.57,2.45-.24.95-1.58,4.63-1,5.74.22.41.68.41,1.09.54.97-.82,1.91-1.67,2.88-2.49,3.68-3.11,8.38-5.47,12.44-8.11.91-2.5,1.66-5.05,2.37-7.62.13-.49.29-.98.41-1.48.72-2.72,1.01-5.23,1.18-8.02-2.22,2.22-4.32,4.49-6.38,6.85-1.04,1.18-2.02,2.35-3.02,3.58Z"/>
  <path class="st9" d="M384.85,177.89c-.23.35-.28.79-.4,1.19,3.16,1,6.33,1.89,9.48,2.94,1.13.37,2.28.67,3.42,1.02.62.19,1.23.39,1.85.58,4.92-3.63,13.64-8.38,16.54-13.74l-2.05.23c-.34.04-.69.06-1.03.1-3.75.48-26.39,5.41-27.82,7.68h0Z"/>
  <path class="st9" d="M331.94,80.02c-1.53,1.7-4.58,10.02-4.32,12.28.08.68.44.86.97,1.2,1.27-1.17,2.28-2.22,3.44-3.49,1.08-1.17,2.08-2.31,3.1-3.54,2.71-3.25,5.72-6.33,8.72-9.3.53-.53,1.04-1.07,1.56-1.61l.03-1.09c.16-3.52.74-7.04.19-10.55-3.81,4.32-8.18,8.5-11.35,13.28-.7,1.04-1.5,1.88-2.35,2.81h.01Z"/>
  <path class="st9" d="M333.41,188.16c.02.27.38.35.56.45,2.8-.75,5.62-1.38,8.45-2.01,2.48-2.34,17.48-15.43,17.37-17.84-.01-.33-.14-.72-.21-1.03l-10.74,2.58c-2.41,2.64-15.59,15.46-15.42,17.85h-.01Z"/>
  <path class="st9" d="M367.62,231.9c2.78-2.62,7.62-3.89,5.73-6.46l-.72-1.04-3.9-.24c-2.63-.15-6.79.04-9.49.14l-2.48,3.32c-3.3,4.37-6.55,7.79-10.26,11.79,3.32-.88,18.58-5.83,21.12-7.5h0Z"/>
  <path class="st9" d="M186.22,187.08c-.47,2.04-1.02,4.06-1.65,6.06-.63,2.04-.88,4.12-1.18,6.22,6.41-4.57,12.36-9.94,18.08-15.34l-.09-1.71c-.08-1.95-.16-3.88-.34-5.83-4.77,2.77-9.48,5.62-14.3,8.29-.19.76-.33,1.54-.51,2.31h-.01Z"/>
  <path class="st9" d="M327.15,190.93l2.45-2.97c.43-.53.84-1.08,1.28-1.6,3.48-4.28,10.05-8.92,11.97-14.02-4.84,1.43-9.31,3.33-13.95,5.26l-1.5,2.11c-2.84,3.95-6.18,7.33-8.9,11.45-.73,1.13-1.01,1.67-1.35,2.91,3.36-.97,6.69-2.03,10-3.15h0Z"/>
  <path class="st9" d="M318.91,109.4c.56-1.98,1.15-3.91,1.79-5.86,1.64-5-1.61-21.97-3.86-26.66-1.71,3.75-3.38,7.52-5,11.3,1.96,7,3.59,14.83,7.08,21.22h-.01Z"/>
  <path class="st10" d="M268.52,124.45c-.48,2.36-1.01,4.68-1.58,7.01-.22.94-.89,2.87-.54,3.83.33.16.1.07.74.13,5.39-5.15,10.7-10.37,16.14-15.47-.11-3.37.15-6.78-.56-10.09-1.51,1.49-2.95,3.01-4.39,4.56-2.01,2.18-4.06,4.33-6.13,6.46-1.19,1.22-2.47,2.36-3.68,3.57h0Z"/>
  <path class="st4" d="M122.64,403.7c6.23-.63,12.46-1.5,18.69-2.16l1.25-1.02c.3-.24.61-.47.91-.71.83-.7,1.62-1.46,2.46-2.17,2.43-2.06,5.8-3.87,7.3-6.74l-1.83.32c-.31.05-.62.09-.92.15-5.24.99-29.12,8.5-31.4,12.1-.12.2-.24.41-.36.61l1.97-.2c.64-.06,1.28-.1,1.93-.17h0Z"/>
  <path class="st1" d="M122.64,403.7c6.23-.63,12.46-1.5,18.69-2.16l1.25-1.02c.3-.24.61-.47.91-.71.83-.7,1.62-1.46,2.46-2.17,2.43-2.06,5.8-3.87,7.3-6.74l-1.83.32c-.31.05-.62.09-.92.15-5.24.99-29.12,8.5-31.4,12.1-.12.2-.24.41-.36.61l1.97-.2c.64-.06,1.28-.1,1.93-.17h0Z"/>
  <path class="st9" d="M319.66,120.48c-.22.9.09,1.56.37,2.42,3.99-2.73,7.37-5.96,11.22-8.78,1.02-.74,2.42-.69,3.53-1.24,1.92-.93,3.73-9.91,4.16-11.85-8.57,5.15-16.84,9.03-19.28,19.45Z"/>
  <path class="st9" d="M410.03,166.98l-13.63-.72c-2.5-.13-4.99-.41-7.47-.58-.52.45-1.03.91-1.55,1.35-3.19,2.69-8.61,5.71-9.88,9.81,4.73-1.3,31.4-7.97,32.54-9.86h-.01Z"/>
  <path class="st9" d="M323.97,209.24l-3.51-1.02c-3.51-1.03-6.97-2.29-10.41-3.51-4.95-1.75-11.27-1.73-16.04.65-.31.16-.68.36-.8.72-.07.24.11.54.28.67.64.48,1.71.55,2.45.66,1.94.54,3.85,1.14,5.77,1.75,4.52,1.43,19.39,3.96,23.55,2.11.32-.15.36-.29.44-.61-.19-.61-1.61-1.34-1.73-1.42h0Z"/>
  <path class="st9" d="M145.15,283.08c-.77,10.35-.05,26.99,3.82,36.53l1.02-3.73c3.25-12.31,1.54-21.76-4.84-32.8h0Z"/>
  <path class="st9" d="M322.67,134.6c-5.29,4.28-15.8,16.85-13.27,24.16,1.91.3,5.07-6.03,5.84-7.37,2.79-6.22,7.6-10.35,7.42-16.79h0Z"/>
  <path class="st6" d="M315.24,151.38c1.95-2.35,12.17-17.71,11.31-19.72-1.26-.44-3.24,2.23-3.89,2.93.18,6.44-4.63,10.57-7.42,16.79h0Z"/>
  <path class="st9" d="M322.58,93.25c.1.58.33,1.34.47,1.86.46-1.56.96-3.1,1.41-4.66.25-.85.43-1.73.66-2.59.35-1.36.7-2.74,1.09-4.08.14-.49.31-.97.46-1.46.38-1.28.16-2.12-.36-3.32-1.86-4.27-1.42-10.82-2.63-15.56-1.53,2.87-3.18,5.71-4.57,8.65.88,4.3,1.57,8.56,2.3,12.88.47,2.75.71,5.54,1.16,8.29h.01Z"/>
  <path class="st9" d="M322.81,123.92c-1.3,1.15-2.52,1.97-3.95,2.95-2.86,1.95-3.71,8.44-4.4,11.55,1.51-1.21,2.95-2.45,4.41-3.73,3.02-2.63,6.01-5.04,9.35-7.25,2.2-1.46,4.34-6.62,4.69-9.12.1-.64-.04-1.29-.12-1.93-3.64,2.32-6.75,4.66-9.98,7.53Z"/>
  <path class="st9" d="M328.22,73.3c2.78-6.25,4.28-13.34,6.26-19.9.45-1.53.87-3,1.42-4.5.6-1.64,1.05-3.38,1.59-5.05.38-1.16.33-1.82,0-2.97-2.77,3.95-5.18,8.11-7.77,12.17-1.06,1.64-1.98,3.39-2.96,5.07.27,4.67.66,9.33,1.34,13.95.07.41.1.81.14,1.22h-.02Z"/>
  <path class="st9" d="M245.41,205.84c-1.37,1.19-2.22,2.32-3.37,3.72-.21,2.75-2.31,7.14-3.24,10.13,8.33-7.37,15.97-15.03,23.64-23.06-4.39,2.24-13.7,7.76-17.03,9.21h0Z"/>
  <path class="st6" d="M177.28,341.02c2.15-2.36,4.32-3.65,5.25-6.78-4.52,2.04-8.77,5.13-13.1,7.62-2.11,1.22-4.18,2.46-6.24,3.76-1.55.96-1.83,1.29-2.24,2.97,6.24-1.44,11.89-2.74,16.33-7.57h0Z"/>
  <path class="st9" d="M232.09,274.77c2.44-3.53,5.68-6.62,6.92-10.76-1.95,1.29-3.82,2.6-5.71,3.97-4.53,3.26-11.84,7.13-14.88,11.75,4.98-1.16,9.06-2.81,13.67-4.96h0Z"/>
  <path class="st9" d="M308.21,149.94c-2.28-4.6-4.26-9.42-6.88-13.84.27,4.62.9,9.1,1.47,13.68.14,1.13.37,2.26.53,3.39.44,3.03.62,5.4,1.96,8.18.9-3.35,1.78-6.68,2.61-10.05.11-.45.21-.92.32-1.37h0Z"/>
  <path class="st9" d="M317.28,188.1l-1.87-3.34-1.25.79c-13.82,8.52-9.26,20.16,3.12,2.55Z"/>
  <path class="st13" d="M396.69,90.42c-1.92-1.84-1.76-1.76-2.67-4.31-6.69,9.66-7.83,11.03-13.26,21.4,5.14-5.8,10.95-11.03,15.93-17.09h0Z"/>
  <path class="st9" d="M367.62,231.9c7.21-1.58,16.41-4.81,23.53-7.2-4.04-.14-15.02-.66-18.52-.3l.72,1.04c1.89,2.57-2.95,3.84-5.73,6.46Z"/>
  <path class="st6" d="M403.48,82.24c-.44-2.15-1-3.38-1.76-5.41-2.97,3.27-5.11,6.42-7.71,9.29.91,2.55.75,2.47,2.67,4.31,2.23-2.86,4.38-5.04,6.8-8.18h0Z"/>
  <path class="st6" d="M445.84,143.22l.92,3.07c9.5-1.91,23.21-2.47,4.92-7.14l-1.36,2.68c-.41,2.04-2.33,1.31-4.48,1.39h0Z"/>
  <path class="st6" d="M298.01,200.14c2.87-.97,4.21-3.58,5.32-6.27.32-.78.47-1.6.67-2.42-3.88,2.52-7.67,5.03-11.31,7.89-.24.18-.49.35-.72.54-1.44,1.16-1.68,1.36-2.04,3.11,2.7-.96,5.36-1.93,8.07-2.85h0Z"/>
  <path class="st9" d="M232.98,286.85c-.33-.18-.68-.35-1.02-.53-4.77-1.47-11.33-3.63-16.15-1.13-.32.17-.26.15-.49.4l-.03.2c.63.77,1.72.8,2.64.92,3.97.65,12.94,2.79,16.55,1.53.04-.02.09-.02.15-.03-.21-.71-1.06-1.05-1.65-1.36h0Z"/>
  <path class="st3" d="M245.41,202.88c-1.29-.62-2.59-1.22-3.9-1.81-.78,2.02-1.56,3.12-2.69,4.97-.57.66-1.14,1.32-1.72,1.97l1.44,1.12c1.17.12,2.33.26,3.51.42,1.15-1.39,1.99-2.53,3.37-3.72v-2.96h0Z"/>
  <path class="st9" d="M112.18,199.61c2.44-.12,2.43-.14,4.69.25-.6-3.32-2.03-7.62-3.11-11.14-.14.09-.29.18-.43.27-.46,3.41-1.17,7.61-1.15,10.63h0Z"/>
  <path class="st12" d="M113.33,188.98c.14-.09.28-.18.43-.27-.09-.3-.19-.61-.27-.9-.05.37-.1.77-.15,1.17h-.01Z"/>
  <path class="st6" d="M159.69,205.9c-.66.73-.86,1.65-1.07,2.59l-1.04,4.56c2,.71,3.56,1.35,5.49,2.18-.47-1.5-2.21-8.91-3.38-9.32h0Z"/>
  <path class="st6" d="M376.35,139.99c4.32,1.43,8.59,2.61,12.89,3.95l-2.37-3.49c-2.87-.45-7.59-.49-10.52-.46h0Z"/>
  <path class="st9" d="M320.95,182.04c-1.06-.2-4.39,2.1-5.53,2.72l1.87,3.34c.58-.72,4.23-5.33,3.67-6.06h-.01Z"/>
  <path class="st9" d="M356.81,295.17l.33,2.58c7.02-1.98,4.92-3.34-.33-2.58Z"/>
  <path class="st6" d="M385.72,108.25c-2.76,3.48,1.59,1.32,2.77.95l.28-4.72-3.04,3.77h0Z"/>
</svg>