<?xml version="1.0" encoding="UTF-8"?>
<svg id="Layer_1" xmlns="http://www.w3.org/2000/svg" xmlns:xlink="http://www.w3.org/1999/xlink" version="1.1" viewBox="0 0 500 500">
  <!-- Generator: Adobe Illustrator 30.3.0, SVG Export Plug-In . SVG Version: 2.1.3 Build 182)  -->
  <defs>
    <style>
      .st0 {
        fill: #579784;
      }

      .st1 {
        fill: #f7cfb3;
      }

      .st2 {
        fill: url(#linear-gradient2);
      }

      .st3 {
        fill: url(#linear-gradient1);
      }

      .st4 {
        fill: #197b6e;
      }

      .st5 {
        fill: #89bbb1;
      }

      .st6 {
        fill: #f58331;
      }

      .st7 {
        fill: #101616;
      }

      .st8 {
        fill: #e34f26;
      }

      .st9 {
        fill: url(#linear-gradient);
      }

      .st10 {
        fill: #201211;
      }

      .st11 {
        fill: #96c1b8;
      }

      .st12 {
        fill: #c6d6c8;
      }

      .st13 {
        fill: #562311;
      }

      .st14 {
        fill: #dadfcf;
      }

      .st15 {
        fill: #f47a37;
      }

      .st16 {
        fill: #191615;
      }

      .st17 {
        fill: #1a7d72;
      }

      .st18 {
        fill: #e25326;
      }

      .st19 {
        fill: #080808;
      }

      .st20 {
        fill: #e9e0ce;
      }

      .st21 {
        fill: #ec6129;
      }

      .st22 {
        fill: #112d29;
      }

      .st23 {
        fill: #56534e;
      }

      .st24 {
        fill: #f9e7bd;
      }

      .st25 {
        fill: #e4d8c3;
      }

      .st26 {
        fill: #f6e3cc;
      }
    </style>
    <linearGradient id="linear-gradient" x1="358.97" y1="107.55" x2="305.18" y2="172.48" gradientTransform="translate(0 502) scale(1 -1)" gradientUnits="userSpaceOnUse">
      <stop offset="0" stop-color="#f6882c"/>
      <stop offset="1" stop-color="#f4753c"/>
    </linearGradient>
    <linearGradient id="linear-gradient1" x1="358.11" y1="106.85" x2="304.33" y2="171.77" xlink:href="#linear-gradient"/>
    <linearGradient id="linear-gradient2" x1="344.62" y1="127.85" x2="338.44" y2="124.32" gradientTransform="translate(0 502) scale(1 -1)" gradientUnits="userSpaceOnUse">
      <stop offset="0" stop-color="#e03e26"/>
      <stop offset="1" stop-color="#eb6128"/>
    </linearGradient>
  </defs>
  <path class="st5" d="M447.81,347.5c-6.71,17.53-19.56,41.95-31.01,56.85-4.82,6.27-10.72,11.95-15.89,17.99-7.55,8.81-15.95,18.5-25.87,24.66-2.67,2.71-5.6,4.63-8.5,7.03-.86.71-1.67,1.09-2.64,1.59-.43.22-.77.5-1.16.79-30.4,21.06-59.4,30.26-96.02,33.18-23.18,1.84-44.2.84-67.15-3.32-6.54-1.18-12.93-3.12-19.23-5.22-5.92-3.73-14.78-6.22-21.33-9.16-27.09-12.16-51.13-25.87-68.53-50.7-9.76,10.22-16.36,22.42-25.46,33.07,2.51-15.57,8.28-32.91,13.81-47.69l-5.49-6.94c-2.42-3.57-4.46-7.47-7.15-10.82-10.21-18.73-17.81-37.38-22.32-58.24-11.09-51.34,2.73-109.94,30.97-153.75,4.07-5.88,12.61-14.75,15.53-20.31,5.62-6.55,11.86-14.65,18.57-20.01.56-.44,1.18-.84,1.7-1.34.31-.3.61-.61.91-.91,24.2-20.62,59.47-37.46,89.41-47.89,1-.25,2-.5,3.02-.69,3.39-.6,6.51-.94,9.93-1.24,12.51-2.33,24.98-2.34,37.67-2.71,1.33-.16,2.39.03,3.72.14,4.35.36,8.76.13,13.17.53.83.07,1.67.08,2.5.11,2.9.14,5.78.9,8.71,1.13.95.07,1.82.3,2.74.46.84.16,1.64.2,2.49.3,1.21.15,4.05.62,4.84,1.75.22.32.43.64.64.97.41-1.53.47-3.08.87-4.63.47-1.48.81-2.85,1.16-4.38.2-.89.48-1.76.71-2.64.54-2.01.86-4.01,1.19-6.07.14-.88.33-1.74.48-2.62.41-2.33.89-4.6,1.38-6.92-4.42-2.43-9.26-4.89-10.87-10.05-.67-2.16-.52-3.99.16-6.09.19-.58.34-1.22.03-1.79-.54-.97-1.83-1.33-2.77-1.75-1.81-.82-3.04-1.92-3.75-3.79-1.04-2.72-.82-5.73.41-8.34,1.43-3.05,3.18-5.13,6.25-6.47.45-.19.6-.43.72-.9.18-.7.15-1.45.22-2.17.37-3.85,1.95-7.75,4.97-10.26,2.17-1.79,4.86-2.95,7.69-2.62,2.72.32,5.84,1.51,7.46,3.85.75,1.08,1.25,2.3,1.8,3.48.36.75.75,1.37,1.42,1.87.87.12,2.11-.54,2.8-.78,2.09-.74,5.3-.75,7.28.3,2.14,1.14,3.59,2.64,4.18,5.02.29,1.16.21,2.32.2,3.51,0,.84.13,1.64.71,2.28,4,4.36,9.55,3.38,9.9,11.18.34,7.66-2.6,11.82-6.76,18.06-7.68,11.55-12.95,24.43-19.78,36.43.48.14.97.29,1.45.43.25.07.49.12.74.19,1.37.39,2.35,1.03,3.55,1.77.95.59,2.04.55,3.13.68,1.9.23,3.86.92,5.66,1.57,1.56-1.69,3.16-3.33,4.65-5.08.65-.76.75-.94,1.47-1.49,2.75-3.68,5.63-7.19,8.62-10.69-2.07-5.41-4.52-12.13-1.97-17.81,2.58-5.74,8.94-8.18,14.32-10.56,1.09-3.73,2.26-10.31,5.83-12.44,3.7-2.21,9.61-.35,13.7-1.64,7.2-2.27,8.94-8.05,18.13-3.75,2.65,1.24,4.54,3.52,5.4,6.31,1.26,4.04.82,9.56-1.26,13.27-1.06,1.9-2.66,3.68-4.09,5.32,2.34,3.96,5.04,8.29,3.7,13.1-1.8,6.45-11.95,10.29-10.59,16.32,1.83,1.34,2.87,1.2,5.05,1.47,3.53-1.12,4.14-4.14,7.06-5.76,4.37-2.43,23.12,3.95,28.02,6.24,2.23,1.04,4.26,3.45,4.82,5.92.51,2.26-.3,4.19-1.68,5.96-2.67,3.43-6.69,4.71-9.62,7.61-3.65,3.61-1.11,8.99-8.2,9.98-3.2.45-7.86-2.01-10.36-.1-.92,3.77-1.49,8.21-4.94,10.55-2.31,1.57-5.53,1.63-8.23,1.64,16.54,17.64,35.02,36.31,47.44,57.19,3.77,6.33,6.09,13.07,9.44,19.58.14.48.29.96.42,1.44.09.33.16.67.25,1,.9,3.3,2.46,6.55,3.47,9.88.12.41.6,1.58.71,1.86,16.88,38.1,18.2,87.76,3.29,126.75Z"/>
  <path class="st24" d="M442.7,220.89c-.33.11-.88.34-1.27.42-.58.1-1.34-.5-1.73-.85-.89-.83-1.52-1.95-1.57-3.17-.04-.9.01-1.89-.2-2.77-.43-1.84-.42-2.3.4-4.12.33-.72.7-1.4.91-2.18l.43-1.64c-3.35-6.51-5.68-13.24-9.44-19.58-12.42-20.88-30.9-39.56-47.44-57.19-6.94-4.74-13.64-9.84-21.2-13.57-12.72,9.82-61.1,39.9-67.12,51.5.65,12.77,8.56,19.4,3.81,34.65,1.28,8.09-6.03,23.49-10.71,30.23-9.15,13.17-22.29,24.82-33.92,35.82-22.34,21.14-44.28,40.12-67.2,60.46-15.73,13.96-31.82,27.7-46.96,42.3-10.92,10.53-21.28,21.68-32.1,32.32-3.77,4.48-7.87,8.66-12.27,12.5-1.5,1.78-3,3.52-4.64,5.18,17.41,24.83,41.45,38.54,68.53,50.7,6.55,2.94,15.42,5.43,21.33,9.16.09-.5.2-1,.29-1.51.06-.37.04-.73.09-1.1.05-.42.2-1.08.62-1.3.35-.19.94.18,1.18.28.15.32.49.78.34,1.19-.24.66-.8.97-1.33,1.38-.41.33-.8.69-1.19,1.04,6.3,2.11,12.69,4.04,19.23,5.22,22.95,4.17,43.97,5.17,67.15,3.32,36.62-2.91,65.62-12.12,96.02-33.18-.38-.44-.79-.85-1.11-1.33-.18-.27-.34-.55-.53-.82-.33-.49-.17-.43-.48-.48-.04.03-.08.07-.12.12-.17.22-.3.48-.47.7-.19.24-.43.38-.75.37-.36-.02-.72-.35-.95-.59-.36-.38-.71-.94-1.23-1.12-.54-.19-1.61.17-1.99.58-.44.48-.38,1.19-.24,1.78.13.54.39,1.21.2,1.77-.11.32-.36.51-.67.64-.49.18-.77.14-1.25-.08-.94-.43-2.03-1.16-3.12-1.11-.68.03-.6.13-1.13.04-.68-.11-1.39-.52-1.79-1.09.03-.15.04-.3.09-.44.24-.62,1.01-.9,1.59-1.04.93-.23,1.71-.33,2.52-.84.53-.34,1.03-.72,1.58-1.02,2.84-1.58,4.88-5.66,7.76-6.56.15.05.3.11.37.27.44.95-.34,2.85-.71,3.7-.09.19-.19.37-.28.56.16.49.07.56.6.76.21.08.44.08.66.14.35.1.59.48.76.78.33.6.48,1.2,1.24,1.37.91.2,3.07-1.29,3.71-1.79.35-.27.68-.57,1.05-.82.5-.34,1.03-.65,1.53-.99.92-.64,1.68-1.17,2.71-1.61.64-.26,1.28-.52,1.9-.83l.83-.43c9.93-6.16,18.33-15.85,25.87-24.66,5.17-6.04,11.07-11.71,15.89-17.99,11.45-14.9,24.3-39.31,31.01-56.85,14.92-38.99,13.6-88.66-3.29-126.75-.71,0-1.2-.07-1.82.14ZM388.7,178.48c.15-.02.15.02.26.1.08.23.08.17.08.46,0,.1-.02.2-.03.3-.01.25-.02.51-.02.77,0,0-.74.22-.94.11-.2-.11-.23-.29-.26-.5,0-.08,0-.17-.01-.24-.02-.21-.05-.42-.07-.63.08-.03.7-.35.99-.37ZM380.15,157.13c.15-.27.32-.52.46-.8.25-.53.47-1.07.7-1.61.62.6,1.65,1.38,1.98,2.23.09.22.11.5-.03.71-.22.32-.88.42-1.13.5-.12.05-.25.1-.37.15-.33.15-1.33.75-1.88.58-.14-.03-.25-.12-.27-.27-.06-.47.34-1.12.54-1.49ZM296.2,480.1c-.54,0-.88-.46-1.22-.81.1.03.2.06.3.1.96.36.98.32,1.94-.06-.28.37-.51.77-1.03.77ZM302.66,455.25c.34.07.14,0,.56.26-.45-.16-.28-.05-.56-.26ZM326.59,469.48c-.11,0-1.19.02-1.53-.18.28-.33,1.36-.62,1.52-.68.23.11.57.21.67.45-.31.28-.1.12-.66.41ZM325.72,450.89c.22-.19.78-.81,1.2-.9.13.37-.19,1.1-.25,1.31-.2.22-.5.69-.86.77-.2-.31-.09-.89-.09-1.18ZM367.51,404.81c-2.31,2.34-5.12,4.19-8.05,5.64-1.13.3-.63.11-1.76.65-10.68,5.06-21.19,5.72-32.82,4.32-11.36-1.36-21.99-6.2-29.18-15.32-1.74.4-3.4.84-5.09,1.42,2.26,3.89,3.77,7.28,5.22,11.56.22.64.46,1.26.68,1.9,1.03,2.81,1.61,5.09,1.79,8.08.25,4.44.13,8.71-.74,13.08-.09.43-.16.86-.25,1.29-1.08,4.99-2.99,9.15-6.69,12.71-.98.95-1.72,1.95-2.54,3.04-1.13,1.51-2.07,1.83-3.75,2.56-1.48.64-2.21,1.45-3.32,2.6-.95.98-1.82,1.26-3.12,1.78-.16.2-.31.43-.49.62-.35.38-.81.38-1.28.31-3.87-.53-11.05,4.69-16.06,5.27-2.94.35-5.3.57-8.27.46-6.03-.24-12.37-1.81-17.6-4.93-12.31-7.32-19.75-14.24-25.42-27.92-.38-.93-.74-1.87-1.12-2.79-7.35,1.77-15.37-.19-21.68-4.13-8.31-5.18-13.38-11.01-15.47-20.76-.04-.18-.06-.37-.1-.55l-.33-1.6c-3.23-10.9-2.7-22.74,2.64-32.88,5.22-9.93,15.11-17.4,25.78-20.68,11.66-3.58,24.13-1.13,34.65,4.63,9.71,5.31,17.43,14.75,20.56,25.4,12.71,3.16,27.11,6.9,35.09,18.31l2.3-1.9c-4.56-5.03-8.05-10.48-9.57-17.17-2.22-9.73-.29-19.14,5.07-27.44.78-7.7,6.53-15.98,12.42-20.66,9.77-7.75,23.64-11.64,35.99-9.85,13.78,1.99,25.55,10.02,33.46,21.26,5.72,8.14,10.63,22.62,9.2,32.84-.04.32-.14.63-.21.95-.04,6.09-.48,12.54-1.04,18.6-2.77,3.49-5.83,6.16-8.93,9.29ZM379.97,430.58c-.61.52-1.15,1.12-1.73,1.68-1.55,1.49-2.96,2.1-4.92,2.95.06.26.13.52.17.78.07.56-.41,1.1-.76,1.46-.84.86-1.81,1.21-2.98,1.26.12-.3.2-.59.38-.85.07-.1.16-.2.24-.3.95-1.24,1.38-1.98,2.95-2.36,2.78-4.4,6.59-7.24,10.95-9.96-1.36,2.61-2.08,3.44-4.31,5.33ZM394.43,418.76c-.3-.12-.15-.02-.39-.37.15-.03.3-.08.46-.1.25-.03.34.1.51.26-.45.19-.25.13-.58.21ZM406.42,361.56c-.16.27-.31.55-.46.82-.21-.1-.58-.18-.67-.44-.2-.58.78-1.78.97-2.1.27.19.5.26.63.55.09.2-.08.59-.19.77-.09.14-.2.27-.29.41ZM406.98,366.53c-.17-.29-.07-.09-.18-.64.4-.07.24-.1.47-.03.25.3.1.08.28.73-.49,0-.31.06-.57-.07ZM400.29,256.98c1.38,2.04,2.35,3.34,2.47,5.89-3.64,7.44-9.24.37-13.78,2.85.08,1.88.09,3.72.04,5.6l-1.3,1.03c-7.11.08-13.35-4.9-19.21-8.43-4.33.37-8.41.8-12.63,1.91,1.81,1.15,2.66,1.31,4.84,1.62.85.12,1.7.32,2.54.5,2.21.92,3.51,1.59,5.27,3.3l.09,1.71c.09,1.49.23,2.37,1.09,3.63,2.29,1.39,4.39,2.41,5.19,5.26.26.91.18,1.27.13,2.12-1.6,1.56-2.65,2.05-4.95,2.09-3.08.04-6.38-.55-9.46-.91-.57,2.61-.33,3.32-2.54,4.97-7.98.32-17.78-8.69-24.72-12.49-4.71.77-9.7,1.13-14.02,3.27,1.07.65,5.05,1,5.06,1.11.05.41-.04.74-.31,1.05-.86.98-2.47.79-3.61.77-.51,0-.51,0-.98.08-.05.22-.07.13-.04.25.36.36,1.97.26,2.39.25.44,0,.87-.03,1.31-.04,1.73-.03,3.36.16,5.07.4,1.39,1.34,1.99,1.96,2.36,3.88-.82,1.1-1.52,2.18-2.19,3.38,3.46,1.16,6.73,1.84,8.92,4.87-.07,2.34-.1,2.52-1.5,4.39-3.19,1.28-6.73.57-10.07.26.18,2.31.47,3.85-.87,5.89-6.16,2.25-19.04-6.86-25.13-9.07-3.23-1.17-6.96-1.32-10.36-1.59-10.43,5.28-26.92,19.67-36.59,22.08l-.76-.84c5.97-12.75,30.96-20.16,36.87-28.78,5.4-7.87-1.46-16.76-2.4-24.66-.24-1.98.07-2.26,1.2-3.77,2.65-.3,3.31.44,5.59,1.71.71-2.76.82-5.47,3.45-7.15,1.86-1.18,2.96-.91,4.88-.41,1.37,1.34,1.49,2.23,1.75,4.05.21,1.51.41,2.88.89,4.32.6,1.82.79,1.49,2.39,2.28.68,6.2-8.99,14.49-11.72,21.13l-.54,1.31c5.03-2.93,10.1-5.79,15.22-8.57,2.09-8.49,1.5-15.98,1.91-24.57.12-2.62.45-4.13,2.39-5.91,1.56.33,2.56.49,4.17.41,1.4-2.32,2.86-5.25,5.35-6.54,1.91-.99,3.33-.69,5.18.08,2.12,4.03-1.26,7.75-.44,11.22.57,2.38,2.5,2.3,2.63,5.65-1.67,4.12-6.95,8.1-10.04,11.45l1.53,2.97c4.61-2.64,9.23-4.73,14.14-6.74,2.14-9.58,1.64-18.41,2.04-28.07.16-3.92.35-8.39,3.38-11.16,2.22,1.46,2.68,3.23,3.86,5.58.97-4.3,1.93-11.52,6.06-13.94,1.74-1.03,3.17-.91,5.02-.41,2.01,2.62,1.59,5.1,2.69,8.15,1.9-.62,3.32-1.13,5.35-1.06,1.78,1.23,2.84,2.91,3.24,5.06.95,5.12-6.73,10.54-9.43,14.54.61,1.74.99,3.35,1.29,5.17-1.54,5.29-6.29,7.78-10.57,10.74l12.56-3.67c3.96-6.11,10.13-15.52,16.56-19.06,2.12-1.17,3.18-1.11,5.48-.58,2.11,2.45,1.64,3.69,1.74,6.86.76-.19,1.52-.37,2.29-.53,5.46-1.17,14.45-3.51,19.26.11,1.13.85.97,1.7,1.23,2.98-1.59,6.15-4.2,5.19-8.21,8.79ZM435.3,333.55c-.12-.04-.24-.1-.36-.16-.19-.27-.1-.1-.21-.52.4-.09.25-.12.47-.04.18.3.08.08.1.72ZM435.26,231.59c.33-.23,1.71-.48,1.72-.49.17-.03.89-.21,1.08-.16-.2.26-.94.6-1.06.68-.58,0-1.19.15-1.74-.03ZM437.48,351.76c-.07.08-.76,1.04-1.16,1.17-.05-.3-.06-.18.05-.58.04-.13.08-.25.12-.38l.28-.98c.26-.05.6-.19.86-.1.09.31-.06.55-.15.87ZM438.56,330.95c-.42-.03-1.1.05-1.46-.31-.95-1-.72-3.31-.75-4.46.3.39.6.77.9,1.17.86,1.16,1.55,2.15,1.32,3.6ZM442.44,304.18c-.31-.16-.15-.04-.43-.4.5-.04.5,0,.92.33-.16.03-.33.05-.49.07Z"/>
  <path class="st24" d="M158.91,251.73c13.6-23.66,27.4-49.33,44.93-70.31,6.83-8.17,14.51-15.47,23.6-21.09,13.9-8.59,25.53-11.18,41.64-7.3,1.08-2.26,1.85-4.57,2.74-6.91.95-2.51,1.97-5.08,2.74-7.65,4.1-13.75,9.42-26.99,13.05-40.95-.24-.3-.44-.63-.74-.85-.54-.4-1.35-.37-1.96-.17-.37.12-1.2.56-1.68.49-.39-.05-.49-.2-.67-.57-.19-.42-.13-.92.08-1.31.43-.81,1.85-1.57,2.73-1.71.94-.15,1.35-.07,2.12-.5.02-1.01-.53-1.67-1.15-2.43-.12-.15-.26-.26-.37-.41-.42-.55-.63-1.11-.55-1.79.41-.28.23-.25.76-.22.57.04,1.15.17,1.7-.05.51-.21.4-.22.59-.73-.25-.61-.43-.84-.96-1.24-1.01-.13-2.46.02-3.38.53-.73.41-.9.98-1.09,1.76-.06.26-.09.52-.17.77-.08.29-.34.53-.62.64-.77.3-1.95.09-2.68-.27-1.11-.55-1.77-1.68-2.15-2.82-.27-.83-.49-1.13-1.21-1.71-1.3-1.04-2.78-.85-4.37-.69-1.54.17-2.85.43-4.33-.17-.94-.37-1.59-.7-2.64-.69-.58,0-1.17.04-1.75.04-1.4,0-3.02-.17-4.38.31-.7.25,1.47,5.65.44,7.54-.29.54-.68.79-1.25.95-.62-.22-1.01-1.09-1.31-1.58-.41-.7-.75-1.41-1.26-2.04-1.82-2.2-11.31-1.24-14.05-1.51-.55-.05-1.12-.28-1.66-.16-.5.11-.74.42-.92.87-.48,1.18.05.49-.92,1.42-.17-.02-.09,0-.32-.23-.48-.48-1.03-1.3-1.76-1.38-1.5-.19-5.88-.43-6.96.38-.16.13-.31.27-.47.41-.01-.05-.03-.1-.03-.16,0-.32.09-.57.3-.82.56-.66,1.52-.77,2.33-.77,1.32,0,2.65,0,3.95-.25,1.66-.33,3.11-.48,4.78-.68,2.71-.32,5.55-.71,8.28-.74,1.08,0,2.44.16,3.49-.24.52-.19.92-.56,1.05-1.11.08-.35-.01-.74-.21-1.04-.21-.32-.45-.64-.67-.95-12.69.37-25.16.38-37.67,2.71-.16.32-.33.64-.49.97-.15.31-.19.68,0,.99.32.52,1.15.6,1.65.74.49.14.97.33,1.2.83.17.37.14.62.05,1-.43.34-.52.24-1.04.23-2.89-.09-5.76.72-8.71.77-.46,0-.91.03-1.37.04-.44,0-1.09.04-1.4-.35-.24-.3-.55-1.4-.58-1.47-.42-1.08-.94-1.17-1.95-1.66-.1-.05-.2-.1-.31-.16-29.94,10.43-65.2,27.27-89.41,47.89.15.37.3.74.45,1.11.24.56.22.39.69,1.04.06.08.1.17.15.25.05.08.12.14.16.22.54,1.09.72,3.6.21,4.76-.34.79-1.11,1.37-1.9,1.65-.51.18-1.18.35-1.72.3l-.22-.23c-.4-.07-.9.14-1.23.37-.62.42-.89,1.13-.96,1.84l-.1,1.19c-.01.12-.03.25-.04.38-.49,2.11-.89,2.45-2.34,4.18-.53.64-.93,1.32-1.38,2-.39.57-.84,1.02-1.29,1.53-.5.57-.94,1.19-1.41,1.78-1.17,1.48-2.52,2.85-3.78,4.26-.55.62-.94,1.3-1.41,1.98-.68.98-1.45,1.41-2.39,2.12-.52.4-.73.77-1.11,1.32-.48.68-1,1.14-1.6,1.73-.81.8-1.18,1.63-1.14,2.78.04,1.44,2.34,3.45,1.66,4.52-.15.24-.22.21-.49.3-.64-.19-.9-.59-1.37-1.07-.39-.38-.25-.27-.75-.5l-.48.06-.41.61c.16.67.42,1.06.72,1.71.2.44.16.37.17.8l-.06.09c-.27.03-.5-.22-.72-.37-.15-.1-.26-.25-.4-.37-.39-.34-.88-.66-1.42-.66-.75,0-1.74.47-2.24,1-.25.27-.38.48-.37.84.03.98,1.58,2,1.11,2.91-.07.13-.13.12-.24.15-.18-.09-.35-.18-.53-.26-.29-.1-1.09-.18-1.25-.21-.3-.05-.76-.11-1-.35-.15-.16-.18-.3-.15-.51.06-.48.59-1.22.76-1.54.39-.76.78-1.97.53-2.82-.17-.57-.48-.84-1.01-1.05-.97-.4-2.02-.37-2.92.18-.69.42-1.27.95-1.91,1.44-.52.39-1.05.75-1.58,1.12-28.24,43.81-42.07,102.42-30.97,153.75,4.51,20.86,12.11,39.5,22.32,58.24.22-.44.46-.85.67-1.29.16-.35.29-.7.45-1.04.22-.47.6-1.2,1.12-1.43.25-.1.5-.1.73.04.78.48,1.07,1.98,1.19,2.8.06.44.01,1.65.37,1.94,1.6,1.3,1.92,1.53,2.55,3.53.13.42.4.79.6,1.19.5,1.01-.48,3.81-.52,5.07l5.49,6.94c15.57-32.76,30.69-65.87,47.63-97.96,10.2-19.33,21.58-37.93,32.46-56.86ZM247.16,114.13c-.13.03-.79.3-1.09.23l-.02-.04c.2-.35.5-.63.77-.92.43-.05.26-.09.52,0,.06.33.04.09-.18.72ZM250.53,107.19c-.3.03-.6.17-.9.05.08-.37,0-.14.39-.64.78-.14.47-.13.92-.11l.04.04c-.16.38-.04.15-.45.66ZM248.77,96.31c.79,0,1.64-.14,2.42,0,.08.02.15.06.23.08.02,0,.05,0,.07,0-.54.26-.23.12-.96.36-.42.34-.84.66-1.24,1.02-.59.52-1.09,1.04-1.8,1.42-.5.26-1.11.43-1.65.18-.55-.24-.89-.84-1.12-1.36-.07-.16-.12-.31-.19-.47l-.56-1.34c1.6.05,3.21.12,4.81.1ZM212.46,96.75c.02-.11.05-.23.06-.34.03-.3.05-.61.07-.9.19-.07.78-.33,1.13-.32.16,0,.15.04.25.16.04.36.06.26-.05.66-.04.13-.09.25-.13.38-.09.34-.17.68-.25,1.02-.14.03-.56.17-.81.13-.14-.02-.14-.07-.24-.19-.07-.31-.08-.23-.03-.59ZM210.41,116.58c.13-.08.15-.06.26-.04.23.37.14.8.16,1.23-.11-.02-.23-.02-.34-.04-.38-.08-.49-.44-.66-.74.2-.14.38-.28.59-.4ZM177.84,107.09c.23-.03.37.26.48.39h-.4c-.27-.13-.13-.03-.4-.32.1-.03.21-.05.31-.07ZM163.81,147.92c.28.2.73.37.86.74-.15.55-.57.97-.98,1.35-1.93,1.79-3.66,3.85-5.64,5.57-.19.17-.39.31-.59.48l-1.15.99c-.23-.15-.47-.29-.69-.45-.15-.1-.22-.27-.2-.45.26-2.68,6.35-6.8,8.4-8.22ZM151.44,146.6c.19.3.08.08.12.74-.12-.05-.24-.11-.36-.17-.19-.28-.1-.11-.21-.55.38-.07.24-.1.45-.03ZM48.97,326.05c-.76-.5-1.2-1.3-1.38-2.18-.15-.72-.24-1.46-.41-2.18-.56-2.36-.55-3.89.03-6.35.15-.64.53-1.65.48-2.36-.04-.52-.11-1.04-.16-1.56.4.06,1.59.17,2.02.46.34.23.28.3.39.68-.17.51-.07.44-.47.79-.68.59-.5.22-.67.65.12.78.24,1.53.24,2.32,0,.72-.05,1.37.09,2.09.14.67.34,1.32.46,1.99.36,1.89.7,3.78.96,5.67-.51.07-1.1.28-1.57-.03ZM53.96,229.7c-.13.05-.19,0-.32-.05-.25-.32-.09-.1-.38-.75.45-.19.64-.39,1.07-.28.28.31.12.1.41.65-.26.15-.51.31-.79.43ZM91.97,188.96c-.22-.33-.12-.12-.26-.64.33-.05.21-.09.39,0,.23.34.1.1.23.8-.12-.04-.24-.1-.36-.15ZM103.79,169.52c-.49,1.12-.92,2.17-1.33,3.32-.38-.45-.8-.87-1.1-1.37-.48-.8-.31-1.79,0-2.62.38-1.04.76-2.05,1.1-3.11.4.3,1.26.81,1.57,1.37.42.78.1,1.65-.22,2.4ZM117.42,155.87c-.1-.3-.05-.1-.04-.63.32-.05.2-.09.38,0,.19.33.08.1.15.77-.37-.04-.22,0-.48-.13ZM125.08,133.55c-.24.21-.92.67-1.04,1.05-.05.18.07.39.17.5.31.37.93.72,1.02,1.26.05.3-.09.76-.32.97-.19.18-.35.13-.62.15-.12-.08-.28-.17-.38-.3-.31-.44-.8-1.37-1.43-1.55-.22-.06-.41-.03-.58.11-.21.18-.41.37-.61.57-.89.47-3.22,1.85-4.46,1.54-.34-.08-.53-.23-.71-.51-.44-.67-.13-2.02-.03-2.71.12-.04.25-.03.38-.04,2.12-.06,3.62-.68,5.24-2.09.73-.63,1.45-1.28,2.18-1.9.47.13,1.22.27,1.66.58.3.21.53.5.52.9-.02.55-.62,1.12-1,1.46Z"/>
  <path class="st25" d="M78.32,174.23c.9-.55,1.95-.58,2.92-.18.53.22.85.49,1.01,1.05.25.85-.14,2.06-.53,2.82-.17.32-.69,1.06-.76,1.54-.03.22,0,.36.15.51.23.23.69.3,1,.35.16.03.96.1,1.25.21.18.08.35.17.53.26.11-.03.17-.02.24-.15.48-.9-1.08-1.92-1.11-2.91-.01-.36.12-.57.37-.84.5-.53,1.49-1,2.24-1,.53,0,1.03.32,1.42.66.14.12.25.27.4.37.22.15.45.4.72.37l.06-.09c-.01-.44.03-.36-.17-.8-.3-.65-.56-1.04-.72-1.71l.41-.61.48-.06c.5.23.37.12.75.5.47.48.73.88,1.37,1.07.27-.09.34-.05.49-.3.67-1.07-1.62-3.07-1.66-4.52-.03-1.16.33-1.98,1.14-2.78.6-.59,1.12-1.05,1.6-1.73.38-.55.59-.92,1.11-1.32.94-.71,1.71-1.14,2.39-2.12.47-.68.85-1.36,1.41-1.98,1.26-1.41,2.61-2.78,3.78-4.26.47-.59.9-1.22,1.41-1.78.46-.51.91-.96,1.29-1.53.46-.68.85-1.37,1.38-2,1.45-1.73,1.84-2.06,2.34-4.18-3.38,1.1-4.73,3.33-6.78,6.13-.71.97-6.32,7.77-6.98,7.67-.64-.1-1.18-.99-1.44-1.49-.26-.5-.46-1.02-.72-1.51-.24-.48-.51-.95-.76-1.42-2.92,5.56-11.46,14.43-15.53,20.31.53-.37,1.07-.73,1.58-1.12.64-.49,1.22-1.02,1.91-1.44Z"/>
  <path class="st26" d="M91.84,159.41c.26.5.8,1.39,1.44,1.49.66.1,6.26-6.71,6.98-7.67,2.05-2.79,3.41-5.03,6.78-6.13.01-.13.03-.26.04-.38l.1-1.19c.07-.71.34-1.43.96-1.84.33-.23.83-.44,1.23-.37l.22.23c.54.05,1.21-.11,1.72-.3.8-.28,1.56-.86,1.9-1.65.5-1.16.33-3.67-.21-4.76-.04-.08-.11-.14-.16-.22-.05-.08-.09-.17-.15-.25-.47-.65-.45-.49-.69-1.04-.16-.37-.3-.73-.45-1.11-.3.3-.6.62-.91.91-.52.5-1.14.9-1.7,1.34-6.71,5.36-12.95,13.46-18.57,20.01.25.47.52.94.76,1.42.25.5.46,1.02.72,1.51Z"/>
  <path class="st25" d="M252.45,83.67c-.13.56-.53.92-1.05,1.11-1.05.4-2.41.23-3.49.24-2.73.03-5.57.42-8.28.74-1.68.2-3.12.35-4.78.68-1.3.26-2.63.24-3.95.25-.81,0-1.77.1-2.33.77-.21.24-.3.5-.3.82,0,.05.02.1.03.16.15-.14.3-.28.47-.41,1.08-.81,5.45-.57,6.96-.38.73.09,1.28.9,1.76,1.38.23.23.16.22.32.23.97-.93.43-.23.92-1.42.18-.45.43-.76.92-.87.54-.12,1.1.1,1.66.16,2.74.26,12.23-.7,14.05,1.51.52.63.85,1.34,1.26,2.04.29.5.69,1.37,1.31,1.58.57-.16.96-.41,1.25-.95,1.03-1.9-1.14-7.29-.44-7.54,1.37-.49,2.98-.3,4.38-.31.58,0,1.17-.03,1.75-.04,1.05,0,1.7.31,2.64.69,1.48.59,2.79.33,4.33.17,1.59-.17,3.08-.35,4.37.69.71.57.93.88,1.21,1.71.38,1.14,1.03,2.27,2.15,2.82.73.36,1.91.57,2.68.27.28-.11.54-.36.62-.64.07-.25.1-.51.17-.77.19-.77.36-1.35,1.09-1.76.92-.51,2.37-.66,3.38-.53.52.41.7.64.96,1.24-.19.51-.08.52-.59.73-.55.23-1.13.1-1.7.05-.52-.03-.35-.06-.76.22-.08.68.13,1.24.55,1.79.11.15.25.26.37.41.62.76,1.17,1.42,1.15,2.43-.77.43-1.18.35-2.12.5-.88.13-2.3.9-2.73,1.71-.21.38-.27.89-.08,1.31.18.37.28.51.67.57.49.07,1.31-.37,1.68-.49.61-.2,1.42-.23,1.96.17.3.23.5.56.74.85,1.15-3.42,1.76-6.98,2.76-10.44-.21-.33-.42-.65-.64-.97-.78-1.13-3.62-1.6-4.84-1.75-.84-.1-1.64-.14-2.49-.3-.93-.17-1.8-.39-2.74-.46-2.93-.23-5.81-.99-8.71-1.13-.83-.03-1.67-.04-2.5-.11-4.41-.4-8.82-.17-13.17-.53-1.33-.1-2.38-.3-3.72-.14.22.31.46.63.67.95.2.3.29.69.21,1.04Z"/>
  <path class="st25" d="M203.2,88.14c.03.07.34,1.17.58,1.47.31.39.96.36,1.4.35.46,0,.91-.04,1.37-.04,2.95-.04,5.81-.85,8.71-.77.52.02.61.11,1.04-.23.09-.38.13-.63-.05-1-.23-.5-.71-.69-1.2-.83-.49-.14-1.33-.22-1.65-.74-.19-.31-.15-.68,0-.99.15-.33.32-.64.49-.97-3.42.3-6.54.64-9.93,1.24-1.02.18-2.01.44-3.02.69.1.05.2.1.31.16,1.01.5,1.53.58,1.95,1.66Z"/>
  <path class="st25" d="M73.85,394.54c-.2-.4-.46-.77-.6-1.19-.62-2-.94-2.24-2.55-3.53-.36-.29-.31-1.5-.37-1.94-.11-.83-.4-2.32-1.19-2.8-.23-.14-.48-.15-.73-.04-.52.23-.9.96-1.12,1.43-.16.34-.29.7-.45,1.04-.21.44-.45.85-.67,1.29,2.69,3.36,4.73,7.26,7.15,10.82.04-1.26,1.03-4.06.52-5.07Z"/>
  <path class="st25" d="M125.56,131.19c-.45-.31-1.19-.45-1.66-.58-.74.62-1.45,1.27-2.18,1.9-1.63,1.41-3.13,2.03-5.24,2.09-.13,0-.26,0-.38.04-.1.7-.41,2.04.03,2.71.19.29.37.44.71.51,1.24.31,3.57-1.07,4.46-1.54.2-.19.4-.38.61-.57.17-.15.36-.17.58-.11.62.17,1.11,1.11,1.43,1.55.09.13.26.22.38.3.27-.02.43.03.62-.15.22-.22.37-.67.32-.97-.09-.54-.71-.89-1.02-1.26-.1-.11-.22-.32-.17-.5.12-.38.8-.84,1.04-1.05.38-.34.98-.91,1-1.46.01-.39-.22-.69-.52-.9Z"/>
  <path class="st25" d="M49.11,318.42c-.14-.71-.09-1.37-.09-2.09,0-.79-.12-1.54-.24-2.32.18-.44,0-.06.67-.65.4-.35.3-.28.47-.79-.11-.38-.05-.45-.39-.68-.43-.3-1.62-.4-2.02-.46.05.52.12,1.04.16,1.56.05.7-.33,1.72-.48,2.36-.58,2.46-.59,3.99-.03,6.35.17.71.27,1.45.41,2.18.18.89.62,1.68,1.38,2.18.47.31,1.07.1,1.57.03-.26-1.9-.6-3.79-.96-5.67-.13-.67-.33-1.32-.46-1.99Z"/>
  <path class="st12" d="M156.3,157.05l1.15-.99c.19-.17.4-.31.59-.48,1.98-1.72,3.71-3.78,5.64-5.57.41-.38.84-.8.98-1.35-.13-.37-.58-.54-.86-.74-2.04,1.43-8.13,5.54-8.4,8.22-.02.18.05.35.2.45.22.17.46.3.69.45Z"/>
  <path class="st25" d="M244.71,98.02c.23.52.58,1.11,1.12,1.36.54.24,1.15.08,1.65-.18.72-.37,1.22-.9,1.8-1.42.4-.36.82-.68,1.24-1.02.73-.23.42-.1.96-.36-.03,0-.05,0-.07,0-.08-.02-.15-.06-.23-.08-.78-.15-1.63-.02-2.42,0-1.6.02-3.21-.05-4.81-.1l.56,1.34c.07.16.12.31.19.47Z"/>
  <path class="st25" d="M102.44,165.75c-.34,1.05-.72,2.06-1.1,3.11-.3.83-.48,1.82,0,2.62.3.5.73.92,1.1,1.37.42-1.16.84-2.2,1.33-3.32.33-.75.65-1.62.22-2.4-.3-.57-1.17-1.07-1.57-1.37Z"/>
  <path class="st25" d="M212.74,97.53c.25.03.66-.1.81-.13.08-.34.16-.68.25-1.02.03-.13.09-.25.13-.38.11-.4.09-.3.05-.66-.1-.11-.09-.15-.25-.16-.35,0-.94.25-1.13.32-.02.3-.04.6-.07.9-.01.11-.05.23-.06.34-.05.37-.04.28.03.59.1.12.1.17.24.19Z"/>
  <path class="st25" d="M250.02,106.6c-.38.5-.3.27-.39.64.29.12.59-.02.9-.05.41-.51.29-.28.45-.66l-.04-.04c-.45-.02-.14-.03-.92.11Z"/>
  <path class="st25" d="M53.27,228.9c.28.65.12.43.38.75.13.05.18.1.32.05.27-.11.53-.28.79-.43-.29-.55-.13-.34-.41-.65-.44-.11-.62.09-1.07.28Z"/>
  <path class="st12" d="M210.49,117.72c.11.03.23.03.34.04-.01-.43.07-.86-.16-1.23-.11-.02-.13-.03-.26.04-.2.12-.39.26-.59.4.17.3.29.66.66.74Z"/>
  <path class="st25" d="M246.83,113.4c-.27.3-.57.57-.77.92l.02.04c.3.06.96-.2,1.09-.23.22-.64.24-.39.18-.72-.26-.1-.09-.06-.52,0Z"/>
  <path class="st25" d="M117.38,155.25c0,.53-.06.33.04.63.26.14.11.09.48.13-.06-.67.05-.44-.15-.77-.17-.08-.05-.04-.38,0Z"/>
  <path class="st25" d="M151.56,147.34c-.04-.66.07-.44-.12-.74-.21-.08-.06-.04-.45.03.11.44.02.27.21.55.12.05.24.11.36.17Z"/>
  <path class="st25" d="M91.71,188.32c.14.52.03.31.26.64.12.04.24.1.36.15-.13-.7,0-.46-.23-.8-.18-.08-.06-.04-.39,0Z"/>
  <path class="st25" d="M177.93,107.49h.4c-.1-.14-.25-.43-.48-.4-.11.02-.21.04-.31.07.27.29.12.19.4.33Z"/>
  <path class="st8" d="M106.38,401.37c21.06-25.72,44.62-50.36,68.16-73.81,13.52-13.46,27.48-26.64,41.33-39.76,22.24-21.06,70.93-63.19,73.86-95.12,1.13-12.7-2.17-20.94-8.97-31.29-1.67-1.41-3.46-2.64-5.23-3.92l-1.62-.62c-.26-.23-.94-.87-1.33-1.13-1.4-.94-2.34-1.5-3.51-2.7-16.11-3.88-27.74-1.29-41.64,7.3-9.09,5.62-16.77,12.92-23.6,21.09-17.54,20.98-31.34,46.65-44.93,70.31-10.88,18.93-22.26,37.54-32.46,56.86-16.94,32.09-32.06,65.2-47.63,97.96-5.53,14.78-11.29,32.13-13.81,47.69,9.1-10.64,15.7-22.84,25.46-33.07,1.65-1.65,3.14-3.39,4.64-5.18,2.52-5.24,7.33-10.34,11.27-14.64ZM257.46,170.83c7.66,3.15,13.85,8.03,17.08,15.78-1.34-.72-2.35-1.36-3.46-2.44-3.9-3.78-14.73-10.57-16.55-14.2,1.05.26,1.95.46,2.93.86ZM214.83,201.18c9.28,3.37,16.8,10.35,20.86,19.34-5.51-2.54-10.6-9.12-15.96-12.66-4.61-3.05-9.62-4.3-14.33-6.9l-.78-.44c3.68-.56,6.65-.59,10.21.66ZM180.02,252.78c10.45,2.58,16.89,10.42,22.15,19.14-3.16-1.64-5-4.26-7.6-6.6-5.08-4.6-10.04-7.6-16.37-10.13-1.24-.5-2.49-.96-3.66-1.61-.51-.29-1-.59-1.5-.89,2.54-.35,4.44-.54,6.97.09ZM157.52,292.02c6,2.95,11.86,9.28,13.91,15.67-7.46-6.2-12.45-12.5-22.21-15.58-.7-.22-1.76-.42-2.43-.87-.83-.57-.81-.9-.99-1.86,4.23.06,7.92.77,11.72,2.65ZM133.91,319.73c5.97,1.04,10.22,5.62,13.47,10.34-1.15-.66-2.27-1.38-3.35-2.15-1.72-1.19-3.47-2.29-5.22-3.43-3.48-2.27-6.85-3.21-10.64-4.76,1.9-.1,3.85-.33,5.74,0ZM115.62,352.15c4.64,1.13,9.03,4.59,11.41,8.69.49.84.95,1.71,1.44,2.55-3.27-1.6-5.55-4.25-8.59-6.2-2.93-1.88-6.12-3.25-9.09-5.03l-.75-.46c1.88.06,3.75,0,5.59.44ZM99.79,389.03c2.58,1.74,3.83,3.38,4.45,6.38-1.2-.64-1.96-1.02-2.91-1.97-.95-.96-1.82-1.98-2.94-2.74-.45-.3-.94-.55-1.38-.87-1.05-.75-.99-1.1-1.2-2.4,1.48.41,2.69.74,3.98,1.6Z"/>
  <path class="st19" d="M295.22,192.65c-2.64-1.17-2.69-.89-5.48.03-2.93,31.93-51.62,74.07-73.86,95.12-13.86,13.12-27.81,26.3-41.33,39.76-23.54,23.44-47.1,48.08-68.16,73.81l1,2.13c10.82-10.64,21.19-21.79,32.1-32.32,15.14-14.6,31.23-28.34,46.96-42.3,22.92-20.34,44.86-39.31,67.2-60.46,11.63-11,24.76-22.65,33.92-35.82,4.68-6.74,11.99-22.14,10.71-30.23-4.13-2.58-1.19-5.91-3.06-9.73ZM212.84,300.94c-.35.08-.89.31-1.28.15l-.03-.14c.4-.6,1.02-.9,1.62-1.31.29-.07.79-.3,1.15-.18l.03.07c-.21.52-1.19,1.18-1.48,1.42ZM251.82,265.46c-.69-.39-.45-.14-1.11-.59-.31-.22-.7-.54-.71-.96-.02-.59.74-1.23,1.03-1.56.22-.05.44-.11.67-.15.1-.02.15.07.21.12-.02.22-.03.17.08.44.11.26.25.51.35.78.27.72.5,1.46.8,2.18l.47,1.09c-.59-.46-1.14-.98-1.8-1.36Z"/>
  <path class="st16" d="M252.35,263.54c-.1-.27-.24-.52-.35-.78-.11-.27-.1-.22-.08-.44-.06-.05-.11-.14-.21-.12-.22.03-.44.1-.67.15-.29.33-1.06.97-1.03,1.56.02.42.4.74.71.96.66.45.42.2,1.11.59.65.37,1.21.9,1.8,1.36l-.47-1.09c-.3-.72-.53-1.46-.8-2.18Z"/>
  <path class="st23" d="M213.15,299.64c-.6.41-1.21.71-1.62,1.31l.03.14c.4.17.93-.07,1.28-.15.29-.23,1.27-.9,1.48-1.42l-.03-.07c-.35-.12-.86.11-1.15.18Z"/>
  <path class="st13" d="M95.12,416c4.4-3.85,8.5-8.02,12.27-12.5l-1-2.13c-3.94,4.3-8.75,9.4-11.27,14.64Z"/>
  <path class="st26" d="M219.73,207.86c5.36,3.54,10.45,10.12,15.96,12.66-4.06-9-11.58-15.98-20.86-19.34-3.56-1.25-6.53-1.22-10.21-.66l.78.44c4.71,2.6,9.72,3.85,14.33,6.9Z"/>
  <path class="st26" d="M178.21,255.19c6.33,2.53,11.29,5.53,16.37,10.13,2.59,2.35,4.43,4.96,7.6,6.6-5.26-8.72-11.7-16.56-22.15-19.14-2.53-.63-4.43-.44-6.97-.09.5.3,1,.6,1.5.89,1.16.65,2.42,1.11,3.66,1.61Z"/>
  <path class="st26" d="M146.78,291.24c.67.45,1.73.65,2.43.87,9.76,3.08,14.75,9.38,22.21,15.58-2.05-6.4-7.92-12.72-13.91-15.67-3.81-1.87-7.49-2.58-11.72-2.65.18.97.16,1.3.99,1.86Z"/>
  <path class="st1" d="M271.07,184.17c1.11,1.08,2.12,1.71,3.46,2.44-3.22-7.74-9.41-12.63-17.08-15.78-.98-.4-1.88-.6-2.93-.86,1.82,3.63,12.65,10.42,16.55,14.2Z"/>
  <path class="st26" d="M119.88,357.2c3.04,1.95,5.31,4.59,8.59,6.2-.48-.84-.95-1.71-1.44-2.55-2.38-4.11-6.77-7.56-11.41-8.69-1.84-.44-3.71-.38-5.59-.44l.75.46c2.98,1.78,6.17,3.15,9.09,5.03Z"/>
  <path class="st1" d="M144.03,327.92c1.08.77,2.2,1.49,3.35,2.15-3.25-4.72-7.51-9.3-13.47-10.34-1.89-.33-3.84-.1-5.74,0,3.8,1.55,7.16,2.49,10.64,4.76,1.75,1.14,3.5,2.24,5.22,3.43Z"/>
  <path class="st1" d="M97.02,389.83c.44.32.93.57,1.38.87,1.13.76,1.99,1.78,2.94,2.74.95.95,1.71,1.33,2.91,1.97-.62-2.99-1.88-4.64-4.45-6.38-1.29-.86-2.5-1.19-3.98-1.6.21,1.31.15,1.65,1.2,2.4Z"/>
  <path class="st4" d="M376.64,43.67c.54-.53,1.07-1.04,1.8-1.28l.23.04c.13.3.12.21-.01.77-.37,1.57-1.77,2.89-2.8,3.99-6.45,6.86-12.8,14.19-19.71,20.56-.72.66-1.4,1.36-2.11,2.03-5.86,5.54-17.78,15.01-21.03,22.02.77,1.75,1.6,3.47.83,5.39-.77,1.93-2.45,3.6-3.78,5.16-.88,1.04-1.95,1.83-2.98,2.71-3.35,2.89-6.11,6.28-9.55,9.14-.98.81-1.69,1.74-2.51,2.7-3.77,4.38-7.96,8.44-12.06,12.51,2.71-4.26,5.82-8.17,8.19-12.64-3.1,1.46-4.83,3.46-7.4,5.69-8.33,11.49-17.61,25.64-28.22,35.01,1.77,1.28,3.56,2.51,5.23,3.92l4.35-.96c2.38-6.8,10.68-13.15,15.47-18.4.31-.35.61-.7.92-1.06.8-.67,1.55-1.24,2.38-1.87.79-.61,1.55-1.28,2.43-1.78,3.36-1.91,3.9-4.79,6.41-7.43,3.76-3.96,8.26-7.27,11.99-11.11,4.82-4.95,9.2-10.29,14.16-15.16.32-.02.64-.02.96-.04,1.46-.11,2.72-1.15,3.88-1.92,6.26-4.21,11.26-6.59,19-5.43l.2.17c-.3,1.14-1.64,1.96-2.49,2.72-2.57,2.32-3.6,6.02-3.67,9.4-.05,2.03.05,4.06.08,6.09,10.46-5.85,31.75-15.13,43.75-15.63-3.84,3.14-9.43,3.56-14,5.38-8.67,3.44-17.02,7-24.99,11.87,7.57,3.72,14.26,8.82,21.2,13.57,2.69-.02,5.91-.07,8.23-1.64,3.46-2.34,4.03-6.79,4.94-10.55,2.5-1.91,7.16.55,10.36.1,7.09-.99,4.56-6.37,8.2-9.98,2.93-2.91,6.95-4.19,9.62-7.61,1.38-1.77,2.19-3.7,1.68-5.96-.56-2.47-2.59-4.87-4.82-5.92-4.9-2.29-23.65-8.67-28.02-6.24-2.92,1.62-3.53,4.64-7.06,5.76-2.18-.27-3.22-.13-5.05-1.47-1.37-6.04,8.79-9.88,10.59-16.32,1.34-4.8-1.36-9.14-3.7-13.1,1.43-1.64,3.03-3.42,4.09-5.32,2.08-3.71,2.52-9.23,1.26-13.27-.87-2.78-2.75-5.06-5.4-6.31-9.19-4.3-10.93,1.48-18.13,3.75-4.09,1.29-10-.57-13.7,1.64-3.57,2.13-4.74,8.71-5.83,12.44-5.39,2.38-11.75,4.82-14.32,10.56-2.55,5.68-.1,12.4,1.97,17.81-2.98,3.5-5.86,7-8.62,10.69,6.69-2.72,39.79-37.46,47.55-45.18ZM375.42,63.45c-.18,2.7-10.87,11.71-13.03,13.59-6.49,5.65-12.55,11.92-19.04,17.65-2.95,2.6-5.48,5.39-8.61,7.82-.18-.84-.33-1.29-.31-2.09.07-2.59,29.35-27.84,33.14-31,2.62-2.18,5.1-4.49,7.86-6.49,0,.17-.01.35-.02.52Z"/>
  <path class="st19" d="M400.59,98.98c-12,.5-33.28,9.78-43.75,15.63-2.05.78-3.31,1.43-5.14,2.64-.46.3-1.16.45-1.66.61-1.69.71-3.1,1.52-4.69,2.44-1.71.99-3.38,1.92-5.04,3.01-2.03,1.34-4.23,2.35-6.39,3.45-.4.2-.8.38-1.2.58-1.51.73-2.95,1.64-4.4,2.51-7.52,4.47-14.56,10.06-21.35,15.55-1.83,1.48-3.77,2.84-5.62,4.32-4.18,2.54-12.25,9.6-16.24,10.71l-4.35.96c6.8,10.35,10.09,18.6,8.97,31.29,2.79-.91,2.83-1.2,5.48-.03,1.87,3.82-1.06,7.15,3.06,9.73,4.75-15.25-3.16-21.88-3.81-34.65,6.02-11.61,54.4-41.69,67.12-51.5,7.97-4.86,16.32-8.43,24.99-11.87,4.58-1.82,10.16-2.24,14-5.38Z"/>
  <path class="st26" d="M301.93,147.79c-.21.64-.38,1.28-.56,1.93,1.84-1.49,3.79-2.85,5.62-4.32,6.79-5.49,13.83-11.08,21.35-15.55,1.44-.86,2.89-1.78,4.4-2.51.4-.2.8-.38,1.2-.58,2.16-1.11,4.36-2.11,6.39-3.45,1.66-1.09,3.32-2.02,5.04-3.01,1.59-.91,3-1.72,4.69-2.44,1.08-1.67,1.98-2.53,3.67-3.57.22-.13.46-.25.69-.38.1-.06.2-.13.3-.2-1.46-1.09-2.84-2.28-4.3-3.37-.46-.34-.94-.67-1.41-1.01-1.06-.79-1.98-1.58-3.18-2.14-1.32-.62-2.53-1.16-3.78-1.91-1.34-.82-1.69-1-3.14-1.65-4.97,4.87-9.34,10.21-14.16,15.16-3.74,3.85-8.23,7.15-11.99,11.11-2.51,2.65-3.05,5.53-6.41,7.43-.88.5-1.64,1.17-2.43,1.78-.83.64-1.58,1.2-2.38,1.87.24,2.34,1.16,4.55.41,6.82Z"/>
  <path class="st22" d="M312.22,106.46c-1.37,1.91-2.75,3.74-4.22,5.57-.17.22-.33.44-.5.65-.1,1.88-.51,2.8-1.25,4.59-.21.5-.39,1.02-.61,1.51-.28.64-.69,1.21-1.04,1.81-.35.58-.57,1.24-.84,1.86,2.57-2.23,4.3-4.23,7.4-5.69.28-.2.57-.39.8-.64,7.03-7.74,14.57-16.15,21.05-24.32,3.25-7.01,15.17-16.48,21.03-22.02.71-.67,1.39-1.37,2.11-2.03,6.91-6.37,13.26-13.7,19.71-20.56,1.04-1.1,2.44-2.42,2.8-3.99.13-.57.15-.47.01-.77l-.23-.04c-.74.23-1.26.75-1.8,1.28-7.76,7.72-40.86,42.45-47.55,45.18-.72.55-.82.73-1.47,1.49-1.49,1.75-3.09,3.39-4.65,5.08-2.91,3.01-7.27,9.07-10.75,11.05Z"/>
  <path class="st11" d="M345.8,107.19c1.2.57,2.12,1.35,3.18,2.14.47.34.95.67,1.41,1.01,1.46,1.09,2.84,2.28,4.3,3.37-.1.07-.2.14-.3.2-.23.13-.46.25-.69.38-1.69,1.04-2.59,1.9-3.67,3.57.51-.16,1.2-.31,1.66-.61,1.83-1.21,3.09-1.85,5.14-2.64-.02-2.03-.12-4.06-.08-6.09.08-3.38,1.1-7.07,3.67-9.4.85-.77,2.19-1.58,2.49-2.72l-.2-.17c-7.74-1.16-12.74,1.22-19,5.43-1.15.77-2.42,1.81-3.88,1.92-.32.03-.64.03-.96.04,1.45.65,1.79.84,3.14,1.65,1.24.76,2.46,1.3,3.78,1.91Z"/>
  <path class="st14" d="M315.02,116.9c.82-.96,1.53-1.89,2.51-2.7,3.44-2.85,6.21-6.25,9.55-9.14,1.02-.89,2.09-1.68,2.98-2.71,1.33-1.56,3.01-3.23,3.78-5.16.76-1.91-.06-3.64-.83-5.39-6.48,8.17-14.03,16.58-21.05,24.32-.23.25-.52.44-.8.64-2.38,4.47-5.48,8.39-8.19,12.64,4.09-4.07,8.28-8.14,12.06-12.51Z"/>
  <path class="st20" d="M301.93,147.79c.75-2.27-.17-4.48-.41-6.82-.31.36-.6.71-.92,1.06-4.79,5.26-13.09,11.6-15.47,18.4,3.99-1.11,12.06-8.17,16.24-10.71.18-.65.35-1.3.56-1.93Z"/>
  <path class="st22" d="M334.44,100.43c-.02.8.12,1.24.31,2.09,3.13-2.44,5.66-5.22,8.61-7.82,6.49-5.73,12.55-12,19.04-17.65,2.16-1.88,12.85-10.89,13.03-13.59.01-.17.02-.35.02-.52-2.76,2-5.24,4.32-7.86,6.49-3.79,3.16-33.07,28.41-33.14,31Z"/>
  <path class="st25" d="M372.31,448.25c-1.03.44-1.8.97-2.71,1.61-.5.34-1.02.65-1.53.99-.37.25-.7.55-1.05.82-.65.5-2.81,1.99-3.71,1.79-.76-.17-.91-.77-1.24-1.37-.17-.3-.4-.68-.76-.78-.21-.06-.45-.06-.66-.14-.54-.2-.45-.27-.6-.76.09-.18.2-.37.28-.56.37-.84,1.15-2.75.71-3.7-.07-.16-.23-.22-.37-.27-2.88.9-4.92,4.98-7.76,6.56-.55.3-1.05.68-1.58,1.02-.81.51-1.58.62-2.52.84-.59.14-1.36.43-1.59,1.04-.05.14-.06.29-.09.44.4.57,1.11.97,1.79,1.09.53.09.45-.02,1.13-.04,1.09-.04,2.17.69,3.12,1.11.48.22.76.26,1.25.08.31-.12.56-.31.67-.64.19-.56-.07-1.23-.2-1.77-.14-.58-.2-1.3.24-1.78.37-.41,1.44-.77,1.99-.58.52.18.87.74,1.23,1.12.23.24.58.57.95.59.32,0,.56-.13.75-.37.17-.23.3-.49.47-.7.03-.05.08-.09.12-.12.3.05.14,0,.48.48.18.27.35.55.53.82.32.48.74.9,1.11,1.33.39-.29.73-.57,1.16-.79.97-.5,1.78-.88,2.64-1.59,2.9-2.4,5.82-4.32,8.5-7.03l-.83.43c-.62.3-1.26.57-1.9.83Z"/>
  <path class="st25" d="M438.34,210.4c-.82,1.83-.83,2.28-.4,4.12.21.88.16,1.87.2,2.77.05,1.22.68,2.34,1.57,3.17.39.36,1.15.96,1.73.85.39-.08.94-.3,1.27-.42.62-.21,1.12-.14,1.82-.14-.11-.28-.59-1.45-.71-1.86-1.01-3.32-2.57-6.58-3.47-9.88-.09-.33-.16-.67-.25-1-.13-.49-.28-.97-.42-1.44l-.43,1.64c-.21.78-.58,1.46-.91,2.18Z"/>
  <path class="st25" d="M182.86,478.62c.15-.41-.19-.87-.34-1.19-.24-.1-.83-.47-1.18-.28-.42.22-.57.88-.62,1.3-.05.37-.03.73-.09,1.1-.09.5-.19,1-.29,1.51.39-.36.78-.71,1.19-1.04.53-.42,1.08-.72,1.33-1.38Z"/>
  <path class="st15" d="M253.72,380.57c-3.13-10.65-10.85-20.09-20.56-25.4-10.52-5.76-22.99-8.21-34.65-4.63-10.67,3.28-20.56,10.75-25.78,20.68-5.33,10.15-5.86,21.98-2.64,32.88.28-.17.62-.5.99-.37,1.1.38,1.88,1.64,2.53,2.49,4.31,5.67,8.74,8.68,15.32,11.35,6.16,2.48,10.59,4.05,17.25,3.05.6-.09,1.2-.13,1.8-.2,1.02-6.28,3.08-11.96,4.4-18.08-.23-.3-.69-1.23-1.27-1.34-.26.1-.21.05-.48.48-.25.41-.56,1.61-.62,1.81-.18.57-.56,1.4-1.17,1.63-.54.21-1.06,0-1.51-.3-.42-.3-.77-.78-1.09-1.15-.13-.37-.26-.75-.38-1.12-.14-.44-.18-.75-.42-1.13-.16-.24-.34-.44-.62-.51-.47.23-.71.36-1.05.76-.68.81-1.62,2.18-2.77,2.32-.85.11-1.58-.45-2.14-1.03-.3-.31-.42-.55-.35-1,.06-.45.38-1.19.09-1.66-.35-.58-1.33-.85-1.98-.77-.68.08-1.11.44-1.71.11-1.26-.7-1.23-2.98-1.53-4.15l-.44-1.71c-.48-.02-.97.02-1.44-.07-1.01-.17-2.03-.9-2.52-1.8-.54-1-.56-2.78-.1-3.83.35-.79,1.06-1.31,1.86-1.58.13-.04.26-.08.39-.12l1.49-.5c-.85-.63-1.69-1.25-2.57-1.84-.09-.09-.75-.7-.9-.87-.62-.73-.91-1.64-.82-2.6.12-1.21.94-2.31,1.87-3.03.12-.1.25-.17.37-.27.35-.27.7-.56,1.05-.84.54-.47.82-.75,1.18-1.36-.32-1.26-1.1-3.54-.34-4.79.22-.36.59-.59.99-.69,1.65-.37,2.96-.2,4.38.71.64.42,1.43,1.12,2.24,1.21.32.03.27.03.46-.1-.05-.15-.08-.3-.15-.44-.63-1.24-1.2-2.32-.95-3.79.18-1.06.82-2.18,1.73-2.77.96-.62,2.2-.58,3.27-.29,1.69.47,2.55,2.78,3.3,4.14.35-.37.72-.73,1.06-1.11,1.14-1.25,1.86-4.07,3.84-4.27.78-.08,1.26.28,1.77.82.32.34.37.84.33,1.28-.04.41-.16.8-.21,1.21-.04.28.11.5.23.74,1.58-.09,3.56-.47,4.84.76.99.94,1.2,1.94,1.75,3.13.03.07.1.1.15.16.72-.1,1.4-.44,2.08-.65,1.22-.39,2.85-.81,4.05-.1.53.32.8.77.89,1.37.12.78-.11,1.56-.29,2.31-.11.46-.09.3,0,.77.53.44,1.21.24,1.86.23.67,0,1.21.17,1.66.7.41.48.6,1.34.42,1.95-.3,1.07-1.7,1.58-2.57,2.03-.34.17-.72.33-.85.72.2.37.1.37.55.47.71.17,1.85-.06,2.53-.09.7-.03,1.96-.08,2.52.47.31.31.48.75.47,1.19-.04.96-1.04,1.92-1.75,2.45-.85.63-1.53.88-2.53,1.19-1.48.47-2.61,1.26-3.83,2.18-.19.14-.38.27-.57.4l-1.29.76c-.29.17-.59.32-.88.5-3.12,1.96-4.43,5.14-6.39,8.09-3.72,5.73-4.36,11.28-4.65,17.94-.14,3.18.09,6.4.1,9.57,0,2.31.71,4.07,1.65,6.14l.6,1.34c.21.17.44.31.64.49,4.35,3.58,7.03,8.58,11.9,12.12.69.5,1.32,1.09,1.99,1.61,3.97,3.09,8.47,5.39,13.29,6.82.89.26,1.7.72,2.55,1.1,1.81.82,4.05.9,6.01.86.96-.03,1.89.2,2.83.35,3.44.56,7.84-.39,11.3-.85,3.79-.5,7.34-2.09,10.85-3.52,4.01-1.64,7.56-5.93,10.42-9.07.85-.92,1.78-1.6,2.79-2.34.15-.27.31-.54.44-.81,2.31-4.76,4.95-10.19,5.18-15.57.13-3.15.39-5.88,1.12-8.95-.23-.64-.47-1.26-.68-1.9-1.45-4.28-2.96-7.67-5.22-11.56-.85-.82-1.21-1.59-1.81-2.65-7.99-11.41-22.38-15.15-35.09-18.31ZM277.23,425.14c-.39.89-1.31,1.31-2.08,1.79-.33.2-.93.59-1.06.99-.18.53.16,1.78.21,2.11.21,1.31,0,2.62-.82,3.72-.61.82-1.6,1.12-2.58,1.22-2.42.24-4.22-1.51-5.92-2.97-.23,1.69-.46,3.38-.67,5.06.16,1.1.51,2.84-.34,3.8-.53.61-1.46.53-2.18.52-1.39-.03-2.1-.97-3.06-1.85-.26-.24-.49-.41-.82-.52-.73.17-1.01.87-1.44,1.44-.2.26-.5.51-.84.57-.63.11-1.41-.44-1.83-.87-.94-.98-1.35-2.4-1.86-3.64-.77.98-1.52,1.97-2.27,2.96-.96.09-1.51.1-2.24-.58-1.23-1.14-1.25-3.32-1.33-4.85l-1.72-.1c-.38.21-.77.41-1.13.64-.96.61-2.29,1.76-3.54,1.47-.89-.2-1.58-1.03-1.98-1.8-.4-.77-.46-1.64-.12-2.45.39-.92,1.45-2.45,2.44-2.79.23-.08.49-.07.64-.28-.32-.33-.95-.38-1.39-.4-1.17-.06-2.33.03-3.38-.58-.98-.57-2.06-1.56-2.2-2.76-.19-1.64,1.03-3.05,2.04-4.14.07-.66.19-1.36.13-2.03-.56-.25-1.14-.46-1.66-.79-.68-.42-1.5-1.44-1.56-2.26-.07-.89.52-1.93,1.1-2.57,1.84-2.04,5-1.58,7.48-1.76-1.07-.64-3.98-1.94-4.36-3.36-.1-.38-.08-.77.13-1.11.33-.53,1.13-.92,1.73-.97.49-.04.6.04,1.07-.16.24-.1.48-.24.72-.36-.17-1.11-.31-1.6.11-2.64.36-.85,1.16-1.5,2.03-1.78,1.66-.53,3.39.7,4.78,1.41,1.01-1.16,1.99-2.56,3.52-3.06.97-.32,1.99-.28,2.91.17.39.18.77.42,1.19.55.8.25,1.26.03,1.99-.38.53-.29,1.14-.82,1.75-.97.89-.23,1.86.3,2.59.74.31.18.6.39.9.57.4.23.8.46,1.2.7.13,2.01.27,4.02.45,6.03,1.21-1.4,2.05-2.33,3.98-2.48,1.14-.09,2.6.1,3.45.95,1.15,1.14.95,2.74.95,4.23,0,.34.01.68.02,1.01l.5,1.05c1.15.73,2.34,1.31,2.63,2.78.1.48.05.97-.27,1.37-.95,1.15-3.01,1.57-4.32,2.04-.55.2-.42.15-.8.46l-.04.1c.09.16.39.23.53.27.42.12.84.21,1.26.32,1.71.48,4.56,1.58,5.36,3.34.34.76.38,2.12.04,2.88Z"/>
  <path class="st8" d="M289.26,441.69l.52-1.38c-1.01.74-1.94,1.42-2.79,2.34-2.86,3.13-6.41,7.43-10.42,9.07-3.51,1.43-7.06,3.01-10.85,3.52-3.45.46-7.85,1.41-11.3.85-.94-.15-1.87-.37-2.83-.35-1.96.04-4.19-.04-6.01-.86-.84-.37-1.65-.84-2.55-1.1-4.82-1.43-9.32-3.73-13.29-6.82-.67-.52-1.3-1.1-1.99-1.61-4.88-3.54-7.55-8.54-11.9-12.12-.21-.17-.43-.32-.64-.49-2.99.88-4.84-.36-7.57-1.58.38.92.74,1.86,1.12,2.79,5.67,13.69,13.11,20.61,25.42,27.92,5.23,3.12,11.57,4.68,17.6,4.93,2.97.11,5.34-.11,8.27-.46,5.01-.58,12.19-5.8,16.06-5.27.48.07.93.07,1.28-.31.18-.19.32-.42.49-.62,2.19-5.95,8.62-11.21,11.18-17.98.06-.15.11-.3.17-.46Z"/>
  <path class="st8" d="M206.18,420.61c-6.65,1-11.09-.57-17.25-3.05-6.57-2.66-11.01-5.67-15.32-11.35-.65-.85-1.43-2.11-2.53-2.49-.37-.12-.71.2-.99.37l.33,1.6c.04.18.06.37.1.55,2.09,9.75,7.16,15.58,15.47,20.76,6.31,3.94,14.33,5.9,21.68,4.13.03-3.58.18-7.15.3-10.74-.6.07-1.2.11-1.8.2Z"/>
  <path class="st6" d="M213.96,391.82c.82.17,1.37,1.22,1.8,1.82.35.48.8.88,1.2,1.31,1.57-2.21,3.07-4.25,4.82-6.32.37-.44.73-.89,1.1-1.33-.12-.1-1.23-.89-1.53-1.24-.32-.37-.62-.84-.52-1.37.12-.64.93-1.11,1.47-1.35.53-.24,1.1-.42,1.59-.73.34-.22.5-.41.6-.8-.2-.05-.4-.11-.6-.16-1.27-.24-2.25-.07-3.09-1.15-.43-.55-.77-1.16-1.35-1.57-.83-.61-1.43-1.07-1.88-2.04-.76-1.64-.83-1.68-2.38-2.76-1.54-.23-2.74-.3-4.27.02-1.72.36-.86.24-2.34.43l-.83.09c-.39.05-.78.1-1.17.15-1.59.17-3.29-1.17-4.74-.2-.11.39-.06.57.15.94.26.44.59.84.86,1.28.26.42.56,1.04.35,1.55-.18.44-.89.9-1.14,1.11-.45.67-.84,1.34-1.22,2.05-.72.74-1.43,1.48-2.14,2.23l-.12.72c.3.3.6.62.91.91.16.15.33.29.49.44.37.34.85.9.86,1.44,0,.17-.13.71-.16.82.89.13,2.35.08,2.98.91.23.3.34.68.5,1.02.21.43.62,1.12,1.13,1.23.33.07,1.03-.17,1.24-.19.57-.06.88.3,1.2.7.25.31.46.67.69,1.01.35.5,1.11.73,1.6.96.78-.32,1.54-.83,2.27-1.24.47-.31,1.03-.8,1.66-.67Z"/>
  <path class="st8" d="M215.18,374.13c1.55,1.08,1.62,1.11,2.38,2.76.45.97,1.05,1.43,1.88,2.04.57.42.92,1.03,1.35,1.57.84,1.08,1.82.9,3.09,1.15.2.04.4.1.6.16-.1.39-.25.58-.6.8-.49.31-1.06.49-1.59.73-.54.24-1.35.71-1.47,1.35-.09.52.21.99.52,1.37.3.36,1.4,1.15,1.53,1.24,1.19.29,2.12.59,3.22,1.1.19-.13.39-.26.57-.4,1.23-.91,2.36-1.71,3.83-2.18,1-.31,1.68-.57,2.53-1.19.71-.53,1.71-1.5,1.75-2.45.02-.44-.15-.88-.47-1.19-.56-.55-1.82-.5-2.52-.47-.68.03-1.82.25-2.53.09-.45-.1-.35-.1-.55-.47.13-.39.51-.55.85-.72.86-.45,2.27-.96,2.57-2.03.17-.61-.02-1.47-.42-1.95-.45-.53-.98-.7-1.66-.7-.65,0-1.33.2-1.86-.23-.09-.48-.11-.31,0-.77.18-.75.41-1.52.29-2.31-.09-.6-.36-1.05-.89-1.37-1.2-.71-2.83-.3-4.05.1-.68.22-1.36.55-2.08.65-.05-.05-.12-.09-.15-.16-.55-1.19-.76-2.19-1.75-3.13-1.28-1.23-3.26-.84-4.84-.76-.06,1.06-.13,2.11-.2,3.18-.1,1.61.13,2.7.66,4.22Z"/>
  <path class="st19" d="M290.23,439.5c-.13.27-.29.54-.44.81l-.52,1.38c-.06.16-.11.31-.17.46-2.56,6.77-8.99,12.03-11.18,17.98,1.3-.52,2.17-.8,3.12-1.78,1.1-1.15,1.84-1.97,3.32-2.6,1.68-.73,2.62-1.05,3.75-2.56.82-1.09,1.56-2.09,2.54-3.04,3.7-3.57,5.61-7.73,6.69-12.71.09-.43.16-.86.25-1.29.88-4.37.99-8.64.74-13.08-.17-2.99-.76-5.27-1.79-8.08-.73,3.06-.99,5.8-1.12,8.95-.23,5.38-2.87,10.81-5.18,15.57Z"/>
  <path class="st18" d="M210.03,393.73c-.49-.23-1.25-.45-1.6-.96-.23-.34-.44-.7-.69-1.01-.32-.4-.63-.77-1.2-.7-.2.03-.91.26-1.24.19-.51-.1-.92-.8-1.13-1.23-.17-.34-.28-.71-.5-1.02-.63-.84-2.09-.78-2.98-.91-2.74,1.64-5.37,3.35-7.77,5.46l.44,1.71c.3,1.17.26,3.45,1.53,4.15.6.33,1.03-.03,1.71-.11.65-.08,1.63.19,1.98.77.28.47-.03,1.21-.09,1.66-.06.45.05.69.35,1,.56.57,1.29,1.14,2.14,1.03,1.15-.15,2.09-1.51,2.77-2.32.33-.4.58-.53,1.05-.76.28.07.47.27.62.51.24.38.27.69.42,1.13.12.37.26.75.38,1.12.13-3.05.25-5.03,1.54-7.82.6-1.31.96-1.41,2.27-1.9Z"/>
  <path class="st10" d="M215.23,432.73l-.6-1.34c-.94-2.07-1.65-3.84-1.65-6.14,0-3.18-.24-6.4-.1-9.57.29-6.67.93-12.22,4.65-17.94l-1.93-.73-2.76,4.89-.49.44c-1.32,6.13-3.38,11.8-4.4,18.08-.12,3.59-.28,7.15-.3,10.74,2.73,1.23,4.57,2.46,7.57,1.58Z"/>
  <path class="st8" d="M202.06,379.49c.24-.21.95-.68,1.14-1.11.21-.5-.09-1.13-.35-1.55-.28-.44-.61-.84-.86-1.28-.21-.37-.25-.55-.15-.94,1.45-.97,3.15.37,4.74.2.39-.04.78-.1,1.17-.15-.04-2.19-.26-4.4-.04-6.6-.75-1.37-1.6-3.67-3.3-4.14-1.07-.3-2.3-.33-3.27.29-.92.58-1.55,1.71-1.73,2.77-.25,1.46.32,2.55.95,3.79.07.13.1.29.15.44-.19.13-.14.13-.46.1-.8-.09-1.59-.79-2.24-1.21-1.42-.91-2.73-1.09-4.38-.71-.41.1-.77.33-.99.69-.76,1.24.02,3.52.34,4.79,2.45.84,4.51,2.09,6.7,3.44.86.53,1.64.83,2.58,1.2Z"/>
  <path class="st18" d="M198.7,383.77c.7-.75,1.41-1.49,2.14-2.23-.09-.07-.18-.14-.27-.22-1.65-1.36-2.92-2.16-4.78-3.15-1.41-.75-2.69-1.38-4.19-1.97-.35.28-.7.57-1.05.84-.12.1-.25.17-.37.27-.93.72-1.75,1.82-1.87,3.03-.09.96.2,1.87.82,2.6.15.17.8.78.9.87,2.89.05,5.78,0,8.67-.04Z"/>
  <path class="st21" d="M200.57,381.33c.09.08.18.15.27.22.38-.71.77-1.38,1.22-2.05-.94-.37-1.72-.67-2.58-1.2-2.19-1.35-4.25-2.6-6.7-3.44-.36.61-.64.89-1.18,1.36,1.5.58,2.78,1.22,4.19,1.97,1.86.99,3.13,1.79,4.78,3.15Z"/>
  <path class="st21" d="M198.7,383.77c-2.89.03-5.78.1-8.67.04.88.59,1.72,1.22,2.57,1.84,2.02-.31,4-.72,5.99-1.17l.12-.72Z"/>
  <path class="st8" d="M212.3,392.49c-.72.42-1.49.92-2.27,1.24-1.31.49-1.67.59-2.27,1.9-1.29,2.79-1.41,4.78-1.54,7.82.32.37.66.85,1.09,1.15.45.3.97.51,1.51.3.61-.23.99-1.05,1.17-1.63.07-.2.37-1.4.62-1.81.27-.43.22-.38.48-.48.59.11,1.04,1.04,1.27,1.34l.49-.44c-.57-3.19-.59-6.18-.55-9.41Z"/>
  <path class="st18" d="M215.76,393.64c-.44-.6-.98-1.64-1.8-1.82-.62-.13-1.19.36-1.66.67-.04,3.23-.01,6.21.55,9.41l2.76-4.89c.44-.7.88-1.39,1.35-2.06-.41-.43-.85-.83-1.2-1.31Z"/>
  <path class="st8" d="M200.85,387.28c0-.54-.49-1.1-.86-1.44-.16-.15-.34-.29-.49-.44-.31-.3-.61-.61-.91-.91-1.99.44-3.97.85-5.99,1.17l-1.49.5c-.13.04-.26.08-.39.12-.8.28-1.5.79-1.86,1.58-.46,1.04-.44,2.83.1,3.83.49.9,1.5,1.63,2.52,1.8.47.09.96.05,1.44.07,2.4-2.11,5.03-3.82,7.77-5.46.02-.1.16-.64.16-.82Z"/>
  <path class="st21" d="M207.74,374.66l.83-.09c1.48-.18.63-.07,2.34-.43,1.53-.31,2.73-.24,4.27-.02-.53-1.52-.76-2.61-.66-4.22.07-1.06.14-2.11.2-3.18-.12-.24-.26-.46-.23-.74.05-.41.18-.8.21-1.21.04-.44-.01-.94-.33-1.28-.51-.54-.98-.9-1.77-.82-1.98.2-2.7,3.02-3.84,4.27-.35.37-.71.74-1.06,1.11-.22,2.19,0,4.4.04,6.6Z"/>
  <path class="st13" d="M221.79,388.63c-1.75,2.07-3.26,4.11-4.82,6.32-.47.67-.91,1.37-1.35,2.06l1.93.73c1.95-2.95,3.26-6.13,6.39-8.09.29-.17.59-.33.88-.5l1.29-.76c-1.1-.5-2.03-.81-3.22-1.1-.37.44-.73.9-1.1,1.33Z"/>
  <path class="st6" d="M263.11,412.92c-.45-.78-.9-1.55-1.3-2.35l-1.45-.7c-.12,0-.23,0-.35.02-.92.05-1.93.25-2.71-.37-.62-.5-.77-1.26-.77-2.03,0-.57.16-1.39-.29-1.86-.15-.16-.34-.11-.53-.12-.71.64-.7,1.51-1.13,2.33-.22.43-.6.83-1.08.94-1.07.24-1.9-.44-2.78-.94-.16.33-.33.66-.48,1-.12.28-.21.57-.32.84-.23.57-.53,1.17-1.13,1.43-.69.29-1.23.04-1.9-.16-.19-.05-.39-.1-.58-.16-1.34,1.28-1.5,1.62-1.71,3.46-.03.27-.07.55-.11.83l.6,2.29c-.35,1.33-.3,1.59-.37,3.05-.01.3-.17,1.16-.21,1.37.5.55,1.03,1.08,1.51,1.64.79.9,1.33,1.78,1.93,2.81l2.08.75,1.38,1.44,2.01.32c.53-.15,1.07-.26,1.59-.43.7-.23,1.24-.76,1.84-1.16.56-.38,1.14-.53,1.8-.38.78.17,1.57.82,2.22,1.24.48-.74.91-1.43,1.28-2.23.26-.17.52-.36.78-.53,2.15-1.44,2.1-1.71,3.08-4.04.09-.23.21-.44.31-.67.29-.71.14-1.28-.22-1.95-.18-.33-.42-.62-.49-.99-.08-.46-.13-.92-.19-1.38-.03-.1-.06-.22-.09-.33-.48-1.84-.58-2.03-2.2-3Z"/>
  <path class="st18" d="M271.82,418.92c-.42-.11-.84-.2-1.26-.32-.14-.03-.44-.11-.53-.27l.04-.1c.38-.31.26-.26.8-.46,1.3-.48,3.36-.9,4.32-2.04.32-.39.36-.89.27-1.37-.29-1.46-1.48-2.04-2.63-2.78-2.35,1.32-4.56,2.43-6.68,4.11l-.74.57c.06.46.11.92.19,1.38.07.37.31.66.49.99.36.67.52,1.24.22,1.95-.09.23-.21.44-.31.67-.98,2.32-.93,2.6-3.08,4.04-.26.17-.52.36-.78.53.89,2.1,2.18,4.02,2.83,6.19,1.7,1.45,3.5,3.21,5.92,2.97.98-.1,1.97-.4,2.58-1.22.82-1.1,1.02-2.4.82-3.72-.05-.34-.39-1.58-.21-2.11.13-.4.73-.79,1.06-.99.77-.48,1.69-.9,2.08-1.79.33-.76.3-2.12-.04-2.88-.8-1.77-3.65-2.86-5.36-3.34Z"/>
  <path class="st18" d="M263.11,412.92c1.02-.19,2.03-.38,3.04-.64,2.1-.54,4.13-1.03,6.17-1.76,0-.33-.02-.67-.02-1.01,0-1.49.2-3.09-.95-4.23-.85-.84-2.31-1.04-3.45-.95-1.93.15-2.77,1.08-3.98,2.48-.58,1.37-1.31,2.51-2.12,3.76.4.8.86,1.57,1.3,2.35Z"/>
  <path class="st21" d="M263.11,412.92c1.63.97,1.72,1.17,2.2,3,.03.11.06.23.09.33l.74-.57c2.12-1.68,4.33-2.78,6.68-4.11l-.5-1.05c-2.04.73-4.07,1.22-6.17,1.76-1.01.26-2.02.45-3.04.64Z"/>
  <path class="st8" d="M253.5,408.78c.48-.11.86-.51,1.08-.94.44-.82.43-1.69,1.13-2.33.19,0,.38-.03.53.12.45.47.28,1.3.29,1.86,0,.77.15,1.52.77,2.03.78.63,1.79.43,2.71.37.12,0,.23-.02.35-.02.78-1.65,1.8-3.24,2.19-5.04.29-1.37.57-2.7.93-4.05-.4-.23-.8-.46-1.2-.7-.31-.18-.6-.39-.9-.57-.73-.44-1.7-.97-2.59-.74-.6.16-1.22.69-1.75.97-.73.41-1.19.64-1.99.38-.42-.13-.79-.37-1.19-.55-.92-.44-1.94-.49-2.91-.17-1.53.5-2.51,1.91-3.52,3.06,1.13,1.77,2.23,3.54,3.28,5.36.88.5,1.72,1.18,2.78.94Z"/>
  <path class="st21" d="M260.36,409.88l1.45.7c.81-1.25,1.55-2.38,2.12-3.76-.17-2.01-.32-4.02-.45-6.03-.36,1.36-.64,2.69-.93,4.05-.39,1.8-1.41,3.38-2.19,5.04Z"/>
  <path class="st18" d="M245.25,409.53c.42.35.71.84,1.06,1.27.19.05.39.1.58.16.67.2,1.21.44,1.9.16.6-.25.9-.86,1.13-1.43.11-.28.2-.57.32-.84.15-.34.32-.67.48-1-1.06-1.82-2.15-3.59-3.28-5.36-1.39-.71-3.12-1.94-4.78-1.41-.87.28-1.67.92-2.03,1.78-.43,1.04-.28,1.52-.11,2.64,1.3.97,1.41,1.11,2.56,2.23.7.68,1.43,1.21,2.16,1.82Z"/>
  <path class="st21" d="M244.29,414.8c.06.1.13.19.19.29.04-.28.07-.56.11-.83.21-1.84.37-2.18,1.71-3.46-.34-.43-.63-.92-1.06-1.27-.74-.61-1.47-1.14-2.16-1.82-1.15-1.11-1.26-1.25-2.56-2.23-.24.11-.47.25-.72.36-.46.2-.58.11-1.07.16-.6.05-1.41.44-1.73.97-.21.34-.23.73-.13,1.11.38,1.42,3.29,2.71,4.36,3.36,1.42,1.06,2.09,1.83,3.07,3.36Z"/>
  <path class="st18" d="M261.67,429.44l-.8-1.39c-.65-.43-1.43-1.08-2.22-1.24-.66-.15-1.24,0-1.8.38-.6.4-1.13.93-1.84,1.16-.52.17-1.06.28-1.59.43-.48,2.08-.83,4.19-1.23,6.29-.09.49-.17.97-.25,1.46.51,1.24.92,2.65,1.86,3.64.42.44,1.2.98,1.83.87.34-.06.64-.31.84-.57.44-.57.71-1.27,1.44-1.44.33.11.56.28.82.52.95.89,1.66,1.83,3.06,1.85.73,0,1.65.09,2.18-.52.85-.97.5-2.71.34-3.8-.52-2.45-.54-4.61-1.99-6.71-.21-.31-.45-.6-.64-.92Z"/>
  <path class="st18" d="M250.03,427.01c-1.71,2.24-2.5,4.65-3.94,7.04.08,1.52.11,3.71,1.33,4.85.74.69,1.29.67,2.24.58.86-3.72,1.37-7.22,1.74-11.03l-1.38-1.44Z"/>
  <path class="st21" d="M253.42,428.77l-2.01-.32c-.36,3.81-.87,7.31-1.74,11.03.75-.99,1.5-1.98,2.27-2.96.08-.49.16-.97.25-1.46.4-2.1.75-4.21,1.23-6.29Z"/>
  <path class="st21" d="M260.87,428.04l.8,1.39c.19.32.43.61.64.92,1.45,2.1,1.47,4.26,1.99,6.71.21-1.69.44-3.38.67-5.06-.65-2.17-1.94-4.09-2.83-6.19-.37.8-.8,1.49-1.28,2.23Z"/>
  <path class="st8" d="M246.23,430.02c.39-2.01.39-2.31,1.71-3.76-.59-1.04-1.14-1.91-1.93-2.81-.48-.57-1.01-1.1-1.51-1.64-1-.4-1.59-.53-2.68-.57-2.04-.08-4.06-.22-6.09-.38-1.01,1.1-2.23,2.51-2.04,4.14.14,1.2,1.22,2.18,2.2,2.76,1.05.61,2.21.52,3.38.58.43.02,1.06.07,1.39.4-.15.21-.4.2-.64.28-.99.34-2.05,1.87-2.44,2.79-.34.8-.28,1.68.12,2.45.4.77,1.09,1.6,1.98,1.8,1.26.29,2.59-.86,3.54-1.47.37-.23.75-.43,1.13-.64.07-.1.13-.21.19-.32.76-1.2,1.4-2.19,1.67-3.6Z"/>
  <path class="st21" d="M247.94,426.26c-1.32,1.45-1.32,1.75-1.71,3.76-.27,1.41-.91,2.4-1.67,3.6-.07.11-.13.22-.19.32l1.72.1c1.44-2.39,2.23-4.8,3.94-7.04l-2.08-.75Z"/>
  <path class="st18" d="M244.26,417.78l.82-.4-.6-2.29c-.06-.1-.13-.19-.19-.29-.98-1.53-1.65-2.3-3.07-3.36-2.48.18-5.64-.28-7.48,1.76-.58.64-1.17,1.68-1.1,2.57.06.82.88,1.84,1.56,2.26.52.33,1.1.54,1.66.79,2.46-.12,5.54.21,7.85-.77.19-.08.36-.18.55-.27Z"/>
  <path class="st15" d="M244.5,421.81c.04-.22.19-1.07.21-1.37.07-1.46.02-1.72.37-3.05l-.82.4c-.18.09-.36.19-.55.27-2.31.98-5.39.65-7.85.77.06.67-.06,1.37-.13,2.03,2.04.17,4.05.3,6.09.38,1.09.04,1.68.17,2.68.57Z"/>
  <path class="st24" d="M287.39,356.88c-.44,10.79,5.06,21.35,12.41,28.98,7.86,8.14,20.38,14.93,31.94,14.73.41,0,.82-.03,1.23-.05.99-1.17,2.41-3.39,4.13-3.58,1.25-.13,2.79.68,3.62,1.59.48.52.77.98,1.2,1.59,12.71.14,21.27-6.28,31.09-13.31.09-.38.17-.77.27-1.16.95-3.58,1.89-5.94,4.21-8.77.07-.32.16-.63.21-.95,1.43-10.22-3.48-24.7-9.2-32.84-7.92-11.24-19.69-19.27-33.46-21.26-12.35-1.79-26.21,2.1-35.99,9.85-5.89,4.68-11.65,12.96-12.42,20.66.14.31.31.61.42.93.5,1.45.42,2.11.36,3.58ZM307.63,356.81c.78-1.27,2.43-2.4,3.89-2.71.38-.09.77-.11,1.12-.25.21-.09.27-.15.32-.4.07-.37-.14-.8-.3-1.11-.35-.7-.93-1.52-1-2.34-.08-.91.37-2.07.96-2.77,1.05-1.23,2.48-1.56,4.03-1.62,2.02-.08,3.16,1.15,4.49,2.45l.89-1.77c-.49-1.12-.91-1.99-.7-3.24.14-.8.55-1.55,1.24-1.99.89-.56,2.27-.9,3.31-.65.72.17,1.23.64,1.6,1.26.39.65.56,1.44,1.32,1.7.46-.17.55-.35.78-.79.32-.62.41-.91.76-1.43.44-.65,1.23-.87,1.98-.97.79-.11,1.61.05,2.2.62.5.47,1.09,1.22,1.82,1.4.31.07.64-.08.9-.22.85-.46,1.89-1.2,2.91-1.33,1.04-.13,2.74-.08,3.54.65,1.07,1,.76,2.94.72,4.19.19,1.06.5,1.96.87,2.96,1.17-.84,2.8-2.46,4.41-2.36.95.07,1.77.88,2.28,1.62.6.87,1.02,1.99.8,3.05-.31,1.5-1.41,2.33-2.48,3.31-.21.19-.42.39-.63.59.25.81.59,1.53.95,2.3l1.29.17c.29.04.57.06.86.11,1.28.2,3.07.7,3.85,1.83.54.79.34,1.51.14,2.37-.29,1.25-1.11,2.3-2.19,2.98-.32.2-.66.37-.99.55-.27.16-.71.39-.79.73-.13.53.42,1.16.75,1.5.27.28.55.54.81.81.64.66,1.16,2,1.04,2.91-.18,1.31-1.51,2.38-2.55,3.02-.64.39-1.31.72-1.96,1.08-.57.13-1.29.16-1.62.73-.23.4-.23.85-.31,1.3-.04.23-.09.44-.13.66-.23,1.49-.31,2.86-1.69,3.77-1.33.87-3.12.9-4.64,1.09-2.9.61-3.82,3.12-6.9,1.91l-2.6-1.33c-.38.39-.84.99-1.32,1.26-.45.26-.93.3-1.4.08-1.28-.62-1.92-3.25-2.34-4.39-.9.9-1.76,2.01-2.83,2.7-.77.49-2.55.81-3.37.43-.45-.2-.73-.65-.94-1.07-.63-1.2-.69-2.31-.2-3.57.49-1.28.87-1.96.96-3.32l-.05.28-.08-.26c-.67-.14-1.27.03-1.82.43-.82.59-1.59,1.31-2.57,1.63-1.01.32-2.44.28-3.36-.28-1.44-.86-1.7-2.9-2.05-4.36-.46-.64-.81-1.31-1.49-1.71-.93-1.2-1.37-2.05-1.49-3.58-.07-.91.06-1.86.68-2.57,2.35-2.66,8.22-1.96,11.29-2.09l.17-1.34c-2.3-.05-4.68.05-6.94-.44-.67-.16-1.34-.34-2.02-.44-.81-.13-1.7-.1-2.47-.41-.81-.33-1.6-1.08-1.88-1.92-.16-.49-.1-.94.17-1.38Z"/>
  <path class="st9" d="M287.39,356.88c-.44,10.79,5.06,21.35,12.41,28.98,7.86,8.14,20.38,14.93,31.94,14.73.41,0,.82-.03,1.23-.05.99-1.17,2.41-3.39,4.13-3.58,1.25-.13,2.79.68,3.62,1.59.48.52.77.98,1.2,1.59,12.71.14,21.27-6.28,31.09-13.31.09-.38.17-.77.27-1.16.95-3.58,1.89-5.94,4.21-8.77.07-.32.16-.63.21-.95,1.43-10.22-3.48-24.7-9.2-32.84-7.92-11.24-19.69-19.27-33.46-21.26-12.35-1.79-26.21,2.1-35.99,9.85-5.89,4.68-11.65,12.96-12.42,20.66.14.31.31.61.42.93.5,1.45.42,2.11.36,3.58ZM307.63,356.81c.78-1.27,2.43-2.4,3.89-2.71.38-.09.77-.11,1.12-.25.21-.09.27-.15.32-.4.07-.37-.14-.8-.3-1.11-.35-.7-.93-1.52-1-2.34-.08-.91.37-2.07.96-2.77,1.05-1.23,2.48-1.56,4.03-1.62,2.02-.08,3.16,1.15,4.49,2.45l.89-1.77c-.49-1.12-.91-1.99-.7-3.24.14-.8.55-1.55,1.24-1.99.89-.56,2.27-.9,3.31-.65.72.17,1.23.64,1.6,1.26.39.65.56,1.44,1.32,1.7.46-.17.55-.35.78-.79.32-.62.41-.91.76-1.43.44-.65,1.23-.87,1.98-.97.79-.11,1.61.05,2.2.62.5.47,1.09,1.22,1.82,1.4.31.07.64-.08.9-.22.85-.46,1.89-1.2,2.91-1.33,1.04-.13,2.74-.08,3.54.65,1.07,1,.76,2.94.72,4.19.19,1.06.5,1.96.87,2.96,1.17-.84,2.8-2.46,4.41-2.36.95.07,1.77.88,2.28,1.62.6.87,1.02,1.99.8,3.05-.31,1.5-1.41,2.33-2.48,3.31-.21.19-.42.39-.63.59.25.81.59,1.53.95,2.3l1.29.17c.29.04.57.06.86.11,1.28.2,3.07.7,3.85,1.83.54.79.34,1.51.14,2.37-.29,1.25-1.11,2.3-2.19,2.98-.32.2-.66.37-.99.55-.27.16-.71.39-.79.73-.13.53.42,1.16.75,1.5.27.28.55.54.81.81.64.66,1.16,2,1.04,2.91-.18,1.31-1.51,2.38-2.55,3.02-.64.39-1.31.72-1.96,1.08-.57.13-1.29.16-1.62.73-.23.4-.23.85-.31,1.3-.04.23-.09.44-.13.66-.23,1.49-.31,2.86-1.69,3.77-1.33.87-3.12.9-4.64,1.09-2.9.61-3.82,3.12-6.9,1.91l-2.6-1.33c-.38.39-.84.99-1.32,1.26-.45.26-.93.3-1.4.08-1.28-.62-1.92-3.25-2.34-4.39-.9.9-1.76,2.01-2.83,2.7-.77.49-2.55.81-3.37.43-.45-.2-.73-.65-.94-1.07-.63-1.2-.69-2.31-.2-3.57.49-1.28.87-1.96.96-3.32l-.05.28-.08-.26c-.67-.14-1.27.03-1.82.43-.82.59-1.59,1.31-2.57,1.63-1.01.32-2.44.28-3.36-.28-1.44-.86-1.7-2.9-2.05-4.36-.46-.64-.81-1.31-1.49-1.71-.93-1.2-1.37-2.05-1.49-3.58-.07-.91.06-1.86.68-2.57,2.35-2.66,8.22-1.96,11.29-2.09l.17-1.34c-2.3-.05-4.68.05-6.94-.44-.67-.16-1.34-.34-2.02-.44-.81-.13-1.7-.1-2.47-.41-.81-.33-1.6-1.08-1.88-1.92-.16-.49-.1-.94.17-1.38Z"/>
  <path class="st18" d="M369.14,399l.21-.87c.92-3.91,2.27-7.53,3.65-11.29-9.81,7.03-18.38,13.45-31.09,13.31l-1.13.2c-1.71.32-3.17.62-4.91.48-.39-.03-.78-.1-1.17-.14-.58-.05-1.16-.1-1.73-.15-.41.02-.82.04-1.23.05-11.55.2-24.08-6.59-31.94-14.73-7.36-7.63-12.85-18.19-12.41-28.98.06-1.46.14-2.12-.36-3.58-.11-.32-.28-.62-.42-.93-5.36,8.29-7.29,17.71-5.07,27.44,1.52,6.69,5.01,12.14,9.57,17.17,1.56,1,3.07,2.08,4.61,3.12,7.18,9.13,17.82,13.97,29.18,15.32,11.62,1.39,22.14.74,32.82-4.32,1.13-.54.62-.36,1.76-.65-.18-.25-.39-.42-.4-.72-.09-1.6,8.67-9.4,10.09-10.73Z"/>
  <path class="st10" d="M376.44,395.52c.56-6.06,1-12.51,1.04-18.6-2.32,2.83-3.26,5.19-4.21,8.77-.1.38-.18.77-.27,1.16-1.38,3.76-2.72,7.38-3.65,11.29l-.21.87c-1.42,1.33-10.18,9.13-10.09,10.73.02.3.23.47.4.72,2.93-1.44,5.74-3.3,8.05-5.64,3.1-3.13,6.16-5.8,8.93-9.29Z"/>
  <path class="st20" d="M288.81,398.88c.6,1.05.97,1.83,1.81,2.65,1.69-.58,3.35-1.02,5.09-1.42-1.53-1.04-3.04-2.12-4.61-3.12l-2.3,1.9Z"/>
  <path class="st6" d="M337.1,396.97c-1.72.18-3.14,2.41-4.13,3.58.58.05,1.16.1,1.73.15.39.04.78.1,1.17.14,1.74.14,3.21-.16,4.91-.48l1.13-.2c-.43-.61-.72-1.07-1.2-1.59-.83-.91-2.36-1.72-3.62-1.59Z"/>
  <path class="st8" d="M324.24,349.44c.55,1.01,1.3,1.76,2.44,2.04.64.17.4.05,1.06.14.5.06,1,.15,1.5.22l.04-.4v.27s.07-1.25.07-1.25c.16.25.32.51.49.76.23.33.77,1.04,1.19,1.12.09.02.2,0,.27-.06.18-.15.29-.37.47-.5.27-.2.73-.44,1.08-.29.29.13.55.3.83.44,1.41.7,2.66.84,4.22,1.11,2.01-2.03,3.73-3.91,5.46-6.17.35-.46.71-.91,1.07-1.37.05-1.24.35-3.18-.72-4.19-.8-.73-2.5-.78-3.54-.65-1.02.13-2.07.87-2.91,1.33-.26.14-.59.29-.9.22-.73-.18-1.31-.93-1.82-1.4-.59-.57-1.41-.73-2.2-.62-.75.1-1.54.31-1.98.97-.35.51-.44.81-.76,1.43-.23.44-.31.63-.78.79-.77-.26-.94-1.04-1.32-1.7-.37-.63-.89-1.09-1.6-1.26-1.04-.25-2.42.1-3.31.65-.69.44-1.11,1.19-1.24,1.99-.21,1.24.21,2.11.7,3.24.28.29.56.57.84.87.59.63.96,1.53,1.36,2.27Z"/>
  <path class="st6" d="M321.57,368.14c.47.13,1.45.22,1.79.76.3.47.26.99.29,1.52.02.5-.02.34.17.69l.17.09c.22-.1.44-.21.66-.3,1.97-.76,2.91-.54,4.93.03l2.03.27.74-.46c1.2-.17,2.14-.23,3.05-1.12,1.16-1.16,1.71-1.71,3.4-1.87,1.16-.11,1.34-.26,2.33-.98.68-.27,1.38-.6,2.09-.79.66-.17,1.58-.29,2.23-.65.16-.09.34-.23.33-.44-.04-.47-.69-.9-1.04-1.14-.74-.51-1.48-1.02-2.19-1.57l-.82-.64c.14-.37.32-.74.4-1.12.15-.67-.22-1.14-.52-1.71-1.41-1.27-2.4-2.15-3.35-3.79l-.38-1.89c-1.55-.27-2.81-.4-4.22-1.11-.28-.14-.54-.31-.83-.44-.35-.15-.82.09-1.08.29-.19.13-.29.36-.47.5-.07.05-.18.08-.27.06-.42-.09-.96-.79-1.19-1.12-.17-.24-.33-.5-.49-.76l-.08,1.25v-.27s-.03.4-.03.4c-.5.21-.99.42-1.49.61-.25.1-.52.17-.77.26-1.18.45-1.45.77-2.23,1.74-.3.31-.6.64-.9.96-.53.55-1.16.73-1.92.7-.56-.03-.8-.13-1.43-.25-.42-.09-1.27-.25-1.67.03-.11.08-.13.26-.12.38.04.61.79,1.3,1.13,1.75.72.95.83,1.6.89,2.74.01.22.03.44.05.66l-.17,1.34c.31,1.5.52,2.95.69,4.47l.27.92Z"/>
  <path class="st18" d="M338.29,354.92c.95,1.64,1.94,2.51,3.35,3.79,2.33-1.62,5.27-3.33,8.04-4.04.21-.2.42-.4.63-.59,1.07-.97,2.16-1.81,2.48-3.31.22-1.06-.2-2.18-.8-3.05-.51-.74-1.32-1.55-2.28-1.62-1.62-.1-3.24,1.51-4.41,2.36-1.48,2.72-4.76,4.36-7.01,6.47Z"/>
  <path class="st21" d="M337.9,353.03l.38,1.89c2.26-2.11,5.53-3.74,7.01-6.47-.38-1-.69-1.9-.87-2.96-.36.45-.72.9-1.07,1.37-1.72,2.26-3.45,4.14-5.46,6.17Z"/>
  <path class="st21" d="M324.75,354.45c.78-.97,1.04-1.29,2.23-1.74.25-.1.52-.17.77-.26.5-.19.99-.4,1.49-.61-.5-.07-1-.16-1.5-.22-.66-.09-.42.03-1.06-.14-1.14-.29-1.89-1.04-2.44-2.04-.4-.74-.77-1.64-1.36-2.27-.28-.3-.56-.58-.84-.87l-.89,1.77c.7,1.31,1.31,2.11,2.23,3.28.88,1.1.98,1.66,1.36,3.11Z"/>
  <path class="st24" d="M347.92,376.84c-.17-.22-.29-.47-.46-.68-1.54-1.9-7.26-6.29-9.52-6.48-.59-.04-1.18.1-1.6.53-.09.09-.16.2-.25.3-.24.24-.5.49-.75.73.2.54.41,1.07.6,1.61.14.4.27.81.42,1.2.43,1.17.96,1.99,1.77,2.92,1.38.3,1.98.41,2.76,1.67.73,1.18,1.16,2.61,1.63,3.91,1.52-.19,3.3-.22,4.64-1.09,1.37-.9,1.46-2.28,1.69-3.77-.15-.14-.73-.64-.91-.85Z"/>
  <path class="st3" d="M347.92,376.84c-.17-.22-.29-.47-.46-.68-1.54-1.9-7.26-6.29-9.52-6.48-.59-.04-1.18.1-1.6.53-.09.09-.16.2-.25.3-.24.24-.5.49-.75.73.2.54.41,1.07.6,1.61.14.4.27.81.42,1.2.43,1.17.96,1.99,1.77,2.92,1.38.3,1.98.41,2.76,1.67.73,1.18,1.16,2.61,1.63,3.91,1.52-.19,3.3-.22,4.64-1.09,1.37-.9,1.46-2.28,1.69-3.77-.15-.14-.73-.64-.91-.85Z"/>
  <path class="st2" d="M347.92,376.84c-.17-.22-.29-.47-.46-.68-1.54-1.9-7.26-6.29-9.52-6.48-.59-.04-1.18.1-1.6.53-.09.09-.16.2-.25.3-.24.24-.5.49-.75.73.2.54.41,1.07.6,1.61.14.4.27.81.42,1.2.43,1.17.96,1.99,1.77,2.92,1.38.3,1.98.41,2.76,1.67.73,1.18,1.16,2.61,1.63,3.91,1.52-.19,3.3-.22,4.64-1.09,1.37-.9,1.46-2.28,1.69-3.77-.15-.14-.73-.64-.91-.85Z"/>
  <path class="st18" d="M338.63,383.25c.58-.78.49-1.65.3-2.56-.27-1.24-.56-2.48-.82-3.72-.81-.93-1.34-1.75-1.77-2.92-.15-.39-.27-.8-.42-1.2-.19-.54-.4-1.07-.6-1.61-1.02-.13-1.97-.25-2.96-.5l-.74.46c.12,2.13.29,4.09.63,6.2.14.86.2,1.73.31,2.59.13,1.04.29,2.09.44,3.13l2.6,1.33c.75-.19,2.43-.4,3.03-1.21Z"/>
  <path class="st15" d="M332.25,377.4c-.34-2.11-.51-4.07-.63-6.2l-2.03-.27c-.13,3.69.09,5.86-1.66,9.15.41,1.13,1.06,3.77,2.34,4.39.47.23.95.18,1.4-.08.48-.27.94-.87,1.32-1.26-.15-1.04-.31-2.09-.44-3.13-.11-.86-.17-1.73-.31-2.59Z"/>
  <path class="st15" d="M338.12,376.97c.25,1.24.55,2.48.82,3.72.2.9.28,1.78-.3,2.56-.6.81-2.28,1.02-3.03,1.21,3.08,1.2,3.99-1.31,6.9-1.91-.46-1.3-.9-2.72-1.63-3.91-.77-1.26-1.38-1.37-2.76-1.67Z"/>
  <path class="st21" d="M341.15,366.76c-.99.72-1.17.87-2.33.98-1.69.17-2.24.71-3.4,1.87-.9.89-1.85.95-3.05,1.12.99.24,1.94.37,2.96.5.25-.24.51-.49.75-.73.09-.1.16-.21.25-.3.42-.43,1.01-.57,1.6-.53,2.26.19,7.98,4.59,9.52,6.48.17.21.29.46.46.68.17.22.75.71.91.85.04-.22.09-.44.13-.66.08-.44.08-.9.31-1.3.32-.57,1.05-.6,1.62-.73-1.73-.59-3.15-1.15-4.56-2.36-1.97-1.69-4.48-3.26-5.17-5.88Z"/>
  <path class="st8" d="M324.66,370.9c-.23.09-.44.2-.66.3l-.17-.09c-.19-.35-.14-.18-.17-.69-.03-.53,0-1.05-.29-1.52-.34-.54-1.32-.63-1.79-.76-2.79,2.13-5.31,3.44-8.73,4.24-.41.1-.82.2-1.23.3.35,1.46.61,3.5,2.05,4.36.92.56,2.35.6,3.36.28.98-.31,1.75-1.04,2.57-1.63.55-.39,1.15-.57,1.82-.43l.08.26.05-.28c-.09,1.36-.46,2.04-.96,3.32-.49,1.26-.42,2.37.2,3.57.22.42.5.87.94,1.07.83.38,2.61.06,3.37-.43,1.07-.69,1.94-1.8,2.83-2.7,1.75-3.3,1.53-5.46,1.66-9.15-2.02-.57-2.96-.78-4.93-.03Z"/>
  <path class="st8" d="M320.61,362.75c-3.08.13-8.95-.57-11.29,2.09-.62.7-.75,1.65-.68,2.57.12,1.52.55,2.38,1.49,3.58,4.35-.38,7.32-1.61,11.18-3.76-.17-1.52-.38-2.98-.69-4.47Z"/>
  <path class="st18" d="M321.57,368.14l-.27-.92c-3.85,2.15-6.82,3.38-11.18,3.76.68.4,1.04,1.07,1.49,1.71.41-.1.82-.21,1.23-.3,3.42-.8,5.94-2.11,8.73-4.24Z"/>
  <path class="st18" d="M347.97,358.04c-2.25.91-4.25,2.09-6.22,3.49l.82.64c.71.55,1.45,1.05,2.19,1.57.34.23,1,.67,1.04,1.14.02.21-.16.35-.33.44-.65.37-1.57.49-2.23.65-.71.19-1.41.52-2.09.79.69,2.62,3.2,4.19,5.17,5.88,1.41,1.21,2.83,1.77,4.56,2.36.66-.36,1.33-.69,1.96-1.08,1.04-.64,2.36-1.71,2.55-3.02.13-.9-.4-2.25-1.04-2.91-.27-.27-.55-.53-.81-.81-.33-.34-.88-.97-.75-1.5.09-.34.53-.57.79-.73.33-.18.67-.35.99-.55,1.08-.68,1.9-1.72,2.19-2.98.2-.86.39-1.58-.14-2.37-.78-1.13-2.57-1.63-3.85-1.83-.28-.05-.57-.07-.86-.11l-1.29-.17c-.42.18-.84.37-1.27.55-.46.19-.92.35-1.38.53Z"/>
  <path class="st15" d="M342.15,360.41c-.09.38-.27.75-.4,1.12,1.97-1.4,3.97-2.58,6.22-3.49.46-.18.92-.34,1.38-.53.43-.17.85-.37,1.27-.55-.36-.77-.69-1.49-.95-2.3-2.76.7-5.71,2.42-8.04,4.04.3.57.67,1.04.52,1.71Z"/>
  <path class="st8" d="M309.34,360.11c.77.3,1.66.28,2.47.41.68.1,1.34.29,2.02.44,2.26.5,4.64.39,6.94.44-.02-.22-.04-.44-.05-.66-.06-1.14-.18-1.79-.89-2.74-.34-.45-1.09-1.14-1.13-1.75,0-.12,0-.3.12-.38.39-.28,1.24-.11,1.67-.03.62.12.87.23,1.43.25.76.03,1.39-.15,1.92-.7.31-.31.6-.64.9-.96-.38-1.44-.48-2-1.36-3.11-.92-1.17-1.54-1.97-2.23-3.28-1.33-1.31-2.47-2.53-4.49-2.45-1.56.06-2.98.39-4.03,1.62-.6.7-1.05,1.85-.96,2.77.07.82.65,1.64,1,2.34.15.3.37.74.3,1.11-.05.25-.11.31-.32.4-.36.14-.75.17-1.12.25-1.45.31-3.11,1.44-3.89,2.71-.27.44-.34.9-.17,1.38.28.84,1.07,1.59,1.88,1.92Z"/>
  <path class="st17" d="M407.26,245.21c-4.81-3.62-13.8-1.28-19.26-.11-.76.17-1.53.34-2.29.53-.1-3.17.37-4.4-1.74-6.86-2.3-.52-3.36-.58-5.48.58-6.43,3.54-12.59,12.96-16.56,19.06l-12.56,3.67c4.28-2.96,9.03-5.45,10.57-10.74-.3-1.82-.68-3.43-1.29-5.17,2.7-4,10.39-9.42,9.43-14.54-.4-2.15-1.46-3.83-3.24-5.06-2.03-.07-3.45.44-5.35,1.06-1.09-3.05-.68-5.53-2.69-8.15-1.85-.5-3.28-.62-5.02.41-4.13,2.42-5.08,9.64-6.06,13.94-1.18-2.35-1.63-4.12-3.86-5.58-3.03,2.77-3.22,7.23-3.38,11.16-.4,9.66.1,18.49-2.04,28.07-4.91,2.01-9.53,4.11-14.14,6.74-1.21.58-2.44,1.34-3.69,1.8-.39.14-.94.33-1.35.14-.08-.14-.13-.18-.11-.37.23-1.51,2.7-3.55,3.62-4.54,3.09-3.35,8.37-7.34,10.04-11.45-.14-3.35-2.07-3.26-2.63-5.65-.83-3.46,2.55-7.19.44-11.22-1.85-.77-3.27-1.07-5.18-.08-2.49,1.3-3.95,4.22-5.35,6.54-1.62.08-2.62-.08-4.17-.41-1.94,1.78-2.27,3.29-2.39,5.91-.4,8.59.19,16.08-1.91,24.57-5.11,2.78-10.19,5.64-15.22,8.57l.54-1.31c2.74-6.64,12.4-14.93,11.72-21.13-1.6-.79-1.79-.46-2.39-2.28-.48-1.44-.68-2.82-.89-4.32-.25-1.82-.38-2.71-1.75-4.05-1.92-.5-3.02-.77-4.88.41-2.64,1.68-2.74,4.39-3.45,7.15-2.28-1.27-2.94-2.02-5.59-1.71-1.13,1.51-1.43,1.78-1.2,3.77.95,7.9,7.8,16.79,2.4,24.66-5.91,8.61-30.89,16.03-36.87,28.78l.76.84c9.67-2.41,26.16-16.8,36.59-22.08,3.4.27,7.13.43,10.36,1.59,6.08,2.21,18.97,11.32,25.13,9.07,1.33-2.04,1.05-3.58.87-5.89,3.35.3,6.88,1.02,10.07-.26,1.4-1.87,1.43-2.05,1.5-4.39-2.19-3.04-5.46-3.72-8.92-4.87.67-1.2,1.37-2.28,2.19-3.38-.37-1.92-.97-2.54-2.36-3.88-3.22.49-6.74.33-9.85.99-8.17,1.73-15.9,5.4-24.17,7.32,7.74-4.24,14.83-8.23,23.08-11.47,1.64-.64.42-.26,2.03-.71,4.32-2.14,9.3-2.5,14.02-3.27,6.94,3.79,16.74,12.81,24.72,12.49,2.2-1.65,1.96-2.36,2.54-4.97,3.08.37,6.37.96,9.46.91,2.3-.03,3.35-.53,4.95-2.09.05-.85.13-1.21-.13-2.12-.8-2.85-2.9-3.86-5.19-5.26-.86-1.26-1-2.14-1.09-3.63l-.09-1.71c-1.76-1.71-3.06-2.38-5.27-3.3-7.47.37-13.8,1.42-21.13,2.71.93-.41,1.85-.82,2.75-1.29,3.2-1.69,5.9-2.45,9.42-3.18.53-.1,1.05-.23,1.57-.35,4.23-1.11,8.3-1.54,12.63-1.91,5.86,3.53,12.1,8.51,19.21,8.43l1.3-1.03c.05-1.88.04-3.72-.04-5.6,4.54-2.48,10.15,4.59,13.78-2.85-.12-2.55-1.09-3.85-2.47-5.89,4.01-3.59,6.62-2.64,8.21-8.79-.27-1.29-.11-2.13-1.23-2.98Z"/>
  <path class="st26" d="M294.23,293.08c8.27-1.91,15.99-5.59,24.17-7.32,3.11-.66,6.63-.5,9.85-.99-1.71-.24-3.34-.43-5.07-.4-.44,0-.87.03-1.31.04-.42,0-2.03.1-2.39-.25-.03-.12-.02-.03.04-.25.47-.07.47-.09.98-.08,1.14.02,2.75.21,3.61-.77.27-.31.36-.64.31-1.05-.01-.1-3.99-.45-5.06-1.11-1.61.45-.4.07-2.03.71-8.25,3.24-15.33,7.23-23.08,11.47Z"/>
  <path class="st12" d="M344.88,269.37c-.9.47-1.82.88-2.75,1.29,7.33-1.29,13.66-2.33,21.13-2.71-.84-.17-1.69-.37-2.54-.5-2.18-.31-3.03-.47-4.84-1.62-.52.11-1.05.24-1.57.35-3.52.74-6.22,1.5-9.42,3.18Z"/>
  <path class="st25" d="M317.16,275.81c-.03.18.03.23.11.37.41.19.96,0,1.35-.14,1.26-.46,2.49-1.22,3.69-1.8l-1.53-2.97c-.92.99-3.39,3.03-3.62,4.54Z"/>
  <path class="st25" d="M373.33,435.21c1.96-.85,3.37-1.46,4.92-2.95.58-.56,1.12-1.16,1.73-1.68,2.23-1.9,2.95-2.72,4.31-5.33-4.37,2.72-8.17,5.56-10.95,9.96Z"/>
  <path class="st25" d="M379.88,158.89c.55.17,1.55-.44,1.88-.58.12-.05.24-.1.37-.15.25-.08.92-.17,1.13-.5.14-.21.11-.5.03-.71-.33-.84-1.37-1.63-1.98-2.23-.23.54-.45,1.08-.7,1.61-.13.28-.31.53-.46.8-.19.37-.6,1.02-.54,1.49.02.15.13.23.27.27Z"/>
  <path class="st25" d="M370.38,437.56c-.08.1-.17.19-.24.3-.19.26-.26.55-.38.85,1.17-.05,2.14-.4,2.98-1.26.35-.37.83-.9.76-1.46-.03-.26-.11-.52-.17-.78-1.57.37-2,1.12-2.95,2.36Z"/>
  <path class="st25" d="M436.35,326.17c.03,1.16-.2,3.46.75,4.46.36.37,1.03.29,1.46.31.23-1.45-.46-2.45-1.32-3.6-.29-.4-.6-.78-.9-1.17Z"/>
  <path class="st25" d="M438.06,230.95c-.19-.05-.92.13-1.08.16-.01,0-1.38.26-1.72.49.55.18,1.16.04,1.74.03.13-.08.86-.42,1.06-.68Z"/>
  <path class="st25" d="M387.79,179.72c.02.21.05.38.26.5.2.1.94-.11.94-.11,0-.25.01-.51.02-.77,0-.1.02-.2.03-.3,0-.29,0-.23-.08-.46-.12-.09-.11-.12-.26-.1-.29.03-.91.34-.99.37.02.21.05.42.07.63,0,.08,0,.17.01.24Z"/>
  <path class="st12" d="M326.67,451.3c.06-.21.38-.95.25-1.31-.43.1-.98.71-1.2.9,0,.3-.11.87.09,1.18.36-.09.66-.56.86-.77Z"/>
  <path class="st25" d="M436.76,350.98l-.28.98c-.04.13-.09.25-.12.38-.11.4-.1.28-.05.58.4-.14,1.09-1.1,1.16-1.17.09-.32.24-.56.15-.87-.26-.1-.6.04-.86.1Z"/>
  <path class="st25" d="M406.9,360.38c-.13-.29-.36-.36-.63-.55-.19.31-1.17,1.51-.97,2.1.09.26.46.35.67.44.15-.27.3-.55.46-.82.09-.14.2-.27.29-.41.11-.17.28-.57.19-.77Z"/>
  <path class="st12" d="M406.8,365.89c.11.55.01.35.18.64.26.13.08.06.57.07-.17-.65-.03-.44-.28-.73-.23-.08-.07-.04-.47.03Z"/>
  <path class="st12" d="M326.58,468.62c-.16.06-1.25.35-1.52.68.34.2,1.42.17,1.53.18.56-.29.35-.13.66-.41-.1-.24-.44-.34-.67-.45Z"/>
  <path class="st25" d="M295.28,479.39c-.1-.04-.2-.07-.3-.1.34.35.68.81,1.22.81s.75-.4,1.03-.77c-.96.38-.98.42-1.94.06Z"/>
  <path class="st25" d="M394.03,418.39c.25.35.1.24.39.37.32-.08.13-.02.58-.21-.17-.16-.27-.3-.51-.26-.15.03-.3.07-.46.1Z"/>
  <path class="st25" d="M435.2,332.82c-.22-.08-.07-.04-.47.04.11.42.02.25.21.52.12.05.24.11.36.16-.02-.64.08-.43-.1-.72Z"/>
  <path class="st25" d="M442.02,303.78c.28.36.12.24.43.4.17-.02.33-.03.49-.07-.42-.32-.42-.37-.92-.33Z"/>
  <path class="st25" d="M303.22,455.51c-.42-.25-.22-.19-.56-.26.28.21.11.1.56.26Z"/>
  <path class="st17" d="M295.43,77.53c1.05-5.89,2.73-11.81,3.47-17.74,1.64-13.18,2.22-26.82,2.77-40.11.09.38.18.77.27,1.15.27,1.11.59,2.16.73,3.29,1.57,12.43-1.09,23.53-1.87,35.8,1.06-1.08,2.26-2.13,3.13-3.38,1.82-2.64,4.1-5.03,5.29-8.06.42-1.07.84-3.03,1.79-3.82.17.05.23.04.32.24.64,1.28.27,4.06.06,5.36-.05.3-.12.59-.17.9-.26,1.52-.29,2.25.74,3.5.6.73,1.21,1.37,1.78,2.14,1.75-7.56,5.01-15.16,7.59-22.5-.26,2.61-.59,5.09-1.03,7.67-.1.57-.17,1.14-.27,1.71-.96,5.59-2.78,11.09-4.2,16.57-2.78,10.66-8.49,22.31-9.67,33.11l2.3-2.57c6.82-12,12.1-24.89,19.78-36.43,4.16-6.24,7.1-10.4,6.76-18.06-.35-7.81-5.9-6.82-9.9-11.18-.59-.64-.72-1.44-.71-2.28.01-1.18.09-2.35-.2-3.51-.6-2.38-2.04-3.88-4.18-5.02-1.97-1.04-5.19-1.04-7.28-.3-.69.24-1.93.9-2.8.78-.67-.5-1.07-1.12-1.42-1.87-.56-1.18-1.05-2.4-1.8-3.48-1.62-2.34-4.74-3.53-7.46-3.85-2.83-.33-5.52.83-7.69,2.62-3.02,2.51-4.61,6.4-4.97,10.26-.07.71-.04,1.46-.22,2.17-.12.47-.27.7-.72.9-3.07,1.34-4.82,3.42-6.25,6.47-1.23,2.61-1.44,5.62-.41,8.34.71,1.87,1.94,2.98,3.75,3.79.94.42,2.23.77,2.77,1.75.31.57.16,1.21-.03,1.79-.68,2.1-.83,3.93-.16,6.09,1.61,5.16,6.45,7.62,10.87,10.05-.5,2.31-.97,4.59-1.38,6.92-.15.88-.35,1.74-.48,2.62-.32,2.06-.64,4.06-1.19,6.07-.24.88-.51,1.75-.71,2.64-.35,1.52-.69,2.9-1.16,4.38l3.49-1.35c.24-1.18.49-2.38.7-3.57Z"/>
  <path class="st7" d="M303.76,122.46c.27-.63.5-1.28.84-1.86.35-.6.76-1.17,1.04-1.81.22-.5.4-1.01.61-1.51.74-1.78,1.15-2.71,1.25-4.59-1.18,1.14-1.37,1.42-2.43,2.67-.55.65-1.11,1.06-1.77,1.59-.9.72-1.31,1.47-1.94,2.44-2.14,3.3-4.86,6.45-7.23,9.61-2.45,4.53-6.52,8.45-10.08,12.12,2.43-5.12,5.38-10.35,7.3-15.65,2-5.53,4.21-10.61,6.47-15.98.36-.84.63-1.71,1.05-2.52.2-.38.43-.75.62-1.13.38-.78.68-1.6,1.08-2.36,1.78-3.33,2.32-5.81,5.67-8.01l-.1-2.1c1.18-10.8,6.9-22.45,9.67-33.11,1.43-5.47,3.25-10.98,4.2-16.57.1-.57.17-1.14.27-1.71.45-2.58.77-5.06,1.03-7.67-2.58,7.34-5.84,14.94-7.59,22.5l-8.79,26.66c-.72,2.23-1.64,4.36-2.47,6.53-1.84,4.03-3.45,8.26-5.12,12.36-1.6,3.92-3.05,7.94-4.72,11.83-.15.32-.3.65-.46.97-.11.23-.24.45-.35.69-4.53,9.94-9.09,20.63-12.92,30.85-1.34,3.57-3.36,6.75-4.98,10.16l1.62.62c10.61-9.37,19.89-23.52,28.22-35.01Z"/>
  <path class="st4" d="M274.56,138.47c-.77,2.57-1.79,5.13-2.74,7.65-.89,2.34-1.65,4.65-2.74,6.91,1.17,1.2,2.12,1.76,3.51,2.7.39.26,1.07.9,1.33,1.13,1.63-3.41,3.65-6.6,4.98-10.16,3.83-10.22,8.39-20.91,12.92-30.85.11-.23.24-.46.35-.69.16-.32.31-.65.46-.97-.36-4.12.73-7.29,1.21-11.34.61-5.09,1.53-10.11,1.99-15.24l-.27-.68c-.46-1.98-.73-3.79-.84-5.83l-3.49,1.35c-.4,1.55-.46,3.1-.87,4.63-1,3.46-1.61,7.02-2.76,10.44-3.63,13.96-8.95,27.2-13.05,40.95Z"/>
  <path class="st25" d="M302.48,89.99c-.37-.21-.74-.41-1.11-.64-2.19-1.32-2.92-1.73-5.53-1.75-.46,5.13-1.38,10.15-1.99,15.24-.48,4.05-1.58,7.22-1.21,11.34,1.67-3.89,3.12-7.9,4.72-11.83,1.68-4.11,3.28-8.34,5.12-12.36Z"/>
  <path class="st4" d="M300.58,103.46c-.41.76-.7,1.58-1.08,2.36-.19.38-.42.75-.62,1.13-.42.82-.7,1.68-1.05,2.52-2.26,5.38-4.47,10.46-6.47,15.98-1.92,5.3-4.87,10.54-7.3,15.65,3.56-3.67,7.63-7.59,10.08-12.12-.17-7.12,5.85-16.13,8.55-22.75.18-.44.35-.9.53-1.35.95-3.11,2.32-6.32,3.05-9.44-3.36,2.2-3.89,4.68-5.67,8.01Z"/>
  <path class="st26" d="M306.25,95.45c-.72,3.12-2.09,6.33-3.05,9.44,0,.95,0,1.8-.11,2.73-.06.45-.21,1.39.09,1.82.46.68,1.75.71,2.41.79.45.06,1.12-.09,1.43-.44.25-.3.3-.71.42-1.07.21-.65.85-1.63,1.52-1.89.65-.25,1.5-.23,2.17-.28.36-.03.73-.06,1.09-.09,3.48-1.98,7.84-8.04,10.75-11.05-1.8-.64-3.76-1.33-5.66-1.57-1.08-.13-2.17-.09-3.13-.68-1.2-.74-2.17-1.37-3.55-1.77-.24-.07-.49-.12-.74-.19-.49-.14-.97-.29-1.45-.43l-2.3,2.57.1,2.1Z"/>
  <path class="st20" d="M294.13,128.99c2.37-3.16,5.09-6.31,7.23-9.61.63-.97,1.04-1.71,1.94-2.44.66-.53,1.22-.94,1.77-1.59,1.07-1.25,1.25-1.53,2.43-2.67.17-.22.33-.44.5-.65,1.47-1.83,2.85-3.66,4.22-5.57-.36.03-.73.06-1.09.09-.67.05-1.52.03-2.17.28-.67.26-1.31,1.24-1.52,1.89-.12.36-.16.77-.42,1.07-.3.36-.97.5-1.43.44-.66-.08-1.95-.11-2.41-.79-.29-.43-.14-1.37-.09-1.82.12-.93.12-1.78.11-2.73-.18.45-.35.9-.53,1.35-2.7,6.62-8.72,15.64-8.55,22.75Z"/>
  <path class="st4" d="M302.48,89.99c.83-2.18,1.76-4.31,2.47-6.53l8.79-26.66c-.57-.77-1.18-1.41-1.78-2.14-1.03-1.25-1-1.98-.74-3.5.05-.3.12-.6.17-.9.21-1.3.57-4.08-.06-5.36-.1-.2-.15-.19-.32-.24-.95.79-1.37,2.75-1.79,3.82-1.19,3.03-3.47,5.42-5.29,8.06-.86,1.25-2.07,2.31-3.13,3.38-.88,5.94-2.67,11.74-3.51,17.71-.45,3.18-.8,6.22-1.72,9.3l.27.68c2.61.02,3.34.43,5.53,1.75.36.23.74.43,1.11.64ZM301.73,72.89c1.07-2.99,1.79-5.89,2.62-8.95.46.36.98.64,1.33,1.11,1.43,1.86-.49,5.76-.63,7.81-.15,2.27-.46,4.1-1.12,6.29-.88-.63-1.71-1.06-2.2-2.04-.59-1.17-.43-3.02,0-4.22Z"/>
  <path class="st0" d="M303.93,79.14c.66-2.19.96-4.02,1.12-6.29.14-2.05,2.06-5.95.63-7.81-.35-.46-.88-.75-1.33-1.11-.83,3.06-1.54,5.96-2.62,8.95-.43,1.2-.59,3.05,0,4.22.49.97,1.32,1.41,2.2,2.04Z"/>
  <path class="st22" d="M300.8,59.92c.77-12.27,3.44-23.36,1.87-35.8-.14-1.13-.46-2.18-.73-3.29-.09-.38-.18-.77-.27-1.15-.55,13.29-1.13,26.92-2.77,40.11-.74,5.93-2.42,11.85-3.47,17.74-.21,1.19-.47,2.38-.7,3.57.11,2.04.38,3.85.84,5.83.92-3.08,1.27-6.13,1.72-9.3.85-5.97,2.63-11.76,3.51-17.71Z"/>
</svg>
