<?xml version="1.0" encoding="UTF-8"?>
<svg id="Layer_1" xmlns="http://www.w3.org/2000/svg" version="1.1" viewBox="0 0 2048 2048">
  <!-- Generator: Adobe Illustrator 30.3.0, SVG Export Plug-In . SVG Version: 2.1.3 Build 182)  -->
  <defs>
    <style>
      .st0 {
        fill: #a18474;
      }

      .st1 {
        fill: #091615;
      }

      .st2 {
        fill: #f1b495;
      }

      .st3 {
        fill: #f7ecd7;
      }

      .st4 {
        fill: #e7c594;
      }

      .st5 {
        fill: #589f9f;
      }

      .st6 {
        fill: #499798;
      }

      .st7 {
        fill: #ebd7bb;
      }

      .st8 {
        fill: #070504;
      }

      .st9 {
        fill: #d66a4f;
      }

      .st10 {
        fill: #ec7d5a;
      }

      .st11 {
        fill: #36787a;
      }

      .st12 {
        fill: #7c7364;
      }

      .st13 {
        fill: #c7c2b2;
      }

      .st14 {
        fill: #f8f1e4;
      }

      .st15 {
        fill: #7c4738;
      }

      .st16 {
        fill: #8e493b;
      }

      .st17 {
        fill: #ef9c78;
      }

      .st18 {
        fill: #e97854;
      }

      .st19 {
        fill: #ee906b;
      }

      .st20 {
        fill: #121210;
      }
    </style>
  </defs>
  <path class="st20" d="M2039.95,235.65c-54.56,15.91-119.98,99.47-179.39,122.74l-11.36-10.49c-2.15,16.08-4.39,9.95,2.26,20.61,32.63,8.03,148.26-98.21,183.81-121.25-35.9,77.82-147.02,222.17-230.61,248.24-25.71,8.02-49.98,9.82-72.56,19.23-48.77,22.3-110.8,18.82-160.94,2.81l-.18,8.84c-8.36,3.62-8.22,3.21-17.45,3.75l-2.24,5.97,5.02,5.96-2.11,4.14c33.76,33.07,194.05,29.82,221.23-8.56-5.16-2.38-41.09,9.75-51.78,12.34-47.74,11.56-87.95,4.7-136.64-2.16,32.2-3.21,62.63-.18,93.91-4.23,30.57-3.96,63-15.04,93.1-22.34,44.55-14.21,56.53-21.52,95.19-48.29-35.7,40.18-89.88,103.84-128.47,137.99-36.16,48.87-173.21,155.25-224.28,193.64-114.07,85.35-231.87,184.77-359.66,247.45-89.42,43.85-188.26,79.66-278.63,124.34-65.03,32.15-140.73,50.15-200.6,95.91-84.62,61.39-76.69,207.78-205.71,224.69-35.26,1.29-49.53-10.26-75.9-31.9-61.8-76.59-24.25-171.28,43.14-228.77l6.25,13.02,5.17-.62c16.67-27.35,25.64-104.79,48.48-134.34-1.53-2.12-2-4.84-1.26-7.35.73-2.52,2.58-4.55,5.01-5.52,10.89-23.6,10.99-46.01,29.96-62.29-6.4-6.18,10.52-32.28,15.11-36.61.96-.91,3.01,2.71,6.01,3.63,6.6-3.69,1.03-9.94,1.5-15.54-.47.55,21.3-5.8,25.48-7.66l1.9-.72,2.32,1.75c18.4-2.77,39.1-23.08,42.18-42.39l.7,1.29c4.37-15.23-3.3-14.88,9.41-32.12,9.3-6.33,14.75-4.75,26.25-4.33l4.46.2,3.01-4.01c-12.78-6.56-8.52-1.89-14.99-12.66l2.37-8.34c12.87-8.7,5.76-5.59,23.1-7.19,8.31-8.92,11.83-9.15,11.66-18l-9.38-1.4.39-4.08,8.27-5.8c10.68,3.25,10.81,4.4,21.33,1.83,4.4-6.99,2.61-6.38,8.8-10.3l10.11,9.1,3.25-1.05-6.64-12.96,3.5-7.6c9.06-2.32,12.3-3.65,20.26-8.55l4.26,1.33v.3c.67-3.48,2.32-6.74,4.86-9.35,2.87-2.96,6.61-4.79,10.6-5.36-3.79-.08-6.46-.37-11.72-.87l-1.76-4.86c10.11-17.48,10.7-35.23,17.71-53.1,2.38-6.05,31.45-8.99,37.12-10.6,7.44-7.4,13.53-13.46,18.29-18.19l7.04-.13c5.28-10.93,5.16-13.49,15.42-19.85,8.2,1.41,11.04,1.82,19.32,2.05l5.31-5.41-1.68-4.3,4.85-2.88-2.2,6.13,4.22-7.23-2.29-4.6c-8.39,3.79-4.1,2.17-12.86,4.85l.07-9.81c-14.07-9.39-24.41-23.24-10.29-36.73,18.21-17.39,25.84,2.71,32.82,11.44l4.81-7.86c14.09-5.95,17.21-4.56,33.29-3.2l4.96.46-2.13-5.22,13.54-12.26,5.05.39,3.72,5.33,12.23,1.99c-1.9-6.33-.64-13.18,3.37-18.43,4.02-5.25,10.31-8.25,16.91-8.07,3.61-3.98,4.33-5.35,7.31-9.81l-3.51-.91-.3-9.02c6.52-12.88,18.73-28.8,31.03-35.68,2.01-21.04-1.54-22.45,17.63-32.44-.98-4.38-4.4-10.68-6.45-15.07,3.17-11.14-.21-7.38,8.48-13.01l12.72,5.31c17.9-8.64,13.9-12.35,27.94-23.88,7.31.95,12.17,1.93,19.37,3.38l1.02-6.77c1.7-16.44,5.75-24.03,27.41-24.68,5.93-.18,12.46,23.2,14.91,29.26,5.24-1.97,6.78-.75,12.27.08,13.47-6.35,17.15-6.84,31.96-10.09.27-7.67-3.88,1.85-9.86-12.84,7.34-22.85,19.44-20.19,41.46-17.69,8.39-9.6,11.16-22.83,15.19-35.38,13.95-6.03,24.37-2.21,39.28,1.9-2.51-11.9-11.07-21.49-1.49-31.1,26.73-26.81,32.65,8,35.04,24.42,6.62-43.74,4.13-7.69,20.31-33.16l-4.28-9.06c4.38-7.1,1.25-4.79,9.42-6.84l7.92,9.08c4.21-13.52,8.54-24.96,22.18-30.09,2.68-27.47-11.44-45.59,33.93-33.22,17.52-28.08,27.05-10.66,24.23,4.9-.22,1.24,2.22,3.37,4.03,3.89,3.47-1.43,5.03-5.23,8.7-6.25,2.21,1.3,1.13.45,3.11,2.68l-.03.06c.63.64,1.26,1.28,1.89,1.92-3.16-5.91-5.87-14.14,3-16.09,6.89-1.51,12.38-18.68,14.85-25.36l4.53-12.54c.24-.72.47-1.44.71-2.16l1.74-4.85c-25.85-27.46-47.77,3.64-65.97-22.72l-4.65,1.75c2.43,24.55,2.2,13.68-13.65,38.99l6.33,3.36c-17.63,3.96-24.19,14.04-39.72,14.39l-13.04-26.97c-9.15.28-4.59-.71-13.2,6.29-4.88,11.23-5.27,14.22-7.96,25.92-9.01,7.98-3.86,6.35-14.85,7.31l-12.28-10.02c-10.98,4.18-33.69,23.17-42.83,31.55-8.4-5.89-10.68-10.59-16.35-19l-6.79-1.43c-7.96,13.56-5.57,14.74-17.11,20-10.39-3.85-14.72-7.59-23.82-5.77-.53,18.64,9.76-1.32,4.59,18.39l-6.38,2.21c-7.44,2.63-8.79,3.24-15.56,7.75l-1.71,16.87c-22.27,8.2-45.76,11.74-68.54,17.89-27.03,7.29-13.2,38.46-27.38,54.53-6.2-2.08-3.29-.24-8.04-6.49-18.97,4.71-43.4,23.32-59.02,25.05-6.08-6.11-4.35-3.88-8.82-11.81-17.91,7.45-23.98,41.15-40.38,57.49-7.88-3.28-4.32-1.1-10.73-6.46-11.93,2.28-25.09,4-36.05,8.52.18,6.86-3.62,47.63-7.64,50.34-33.55,22.62-87.92,48.63-107.93,86.22l6.45,13.31-2.13,4.92c-15.66,2.82-16.82,3.23-29.04,13.38l-5.01-3.35c-15.24,12.19-2.63,15.21-12.96,24.61l-7.03-2.23-1.22,6.23c6.24,7.46,2.2,5.29,11.62,7.74-10.86,9.67-16.85-1.06-33.28,10.69l-6.6-6.53c-20.44,26.6-48.81,69.63-67.08,98.77-3.69-14.54-7.45-29.07-10.3-43.79,8.68-7.97,74.57-65.65,68.83-72.29-8.67-1.82-52.85,47.22-65.21,54.27-3.1-1.06-6.38-17.89-5.52-19.24,8.98-15.27,34.56-26.26,47.72-39.01,7.95-7.7,64-43.86,62.19-50.5-12.31-7.91-98.6,70.78-110.81,73.71-3.28-2.28-4.89-15.29-4.05-18.93,1.71-7.42,22.91-18.48,28.67-22.4,41.04-27.94,80.85-45.89,118.24-78.92-44.83,20.57-93.25,49.97-134.33,77.52-15.38,14.53-25.76,1.66-12.73-15.59,15.71-20.8,159.04-89.33,160.35-98.33-2.01-4.42-5.01-3.58-9.47-1.42-55.17,26.61-106.48,57.26-156.79,91.64-4.87,3.32-4.03-18.22-2.23-20.09,19.16-19.91,65.24-43.21,87.55-55.61,29.64-16.24,59.77-31.14,91.77-42.25,4.31-1.5,28.15-7.93,20.37-17.16-18.72-6.27-170.86,80.2-193.29,96.26-27.89,19.96-21.38-9.18,3.57-27.27,68.11-49.38,209.61-118.19,294.04-98.58.17-4.11.31-1.37-2.08-7.96l-21.08-5.13c-71.89-1.23-290.15,69.61-305.22,138.47,25.49,57.36,24.67,150.96,40.03,218.81-39.13,61.16-60.54,109.8-86.75,177.07-36.35,17.52-74.46,36.64-89.89,77.35-3.08,8.14-5.14,20.71-5.65,33.46,25.13-53.43,34.36-65.88,88.36-95l-2.63,6.03c-7.6,18.65-20.47,42.54-29.39,61.99-3.71,12.65-10.11,26.76-14.91,39.35-1.19.63-2.38,1.25-3.56,1.87-6.46,1.75-12.52,4.82-17.91,8.75.07.53-4.73,3.79-5.87,2.19-15.56-21.68,22.4-40.18,31.36-55.91.46-1.39.92-2.78,1.39-4.17-7.26-2.62-35.67,26.84-46.85,35.18-.55,14.22.83,28.64,4.95,37.4,11.03,2.78,11.58-.44,24.86-6.46,2.69,19.82-18.39,70.57-29.53,87.67-20.15,30.94-48.6,52.66-68.84,84.48-16.4,3.44-34.31,6.8-50.43,10.86-98.9,22.09-192.77,61.54-271.22,126.59-20.74,17.2-63.39,47.72-55.61,77.56,21.69,21.37,53.3,21.63,80.26,33.45,51.14,22.43,101.53,43.68,144.67,78.82,69.9,56.94,93.65,126.76,127.92,206.62,5.45,12.7,25.2,26.44,32.73,38.62,16.06,24.92,36.94,75,67.71,82.05,61.9-21.48,108.77-230.67,113.9-289.67,6.04-60.69,7.77-134.47-1.3-194.72,19.18-26.51,43.53-76.97,59.48-94.73,31.56-4.96,93.92-22.57,121.95-38.37,30.16-17,37.97-71.03,45.79-104.36,39.59-14.23,109.22-48.45,141.57-56.65.71,1.54,1.41,3.08,2.12,4.61-3.62,29.92,9.26,28.87,30.27,47.86,21.51,19.44,61.24,54.38,65.34,85.81,1.03,7.9.66,9.18,3.17,17.89l1.18.61c11.43-24.15,85.91-152.84,69.49-169.59-5.65.53-6.48,11.76-7.83,16.56-11.2,40.02-30.18,83.76-54.4,117.34-4.12,5.72-15.98-9.44-11.13-20.21,9.54-21.2,56.55-91.44,49.54-112.04-13.65,21.87-38,81.22-56.6,103.84-.9.61-2.77.5-3.55.04-19.65-12.37,1.16-28.32,6.88-41.24,9.42-21.28,32.43-45.87,38.05-67.44-19.13,3.99-47.91,79.08-63.59,85.52,1.32-.54-19.09-3.9-8.99-17.95l10.59-14.93c7.48-10.47,40.33-46.82,33.07-55.85-14.19,6.94-39.36,61.08-55.9,69.71-2.14,1.12-17.5-5.72-8.54-17.09,17.19-21.8,49.15-45.32,59.68-69.64-15.25,9.1-69.79,69.96-74.33,68.66-20.46-5.88-14.18-40.41,3.68-49.03,57.73-27.86,118.6-48.8,175.78-77.16-20.29,86.98-26.07,172.57-92.49,241.04l-9.17,9.57,6.1,3.18c63.16-14.4,98.01-206.31,107.54-258.83,127.23-63.75,195.09-124.36,306.72-204.54,7.46,39.17,11.51,92.3,20.54,127.51l6.03,3.49c2.87-.53,6.12-.9,8.3-2.7,76.56-63.54,115.21-179.55,141.11-264.98,72.77-66.35,128.41-119.67,196.4-190.45,34.41-38.97,224.09-252.44,215.06-297.22l-6.7-2.5ZM1180.92,394.89c1.36-1.98,4.42-1.67,6.37-1.9,1.55-.84,3.11-1.65,4.65-2.51,1.98-1.1,2.53-1.26,4.95-1.89l.28.26c-1.36,4.18-9.96,9.58-13.33,12.29-1.94,1.95-.98,1.47-2.47,2.05-.84-.41-1.03-.34-1.42-1.45-.77-2.23-.36-4.9.97-6.84ZM991.86,437.5c.74-.16.7-.04,1.24.33.37,1.03.38.81.33,2.14-.02.48-.12.95-.16,1.42-.1,1.22-.16,2.44-.24,3.66-.25.03-2.47.33-2.96.27-.77-.09-1.35-.56-1.74-1.23-.31-.52-.44-1.13-.67-1.69l-.97-2.35c.24-.13,3.68-2.22,5.18-2.56ZM691.11,746.04c3.81,1.71,8.83,3.04,11.55,6.56.18.24.12.74.01.96-.74,1.45-4.43,3.49-5.24,4.04-.94.63-5.24,4.34-7.45,3.6-.73-.24-1.02-.89-1.45-1.46,0-.38.04-.76-.03-1.13-.14-.83-.44-1.63-.6-2.46-.16-.78-.65-4.39-1.15-5.79-.99-2.79-2.42-5.4-3.61-8.11,2.65,1.27,5.29,2.59,7.97,3.79ZM488.21,1889.78c-9.28,14.89-20.74,34.07-38.51,37.99-1.06-6.11,49.29-116.94,55.77-136.62,20.6-62.56,40.38-141.52,36.72-207.74l-3.98-1.76c-5.03,9.17-22.05,127.02-28.63,153.53-7.44,29.99-45.12,161.01-71.31,176.71-5.97-3.99-8.77-8.12-12.69-14.06,5.72-27.24,22.97-56.24,33.63-82.25,17.31-42.2,71.45-191.26,55.61-229.54-13.56,22.54-24.3,102.64-33.41,133.32-17.73,59.7-39.9,116.38-66.79,172.53-5.76-15.57-13.45-29.59-21.45-44.06,43.88-71.54,87.45-184.61,90.16-268.65-4.74,1.58-11.71,33.77-13.86,41.36-21.92,77.58-45.13,150.31-84.04,221.62-9.28-10.13-16.75-21.46-24.54-32.73,30.14-44.34,95.84-184.92,100.13-236.29l-3.55-2.48c-14.46,18.7-22.5,54.72-31.2,77.35-18.44,47.97-38.69,101.45-66.62,144.51-.82,1.26-1.67,2.5-2.5,3.76-9.3-13.08-16.54-27.72-24.22-41.8,19.63-26.58,100.39-167.66,99.84-197.26-16.13,8.54-80.33,150.52-98.44,180.11l-19.64-27.43c20.59-37.36,82.26-119.91,82.34-158.97-14.48,23.57-28.73,47.29-42.75,71.14-12.31,22.24-27.19,53.46-46.1,70.15l-6.63-10.03c-7.51-50.78,60.23-97.26,75.81-142.81l-3.33-2.86c-18.78,19.58-73.91,114.48-89.96,119.21-7.09-6.81-9.74-8.63-12.57-17.88,23.94-39.02,56.6-72.32,80.6-111.71l-1.24-2.86c-34.33,31.49-62.16,71.63-89.81,109.05-9.93-8.54-20.3-16.59-30.54-24.76,27.65-39.41,67.01-68.51,95.19-106.89l-4.18-.54c-37.52,28.06-66.87,61.23-98.01,95.92-10.55-7.27-21.8-13.78-32.67-20.58,36.14-35.35,77.91-61.62,114.75-95.3l-4.56-1.33c-47.54,22.4-83.93,58.26-121.87,93.64l-28.03-17.83c29.66-32,63.92-58.61,100.75-81.85,14-8.84,37.73-15.99,48.33-27.78l-4.44-3.89c-29.44-1.09-99.09,58.3-122.46,79.09-8.13,7.23-20.93,22.29-30.08,26.7-9.21,4.44-35.03-6.15-45.28-8.96,31.48-32.14,68.62-59.23,107.3-82.11,18.84-11.15,39.41-20.07,56.4-33.97l-.77-4.74c-44.75,6.85-133.37,80.89-170.21,112.46l-35.48-12.62c39.57-36.38,83.86-67.26,131.69-91.79,20.15-10.22,74.71-26.48,83.74-44.29-53.71,8.83-132.61,57.05-176.06,90.31-15.68,12-32.89,32.19-50.29,40.49-4.83,2.31-10.32-1.88-15.01-3.78,10.63-37.7,136.21-106.66,171.46-122.65,23.24-10.54,54.01-17.21,74.97-30.63l-2.71-4.78c-38.75-2.89-161.33,72.08-193.18,95.19-22.24,16.14-41.62,37.88-64.89,51.86l.78-5.82c75.64-110.01,217.94-157.58,341.89-186.69,3.9-.76,7.89-.22,11.84-.05.59,7.39,1.19,4.52-1.65,11.57-6.04,14.99-12.84,28.79-15.44,44.93-5.63,34.83,1.44,69.25,22.56,97.83,19.18,25.95,48.17,44.31,80.45,48.03,39.95,4.61,72.21-12.29,102.09-36.67,16.74,124.25-2.92,313.38-69.21,419.71ZM750.33,1316.51c-1.19,1.32-10.12,2.42-10.82-.56-2.08-8.77,15.07-42.59,11.12-48.1-11.03-5.33-21.69,42.59-23.24,50.65-1.86,9.64-12.74,9.97-15.42,5.2.41-8.73,13.29-33.44,10.24-41.93-1.38-1.16-.56-.74-2.56-1.09-5.48,2.31-12.6,28.27-14.66,34.79-4.49,10.43-5.16,14.5-15.54,19.93l-6.07-1.22c-.46-.09-.92-.18-1.37-.28-1.45-5.62,6-13.95,8.93-18.72l3.47-5.76c1.26-9.4,8.69-20.97,2.23-24.73-12.28,12.86-10.64,22.37-18.18,35.13-5.87,7.68-6.02,18.55-13.45,25.1-3.29,3.18-8.98,1.22-10.78-2.78-2.82-6.3,10.89-24.62,10.16-27.47-3.43-13.11-18.84,18.64-18.51,22.16.1,1.02-3.27,18.09-9.98,13.78-4.99-3.35-2.63-7.81-.84-12.06,12.08-28.65,36-44.68,58.78-64.49l2.76-1.49c36.69-20.08,47.76-26.97,87.24-44.78-6.75,24.37-15.71,69.11-33.46,88.71ZM1479.18,889.08c-1.24-1.09-4.78-3.23-4.6-5.67.25-3.41,3.79-6.33,6.24-8.25,4.18-3.28,8.39-6.5,12.54-9.83,2.26,1.8,1.67.82,2.39,2.49-.59,5.83-3.82,9.12-7.99,13.1-2.85,2.73-5.75,5.4-8.58,8.16ZM1611.06,764.36c-4.38,12.36-8.35,26.08-13.96,37.74-21.2,62.21-49.11,116.46-93.52,165.88-17.86,19.87-22.01,7.47-12.46-2.87,33.78-36.54,83.12-111.84,94.94-158.86-11.61,9.54-14.52,20.62-22.69,34.2-6.46,12.53-63.44,121.34-76.8,114.95-6.17-9.41,17.02-34.31,23.73-43.15,20.61-27.11,32.51-47.95,47.88-77.63l-3.12-4.77c-7.5,15.19-59.58,98.3-71.84,100.92l.18-.36-2.48-2.78c.19-4.66,1.93-9.21,5.3-12.4,28.76-27.25,41.69-55.43,58.1-90.01l-1.77-1.37c-1.31.24-26.27,42.38-36.2,51.68-2.94,9.1-12.81,28.53-24.09,27.04-3.12-11.55,14.96-23.4,24.09-27.04-.28-10.72-.39-21.45-.32-32.17-8.13,6.8-31.21,34.13-38.51,18.88,3.37-11.3,14.41-17.29,24.51-25.57,12.84-9.54,57.17-43.88,68.01-50.22,5.87-5.05,52.9-44.24,56.45-41.11-.28,3.83-4.12,15.25-5.44,19.02Z"/>
  <path class="st20" d="M304.88,1477.42l.97,2.53c.27-.24.54-.48.8-.72l-1.77-1.81Z"/>
  <path class="st3" d="M1762.11,1322.86c-.27,7.05-.73,13.04-1.9,19.94-.31,1.83-.41,4.77.75,6.39,2.4,3.34,8.14,3.26,11.34,3.79.58.09,1.15.21,1.72.31l1.83-5.5c.21-.62.46-1.24.66-1.86,1.26-3.9,1.59-7.8-.27-11.56-2.89-5.84-8.66-8.66-14.13-11.51Z"/>
  <path class="st18" d="M411.71,1421.37l3.95-2.93,4.75,1.8,7,2.54c23.78,8.81,27.85,9.05,50.91-2.45,6.74-8.9.25-52.43,3.8-76.67,9.47-16,13.25-16.16,28.33-26.3,16.14-10.85,8.87-30.78,14.81-45.88,12.86,1.62,18.22,3.09,31.11.48-2.06-19.78-3.15-23.02.76-41.99,7.55-9.19,2.93-6.66,13.77-8.8,52.63,22.96,49.6-6.92,71.79-49.62l10.79,5.43,5.94-1.98c4.48-16.33,2.87-11.28-8.47-31.56,6.08-17.1,20.63,5.23,41.87-36.57l6.33-1.06c6.4,6.46,2.88,4.61,9.86,6.71,5.23-15.29,4.81-30.26,5.62-46.55,5.5,5.84,5.08,5.58,12.31,9.01,11.76-4.27,25.73-21.14,35.13-30.88,8.57.31,17.14.46,25.72.44,14.98-12.29,5.57-25.37,14.93-42.66,14.22-26.26,43.79-13.31,61.91-27.55.41-7.41-.28-8.1,2.07-14.86q6.93,5.69,15.09,9.36c9.49-3.35,8.85-3.01,15.04-11,2.6-17.31,7.33-28.76,1.45-43l8.54,1.28c3.94,6.98,1.17,4.28,8.39,8.03,24.43-11.04,1.26-.98,15.37-20.38,12.72-2.54,53.75,3.72,67.41,6.81,12.39-15.2,6.11-14.5,20.58-21.45,2.17-1.04,13.81-39.15,26.73-33.81.75.31,13.01.33,11.85.3-14.09-73.49,19.75-30.12,43.65-82.86,14.39,3.03-1.36,0,11.08,14.6,36.61-3.66,16.99-27.41,21.45-43.79,2.16,9.27,3.79,8.71,11.28,16.83l6.79.18,5.12-7.23c.65-11.72.23-14.17,3.87-25.52,9.56-2.74,15-5.2,24.12-9.03,1.12-4.7,1.75-7.79,3.29-12.28,1.52-19.96-1-18.33,9.52-31.13l4.37,9.14c21.25,2.66,54.55-31.29,78.01-32.75,8.35-.52.2,3.15,11.51-3.73l1.86,9.66c5.85,3.18,2.9,3.44,11.96-4.51,24.61-21.6,31.51-18.41,62.94-19.11,10.02-8.57,8.15-13.33,12.44-29.09,8.51,5.06,8.49,4.11,18.61,3.18,15.8-19.08,34.55-48.91,43.58-71.86,7.92,3.54,3.96,2.98,11.78,2.27,6.84-8.35,8.95-12.44,18.99-16.56,9.16,9.14,18.46,23.37,31.53,17.16,5.23-7.52,3.06-9.69,2.78-21.13-6.1-6.74-11.87-13.77-17.29-21.07-43.86-60.03-40.01-139.98-28.09-208.74-20.18,1.8-9.13,44.91-22.96,53.18-8.38-2.55.57-33.84-27.59-22.86-1.61.63-8.22-3.89-14.32-4.26-16.05,4.48-16.4,5.15-32.61,3.3-13.64,5.13-17.97,16.57-22.18,30.09l-7.92-9.08c-8.17,2.06-5.05-.25-9.42,6.84l4.28,9.06c-16.18,25.47-13.69-10.59-20.31,33.16-14.74,10.44-15.92,12.11-33.55,6.68-14.91-4.12-25.34-7.94-39.28-1.9-4.03,12.54-6.8,25.77-15.19,35.38-22.02-2.5-34.12-5.16-41.46,17.69,5.98,14.68,10.13,5.17,9.86,12.84-14.81,3.26-18.49,3.75-31.96,10.09-5.49-.83-7.03-2.05-12.27-.08-15.34,18.17-26.46,22.26-43.34,2.19-7.2-1.45-12.06-2.42-19.37-3.38-14.04,11.53-10.04,15.24-27.94,23.88l-12.72-5.31c-8.69,5.63-5.31,1.87-8.48,13.01,2.05,4.39,5.47,10.7,6.45,15.07,22.4,19.76,14.86,43.22-17.63,32.44-12.29,6.88-24.51,22.8-31.03,35.68l.3,9.02,3.51.91c-2.99,4.46-3.7,5.83-7.31,9.81,10.53.29,19.14,8.47,19.97,18.96.83,10.5-6.39,19.93-16.74,21.87s-20.5-4.24-23.52-14.33l-12.23-1.99-3.72-5.33-5.05-.39-13.54,12.26,2.13,5.22-4.96-.46c-16.08-1.37-19.21-2.75-33.29,3.2l-4.81,7.86c-7.93,15.25-7.69,15.13-22.53,25.29l-.07,9.81c8.75-2.68,4.46-1.07,12.86-4.85l2.29,4.6-4.22,7.23,2.2-6.13-4.85,2.88,1.68,4.3-5.31,5.41c-8.29-.24-11.12-.64-19.32-2.05-10.26,6.36-10.14,8.92-15.42,19.85l-7.04.13c-4.76,4.73-10.85,10.79-18.29,18.19-5.68,1.6-34.75,4.54-37.12,10.6-7.01,17.87-7.59,35.63-17.71,53.1l1.76,4.86c5.26.51,7.94.8,11.72.87,1.76-.25,3.55-.28,5.35-.01,9.28,1.4,16.02,9.56,15.64,18.93-.38,9.38-7.75,16.97-17.11,17.62-9.36.65-17.71-5.85-19.38-15.09-.41-2.26-.37-4.55.05-6.75v-.3s-4.26-1.33-4.26-1.33c-7.97,4.9-11.2,6.23-20.26,8.55l-3.5,7.6,6.64,12.96-3.25,1.05-10.11-9.1c-6.19,3.92-4.4,3.31-8.8,10.3-10.52,2.57-10.65,1.42-21.33-1.83l-8.27,5.8-.39,4.08,9.38,1.4c.17,8.85-3.35,9.08-11.66,18-17.34,1.6-10.23-1.5-23.1,7.19l-2.37,8.34c6.47,10.77,2.21,6.1,14.99,12.66l-3.01,4.01-4.46-.2c-11.49-.42-16.94-2-26.25,4.33-12.71,17.23-5.04,16.88-9.41,32.12l-.7-1.29c-3.08,19.31-23.78,39.62-42.18,42.39l-2.32-1.75-1.9.72-1.58,5.22c-1.81,1.3-3.2,2.41-4.07,4.54l-.2-.08c-.06,4.07,10.17,6.99,12.23,10.64-3.64,14.08-25.66,9.55-18.13,30.84,5.49-7.94,11.37-13.31,14.09-.14-3.25,8.64-1.45,5.54,2.61,12.84,4.12,10.14-10.63,7.12-12.03,15.99-.89,5.7-5.95,3.78-8.97,1.6-8.24-5.96-4.2-8.1-14.39-13.24-9.09-4.59-4.75-6.89-17.66-12.04-18.97,16.28-19.07,38.69-29.96,62.29,4.11-1.64,8.79.15,10.76,4.12,1.97,3.96.57,8.78-3.22,11.06-3.79,2.28-8.7,1.28-11.29-2.31-22.83,29.55-31.8,106.98-48.48,134.34l-5.17.62-6.25-13.02c-67.39,57.48-104.93,152.17-43.14,228.77,15.21-14.09,27.45-23.57,15.74-43.7ZM1376.62,389.14c.7-.98,1.48-1.89,2.18-2.86,1.38-1.93,2.71-3.9,4.07-5.85,1.55.51,3.09,1.03,4.64,1.52,4.04,1.27,7.89,2.42,11.35,5,5.3,3.94,8.67,9.54,9.38,16.1.94,8.56-2.46,15.32-7.89,21.77-.68.81-1.44,1.55-2.14,2.35-1.38,1.58-2.73,3.18-4.09,4.77-5.56-1.43-11.7-2.51-16.71-5.44-4.42-2.58-6.96-6.98-7.79-11.93-1.47-8.83,1.89-18.32,6.99-25.42ZM1320.44,519.34c.92-5.55,4.91-10.09,10.29-11.74,7.33-2.24,15.16,1.47,18.07,8.56,2.91,7.09-.07,15.23-6.87,18.78-4.99,2.6-11.02,2.16-15.57-1.15-4.55-3.3-6.85-8.9-5.92-14.45ZM1237.91,469.68c5.82-3.33,12.98-3.27,18.74.16,5.76,3.42,9.24,9.69,9.09,16.39-.14,6.7-3.88,12.81-9.79,15.98-8.96,4.82-20.14,1.54-25.08-7.36-4.94-8.9-1.8-20.12,7.03-25.17ZM1161.96,554.26c5.22-3.48,11.93-3.76,17.42-.72,5.48,3.04,8.81,8.89,8.61,15.15-.19,6.26-3.87,11.9-9.53,14.6-7.92,3.78-17.41.79-21.75-6.84-4.34-7.63-2.05-17.31,5.25-22.19ZM874.73,742.12c6.41-1.02,12.88,1.48,16.92,6.56,4.04,5.08,5.03,11.94,2.6,17.96-2.44,6.02-7.93,10.26-14.37,11.09-9.75,1.26-18.71-5.54-20.12-15.27-1.41-9.73,5.26-18.79,14.97-20.35ZM715.02,919.66c.82-5.34,4.63-9.75,9.8-11.32,6.84-2.08,14.15,1.3,16.99,7.86,2.85,6.56.32,14.21-5.87,17.77-4.68,2.7-10.5,2.48-14.96-.57-4.46-3.05-6.78-8.39-5.96-13.73ZM646.52,1014.83c4.5-1.38,9.4-.17,12.73,3.16,3.33,3.32,4.57,8.21,3.21,12.71-1.36,4.51-5.09,7.9-9.7,8.82-6.66,1.34-13.2-2.79-14.86-9.38-1.66-6.59,2.13-13.32,8.63-15.31ZM534.72,1133.13c.44-5.17,3.64-9.7,8.37-11.84,7.1-3.22,15.48-.16,18.85,6.88,3.36,7.04.48,15.48-6.49,18.98-4.64,2.33-10.18,1.97-14.47-.94-4.3-2.91-6.69-7.91-6.25-13.09Z"/>
  <path class="st2" d="M532.83,1424.25c3.45-4.72-3.03-19.56-5.37-27.73,10.12-18.3,45.66-24.02,54.91-44.88,4.43-10,18.9-24.26,21.2-34.27,4.56-19.87-3.09-34.82,14.05-49.62l18.67,1.77-6.77-4.3c3.4-17.83,28.32-54.08,46.8-58.11l7.84,6.78c9.61,1.61,12.12-17.61,20.7-25.84,35.76-34.32,63.98-68.6,91.43-108.23,6.98-10.08,27.6-5.83,40.97-13.67,9.72-19.65,16.8-28.67,29.56-46.01.02-6.8-1.02-3.55,4.04-9.4,1.98-5.41,4.52-17.39,5.99-20.87l-.84-.3.07-.22.78.52s0,0,0,.01h0c1.82,4.62,1.75,7.28,6.59,8.79,3.38-3.41,11.42-22.25,18.51-23.15l-.08.33.23.39c8.26,2.55,11.45,4.75,17.99-2.49.53-2.36-7.3-10.26,5.83-23.82,2.98-3.08.84-5.24-2.29-8.79,38.02-2.05,20.18-11.2,45.35-22.53,13.52,1.92.56,21.82,29.01-8.02-13.65-3.09-54.69-9.35-67.41-6.81-14.11,19.41,9.06,9.34-15.37,20.38-7.22-3.75-4.45-1.05-8.39-8.03l-8.54-1.28c5.88,14.24,1.15,25.69-1.45,43-6.18,7.98-5.54,7.65-15.04,11q-8.17-3.68-15.09-9.36c-2.35,6.76-1.66,7.45-2.07,14.86-18.12,14.24-47.69,1.29-61.91,27.55-9.36,17.29.04,30.37-14.93,42.66-8.58.02-17.15-.12-25.72-.44-9.4,9.74-23.37,26.61-35.13,30.88-7.24-3.44-6.82-3.17-12.31-9.01-.82,16.29-.39,31.26-5.62,46.55-6.98-2.1-3.46-.25-9.86-6.71l-6.33,1.06c-21.24,41.81-35.79,19.47-41.87,36.57,11.34,20.28,12.95,15.23,8.47,31.56l-5.94,1.98-10.79-5.43c-22.19,42.7-19.16,72.57-71.79,49.62-10.84,2.14-6.22-.39-13.77,8.8-3.91,18.97-2.82,22.2-.76,41.99-12.89,2.61-18.26,1.15-31.11-.48-5.94,15.09,1.33,35.02-14.81,45.88-15.08,10.14-18.86,10.31-28.33,26.3-3.54,24.24,2.94,67.77-3.8,76.67-23.06,11.49-27.13,11.26-50.91,2.45l-7-2.54-4.75-1.8-3.95,2.93c11.7,20.12-.53,29.6-15.74,43.7,26.37,21.64,40.63,33.19,75.9,31.9,8.14-26.62,44.87-50.67,60.96-72.72Z"/>
  <path class="st17" d="M1504.94,539.18c-13.07,6.21-22.38-8.02-31.53-17.16-10.04,4.12-12.15,8.21-18.99,16.56-7.82.71-3.86,1.27-11.78-2.27-9.03,22.95-27.78,52.78-43.58,71.86-10.12.93-10.1,1.87-18.61-3.18-4.3,15.76-2.42,20.51-12.44,29.09-31.43.7-38.33-2.49-62.94,19.11-9.06,7.95-6.11,7.69-11.96,4.51l-1.86-9.66c-11.32,6.88-3.16,3.21-11.51,3.73-23.46,1.46-56.76,35.41-78.01,32.75l-4.37-9.14c-10.52,12.79-8,11.17-9.52,31.13,13.28.25,20.69-1.1,31.42,7.15,7.13-11.13,10.48,4.95,17.85,7.43,2.65-.89,3.97-3.61,6.56-5.16,2.55.66,4.79,4.39,4.97,6.94-18.74,19.66-25.57,6.62-50.35,2.82-6.12-2.53-7.73-3.53-13.74-6.9-9.13,3.83-14.56,6.29-24.12,9.03-3.64,11.35-3.22,13.8-3.87,25.52l-5.12,7.23-6.79-.18c-7.49-8.12-9.12-7.56-11.28-16.83-4.46,16.38,15.16,40.13-21.45,43.79-12.44-14.6,3.31-11.57-11.08-14.6-23.9,52.74-57.74,9.37-43.65,82.86,4.61-.37,15.72,1.28,13.86-6.68-2.68-2.63-10.97-5.09-10.8-6.96,2.24-25.16,16.58.22,20.18,4.18,53.55,12.53,42.06,6.64,78.84-29.97-1.25,1.25,10.42,3.75,15.84,2.07-3.62-15.72-6.21-15.35-1.94-28.23,10.75-4.66,12.52-3.46,24.15-2.38,88.9-86.42,165.65-119.93,283.97-151.69-8.72-15.38-12.79-7.93-15.25-26.38,8.5-8.69,7.47-5.96,22.7-8.16l-2.38-11.73c36.3-23.04,16.04-30.65,58.36-44.95-12.28-8.96-24.6-17.85-36.97-26.68.28,11.45,2.45,13.61-2.78,21.13Z"/>
  <path class="st19" d="M1248.63,722.87c-.18-2.55-2.42-6.28-4.97-6.94-2.59,1.55-3.91,4.27-6.56,5.16-7.37-2.47-10.72-18.56-17.85-7.43-6.94,4.1-13.93,8.11-20.97,12.04,24.78,3.8,31.61,16.84,50.35-2.82Z"/>
  <path class="st19" d="M1219.25,713.66c-10.73-8.25-18.15-6.9-31.42-7.15-1.54,4.49-2.17,7.58-3.29,12.28,6.01,3.37,7.62,4.37,13.74,6.9,7.04-3.93,14.02-7.94,20.97-12.04Z"/>
  <path class="st9" d="M550.37,1051.25c10.19,5.15,6.15,7.29,14.39,13.24,3.02,2.18,8.08,4.1,8.97-1.6,1.4-8.87,16.15-5.85,12.03-15.99-4.06-7.3-5.86-4.21-2.61-12.84-7.27.97-7.22,1.44-14.09.14-7.53-21.29,14.49-16.76,18.13-30.84-2.07-3.65-12.29-6.57-12.23-10.64l.2.08c.87-2.14,2.26-3.24,4.07-4.54l1.58-5.22c-4.18,1.85-25.94,8.2-25.48,7.66-.47,5.6,5.1,11.85-1.5,15.54-3-.92-5.05-4.54-6.01-3.63-4.59,4.32-21.51,30.43-15.11,36.61,12.91,5.15,8.57,7.45,17.66,12.04Z"/>
  <path class="st8" d="M991.12,642.54c10.35-1.94,17.57-11.37,16.74-21.87-.83-10.5-9.44-18.68-19.97-18.96-6.6-.18-12.89,2.82-16.91,8.07-4.02,5.24-5.27,12.1-3.37,18.43,3.02,10.09,13.17,16.27,23.52,14.33Z"/>
  <path class="st8" d="M778.11,802.63c-1.8-.27-3.59-.24-5.35.01,1.53.03,3.21.03,5.35-.01Z"/>
  <path class="st8" d="M776.64,839.18c9.36-.65,16.74-8.24,17.11-17.62.38-9.38-6.36-17.53-15.64-18.93-2.14.04-3.82.04-5.35.01-3.98.57-7.73,2.41-10.6,5.36-2.53,2.61-4.19,5.87-4.86,9.35l-.05,6.75c1.67,9.23,10.02,15.73,19.38,15.09Z"/>
  <path class="st8" d="M757.25,824.09l.05-6.75c-.42,2.2-.46,4.48-.05,6.75Z"/>
  <path class="st8" d="M1040.05,513.84c-19.17,9.99-15.62,11.4-17.63,32.44,32.49,10.78,40.03-12.68,17.63-32.44Z"/>
  <path class="st10" d="M510.29,1116.68c3.79-2.29,5.19-7.1,3.22-11.06-1.97-3.97-6.65-5.76-10.76-4.12-2.43.97-4.28,3.01-5.01,5.52-.73,2.51-.27,5.22,1.26,7.35,2.59,3.59,7.5,4.6,11.29,2.31Z"/>
  <path class="st19" d="M583.14,1034.06c-2.72-13.17-8.6-7.8-14.09.14,6.87,1.3,6.82.82,14.09-.14Z"/>
  <path class="st8" d="M1377.41,426.5c5.01,2.93,11.16,4.02,16.71,5.44,1.37-1.59,2.71-3.2,4.09-4.77.7-.8,1.46-1.54,2.14-2.35,5.43-6.45,8.83-13.21,7.89-21.77-.72-6.57-4.09-12.16-9.38-16.1-3.47-2.58-7.31-3.73-11.35-5-1.55-.49-3.1-1.02-4.64-1.52-1.36,1.95-2.68,3.92-4.07,5.85-.7.98-1.48,1.89-2.18,2.86-5.1,7.1-8.46,16.6-6.99,25.42.82,4.96,3.37,9.35,7.79,11.93Z"/>
  <path class="st8" d="M1255.95,502.22c5.91-3.17,9.65-9.28,9.79-15.98.15-6.7-3.33-12.97-9.09-16.39-5.76-3.42-12.92-3.49-18.74-.16-8.84,5.05-11.97,16.27-7.03,25.17,4.94,8.9,16.11,12.18,25.08,7.36Z"/>
  <path class="st8" d="M879.89,777.74c6.44-.83,11.93-5.07,14.37-11.09,2.44-6.02,1.44-12.88-2.6-17.96-4.04-5.08-10.51-7.59-16.92-6.56-9.71,1.55-16.37,10.61-14.97,20.35,1.41,9.73,10.37,16.53,20.12,15.27Z"/>
  <path class="st8" d="M1178.47,583.29c5.66-2.7,9.34-8.33,9.53-14.6.19-6.26-3.13-12.11-8.61-15.15-5.48-3.04-12.2-2.76-17.42.72-7.3,4.88-9.59,14.56-5.25,22.19,4.34,7.63,13.83,10.61,21.75,6.84Z"/>
  <path class="st8" d="M1326.36,533.79c4.56,3.3,10.59,3.75,15.57,1.15,6.8-3.54,9.77-11.68,6.87-18.78-2.91-7.09-10.74-10.8-18.07-8.56-5.38,1.65-9.37,6.19-10.29,11.74-.93,5.55,1.37,11.15,5.92,14.45Z"/>
  <path class="st8" d="M540.97,1146.22c4.3,2.91,9.83,3.27,14.47.94,6.97-3.51,9.86-11.94,6.49-18.98-3.36-7.04-11.74-10.1-18.85-6.88-4.73,2.14-7.93,6.67-8.37,11.84-.44,5.17,1.95,10.18,6.25,13.09Z"/>
  <path class="st8" d="M720.98,933.4c4.46,3.05,10.28,3.27,14.96.57,6.19-3.57,8.72-11.22,5.87-17.77-2.84-6.56-10.15-9.94-16.99-7.86-5.17,1.58-8.98,5.98-9.8,11.32-.82,5.34,1.5,10.68,5.96,13.73Z"/>
  <path class="st8" d="M652.75,1039.52c4.61-.92,8.35-4.31,9.7-8.82,1.36-4.5.12-9.39-3.21-12.71-3.33-3.32-8.23-4.53-12.73-3.16-6.5,1.99-10.29,8.72-8.63,15.31,1.66,6.59,8.2,10.72,14.86,9.38Z"/>
  <path class="st8" d="M1044.46,356.07c-37.47,26.39-74.22,59.08-113.7,82.39-8.59,5.07-25.14,3.28-35.6,2.73l21.08,5.13c2.4,6.59,2.26,3.85,2.08,7.96-76.72,70.41-147.45,147.08-211.46,229.21l6.6,6.53c16.43-11.75,22.42-1.02,33.28-10.69-9.43-2.45-5.38-.28-11.62-7.74l1.22-6.23,7.03,2.23c10.33-9.4-2.28-12.42,12.96-24.61l5.01,3.35c12.22-10.15,13.38-10.56,29.04-13.38l2.13-4.92-6.45-13.31c20.01-37.59,74.37-63.59,107.93-86.22,4.02-2.71,7.82-43.48,7.64-50.34,10.95-4.52,24.12-6.24,36.05-8.52,6.41,5.36,2.85,3.18,10.73,6.46,16.4-16.33,22.47-50.03,40.38-57.49,4.47,7.93,2.74,5.7,8.82,11.81,15.62-1.73,40.05-20.35,59.02-25.05,4.75,6.26,1.85,4.41,8.04,6.49,14.18-16.07.35-47.24,27.38-54.53,22.79-6.15,46.27-9.69,68.54-17.89l1.71-16.87c6.77-4.52,8.12-5.13,15.56-7.75l6.38-2.21c5.17-19.71-5.13.25-4.59-18.39,9.1-1.82,13.42,1.92,23.82,5.77,11.54-5.26,9.16-6.44,17.11-20l6.79,1.43c5.67,8.42,7.94,13.12,16.35,19,9.13-8.39,31.85-27.37,42.83-31.55l12.28,10.02c10.99-.96,5.83.67,14.85-7.31,2.69-11.69,3.08-14.69,7.96-25.92,8.61-7.01,4.05-6.02,13.2-6.29l13.04,26.97c15.53-.34,22.1-10.43,39.72-14.39l-6.33-3.36c15.85-25.31,16.08-14.44,13.65-38.99l4.65-1.75c18.19,26.37,40.12-4.74,65.97,22.72,11.22-18.15,31.4-71.11,58.46-65.73,1.73,1.96,1.41.88,1.41,3.06-31.24,30.39-48.85,80.18-63.06,120.31-11.92,68.76-15.77,148.72,28.09,208.74,5.42,7.3,11.19,14.33,17.29,21.07,12.37,8.82,24.69,17.71,36.97,26.68l9.52,1.47,2.11-4.14-5.02-5.96,2.24-5.97c9.22-.54,9.09-.12,17.45-3.75l.18-8.84c-17.62-4.4-27.13-10.28-43.05-18.3,50.49,11.91,148.98,36.76,193.62,4.35-18.88-8.85-31.96-13.93-52.66-13.56-16.85,11.06-86.63,1.68-96.61-16.88,6.29-3.1,53.24,17.91,90.93,5.06l-6.35-5.59c-37.07-30.13-51.71-63.11-57.53-110.45-4.43-36.03-3.47-70.85,4.22-106.39.77-3.54,9.06-43.79,17.25-37.97,2.43,7.01-4.59,29.41-5.86,37.95-7.41,49.46-8.74,120.32,15.94,166.02,6.49-8.66,7.55-7.26,16.34-13.69,3.22-3.13-3.46-7.1-1.95-10.44,8.67-19.22,20.95-4.07,10.28-20.19,7.86-14.11,26.1,5.61,22.59-37.39,1.36-1.08.49-.66,2.78-.74,4,2.45,6.39,7.33,8.92,11.21,6.8-8.39,5.65-4.83,11.49.29,5.89,1.24,11.11-4.11,16.15-6.01,7.01-3.07,14.61,6.42,20.48,4.77,6.94-1.94,18.19-.7,21.35-9.17,3.63-9.76-10.3-12.5-3.61-23.77,8.48-3.41,4.14,14.14,17.1,11.73,1.57-4.74-1.09-9.08,1.08-10.47,8.19-5.27,16.58-13.52,26.8-6.91-3.38,4.97-4.35,10.6,3.64,10.09,5.27-6.46,1.41-27.07,22.68-11.56,20.62-7.47,114.6-92.29,134.13-111.59l5.01-4.38c15.47-13.97,3.62,7.83-.91,13.82-52.45,50.25-79.4,77.92-116.21,140.51l11.36,10.49c27.34-99.87,316.98-214.45,116-248.17-146.41-24.56-302.24,27.24-445.6,40.18l-3.37.28c-123.55,31.94-224.15,62.96-338.24,121.67-49.26,25.35-99.37,51.67-144.88,83.73ZM1782.57,236.66c3.42-11.37,12.87-19.9,24.53-22.14,16.58-3.2,32.78,7.06,36.97,23.41,4.2,16.35-5.06,33.15-21.13,38.33-11.3,3.64-23.69.72-32.16-7.59-8.47-8.31-11.64-20.64-8.21-32ZM1734.93,330.71c1.21-4.78,10.14-8.62,13.82-10.83.9,4.64,1.29,4.95-.75,8.92-2.49,4.86-3.49,5.54-8.1,7.01-.77-.38-3.31-1.31-4.36-2.39-.69-.71-.86-1.78-.62-2.72ZM1280.63,251.55c1.18.08,3.58-.14,4.45,1.14.67.97.48,2.18.21,3.23-.1.39-.25.77-.37,1.16l-1.27,4.2c-1.46-.6-3.34-1.24-4.74-2.13-.79-.5-1.35-1.31-1.43-2.25-.15-1.84,2.4-4.38,3.15-5.34Z"/>
  <path class="st3" d="M1965.4,207.4l-4.1-9.45c-19.52,19.3-113.51,104.12-134.13,111.59-5.36,43.24-12.27,20.52-23.38,30.55.13,3.03,2.55,2.13,1.62,5.97-3,1.7-1.9.42-4.68.32-8.52-.3-11.24,17.36-22.32,18.28-2.97.25-5.27.35-8.12.93l-.47.71c1.02,1.15,2.05,2.3,3.08,3.45-3.13,11.26-10.21,9.28-16.73,11.6-5.08,10.26-4.82,9.66-13.52,16.92-.01,3.05-.03,6.09-.04,9.14-.96,12.21-6.53,19.12-19.42,21.49,1.82,1.67,3.17,2.63,3.41,5.13-2.42,4.61-10.1,10.29-15,11.84-2.76-.9-4.24-3.81-6.41-5.48-4.42,4.63-2.3,4.66-5.38,8.77-6.77,2.55-9.2-8.73-13.8-8.99-5.29,3.86-1.43,7.53-6.87,9.9-2.4-1.51-3.97-3.26-6.86-2.6-5.41,8.25-8.88,16.04-15.21,25.18l6.35,5.59c1.11,6.89,1.25,6.25,5.68,11.81,20.7-.37,33.78,4.71,52.66,13.56-3.47,10.18.81,9.93,10.38,11.14,22.58-9.41,46.84-11.21,72.56-19.23,83.59-26.07,194.7-170.42,230.61-248.24-35.55,23.04-151.19,129.28-183.81,121.25-6.66-10.66-4.41-4.53-2.26-20.61,36.81-62.59,63.76-90.26,116.21-140.51ZM1934.58,360.92c-4.4,25.97-61.62,69.51-82.73,84.08-40.09,27.67-84.75,43-133.25,33.94-.26-.56-.51-1.12-.78-1.66-.45-.89-1.09-1.7-1.28-2.7-.18-.94.23-1.57,1.02-2.11,3.89-2.7,14.21.41,18.6.68,81.63,5.1,142.83-64.1,198.41-112.22Z"/>
  <path class="st20" d="M1736.17,473.14c-4.39-.27-14.71-3.38-18.6-.68-.8.55-1.2,1.18-1.02,2.11.19,1,.82,1.81,1.28,2.7.28.55.52,1.11.78,1.66,48.5,9.06,93.15-6.27,133.25-33.94,21.11-14.57,78.32-58.11,82.73-84.08-55.58,48.12-116.78,117.32-198.41,112.22Z"/>
  <path class="st20" d="M1662.4,452.34c-2.71-19.92,15.03-12.06,23.07-27.48l-.95-1.52c-16.22-5.87,8.03-8.75,17.23-25.02,5.02-.24,10.29,1.97,15.24,2.68l3.89.53c-1.16-4.42-9.76-25.32,1.94-20.59,8.99,3.63,4.47,14.33,15,16.37,1.6.32,3.2.64,4.8.96,8.71-7.25,8.45-6.66,13.52-16.92,6.52-2.32,13.6-.33,16.73-11.6-1.02-1.15-2.05-2.3-3.08-3.45l.47-.71c2.85-.58,5.15-.68,8.12-.93,11.08-.92,13.8-18.58,22.32-18.28,2.78.1,1.68,1.37,4.68-.32.93-3.83-1.49-2.94-1.62-5.97,11.11-10.03,18.02,12.7,23.38-30.55-21.27-15.51-17.41,5.1-22.68,11.56-7.98.5-7.02-5.12-3.64-10.09-10.21-6.61-18.61,1.64-26.8,6.91-2.17,1.4.49,5.74-1.08,10.47-12.95,2.41-8.61-15.14-17.1-11.73-6.7,11.27,7.23,14.01,3.61,23.77-3.15,8.46-14.4,7.22-21.35,9.17-5.87,1.64-13.47-7.84-20.48-4.77-5.05,1.9-10.26,7.26-16.15,6.01-5.83-5.12-4.68-8.68-11.49-.29-2.53-3.88-4.92-8.76-8.92-11.21-2.3.08-1.43-.33-2.78.74,3.51,43-14.73,23.29-22.59,37.39,10.67,16.12-1.61.97-10.28,20.19-1.51,3.34,5.17,7.31,1.95,10.44-8.78,6.43-9.85,5.02-16.34,13.69,2.69,5,23.63,45.18,31.33,30.55Z"/>
  <path class="st12" d="M1722.83,380.94c-11.71-4.73-3.11,16.17-1.94,20.59,10.2,21.94-6.37,16.18,21.71,5.87.01-3.05.03-6.09.04-9.14-1.6-.32-3.2-.64-4.8-.96-10.53-2.03-6.01-12.74-15-16.37Z"/>
  <path class="st14" d="M1679.12,450.05c5.44-2.37,1.58-6.04,6.87-9.9,4.6.26,7.03,11.54,13.8,8.99,3.08-4.1.96-4.14,5.38-8.77,2.17,1.67,3.65,4.58,6.41,5.48,4.9-1.55,12.58-7.23,15-11.84-.24-2.5-1.59-3.46-3.41-5.13,12.89-2.37,18.46-9.28,19.42-21.49-28.08,10.31-11.51,16.07-21.71-5.87l-3.89-.53c-4.95-.71-10.22-2.92-15.24-2.68-9.2,16.27-33.46,19.15-17.23,25.02l.95,1.52c-8.04,15.42-25.78,7.56-23.07,27.48-7.7,14.62-28.64-25.55-31.33-30.55-24.68-45.7-23.35-116.56-15.94-166.02,1.28-8.54,8.29-30.94,5.86-37.95-8.2-5.82-16.49,34.43-17.25,37.97-7.68,35.54-8.64,70.36-4.22,106.39,5.82,47.33,20.46,80.32,57.53,110.45,6.33-9.14,9.8-16.93,15.21-25.18,2.89-.66,4.46,1.09,6.86,2.6Z"/>
  <path class="st10" d="M1411.79,318.57c28.16-10.98,19.21,20.31,27.59,22.86,13.83-8.27,2.78-51.38,22.96-53.18,14.21-40.12,31.82-89.91,63.06-120.31,0-2.18.32-1.11-1.41-3.06-27.06-5.38-47.24,47.58-58.46,65.73l-1.74,4.85c-.24.72-.47,1.44-.71,2.16l-4.53,12.54c-2.47,6.68-7.96,23.85-14.85,25.36-8.87,1.95-6.16,10.18-3,16.09-.63-.64-1.26-1.28-1.89-1.92l.03-.06c-1.99-2.23-.9-1.39-3.11-2.68-3.67,1.01-5.23,4.81-8.7,6.25-1.8-.53-4.25-2.65-4.03-3.89,2.82-15.56-6.71-32.98-24.23-4.9.19,11.82-1.4,19.02-1.31,29.91,6.1.37,12.72,4.88,14.32,4.26Z"/>
  <path class="st7" d="M1721.73,503.59c-44.64,32.41-143.13,7.56-193.62-4.35,15.93,8.02,25.43,13.9,43.05,18.3,50.14,16.01,112.17,19.49,160.94-2.81-9.56-1.21-13.84-.96-10.38-11.14Z"/>
  <path class="st4" d="M1572.46,473.16c9.98,18.55,79.76,27.94,96.61,16.88-4.43-5.56-4.57-4.92-5.68-11.81-37.7,12.85-84.64-8.17-90.93-5.06Z"/>
  <path class="st14" d="M1966.31,193.57l-5.01,4.38,4.1,9.45c4.53-5.99,16.38-27.79.91-13.82Z"/>
  <path class="st14" d="M1822.95,276.26c16.07-5.18,25.32-21.98,21.13-38.33-4.2-16.35-20.4-26.61-36.97-23.41-11.66,2.25-21.1,10.78-24.53,22.14-3.43,11.37-.26,23.69,8.21,32,8.47,8.31,20.86,11.24,32.16,7.59ZM1806.91,241.24c3.1-3.19,7.72-4.39,11.98-3.12,4.26,1.27,7.46,4.8,8.31,9.17.84,4.36-.81,8.84-4.28,11.61-4.93,3.93-12.06,3.35-16.29-1.32-4.23-4.67-4.11-11.82.28-16.34Z"/>
  <path class="st8" d="M1822.92,258.9c3.48-2.77,5.13-7.24,4.28-11.61-.85-4.37-4.05-7.9-8.31-9.17-4.26-1.27-8.88-.07-11.98,3.12-4.39,4.52-4.52,11.67-.28,16.34,4.23,4.67,11.36,5.25,16.29,1.32Z"/>
  <path class="st20" d="M1739.91,335.81c4.6-1.48,5.61-2.15,8.1-7.01,2.04-3.98,1.65-4.28.75-8.92-3.68,2.21-12.61,6.05-13.82,10.83-.24.94-.07,2.01.62,2.72,1.05,1.08,3.59,2.01,4.36,2.39Z"/>
  <path class="st20" d="M1278.9,259.14c1.41.88,3.29,1.53,4.74,2.13l1.27-4.2c.12-.39.27-.77.37-1.16.27-1.06.46-2.27-.21-3.23-.88-1.28-3.27-1.06-4.45-1.14-.75.96-3.3,3.5-3.15,5.34.08.94.63,1.76,1.43,2.25Z"/>
  <path class="st3" d="M1486.33,589.68l2.38,11.73c-15.23,2.2-14.2-.53-22.7,8.16,2.46,18.45,6.53,11,15.25,26.38,24.21-5.26,65.82-17.64,89.77-10.92,1.39.39,4.5,5.48,3.92,6.37-38.3,59.32-151.32,193.34-211.83,223.43-7.55-3.75-21.87-12.07-29.74-13.7-7.56-1.57-28.04-20.68-31.78-18.94-19.03,8.88-29.81-22.15-49.68-18.34-16.65,1.93-40.62-7.18-54.63-16.22-11.63-1.08-13.39-2.28-24.15,2.38-4.27,12.88-1.68,12.52,1.94,28.23-5.42,1.68-17.09-.82-15.84-2.07-36.78,36.61-25.29,42.51-78.84,29.97l-1.15,4.51c-6.09,26.04-22.05,31.17-41.27,38.87,10.71,14.57,2.08,12.13-5.31,10.35-5.76,3.18-4.84,25.88-17.27,29.9-10.31,3.33-9.23,4.89-14.42,11.17-10.13-4.94-48.67,15.05-53.41,23.04l-1.61.94c-3.12-1.38-4.15-4.65-6.59-6.81-13.34,9.08-1.92,36.12-15.18,45.23-1.79-1.59-3.05-2.89-5.46-3.32-11.06,5.37-35.82,10.75-47.87,10.7-5.06,5.85-4.02,2.6-4.04,9.4-12.76,17.34-19.84,26.36-29.56,46.01-13.37,7.84-33.99,3.59-40.97,13.67-27.44,39.63-55.67,73.91-91.43,108.23-8.57,8.23-11.09,27.45-20.7,25.84l-7.84-6.78c-18.48,4.03-43.41,40.29-46.8,58.11l6.77,4.3-18.67-1.77c-17.14,14.8-9.49,29.75-14.05,49.62-2.3,10.01-16.77,24.27-21.2,34.27-9.24,20.86-44.78,26.58-54.91,44.88,2.34,8.17,8.81,23.01,5.37,27.73-16.09,22.05-52.83,46.1-60.96,72.72,129.02-16.91,121.09-163.3,205.71-224.69,59.87-45.76,135.57-63.76,200.6-95.91,90.37-44.67,189.21-80.48,278.63-124.34,127.79-62.68,245.59-162.1,359.66-247.45-6.32-14.94-13.33-11.55-7.29-26.48-6.2,5.32-7.82,7.03-13.29,13.25-21.39,29.77-32.66,18.23-4.89-3.03,18.08-19.55,124.02-109.27,147.86-127.83,2.48-5.99,2.54-5.89,9.02-6.32,11.52-13.46,13.19-14.85,28.03-24.51,7.23-14.08,11.58-14.99,23.42-6.58,7.18-4.77,15.9-12.74,24.38-18.72l1.39-2.59c1.11-2.19,2.01-3.61,4.1-4.84,3.27-.11,4.77,8.81,11.55,14,38.59-34.15,92.77-97.81,128.47-137.99-38.66,26.77-50.65,34.08-95.19,48.29l1.41,16.4c-27.17,38.38-187.47,41.63-221.23,8.56l-9.52-1.47c-42.32,14.3-22.06,21.9-58.36,44.95ZM1435.54,849.67c-54.56,38.28-109.9,75-165.61,111.56-11.4,7.56-23.09,14.68-35.04,21.34-14.75,8.25-63.13,40.13-76.97,37.77l-.96-1.56c3.07-5.44,7.66-6.37,13.21-9.17,2.11-1.06,5.96-3.41,6.39-6.13.35-2.22-1.82-3.52-3.03-4.92-.53-.6-1.48-1.8-1.24-2.77.37-1.55,3.57-2.91,4.12-3.25,8.94-6.71,57.3-37.47,65.37-41.02,27.27-12,170.66-119.17,185.01-119.65,16.79,12.02,9.16,2.09,20.34,2.68,5.25,6.04-8.23,12.78-11.57,15.12Z"/>
  <path class="st1" d="M1251.92,803.85c19.87-3.81,30.64,27.21,49.68,18.34,3.74-1.75,24.22,17.37,31.78,18.94,7.87,1.63,22.19,9.95,29.74,13.7,60.52-30.09,173.54-164.11,211.83-223.43.58-.89-2.53-5.98-3.92-6.37-23.96-6.72-65.56,5.65-89.77,10.92-118.32,31.76-195.07,65.27-283.97,151.69,14.01,9.04,37.98,18.15,54.63,16.22ZM1273.17,735.71c78.65-51.43,167.49-85.26,260.42-99.19,11.4-2.1,22.79-3.59,34.29-5.05-25.35,32.86-171.78,200.68-201.6,207.98-4.52-3.38,9.77-12.96,10.38-14.75,3.29-9.81,98.85-80.89,60.06-84.59-1.66.94-.67.16-1.86,3.31,5.21,21.36-45.5,50.04-58.44,67.8-5.4,7.42-30.06,32.66-40.78,19.09.97-10.49,76.13-70.42,86.15-83.57.72-.94-1.44-3.18-2.56-2.39-34.31,20.8-61.96,51.65-91.41,76.29-1.22,1.02-6.4-8.24-9.54-5.94-.67.49-5.98,1.85-7.71.69-5.82-12.32,110.78-82.18,112.78-91.9-.52-.9-.54-1.3-1.88-1.42-15.49-1.29-123.84,88.32-125.6,88.12-60.17-7.05,98.1-81.31,111.84-102.35-34.89,10.91-108.69,64.68-138.69,86.69-5.2.44-24.27-.25-30.37-.24,26.36-20.3,52.15-39.33,81.03-56.13,27.56-16.03,60.08-29.05,86.2-46.43.04-1.6.08-3.19.12-4.78-2-.81-3.78-.31-5.79.23l.17.17c-58.31,27.21-116.1,57.79-164.59,100.7-4.45,3.94-15.96,2.61-18.3-4.11,11.22-17.55,38.01-36.65,55.68-48.24Z"/>
  <path class="st6" d="M1235.79,788.06c48.49-42.91,106.27-73.49,164.59-100.7l-.17-.17c2-.54,3.79-1.05,5.79-.23-.04,1.59-.08,3.18-.12,4.78.57,5.38,1.18,10.75,1.83,16.12-13.74,21.03-172.01,95.3-111.84,102.35,1.76.21,110.1-89.41,125.6-88.12,1.34.11,1.36.52,1.88,1.42-2,9.72-118.6,79.58-112.78,91.9,1.73,1.15,7.04-.2,7.71-.69,3.14-2.29,8.32,6.97,9.54,5.94,29.45-24.64,57.1-55.48,91.41-76.29,1.13-.79,3.28,1.44,2.56,2.39-10.01,13.14-85.18,73.07-86.15,83.57,10.72,13.57,35.38-11.67,40.78-19.09,12.94-17.76,63.65-46.44,58.44-67.8,1.19-3.15.19-2.37,1.86-3.31,38.79,3.7-56.77,74.79-60.06,84.59-.6,1.79-14.89,11.37-10.38,14.75,29.82-7.31,176.25-175.13,201.6-207.98-11.49,1.46-22.89,2.95-34.29,5.05-92.94,13.93-181.77,47.76-260.42,99.19-17.67,11.59-44.46,30.69-55.68,48.24,2.34,6.72,13.85,8.05,18.3,4.11Z"/>
  <path class="st5" d="M1319.67,738.17c-28.89,16.8-54.67,35.82-81.03,56.13,6.1-.01,25.17.68,30.37.24,30-22,103.81-75.77,138.69-86.69-.65-5.37-1.26-10.74-1.83-16.12-26.11,17.38-58.64,30.41-86.2,46.43Z"/>
  <path class="st14" d="M1729.19,596.94c-2.09,1.23-2.99,2.64-4.1,4.84l-1.39,2.59c-15.58,21.99-100.79,100.12-123.66,112.96-3.76,9.89-12.48,12.98-21.75,17.85,6.75-8.1,11.48-16.25,21.75-17.85,25.91-32.27,68.91-61.41,99.28-94.24-11.84-8.41-16.19-7.5-23.42,6.58-10.79,16.06-11.3,16.8-28.03,24.51-6.48.43-6.53.33-9.02,6.32-14.71,28.92-103.05,91.08-129.68,117.6-6.04,14.92.97,11.54,7.29,26.48,51.07-38.39,188.12-144.77,224.28-193.64-6.78-5.19-8.28-14.11-11.55-14Z"/>
  <path class="st0" d="M1600.04,717.33c22.87-12.84,108.08-90.97,123.66-112.96-8.48,5.98-17.2,13.95-24.38,18.72-30.37,32.83-73.37,61.97-99.28,94.24Z"/>
  <path class="st0" d="M1675.9,629.68c-14.84,9.66-16.51,11.05-28.03,24.51,16.72-7.71,17.24-8.45,28.03-24.51Z"/>
  <path class="st12" d="M1578.29,735.18c9.27-4.87,17.99-7.96,21.75-17.85-10.27,1.6-15,9.75-21.75,17.85Z"/>
  <path class="st14" d="M1060.22,841.97c-.17,1.87,8.12,4.33,10.8,6.96,1.86,7.96-9.25,6.31-13.86,6.68,1.16.03-11.1.01-11.85-.3-12.92-5.35-24.56,32.76-26.73,33.81-14.47,6.95-8.19,6.25-20.58,21.45-28.45,29.84-15.49,9.94-29.01,8.02-25.17,11.33-7.34,20.48-45.35,22.53,3.13,3.55,5.27,5.71,2.29,8.79-13.13,13.56-5.3,21.46-5.83,23.82-6.54,7.24-9.73,5.03-17.99,2.49l-.23-.39.08-.33c-7.1.9-15.13,19.73-18.51,23.15-4.85-1.51-4.78-4.17-6.59-8.78h0c-1.47,3.48-4.01,15.46-5.99,20.87,12.05.06,36.82-5.33,47.87-10.7,2.41.43,3.67,1.73,5.46,3.32,13.27-9.12,1.84-36.15,15.18-45.23,2.44,2.16,3.47,5.43,6.59,6.81l1.61-.94c4.74-7.99,43.28-27.98,53.41-23.04,5.19-6.28,4.12-7.84,14.42-11.17,12.42-4.02,11.5-26.72,17.27-29.9,7.4,1.78,16.02,4.22,5.31-10.35,19.22-7.71,35.18-12.83,41.27-38.87l1.15-4.51c-3.61-3.96-17.94-29.33-20.18-4.18Z"/>
  <polygon class="st14" points="876.08 989.33 876.01 989.55 876.85 989.86 876.86 989.84 876.08 989.33"/>
  <path class="st12" d="M1638.85,660.51c-23.84,18.56-129.78,108.28-147.86,127.83l4.89,3.03c5.47-6.22,7.09-7.93,13.29-13.25,26.63-26.52,114.97-88.68,129.68-117.6Z"/>
  <path class="st13" d="M1495.88,791.36l-4.89-3.03c-27.77,21.26-16.5,32.8,4.89,3.03Z"/>
  <path class="st13" d="M1426.77,831.87c-3.43,13.23-220.35,152-250.38,160.67-.55.34-3.75,1.71-4.12,3.25-.23.97.72,2.17,1.24,2.77,1.22,1.4,3.38,2.7,3.03,4.92-.43,2.73-4.28,5.07-6.39,6.13-5.55,2.8-10.14,3.73-13.21,9.17l.96,1.56c13.84,2.36,62.22-29.52,76.97-37.77,11.95-6.66,23.64-13.78,35.04-21.34,55.71-36.56,111.04-73.28,165.61-111.56,3.34-2.34,16.82-9.09,11.57-15.12-11.18-.59-3.55,9.34-20.34-2.68Z"/>
  <path class="st12" d="M1426.77,831.87c-14.35.49-157.74,107.65-185.01,119.65-8.07,3.55-56.43,34.31-65.37,41.02,30.03-8.67,246.95-147.44,250.38-160.67Z"/>
  <path class="st6" d="M918.33,454.29c-84.43-19.61-225.93,49.2-294.04,98.58-24.95,18.08-31.46,47.22-3.57,27.27,22.43-16.06,174.57-102.53,193.29-96.26,7.77,9.23-16.06,15.66-20.37,17.16-31.99,11.1-62.12,26.01-91.77,42.25-22.3,12.4-68.39,35.7-87.55,55.61-1.8,1.87-2.63,23.41,2.23,20.09,50.32-34.38,101.62-65.03,156.79-91.64,4.47-2.15,7.46-3,9.47,1.42-1.32,9.01-144.65,77.53-160.35,98.33-13.03,17.25-2.65,30.12,12.73,15.59,41.08-27.55,89.5-56.95,134.33-77.52-37.38,33.02-77.2,50.97-118.24,78.92-5.76,3.92-26.96,14.98-28.67,22.4-.84,3.64.77,16.65,4.05,18.93,12.21-2.93,98.5-81.63,110.81-73.71,1.81,6.64-54.24,42.8-62.19,50.5-13.16,12.75-38.73,23.74-47.72,39.01-.85,1.35,2.42,18.18,5.52,19.24,12.36-7.05,56.55-56.08,65.21-54.27,5.75,6.64-60.15,64.32-68.83,72.29,2.85,14.72,6.6,29.26,10.3,43.79,18.26-29.13,46.64-72.17,67.08-98.77,64.01-82.13,134.75-158.8,211.46-229.21Z"/>
  <path class="st7" d="M1680.92,543.59c-31.28,4.05-61.71,1.02-93.91,4.23,48.69,6.86,88.9,13.72,136.64,2.16,10.7-2.59,46.63-14.71,51.78-12.34l-1.41-16.4c-30.1,7.3-62.53,18.38-93.1,22.34Z"/>
  <path class="st8" d="M1145.45,468.38c-2.44-6.05-8.97-29.44-14.91-29.26-21.67.65-25.71,8.24-27.41,24.68l-1.02,6.77c16.88,20.08,28.01,15.98,43.34-2.19Z"/>
  <path class="st8" d="M1309.29,387.69c-2.39-16.42-8.31-51.23-35.04-24.42-9.58,9.61-1.02,19.2,1.49,31.1,17.63,5.43,18.81,3.76,33.55-6.68Z"/>
  <path class="st8" d="M892.14,648.56c-6.98-8.73-14.61-28.83-32.82-11.44-14.11,13.48-3.77,27.34,10.29,36.73,14.84-10.16,14.6-10.04,22.53-25.29Z"/>
  <path class="st8" d="M1397.46,314.31c-.09-10.89,1.5-18.09,1.31-29.91-45.37-12.37-31.24,5.75-33.93,33.22,16.21,1.84,16.57,1.17,32.61-3.3Z"/>
  <path class="st6" d="M455.33,1506.74c-32.28-3.72-61.26-22.08-80.45-48.03-21.12-28.58-28.19-63-22.56-97.83,2.61-16.14,9.41-29.94,15.44-44.93,2.84-7.05,2.24-4.18,1.65-11.57-3.96-.17-7.95-.71-11.84.05-123.95,29.11-266.24,76.68-341.89,186.69l-.78,5.82c23.27-13.98,42.65-35.72,64.89-51.86,31.85-23.11,154.43-98.08,193.18-95.19l2.71,4.78c-20.96,13.42-51.73,20.09-74.97,30.63-35.25,15.99-160.83,84.94-171.46,122.65,4.69,1.9,10.18,6.08,15.01,3.78,17.4-8.31,34.61-28.49,50.29-40.49,43.46-33.26,122.35-81.48,176.06-90.31-9.03,17.81-63.58,34.07-83.74,44.29-47.83,24.53-92.13,55.4-131.69,91.79l35.48,12.62c36.84-31.57,125.46-105.6,170.21-112.46l.77,4.74c-16.99,13.9-37.56,22.82-56.4,33.97-38.67,22.88-75.82,49.97-107.3,82.11,10.26,2.81,36.08,13.41,45.28,8.96,9.15-4.42,21.95-19.47,30.08-26.7,23.36-20.79,93.02-80.18,122.46-79.09l4.44,3.89c-10.61,11.79-34.33,18.94-48.33,27.78-36.82,23.24-71.09,49.85-100.75,81.85l28.03,17.83c37.94-35.38,74.34-71.24,121.87-93.64l4.56,1.33c.08-.08.17-.15.26-.23l-.97-2.53,1.77,1.81c-.27.25-.54.48-.8.72l.13.34-.39-.11c-36.83,33.68-78.61,59.95-114.75,95.3,10.87,6.8,22.12,13.31,32.67,20.58,31.14-34.69,60.49-67.86,98.01-95.92l4.18.54c.82-1.12,1.67-2.22,2.48-3.36l-2.43,3.37h-.04c-28.18,38.37-67.54,67.47-95.19,106.88,10.23,8.18,20.6,16.23,30.54,24.76,27.65-37.42,55.48-77.56,89.81-109.05l1.24,2.86c-24,39.39-56.66,72.69-80.6,111.71,2.83,9.25,5.48,11.07,12.57,17.88,16.06-4.73,71.18-99.63,89.96-119.21l3.33,2.86c-15.58,45.55-83.32,92.03-75.81,142.81l6.63,10.03c18.91-16.69,33.79-47.91,46.1-70.15,14.02-23.85,28.27-47.56,42.75-71.14-.08,39.07-61.76,121.61-82.34,158.97l19.64,27.43c18.11-29.6,82.31-171.57,98.44-180.11.55,29.59-80.22,170.68-99.84,197.26,7.67,14.08,14.91,28.72,24.22,41.8.83-1.25,1.69-2.49,2.5-3.76,27.93-43.06,48.18-96.54,66.62-144.51,8.7-22.63,16.74-58.65,31.2-77.35l3.55,2.48c-4.29,51.37-69.99,191.95-100.13,236.29,7.79,11.28,15.26,22.6,24.54,32.73,38.91-71.31,62.12-144.04,84.04-221.62,2.15-7.6,9.12-39.79,13.86-41.36-2.72,84.04-46.29,197.11-90.16,268.65,8,14.47,15.7,28.49,21.45,44.06,26.89-56.15,49.06-112.83,66.79-172.53,9.11-30.68,19.85-110.78,33.41-133.32,15.84,38.28-38.3,187.34-55.61,229.54-10.67,26.01-27.91,55.01-33.63,82.25,3.92,5.94,6.73,10.07,12.69,14.06,26.19-15.69,63.87-146.71,71.31-176.71,6.58-26.52,23.6-144.36,28.63-153.53l3.98,1.76c3.66,66.22-16.12,145.18-36.72,207.74-6.48,19.67-56.83,130.5-55.77,136.62,17.77-3.92,29.22-23.1,38.51-37.99,66.28-106.33,85.95-295.46,69.21-419.71-29.88,24.38-62.14,41.28-102.09,36.67Z"/>
  <path class="st6" d="M305.85,1479.95c-.08.08-.17.15-.26.23l.39.11-.13-.34Z"/>
  <path class="st6" d="M328.18,1497.32c-.8,1.14-1.65,2.24-2.48,3.36h.04s2.43-3.36,2.43-3.36Z"/>
  <path class="st6" d="M1048.02,1313.12c66.42-68.47,72.21-154.06,92.49-241.04-57.18,28.36-118.05,49.3-175.78,77.16-17.86,8.62-24.14,43.15-3.68,49.03,4.55,1.3,59.08-59.55,74.33-68.66,1.4,6.09,2.96,11.1,4.76,17.02,7.27,9.03-25.59,45.39-33.07,55.85l-10.59,14.93c-10.1,14.05,10.31,17.4,8.99,17.95,15.68-6.43,44.46-81.52,63.59-85.52l15.22,4.8c7.01,20.6-40,90.84-49.54,112.04-4.85,10.77,7.01,25.92,11.13,20.21,24.22-33.59,43.21-77.33,54.4-117.34,1.35-4.8,2.18-16.02,7.83-16.56,16.42,16.75-58.05,145.45-69.49,169.59l.23.12,9.17-9.57Z"/>
  <path class="st6" d="M1038.85,1322.7l-.23-.12c-.11.22-.25.5-.34.71l.57-.59Z"/>
  <path class="st5" d="M1572.21,786.11c-4.45,6.05-7.22,3.1-12.15.34-10.83,6.34-55.17,40.68-68.01,50.22,4.7,2.15,9.37,4.38,14,6.69-.07,10.72.04,21.45.32,32.17,9.94-9.31,34.89-51.45,36.2-51.68l1.77,1.37,10.72,4.64,3.12,4.77,5.19,5.82c8.17-13.58,11.08-24.65,22.69-34.2l11.04-4.15c5.61-11.67,9.58-25.38,13.96-37.74-14.89,11.25-26.79,5.34-38.86,21.76Z"/>
  <path class="st6" d="M1560.05,786.45c4.93,2.77,7.7,5.72,12.15-.34,12.07-16.42,23.96-10.51,38.86-21.76,1.32-3.77,5.17-15.19,5.44-19.02-3.55-3.13-50.58,36.06-56.45,41.11Z"/>
  <path class="st6" d="M693.79,1274.07l2.81,10.63c6.46,3.76-.97,15.33-2.23,24.73,3.68,2.03,7.02,3.84,10.6,6.05,2.07-6.52,9.19-32.48,14.66-34.79,2.01.34,1.18-.07,2.56,1.09,3.05,8.49-9.83,33.21-10.24,41.93,2.68,4.78,13.56,4.44,15.42-5.2,1.55-8.07,12.22-55.98,23.24-50.65,3.96,5.51-13.2,39.33-11.12,48.1.71,2.98,9.63,1.87,10.82.56,17.75-19.6,26.71-64.35,33.46-88.71-39.47,17.81-50.55,24.7-87.24,44.78l-2.76,1.49Z"/>
  <path class="st11" d="M1491.12,965.12c-9.55,10.33-5.4,22.73,12.46,2.87,44.42-49.42,72.33-103.68,93.52-165.88l-11.04,4.15c-11.83,47.02-61.16,122.32-94.94,158.86Z"/>
  <path class="st6" d="M494.52,1051.44l9.5,7.92c8.92-19.45,21.78-43.33,29.39-61.99l2.63-6.03c-54,29.12-63.23,41.57-88.36,95,0,.09,0,.18-.01.26,11.18-8.33,39.59-37.8,46.85-35.18Z"/>
  <path class="st6" d="M447.67,1086.62c0-.09,0-.18.01-.26-.06.14-.13.27-.19.4.05-.04.12-.1.18-.14Z"/>
  <path class="st6" d="M1031.02,1217.29c-5.72,12.92-26.53,28.87-6.88,41.24.78.46,2.66.57,3.55-.04,18.59-22.62,42.95-81.98,56.6-103.84l-15.22-4.8c-5.62,21.57-28.62,46.16-38.05,67.44Z"/>
  <path class="st5" d="M635.01,1338.56c-1.79,4.25-4.15,8.71.84,12.06,6.71,4.31,10.08-12.76,9.98-13.78-.33-3.52,15.09-35.27,18.51-22.16.73,2.85-12.98,21.17-10.16,27.47,1.79,4,7.49,5.96,10.78,2.78,7.43-6.55,7.58-17.42,13.45-25.1,7.55-12.76,5.91-22.26,18.18-35.13l-2.81-10.63c-22.78,19.81-46.7,35.84-58.78,64.49Z"/>
  <path class="st6" d="M975.7,1199.25c-8.96,11.37,6.39,18.2,8.54,17.09,16.54-8.63,41.71-62.77,55.9-69.71-1.8-5.92-3.36-10.93-4.76-17.02-10.53,24.32-42.49,47.84-59.68,69.64Z"/>
  <path class="st11" d="M1510.31,912.25c-6.71,8.83-29.9,33.74-23.73,43.15,13.36,6.39,70.34-102.42,76.8-114.95l-5.19-5.82c-15.37,29.67-27.28,50.52-47.88,77.63Z"/>
  <path class="st5" d="M493.13,1055.61c-8.97,15.73-46.93,34.23-31.36,55.91,1.15,1.6,5.94-1.65,5.87-2.19,5.39-3.93,11.45-7,17.91-8.75,1.19-.63,2.37-1.25,3.56-1.87,4.8-12.59,11.2-26.69,14.91-39.35l-9.5-7.92c-.46,1.39-.92,2.78-1.39,4.17Z"/>
  <path class="st11" d="M1486.24,915.23c-3.38,3.2-5.11,7.74-5.3,12.4l2.48,2.78-.18.36c12.26-2.62,64.34-85.73,71.84-100.92l-10.72-4.64c-16.41,34.59-29.34,62.77-58.1,90.01Z"/>
  <path class="st5" d="M1467.53,862.24c7.3,15.25,30.38-12.08,38.51-18.88-4.63-2.31-9.3-4.54-14-6.69-10.11,8.28-21.14,14.27-24.51,25.57Z"/>
  <path class="st6" d="M1482.28,902.57c11.28,1.49,21.16-17.94,24.09-27.04-9.13,3.64-27.21,15.49-24.09,27.04Z"/>
  <path class="st11" d="M690.9,1315.19c-2.92,4.76-10.38,13.09-8.93,18.72.46.09.92.18,1.37.28l6.07,1.22c10.38-5.43,11.06-9.5,15.54-19.93-3.58-2.21-6.92-4.02-10.6-6.05l-3.47,5.76Z"/>
  <path class="st16" d="M687.9,756.15c.17.83.46,1.63.6,2.46.07.37.02.76.03,1.13.43.57.72,1.22,1.45,1.46,2.21.74,6.52-2.97,7.45-3.6.82-.55,4.51-2.59,5.24-4.04.11-.22.17-.72-.01-.96-2.72-3.52-7.74-4.84-11.55-6.56-2.68-1.2-5.31-2.51-7.97-3.79,1.19,2.71,2.61,5.33,3.61,8.11.5,1.4.99,5.01,1.15,5.79Z"/>
  <path class="st6" d="M1495.74,867.82c-.72-1.67-.13-.68-2.39-2.49-4.15,3.32-8.36,6.54-12.54,9.83-2.45,1.92-5.98,4.84-6.24,8.25-.18,2.44,3.36,4.57,4.6,5.67,2.83-2.76,5.72-5.44,8.58-8.16,4.17-3.98,7.4-7.27,7.99-13.1Z"/>
  <path class="st15" d="M1181.37,403.18c1.49-.58.53-.1,2.47-2.05,3.37-2.7,11.97-8.1,13.33-12.29l-.28-.26c-2.43.63-2.97.79-4.95,1.89-1.54.85-3.1,1.67-4.65,2.51-1.94.23-5.01-.08-6.37,1.9-1.33,1.94-1.74,4.61-.97,6.84.38,1.11.58,1.04,1.42,1.45Z"/>
  <path class="st16" d="M988.32,444.09c.39.67.97,1.13,1.74,1.23.49.05,2.71-.24,2.96-.27.08-1.22.15-2.44.24-3.66.04-.48.14-.95.16-1.42.06-1.32.04-1.1-.33-2.14-.54-.38-.5-.49-1.24-.33-1.5.33-4.94,2.43-5.18,2.56l.97,2.35c.22.56.36,1.16.67,1.69Z"/>
</svg>